<svg id="Слой_1" data-name="Слой 1" xmlns="http://www.w3.org/2000/svg" xmlns:xlink="http://www.w3.org/1999/xlink" viewBox="0 0 607.2 413.86"><defs><style>.cls-1{fill:#0310d7;}.cls-2{fill:#f0d38f;}.cls-3{fill:#0c5adb;}.cls-4{fill:#529dfc;}.cls-5{fill:#fff;}.cls-6{fill:#14dcdf;}.cls-7{fill:url(#Безымянный_градиент);}.cls-8{fill:#f4af92;}.cls-9{fill:#93c2fa;}.cls-10{isolation:isolate;}.cls-11{fill:#2b2b2b;}.cls-12{fill:none;}</style><linearGradient id="Безымянный_градиент" x1="-45.74" y1="-84.51" x2="-86.26" y2="-80.4" gradientTransform="translate(198.68 454.01) scale(0.72 0.47)" gradientUnits="userSpaceOnUse"><stop offset="0" stop-color="#d4917d"/><stop offset="1" stop-color="#d1898e"/></linearGradient></defs><path class="cls-1" d="M632.5,435.47c4.3,0,15.9-.55,19.4.55a2,2,0,0,1,1.4,1.09c-.1.88-.4,1.1-1.2,1.76-4,.1-16.5.54-19.6-.44a1.88,1.88,0,0,1-1.4-1.21A2.63,2.63,0,0,1,632.5,435.47Z" transform="translate(-56.3 -25.99)"/><path class="cls-2" d="M111.2,113.11a11.58,11.58,0,0,1,3.4.44,6.44,6.44,0,0,1,4,2.74,4.14,4.14,0,0,1-.5,4.49c-1.4,2.08-3.4,3.06-6.3,3.72a17.72,17.72,0,0,1-4.3-.77c-1.9-.76-3.5-2-4-3.5a4.12,4.12,0,0,1,.9-4C106.1,114.42,108.4,113.66,111.2,113.11Z" transform="translate(-56.3 -25.99)"/><path class="cls-1" d="M426.4,27.48a5.28,5.28,0,0,1,2.7.77c1.7,1.42.8,5.69.8,7.56,2.7.11,7-.33,9.5.32a2.58,2.58,0,0,1,1.8,1.43c.3.76.1,1-.2,1.64-2.6,1.53-8,.88-11.2.88,0,1.53.1,3.06.1,4.6a4.25,4.25,0,0,1-2,4.16,4.43,4.43,0,0,1-2.2-.66c-1.7-1.53-.7-6.24-.7-8.21-3.2,0-7.2.54-10.3-.11a2.56,2.56,0,0,1-2-1.32c.1-.65,0-1.09.7-1.53,1.9-1.31,8.6-.88,11.3-.88a47.45,47.45,0,0,1-.1-5.36C424.6,29,424.7,28.47,426.4,27.48Z" transform="translate(-56.3 -25.99)"/><path class="cls-2" d="M71.2,234.54c.7.22.6.11,1,.55A126.27,126.27,0,0,0,84,243.63c-5.4,2.41-9.1,5.59-12.9,9.2a63,63,0,0,0-13.3-9.31C63.1,240.89,67.5,238.38,71.2,234.54Z" transform="translate(-56.3 -25.99)"/><path class="cls-3" d="M631.5,161a8.49,8.49,0,0,1,2.4.33c2.6,1.64,1,4.49,2.3,6.57,1.5,2.3,6.7,1.2,9.4,2.08.8.33,1.3.66,1.5,1.31a1.69,1.69,0,0,1-.4,1.65c-2.6,1.31-7.1.87-10.2,1.2a23.06,23.06,0,0,0-1,4.38c-.3,1.53-.5,2.63-2.3,3.61a17.39,17.39,0,0,1-2.3-.54c-1.9-1.65-1.5-3.29-1.9-5.26-.8-3.94-7.6-1.42-10.6-3.28a1.94,1.94,0,0,1-.8-1.76c.6-3.28,6.8-1.09,9.4-2.62C630.2,166.76,627.9,163.15,631.5,161Z" transform="translate(-56.3 -25.99)"/><path class="cls-4" d="M620,247.68a15.6,15.6,0,0,1,6.4.77,4,4,0,0,1,1,.44c.3.11.6.33.9.44s.6.32.9.54a3.47,3.47,0,0,0,.8.55c.2.22.5.44.7.66l.6.65a2,2,0,0,1,.5.77c.1.22.3.55.4.77a6,6,0,0,1-.8,6c-1.6,2.19-4.2,3.07-7.3,3.83a18.64,18.64,0,0,1-6.1-.55c-.3-.1-.7-.21-1-.32a3.4,3.4,0,0,1-.9-.44c-.3-.11-.6-.33-.9-.44s-.5-.33-.8-.55a7.56,7.56,0,0,0-.7-.54l-.6-.66a2.87,2.87,0,0,1-.5-.66,1.82,1.82,0,0,1-.4-.77,5,5,0,0,1-.3-.76,2.2,2.2,0,0,1-.2-.77,2,2,0,0,1-.1-.76v-.77a2,2,0,0,1,.1-.77c.1-.22.1-.55.2-.76s.2-.55.3-.77a6.5,6.5,0,0,1,.4-.77C613.9,249.76,616.6,248.56,620,247.68Z" transform="translate(-56.3 -25.99)"/><path class="cls-5" d="M620.2,251.3a12.78,12.78,0,0,1,2.9,0,6.25,6.25,0,0,1,3.9,2,3.32,3.32,0,0,1,.7,3.39c-.6,1.64-2.2,2.52-4.2,3.29a16.11,16.11,0,0,1-2.3-.11c-.2,0-.5-.11-.7-.11a1.73,1.73,0,0,1-.7-.22c-.2-.11-.4-.11-.6-.22l-.6-.33-.6-.33a2.16,2.16,0,0,1-.5-.33,1.74,1.74,0,0,1-.5-.43l-.4-.44a1.51,1.51,0,0,1-.3-.44.59.59,0,0,1-.2-.44.59.59,0,0,0-.2-.44c0-.11-.1-.32-.1-.43v-.88c0-.11.1-.33.1-.44a.87.87,0,0,1,.2-.44C616.8,252.72,618.3,252.06,620.2,251.3Z" transform="translate(-56.3 -25.99)"/><path class="cls-4" d="M343.5,49.93a13.85,13.85,0,0,1,6,1,4.31,4.31,0,0,1,1,.43,4,4,0,0,1,.9.55,5.53,5.53,0,0,1,.8.55c.3.22.5.44.8.66s.5.43.7.65a4.69,4.69,0,0,1,.6.77,4.67,4.67,0,0,0,.5.77c.1.22.3.54.4.76a6.23,6.23,0,0,1-1.2,6.46c-1.9,2.3-4.6,3.4-8.1,3.95a17.24,17.24,0,0,1-7.1-1.1c-.2-.11-.3-.11-.5-.22s-.3-.11-.5-.22-.3-.11-.5-.22-.3-.22-.4-.22-.3-.21-.4-.32-.3-.22-.4-.33-.3-.22-.4-.33a1.4,1.4,0,0,0-.4-.33l-.3-.33-.3-.33-.3-.33-.3-.32c-.1-.11-.2-.22-.2-.33s-.1-.22-.2-.44-.1-.22-.2-.44-.1-.22-.2-.44a2.15,2.15,0,0,1-.2-.76,2,2,0,0,1-.1-.77v-.77c0-.21.1-.54.1-.76s.1-.55.2-.77.2-.55.3-.77a4.37,4.37,0,0,0,.4-.76c.2-.22.3-.44.5-.66C336.4,51.68,339.7,50.48,343.5,49.93Z" transform="translate(-56.3 -25.99)"/><path class="cls-5" d="M342.3,53.76a24.69,24.69,0,0,1,2.9.11,7.63,7.63,0,0,1,4.3,2.19,3.28,3.28,0,0,1,.6,3.51c-.6,1.75-2.2,2.41-4.3,3.28a11.64,11.64,0,0,1-3.4-.11,6.07,6.07,0,0,1-3.7-2.3,3.76,3.76,0,0,1-.4-3.83A6.47,6.47,0,0,1,342.3,53.76Z" transform="translate(-56.3 -25.99)"/><path class="cls-1" d="M647.4,297.07a21.83,21.83,0,0,1,8,.76,12.1,12.1,0,0,1,7.3,6,7.53,7.53,0,0,1-.6,7.77c-2.1,3-5.5,4.49-9.8,5.47a18.49,18.49,0,0,1-8.5-.87c-3.4-1.32-6.1-3.62-7.2-6.24-.1-.11-.1-.33-.2-.55s-.1-.33-.2-.55-.1-.33-.1-.55-.1-.32-.1-.54a1.08,1.08,0,0,0-.1-.55v-1.1a1.06,1.06,0,0,1,.1-.54c0-.22.1-.33.1-.55s.1-.33.1-.55a1.23,1.23,0,0,1,.2-.55c.1-.21.1-.32.2-.54s.1-.33.2-.44.2-.33.3-.44.2-.33.3-.44.2-.33.3-.43C639.9,299.15,643.2,297.83,647.4,297.07Z" transform="translate(-56.3 -25.99)"/><path class="cls-5" d="M647.5,300.35a18.21,18.21,0,0,1,5.5.22,9.34,9.34,0,0,1,5.3,3.5,5.23,5.23,0,0,1,.3,5.26c-1.2,2.3-3.5,3.39-6.5,4.27a15.91,15.91,0,0,1-5.1-.22c-.3-.11-.6-.11-.9-.22a6.51,6.51,0,0,1-.8-.33c-.3-.11-.5-.22-.8-.32a4.27,4.27,0,0,1-.7-.44c-.2-.11-.5-.33-.7-.44s-.4-.33-.6-.55-.4-.33-.5-.55-.3-.43-.5-.65a5.23,5.23,0,0,1-.4-5.26C642.2,302.32,644.5,301.34,647.5,300.35Z" transform="translate(-56.3 -25.99)"/><path class="cls-1" d="M105.9,148.15a21.54,21.54,0,0,1,8.4.88,12.92,12.92,0,0,1,7.8,5.91,6.92,6.92,0,0,1-.5,7.66c-2.2,3.18-5.8,4.93-10.3,6a21.29,21.29,0,0,1-11.1-1.32c-3.2-1.42-5.7-3.72-6.5-6.46a8.54,8.54,0,0,1,2-8C98,150.12,101.6,148.92,105.9,148.15Z" transform="translate(-56.3 -25.99)"/><path class="cls-5" d="M107.6,151.54a17.23,17.23,0,0,1,5.9,1.21,1.58,1.58,0,0,1,.7.44c.2.11.5.33.7.43s.4.33.6.44.4.33.6.55l.5.55a2.37,2.37,0,0,0,.4.55l.3.65a1.67,1.67,0,0,1,.2.66,1.52,1.52,0,0,1,.1.66v.65a1.52,1.52,0,0,1-.1.66,1.67,1.67,0,0,1-.2.66,1.68,1.68,0,0,0-.2.65l-.3.66c-.1.22-.3.44-.4.66s-.3.44-.5.55c-1.8,1.86-4.2,2.51-7.2,2.84a14.43,14.43,0,0,1-6.2-1.09c-.2-.11-.5-.22-.7-.33a2.09,2.09,0,0,1-.6-.44c-.2-.11-.4-.33-.6-.44s-.3-.33-.5-.54a1.91,1.91,0,0,1-.4-.55c-.1-.22-.3-.33-.4-.55s-.2-.33-.3-.55-.1-.43-.2-.54a1.78,1.78,0,0,1-.1-.77v-.77a2,2,0,0,1,.1-.76,3,3,0,0,1,.2-.77,5.66,5.66,0,0,0,.3-.77,1.38,1.38,0,0,1,.4-.65,2.87,2.87,0,0,1,.5-.66l.6-.66C102.4,152.64,104.7,151.87,107.6,151.54Z" transform="translate(-56.3 -25.99)"/><path class="cls-3" d="M175.5,26.61a51.81,51.81,0,0,1,24.3,3.5c12.3,5,16.6,12.27,20.1,21.79a29,29,0,0,1,7.8-4.16,21.12,21.12,0,0,1,12.2-.33c7.7,2.3,11.9,8.76,15.1,13.91a35.46,35.46,0,0,1,7-1.42,24.54,24.54,0,0,1,13.9,3c3.2,2,5.5,4.93,5.9,8,.4,3.39-1.4,6.24-4.3,8.75-6,.44-12.4.11-18.5.11H155.1c-10,0-20.4.44-30.4,0a26.37,26.37,0,0,1-2.8-.21,23.5,23.5,0,0,1-2.7-.55c-4-1.1-7.4-3.29-9-6.24a9.7,9.7,0,0,1,.4-9.86c1.9-3.17,5.6-5.47,10-6.68,6.9-1.86,13-.11,19.2,2.08a28.12,28.12,0,0,1,8.8-19.71C155.3,31.86,164.4,27.81,175.5,26.61Z" transform="translate(-56.3 -25.99)"/><path class="cls-1" d="M469.2,101c-.2-.44-.3-1-.5-1.43s-.3-1-.5-1.42-.3-1-.4-1.42a7.65,7.65,0,0,0-.4-1.43c-.1-.44-.2-1-.3-1.42s-.2-1-.3-1.42-.1-1-.2-1.43-.1-1-.2-1.42-.1-1-.1-1.42-.1-1-.1-1.43V83.88a6.89,6.89,0,0,1,.1-1.43c0-.44.1-1,.1-1.42s.1-1,.2-1.43.1-1,.2-1.42.2-1,.3-1.42.2-1,.3-1.43a7.77,7.77,0,0,1,.4-1.42c.1-.44.3-1,.4-1.42s.3-1,.5-1.43.3-1,.5-1.42.4-1,.6-1.42.4-1,.6-1.43.4-.87.7-1.42.5-.88.7-1.42a9.3,9.3,0,0,1,.8-1.32c.3-.44.5-.87.8-1.31l.9-1.32.9-1.31.9-1.31a11.47,11.47,0,0,1,1-1.32c10.8-13.47,29.5-24.2,50.4-28.14a112.79,112.79,0,0,1,63.6,6.57c18.3,7.67,32.6,21.57,37.9,36.35,5.5,15.23,3,32.09-8.2,45.67-13.2,16.09-30.1,23.76-54.8,28.36,0,10.84-.4,21.68.2,32.52,10.2,4.16,16.7,8.86,20.9,16.86,2.1,6.35,1.5,12.92,1.5,19.27v21.79l.3,89c18.1,1.42,32.6,7.67,44,17.85,12.5,11.17,16.9,25.51,15,39.53V382c-2.5,14.45-14.9,27.7-31,36.13-5.4,2.85-11.3,5-16.9,7.66-3.9,1.87-7.4,4.06-11.3,5.92-3.2,1.53-6.9,2.84-9.9,4.6a.34.34,0,0,0-.2.11c4.9-.22,39.1-.77,41.3-.11a2.16,2.16,0,0,1,1.5,1.31c.2.55-.1,1.1-.8,1.42a9.16,9.16,0,0,1-3.9.66c-4.2.11-8.4-.11-12.6-.11H559.2l-171.2.22-200.2-.22c-34.5,0-69.1.33-103.6,0a4.18,4.18,0,0,1-2.9-.77c-.5-.54-.4-.87-.1-1.42,3-2,17.6-1.09,22.3-1.09a9.09,9.09,0,0,1-2.1-3.18c-1.3-3.39-1.4-7.23-1.8-10.62-1.1-9.09-1.6-18.29-3.4-27.26-2.2-.11-5.1.1-7.2-.55a3.47,3.47,0,0,1-1.2-2.08c-.8-3.07-1.2-13.69,1-16.1,2.4-1,12.5-.44,15.8-.44-9.5-3.72-17.9-8.65-27.4-12.37-2.9-1.1-5.8-2.19-8.8-3.07-3.4-1-8-1.75-11.1-3.28-.8-.33-.8-.44-1-1.1a2.69,2.69,0,0,1,1.2-1.42,25.7,25.7,0,0,1,6-1.64c8.2-1.64,16.8-2.74,25.4-2,21.7,2,32.3,7.88,45.4,19.93-3.4-9.53-6.8-19.06-12.2-28a33.5,33.5,0,0,1-6.8-1.42,27.75,27.75,0,0,1-12.1-8.1c-5.6-6.35-8.6-13.47-12.3-20.37-3.1-5.8-6.6-11.5-10.1-17.19-1.2-2-2.3-4.05-3.7-5.91-1.6-2.3-5.4-5.7-6.1-8.1-.2-.55.2-.77.6-1.21l1.1-.22c4.5-.44,18.7,6.35,22.4,8.32,16.6,8.87,32.3,22.23,35.5,37.45,1.2,5.91.8,11.17-4.2,16.21,1.3,2.73,2.7,5.36,4.3,8.1,2-3.18,4.4-6.13,6.6-9.2-1-7.66,2.3-13.25,8.1-19.6a58,58,0,0,1,.4-8.32c.3-5.26.7-10.4.9-15.66.5-13.58.2-27.48-.4-41.06L144,212.53c-.8-17.08-1.3-34.16-1.8-51.35-.3-8.43-.5-16.75-.5-25.18,0-3.73-.6-7.89.1-11.5.1-.88.5-1.32,1.5-1.86a4.51,4.51,0,0,1,2.1,0,3.22,3.22,0,0,1,.9,2.19c.2,2.3-.1,4.6-.1,6.9l.2,13.46c.2,11.83.5,23.55,1.1,35.37.3,7.34.3,14.78,1.1,22.12a20.82,20.82,0,0,1,2.3-3c5-5.36,12.1-7.22,20.6-8.32v-1.31c-.1-12.38-.1-24.86-.1-37.23,0-9.09-1.3-22.34,1.6-31,1.7-5.15,5.3-9.53,10.4-13.25a33.21,33.21,0,0,1,15.6-6.46c7.4-.87,17.3-.33,24.9-.33h53.7Z" transform="translate(-56.3 -25.99)"/><path class="cls-5" d="M125.9,372.51c2.9.88,5.6,2,8.3,3.07-3.9-.11-7.7-.11-11.6-.33C123.3,373.71,124.1,373.28,125.9,372.51Z" transform="translate(-56.3 -25.99)"/><path class="cls-5" d="M91.5,378.2h7.2c.1,4.38.4,8.76.4,13.25H91.5C91.2,387,91.4,382.58,91.5,378.2Z" transform="translate(-56.3 -25.99)"/><path class="cls-5" d="M171.1,366.16c1.4,1.31.6,7.23.6,9.09-7.5.11-15.1.22-22.6,0l-.2-.22c2.2-1,4.6-1.53,6.8-2.41C160.9,370.54,165.9,368.35,171.1,366.16Z" transform="translate(-56.3 -25.99)"/><path class="cls-5" d="M171.1,353.24c1.1,1.53.4,7.23.4,9.09-7.9,3.83-17.5,8.54-26.4,10.95l-.3-.33c2.9-2.63,6.7-5,9.9-7.45C160.2,361.34,165.4,357.07,171.1,353.24Z" transform="translate(-56.3 -25.99)"/><path class="cls-5" d="M145.5,342.18h.3a1,1,0,0,1,.3.55c.5,2.3-3.7,22.88-4.7,25.95a15.51,15.51,0,0,1-2.6,4.71c-.3-1.32-.4-2.74-.6-4.17-1.5-5.25-3.7-10.51-5.6-15.65,2.9-3.62,5.4-7.45,7.9-11.28A38.32,38.32,0,0,0,145.5,342.18Z" transform="translate(-56.3 -25.99)"/><path class="cls-5" d="M100.1,394.41h6.4c2.4,8.43,2.5,19.6,3.5,28.36.3,3,.3,6.46,1.5,9.2a6,6,0,0,0,2.8,2.73c.5.33.3.22.6.66l-1.3.22c-1.6,0-3.2-.11-4.8-.11-.1-.11-.2-.11-.3-.22a8.27,8.27,0,0,1-3.4-3.39c-1.7-3.94-1.5-9-2-13C102.2,410.72,101.1,402.62,100.1,394.41Z" transform="translate(-56.3 -25.99)"/><path class="cls-6" d="M171.6,306.48c.4.11.2,0,.6.33-1.4,2.85-3.3,5.59-4.8,8.43-3.2,5.81-5.5,11.39-10.6,16.65a23.81,23.81,0,0,1-15.1,7.66c5.1-6.35,11.1-13.36,18.5-18.39,1.3-.77,2.3-1.21,2.6-2.41.1-.55,0-.44-.3-.88a3,3,0,0,0-1.4,0c-7.7,1.21-16,12.81-19.9,17.63a31.74,31.74,0,0,1,4.3-9.2C150.5,319.29,162.3,310.64,171.6,306.48Z" transform="translate(-56.3 -25.99)"/><path class="cls-5" d="M168.3,394.41a7.87,7.87,0,0,1,2.8.22,1.42,1.42,0,0,1,.4.66c.4,1.31-.1,3.61-.1,4.92,0,6-.6,12.49,1,18.4,2.1,8,7.3,12.48,16.4,17l-6.1-.11c-6.7.11-13.3.11-20,.22a10.26,10.26,0,0,0,2.3-3.94c1.3-4.27,1.2-9.09,1.6-13.47C167.4,410.4,168.2,402.4,168.3,394.41Z" transform="translate(-56.3 -25.99)"/><path class="cls-6" d="M64.6,355.21a105.62,105.62,0,0,1,28.2-1.31c15.2,1.53,26.6,7.11,35.7,15.87-5.1-2.08-10.9-2.84-16.5-3.83a21.82,21.82,0,0,1-4-.77,2.26,2.26,0,0,1-.8-.54c-2.6-2-13.9-4.6-18-5.37a7.54,7.54,0,0,0,3.5-1.53c.5-.55.7-.77.5-1.32a4.8,4.8,0,0,0-2.5-.54A11.44,11.44,0,0,0,84,358c-.5.43-1,1-.8,1.53a4.38,4.38,0,0,0,2.7,2.3c7,1.42,13.7,3.39,20.7,4.82.1.33.1,1.09.5,1.2,2.7,1.32,13.7,2.3,19,4.6-1.8.77-2.6,1.2-3.3,2.63-.4,0-.8-.11-1.1-.11a80.06,80.06,0,0,1-23.6-6.24c-4.4-2.08-8.3-4.49-12.9-6.24C78.2,359.92,71.8,357.29,64.6,355.21Z" transform="translate(-56.3 -25.99)"/><path class="cls-5" d="M171.4,317.1c.7,3.07.2,6.9.2,10v21.57c-3.7,2.41-7,5.15-10.5,7.66-5,3.73-10.1,7.56-14.9,11.5-.5-1.53,2.8-14.56,3.2-17.19.5-3.28.7-6.57.9-9.85C161.4,335.28,166.2,325.64,171.4,317.1Z" transform="translate(-56.3 -25.99)"/><path class="cls-7" d="M147.8,394.41h16.4L162.4,417c-.3,4.59,0,10.07-1.5,14.56a6.34,6.34,0,0,1-2.8,3.17,10.64,10.64,0,0,0-1.1.66c-6.4.44-13.2.11-19.6,0a2.9,2.9,0,0,1,.8-.44c3.3-1.53,5.8-2.84,7.9-5.25l1-20.15C147.3,404.59,147.9,399.45,147.8,394.41Z" transform="translate(-56.3 -25.99)"/><path class="cls-6" d="M78.1,284.15a4,4,0,0,1,.5.11c16.8,5.25,37,20.25,43.9,32.19,4,7,6.5,14.56,2.4,21.79-7.2-13.36-16.1-26.61-28-38.22-.1-.11-.3-.11-.4-.22a3.68,3.68,0,0,0-2.6-.22c-.6,1.1-.1,1.87.7,2.85,3.1,4.38,7.2,8.65,10.6,13,3,3.83,5.8,7.78,8.4,11.72s5,8,7.2,12.15A31.12,31.12,0,0,1,110.2,334c-7.4-6.35-11-15.11-15.1-22.78C90.2,302.1,85.3,292.58,78.1,284.15Z" transform="translate(-56.3 -25.99)"/><path class="cls-8" d="M98.7,378.2l72.6.22c0,4.38.1,8.65.2,13H99.1C99.1,387,98.8,382.58,98.7,378.2Z" transform="translate(-56.3 -25.99)"/><path class="cls-9" d="M565.7,323.45c16.3,1.43,32.9,9.53,43,18.73,12.4,11.39,17.5,25.73,15.1,40.07-2,11.83-7.4,18.62-17.4,27.71-.4-4-2.7-7-5.3-10.4a6.82,6.82,0,0,0,1.2-1.21,40,40,0,0,0,4.5-39.75c-5.4-12.59-14.7-21.46-29.2-29.23A82.42,82.42,0,0,0,565.7,323.45Z" transform="translate(-56.3 -25.99)"/><path class="cls-8" d="M591.9,327.07c.5.11,1,.11,1.5.22s1,.11,1.5.22,1,.11,1.5.22l1.5.32c.5.11,1,.22,1.4.33s1,.22,1.4.33l1.4.33,1.4.33a6.86,6.86,0,0,1,1.4.44c.5.11.9.32,1.4.43s.9.33,1.4.44.9.33,1.3.44a6.57,6.57,0,0,1,1.3.55c.4.22.9.33,1.3.54s.9.33,1.3.55.9.33,1.3.55a4.76,4.76,0,0,0,1.3.55l1.2.65,1.2.66,1.2.66,1.2.66a9.14,9.14,0,0,1,1.1.65,4.1,4.1,0,0,1,1.1.77,6.68,6.68,0,0,1,1.1.77c.4.21.7.54,1.1.76s.7.55,1.1.77.7.55,1,.76.7.55,1,.77a7.17,7.17,0,0,1,1,.88c.3.33.6.54.9.87s.6.55.9.88.6.55.9.87c10.3,10.52,15,24.09,11.9,36.69-3.3,13.9-14.7,25.73-30.4,33.83a65.69,65.69,0,0,1-10.5,4.49,41.12,41.12,0,0,0,3-5.47,39.69,39.69,0,0,0,9.6-7.12c11.7-11.39,16-27.05,13-41-2.7-12.49-10.6-24.42-23.8-33C600.3,331.23,596,329.26,591.9,327.07Z" transform="translate(-56.3 -25.99)"/><path class="cls-8" d="M106.4,394.52h41.4c.1,5-.6,10.07-.9,15.11l-1,20.15c-2.1,2.41-4.6,3.72-7.9,5.25a2.9,2.9,0,0,0-.8.44c-7.9.22-15.9-.22-23.8.22l1.3-.22c-.3-.44-.1-.33-.6-.66a6.54,6.54,0,0,1-2.8-2.73c-1.3-2.74-1.2-6.25-1.5-9.2C108.9,414,108.8,403,106.4,394.52Z" transform="translate(-56.3 -25.99)"/><path class="cls-5" d="M170.9,194.14c.5.44.4.77.4,1.31.4,12.49,0,25.08,0,37.67l-.1,69.75A109.59,109.59,0,0,0,156.3,312c-2,1.42-3.8,3.28-6.1,4.6l-.3-.22c2-22.89,1.4-46,.5-68.88-.3-8-.8-16.09-1-24.09-.1-3.94-.5-7.88,0-11.82a18.34,18.34,0,0,1,4.9-10.84C158.5,196.66,164.2,194.91,170.9,194.14Z" transform="translate(-56.3 -25.99)"/><path class="cls-5" d="M566.2,180.23c8.2,3.4,14.3,8.76,17,15.33a19.67,19.67,0,0,1,1.1,6.35c.3,7.34.1,14.79.1,22.23v78.95c0,6.57.3,13.25,0,19.82a1.23,1.23,0,0,1-.4,1c-6-1.31-11.5-2.84-17.7-3.61-.5-26.83-.2-53.76-.1-80.59C566.1,219.87,565.6,200.05,566.2,180.23Z" transform="translate(-56.3 -25.99)"/><path class="cls-3" d="M545,331.45l.9-.77.6.11c2.4,3,4.3,6.13,6.5,9.09l15.7,22.34,22.7,31.31c3.2,4.38,7.4,8.65,9.6,13.25a12.05,12.05,0,0,1,.4,8.76c-2.5,7.23-13.1,11.94-21.4,15.55-7.7,3.4-15,4.27-24,4.16a57.05,57.05,0,0,1-8.7.33c-11.3,0-19.1-.66-29.4-4.49-8.4-3.07-19-8.32-21.9-15.22-1.5-3.61-.9-8.1.7-11.61,2.6-6,7.8-11.71,11.5-17.52C516.4,374,525,361.56,533.5,349,537.3,343.16,540.9,337.14,545,331.45Z" transform="translate(-56.3 -25.99)"/><path class="cls-1" d="M546.6,402.07a21.22,21.22,0,0,1,8,1.32,11.64,11.64,0,0,1,6.7,6.57,7.28,7.28,0,0,1-1.4,7.66c-2.7,3.29-7,4.82-11.9,5.59a17.23,17.23,0,0,1-9.7-2.08c-3.3-1.76-5.7-4.6-6.2-7.56a8.46,8.46,0,0,1,3.3-7.66C538.4,403.39,542,402.4,546.6,402.07Z" transform="translate(-56.3 -25.99)"/><path class="cls-5" d="M546.1,405.47a18.44,18.44,0,0,1,5,.55l.9.32a3.4,3.4,0,0,1,.9.44,5.75,5.75,0,0,1,.8.44,4.27,4.27,0,0,1,.7.55,3.06,3.06,0,0,0,.7.55l.6.65c.2.22.3.44.5.66s.3.44.4.66a5,5,0,0,1-.5,5.14c-1.6,2.19-4.6,3.62-7.8,4.27a15.88,15.88,0,0,1-6.8-1.31,5.75,5.75,0,0,1-.8-.44,3.47,3.47,0,0,1-.8-.55c-.2-.22-.5-.32-.7-.54l-.6-.66a2.87,2.87,0,0,1-.5-.66,2.44,2.44,0,0,1-.4-.65,5.66,5.66,0,0,1-.3-.77,1.71,1.71,0,0,1-.2-.77,6.11,6.11,0,0,1,1.9-5.69C540.8,406.23,543.1,405.69,546.1,405.47Z" transform="translate(-56.3 -25.99)"/><path class="cls-1" d="M562.4,362c-.5,4.71-4.3,35.69-6.6,37.77-1.5,1.32-4.1,1.54-6.2,1.65-3.1.11-7.3.11-9.6-1.54a4.9,4.9,0,0,1-1.5-2.84c-1.8-6.79-2.4-13.91-3.5-20.81-.7-4.16-2.5-10.84-2.1-14.89a7.16,7.16,0,0,1,3.6-5.15c3.9-2.29,9-2,13.7-1.75,3.1.55,7.6.77,9.6,3A11,11,0,0,1,562.4,362Z" transform="translate(-56.3 -25.99)"/><path class="cls-5" d="M541.7,357.73c3.6-.11,12.3-.77,14.8,1.42,1.1,1,1.2,3,1.2,4.16,0,3.72-1.2,7.67-1.8,11.39l-3.7,22.45-.1.43c-1.8.88-6.4.44-8.7.44-.8-4.49-6.4-34.16-5.5-36.9C538.4,359.59,540,358.49,541.7,357.73Z" transform="translate(-56.3 -25.99)"/><path class="cls-3" d="M201.8,104.35c10.2-.44,20.5-.11,30.7-.11H470.2c8,14.24,18.1,22.45,34.6,31.87L479.2,136l-303.1.11c-.2-7.89.5-15.88,6.8-22.67C187.3,108.62,194.1,105.45,201.8,104.35Z" transform="translate(-56.3 -25.99)"/><path class="cls-1" d="M225.5,111.8a18.38,18.38,0,0,1,6.9.43,10.53,10.53,0,0,1,6.1,4.06,5.49,5.49,0,0,1-.2,5.91c-1.5,2.41-4.1,3.94-7.3,4.93-2.5.22-5,.43-7.3-.33a9.31,9.31,0,0,1-5.6-4.27,6.49,6.49,0,0,1,.5-6.57C220,113.77,222.3,112.67,225.5,111.8Z" transform="translate(-56.3 -25.99)"/><path class="cls-5" d="M226.8,115a16.65,16.65,0,0,1,3.3.22,6.59,6.59,0,0,1,4,2.3.59.59,0,0,1,.2.44c.1.11.1.22.2.44a.7.7,0,0,1,.1.43c0,.11.1.33.1.44v.44a.71.71,0,0,1-.1.44c0,.11-.1.33-.1.44a.81.81,0,0,1-.2.43c-.8,1.65-2.5,2.52-4.5,3.29a11.06,11.06,0,0,1-3.3,0,6.42,6.42,0,0,1-4.1-2.41c-.1-.11-.2-.33-.3-.44s-.1-.33-.2-.44a.67.67,0,0,1-.1-.43c0-.11-.1-.33-.1-.44v-.44a.71.71,0,0,1,.1-.44c0-.11.1-.33.1-.44s.1-.32.2-.43C223.1,116.29,224.7,115.63,226.8,115Z" transform="translate(-56.3 -25.99)"/><path class="cls-1" d="M202.3,111.58a15.44,15.44,0,0,1,6.7.87c.3.11.7.33,1,.44a4,4,0,0,1,.9.55c.3.22.6.33.9.55s.5.43.8.65.5.44.7.66a4.69,4.69,0,0,1,.6.77,3.31,3.31,0,0,1,.5.76c.1.22.3.55.4.77a1.71,1.71,0,0,1,.2.77,1.73,1.73,0,0,1,.1.76v.77a2.35,2.35,0,0,1-.1.77,3,3,0,0,1-.2.76l-.3.66a2.33,2.33,0,0,1-.4.66,2.83,2.83,0,0,1-.5.65c-1.8,2.19-4.7,3.4-8.1,4.06a15.69,15.69,0,0,1-6.8-.88,4,4,0,0,1-1-.44c-.3-.11-.6-.33-.9-.44s-.6-.33-.9-.54-.5-.44-.8-.66-.5-.44-.7-.66a5,5,0,0,1-.6-.76c-.2-.22-.3-.55-.5-.77s-.3-.55-.4-.77a1.7,1.7,0,0,1-.2-.76,1.78,1.78,0,0,1-.1-.77v-.77a2.26,2.26,0,0,1,.1-.76,3,3,0,0,1,.2-.77l.3-.66a2.16,2.16,0,0,1,.4-.65,2.87,2.87,0,0,1,.5-.66C195.9,113.44,198.9,112.34,202.3,111.58Z" transform="translate(-56.3 -25.99)"/><path class="cls-5" d="M203.4,114.64a9,9,0,0,1,3,.44c.2.11.4.11.6.22s.4.11.5.22.3.22.5.33.3.22.5.33.3.22.4.33.3.21.4.32a1.51,1.51,0,0,1,.3.44c.1.11.2.33.3.44a3.74,3.74,0,0,1-.3,3.94c-1,1.53-2.6,2.19-4.8,2.74a9.38,9.38,0,0,1-3.5-.55,5.58,5.58,0,0,1-3.6-3,3.46,3.46,0,0,1,.5-3.51C199.3,115.74,201.1,115.19,203.4,114.64Z" transform="translate(-56.3 -25.99)"/><path class="cls-1" d="M249.5,111.58a19.34,19.34,0,0,1,7.1.76c2.8.88,5.3,2.52,6.3,4.6l.3.66a1.71,1.71,0,0,1,.2.77c0,.22.1.43.1.76v.77c0,.22-.1.44-.1.77a7.28,7.28,0,0,0-.2.76l-.3.66c-.1.22-.3.44-.4.66-1.6,2.3-4.3,3.72-7.6,4.49a19.11,19.11,0,0,1-7-.22,9.64,9.64,0,0,1-6.1-4,5.71,5.71,0,0,1-.3-6C243,114.1,245.9,112.67,249.5,111.58Z" transform="translate(-56.3 -25.99)"/><path class="cls-5" d="M251,115a19.79,19.79,0,0,1,3.6.22,5.37,5.37,0,0,1,3.5,2.3,3.58,3.58,0,0,1,.1,3.61c-.9,1.65-2.5,2.41-4.7,3.07a13.1,13.1,0,0,1-4.2-.33,5.69,5.69,0,0,1-3.5-2.74,3.24,3.24,0,0,1,.5-3.72C247.3,116,249,115.41,251,115Z" transform="translate(-56.3 -25.99)"/><path class="cls-3" d="M528.1,31c16.5-4.27,39-2.19,54.5,3.06,17.6,6,33.5,19,39.9,32.2,7.1,14.67,6.8,30.11-2.7,44.23s-25.5,23.65-45.8,28.69c-6.2,1.53-23.7,3.83-29.8,2.19-11,.77-27-4.38-36.4-8.43a10.62,10.62,0,0,1-1.6-.77c-.5-.22-1.1-.54-1.6-.76s-1.1-.55-1.6-.77-1-.55-1.6-.88-1-.54-1.5-.87-1-.55-1.5-.88-1-.54-1.5-.87a17,17,0,0,1-1.4-1c-.5-.33-.9-.66-1.4-1s-.9-.66-1.4-1a14.68,14.68,0,0,1-1.3-1c-.4-.32-.9-.65-1.3-1s-.8-.66-1.3-1.1-.8-.76-1.2-1.09-.8-.77-1.2-1.1-.8-.76-1.2-1.09-.7-.77-1.1-1.1a10.89,10.89,0,0,1-1.1-1.2,11.55,11.55,0,0,1-1-1.2c-.3-.44-.7-.77-1-1.21a9.78,9.78,0,0,0-1-1.2c-.3-.44-.6-.77-.9-1.21a11.35,11.35,0,0,0-.9-1.2c-.3-.44-.6-.88-.8-1.21s-.5-.87-.8-1.31a8.82,8.82,0,0,1-.7-1.31c-.2-.44-.5-.88-.7-1.32l-.6-1.31-.6-1.32-.6-1.31a7.31,7.31,0,0,1-.5-1.31c-.2-.44-.3-.88-.5-1.32-4.9-15-.3-30.88,10.9-43.91C493.2,42.59,510.2,33.94,528.1,31Z" transform="translate(-56.3 -25.99)"/><path class="cls-5" d="M514.9,85.85a8.2,8.2,0,0,1,1.5.54c3.3,1.54,12.1,7.89,12.9,10.3l-.5.43c-4.5-.43-10.4-6.13-13.6-8.54-4.1,2.3-7.3,5.7-11.5,7.78a4.1,4.1,0,0,1-2.8.44c-.5-.55-.6-.44-.5-1.1C504,92.31,509.6,87.82,514.9,85.85Z" transform="translate(-56.3 -25.99)"/><path class="cls-5" d="M544.4,86.39a14.62,14.62,0,0,1,4.4.33c2,.55,11.3,8,11.9,9.42a3.54,3.54,0,0,1-1.8.87,3.4,3.4,0,0,1-1-.1c-1.1-.44-8.7-6.25-10.2-7.23a5.14,5.14,0,0,0-1.1-.55c-1.3-.55-9.8,7.23-12.7,7.67a2.12,2.12,0,0,1-1.7-.33v-.22C532.3,94,542,87.71,544.4,86.39Z" transform="translate(-56.3 -25.99)"/><path class="cls-5" d="M577.5,71.39c3.5.11,6.4,2.63,8.8,4.38,1.8,1.32,7.1,4.6,7.2,6.35a2.93,2.93,0,0,1-1.6,1.1c-2.3-.77-10.1-7.12-12.7-8.76a6.11,6.11,0,0,0-1.5-.44c-3.9,1-7.7,6.35-11.2,8.21a3.81,3.81,0,0,1-2.7.55,1.76,1.76,0,0,1,0-2C564.8,78.84,574.8,72.38,577.5,71.39Z" transform="translate(-56.3 -25.99)"/><path class="cls-5" d="M577.1,85.85a13.37,13.37,0,0,1,2.1,0c2.5.43,11.7,7.33,13.5,9,.6.55,1,.66.8,1.43a2.93,2.93,0,0,1-1.9.76c-2.9-1.2-9.2-6.24-12.4-8.21l-1.3-.33c-3.1.44-9.2,7-12.6,8.54a2.43,2.43,0,0,1-2.4-1.42C564.2,93.73,574.5,87.16,577.1,85.85Z" transform="translate(-56.3 -25.99)"/><path class="cls-5" d="M563.7,101.18a11.6,11.6,0,0,1,2,.11c2.8.54,13.1,7.88,14.5,9.85.4.55.5.77.2,1.42l-.8.22a9.28,9.28,0,0,1-2.5-.55c-2.3-1.2-8.6-6.35-11.1-8.21a1.58,1.58,0,0,0-.8-.11c-1.8-.22-11.5,7.45-13.8,8.76a2,2,0,0,1-1.6-.44c-.2-.32-.5-.76-.3-1.09C550.3,108.73,560.8,102.71,563.7,101.18Z" transform="translate(-56.3 -25.99)"/><path class="cls-5" d="M531,101a7.14,7.14,0,0,1,2.2.33c2,.76,13.5,8.54,14.1,10.07.3.66.1,1-.3,1.53l-.7.11c-4.1-1.09-10.9-7.33-14.7-9.74-4.5.32-11.2,9.19-16.1,9.19l-.6-.43a1.77,1.77,0,0,1,.2-1C516.9,108,527,102.05,531,101Z" transform="translate(-56.3 -25.99)"/><path class="cls-5" d="M530.7,81.36c2.6-2,11.9-9.75,15.2-10a7.26,7.26,0,0,1,3.5.88c3.5,1.75,11.5,7.55,12.3,10.4l-.5.33c-3.5-.77-10.2-6.68-13.2-8.76l-.9-.33c-2.9,0-10.8,7-13.4,8.76l-.4.22c-1.8-.11-3.6-.11-5.4-.22-4-3.28-8.3-6.35-12.7-9.31-4.1,2.41-7.5,6-11.9,8a3.93,3.93,0,0,1-2.7.33l-.4-.55a1.54,1.54,0,0,1,.3-.77c1-1.53,9.3-7.12,11.5-8.21a9.32,9.32,0,0,1,3.2-1C519.5,71.83,527.4,79,530.7,81.36Z" transform="translate(-56.3 -25.99)"/><path class="cls-5" d="M577.3,55.19h.6c3,.33,10.3,7.66,12.4,9.63-4.5-2.08-7.7-5.36-12.3-7.33-4.7,3.28-9,6.89-13.2,10.4-1.8-.11-3.5,0-5.3,0a156.16,156.16,0,0,0-13-9.75c-5,2.74-9.3,6.46-13.5,9.75l-4.3-.11c-2.7-2.08-11.1-9.2-14.7-9.42a3.83,3.83,0,0,0-2.5.77c-2.6,1.75-5.2,4.82-8.2,6a4.14,4.14,0,0,1-2.3.44l-.2-.33c.9-2.85,7.1-6.68,10-8.65a5.74,5.74,0,0,1,3.4-1c4.7.22,13.1,7.67,16.5,10.3,2.5-2.08,11.9-9.75,15.2-10,4.1-.22,12.1,7.56,15.4,9.64l.5.33C566.3,62.63,571.5,57.49,577.3,55.19Z" transform="translate(-56.3 -25.99)"/><path class="cls-5" d="M176.1,139.28h326c4.9,0,10.3-.33,15.1.44,2.8.44,5.5,1.42,8.2,2.08a79.62,79.62,0,0,0,10.4,2c8.5,1.31,17.3,1.2,25.9.88l-.2,177.93c1.4.33,2.8.55,4.2.77A100.45,100.45,0,0,1,577.5,329c14.5,7.77,23.8,16.75,29.2,29.24A39.94,39.94,0,0,1,602.2,398a4.45,4.45,0,0,1-1.2,1.21c-6-7.34-11.2-14.89-16.5-22.45-8.4-12.15-17-24.31-25.8-36.35-3.1-4.16-5.8-8.65-9.3-12.7-.8-.88-1.9-2.3-3.4-2.74a3.3,3.3,0,0,0-2.1,1c-2.7,2.41-7.6,10.62-9.9,14q-15.3,21.67-29.3,43.8c-3.2,4.93-6.8,9.63-9.8,14.56a43.72,43.72,0,0,0-3.4,7.34,42.46,42.46,0,0,0-.6,7,10.39,10.39,0,0,0,.7,3.5c3.3,9.09,16.7,14.89,27.2,19.27-17.2-.22-34.4-.33-51.6-.11H285.9l-55.2.11c-8.7,0-19.7.55-28.1-.33a38.17,38.17,0,0,1-17.5-6.24,21.39,21.39,0,0,1-8.6-13.58c-.7-4.27-.4-8.76-.4-13l.1-20.8V318.86Z" transform="translate(-56.3 -25.99)"/><path class="cls-9" d="M481.7,419.48c2.3.66,4.7,3.62,6.5,4.93a12.16,12.16,0,0,0-4.1,3,16.69,16.69,0,0,1-1.9,1.86c-.7-.33-.5-.22-.9-.66a15.12,15.12,0,0,0-5.5-4.16C477.7,422.88,479.7,421.24,481.7,419.48Z" transform="translate(-56.3 -25.99)"/><path class="cls-9" d="M447.1,418.72a7.1,7.1,0,0,1,1.6.22c.6.33,5,4.16,6.4,5.14-3.5,1.75-5,2.85-6.5,5.81a1.17,1.17,0,0,1-.6.11c-1.1-1-1.4-2.08-2.4-3.07s-2.5-1.64-3.3-2.63c-1-1.31,2.8-2.3,3.7-3.28A12.33,12.33,0,0,0,447.1,418.72Z" transform="translate(-56.3 -25.99)"/><path class="cls-9" d="M207.7,267.5c-1.1-12.81-.6-25.84-.3-38.65.1-8.32.1-16.64.1-24.86s0-16.31-.2-24.52c-.1-4.82-.7-9.86-.1-14.68a8.82,8.82,0,0,1,3.3-5.69c2.7-2.19,5.9-3,9.9-3.07,7.1-.22,14.3,0,21.4,0l39.8.11H469.9l34.5-.11c6.3,0,12.7-.11,18.9.11a10.64,10.64,0,0,1,5.7,1.54,5.94,5.94,0,0,1,2.6,3.61c.6,3.18.3,6.68.3,10l-.2,16.65c-.2,14.78.2,29.56-.1,44.34-.2,7.89-.2,15.77-.1,23.76.1,6.57.5,13.14-.1,19.71h-.2a13.83,13.83,0,0,0-9.5-5.36,24.7,24.7,0,0,1-4.1-.66l-.4-.87a21.16,21.16,0,0,0,0-2.52V232.13c0-4.92.7-11.38-.2-16.09a7.94,7.94,0,0,0-2.9-5.15c-3.3-2.3-7.6-2-11.8-1.86-.1-3.72.9-8.1-3.1-10.95a12,12,0,0,0-3.5-1.75q-10.2-.17-20.4,0a14.47,14.47,0,0,0-4,2.19c-4,3.28-7.1,7.44-10.6,10.95-6.3,6.46-12.5,12.92-18.5,19.38-5.3,5.69-10.2,11.5-15.8,17.08-.6-14.67-1.3-17.85-15.4-28.58-4.6-3.5-9-7-13.9-10.29a57.44,57.44,0,0,0-34-9.75c-11.2.33-23.3,3.84-31,9.86a42.67,42.67,0,0,0-10.2,11.93c.1-3.94.6-8.1-3.6-11.16-2.9-2.08-6.5-2.63-10.4-2.85.1-1.75.7-4.6-1.1-6a5.82,5.82,0,0,0-2.9-1,76.24,76.24,0,0,0-8.7-.11c-4.3,0-8.7-.22-13-.11-1.8,0-3.9.11-5.2,1.21a72.08,72.08,0,0,0-7.1,6.57c-6.4,6.13-12.3,12.59-18.6,18.72L223,252.06c-3.9,3.84-9.3,8.11-12.3,12.27A6.8,6.8,0,0,0,207.7,267.5Z" transform="translate(-56.3 -25.99)"/><rect class="cls-9" x="151.1" y="168.15" width="323.8" height="124.83"/><g class="cls-10"><g class="cls-10"><path class="cls-11" d="M277.27,246.41l1.58.25a7.49,7.49,0,0,1-2.18,3.58,4.91,4.91,0,0,1-3.23,1.21,4.28,4.28,0,0,1-3.45-1.52,6.58,6.58,0,0,1-1.28-4.35,9.43,9.43,0,0,1,1.94-6.09,5.34,5.34,0,0,1,4.3-2.15,4.17,4.17,0,0,1,3.08,1.17,4.81,4.81,0,0,1,1.37,3.12l-1.49.16a3.85,3.85,0,0,0-1-2.21,2.56,2.56,0,0,0-1.9-.73,4,4,0,0,0-3.55,2.22,8.59,8.59,0,0,0-1.18,4.55,5,5,0,0,0,.91,3.21,2.9,2.9,0,0,0,2.36,1.11,3.26,3.26,0,0,0,2.24-.92A5.3,5.3,0,0,0,277.27,246.41Z" transform="translate(-56.3 -25.99)"/><path class="cls-11" d="M279.81,251.21l1.81-9.88h1.48l-.3,1.63a6.32,6.32,0,0,1,1.47-1.45,2.6,2.6,0,0,1,1.41-.4,2,2,0,0,1,1.35.49,2.35,2.35,0,0,1,.71,1.36,5.08,5.08,0,0,1,1.39-1.39,2.82,2.82,0,0,1,1.54-.46,2.12,2.12,0,0,1,1.63.59,2.33,2.33,0,0,1,.54,1.64,9.25,9.25,0,0,1-.19,1.51l-1.16,6.36H290l1.19-6.53a7.05,7.05,0,0,0,.15-1.14,1,1,0,0,0-.26-.76,1,1,0,0,0-.76-.28A2.47,2.47,0,0,0,289,243a3.14,3.14,0,0,0-1.06,1.2,8.43,8.43,0,0,0-.67,2.27l-.88,4.79h-1.48l1.23-6.67a6.75,6.75,0,0,0,.13-1,1.13,1.13,0,0,0-.27-.79.88.88,0,0,0-.69-.29A2.43,2.43,0,0,0,284,243a3.56,3.56,0,0,0-1.12,1.27,8.43,8.43,0,0,0-.71,2.32l-.85,4.67Z" transform="translate(-56.3 -25.99)"/><path class="cls-11" d="M292.82,255l2.51-13.67h1.36l-.25,1.38a5.5,5.5,0,0,1,1.36-1.25,2.53,2.53,0,0,1,3.32.68,4.6,4.6,0,0,1,.82,2.94,8.43,8.43,0,0,1-.45,2.82,6.74,6.74,0,0,1-1.1,2,4.92,4.92,0,0,1-1.32,1.13,2.8,2.8,0,0,1-1.38.37,2.65,2.65,0,0,1-2.41-1.81l-1,5.37Zm2.92-7.82a5.77,5.77,0,0,0,.14,1.53,2.13,2.13,0,0,0,.67,1,1.67,1.67,0,0,0,1.08.37c.85,0,1.53-.54,2.06-1.63a7.67,7.67,0,0,0,.78-3.34,3.13,3.13,0,0,0-.53-1.94,1.6,1.6,0,0,0-1.31-.68,1.75,1.75,0,0,0-1,.34,3.32,3.32,0,0,0-.89,1,6.3,6.3,0,0,0-.69,1.65A6.52,6.52,0,0,0,295.74,247.18Z" transform="translate(-56.3 -25.99)"/><path class="cls-11" d="M308.69,250a6.06,6.06,0,0,1-1.48,1.1,3.43,3.43,0,0,1-1.52.35,2.48,2.48,0,0,1-1.93-.81,2.92,2.92,0,0,1-.74-2.06,3.11,3.11,0,0,1,.33-1.46,2.86,2.86,0,0,1,.88-1,3.63,3.63,0,0,1,1.34-.55,14.8,14.8,0,0,1,1.89-.18,5.92,5.92,0,0,0,2-.33,4.62,4.62,0,0,0,.17-1.15,1.18,1.18,0,0,0-.37-.92,2.16,2.16,0,0,0-1.5-.46,2.32,2.32,0,0,0-1.52.47,2.59,2.59,0,0,0-.87,1.33l-1.49-.15a4.48,4.48,0,0,1,1.45-2.25,3.91,3.91,0,0,1,2.5-.78,3.62,3.62,0,0,1,2.55.87,2.18,2.18,0,0,1,.71,1.7,9.25,9.25,0,0,1-.2,1.83L310.4,248a10.57,10.57,0,0,0-.23,1.9,7.18,7.18,0,0,0,.18,1.34h-1.49A6.88,6.88,0,0,1,308.69,250Zm.54-3.78a3.39,3.39,0,0,1-.66.21,10.84,10.84,0,0,1-1.19.16,8.42,8.42,0,0,0-1.82.33,1.56,1.56,0,0,0-.8.64,1.79,1.79,0,0,0-.27,1,1.52,1.52,0,0,0,1.65,1.61,2.49,2.49,0,0,0,1.41-.44,3,3,0,0,0,1.07-1.23A7.76,7.76,0,0,0,309.23,246.21Z" transform="translate(-56.3 -25.99)"/><path class="cls-11" d="M314,241.33h1.46l-.78,4.13h4l.77-4.13h1.44L319,251.21h-1.47l.84-4.42h-4l-.83,4.42H312.1Z" transform="translate(-56.3 -25.99)"/><path class="cls-11" d="M327.25,249.43c-1,1.34-2.1,2-3.19,2a2.11,2.11,0,0,1-1.62-.66,2.26,2.26,0,0,1-.62-1.6,13.28,13.28,0,0,1,.28-2.14l1-5.71h1.48l-1.16,6.32a6.93,6.93,0,0,0-.14,1.23,1.21,1.21,0,0,0,.29.87,1.15,1.15,0,0,0,.88.31,2.36,2.36,0,0,0,1.21-.34,3.23,3.23,0,0,0,1-.93,5.18,5.18,0,0,0,.7-1.39,13.76,13.76,0,0,0,.42-1.8l.78-4.27h1.48l-1.82,9.88h-1.36Z" transform="translate(-56.3 -25.99)"/><path class="cls-11" d="M332.43,241.33h1.46l-1.16,6.13a8.55,8.55,0,0,0-.18,1.46,1.11,1.11,0,0,0,.3.85,1.25,1.25,0,0,0,.89.28,2.5,2.5,0,0,0,1.36-.43,3.3,3.3,0,0,0,1.11-1.12,9.59,9.59,0,0,0,.83-2.78l.83-4.39h1.49l-1.33,7c-.14.71-.21,1.11-.21,1.18,0,.34.18.51.55.51h1l-.79,4.05h-1.24l.54-2.7a1.47,1.47,0,0,1-1-.37,1.36,1.36,0,0,1-.41-1.05c0-.1,0-.23,0-.39l-.26.27a4.09,4.09,0,0,1-2.92,1.59,2.08,2.08,0,0,1-1.55-.63,2.4,2.4,0,0,1-.61-1.75,8.71,8.71,0,0,1,.18-1.49Z" transform="translate(-56.3 -25.99)"/><path class="cls-11" d="M346.21,250a5.71,5.71,0,0,1-1.48,1.1,3.42,3.42,0,0,1-1.51.35,2.5,2.5,0,0,1-1.94-.81,2.92,2.92,0,0,1-.73-2.06,3.11,3.11,0,0,1,.33-1.46,2.77,2.77,0,0,1,.88-1,3.65,3.65,0,0,1,1.33-.55,15.23,15.23,0,0,1,1.89-.18,5.94,5.94,0,0,0,2-.33,5.14,5.14,0,0,0,.17-1.15,1.18,1.18,0,0,0-.38-.92,2.16,2.16,0,0,0-1.5-.46,2.34,2.34,0,0,0-1.52.47,2.64,2.64,0,0,0-.86,1.33l-1.49-.15a4.36,4.36,0,0,1,1.45-2.25,3.91,3.91,0,0,1,2.5-.78,3.58,3.58,0,0,1,2.54.87,2.19,2.19,0,0,1,.72,1.7,10.07,10.07,0,0,1-.2,1.83l-.49,2.46a10.42,10.42,0,0,0-.22,1.9,7.18,7.18,0,0,0,.18,1.34h-1.5A6.88,6.88,0,0,1,346.21,250Zm.55-3.78a3.49,3.49,0,0,1-.67.21,10.56,10.56,0,0,1-1.18.16,8.42,8.42,0,0,0-1.82.33,1.52,1.52,0,0,0-.8.64,1.79,1.79,0,0,0-.27,1,1.52,1.52,0,0,0,1.65,1.61,2.54,2.54,0,0,0,1.41-.44,3.07,3.07,0,0,0,1.07-1.23A8.1,8.1,0,0,0,346.76,246.21Z" transform="translate(-56.3 -25.99)"/><path class="cls-11" d="M356.12,241.33h1.46l-.79,4.13h4l.76-4.13H363l-1.83,9.88h-1.47l.83-4.42h-4l-.84,4.42h-1.46Z" transform="translate(-56.3 -25.99)"/><path class="cls-11" d="M369.87,247.86l1.43.16a5.07,5.07,0,0,1-1.42,2.32,3.68,3.68,0,0,1-2.66,1.1,3.21,3.21,0,0,1-3-2,5.51,5.51,0,0,1-.42-2.21,7.8,7.8,0,0,1,.66-3.14,5.2,5.2,0,0,1,1.7-2.26,3.86,3.86,0,0,1,2.26-.74,3.1,3.1,0,0,1,2.48,1.1,4.53,4.53,0,0,1,.92,3,10.9,10.9,0,0,1-.11,1.49h-6.38a3.37,3.37,0,0,0,0,.52,3.46,3.46,0,0,0,.56,2.12,1.66,1.66,0,0,0,1.37.73,2.4,2.4,0,0,0,1.49-.57A3.72,3.72,0,0,0,369.87,247.86Zm-4.3-2.45h4.87V245a3,3,0,0,0-.55-1.94,1.78,1.78,0,0,0-1.43-.68,2.43,2.43,0,0,0-1.72.75A4.61,4.61,0,0,0,365.57,245.41Z" transform="translate(-56.3 -25.99)"/><path class="cls-11" d="M383.42,247.61l1.47.18a5.81,5.81,0,0,1-1.57,2.75,3.45,3.45,0,0,1-2.33.9,2.84,2.84,0,0,1-2.29-1,4.39,4.39,0,0,1-.88-2.92,9.43,9.43,0,0,1,.56-3.18,5.2,5.2,0,0,1,1.62-2.38,3.78,3.78,0,0,1,2.39-.81,2.83,2.83,0,0,1,2.21.9,3.41,3.41,0,0,1,.82,2.37l-1.46.12a2.14,2.14,0,0,0-.47-1.47,1.57,1.57,0,0,0-1.24-.53,2.11,2.11,0,0,0-1.54.64,4.37,4.37,0,0,0-1,2,9.48,9.48,0,0,0-.37,2.51,3.11,3.11,0,0,0,.49,1.9,1.49,1.49,0,0,0,1.21.63,2,2,0,0,0,1.38-.62A4.26,4.26,0,0,0,383.42,247.61Z" transform="translate(-56.3 -25.99)"/><path class="cls-11" d="M385.05,255l.09-1.58a2.82,2.82,0,0,0,.89.15,1,1,0,0,0,.72-.24,3.72,3.72,0,0,0,.79-1.15l.47-1-1.44-9.91H388l.65,5c.13,1,.25,2,.34,3l3.87-8h1.54l-5.52,11.2a7,7,0,0,1-1.42,2.16,2.1,2.1,0,0,1-1.43.53A2.69,2.69,0,0,1,385.05,255Z" transform="translate(-56.3 -25.99)"/><path class="cls-11" d="M399.44,249.56A5.56,5.56,0,0,1,398,251a2.83,2.83,0,0,1-1.53.47,2.05,2.05,0,0,1-1.49-.58,2,2,0,0,1-.61-1.52,13.66,13.66,0,0,1,.29-2.16l1.12-5.85h1.46l-1.21,6.31a7.59,7.59,0,0,0-.16,1.28,1.17,1.17,0,0,0,.24.81.91.91,0,0,0,.74.27,2.23,2.23,0,0,0,1.38-.48,3.81,3.81,0,0,0,1-1.16,6.83,6.83,0,0,0,.63-2l1-5h1.47l-1.24,6.45a6.3,6.3,0,0,0-.14,1.2,1.09,1.09,0,0,0,.23.77.87.87,0,0,0,.69.25,2.62,2.62,0,0,0,1.89-.95,5.46,5.46,0,0,0,1.24-2.92l0-.2.9-4.6h1.45l-1.45,7.5a4.23,4.23,0,0,0-.06.73q0,.48.54.48h1l-.78,4.05h-1.23l.56-2.7c-1,0-1.51-.47-1.51-1.4,0-.1,0-.22,0-.37a3.4,3.4,0,0,1-1.62,1.59,4.89,4.89,0,0,1-1.34.23,1.9,1.9,0,0,1-1.38-.57A2,2,0,0,1,399.44,249.56Z" transform="translate(-56.3 -25.99)"/><path class="cls-11" d="M414.55,247.86,416,248a5,5,0,0,1-1.42,2.32,3.66,3.66,0,0,1-2.66,1.1,3.21,3.21,0,0,1-3-2,5.51,5.51,0,0,1-.42-2.21,7.8,7.8,0,0,1,.66-3.14,5.2,5.2,0,0,1,1.7-2.26,3.86,3.86,0,0,1,2.26-.74,3.1,3.1,0,0,1,2.48,1.1,4.53,4.53,0,0,1,.92,3,10.9,10.9,0,0,1-.11,1.49H410a5.11,5.11,0,0,0,0,.52,3.46,3.46,0,0,0,.55,2.12,1.67,1.67,0,0,0,1.37.73,2.4,2.4,0,0,0,1.49-.57A3.72,3.72,0,0,0,414.55,247.86Zm-4.3-2.45h4.87V245a3,3,0,0,0-.55-1.94,1.78,1.78,0,0,0-1.43-.68,2.43,2.43,0,0,0-1.72.75A4.61,4.61,0,0,0,410.25,245.41Z" transform="translate(-56.3 -25.99)"/><path class="cls-11" d="M423.27,247.61l1.48.18a5.82,5.82,0,0,1-1.58,2.75,3.45,3.45,0,0,1-2.33.9,2.86,2.86,0,0,1-2.29-1,4.39,4.39,0,0,1-.88-2.92,9.43,9.43,0,0,1,.56-3.18,5.2,5.2,0,0,1,1.62-2.38,3.78,3.78,0,0,1,2.39-.81,2.83,2.83,0,0,1,2.21.9,3.37,3.37,0,0,1,.82,2.37l-1.46.12a2.14,2.14,0,0,0-.47-1.47,1.57,1.57,0,0,0-1.24-.53,2.11,2.11,0,0,0-1.54.64,4.26,4.26,0,0,0-1,2,9.11,9.11,0,0,0-.38,2.51,3.11,3.11,0,0,0,.49,1.9,1.49,1.49,0,0,0,1.21.63,2,2,0,0,0,1.38-.62A4.26,4.26,0,0,0,423.27,247.61Z" transform="translate(-56.3 -25.99)"/><path class="cls-11" d="M425.63,251.21l1.82-9.88h1.47l-.3,1.63a6.32,6.32,0,0,1,1.47-1.45,2.64,2.64,0,0,1,1.41-.4,1.92,1.92,0,0,1,1.35.49,2.42,2.42,0,0,1,.72,1.36,5.08,5.08,0,0,1,1.39-1.39,2.8,2.8,0,0,1,1.54-.46,2.1,2.1,0,0,1,1.62.59,2.34,2.34,0,0,1,.55,1.64,10.56,10.56,0,0,1-.19,1.51l-1.17,6.36h-1.48l1.2-6.53a7.05,7.05,0,0,0,.15-1.14,1,1,0,0,0-.27-.76,1,1,0,0,0-.76-.28,2.41,2.41,0,0,0-1.34.45,3.17,3.17,0,0,0-1.07,1.2,8.88,8.88,0,0,0-.66,2.27l-.89,4.79h-1.47l1.22-6.67a5.52,5.52,0,0,0,.13-1,1.17,1.17,0,0,0-.26-.79.91.91,0,0,0-.69-.29,2.43,2.43,0,0,0-1.32.45,3.47,3.47,0,0,0-1.12,1.27,8.1,8.1,0,0,0-.71,2.32l-.86,4.67Z" transform="translate(-56.3 -25.99)"/><path class="cls-11" d="M445.34,246a2.67,2.67,0,0,1,1.23.9,2.33,2.33,0,0,1,.41,1.39,3.12,3.12,0,0,1-.88,2.12,3.3,3.3,0,0,1-2.6,1,3.66,3.66,0,0,1-2-.5,3.27,3.27,0,0,1-1.19-1.41,4.56,4.56,0,0,1-.45-2,7.65,7.65,0,0,1,1.33-4.51,4.2,4.2,0,0,1,3.59-1.87,2.8,2.8,0,0,1,2.06.71,2.41,2.41,0,0,1,.71,1.75,2.27,2.27,0,0,1-.54,1.55A3.22,3.22,0,0,1,445.34,246Zm-4,.62a5.24,5.24,0,0,0-.05.79,3,3,0,0,0,.58,1.92,2,2,0,0,0,1.69.75,1.86,1.86,0,0,0,1.37-.52,1.73,1.73,0,0,0,.51-1.26,1.36,1.36,0,0,0-.71-1.36,7,7,0,0,0-2.6-.33Zm.24-1.32c.4,0,.74.06,1,.06a5.77,5.77,0,0,0,2.51-.42,1.37,1.37,0,0,0,.84-1.27,1.24,1.24,0,0,0-.36-.91,1.29,1.29,0,0,0-.95-.36,2.71,2.71,0,0,0-1.87.78A4.18,4.18,0,0,0,441.62,245.34Z" transform="translate(-56.3 -25.99)"/><path class="cls-11" d="M447.18,255l.09-1.58a2.82,2.82,0,0,0,.89.15,1.06,1.06,0,0,0,.72-.24,3.73,3.73,0,0,0,.78-1.15l.48-1-1.45-9.91h1.46l.65,5c.13,1,.24,2,.33,3l3.88-8h1.54L451,252.53a7.24,7.24,0,0,1-1.42,2.16,2.12,2.12,0,0,1-1.43.53A2.65,2.65,0,0,1,447.18,255Z" transform="translate(-56.3 -25.99)"/><path class="cls-11" d="M462.45,247.86l1.44.16a5,5,0,0,1-1.43,2.32,3.66,3.66,0,0,1-2.65,1.1,3.26,3.26,0,0,1-1.77-.51,3.18,3.18,0,0,1-1.22-1.47,5.51,5.51,0,0,1-.42-2.21,8,8,0,0,1,.65-3.14,5.27,5.27,0,0,1,1.7-2.26,3.86,3.86,0,0,1,2.26-.74,3.08,3.08,0,0,1,2.48,1.1,4.48,4.48,0,0,1,.93,3,9.55,9.55,0,0,1-.12,1.49h-6.38a5.11,5.11,0,0,0,0,.52,3.46,3.46,0,0,0,.56,2.12,1.66,1.66,0,0,0,1.37.73,2.43,2.43,0,0,0,1.49-.57A3.63,3.63,0,0,0,462.45,247.86Zm-4.29-2.45H463c0-.17,0-.3,0-.37a3,3,0,0,0-.56-1.94,1.76,1.76,0,0,0-1.42-.68,2.45,2.45,0,0,0-1.73.75A4.52,4.52,0,0,0,458.16,245.41Z" transform="translate(-56.3 -25.99)"/><path class="cls-11" d="M465.18,251.21l1.82-9.88h1.47l-.3,1.63a6.32,6.32,0,0,1,1.47-1.45,2.62,2.62,0,0,1,1.41-.4,1.92,1.92,0,0,1,1.35.49,2.35,2.35,0,0,1,.71,1.36,5.11,5.11,0,0,1,1.4-1.39,2.77,2.77,0,0,1,1.53-.46,2.11,2.11,0,0,1,1.63.59,2.33,2.33,0,0,1,.54,1.64,10.16,10.16,0,0,1-.18,1.51l-1.17,6.36h-1.48l1.19-6.53a6.31,6.31,0,0,0,.16-1.14,1,1,0,0,0-.27-.76,1,1,0,0,0-.76-.28,2.47,2.47,0,0,0-1.35.45,3.23,3.23,0,0,0-1.06,1.2,9.24,9.24,0,0,0-.67,2.27l-.88,4.79h-1.47l1.22-6.67a5.52,5.52,0,0,0,.13-1,1.17,1.17,0,0,0-.26-.79.91.91,0,0,0-.69-.29,2.43,2.43,0,0,0-1.32.45,3.38,3.38,0,0,0-1.12,1.27,8.1,8.1,0,0,0-.71,2.32l-.86,4.67Z" transform="translate(-56.3 -25.99)"/></g></g><rect class="cls-12" x="300.9" y="239.1" width="9.8" height="6.57"/><rect class="cls-12" x="282.3" y="239.1" width="21.5" height="4.93"/><polygon class="cls-12" points="189.7 184.9 281.5 184.9 281.5 184.9 189.7 184.9"/><path class="cls-5" d="M226.9,166.55a8.14,8.14,0,0,1,2.3.32,3.72,3.72,0,0,1,2.4,1.87,2.53,2.53,0,0,1-.4,2.84,5.1,5.1,0,0,1-3.5,1.86,15.23,15.23,0,0,1-2.1-.32,4.11,4.11,0,0,1-2.7-1.87,2.28,2.28,0,0,1,.1-2.51C223.9,167.42,225.2,167,226.9,166.55Z" transform="translate(-56.3 -25.99)"/><path class="cls-5" d="M240.4,166.76a24.3,24.3,0,0,1,2.7,0,5.84,5.84,0,0,1,2.8,1.43,2.56,2.56,0,0,1,.6,2.63c-.5,1.42-1.6,2-3.3,2.62a13.44,13.44,0,0,1-2.1-.11,4.68,4.68,0,0,1-3-1.42,2.2,2.2,0,0,1-.6-2.41C237.8,168.19,238.9,167.53,240.4,166.76Z" transform="translate(-56.3 -25.99)"/><path class="cls-4" d="M210.7,264.33q-.15,7.88,0,15.76c1.7,2.08,17.2,12.16,20.6,14,15.1,0,30.2.33,45.3.22,0-4.27-.4-8.87.1-13.14.9,6.13.1,12.59.2,18.83a41.43,41.43,0,0,1,5.2-.11c-1.5.11-2.5,0-3.5.77,0,.44-.2.55.3.88,2.3,1.75,7.5,1.31,10.6,1.31a59.06,59.06,0,0,0,6.1,9.31c10.2-.22,20.5,0,30.7-.11,0-6.79-.7-14.13.7-20.81,3.7,2.52,6.8,5.48,10.9,7.67,2.6,1.42,5.7,2.19,8.3,3.61,2.1,1.1,3.9,2.63,5.8,3.83a49.54,49.54,0,0,0,17.4,6.57c11.1,2.3,23.3,1.86,33.4-2.3,11.5-4.6,19.4-12.26,23-21.35a11.27,11.27,0,0,0,3,3.29,7.88,7.88,0,0,0,3.2,1.31c4.4.77,9.6.33,14.1.33,8.4,0,16.7-.11,25-.22-.1-3.18-.4-6.68.2-9.75.1,2.19-.6,13.14.7,14.24,1.7,1.42,14.1.66,17.2,1h-5.5l3.7,2.51c1.5,2.85,1.7,5.37,5.2,7.45,4.7,2.74,14.7,2,20.5,1.42a14.08,14.08,0,0,0,2.2-1.09c4.1-2.74,2.5-11.06,2.7-14.89a38.07,38.07,0,0,0,7,0c3.1-.44,4.5-2,6.1-3.84l.1-15.54h.2c.5,15.11.4,30.33.3,45.44-18.3,3.06-34.2,12.26-44.1,23.76-.3.33-.6.76-.9,1.09s-.6.77-.9,1.1-.6.76-.9,1.2a8.42,8.42,0,0,0-.8,1.21c-.3.43-.5.76-.8,1.2a7.54,7.54,0,0,0-.7,1.21c-.2.43-.5.76-.7,1.2a7.05,7.05,0,0,1-.7,1.2,12.41,12.41,0,0,1-.6,1.21,12.17,12.17,0,0,1-.6,1.2,7.12,7.12,0,0,0-.5,1.32c-.2.44-.3.87-.5,1.31a6.64,6.64,0,0,0-.4,1.32c-.1.43-.3.87-.4,1.31a6.55,6.55,0,0,1-.4,1.31l-.3,1.32-.3,1.31A6,6,0,0,0,477,367c-.1.44-.1.88-.2,1.32a5.79,5.79,0,0,0-.1,1.31c0,.44-.1.88-.1,1.32v3.94c0,.44.1.87.1,1.31s.1.88.1,1.32.1.87.2,1.31.1.88.2,1.31l.3,1.32.3,1.31a6.64,6.64,0,0,0,.4,1.32c.1.43.3.87.4,1.31,3.2,9.75,7.3,12.37,12.8,20.48a42.44,42.44,0,0,0-.6,7c-.1-.21-.3-1.31-.5-1.42-.6-.33-27.9-.11-30.6-.11l-165.3.11H244c-8.6,0-17.7.44-26.2-.22a12.66,12.66,0,0,1-6.2-1.86,8.53,8.53,0,0,1-3.8-4.82c-.9-4.38-.4-9.09-.4-13.47v-24l.1-69c0-10.18.5-20.37.1-30.55A7.25,7.25,0,0,1,210.7,264.33Z" transform="translate(-56.3 -25.99)"/><path class="cls-5" d="M238.33,354.33c23.23-.11,46.6-.11,69.83-.11,9.92,0,20.24-.32,30,0a32,32,0,0,1,6.66.88c1.49.44,1.9.77,2.31,1.53a3.62,3.62,0,0,1-1.9,2.08,7.64,7.64,0,0,1-3.67.66H264.69c-6.52,0-21.6.66-26.9,0-1.63-.22-3.4-.66-4.08-1.53a1.85,1.85,0,0,1,.28-2.63C234.94,354.55,236.57,354.44,238.33,354.33Z" transform="translate(-56.3 -25.99)"/><path class="cls-5" d="M239.58,337.25l97.43-.11h29.81c3.55,0,7.33-.22,10.89-.11a11.08,11.08,0,0,1,2.75.33,3.56,3.56,0,0,1,2.41,1.64,2.46,2.46,0,0,1-1.38,2.3c-1.49,1-3.32.77-5.27.77l-93.43.11H251.61c-4.93,0-10.2.11-15.13-.11a7.26,7.26,0,0,1-3.21-.88,1.47,1.47,0,0,1-.57-1c0-.77.69-1.43,1.49-2C235.68,337.25,237.51,337.36,239.58,337.25Z" transform="translate(-56.3 -25.99)"/><path class="cls-5" d="M427.49,329.15a4.36,4.36,0,0,1,3.23.6c1.57,1.2.66,4.31.83,6a2.64,2.64,0,0,0,1.24,2c3.07.36,4.31-3.94,7.37-4.06a2.6,2.6,0,0,1,1.82.72c3.81,3.1-2.31,5.62-1.9,8.84,1.41,1.44,4.64,1.08,6.54,1.44a5.46,5.46,0,0,1,3.48,1.79c.25,3.95-5.63,3.71-7.12,5.62s5.47,5,5.47,7.66a3.61,3.61,0,0,1-1.08,2.15c-2.16,2-5.8-1-8.2-1a2.21,2.21,0,0,0-1.74.6c-1.24,1.55.16,4.3.25,6.22a2.78,2.78,0,0,1-1,2.27,3.18,3.18,0,0,1-2,.72c-2.65-.24-4.06-4.55-5.89-6.1a.24.24,0,0,0-.24-.12c-3.15,1.19-2.82,4.54-5.3,5.86a3.57,3.57,0,0,1-2.24.24c-4.39-.72-.25-6.94-2-9.21-3.73-2.15-4.31,1.31-7.62,1.31a3.53,3.53,0,0,1-2.07-.95,3.33,3.33,0,0,1-1.08-2.75c.25-2.15,3.4-3.11,5-4.31a2.24,2.24,0,0,0,.91-1.79c-.66-2-4.55-2.39-6.29-3.71a2.57,2.57,0,0,1-1.16-2,4.09,4.09,0,0,1,1.16-2.15c1.49-1.32,4.56-.48,6.46-.36a2.76,2.76,0,0,0,2.15-.72c.67-2.39-1.82-3.83-2.56-6a3,3,0,0,1,.16-2.51,4.55,4.55,0,0,1,2.49-2c2.07.24,3,2.63,4.3,3.94a2.41,2.41,0,0,0,2.16.84c1.65-1.19,1.41-4.18,1.9-6.1A4.44,4.44,0,0,1,427.49,329.15Z" transform="translate(-56.3 -25.99)"/><path class="cls-4" d="M427.66,343.16a8.37,8.37,0,0,1,3.64.85,7.54,7.54,0,0,1,4.06,4.68,8.89,8.89,0,0,1-.42,6.38,8.45,8.45,0,0,1-5.13,4.53,36,36,0,0,1-3.89,0c-.09,0-.17-.14-.25-.14a9.26,9.26,0,0,1-4.31-5.81,8.9,8.9,0,0,1,.83-6.38A7.91,7.91,0,0,1,427.66,343.16Z" transform="translate(-56.3 -25.99)"/></svg>