<svg xmlns="http://www.w3.org/2000/svg" xml:space="preserve" width="70mm" height="14mm" style="shape-rendering:geometricPrecision;text-rendering:geometricPrecision;image-rendering:optimizeQuality;fill-rule:evenodd;clip-rule:evenodd" viewBox="0 0 7000 1400"><defs><style>.fil0{fill:#fff}</style></defs><g id="Слой_x0020_1"><path d="M5162.48 128.42c0 24.89 7.11 46.24 24.89 60.46 17.79 17.78 39.12 24.89 60.46 24.89 21.34 0 39.11-7.11 53.34-24.89 17.78-17.78 24.89-39.11 24.89-64.02 0-21.34-7.11-42.67-21.34-56.89-14.22-14.22-32-21.34-53.34-21.34-24.89 0-46.24 7.11-60.46 21.34-21.33 17.78-28.44 39.11-28.44 60.45zM1802 50.19h-156.47l-110.24 1034.82h163.58l81.79-750.35 284.49 750.35h110.24l284.49-750.35 81.78 750.35h163.58L2595 50.19h-156.47l-320.04 807.22zM4661.08 932.1c-42.67 0-78.23-21.35-103.13-60.46-28.45-49.78-35.56-113.8-35.56-170.69 0-60.45 7.11-135.13 39.11-184.91 28.46-42.67 67.57-60.45 113.8-60.45 35.56 0 74.67 3.56 106.69 21.34l7.11 3.56V829c-10.67 32-21.34 60.45-46.24 81.78-21.32 14.19-53.34 21.32-81.78 21.32zm284.49-579.65c-32-14.22-67.56-21.35-103.13-28.46-49.78-10.67-99.56-14.22-152.91-14.22-88.9 0-177.8 24.89-241.81 99.57-64.02 78.23-81.79 188.47-81.79 291.6 0 88.91 10.67 199.14 60.46 270.25 46.23 64.02 113.8 85.35 184.91 85.35 56.89 0 120.91-10.67 156.47-64.02l3.56-3.56 21.32.03v60.45c0 46.24-7.11 92.46-35.57 131.58-32 39.12-88.9 49.79-131.58 49.79-35.56 0-71.12-3.56-103.12-14.22-21.35-7.11-42.68-14.22-60.46-21.35l-32 131.58c21.34 10.68 49.78 21.35 74.68 24.9 46.23 14.22 103.12 14.22 149.36 14.22 74.67 0 156.47-17.79 213.36-74.68 60.46-56.89 74.68-145.8 74.68-227.58l.01-711.23h3.56zM4003.2 348.89h152.91V1085H4003.2zM3996.1 128.42c0 24.89 7.11 46.24 24.89 60.46 17.78 17.78 39.11 24.89 60.45 24.89 21.35 0 39.11-7.11 53.35-24.89 17.78-17.78 24.89-39.11 24.89-64.02 0-21.34-7.11-42.67-21.34-56.89-14.22-14.22-32.01-21.34-53.35-21.34-24.89 0-46.23 7.11-60.45 21.34-21.33 17.78-28.44 39.11-28.44 60.45zM5937.7 1042.33l-46.23-113.79c-28.45 21.34-64.02 32-99.57 32-74.67 0-92.45-71.13-92.45-131.58V491.14h216.92V348.9h-216.92V160.42h-152.91V348.9h-81.79v142.24h81.79v348.49c0 64.01 7.11 145.8 49.78 199.14 35.56 49.79 92.46 64.02 152.91 64.02 67.57-3.56 131.58-21.34 188.47-60.46zM6321.76 953.43c-28.45 0-53.34-7.11-74.67-28.46-21.35-17.78-32.01-46.23-32.01-74.67 0-32 10.68-60.45 35.57-78.24 24.89-21.34 53.34-28.45 85.34-28.45 42.68 0 88.91 7.11 124.46 39.11l3.56 3.56v88.91l-3.56 3.56c-32 53.35-81.78 74.68-138.69 74.68zm-167.13-444.51c53.34-28.46 113.8-49.79 170.69-49.79 42.67 0 85.35 10.68 110.24 53.35s28.45 106.69 28.45 156.47v21.34l-17.78-14.22c-42.67-35.56-96.02-46.23-145.8-46.23-64.02 0-124.46 14.22-170.69 60.45-46.24 46.24-64.02 106.69-64.02 174.26 0 60.45 14.22 117.34 53.35 163.58 39.11 42.67 92.45 60.45 145.8 60.45 74.67 0 145.8-21.34 192.03-92.45l21.34-32v117.34l128.01-.02V629.83c0-78.24-10.67-170.7-60.45-231.15-49.79-60.45-128.02-74.67-199.15-74.67-81.78 0-156.47 21.34-227.58 67.56l35.56 117.35zM3206.64 199.54c106.69 0 216.93 21.34 298.71 96.01 78.24 67.57 110.24 160.02 110.24 263.15 0 106.69-32 202.69-110.24 277.38-81.78 78.24-192.03 103.13-302.27 103.13-39.11 0-78.23 0-120.91-3.56h-10.67l.01-732.55h10.68c42.67-3.56 81.78-3.56 124.45-3.56zM2907.93 50.19v1034.82H3195.98c160.02 0 320.06-35.57 437.4-149.36 106.69-103.13 156.48-231.15 156.48-380.5 0-135.13-39.11-256.04-135.13-355.6-113.8-120.91-288.04-152.91-448.07-152.91-49.79 0-99.57 3.56-149.37 3.56H2918.6l-10.67-.01zM5169.6 348.89h152.91V1085H5169.6zM6805.39 50.19h152.91v1034.82h-152.91zM679.59 84.58c47.62 0 84.24 36.63 84.24 84.25 0 47.61-36.63 84.23-84.24 84.23-47.63 0-84.24-36.6-84.24-84.23 0-43.96 40.28-84.25 84.24-84.25zm314 686.81c-8.23-81.64-56.25-120.89-108.83-127.9.93-5.11 1.67-10.41 2.22-15.9-16.84-167.13-200.37-156.72-248.73-55.37-67.95-50.53-181.78-8.32-190.69 83.32-39.34 18.84-69.51 57.54-70.99 115.87C378.7 855.25 435.62 896 495.82 899.7v.2h39.26v.42h300v-.42h14.74c64.63 7.48 133.97-31.31 143.77-128.51zm224.46-148.35c47.6 0 84.25 36.64 84.25 84.24 0 47.64-36.61 84.24-84.25 84.24-47.63 0-84.23-36.61-84.23-84.24-3.77-48.52 37.63-84.24 84.23-84.24zm-1073.25 0c47.6 0 84.24 36.64 84.24 84.24 0 47.63-36.6 84.24-84.24 84.24-47.63 0-84.24-36.61-84.24-84.24 0-47.63 36.61-84.24 84.24-84.24zM1218.05 47.95c69.59 0 124.55 54.95 124.55 124.54 0 104.3-115.13 157.56-197.8 102.57l-263.75 256.4c18.61 26.1 32.96 55.19 32.96 87.92 35.06 10.51 64.98 35.05 84.26 65.93h95.24c10.85-57.8 61.5-102.56 120.89-102.56 69.58 0 124.53 54.97 124.53 124.55 0 69.57-54.96 124.55-124.53 124.55-60.61 0-113.36-45.98-120.89-106.24h-76.92c3.75 14.97 7.33 32.19 7.33 47.62 0 63.92-38.46 123.86-98.91 146.51l219.79 219.78c19.18-15.36 45.35-21.98 69.6-21.98 69.6 0 124.53 54.94 124.53 124.54 0 69.57-54.96 124.55-124.53 124.55-69.58 0-124.56-54.96-124.56-124.55 0-26.46 9.11-52.59 25.65-73.26L881.05 930.73H697.91v190.48c59.11 11.08 106.22 59.1 106.22 120.87 0 69.58-54.96 124.55-124.54 124.55-69.58 0-124.54-54.97-124.54-124.55 0-62.3 43.99-113.55 106.23-120.87V934.39H481.79l-238.1 238.09c14.28 21.38 25.65 47.17 25.65 73.27 0 69.6-54.95 124.54-124.54 124.54s-124.55-54.95-124.55-124.54c0-84.95 81.72-143.79 162.09-119.05 11.9 3.66 22.89 9.16 32.06 16.49l223.44-223.45c-65.22-30.43-105.48-100-92.95-171.71 1.35-7.74 3.21-15.1 5.03-22.42h-80.58c-7.55 60.26-60.26 106.22-120.88 106.22-69.6 0-124.53-54.96-124.53-124.55s54.94-124.54 124.53-124.54c61.26 0 109.72 42.97 120.88 102.56l98.91.01c14.55-21.85 33.33-36.9 54.94-51.28 3.69-40.58 29.65-77.12 65.95-95.24l-271.07-267.4c-83.05 55.32-197.8 1.5-197.8-102.56 0-69.59 54.95-124.54 124.54-124.54 104.28 0 157.59 115.15 102.57 197.8l282.03 282.06c3.67 0 7.37-.93 11.47-1.84 27.48-6.1 59.3 4.25 83.77 16.48 11.11-14.79 25.47-29.2 40.29-40.28V289.72c-59.1-11.07-106.23-59.12-106.23-120.87 0-69.59 54.96-124.54 124.55-124.54 69.58 0 124.55 54.95 124.55 124.54 0 62.31-43.99 113.53-106.23 120.87v190.47c49.12-19.65 113.19-12.94 153.85 21.98l263.74-263.74c-15.42-23.11-21.99-45.48-21.99-73.26-3.98-67.05 56.66-117.22 120.87-117.22z" class="fil0"/><path d="M679.59 84.58c47.63 0 84.24 36.63 84.24 84.24 0 47.63-36.63 84.24-84.24 84.24-47.62 0-84.24-36.63-84.24-84.24 0-43.96 40.29-84.24 84.24-84.24zM1218.06 623.04c47.62 0 84.24 36.63 84.24 84.24 0 47.63-36.63 84.25-84.24 84.25-47.63 0-84.25-36.64-84.25-84.25-3.67-47.62 36.62-84.24 84.25-84.24zM144.8 623.04c47.62 0 84.24 36.63 84.24 84.24 0 47.63-36.63 84.25-84.24 84.25-47.63 0-84.25-36.64-84.25-84.25 0-47.62 36.64-84.24 84.25-84.24zM1216.78 1160.44c47.63 0 84.24 36.63 84.24 84.24 0 47.63-36.63 84.24-84.24 84.24-47.62 0-84.24-36.63-84.24-84.24 0-47.62 36.63-84.24 84.24-84.24zM677.49 1158.72c47.62 0 84.24 36.63 84.24 84.24 0 47.63-36.63 84.25-84.24 84.25-47.63 0-84.25-36.63-84.25-84.25s36.64-84.24 84.25-84.24zM143.43 1162.27c47.62 0 84.24 36.63 84.24 84.24 0 47.62-36.63 84.24-84.24 84.24-47.63 0-84.25-36.63-84.25-84.24 0-47.63 36.64-84.24 84.25-84.24zM144.56 84.66c47.63 0 84.24 36.63 84.24 84.24 0 47.63-36.63 84.25-84.24 84.25-47.62 0-84.24-36.64-84.24-84.25 0-47.62 36.63-84.24 84.24-84.24zM1217.47 83.35c47.63 0 84.25 36.63 84.25 84.24 0 47.62-36.64 84.24-84.25 84.24-47.62 0-84.24-36.63-84.24-84.24 0-47.63 36.63-84.24 84.24-84.24zM538.96 743.67c16.35 0 28.92 12.58 28.92 28.92 0 16.35-12.58 28.92-28.92 28.92-16.35 0-28.92-12.57-28.92-28.92s12.57-28.92 28.92-28.92zM819.8 744.61c16.35 0 28.92 12.58 28.92 28.92 0 16.35-12.58 28.92-28.92 28.92-16.35 0-28.92-12.57-28.92-28.92s12.57-28.92 28.92-28.92zM679.38 743.66c16.35 0 28.92 12.58 28.92 28.92 0 16.35-12.58 28.92-28.92 28.92-16.35 0-28.92-12.57-28.92-28.92s12.57-28.92 28.92-28.92z" class="fil0"/></g></svg>