<?xml version="1.0" encoding="UTF-8"?>
<!DOCTYPE svg PUBLIC "-//W3C//DTD SVG 1.1//EN" "http://www.w3.org/Graphics/SVG/1.1/DTD/svg11.dtd">
<!-- Creator: CorelDRAW -->
<svg xmlns="http://www.w3.org/2000/svg" xml:space="preserve" width="535px" height="535px" version="1.1" style="shape-rendering:geometricPrecision; text-rendering:geometricPrecision; image-rendering:optimizeQuality; fill-rule:evenodd; clip-rule:evenodd"
viewBox="0 0 535 535"
 xmlns:xlink="http://www.w3.org/1999/xlink"
 xmlns:xodm="http://www.corel.com/coreldraw/odm/2003">
 <defs>
  <style type="text/css">
   <![CDATA[
    .fil0 {fill:#005072}
    .fil3 {fill:#B8B7B4}
    .fil1 {fill:#FECC00}
    .fil2 {fill:white}
   ]]>
  </style>
 </defs>
 <g id="Слой_x0020_1">
  <metadata id="CorelCorpID_0Corel-Layer"/>
  <path class="fil0" d="M265.48 31.89c18.24,0 32.27,14.04 32.27,32.28 0,18.25 -14.03,32.28 -32.27,32.28 -18.25,0 -32.28,-14.03 -32.28,-32.28 0,-16.84 15.43,-32.28 32.28,-32.28zm120.3 263.15c-3.15,-31.28 -21.55,-46.32 -41.7,-49.01 0.36,-1.95 0.64,-3.98 0.85,-6.09 -6.45,-64.03 -76.77,-60.04 -95.29,-21.21 -26.04,-19.36 -69.65,-3.19 -73.06,31.92 -15.08,7.22 -26.64,22.05 -27.2,44.4 0.81,32.12 22.62,47.73 45.69,49.15l0 0.08 15.04 0 0 0.16 114.94 0 0 -0.16 5.65 0c24.76,2.86 51.33,-12 55.08,-49.24zm86 -56.84c18.24,0 32.28,14.04 32.28,32.28 0,18.25 -14.03,32.27 -32.28,32.27 -18.25,0 -32.27,-14.03 -32.27,-32.27 -1.45,-18.6 14.42,-32.28 32.27,-32.28zm-411.2 0c18.23,0 32.27,14.04 32.27,32.28 0,18.24 -14.02,32.27 -32.27,32.27 -18.25,0 -32.28,-14.03 -32.28,-32.27 0,-18.25 14.03,-32.28 32.28,-32.28zm411.2 -220.34c26.66,0 47.72,21.05 47.72,47.72 0,39.96 -44.11,60.36 -75.78,39.29l-101.06 98.24c7.13,10 12.63,21.15 12.63,33.69 13.43,4.02 24.9,13.43 32.28,25.26l36.49 0c4.16,-22.15 23.57,-39.3 46.32,-39.3 26.66,0 47.71,21.06 47.71,47.72 0,26.66 -21.05,47.72 -47.71,47.72 -23.22,0 -43.43,-17.61 -46.32,-40.7l-29.47 0c1.44,5.73 2.81,12.33 2.81,18.24 0,24.49 -14.73,47.46 -37.89,56.14l84.21 84.2c7.34,-5.88 17.37,-8.42 26.66,-8.42 26.67,0 47.71,21.05 47.71,47.72 0,26.65 -21.05,47.72 -47.71,47.72 -26.66,0 -47.72,-21.06 -47.72,-47.72 0,-10.14 3.49,-20.15 9.83,-28.07l-89.83 -91.22 -70.17 0 0 72.98c22.65,4.24 40.7,22.64 40.7,46.31 0,26.66 -21.06,47.72 -47.71,47.72 -26.66,0 -47.72,-21.06 -47.72,-47.72 0,-23.87 16.85,-43.51 40.7,-46.31l0 -71.58 -68.77 0 -91.22 91.22c5.47,8.19 9.82,18.07 9.82,28.07 0,26.67 -21.05,47.72 -47.71,47.72 -26.67,0 -47.72,-21.05 -47.72,-47.72 0,-32.54 31.31,-55.09 62.1,-45.61 4.56,1.4 8.77,3.51 12.28,6.32l85.61 -85.61c-24.99,-11.66 -40.41,-38.32 -35.61,-65.79 0.52,-2.97 1.23,-5.79 1.93,-8.59l-30.88 0c-2.89,23.09 -23.09,40.7 -46.31,40.7 -26.67,0 -47.71,-21.06 -47.71,-47.72 0,-26.67 21.05,-47.72 47.71,-47.72 23.47,0 42.04,16.46 46.31,39.29l37.9 0.01c5.57,-8.37 12.77,-14.14 21.05,-19.65 1.41,-15.55 11.36,-29.55 25.27,-36.49l-103.86 -102.45c-31.82,21.19 -75.79,0.57 -75.79,-39.3 0,-26.66 21.06,-47.71 47.72,-47.71 39.95,0 60.38,44.12 39.3,75.78l108.06 108.07c1.4,0 2.82,-0.36 4.39,-0.7 10.53,-2.34 22.72,1.62 32.1,6.31 4.25,-5.67 9.75,-11.19 15.43,-15.43l0 -80c-22.64,-4.24 -40.7,-22.65 -40.7,-46.31 0,-26.66 21.06,-47.72 47.72,-47.72 26.66,0 47.72,21.06 47.72,47.72 0,23.87 -16.85,43.5 -40.7,46.31l0 72.98c18.82,-7.53 43.37,-4.96 58.95,8.42l101.05 -101.05c-5.91,-8.85 -8.43,-17.42 -8.43,-28.07 -1.52,-25.69 21.71,-44.91 46.31,-44.91z"/>
  <path class="fil1" d="M265.48 31.89c18.24,0 32.27,14.04 32.27,32.28 0,18.25 -14.03,32.28 -32.27,32.28 -18.25,0 -32.28,-14.04 -32.28,-32.28 0,-16.84 15.43,-32.28 32.28,-32.28z"/>
  <path class="fil1" d="M471.78 238.2c18.25,0 32.28,14.04 32.28,32.28 0,18.24 -14.04,32.27 -32.28,32.27 -18.24,0 -32.27,-14.03 -32.27,-32.27 -1.41,-18.25 14.03,-32.28 32.27,-32.28z"/>
  <path class="fil1" d="M60.58 238.2c18.24,0 32.27,14.04 32.27,32.28 0,18.24 -14.03,32.27 -32.27,32.27 -18.25,0 -32.28,-14.03 -32.28,-32.27 0,-18.25 14.03,-32.28 32.28,-32.28z"/>
  <path class="fil2" d="M471.29 444.1c18.25,0 32.28,14.03 32.28,32.27 0,18.25 -14.03,32.28 -32.28,32.28 -18.24,0 -32.27,-14.03 -32.27,-32.28 0,-18.24 14.03,-32.27 32.27,-32.27z"/>
  <path class="fil2" d="M264.67 443.44c18.25,0 32.28,14.03 32.28,32.28 0,18.24 -14.04,32.27 -32.28,32.27 -18.25,0 -32.28,-14.03 -32.28,-32.27 0,-18.25 14.04,-32.28 32.28,-32.28z"/>
  <path class="fil2" d="M60.05 444.8c18.25,0 32.28,14.03 32.28,32.28 0,18.24 -14.04,32.27 -32.28,32.27 -18.25,0 -32.28,-14.03 -32.28,-32.27 0,-18.25 14.04,-32.28 32.28,-32.28z"/>
  <path class="fil3" d="M60.49 31.93c18.24,0 32.27,14.03 32.27,32.27 0,18.25 -14.03,32.28 -32.27,32.28 -18.25,0 -32.28,-14.04 -32.28,-32.28 0,-18.25 14.03,-32.27 32.28,-32.27z"/>
  <path class="fil3" d="M471.56 31.42c18.25,0 32.28,14.04 32.28,32.28 0,18.25 -14.04,32.28 -32.28,32.28 -18.25,0 -32.28,-14.04 -32.28,-32.28 0,-18.25 14.04,-32.28 32.28,-32.28z"/>
  <path class="fil0" d="M211.59 284.42c6.27,0 11.08,4.82 11.08,11.08 0,6.26 -4.81,11.08 -11.08,11.08 -6.26,0 -11.08,-4.82 -11.08,-11.08 0,-6.27 4.82,-11.08 11.08,-11.08z"/>
  <path class="fil0" d="M319.19 284.78c6.27,0 11.09,4.82 11.09,11.08 0,6.26 -4.82,11.08 -11.09,11.08 -6.26,0 -11.08,-4.82 -11.08,-11.08 0,-6.27 4.82,-11.08 11.08,-11.08z"/>
  <path class="fil0" d="M265.4 284.41c6.26,0 11.08,4.82 11.08,11.08 0,6.27 -4.82,11.08 -11.08,11.08 -6.27,0 -11.09,-4.81 -11.09,-11.08 0,-6.26 4.82,-11.08 11.09,-11.08z"/>
 </g>
</svg>
