<?xml version="1.0" encoding="UTF-8"?>
<!DOCTYPE svg PUBLIC "-//W3C//DTD SVG 1.1//EN" "http://www.w3.org/Graphics/SVG/1.1/DTD/svg11.dtd">
<!-- Creator: CorelDRAW -->
<svg xmlns="http://www.w3.org/2000/svg" xml:space="preserve" width="61px" height="40px" version="1.1" style="shape-rendering:geometricPrecision; text-rendering:geometricPrecision; image-rendering:optimizeQuality; fill-rule:evenodd; clip-rule:evenodd"
viewBox="0 0 61 40"
 xmlns:xlink="http://www.w3.org/1999/xlink"
 xmlns:xodm="http://www.corel.com/coreldraw/odm/2003">
 <defs>
  <style type="text/css">
   <![CDATA[
    .str0 {stroke:#F6F1EA;stroke-width:0.5;stroke-miterlimit:22.9256}
    .str1 {stroke:#F8F2E9;stroke-miterlimit:22.9256;stroke-dasharray:2.000000 5.000000}
    .fil4 {fill:none}
    .fil5 {fill:#FDFCFC}
    .fil1 {fill:#DBE285}
    .fil0 {fill:#008DD2}
    .fil2 {fill:#EF7F1A;fill-rule:nonzero}
    .fil3 {fill:#FDFCFC;fill-rule:nonzero}
   ]]>
  </style>
 </defs>
 <g id="Слой_x0020_1">
  <metadata id="CorelCorpID_0Corel-Layer"/>
  <rect class="fil0" x="3.47" y="2.25" width="55.71" height="36.35" rx="5.71" ry="5.71"/>
  <circle class="fil1" cx="31.23" cy="15.32" r="7.91"/>
  <path class="fil2" d="M28.01 19.21l-0.19 0.03 0 -0.8 0.96 0 0 -6.49 -0.96 0 0 -0.75 0.7 0 0 -1.41 0.84 0 0 1.31 0.88 0 -0.02 -1.31 0.81 0 -0.01 1.41 0.78 0c0.61,0 1.11,0.08 1.48,0.24 0.37,0.16 0.66,0.41 0.87,0.75 0.21,0.34 0.32,0.69 0.32,1.06 0,0.35 -0.1,0.67 -0.28,0.97 -0.19,0.31 -0.47,0.55 -0.85,0.74 0.49,0.14 0.87,0.38 1.13,0.73 0.26,0.34 0.39,0.75 0.39,1.22 0,0.37 -0.08,0.72 -0.24,1.05 -0.16,0.32 -0.36,0.57 -0.59,0.75 -0.23,0.17 -0.53,0.3 -0.88,0.39 -0.35,0.09 -0.71,0.1 -1.22,0.1l-0.8 0 -0.08 1.14 -0.85 0 0 -1.13 -0.88 0 0.04 1.13 -0.84 0 0 -1.13 -0.51 0zm1.84 -4.63l1.74 0c0.47,0 0.81,-0.03 1.01,-0.1 0.28,-0.08 0.48,-0.21 0.62,-0.4 0.13,-0.19 0.2,-0.42 0.2,-0.7 0,-0.27 -0.06,-0.51 -0.19,-0.71 -0.13,-0.2 -0.31,-0.34 -0.55,-0.42 -0.24,-0.07 -0.65,-0.11 -1.22,-0.11l-1.61 0 0 2.44zm0 3.72l2 0c0.35,0 0.59,-0.02 0.73,-0.04 0.24,-0.05 0.45,-0.12 0.61,-0.22 0.17,-0.11 0.3,-0.26 0.41,-0.45 0.11,-0.2 0.16,-0.43 0.16,-0.68 0,-0.3 -0.08,-0.56 -0.23,-0.79 -0.16,-0.22 -0.37,-0.37 -0.64,-0.46 -0.28,-0.1 -0.67,-0.14 -1.18,-0.14l-1.86 0 0 2.78z"/>
  <path class="fil3" d="M12.77 33.04l1.53 -6.6 5.31 0 -0.17 0.75 -4.34 0 -0.48 2.06 4.24 0 -0.17 0.75 -4.24 0 -0.54 2.29 4.63 0 -0.18 0.75 -5.59 0zm6.84 -1.98l0.19 -0.81 2.75 0 -0.19 0.81 -2.75 0zm4.65 1.98l-0.45 -6.6 0.99 0 0.17 3.26c0.01,0.16 0.02,0.58 0.04,1.27 0.01,0.19 0.02,0.33 0.02,0.41 -0.01,0.05 0,0.2 0,0.45 0.41,-0.75 0.7,-1.29 0.87,-1.59l2.23 -3.8 1 0 0.24 3.86c0.02,0.44 0.04,0.97 0.06,1.59 0.06,-0.15 0.17,-0.38 0.32,-0.68 0.24,-0.49 0.42,-0.84 0.54,-1.05l2.07 -3.72 1 0 -3.71 6.6 -1.05 0 -0.23 -4c-0.03,-0.34 -0.05,-0.76 -0.07,-1.26 -0.2,0.41 -0.37,0.74 -0.51,0.97l-2.52 4.29 -1.01 0zm11.64 -0.6c-0.32,0.25 -0.62,0.42 -0.91,0.53 -0.28,0.11 -0.59,0.17 -0.92,0.17 -0.49,0 -0.89,-0.13 -1.19,-0.39 -0.29,-0.26 -0.44,-0.59 -0.44,-0.99 0,-0.27 0.06,-0.51 0.2,-0.71 0.13,-0.21 0.31,-0.37 0.53,-0.49 0.22,-0.13 0.5,-0.22 0.82,-0.27 0.2,-0.04 0.59,-0.07 1.16,-0.09 0.57,-0.02 0.98,-0.07 1.22,-0.16 0.07,-0.22 0.11,-0.41 0.11,-0.55 0,-0.19 -0.08,-0.34 -0.23,-0.45 -0.21,-0.15 -0.52,-0.22 -0.92,-0.22 -0.38,0 -0.69,0.07 -0.94,0.22 -0.24,0.16 -0.41,0.37 -0.53,0.65l-0.9 -0.07c0.18,-0.47 0.48,-0.84 0.88,-1.09 0.4,-0.25 0.91,-0.38 1.53,-0.38 0.65,0 1.17,0.14 1.55,0.43 0.29,0.21 0.44,0.48 0.44,0.81 0,0.26 -0.04,0.55 -0.13,0.89l-0.29 1.19c-0.09,0.38 -0.14,0.68 -0.14,0.92 0,0.15 0.04,0.36 0.11,0.65l-0.91 0c-0.05,-0.16 -0.08,-0.36 -0.1,-0.6zm0.33 -1.83c-0.12,0.05 -0.26,0.08 -0.4,0.11 -0.15,0.02 -0.39,0.05 -0.73,0.07 -0.53,0.04 -0.9,0.1 -1.11,0.16 -0.22,0.07 -0.38,0.17 -0.49,0.31 -0.11,0.14 -0.17,0.3 -0.17,0.47 0,0.23 0.09,0.42 0.27,0.56 0.17,0.15 0.42,0.22 0.74,0.22 0.3,0 0.59,-0.07 0.86,-0.21 0.28,-0.14 0.5,-0.34 0.66,-0.6 0.16,-0.25 0.29,-0.62 0.37,-1.09zm1.71 2.43l1.53 -6.6 0.9 0 -1.53 6.6 -0.9 0zm2.27 0l1.53 -6.6 0.89 0 -1.52 6.6 -0.9 0zm6.23 -1.62l0.88 0.07c-0.13,0.39 -0.42,0.76 -0.88,1.12 -0.45,0.35 -0.99,0.53 -1.62,0.53 -0.4,0 -0.76,-0.08 -1.08,-0.25 -0.33,-0.16 -0.58,-0.4 -0.75,-0.71 -0.18,-0.31 -0.26,-0.67 -0.26,-1.06 0,-0.52 0.13,-1.03 0.4,-1.52 0.27,-0.49 0.62,-0.85 1.04,-1.09 0.43,-0.24 0.89,-0.36 1.39,-0.36 0.63,0 1.13,0.18 1.51,0.53 0.38,0.36 0.57,0.84 0.57,1.45 0,0.23 -0.03,0.47 -0.07,0.71l-3.91 0c-0.02,0.1 -0.02,0.18 -0.02,0.26 0,0.44 0.11,0.79 0.34,1.02 0.23,0.24 0.51,0.35 0.84,0.35 0.31,0 0.62,-0.08 0.92,-0.27 0.3,-0.18 0.53,-0.44 0.7,-0.78zm-2.64 -1.2l2.99 0c0,-0.08 0,-0.15 0,-0.18 0,-0.41 -0.11,-0.72 -0.34,-0.94 -0.23,-0.21 -0.52,-0.32 -0.88,-0.32 -0.38,0 -0.74,0.12 -1.05,0.36 -0.32,0.24 -0.56,0.6 -0.72,1.08zm6.52 2.16l-0.15 0.66c-0.21,0.05 -0.42,0.08 -0.63,0.08 -0.36,0 -0.64,-0.08 -0.85,-0.24 -0.16,-0.12 -0.24,-0.28 -0.24,-0.49 0,-0.11 0.04,-0.35 0.13,-0.73l0.64 -2.78 -0.71 0 0.14 -0.63 0.71 0 0.28 -1.17 1.03 -0.56 -0.41 1.73 0.89 0 -0.15 0.63 -0.88 0 -0.61 2.65c-0.08,0.33 -0.12,0.53 -0.12,0.6 0,0.1 0.03,0.17 0.1,0.22 0.06,0.05 0.16,0.08 0.3,0.08 0.19,0 0.37,-0.02 0.53,-0.05z"/>
  <path class="fil4 str0" d="M7.45 16.95c3.74,0 6.76,1.09 6.76,2.45 0,1.35 -3.02,2.45 -6.76,2.45 -1.62,0 -3.11,-0.21 -4.28,-0.56l0 -2.9 -0.05 0 0 -0.88c1.18,-0.35 2.69,-0.56 4.33,-0.56z"/>
  <line class="fil4 str1" x1="9.5" y1="3.69" x2="54.5" y2= "3.69" />
  <line class="fil4 str1" x1="9.62" y1="37.27" x2="54.62" y2= "37.27" />
  <ellipse class="fil5" cx="11.77" cy="19.4" rx="0.76" ry="0.78"/>
 </g>
</svg>
