<?xml version="1.0" encoding="UTF-8"?>
<!DOCTYPE svg PUBLIC "-//W3C//DTD SVG 1.1//EN" "http://www.w3.org/Graphics/SVG/1.1/DTD/svg11.dtd">
<!-- Creator: CorelDRAW -->
<svg xmlns="http://www.w3.org/2000/svg" xml:space="preserve" width="150px" height="32px" version="1.1" style="shape-rendering:geometricPrecision; text-rendering:geometricPrecision; image-rendering:optimizeQuality; fill-rule:evenodd; clip-rule:evenodd"
viewBox="0 0 150 32"
 xmlns:xlink="http://www.w3.org/1999/xlink"
 xmlns:xodm="http://www.corel.com/coreldraw/odm/2003">
 <defs>
  <style type="text/css">
   <![CDATA[
    .fil9 {fill:white;fill-rule:nonzero}
    .fil4 {fill:#01052D;fill-opacity:0.200000}
    .fil8 {fill:#0463EF;fill-opacity:0.200000}
    .fil6 {fill:#740107;fill-opacity:0.200000}
    .fil3 {fill:url(#id0)}
    .fil1 {fill:url(#id1)}
    .fil7 {fill:url(#id2)}
    .fil0 {fill:url(#id3)}
    .fil5 {fill:url(#id4)}
    .fil2 {fill:url(#id5)}
   ]]>
  </style>
  <linearGradient id="id0" gradientUnits="userSpaceOnUse" x1="49.47" y1="9.6" x2="43.31" y2="17.51">
   <stop offset="0" style="stop-opacity:1; stop-color:#114FEE"/>
   <stop offset="1" style="stop-opacity:1; stop-color:#ED2668"/>
  </linearGradient>
  <linearGradient id="id1" gradientUnits="userSpaceOnUse" x1="21.9" y1="21.69" x2="21.9" y2="21.69">
   <stop offset="0" style="stop-opacity:1; stop-color:#114FEE"/>
   <stop offset="1" style="stop-opacity:1; stop-color:#2DDAFF"/>
  </linearGradient>
  <linearGradient id="id2" gradientUnits="userSpaceOnUse" x1="208.53" y1="2566.22" x2="5028.75" y2="-2184.94">
   <stop offset="0" style="stop-opacity:1; stop-color:#0463EF"/>
   <stop offset="1" style="stop-opacity:1; stop-color:#2DDAFF"/>
  </linearGradient>
  <linearGradient id="id3" gradientUnits="userSpaceOnUse" xlink:href="#id1" x1="15.38" y1="29.16" x2="8.87" y2="14.23">
  </linearGradient>
  <linearGradient id="id4" gradientUnits="userSpaceOnUse" x1="7148.63" y1="1490.18" x2="5003.39" y2="-1956.67">
   <stop offset="0" style="stop-opacity:1; stop-color:#ED2668"/>
   <stop offset="1" style="stop-opacity:1; stop-color:#F9D92E"/>
  </linearGradient>
  <linearGradient id="id5" gradientUnits="userSpaceOnUse" xlink:href="#id4" x1="24.49" y1="1.41" x2="6.79" y2="22.22">
  </linearGradient>
 </defs>
 <g id="Слой_x0020_1">
  <metadata id="CorelCorpID_0Corel-Layer"/>
  <g id="_1456418739328">
   <path class="fil0" d="M5.27 14.83c-1.3,2.66 -1.77,5.22 -1.58,7.49 0.43,2.66 2.28,3.9 4.46,4.09 4.75,0.44 8.66,-2.91 12.12,-5.8 -0.46,0.37 -0.91,0.72 -1.36,1.07 -7.21,5.43 -15.6,4.72 -13.64,-6.85z"/>
   <polygon class="fil1" points="21,19.99 21.02,19.97 "/>
   <path class="fil2" d="M11.81 5.54c-2.96,3.7 -4.15,9.1 -3.26,14.31 0.35,-7.4 4.54,-16.09 12.21,-15.28 2.03,0.21 4.1,1.06 6.1,2.22 -4.13,-3.17 -11.3,-5.51 -15.05,-1.25z"/>
   <path class="fil3" d="M45.49 9.35c4.28,-1.36 5.52,1.95 4.02,4.75 -1.53,2.44 -4.6,2.16 -8.16,-1.19 -0.24,-0.22 -0.48,-0.44 -0.72,-0.67 1.05,1.88 4.49,5.44 7.58,5.61 1.79,0.1 4.16,-1.44 4.82,-3.83 1.26,-4.53 -2.04,-9.01 -7.54,-4.67z"/>
   <path class="fil4" d="M46.56 15.71c-1.48,-0.06 -3.27,-0.98 -5.21,-2.79 -0.24,-0.21 -0.48,-0.44 -0.72,-0.67 1.57,1.79 4.49,5.44 7.58,5.61 1.79,0.1 4.17,-1.44 4.82,-3.83 0,-0.01 -1.7,4.21 -6.47,1.68z"/>
   <path class="fil4" d="M45.49 9.35c2.05,-0.65 3.4,-0.23 4.09,0.69 3.31,0.02 3.64,3.21 3.45,3.98 1.26,-4.53 -2.04,-9.01 -7.54,-4.67z"/>
   <path class="fil5" d="M40.63 12.24c-5.32,-5 -12.73,-11.89 -20.2,-11.3 -1.67,0.12 -3.31,0.6 -4.79,1.39 -1.48,0.79 -2.79,1.88 -3.83,3.21 3.61,-3.7 10.78,-1.43 15.03,1.26 5.23,3.19 12.35,11.42 17.73,12.49 3.66,0.72 6.99,-0.86 8.46,-5.27 -2.65,5.87 -8.6,2.82 -12.4,-1.78z"/>
   <path class="fil6" d="M41.05 12.73l-0.09 -0.1 -0.01 -0.02 -0.03 -0.03 0 -0.01 -0.03 -0.04 -0.14 -0.17c-1.15,0.84 -2.31,1.8 -3.5,2.81 0.74,0.59 1.47,1.14 2.19,1.65 -0.12,-0.76 -0.01,-1.53 0.29,-2.23 0.31,-0.7 0.82,-1.3 1.45,-1.72l-0.13 -0.14z"/>
   <path class="fil6" d="M11.81 5.54c0.95,-0.59 2,-0.97 3.09,-1.12 1.1,-0.15 2.22,-0.07 3.28,0.24 0.85,-0.16 1.71,-0.19 2.56,-0.1 2.03,0.22 4.1,1.07 6.11,2.23 -4.26,-2.68 -11.43,-4.95 -15.04,-1.25z"/>
   <path class="fil7" d="M48.46 4.85c-6.53,-1.63 -13.84,4.73 -18.79,8.5 -3.51,2.66 -6.82,5.33 -9.95,7.71 -3.33,2.77 -7.05,5.64 -11.54,5.23 -2.18,-0.2 -4.06,-1.31 -4.49,-3.97 0.69,8.15 9.86,12.59 19.58,5.1 8.6,-6.63 18.9,-19.39 26.02,-18.79 3.01,0.39 4.48,2.33 3.74,5.39 1.53,-5.41 -1.01,-8.29 -4.57,-9.17z"/>
   <path class="fil8" d="M32.5 11.16c1.53,1.3 3.09,2.66 4.64,3.9 1.18,-1.01 2.35,-1.96 3.49,-2.81 -1.3,-1.22 -2.73,-2.56 -4.25,-3.87 -1.36,0.88 -2.66,1.85 -3.88,2.78z"/>
   <path class="fil4" d="M18.91 21.68c-2.6,1.95 -5.34,3.11 -7.7,3.26 -6.12,2.11 -7.52,-2.62 -7.52,-2.62 0.43,2.66 2.31,3.77 4.49,3.97 4.5,0.41 8.23,-2.47 11.56,-5.24l-0.03 0c-0.28,0.23 -0.54,0.43 -0.8,0.63z"/>
   <path class="fil9" d="M75.37 21.67l-0.68 -1.86 -4.02 0 -0.74 1.86 -3.04 0 4.25 -11.08 3.14 0 4.17 11.08 -3.08 0zm-3.9 -4.05l2.46 0 -1.25 -3.59 -1.21 3.59zm13.27 4.05l-4.02 0 0 -11.08 3.77 0c1.89,0 3.35,0.51 4.4,1.53 1.03,0.98 1.55,2.33 1.55,4.03 0,1.6 -0.48,2.88 -1.45,3.84 -0.48,0.49 -1.09,0.89 -1.82,1.21 -0.73,0.31 -1.54,0.47 -2.43,0.47zm-1.14 -8.64l0 6.2 0.58 0c1.07,0 1.88,-0.27 2.42,-0.8 0.57,-0.54 0.85,-1.3 0.85,-2.28 0,-1.07 -0.29,-1.88 -0.86,-2.42 -0.5,-0.47 -1.27,-0.7 -2.3,-0.7l-0.69 0zm16.01 -2.44l0 2.44 -3.47 0 0 1.84 3.16 0 0 2.45 -3.16 0 0 4.35 -2.87 0 0 -11.08 6.34 0zm2.72 0l2.87 0 0 11.08 -2.87 0 0 -11.08zm9.07 11.08l-2.87 0 0 -11.08 2.87 0 5.3 6.78 0 -6.78 2.88 0 0 11.08 -2.88 0 -5.3 -6.78 0 6.78zm11.49 -11.08l2.88 0 0 11.08 -2.88 0 0 -11.08zm12.75 2.44l-2.36 0 0 8.64 -2.87 0 0 -8.64 -2.36 0 0 -2.44 7.59 0 0 2.44zm5.33 8.64l0 -5.32 -4 -5.76 3.44 0 2.09 3.02 2.01 -3.02 3.49 0 -4.14 5.76 0 5.32 -2.89 0z"/>
  </g>
 </g>
</svg>
