<svg xmlns="http://www.w3.org/2000/svg" xml:space="preserve" id="Слой_1" x="0" y="0" style="enable-background:new 0 0 350 280" version="1.1" viewBox="0 0 350 280"><style>.st0{fill:#3497e8}.st2{fill:#e67607}.st3{fill:#feba28}.st4{fill:#fde667}.st5{fill:#fefefe}.st6{fill:#0151b4}.st7{fill:#00227f}.st8{fill:#067cd4}.st9{fill:#00c4f9}.st11{fill:#e94823}.st12{fill:#ea6602}.st13{fill:#004ab4}.st14{fill:#6ee4f7}.st15{fill:#ddf6ff}.st16{fill:#000c58}.st17{fill:#c7d6ee}.st19{fill:#ded1ad}</style><path d="M272.8 119.9c.5.1 1 .1 1.5.2-1.6 1.4-4.1 1.6-6.1 2 1.1-2.3 1.1-1 2.6-1.9.1 0 .1-.1.2-.1l1.8-.2z" class="st0"/><path d="m76.5 163.5 2.3 1.3-.3.6c-1.2 1.1-3 1.3-4.5 1.4.2-1.1 1.7-2.5 2.5-3.3z" style="fill:#00c4f9;fill-opacity:.9882"/><path d="M281.7 56.8c1 1.6 2.1 2.5 4 2.9h.2v.2c-.1.5-.6.8-1 1-.5.1-.9.1-1.3 0-.9-.3-1.7-1.1-2-1.9-.4-.8-.2-1.4.1-2.2z" class="st2"/><path d="M317 175.5c1.2-.9 1.6-.4 2.9-.3h.3c.7.6.8 1.8.9 2.7.1.7.1 1.5-.3 2.1-1.5.3-2.9.6-4.4.2v-1.1c1 .1 1.7.1 2.6-.5.7-.5 1-1 1.1-1.8-.2-.6-.2-.9-.8-1.3-.6-.3-1.5-.1-2.3 0z" class="st3"/><path d="M317 175.5c.8-.1 1.7-.3 2.4.1.6.4.6.7.8 1.3-.2.8-.4 1.3-1.1 1.8-.8.6-1.6.5-2.6.5v-.3c-.1-.5-.2-.9-.3-1.4-.2-.8.3-1.4.8-2z" class="st4"/><path d="M78.8 164.8c2.9 1.3 6.2 2.1 9.4 2.5-.1 1 0 2.2-.2 3.2-2.9-1.6-6.3-4-9.4-5l.2-.7z" class="st0"/><path d="M230.5 92.5c.9-.5 2.1-.6 3.1-.6 2.4.1 4 .3 6 1.7-1.8.4-3.4.6-5.2.6-.8-.1-1.6 0-2.4 0-.8-.1-1.6-.1-2.5-.3l-.1-.4c.4-.4.7-.7 1.1-1z" class="st5"/><path d="M281.7 56.8c.9-.9 1.8-1.6 3.1-1.6.8 0 1.6.3 2.2.9.5.5.8 1.1.7 1.8 0 .5-.3 1-.7 1.4-.3.3-.7.4-1.1.5h-.2c-1.9-.5-3-1.4-4-3z" class="st4"/><path d="M315 174.6c1.7-.2 3.4-.7 5 .1l.1.6h-.3c-1.3-.1-1.7-.6-2.9.3-.5.6-1 1.2-.9 2 .1.5.2.9.3 1.4.1.2 0 .1 0 .3v1.1l-3.9.2c1.4-1.8 1.2-4.2 2.6-6z" class="st2"/><path d="M257.6 99.9c.9 0 1.9.3 2.6.8l.3.3c.1.1.2.2.2.4.1.1.1.3.1.4v.4c0 1.2-.8 1.9-1.5 2.6-.8 0-1.7.1-2.4-.3-.5-.3-.9-.8-1-1.4-.1-1.1.9-2.3 1.7-3.2zM268.9 48.5c1 .2 2.3.8 3 1.6.4.5.6 1.1.5 1.8-.2 1.3-1.3 1.9-2.3 2.6-.4 0-.8 0-1.2-.1-.8-.3-1.5-.9-1.9-1.6-.3-.7-.3-1.6-.1-2.2.4-1.1 1.1-1.7 2-2.1z" class="st5"/><path d="M69.7 164.6c.9.9 1.9 1.7 2.9 2.6-1.8 1.5-3.7 3-5.1 4.9-.8-.6-2-1.4-2.3-2.3.1-1 .5-1.1 1.2-1.8 1.1-1.1 2.2-2.3 3.3-3.4z" class="st2"/><path d="M275.6 106c.4-.3.9-.2 1.4-.3.5 2.6-.6 11.3-2.1 13.5-.2.3-.4.6-.6.8-.5-.1-1-.1-1.5-.2 1.7-1.9 2.4-10.9 2.8-13.8z" class="st6"/><path d="M104.6 38.5c.5 0 .9-.1 1.4 0 1 .1 2.2.7 2.8 1.5.5.6.7 1.5.5 2.3-.2 1.4-1.3 2-2.3 2.7-.3 0-.6.1-.9.1-1.1-.1-2.5-.7-3.2-1.6-.5-.6-.6-1.4-.5-2.2.2-1.4 1.2-2 2.2-2.8z" class="st4"/><path d="M140.6 247.7c.3.6.3 1.1.2 1.8-.3.6-.7.9-1.4 1.1-3 1-9.6.5-12.9.3l.2-.1c.4 0 .9 0 1.2-.1.4-.2.3-1.7.6-2.3 1.9-.7 9.6-.6 12.1-.7z" class="st2"/><path d="M259.7 86.1c1 .3 2.6 1.3 3.5 1.1.9 3.5 2.3 6.3 4.3 9.3-.9.8-1.9 1.6-2.7 2.6-3.1-3.8-4.7-8.1-5.1-13z" class="st6"/><path d="M53 230.9c-.3-.1-.5-.3-.7-.5-.7-.6-1.2-1.6-1.3-2.6 0-1 .4-1.9 1.1-2.6.7-.8 1.8-1.4 2.9-1.4.9 0 1.7.3 2.4 1 .8.7 1.6 2.3 1.5 3.3 0 1-.8 1.6-1.6 2.1-.6.5-1.1.8-1.8 1.1-.7-.1-1.7-.4-2.5-.4z" class="st3"/><path d="M305 159.7c.5-.1 1.1-.1 1.6-.2 1.6 2 1 7 .8 9.5-.3 2.5-.8 5.7-2.9 7.3-.3.2-.7.4-1.1.5-.9 1-2.6 1.1-3.8 1.2-1 .1-2.2 0-3.1.4-.6-.5-2.4-.4-3.2-.5-.1-.4-.5-.7-.8-1l2.1-.3.2-.4c1.9.7 4.8.6 6.7-.1.7-.3 1.4-.7 1.9-1.2 2.3-2.2 2.4-6.3 2.4-9.2.1-1.6.2-5-.8-6z" class="st7"/><path d="M326 170.6c.3 0 .6-.1.9 0 1.4.5 2.9 1.5 3.5 2.9.4 1 .4 2 0 2.9-.6 1.4-2.5 2.8-3.9 3.3-1.8-1.5-3.1-3.5-5.1-5 1.6-.7 3.6-2.6 4.6-4.1z" class="st5"/><path d="M232 94.2c.8 0 1.6-.1 2.4 0 1.3 2.2 2.9 4.3 4.2 6.5 2.8 4.5 4.9 9.3 6.7 14.3.5 1.5 1.3 3.4 1.3 4.9-.6.1-1.3.2-1.9.1-2.5-9.8-7-17.6-12.7-25.8z" class="st6"/><path d="M97.2 27.4c.4.1.7.2 1 .4 1.3 1 3.6 3.5 3.8 5.1.2 1.7-2.9 4.3-4 5.6l-.3.1c-.9-.3-4-4.2-4.9-5.2 1.5-1.9 2.8-4 4.4-6z" class="st5"/><path d="m239.2 62.7 1.7-.2c.3 4.7-.6 13.8.2 17.7.2 1 .7 2.1 1.5 2.8.6.6 1.5 1 2.3 1.1 1.3.2 2.9 0 4.2 0 3.6-.1 7.1-.4 10.7.3-.2.5-.5 1-.5 1.6-4.2-.1-8.3.1-12.5 0-2.1 0-4.5-.3-6-1.9-.7-.8-1.1-1.8-1.3-2.8-.7-3.7-.5-14.5-.3-18.6z" class="st6"/><path d="M285.5 162.2c.9-.8 2-1.8 3.4-1.9.8 0 1.5.2 2.1.7.7.3 1.5.5 1.9 1.2.8.9 1.3 2 1.2 3.3 0 .2 0 .3-.1.5 0 .2-.1.3-.1.5s-.1.3-.2.5-.1.3-.2.4c-.1.1-.2.3-.2.4-.1.1-.2.3-.3.4-.1.1-.2.2-.3.4-.1.1-.2.2-.4.3-.1.1-.3.2-.4.3-.1.1-.3.2-.4.3-.1.1-.3.1-.5.2s-.3.1-.5.2c-.2 0-.3.1-.5.1s-.3.1-.5.1h-1c-1.3-.1-2.6-.9-3.4-1.9-.6-.8-.9-1.9-1.6-2.5.7-1.1 1.7-2.4 2-3.5z" class="st3"/><path d="M285.5 162.2c.9-.8 2-1.8 3.4-1.9.8 0 1.5.2 2.1.7.1.5.3.7-.1 1.1-.7 1-2.4 1.9-3.6 2-.4 0-.8 0-1.2-.2-.6-.5-.5-.9-.6-1.7z" class="st4"/><path d="M204 70.5c.1.1.3.4.4.5 1.3.9 3.4 1.5 4.8 2.1 3.1 1.4 6 2.9 8.8 4.8 3.5 2.4 6.8 5.2 9.8 8.3 1.8 1.8 3.7 4.4 5.8 5.8-1 0-2.2.1-3.1.6-2.5-2-4.2-4.9-6.7-6.9-3.5-2.9-7-5.5-11-7.7-2.8-1.6-5.7-2.9-8.4-4.5-.6-.2-1.3-.6-1.9-1 .1-.3.1-.5.1-.8l-.8-.2-.1-.2.5-.3-.1-.4c.7.1 1.2.2 1.9-.1zM62.6 248.1c3.7-.4 7.6-.2 11.3-.1l17.6.1c2.3 0 5.8.5 7.9-.2v2.7c-11.7-.8-23.5.5-35.2-.1-.6-.7-1.1-1.6-1.6-2.4zM61.3 178.2c.9-1.1 2.3-1 3.4-1.9l1.2 1.4c3.4 4.2 6.1 11.3 5.6 16.7-.2 2.1-.9 5.4-2.2 7.2l-3.5-1.4c.7-1 1.1-2.3 1.3-3.5 1.4-6.4-1.2-11.8-4.5-17.1-.6-.4-.9-.9-1.3-1.4z" class="st6"/><path d="M61.3 178.2c.9-1.1 2.3-1 3.4-1.9l1.2 1.4c-.9.7-2.1 1.9-3.4 2-.5-.5-.8-1-1.2-1.5z" class="st8"/><path d="M195.9 53.7c-.5-1.9-.7-3.3.4-5 1.1-1.7 2.6-3.2 4.6-3.6 1.7-.4 3.5.1 4.9 1 .2.1.4.3.6.4.2.1.3.3.5.4l.5.5c.1.2.3.4.4.5.1.2.2.4.4.6l.3.6c.1.2.2.4.2.6.1.2.1.4.2.7 0 .2.1.4.1.6v1.2c0 .2-.1.4-.1.6 0 .2-.1.4-.2.6-.1.2-.1.4-.2.6l-.3.6c-.1.2-.2.4-.3.5-.9 1.3-2.8 2.8-4.5 3.1-1.6.2-3.5-.3-4.8-1-.9-1.2-1.8-2.4-2.7-3.5z" class="st3"/><path d="M295.5 91.7c1 .2 2.2.4 2.8 1.3.2.3.2.3.1.7.6.1 1.4 0 2 .3-.8.1-1.3 0-1.8.6-1 1.2-1.7 2.6-2.6 3.7-3 3.8-7.5 6.6-12.3 7.4-2.2.3-4.4.3-6.7.1-.5 0-1 0-1.4.3-.3-.4-4.6-2.2-5.5-2.7-2-1.2-3.5-2.6-5.2-4.2.7-1 1.7-1.8 2.7-2.6.7.9 1.6 1.7 2.5 2.3 3.9 2.8 8.4 3.8 13.1 3 4.3-.8 8.8-3.5 11.3-7.2.5-.9 1.2-2 1-3z" class="st7"/><path d="M94.3 191.9c.7.4 1 .6 1.2 1.4.4 1.3.3 2.6-.3 3.8-.3.3-.6.5-1 .7-.1.8-.2 1.5-.2 2.3-3.7-.5-19 .4-20.6-.3.2-.8-.2-1.5-.5-2.2.1-1.8-.4-3.6.7-5.2 2.7-1.1 16.6-.3 20.7-.5z" class="st3"/><path d="M73 197.6c1.2.6 18.5.2 21.2.2-.1.8-.2 1.5-.2 2.3-3.7-.5-19 .4-20.6-.3.2-.8-.2-1.5-.4-2.2z" class="st7"/><path d="M64.5 241.9c5 .2 10 .1 15 .1 6.8 0 13.5.1 20.3 0-.2 2-.3 4-.3 5.9-2.2.7-5.6.2-7.9.2l-17.7-.1c-3.7 0-7.6-.3-11.3.1-.5-.7-1.2-1.5-1.4-2.4-.1-.8-.1-1.6.4-2.3.7-1 1.7-1.2 2.9-1.5z" class="st9"/><path d="M259.8 84.5c.4-4.4 1.6-8.2 4.2-11.7 3.2-4.3 7.8-7.1 13.2-7.8 5.8-.8 13.6 1.4 17.6 5.7 1.2 1.3 2.5 3.9 3.8 4.8 0 0 .1 0 .1.1-.3 1.2.8 3.1 1.1 4.3 1.2 4.3 1.2 9.9-1.3 13.8 0-.3 0-.4-.1-.7-.6-.9-1.8-1-2.8-1.3 1-1.1 1.4-3.3 1.5-4.7.3-4.8-1.1-9.6-4.3-13.2-2.7-3.1-6.8-5.3-11-5.5-4.7-.2-9.2 1.1-12.7 4.3-4.3 3.9-5.6 9-5.8 14.6-.9.2-2.6-.8-3.5-1.1l-.4-.1c0-.5.2-1 .4-1.5z" class="st8"/><path d="m207.8 246.6.6-.3c2.2-.5 7.2-.3 9.6-.3 11.8-.1 23.5.4 35.2.4 3.2 0 6.4 0 9.6-.1 4.2-.2 12-1.5 15.8-.3.3.1.4.2.6.4-.2.6-.4 1.1-.3 1.8-1.7 1-3.5 2.2-5.5 2.5-5.1.9-11.9 0-17.2.1-12.4.1-24.8.5-37.3.3-4.6-.1-7.8-.6-11.1-4.1-7.6-.3-15.3-.1-23-.1h-42.9c3.3-.7 9.6-.2 13.4-.2h36.3c4.5 0 11.9.6 16.2-.1z" class="st7"/><path d="M298.7 75.5c3.5-1.2 7.9-1.3 11.3.4 2.8 1.3 4.7 3.5 6 6.3.4.7.7 1.7 1.1 2.3 1.1 1.6 4.5-.2 5.9 4.3.2.8.3 1.6-.1 2.3-.7 1.3-2.3 2.1-3.7 2.5-4 1.1-14.3.6-18.8.4-.5-.2-1.4-.2-2-.3 2.5-3.9 2.5-9.4 1.3-13.8-.2-1.2-1.3-3.2-1-4.4z" class="st5"/><path d="M57.5 213.9c-2.8 1.8-7.6 2.5-11 2.7-6.1.3-12.1-2.2-16.5-6.4-4.7-4.3-7.6-10.7-7.9-17-.2-6.6 1.9-12.7 6.4-17.5 4.5-4.8 10.7-7.2 17.2-7.4 7.5-.2 13.6 3 18.9 8-1.1.9-2.5.8-3.4 1.9-4.3-4.2-9.2-6.4-15.3-6.3-5.5.1-10.9 2.7-14.6 6.6-.4.5-.9.9-1.3 1.4-.4.5-.8 1-1.1 1.6-.3.5-.7 1.1-.9 1.7-.3.6-.5 1.2-.8 1.8l-.6 1.8c-.2.6-.3 1.2-.4 1.9-.1.6-.2 1.3-.2 1.9 0 .6-.1 1.3 0 1.9.1 5.4 2.6 11.2 6.5 15l.7.7c.3.2.5.4.8.6.3.2.5.4.8.6s.5.4.8.6c.3.2.6.3.9.5.3.2.6.3.9.5.3.1.6.3.9.4.3.1.6.3.9.4l.9.3c.3.1.6.2 1 .3.3.1.6.2 1 .2.3.1.7.1 1 .2.3.1.7.1 1 .1.3 0 .7.1 1 .1.3 0 .7 0 1 .1s.7 0 1 0c3-.1 6.2-.8 8.8-2.4.4 1.1.9 2.1 1.6 3.2z" class="st6"/><path d="M303.2 187.7h.1c1.3.3 5.3-.9 7.1-.8 3.2.1 16.9 3.2 19.2 5.5.2.7.2 1.1-.1 1.8-.7 1.4-5.6 6.5-6.9 7-.2 1.1-1.9 2.1-2.8 2.7-2 1.3-4.3 2.2-6.2 3.5-.5-.3-6.5.9-7.9.9-2.9 0-5.4-.4-7.6-2.5.7-.3 1.1-.4 1.5-1.1-.6-.9-2.5-1.4-3.5-1.9-.7-1.2-2.1-3.4-3.3-4 1.8-2 2.6-4.8 4.5-6.8 1.4-1.1 5.3-3.2 5.9-4.3z" class="st8"/><path d="M306 197.5c1.6-1.1 2.2-4.6 3.1-6.3.3 1.5-.3 4.6-1.1 5.9 3.5-.8 11.5-2.4 14.7-1.8-1 1.1-7.4 1.5-9 1.6 2.5.7 7.6 2.1 9.1 4.3-.2 1.1-1.9 2.1-2.8 2.7-2 1.3-4.3 2.2-6.2 3.5-.5-.3-6.5.9-7.9.9-2.9 0-5.4-.4-7.6-2.5.7-.3 1.1-.4 1.5-1.1-.6-.9-2.5-1.4-3.5-1.9 2.1-3 7.1-2.5 9.7-5.3z" class="st6"/><path d="M263.2 87.2c.3-5.6 1.5-10.7 5.8-14.6 3.5-3.2 8-4.5 12.7-4.3 4.1.2 8.2 2.4 11 5.5 3.2 3.6 4.6 8.5 4.3 13.2-.1 1.4-.5 3.6-1.5 4.7.2 1-.5 2.1-1.1 2.9-2.5 3.7-7 6.4-11.3 7.2-4.7.8-9.2-.2-13.1-3-.9-.7-1.8-1.4-2.5-2.3-2-2.9-3.4-5.8-4.3-9.3z" class="st3"/><path d="M273.1 80.7c1.1.4 2.5 1.4 3.6 1.5l.5.5c-.4 1.3-.2 2.5-.4 3.9-1-.4-2.1-1.1-2.7-2-.9-1.2-1.1-2.4-1-3.9z" class="st6"/><path d="M278.9 75.8c0 .7.1 1.4.1 2.1.2.1.2.2.5.2-1.2.7-2.1 1.2-2.5 2.6-.1.5-.2 1-.2 1.5-1.1-.1-2.5-1-3.6-1.5 0-.8.2-1.6.6-2.3 1.1-1.7 3.2-2.2 5.1-2.6z" class="st8"/><path d="M278.9 75.8c-.1-.8-.3-1.7.2-2.3.4-.5.7-.5 1.3-.6.7.5.9.9 1.1 1.7 0 .2.1.5.1.7 1.3 1 3.4 1 4.2 2.6-.1.8-.2.9-.7 1.5-1.6.5-3.9-1-5.5-1.3-.2 0-.3-.1-.5-.2-.1-.7-.2-1.4-.2-2.1z" class="st9"/><path d="M277.3 82.7c2.7 1.1 8.2 2.5 9.5 5.3.3.7.2 1.6-.1 2.3-.1.3-.3.5-.6.7-.8 0-1.8-.7-2.7-.9.1-.3.2-.5 0-.8-1-1.6-4.8-2.3-6.5-2.8.2-1.2 0-2.5.4-3.8z" class="st0"/><path d="M283.5 90.2c.8.2 1.9.8 2.7.9.1.2.2.3.2.5.7 2.8-3.7 3.2-4.8 4.9 0 .2.1.5 0 .7-.1.6-.4 1-.9 1.4-.5.3-1 .3-1.6.1-.5-.7-.2-1.3-.2-2.2-2.2-1-3.8-2.3-5.5-4l2.2-1.1c1.4.7 2.9 1.3 4.4 1.8.9-.2 2.3-.4 2.9-1.1.5-.5.6-1.2.6-1.9z" class="st7"/><path d="M239.2 62.7c-5.9-1.5-10.8-3.3-14.1-8.9-2.1-3.7-2.9-8.7-1.7-12.9 1.1-3.9 3.7-8.1 7.3-10.1 4.8-2.6 9.8-3.6 15.1-2 4.2 1.3 7.9 4.5 10 8.4 2.1 4 2.3 8.8.9 13-1.4 4.3-4.2 7.9-8.3 9.9-2.4 1.2-4.9 1.6-7.5 2.2l-1.7.4z" class="st3"/><path d="M238 33.6c2.8-.2 5.4 0 8 1.3 2.7 1.4 4.4 3.6 5.3 6.4 1 3 .7 6.2-.8 9-1.8 3.4-4.7 5-8.3 6.1-2.2.5-5.2-.1-7.2-1.1-2.9-1.4-5.1-3.9-6.1-7-.1-.4-.2-.7-.3-1.1-.1-.4-.1-.7-.2-1.1 0-.4-.1-.8-.1-1.1v-1.1c0-.4.1-.8.2-1.1.1-.4.2-.7.3-1.1.1-.4.2-.7.4-1.1.1-.4.3-.7.5-1 1.8-3.7 4.8-4.9 8.3-6z" class="st5"/><path d="M239.5 37.1c1.2.3 4 1.6 4.7 2.5-.5 1.2-4.4.7-5.5 1.9.6 1.5 2.6 2 3.9 2.8.9.5 1.7 1.4 1.9 2.5.4 2.1-3 4.3-4 6.1l-.1.2c-1.2-1-2.2-1.7-3.6-2.4-.6-.3-1.3-.8-1.5-1.5 1.1-1.4 4.4.1 5.8-1.4-.3-1.5-3-2.8-4.2-3.8-.7-.5-1.2-1-1.4-1.8.5-2 2.7-3.5 4-5.1z" class="st3"/><path d="M55.9 210.6c-2.6 1.6-5.8 2.3-8.8 2.4h-1c-.3 0-.7 0-1-.1-.3 0-.7-.1-1-.1-.3 0-.7-.1-1-.1-.3-.1-.7-.1-1-.2-.3-.1-.6-.2-1-.2-.3-.1-.6-.2-1-.3l-.9-.3c-.3-.1-.6-.2-.9-.4-.3-.1-.6-.3-.9-.4-.3-.2-.6-.3-.9-.5-.3-.2-.6-.3-.9-.5-.3-.2-.6-.4-.8-.6s-.5-.4-.8-.6c-.3-.2-.5-.4-.8-.6-.3-.2-.5-.4-.7-.7-3.9-3.7-6.4-9.6-6.5-15v-1.9c0-.6.1-1.3.2-1.9.1-.6.2-1.3.4-1.9l.6-1.8c.2-.6.5-1.2.8-1.8.3-.6.6-1.1.9-1.7.3-.5.7-1.1 1.1-1.6.4-.5.8-1 1.3-1.4 3.8-3.9 9.2-6.5 14.6-6.6 6.1-.1 11 2.1 15.3 6.3.4.5.7 1 1.2 1.4 3.3 5.3 5.9 10.7 4.5 17.1-.3 1.2-.6 2.5-1.3 3.5-1.8.4-3.6.3-5.4 0-.6.7-1 .9-1.8 1.1v.4c-.6.5-1.4 1.1-1.6 1.8-.6 2.5-.6 4.7-.9 7.2z" style="fill:#00d2a6"/><path d="M32.2 192.2v-.4c-.2-3 1.4-6.5 3.4-8.7 2.6-3 6.3-5 10.3-5.2 4.9-.2 7.9 1.6 11.4 4.7-.9 2.5-5.6 5.4-7.6 7.3-.5-.5-1.1-.9-1.6-1.4-1.3.1-2.5.1-3.4 1.1-.6.6-.9 1.6-1.2 2.4-3.9-.3-7.7-.6-11.3.2z" class="st8"/><path d="M57.1 182.6c.5-.9 1-1.7 2-2 .6-.2 1.3-.1 1.9.3.1.1.3.2.4.3.1.1.2.2.3.4.1.1.2.3.2.4.1.2.1.3.1.5.1.8-.2 1.6-.7 2.3-.4.4-.9.8-1.4 1.1.9 2.7.8 5.5 1.6 8.2.7 1.5 0 3.5-.6 5-.1.4-.3.7-.5 1.1-.6.7-1 .9-1.8 1.1v.4c-.6.5-1.4 1.1-1.6 1.8-3.2.9-5.7 2.8-9.1 3.2-4.2.5-8.1-1.4-11.4-4-.4-.3-.6-.7-.9-1.1-.1-.3 0-.2-.2-.4-1.4-2.1-3.4-5.3-2.9-8l-.3-1.1c3.6-.7 7.4-.5 11.1-.1.3-.8.6-1.7 1.2-2.4.9-1 2.2-1 3.4-1.1.5.4 1.1.9 1.6 1.4 2.1-1.9 6.7-4.8 7.6-7.3z" class="st8"/><path d="M61.5 194.1c.7 1.5 0 3.5-.6 5-.1.4-.3.7-.5 1.1-.6.7-1 .9-1.8 1.1.2-1 2.5-6.5 2.9-7.2z" class="st5"/><path d="M47.9 188.6c.5.4 1.1.9 1.6 1.4l.6 1.2c-.2.7-.4 1.5-.7 2.2-.5.8-1.1 1.5-2.1 1.7-.6.1-1.4 0-1.9-.3l.3-1.2c.8-2.3 2.2-2.3 2.2-5z" class="st11"/><path d="m43.7 193.6 1.1 1.1c-2.6 2.9-5.7 5.2-8.4 8-.4-.3-.6-.7-.9-1.1 2.9-2.4 5.7-5.2 8.2-8z" class="st5"/><path d="M43.2 192c.3-.8.6-1.7 1.2-2.4.9-1 2.2-1 3.4-1.1 0 2.7-1.4 2.8-2.1 4.9l-.3 1.2h-.6l-1.1-1.1-.1-.2-.4-1.3z" class="st12"/><path d="M57.1 182.6c.5-.9 1-1.7 2-2 .6-.2 1.3-.1 1.9.3.1.1.3.2.4.3.1.1.2.2.3.4.1.1.2.3.2.4.1.2.1.3.1.5.1.8-.2 1.6-.7 2.3-.4.4-.9.8-1.4 1.1-.9-.6-1.9-1.1-2.7-1.8-2.2 2.6-4.4 4.9-7.1 7.1l-.6-1.2c2.1-2 6.7-4.9 7.6-7.4z" class="st5"/><path d="M32.2 192.2c3.6-.7 7.4-.5 11.1-.1l.4 1.3.1.2c-2.6 2.8-5.4 5.6-8.3 8-.1-.3 0-.2-.2-.4-1.4-2.1-3.4-5.3-2.9-8l-.2-1z" class="st8"/><path d="M32.2 192.2c3.6-.7 7.4-.5 11.1-.1l.4 1.3c-3.6.4-7.7.7-11.2-.1l-.3-1.1z" class="st5"/><path d="m321.9 115.6 3.2.1c1.9.8 3.2 1.7 4 3.7.2.6.4 1.3.4 1.9.2.8-.2 1.9-.7 2.6-.8 1.3-2 2.1-3.5 2.5 2.9 5.1 4.1 11.5 2.5 17.3-1.5 5.5-5.2 10-10.2 12.8-3.6 2-7.1 2.5-11.1 2.9-.5 0-1.1.1-1.6.2-.5-.3-1.4-.4-1.9-.5-3-.9-6-1.7-8.6-3.6-4.6-3.5-8-8.8-8.8-14.6-.8-5.4.7-11.3 4-15.6 3.3-4.4 7.7-7.1 13.2-7.8 5.2-.7 10.7.8 14.9 4 1.6-1.8 2-4 4.1-5.7.1-.1 0 0 .1-.2z" class="st8"/><path d="m317.7 133.3 1 .1c1 .7 1.3 2.1 1.5 3.3.2 1 .2 2.8-.4 3.7-.1.1-.2.2-.3.4 0-1.4-.1-1.6-1-2.7.1-.3.2-.6.2-1 0-1.3-.1-2.8-1-3.8z" class="st13"/><path d="M324.5 134.1c.7.1.9.1 1.5.5.4.7.6 1.5.7 2.3.1 1.4 0 3.3-1 4.4-.1.3-.3.4-.6.5l-.3-.6.7.4h-.6c-.8-1.9-.4-5.4-.4-7.5z" class="st14"/><path d="M319.2 127.2c.9.7 2 1.6 2.3 2.7-.5 1.7-2.4 1.7-2.8 3.5l-1-.1v-.2c-.2-1-1.7-1.9-2.5-2.4 1.2-.6 3.4-2.2 4-3.5z" class="st6"/><path d="M318.5 138c.9 1.2 1 1.3 1 2.7.2.8.2 1.4-.2 2.1-.2.3-.5.6-.8.9.1 1.4-.9 2.7-1.8 3.7-.8.9-2 2.1-3.2 2.3-.1.3-.1.4-.4.6-2.2 1.7-6.2 1.9-8.9 1.6-4.3-.5-6.8-3.2-9.3-6.4 1.7 1.6 3.4 3.4 5.3 4.8.3.2.7.6 1.1.7 1 .4 5.8 0 6.9-.2h.2l-.2.2v-.6c-1.7-.1-3.5.1-5.2-.2-2.4-.4-4.5-2.4-5.8-4.4-.4-.6-1.4-2.2-1.2-2.9l.1.1c3.1 3.4 3.4 6.5 9.1 6.7 2.8.1 6-.2 8.3-1.7.9-.6 1.4-1.1 1.7-2.2.4-.2.6-.4.9-.7.8-.9 1.9-2.1 1.8-3.3.1-.1.1-.1.2-.3.5-1.1.7-2.3.4-3.5z" class="st7"/><path d="m321.9 115.6 3.2.1c1.9.8 3.2 1.7 4 3.7.2.6.4 1.3.4 1.9.2.8-.2 1.9-.7 2.6-.8 1.3-2 2.1-3.5 2.5-2.5.2-4.1-1.1-6.2.7-.6 1.3-2.8 2.9-4.1 3.6.8.5 2.3 1.4 2.5 2.4v.2c1 1 1 2.5 1 3.8 0 .4-.1.6-.2 1 .4 1.2.1 2.4-.5 3.5-.1.2-.1.2-.2.3 0 1.3-1 2.5-1.8 3.3-.3.3-.5.5-.9.7-.3-.3.8-1.6.7-2.8.1-.1.2-.2.2-.3 1.4-2 1.7-4.8 1.3-7.1-.4-2.1-1.5-4.8-3.3-6.1l.1-.1c1-1.1 2-2 3-3.1.8-.8 1.7-2 1.6-3.2 0-.7-.6-1.2-1.1-1.6 1.6-1.8 2-4 4.1-5.7.4-.2.3-.1.4-.3z" class="st5"/><path d="M323 117.6c1-.1 2 0 2.8.6.2.1.4.3.5.5.2.2.3.4.4.6.1.2.2.4.3.7.1.2.1.5.2.7v.8c0 .3-.1.5-.1.8-.1.3-.2.5-.3.7-.1.2-.3.5-.4.7-.7.9-1.5 1.1-2.7 1.3h-.2c-1.3-.4-2.6-.8-3.2-2.1-.4-.8-.5-1.6-.2-2.4.7-1.5 1.6-2.3 2.9-2.9zM295.1 140.6c0-2.9.3-5.8 1.6-8.5 1.2-2.4 3.1-4.2 5.7-5 2.7-.9 6.3-1 8.8.2.9.5 2.4 1.2 2.7 2.3 1.8 1.3 2.9 4 3.3 6.1.4 2.3.1 5.2-1.3 7.1-.1.1-.2.2-.2.3.2 1.1-.9 2.5-.7 2.8-.3 1-.8 1.6-1.7 2.2-2.3 1.6-5.5 1.9-8.3 1.7-5.6-.3-6-3.4-9.1-6.7l-.1-.1c.2-1-.3-1.7-.7-2.4z" class="st3"/><path d="M295.1 140.6c.9.2 1.2.3 1.8 1.1 2.1 3.3 2.9 5.5 7 6.5 2.9.7 6 .4 8.5-1.3 1.2-.7 3-2.5 3.3-3.8.2 1.1-.9 2.5-.7 2.8-.3 1-.8 1.6-1.7 2.2-2.3 1.6-5.5 1.9-8.3 1.7-5.6-.3-6-3.4-9.1-6.7l-.1-.1c.2-1-.3-1.7-.7-2.4z" class="st15"/><path d="M308.5 130.4c.5 0 .7 0 1.1.3.2.6.1 1.3.4 1.8.3.8.9 1.3 1.1 2.3.1.6.2.9-.1 1.4-1.2-.2-2.5-1.8-3.7-2.4-.6.1-1 .1-1.5.5-.4 2.1 3.1 3.1 4 4.7l.1.1v.2c.1.8-.6 1.6-1.1 2.1-.7.5-1.6.6-2.5.9-.6.7-1.1 1-1.9 1.4v-.2c-.1-1.4-1-2.7-1.9-3.6 1.6.1 3.9.6 5.4.4-.4-1.4-2.3-2.6-3.1-3.8-.6-.8-.8-1.6-.6-2.6.6-1.1 2.1-1.5 3.2-2.1.8-.3.9-.7 1.1-1.4z" class="st5"/><path d="M73.4 199.8c1.5.7 16.9-.2 20.6.3 2.7 1.4 7.5 6.2 10 8.4.1 2 .1 4-.1 6-1.2.3-2.8.5-3.9 1-1 4.8 0 10.3-.1 15.2-.1.5-.1 1.1-.2 1.6.3 3.3.3 6.5 0 9.8-6.8.1-13.5 0-20.3 0-5 0-10 .1-15-.1l.3-.3c1.7-5.7 1.5-13.5 1.4-19.4 0-2.4-1.5-4-2.9-5.8-.5-.5-1.2-.9-1.8-1.3-1.4-.3-2.8-.4-4-1.3-.7-1.1-1.2-2.1-1.6-3.3.3-2.5.3-4.6 1-7.1.2-.7 1.1-1.3 1.6-1.8v-.4c.9-.2 1.3-.4 1.8-1.1 1.8.3 3.6.3 5.4 0l3.5 1.4 1.1.8c1.3-.7 2.3-1.8 3.2-2.6z" class="st6"/><path d="M84.5 214.4c1 .9 1.9 1.9 2.8 2.8-.8 0-1.8-.2-2.6 0-.5.1-.6.1-.9.6.4 1.1 2.9 2.9 3.8 3.8-1 .9-2.1 2-3.3 2.7-.7-.7-1.5-1.4-2.2-2.2v-.3c1-.6 2.2.3 3.1-.1.3-.1.2-.2.3-.5-1-1.2-2.8-2.1-4.2-2.9 1.3-1.1 2.4-2.3 3.2-3.9z" class="st5"/><path d="M60.3 200.2c1.8.3 3.6.3 5.4 0l3.5 1.4 1.1.8.2.2c1.5 1.5 3.5 2.2 5 3.7l.1.1c-.3 3.1-1.2 5.4-3.8 7.4-4 3.2-6.5 1.5-8.5 2.7-.5-.5-1.2-.9-1.8-1.3-1.4-.3-2.8-.4-4-1.3-.7-1.1-1.2-2.1-1.6-3.3.3-2.5.3-4.6 1-7.1.2-.7 1.1-1.3 1.6-1.8v-.4c.9-.2 1.3-.4 1.8-1.1z" class="st8"/><path d="M60.3 200.2c1.8.3 3.6.3 5.4 0l3.5 1.4 1.1.8.2.2c-2.2 1.9-8.7 6.7-9.2 9.7-.2 1.1.6 1.7.1 2.9-1.4-.3-2.8-.4-4-1.3-.7-1.1-1.2-2.1-1.6-3.3.3-2.5.3-4.6 1-7.1.2-.7 1.1-1.3 1.6-1.8v-.4c1-.2 1.4-.4 1.9-1.1z" class="st9"/><path d="M97.4 236.6c.3-5.2-.6-12.9.4-17.6.4-1.7.8-2.6 2.3-3.6-1 4.8 0 10.3-.1 15.2-.1.5-.1 1.1-.2 1.6.3 3.3.3 6.5 0 9.8-6.8.1-13.5 0-20.3 0-5 0-10 .1-15-.1l.3-.3c1.7-5.7 1.5-13.5 1.4-19.4.1-.1.2-.1.3-.1 2.5 0 1.2 8.9 3.3 10.6.8.6 2.1 1 3.1 1.4 7.8 3.4 16.3 3.6 24.5 2.5z" class="st7"/><path d="M293.2 177.7c.8.1 2.6 0 3.2.5 2.1 1.6 6.8 6.3 7.3 8.8l-.6.6c-.6 1.1-4.6 3.2-5.8 4.5-1.8 2-2.7 4.7-4.5 6.8 1.2.5 2.6 2.8 3.3 4 1 .5 3 1.1 3.5 1.9-.4.6-.8.8-1.5 1.1 2.2 2.1 4.6 2.5 7.6 2.5 1.4 0 7.4-1.3 7.9-.9.5.5.8.7.8 1.5-.1 2.1-.9 4.3-1.5 6.3-2.9 9.4-7.6 16.7-15.1 23.2-4.3 3.7-9.5 6.8-14.9 8.7-1.3.5-2.7.7-4.1 1.1 0-.6.2-1.2.3-1.8.7-.5 1-1.3 1.1-2.1.5-2 .9-13 0-14.4.4-1.2.4-2 0-3.2.2-.6.3-1.3.3-2 .2-2.6.5-18.4-.1-19.8-.1-.1-.3-.4-.5-.5.8-2.2.6-4.6-.2-6.7-2.7-.8-4.9-1-7.7-.9.4-2 .2-4.3.3-6.3v-.2c.8-4.3 3.1-8.1 6.8-10.6 4.4-2.3 9.6-2 14.1-2.1z" class="st9"/><path d="M292.9 199c1.2.5 2.6 2.8 3.3 4 1 .5 3 1.1 3.5 1.9-.4.6-.8.8-1.5 1.1-3.4 1.8-3.1 4.2-5.5 6.2.1-.9-.3-1.8-.8-2.6-1.3-2.5-3.8-3.9-6.4-4.7 3.8-1 5.1-3.1 7.4-5.9zM244.7 120c.6.1 1.3 0 1.9-.1 5.7.3 11.5.1 17.2.1 2.3 0 4.8-.1 7.1.1-.1 0-.1.1-.2.1-1.5.9-1.5-.4-2.6 1.9-2.1.8-4.3 1.1-5.9 2.7.1 0 .1 0 .2.1 4.1 1.1 14.4-.8 17.6.7.8 2 1 18.6.3 20.9.8 1 .7 2.3.6 3.5-.2 2-.5 3.6-2.1 5-4 3.4-17.5 2.2-22.8 2-1.3 0-2.6 0-3.9-.1-3.8 0-7.7.3-11.5.3-2.7 0-7.1-.1-9.1-2.2-1.2-1.3-1.8-3.3-2.1-5-.6-3.7-.3-7.8-.3-11.6v-10.3c0-2.7.5-4.8 2.5-6.7 2.4-2.4 9.8-1.5 13.1-1.4z" class="st5"/><path d="M235 144c1 0 2-.1 2.9 0 .7.1 1.5.4 1.9 1.1.8 1.1.3 2.9 0 4.2-1.6.1-3.3 0-4.9.1.1-1.9.1-3.6.1-5.4z" class="st8"/><path d="M260.4 127.3c.5.2.8.5 1.2.9 0 .2.1.3 0 .5-.4 1-6.8 6.7-8.2 8.7-2.6-1.1-5.3-3.6-7.5-5.4-2.9 3-5.2 6.7-7.8 10-.6-.4-1.1-.9-1.7-1.4v-.3c.2 0 .3-.1.5-.1 2.1-.5 7.1-7.1 8.3-9.1l.1-.2c1.2-.1 5.9 4.1 7.7 4.9l.1.1c2.5-2.5 5.9-5.2 7.3-8.6z" class="st11"/><path d="M267.3 127.3c1.9 0 3.8-.1 5.7 0 0 3.3.1 6.6 0 9.9h-5.7v-9.9zM250.7 139c1.8-.1 3.7 0 5.5 0-.1 3.5 0 7 0 10.4h-5.5c.1-3.4 0-6.9 0-10.4zM242.7 137.6h5.1c0 1.7.3 11.2-.4 11.9-1.6 0-3.2-.1-4.8 0l.1-11.9z" class="st8"/><path d="M267.2 137.1h5.7c.3 4.1.1 8.4 0 12.5-1.9 0-3.8-.1-5.7-.2v-12.3z" class="st3"/><path d="M258.8 133.5h5.7v16H259c.1-5.3-.3-10.7-.2-16z" class="st8"/><path d="M244.7 120c.6.1 1.3 0 1.9-.1 5.7.3 11.5.1 17.2.1 2.3 0 4.8-.1 7.1.1-.1 0-.1.1-.2.1-1.5.9-1.5-.4-2.6 1.9-2.1.8-4.3 1.1-5.9 2.7-.3-.1-.4-.1-.7 0-4.5 1.8-14 .6-19.1.5-3.6 0-7.2.1-10.8.3-.9 6.2-1 18.9.1 25.2 2.9.4 5.9.2 8.8.2h27.1c2.7 0 5.5.2 8.2 0 .9-.1 1.5-.2 2.2-.7 1.2-.9 1.8-2.1 2.4-3.4l-.1-.5c.8 1 .7 2.3.6 3.5-.2 2-.5 3.6-2.1 5-4 3.4-17.5 2.2-22.8 2-1.3 0-2.6 0-3.9-.1-3.8 0-7.7.3-11.5.3-2.7 0-7.1-.1-9.1-2.2-1.2-1.3-1.8-3.3-2.1-5-.6-3.7-.3-7.8-.3-11.6V128c0-2.7.5-4.8 2.5-6.7 2.4-2.3 9.8-1.4 13.1-1.3z" class="st8"/><path d="M106.6 185.5c0-2.3-.5-6.3.4-8.4.3-.6.6-1 1.2-1.2 3.8-1.5 14.3-1.5 18 .2.9.4 1 .8 1.3 1.6l-.2 2.5v16.9c0 .9 0 1.9-.2 2.8.3.5.2.7.8.8 3.1 1 10.4-1.5 12.2 2 .1.2.2.5.3.7l-.1 2.5v2c0 1.1-.1 2.1-.1 3.2v1.7l-.1 3.2v5l.1 2.3c0 .8.1 1.7.2 2.5v.2l.1 2.1c0 1 .1 2 0 3v7.2l.1 2.6c.1.8.1 1.5.1 2.3l.1 3.6h-.2l.1 1c-2.5.1-10.2-.1-12.1.7-.2.6-.1 2.1-.6 2.3-.3.1-.8.1-1.2.1l-.2.1c-2.1.1-4.4.2-6.4-.3-1.2.9-10.7.4-12.8.4-2 0-6.1.6-7.9-.4V248c0-2 .1-4 .3-5.9.3-3.3.3-6.5 0-9.8.1-.5.2-1 .2-1.6.1-4.9-1-10.4.1-15.2 1.1-.5 2.7-.7 3.9-1 .2-2 .2-4 .1-6-2.5-2.2-7.3-7-10-8.4 0-.8.1-1.5.2-2.3.4-.1.7-.4 1-.7.6-1.2.6-2.5.3-3.8-.2-.8-.5-1-1.2-1.4l-.3-5.4c.1-.1.3-.2.4-.2 1.1-.2 7.2 2.1 12.1.9v-1.7z" class="st3"/><path d="M115 212.8c1.5 0 3.7-.4 5 .5.3.8.1 1.2-.1 2.1-1.3-.3-3.5-.3-4.5-1.1-.5-.4-.4-1-.4-1.5zM119.9 195.3c-1 .2-3 .5-4 .2-.7-.2-.8-.4-1-1 .1-.7 0-1 .5-1.6 1-.6 3.2-.2 4.4-.3.1.9.2 1.8.1 2.7zM120.7 190.3c-.6.4-3.7.4-4.5.2-.8-.2-1.1-.5-1.5-1.1.1-.7.1-.8.5-1.3 1.5-.7 3.5-.4 5.1-.3-.4.6-.5 1-.4 1.7.1.3.2.5.3.7l.5.1zM119.9 200.5c-1.9 0-3.9.1-5.4-1.3 0-.2 0-.6.2-.7 1.5-1.2 3.7-1 5.5-1l-.3 3zM115 207.5c1.3 0 2.6-.2 3.9-.1.5 0 .9.3 1.2.7.4.9.1 1.9 0 2.8-1.4-.3-3.7.1-4.8-.7-.5-.8-.3-1.9-.3-2.7z" class="st2"/><path d="M114.8 202.5c1.5 0 3.8-.6 5.1.3.6.7.5 1.8.5 2.7-1.2 0-2.3.1-3.5.1-.7 0-1.2-.1-1.6-.6-.6-.5-.5-1.8-.5-2.5z" class="st12"/><path d="M140.4 206c-2.6 0-5.2.4-7.8.5-1 0-2.7.2-3.4-.5l.1-.3c2.5-.9 8.3-1.6 11.1-2.2v2.5z" class="st2"/><path d="M120.3 187.7c2.3.1 4.7-.2 7.1-.3v2.8c-2.2 0-4.5 0-6.7.1l-.5-.2c-.1-.2-.2-.5-.3-.7-.1-.7 0-1.1.4-1.7zM127.4 180.2c-2.1.3-5 1.1-7.1.5-.6-.2-.8-.2-1.1-.7l.2-.4c1.3-1.6 6-1.7 8.1-1.8l-.1 2.4zM127.4 197.2c0 .9 0 1.9-.2 2.8-1.7-.4-5.5.3-7.3.6l.2-3c2.4-.4 4.8-.6 7.3-.4zM119.8 192.6c2.3-.6 5.2-.5 7.6-.7v3c-2.5.2-4.9.3-7.4.4 0-.9-.1-1.8-.2-2.7z" class="st12"/><path d="M100 230.6c2.3-.2 10.5-.7 12.2.6.4.3.5 1 .5 1.4-1.9-.3-4-.1-6-.2-2.3-.1-4.6-.3-6.9-.3.1-.4.1-.9.2-1.5z" class="st5"/><path d="M127.4 185.5c-1.7.3-6.9 1-8.3.1-.2-.7-.3-1.2 0-1.9 1.5-1.3 6-.9 8.1-1.5l.3-.1c-.1 1.1-.1 2.3-.1 3.4z" class="st12"/><path d="M140.4 236.1c-3.6-.2-7.4.5-10.9 0-.6-.1-.6-.1-1-.5 0-.7 0-.9.2-1.5.8-.4 1.3-.3 2.1-.3 3.2.2 6.4-.8 9.5-.6l.1 2.9zM140.5 240.8c-1.9.1-10.7 1.1-12 0-.3-.2-.2-.5-.2-.8.2-.4.4-.7.7-.9 1.3-.9 9.6-1.1 11.4-.8l.1 2.5zM140.1 221c-2.5.4-9.3 1.1-11.3-.5-.3-.3-.3-.4-.4-.8.1-.2.3-.4.5-.5 1.7-1.2 9-1.3 11.2-1v2.8zM140.6 246.7c-1.8-1.8-9.5.5-12-1-.2-.7 0-1.3.1-2 .8-.5 10.5-.6 12.1-.7l.1 3.6-.3.1zM140.3 225.9c-3 .3-8.1 1.2-11.1.5-.3-.1-.5-.1-.6-.4-.3-.6-.2-1.7.1-2.3.8-.5 9.9-.6 11.5-.5 0 .8.1 1.7.2 2.5l-.1.2zM140.3 208c0 1.1-.1 2.1-.1 3.2-3-.3-9 1.3-11.4-.7-.3-.6-.4-.7-.4-1.4 1.5-1.2 9.6-1 11.9-1.1zM140.1 216c-3.2.2-6.7.5-9.8.2-.9-.1-1.5-.2-2.1-.9 0-.6 0-1 .4-1.6 2.8-1.1 8.5-.9 11.6-.9l-.1 3.2zM140.4 231c-3 .4-7.6.9-10.6.5-.5-.1-.9-.3-1.1-.7-.3-.6-.3-1.2-.2-1.8 1.3-1.2 9.6-1 11.8-1 .1 1 .2 2 .1 3zM117.7 227.5l2.3-.6c.4 3.1.3 6.2.3 9.3-2.5 0-5.3-.2-7.7.4 0-1.3 0-2.7.1-4 2.1-.1 5.3.3 6.8-1.1l.1-.4c-1.3-1-6.8-.3-6.9-.3 0 0-.1-.5-.1-.6-.1-.8-.1-1.6-.1-2.4 1.7-.1 3.4-.4 5.2-.3zM119.7 248c-.1-.8 0-1.1-.6-1.7-1.7-.8-5.9.7-6.6-.5 0-.8 0-1.3.5-2 1.9-1.4 5.5.9 6.9-1.8-.4-.6-.9-.6-1.6-.7-1.2-.2-5.3.3-5.9-.3 0-.8 0-1.3.5-2 1.6-1.1 4.4-.1 7.1-1.4 0 3.5.4 7-.1 10.6l.1 2.5c-1.2.9-10.7.4-12.8.4v-1.5c2.6-2.1 9.3.2 12.5-1.6z" class="st2"/><path d="M94.1 186.5c.1-.1.3-.2.4-.2 1.1-.2 7.2 2.1 12.1.9-.1 3.5.3 25.4-.3 26.7-.1.2-.4.4-.5.6-.7.3-1.3.2-2 .1.2-2 .2-4 .1-6-2.5-2.2-7.3-7-10-8.4 0-.8.1-1.5.2-2.3.4-.1.7-.4 1-.7.6-1.2.6-2.5.3-3.8-.2-.8-.5-1-1.2-1.4 0-1.9-.1-3.7-.1-5.5z" class="st9"/><path d="m280.2 204.4.5.5c.5 1.4.2 17.2.1 19.8 0 .6-.1 1.4-.3 2 .4 1.2.4 2 0 3.2.9 1.5.5 12.4 0 14.4-.2.8-.5 1.6-1.1 2.1-.2-.2-.4-.3-.6-.4-3.9-1.2-11.6.1-15.8.3-3.2.1-6.4.1-9.6.1-11.8 0-23.5-.5-35.2-.4-2.4 0-7.4-.2-9.6.3-.3.1-.4.2-.6.3-.5-5.4-1-11.7-.3-17.1l.1-3.8c.1-6.2.5-12.7 0-18.9l.1-.6c.1-.4.1-.9.2-1.4 8.5-.4 17-.3 25.5-.3h33.1c4.1 0 8.2.3 12.2.2.3.1.8.2 1.3-.3z" class="st6"/><path d="M237.6 226.4c0-1.6-.4-4.1.9-5.2 1.3-1.2 3.3-1.5 5-1.4 1.3.1 3 .5 3.9 1.5 1 1.3.4 3.3.8 4.8l-.3.9-1.1.4c-2.5-.4-5.2.2-7.7-.1-.8-.1-1-.3-1.5-.9z" class="st4"/><path d="M207.5 225.8c2.4.6 5.5.3 7.9.3 6.9 0 15.6-.6 22.3.3.5.6.6.8 1.5.9 2.5.3 5.2-.3 7.7.1l1.1-.4.3-.9c.9-.2 2-.1 2.9-.2 3.3 0 28.5-.3 29.3.5v.2c.4 1.2.4 2 0 3.2.9 1.5.5 12.4 0 14.4-.2.8-.5 1.6-1.1 2.1-.2-.2-.4-.3-.6-.4-3.9-1.2-11.6.1-15.8.3-3.2.1-6.4.1-9.6.1-11.8 0-23.5-.5-35.2-.4-2.4 0-7.4-.2-9.6.3-.3.1-.4.2-.6.3-.5-5.4-1-11.7-.3-17.1l-.2-3.6z" class="st6"/><path d="M247.8 230.3c1-.2 2-.2 3-.3-.1 2.2-.5 3.2-2.1 4.7-2.1.1-6.1.8-7.8-.8-.6-.5-1-1.3-1.4-1.9 1.3.1 2.7.2 4 .1 1.8-.1 3.1-.5 4.3-1.8z" class="st7"/><path d="M247.9 227c.1 1.1.2 2.1-.1 3.3-1.2 1.3-2.5 1.7-4.2 1.8-1.3.1-2.7 0-4-.1-.9-.6-1.4-1.8-2-2.7l.1-.9c1.7-2.1 7.4.3 9.1-.9l1.1-.5z" class="st3"/><path d="M207.5 225.8c2.4.6 5.5.3 7.9.3 6.9 0 15.6-.6 22.3.3.5.6.6.8 1.5.9 2.5.3 5.2-.3 7.7.1-1.6 1.2-7.3-1.1-9.1.9l-.1.9c-.2.2-.4.4-.6.5-1 .3-19.8.2-22.6.2-.9 0-6.5.3-6.9.1l-.1-.5v-3.7zM251.1 226c3.3 0 28.5-.3 29.3.5v.2c.4 1.2.4 2 0 3.2-2.1.6-5.3.2-7.5.1-7.3 0-14.8-.4-22 0-1 .1-2.1.1-3 .3.3-1.1.2-2.1.1-3.3l.3-.9c.8-.1 1.8-.1 2.8-.1z" class="st7"/><path d="M248.2 226.2c.9-.2 2-.1 2.9-.2-.3 1-.5 1.6-.3 2.6.1.4.1 1 .1 1.4-1 .1-2.1.1-3 .3.3-1.1.2-2.1.1-3.3l.2-.8z" class="st16"/><path d="M252 156.8c1.3 0 2.6 0 3.9.1 0 1.2-.5 7.4.1 8 4.3 1 8.7 1.6 13 2.6 4.4 1 23.4 6.1 25.7 8.7l-.2.4-2.1.3c.3.3.6.6.8 1-4.6.1-9.7-.2-13.9 2-3.6 2.4-6 6.2-6.8 10.6v.2c0 2 .1 4.3-.3 6.3 2.8-.1 5 .1 7.7.9.8 2.1 1 4.5.2 6.7-.5.5-1 .4-1.7.4-4.1.1-8.2-.2-12.2-.2h-33.1c-8.5 0-17-.1-25.5.3 0 .4 0 .9-.2 1.4l-.1.6c.5 6.2.1 12.7 0 18.9l-.1 3.8c-.7 5.4-.2 11.7.3 17.1-4.2.7-11.6.1-16.2.1H155c-3.7 0-10-.5-13.4.2-.5.1-.7 0-1.2-.2l-.1-3.6c0-.8-.1-1.5-.1-2.3l-.1-2.6v-7.2c.1-1 0-2 0-3l-.1-2.1v-.2c1.8-.6 4.6-.2 6.5-.2 3.1 0 6.2-.2 9.4-.3 5.8 0 12.6 1.4 17.4-2.8 1.9-1.7 2.9-3.9 3.5-6.3.9-3.9.5-7.9.5-11.9-.1-4.9-.2-10 .1-14.9 1.9-.4 3.8-.5 5.8-.7 11.2-1 22.1-7.4 29.8-15.3 2.3-2.4 4.3-5.2 6.5-7.7 2.1-.5 4.5-.5 6.6-.7 4.7-.4 9.4-.7 14.1-.7 3.9 0 7.7.2 11.6.2l.2-7.9z" class="st9"/><path d="M201.4 217.9c.1 0 .2 0 .4.1.8.2 1.2.6 1.6 1.2.2 1-.3 1.8-.7 2.6-.2-.1-.3-.1-.5-.2-1-.5-1.6-.8-1.9-1.8 0-.9.5-1.3 1.1-1.9zM182.6 202.9c.5 0 .9 0 1.3.2.6.3 1.1.7 1.3 1.3.2.7 0 1.3-.3 2-.7 0-1.7.1-2.3-.2-.4-.2-.7-.5-.8-.9-.3-.7.4-1.7.8-2.4zM191.9 234.4h.2c.8.1 1.7.4 2.2 1.1.3.5.4 1 .3 1.6-.1.8-.8 1.3-1.4 1.8h-.6c-.8-.1-1.5-.5-1.9-1.1-.4-.5-.5-1.2-.3-1.8.2-.9.9-1.1 1.5-1.6z" class="st14"/><path d="m235.8 173.8.5.2c.7.8.5 2.2.4 3.2 1 0 2.1-.1 3 .3v.3c-.9.5-1.9.9-2.8 1.2-.4.9-.4 1.9-.4 2.9-.1 0-.2-.1-.3-.1-.8-.5-.7-1.2-.9-2-.3-1-2.6-1.9-3.5-2.5 1 0 2 0 2.9-.3.7-.8.8-2.1 1.1-3.2z" class="st8"/><path d="M219.6 183.4c-.1-.9-.4-2.2.3-3 .3-.4.6-.6 1.1-.6 1.2-.1 2.9 1.3 3.6 2.2.4.5.9 1 1.3 1.6v.2c-.9.5-1.8 1-2.6 1.5-1 .5-1.9 1.1-2.7 1.8.1-1.4-.5-2.5-1-3.7z" class="st5"/><path d="M225.9 183.5c.8-.5 2.1-1.6 3.1-1.4 2.8.5 7.8 10.5 9.2 13 .3.6.5 1.2.6 1.9h-3.9c-3.5-3.9-5.9-9-9-13.3v-.2z" class="st8"/><path d="m176.6 235.9 21.2-21.4c2.7-2.7 5.3-5.7 8.2-8.2.4-.4.7-.6 1.3-.6l.3.5-.1.6c-4.8 5.1-9.8 10-14.8 14.9-5.3 5.2-10.4 10.6-15.8 15.7-2.3-1.7-10.9-9.3-11.4-11.7l.4-.1c2.6 1.2 8.6 7.8 10.7 10.3z" class="st14"/><path d="M219.6 183.4c.5 1.2 1.1 2.3.9 3.6-.3 4.9 3.6 6.5 4.4 9.9-1.6.1-3.3.1-4.9.1-1 0-2.1-.1-3.1-.2-.9-3-3-5.8-4.1-8.9.5-1 1-1.8 1.6-2.7 1.8-1.7 2.9-1.7 5.2-1.8z" class="st6"/><path d="M214.6 185.3c.3.2.7.5.9.9.4.9.6 1.9 1 2.9 1 2.4 3 4.9 3.5 7.3 0 .2.1.4.1.6-1 0-2.1-.1-3.1-.2-.9-3-3-5.8-4.1-8.9.5-.9 1.1-1.7 1.7-2.6z" class="st7"/><path d="M252 156.8c1.3 0 2.6 0 3.9.1 0 1.2-.5 7.4.1 8-1 1.8-.4 27.5-.5 32.1h-3.4c-.1-10.8-.1-21.6-.1-32.5v-7.7z" class="st6"/><path d="M225.9 183.7c3.2 4.2 5.5 9.3 9 13.3H255.5c4.9 0 10.7-.4 15.6.1l1.3-.2c2.8-.1 5 .1 7.7.9.8 2.1 1 4.5.2 6.7-.5.5-1 .4-1.7.4-4.1.1-8.2-.2-12.2-.2h-33.1c-8.5 0-17-.1-25.5.3-.4-1.8-.2-3.8-.3-5.6 3.1-2.7 5.6-2.6 9.5-2.5 1 .1 2 .2 3.1.2 1.6 0 3.3 0 4.9-.1-.8-3.4-4.7-5-4.4-9.9.9-.8 1.7-1.3 2.7-1.8.8-.6 1.7-1.1 2.6-1.6z" class="st3"/><path d="M223.3 185.2c.9 2.9 5.7 9 7.5 11.8-1.9 0-3.9 0-5.8-.1-.8-3.4-4.7-5-4.4-9.9.8-.7 1.6-1.3 2.7-1.8z" class="st11"/><path d="M256 164.9c4.3 1 8.7 1.6 13 2.6 4.4 1 23.4 6.1 25.7 8.7l-.2.4-2.1.3c.3.3.6.6.8 1-4.6.1-9.7-.2-13.9 2-3.6 2.4-6 6.2-6.8 10.6v.2c0 2 .1 4.3-.3 6.3l-1.3.2c-4.9-.5-10.6 0-15.6-.1.3-4.7-.3-30.4.7-32.2z" class="st9"/><path d="M266.6 176c.5.2 1.1.6 1.5 1 .3.4.5.8.4 1.4-.1.7-1 1.3-1.5 1.7-.8-.4-1.4-1.3-2-1.9.4-.8 1-1.5 1.6-2.2z" class="st5"/><path d="M266.1 182.1c.3.2.5.3.7.7 1.2 2.1 2.2 4.1 1.5 6.5-.4 1.4-1.4 2-2.6 2.7-1-.5-1.8-1.2-2.7-1.9.4-3.1 1.1-5.5 3.1-8z" class="st8"/><path d="M277.4 179.7c4.1-3.4 10-3 15-2.9.3.3.6.6.8 1-4.6.1-9.7-.2-13.9 2-3.6 2.4-6 6.2-6.8 10.6v.2c0 2 .1 4.3-.3 6.3l-1.3.2c.1-2.6 0-5.2.4-7.8 0-.2 0-.3.1-.5.8-3.6 2.9-7.1 6-9.1z" class="st16"/><path d="M137.2 34.5c13.2-4.4 24.8-5.1 37.6 1.3 5.1 2.6 10.2 6.4 14.3 10.5 2.3 2.4 4.5 4.9 6.8 7.3.9 1.2 1.8 2.3 2.6 3.5 2.2 4.3 3.7 8.8 5.5 13.3-.7.3-1.2.2-1.9.1l.1.4-.5.3.1.2.8.2c0 .3 0 .5-.1.8.6.3 1.2.8 1.9 1 2.7 1.6 5.6 2.9 8.4 4.5 3.9 2.2 7.5 4.8 11 7.7 2.5 2.1 4.2 5 6.7 6.9-.4.3-.7.6-1 1l.1.4c.8.1 1.6.2 2.5.3 5.6 8.3 10.2 16 12.7 25.8-3.3 0-10.7-.9-13.2 1.4-2 1.9-2.5 4-2.5 6.7v10.3c0 3.8-.4 7.8.3 11.6.3 1.7.9 3.7 2.1 5 2 2 6.4 2.2 9.1 2.2 3.8 0 7.7-.3 11.5-.3v7.7c-3.9 0-7.7-.2-11.6-.2-4.7 0-9.4.3-14.1.7-2.1.2-4.5.2-6.6.7-2.1 2.6-4.1 5.3-6.5 7.7-7.7 7.9-18.7 14.3-29.8 15.3-1.9.2-3.9.3-5.8.7-.3 4.9-.2 10-.1 14.9.1 3.9.4 8-.5 11.9-.6 2.4-1.6 4.6-3.5 6.3-4.7 4.2-11.6 2.8-17.4 2.8-3.1 0-6.2.3-9.4.3-1.9 0-4.7-.4-6.5.2-.1-.8-.1-1.6-.2-2.5l-.1-2.3v-5l.1-3.2v-1.7c.1-1.1.1-2.1.1-3.2v-2l.1-2.5c-.1-.2-.2-.5-.3-.7-1.8-3.5-9.1-1-12.2-2-.6-.2-.6-.3-.8-.8.2-.9.2-1.8.2-2.8v-16.9l.2-2.5c-.3-.8-.4-1.2-1.3-1.6-3.8-1.7-14.2-1.7-18-.2-.6.3-.9.6-1.2 1.2-.9 2.2-.4 6.1-.4 8.4v1.6c-4.9 1.2-11-1.1-12.1-.9-.2 0-.3.1-.4.2-.1-1-3.1-3.3-3.8-4.5-2.4-3.2-2.2-7.8-2.3-11.6.2-1 .2-2.1.2-3.2-3.1-.3-6.5-1.1-9.4-2.5l-2.3-1.3c-.7.8-2.3 2.2-2.5 3.3l-1.4.4c-1-.8-2-1.7-2.9-2.6-1.1 1.1-2.2 2.3-3.3 3.4-.3 0-.7.1-1 .1-1.8 0-3.9-.6-5.6-1-8.1-1.9-15-5.2-21.1-11-6.9-6.7-11.1-14.4-13.1-23.7-.6-2.6-1.1-5.3-1.1-7.9-1.5.1-3 .4-4.3-.4-.9-.6-1.6-1.4-1.8-2.5-.3-1.3 0-2.8.7-3.9 1-1.6 2.7-2.8 4.6-3.3.2-.1.3-.2.4-.3 0-3.8 1.5-7.8 3-11.2 6-13.7 18.9-27.4 33-32.9.9-1 0-8.2-.1-9.8 0-1.2.3-2.5 1.2-3.3 1.1-1 2.6-1.4 4.1-1.5 3.4-.4 6.8.2 10.2.3 6.2.1 12.4-.1 18.6.1 2.6 0 6.5.3 8.8-.9 2.5-1.7 5.2-3.1 7.8-4.7 7.1-4.4 14.1-8.7 21.5-12.7.6-.5 1.3-.9 2-1.3.9-.7 2-1.1 3.1-1.6zm67.2 38.9c.8 5.3 1.5 15.1-.5 20l-.3.3c-3.1-1-6-3.3-9.2-4.4-13-4.5-28.2-3.5-40.5 2.6-.7.4-1.5.8-2.2 1.2-.7.4-1.4.8-2.1 1.3-.7.4-1.4.9-2.1 1.4-.7.5-1.3 1-2 1.5s-1.3 1-1.9 1.6c-.6.5-1.2 1.1-1.8 1.7l-1.8 1.8c-.6.6-1.1 1.2-1.7 1.8-.5.6-1.1 1.3-1.6 1.9-.5.7-1 1.3-1.5 2s-.9 1.4-1.4 2.1-.9 1.4-1.3 2.1c-.4.7-.8 1.5-1.2 2.2-.4.7-.7 1.5-1.1 2.2-.3.8-.7 1.5-1 2.3s-.6 1.6-.9 2.3c-2.8 8.5-3.5 18-1.4 26.7.4 1.8 2.2 6.6 2.3 7.8 0 0 0-.1.1-.1.5-.7 2.1-.3 2.9-.1 2.7.7 5.3 2 8 2.9 7.4 2.5 14.8 4.6 22.5 5.6 16.3 2.1 33.7 1.4 49.3-4.3 2.9-1.1 11.3-5.3 13.3-5.5h.2c-1.6 4-3.5 7.7-5.7 11.4 2.1-.5 4.5-.5 6.6-.7 4.7-.4 9.4-.7 14.1-.7 3.9 0 7.7.2 11.6.2v-7.7c-3.8 0-7.7.3-11.5.3-2.7 0-7.1-.1-9.1-2.2-1.2-1.3-1.8-3.3-2.1-5-.6-3.7-.3-7.8-.3-11.6V128c0-2.7.5-4.8 2.5-6.7 2.4-2.3 9.9-1.5 13.2-1.4-2.5-9.8-7.1-17.5-12.7-25.8-.8-.1-1.6-.1-2.5-.3l-.1-.4c.3-.4.6-.7 1-1-2.5-2-4.2-4.9-6.7-6.9-3.5-2.9-7-5.5-11-7.7-2.8-1.5-5.7-2.8-8.4-4.4z" class="st9"/><path d="M146.2 200.9c.4.1 1.2.1 1.4.4.8.9.3 4.6.3 5.8l-1.2-.1c-1-1.3-.5-4.5-.5-6.1z" class="st6"/><path d="M118 129.2c.5 0 .9.1 1.3.4 2.3 1.4 4.2 3.1 4.8 5.8-.2-.1-.4-.1-.6-.2-1.6-1.1-5.1-4.2-5.5-6zM121.9 110.4h.2c.7 0 1.7.5 2.2 1.1.3.5.3 1 .2 1.5-.2 1.1-1 1.5-1.8 2.1-.7-.3-1.8-.7-2.3-1.4-.3-.4-.4-.8-.4-1.3.2-.9 1.2-1.5 1.9-2zM107.9 118.2c.8 0 1.5.1 2.1.6.3.3.5.6.6 1 .2 1.3-.6 2.1-1.3 3.1h-.1c-.9-.1-2.1-.7-2.6-1.5-.3-.5-.4-1-.3-1.6.1-.8.8-1.2 1.6-1.6zM163.9 45.4h.2c.6 0 1.5.6 1.8 1.1.5.6.5 1.4.4 2.1-.2.9-.9 1.3-1.7 1.8-.9-.3-1.8-.6-2.4-1.3-.3-.4-.5-.9-.4-1.4.2-1.1 1.2-1.6 2.1-2.3z" class="st5"/><path d="M122.3 67.3c.4.2 1.1.4 1.2.9-2.3 2.6-5 4.9-7.2 7.5l-.1-.1c-.5-.8-.3-1.8-.1-2.6 2.2-1.8 4-3.9 6.2-5.7z" class="st13"/><path d="m73.8 161 2.6 2.5c-.7.8-2.3 2.2-2.5 3.3l-1.4.4c-1-.8-2-1.7-2.9-2.6.3-.6.7-1.3 1-1.9.4-.7.9-1.2 1.7-1.4l1.5-.3zM110.4 141.4c3 .2 10.7-.5 12.8.7l.2.4c-.3.6-.7.8-1.4 1-2.7.8-8.9 0-11.9-.1-.1-.2-.2-.4-.2-.6 0-.6.2-.9.5-1.4z" class="st7"/><path d="m158 200 3.8-.1c-.1 2.6.6 6.3-1.1 8.4-1.1-.1-2.4-.1-3.3-1-1.3-1.4.5-5.3.6-7.3zM151.5 197.3l4-.1c-.2 3.7 0 7.6 0 11.3h-4c0-3.7-.1-7.5 0-11.2z" class="st8"/><path d="M148.5 75.4c1 1.1 1.6 2.4 2.7 3.5 1 1 2.2 1.5 3.4 2.2-2.7 1.5-4.7 3.6-6.2 6.3-1.6-3.1-3.3-4.7-6.5-6.2 2.6-1.5 4.5-3.5 6.6-5.8z" class="st5"/><path d="M179 61.3c3.1 2.3 4.4 3.8 5.1 7.6 5.6-1.5 12.5.2 17.9 1.7l.1.4-.5.3.1.2.8.2c0 .3 0 .5-.1.8-5.4-2.2-13.2-2.5-19-2.2-.8 2.1-2 3.4-4 4.4-.7.4-1.6.6-2.4.8-1.6-.4-3.4-.7-4.7-1.8.9-.6 2.6 0 3.7-.2 1.6-.2 3.4-.7 4.4-2.1 1.3-1.7 1.2-4 .9-6-.9-1.3-2.1-2.5-2.3-4.1z" class="st6"/><path d="M121 160.8c1.4-.1 2.9-.3 4.2.3 1.3.5 2.6 1.5 3.1 2.8.3.7.2 1.5-.1 2.2-.8 1.4-2.2 2-3.6 2.4-2.1.1-4-.1-6-.6-.7-.8-1.2-1.7-1.7-2.6 1-2.2 1.8-3.5 4.1-4.5z" class="st8"/><path d="M88.2 167.3h1.7c.1.5.1 1.1.2 1.7.1 1.8.3 3.8.2 5.6 1.4 1.6 3.6 5 3.4 7.2 0 .3-.1.6-.1.9 3.3 3.2 8.7 2.4 12.9 2.8v1.6c-4.9 1.2-11-1.1-12.1-.9-.2 0-.3.1-.4.2-.1-1-3.1-3.3-3.8-4.5-2.4-3.2-2.2-7.8-2.3-11.6.2-.9.2-2 .3-3z" class="st7"/><path d="M90.4 174.6c1.4 1.6 3.6 5 3.4 7.2 0 .3-.1.6-.1.9-1.2-1-2-2.3-2.8-3.5-.2-1.5-.6-3.1-.5-4.6z" class="st14"/><path d="M127.1 64.8h.2c4.7.9 10.8-.4 14 4.3.5.7.8 1.4.6 2.2-.1.6-.5 1.1-1.1 1.4-.8.4-1.7.7-2.5.9-1.7-1.3-3.7-1.9-5.7-2.8-2.7-1.3-5.4-2.6-8-4.1.7-.5 1.6-1.2 2.5-1.9zM99.2 129.9c2.8.4 4.9 1.6 6.6 3.9 1.1 1.5 3.6 7.1 4.6 7.7-.3.5-.5.8-.4 1.5 0 .2.1.4.2.6.7 6.5-.3 12.3-4.4 17.5-4 5-9.6 7-15.7 8-.2-.5-.2-1.1-.2-1.7.5 0 1 0 1.5-.1 5.2-.6 10.1-3.7 13.3-7.8 3.1-3.9 4.6-9.3 4-14.3-.8-6.2-4.6-11.6-9.5-15.3zM150.7 40.5c1.3.5 2.4.8 3 2.1.5 1 .5 2.2.1 3.3-.6 1.7-2.4 3.5-4 4.3h-.1c-1.3 1.1-3.7 2.4-5.4 2.4l-2.4-.2c.6-.2.9-.5 1.3-1l.1-.1c-.6.2-1.2.5-1.9.3.6-2.8 4.2-5.1 4.2-8.2 0-.4-.2-.5-.5-.8 1.3-1.4 3.8-1.7 5.6-2.1z" class="st8"/><path d="M143.3 51.5c1.8-.5 4.7-1.9 6.4-1.1-1.3 1.1-3.7 2.4-5.4 2.4l-2.4-.2c.6-.2.9-.5 1.3-1 .1 0 .1-.1.1-.1z" class="st13"/><path d="M132.8 58.7c1.2-1 2.7-2.3 4.1-2.9l.1.1c2.8 1.5 7.6-1.3 12.7 2.5.9.7 1.8 1.6 2.2 2.7.2.6.2 1.3 0 1.9-.4.8-1.2 1.3-2 1.6l-1.2.3c-.3-.3-.5-.5-.9-.6-2.5-.6-13.1-4.3-15-5.6zM169 65.8c1-1.5 2-3 3.5-4 2-1.3 4.2-1.1 6.4-.6.2 1.7 1.4 2.9 2.4 4.1.3 2 .4 4.3-.9 6-1 1.4-2.7 1.9-4.4 2.1-1.1.1-2.8-.4-3.7.2-.8-.4-1.5-.8-2.1-1.5-1.4-1.7-1.3-4.1-1.2-6.3zM56.3 129l.7.4c5.9.3 9.7 4.4 14.4 7.4-2.4 4.6-3 9.1-2.5 14.3-2.6-.7-8.1-4.7-10.7-6.4-.4-.1-.7-.3-1.1-.5-.2-2.7-.4-5.4-.5-8.1-.2-2.4-.4-4.7-.3-7.1z" class="st8"/><path d="m56.3 129 .7.4c.2 2.2.4 4.3.4 6.4.6 2.9.2 5.9.8 8.8-.4-.1-.7-.3-1.1-.5-.2-2.7-.4-5.4-.5-8.1-.2-2.3-.4-4.6-.3-7z" class="st13"/><path d="M56.1 100.2c.1-.3.1-.4.3-.6 2.3-.4 4.1.6 6.4 1 6.6 1.1 17.9.4 25 .4 3.7 0 7.5.3 11.2.2 2.5 0 5.1-.2 7.6-.2 2.3 0 4.6 0 6.9-.2.6-.1 1.1-.2 1.6-.5.3-.3.9-.3 1.3-.4 1.5 0 3-.1 4.5-.2-1.2 2.5-2.3 5.4-5.1 6.4-3.5 1.2-46.4.9-52.3.6-1.3-.1-2.9 0-4.1-.6-.1-.1-.3-.2-.4-.2-.4-.2-.8-.5-1.2-.7-.8-1.7-1.4-3.3-1.7-5z" class="st7"/><path d="M26.1 114.8c1.5-4.5 3.6-8.2 8-10.5 3.4-1.7 7.2-2.1 10.9-.8 3.4 1.1 5.9 3.9 7.4 7 .9 1.8 1.4 3.6 1.5 5.6l3.7.4c2.6 2.4 3.8 4.1 4.4 7.7H36.9c-4 0-8.6-.4-12.6.2-1.5.1-3 .4-4.3-.4-.9-.6-1.6-1.4-1.8-2.5-.3-1.3 0-2.8.7-3.9 1-1.6 2.7-2.8 4.6-3.3.9.2 1.7.4 2.6.5z" class="st5"/><path d="M33.9 127.4c5.9 2.2 12.1 1.1 18.2 1.2 1.4 0 2.8.3 4.2.4 0 2.4.1 4.7.3 7.1.1 2.7.3 5.4.5 8.1.4.2.7.5 1.1.5 2.6 1.6 8.1 5.7 10.7 6.4.9 2.7 1.8 5.3 3.1 7.8-1 .4-2.1.5-3.1.7-10 1.3-16.7-1.7-24.5-7.6-.2-.1-.3-.2-.5-.3-7.1-6.2-9.4-15.4-10-24.3z" class="st8"/><path d="M44.4 151.9c4.5-3.2 10.7-3.4 13.3-5.2l.1-.4c-.2-.2-.5-.3-.7-.4-2.6-.9-15.8-11.2-18.2-13.5 1.3 0 13.8 8.7 15.6 10 .6.4 1.8 1.6 2.5 1.7h.2c.4.2.7.5 1.1.5 2.6 1.6 8.1 5.7 10.7 6.4.9 2.7 1.8 5.3 3.1 7.8-1 .4-2.1.5-3.1.7-10.2 1.4-16.9-1.7-24.6-7.6zM134 36c1-.6 2.1-1 3.2-1.5 6.1 9.7.4 14.2 1.7 17.7 1.6-1.5 2.2-4.4 3.4-6.3.8-1.2 1.8-2.2 2.9-3.1.3.3.5.4.5.8 0 3.1-3.6 5.4-4.2 8.2.6.2 1.2-.1 1.9-.3l-.1.1c-.4.4-.7.8-1.3 1l2.4.2c-4.3 1.1-3.9-.2-7.4 3.1-1.5.6-2.9 1.9-4.1 2.9 1.9 1.2 12.5 5 15 5.6.4.1.7.3.9.6-.3.1-.7.2-1.1.3-5.6.9-10.9-2.2-15.2-5.4-1.8 1.7-3.5 3.5-5.5 5.1-.9.7-1.7 1.4-2.5 2.1 2.6 1.5 5.3 2.8 8 4.1 1.9.9 4 1.5 5.7 2.8-.7.1-1.5.2-2.3.1-4.4-.1-9.4-2.6-12.4-5.7-.1-.4-.8-.7-1.2-.9-2.2 1.7-4 3.9-6.2 5.6-1.5-3.1.6-8.5.5-11.9-.1-2.4-.9-3.9-2.7-5.5-3.3-.5-6.7.2-10 .1-.6-.3-.7-.4-1.1-1 2.5-1.7 5.2-3.1 7.8-4.7 7.1-4.4 14.1-8.7 21.5-12.7.5-.6 1.3-1 1.9-1.4z" class="st6"/><path d="M134 36c1-.6 2.1-1 3.2-1.5 6.1 9.7.4 14.2 1.7 17.7-.7.7-1.4 1.4-2.2 1.9-1.2-.9-2.1-9.5-2.3-11.4-.1-1.8.5-5.1-.4-6.7zM122.7 45.1c1.2-.2 3 .1 4 .8 1.5 1 2.2 2.9 2.5 4.6.3 1.4.4 2.8.2 4.2-.2 1.6-1.6 5.8-.9 7-.5.8-1.6 1.7-2.2 2.4-2-4.3-3.7-9.9-3.3-14.6.1-1.3 1-3.1.8-4.3l-1.1-.1z" class="st8"/><path d="M132 37.3v.2c-.2 1.8-.9 3.4-1.2 5.2-.7 4.3 2.4 9 4.5 12.5-2.3 2.1-4.7 4.2-6.8 6.5-.7-1.2.8-5.4.9-7 .1-1.4.1-2.8-.2-4.2-.3-1.7-1-3.6-2.5-4.6-1.1-.7-2.8-1.1-4-.8-1.9.9-3.2 1.9-3.9 3.9-1.1 3.1 0 7.3 1.4 10.2 1.1 2.3 2.5 4.4 3.9 6.6-.6.5-1.2 1.1-1.8 1.6-2.2 1.7-4 3.9-6.2 5.6-1.5-3.1.6-8.5.5-11.9-.1-2.4-.9-3.9-2.7-5.5-3.3-.5-6.7.2-10 .1-.6-.3-.7-.4-1.1-1 2.5-1.7 5.2-3.1 7.8-4.7 7-4.4 14-8.7 21.4-12.7z" class="st9"/><path d="M71.3 136.8c2.6-3.1 5.4-6.4 9.2-8 6.4-2.8 12.5-1.3 18.7 1.1 4.9 3.7 8.6 9.1 9.4 15.3.6 4.9-.9 10.4-4 14.3-3.2 4.1-8.1 7.2-13.3 7.8-.5.1-1 .1-1.5.1h-1.7c-3.1-.3-6.5-1.1-9.4-2.5l-2.3-1.3-2.6-2.5c-.5-.8-1.2-1.5-1.9-2.2-1.3-2.5-2.2-5.1-3.1-7.8-.4-5.3.1-9.7 2.5-14.3z" class="st3"/><path d="M87.2 133.3h.2c3.5-.5 7.2.4 10 2.5.4.3.7.6 1.1.9.3.3.7.6 1 1 .3.3.6.7.9 1.1.3.4.5.8.8 1.2l.6 1.2c.2.4.4.8.5 1.3.1.4.3.9.4 1.3.1.4.2.9.2 1.4.5 4-.5 7.9-3.1 11.1-2.3 2.9-6.2 5.1-9.9 5.5-.5 0-.9.1-1.4.1-.5 0-.9 0-1.4-.1-.5 0-.9-.1-1.4-.2-.5-.1-.9-.2-1.3-.3-.4-.1-.9-.3-1.3-.5l-1.2-.6c-.4-.2-.8-.4-1.2-.7-.4-.3-.8-.5-1.1-.8-.4-.3-.7-.6-1.1-.9l-1-1c-.3-.4-.6-.7-.9-1.1-.3-.4-.5-.8-.8-1.2-.2-.4-.4-.8-.6-1.3-.2-.4-.4-.9-.5-1.3-.1-.5-.3-.9-.4-1.4-.1-.5-.2-.9-.2-1.4-.1-.5-.1-.9-.1-1.4 0-.5 0-.9.1-1.4 0-.5.1-.9.2-1.4s.2-.9.3-1.3c.1-.4.3-.9.4-1.3l.6-1.2c.2-.4.4-.8.7-1.2.3-.4.5-.8.8-1.1 2.6-3.3 6.1-5.1 10.1-5.5z" class="st5"/><path d="M88.2 136.6c.7 0 1.1 0 1.7.4v1.5c.7.9 1.8.8 2.8 1.3.7.4 1 .6 1.3 1.4-.8.9-2.7 1-3.8 1.2-.3.8 0 1.9.2 2.8l3.1 3c1 5.5-1 3.8-3.3 7.4-.5.8.1 1.7-.3 2.4-.7.3-1.4.2-2.2.1-.6-.6-.4-1.6-.4-2.4-1.1-1-2.9-.8-3.7-1.8-.1-.4-.1-.8 0-1.2.9-2.6 3.9.2 5.8-.7.5-.5.6-.9.7-1.5-1.8-2-4.6-2.7-6.5-4.7-.1-.7-.3-1.5-.2-2.2.1-1.9 2.7-3.6 4-4.9.1-.8.3-1.4.8-2.1z" class="st3"/><path d="M88 142.1c.3.1.5.3.7.5.6.7.5 1.7.4 2.6-.8-.2-1.1-.3-1.6-1-.1-.8.2-1.4.5-2.1z" class="st5"/><path d="M129.3 155.8s0-.1.1-.1c.5-.7 2.1-.3 2.9-.1 2.7.7 5.3 2 8 2.9 7.4 2.5 14.8 4.6 22.5 5.6 16.3 2.1 33.7 1.4 49.3-4.3 2.9-1.1 11.3-5.3 13.3-5.5h.2c-1.6 4-3.5 7.7-5.7 11.4-2.1 2.6-4.1 5.3-6.5 7.7-7.7 7.9-18.7 14.3-29.8 15.3-1.9.2-3.9.3-5.8.7-.3 4.9-.2 10-.1 14.9.1 3.9.4 8-.5 11.9-.6 2.4-1.6 4.6-3.5 6.3-4.7 4.2-11.6 2.8-17.4 2.8-3.1 0-6.2.3-9.4.3-1.9 0-4.7-.4-6.5.2-.1-.8-.1-1.6-.2-2.5 4.5.5 22.5.8 26.7.1 1.8-.3 3.6-1 5.1-2.1 1.5-1.2 2.4-3 2.9-4.9 1.9-7.2-.1-18.9.8-26.7v-.2c-6-1.4-12-1.8-17.8-4.1-13.5-5.6-23-16.4-28.6-29.6z" class="st7"/><path d="M102.7 54.6c.4.6.5.7 1.1 1 3.3.1 6.8-.6 10-.1 1.8 1.6 2.6 3 2.7 5.5.1 3.5-2 8.8-.5 11.9-.1.9-.4 1.8.1 2.6l.1.1c-.4.6-.6 1.1-.7 1.8-.3 4.3.1 8.9.2 13.2 0 2.6-.5 5.9-.1 8.4 0 .2.1.4.2.5l.5.2c-.4.1-1 .2-1.3.4-.5.4-1 .5-1.6.5-2.3.2-4.6.2-6.9.2-2.5.1-5.1.2-7.6.2-3.7 0-7.5-.2-11.2-.2-7.2 0-18.4.6-25-.4-2.2-.4-4.1-1.4-6.4-1-.2.2-.3.3-.3.6-.1-.2 0-.5-.1-.7.8-.6 3.3-.2 4.4-.2.1-3.7.4-27.4-.1-29 0-.1-.3-.4-.4-.5.9-1 0-8.2-.1-9.8 0-1.2.3-2.5 1.2-3.3 1.1-1 2.6-1.4 4.1-1.5 3.4-.4 6.8.2 10.2.3 6.2.1 12.4-.1 18.6.1 2.7.1 6.6.4 8.9-.8z" class="st8"/><path d="M100.7 57.1c4.3.1 8.6-.4 12.8.8.1 3.5.5 7.1.6 10.6.1 3.7-.2 7.5-.2 11.2 0 4.4 1 15.4-.3 19-.4.2-.7.4-1.1.6-1.4-.5-3.2-.3-4.7-.3-.4-2.7 0-5.9.3-8.6 0 1.1-.2 3.7.2 4.6 0 .1.4.4.5.5.6-.6.9-1.9 1-2.8.4-3.2 0-7.5 0-10.9 0-4.8.3-9.5.4-14.3-.9-.1-1.9-.2-2.8-.3.9 0 1.8 0 2.7-.2l.1-.3c-.5-.5-.7-.5-1.4-.7.7-.1.9-.1 1.4-.6l-.1-.5c-.6-.5-.9-.5-1.7-.5.2-.4.2-.9.3-1.2-3.8-.6-8.2-.4-12.1-.5-9.2-.1-18.4.2-27.5-.1 0 12.1.2 24.3 0 36.4-.6.1-1.3 0-1.9 0-.5 0-.9-.1-1.4-.1-1-.1-1.6-.4-2.3-1.2-.8-2.5-.6-31.1-.3-35.6.1-1.6.3-3.1.8-4.6 8.2-.1 16.5.4 24.6-.2 4-.3 8-.2 12.1-.2z" class="st14"/><path d="M67 99c-.2-6.9.1-13.9.1-20.8 0-5.1-.6-11.2.3-16.2l.3.1c0-.2-.1-.3 0-.6 1.3-.5 2.6-.6 4-.7 4.2-.2 36.6-.5 38.8.3.4.1.4.2.6.6-.1.2-.1.3-.2.4-.5.7-1.2.8-2 1h-.3c-3.8-.6-8.2-.4-12.1-.5-9.2-.1-18.4.2-27.5-.1 0 12.1.2 24.3 0 36.4-.7.3-1.3.2-2 .1z" class="st9"/><path d="M68.9 62.7c9.1.3 18.3 0 27.5.1 3.9 0 8.3-.2 12.1.5-.1.4-.2.9-.3 1.2.8.1 1.1 0 1.7.5l.1.5c-.5.5-.7.5-1.4.6.7.1.9.1 1.4.7l-.1.3c-.9.2-1.8.2-2.7.2.9.1 1.9.2 2.8.3-.1 4.8-.4 9.5-.4 14.3 0 3.4.4 7.7 0 10.9-.1.8-.4 2.1-1 2.8l-.5-.5c-.4-.9-.1-3.5-.2-4.6-.3 2.7-.6 5.9-.3 8.6-12.9 0-25.9-.2-38.8.1.4-12.2.2-24.4.1-36.5z" class="st5"/><path d="M108.2 64.4c.8.1 1.1 0 1.7.5l.1.5c-.5.5-.7.5-1.4.6-3.8-.3-7.8-.1-11.7 0l-1.9-.1c-.5-.3-.6-.3-.7-.9 1.2-1 11.7-.5 13.9-.6z" class="st9"/><path d="M73.8 86.5c-.7-.2-1.5-.4-2-.9v-.4c.3-.3.6-.4 1-.5 3.7-1 14.2-.4 18.6-.4 3.9 0 8-.2 11.9 0 .7 0 1.5.2 2 .5s.5.6.6 1.1c-8.5.8-17.1-.3-25.6.4-2.1 0-4.5-.2-6.5.2z" class="st6"/><path d="M96.9 66c3.9 0 7.9-.2 11.7 0 .7.1.9.1 1.4.7l-.1.3c-.9.2-1.8.2-2.7.2.9.1 1.9.2 2.8.3-.1 4.8-.4 9.5-.4 14.3 0 3.4.4 7.7 0 10.9-.1.8-.4 2.1-1 2.8l-.5-.5c-.4-.9-.1-3.5-.2-4.6 0-7.1.4-14.4-.2-21.4-4.2 0-8.7.5-12.8-.1-1-.1-1.4-.4-2-1.2l.2-.3.9-.2c1-.1 2-.1 3-.3.3-.1.3-.2.4-.4l-.5-.5z" class="st9"/><path d="M96.9 66c3.9 0 7.9-.2 11.7 0 .7.1.9.1 1.4.7l-.1.3c-.9.2-1.8.2-2.7.2H94c1-.1 2-.1 3-.3.3-.1.3-.2.4-.4l-.5-.5z" class="st15"/><path d="M80.3 86.3c8.5-.7 17.2.4 25.6-.4-.1.6-.3 1.2-.4 1.8l.1 1.1c-.5.4-.6.4-1.3.5-5.6-.3-11.3-.9-16.9-.1-4.2 0-9.8-.6-13.8.2-.3-.1-.6-.2-.8-.3-.6-.2-.8-.4-1.1-1 .5-.5.9-.5 1.6-.7l.4-1c2.1-.3 4.5-.1 6.6-.1z" class="st6"/><path d="M73.8 86.5c2-.4 4.5-.2 6.6-.2v.9c.3.2.6.3.9.4-2.6.1-5.4.4-7.9-.1l.4-1z" class="st17"/><linearGradient id="SVGID_1_" x1="93.198" x2="92.931" y1="194.552" y2="191.935" gradientTransform="matrix(1 0 0 -1 0 280)" gradientUnits="userSpaceOnUse"><stop offset="0" style="stop-color:#e5dee8"/><stop offset="1" style="stop-color:#d0dcf7"/></linearGradient><path d="M80.3 86.3c8.5-.7 17.2.4 25.6-.4-.1.6-.3 1.2-.4 1.8-3.4-.5-6.9-.3-10.4-.3l-13.9.1c-.3-.1-.6-.3-.9-.4v-.8z" style="fill:url(#SVGID_1_)"/><path d="M87.5 89.3c5.6-.7 11.3-.2 16.9.1l-.3 1c.7.3 1.2.4 1.7 1v.3c-.2.1-.5.2-.7.3 0 .4 0 .8.2 1.2.2.2.4.4.5.7.1.7.1.7-.4 1.2-2.7.4-31.6.4-33-.2-.4-.7-.4-1-.4-1.8.9-.1 1.4-.2 2.1-.9-.5-.1-1-.1-1.4-.4-.4-.2-.5-.3-.6-.8.7-.5 1.1-.4 2-.4.1-.2.1-.4.2-.6l-.5-.5c3.9-.8 9.5-.2 13.7-.2z" class="st6"/><path d="M74 92.2c10.3-.1 20.6-.4 31-.2 0 .4 0 .8.2 1.2-4.2.4-8.9.1-13.2.1-6.6 0-13.5.3-20.1-.2 1-.1 1.5-.2 2.1-.9z" class="st17"/><path d="M87.5 89.3c5.6-.7 11.3-.2 16.9.1l-.3 1c.7.3 1.2.4 1.7 1v.3c-.2.1-.5.2-.7.3-10.3-.2-20.7.1-31 .2-.5-.1-1-.1-1.4-.4-.4-.2-.5-.3-.6-.8.7-.5 1.1-.4 2-.4.1-.2.1-.4.2-.6l-.5-.5c3.9-.8 9.5-.2 13.7-.2z" class="st13"/><path d="M73.7 89.5c4-.8 9.6-.3 13.8-.2l-.2.9c.2.1.4.3.7.4-4.5.4-9.6.4-14 .1.1-.2.1-.4.2-.6l-.5-.6z" class="st17"/><path d="M87.5 89.3c5.6-.7 11.3-.2 16.9.1l-.3 1c-.8.5-13.9.2-16.1.2-.2-.1-.4-.2-.7-.4l.2-.9z" class="st17"/><path d="M78.8 64.3c1.9-.2 3.6-.2 5.4.6.3.1.5.2.8.4.3.1.5.3.8.5.2.2.5.3.7.5l.6.6c.2.2.4.4.6.7.2.2.4.5.5.7.2.2.3.5.4.8s.3.5.4.8c.1.3.2.5.2.8.1.3.1.5.2.8 0 .3.1.5.1.8v.8c0 .3 0 .5-.1.8 0 .3-.1.5-.2.8-.1.3-.1.5-.2.8-.1.3-.2.5-.3.8-1.2 2.6-3.3 4.1-5.9 5.1-1.7.2-3.4.1-5-.4-2.1-.7-3.9-2.3-4.8-4.3-1-2.1-1-4.9-.1-7.1 1.1-2.9 3.3-4.1 5.9-5.3z" class="st0"/><path d="M80.6 67.1c.6.4 1.1.9 1.4 1.5-.1 1-.8 1.3-1.4 1.9l.3.7c.9.6 1.6 1.3 2.3 2.1-.4 1.4-1.2 3-2.4 4l-.3-.1-.1-.6c-.6-.7-1.4-1.4-1.6-2.4.9-.5 3.1.4 4.2.7-1.1-1.2-3.1-2.7-3.5-4.2-.4-1.3.4-2.5 1.1-3.6zM204.4 73.4c2.7 1.6 5.6 2.9 8.4 4.5 3.9 2.2 7.5 4.8 11 7.7 2.5 2.1 4.2 5 6.7 6.9-.4.3-.7.6-1 1l.1.4c.8.1 1.6.2 2.5.3 5.6 8.3 10.2 16 12.7 25.8-3.3 0-10.7-.9-13.2 1.4-2 1.9-2.5 4-2.5 6.7v10.3c0 3.8-.4 7.8.3 11.6.3 1.7.9 3.7 2.1 5 2 2 6.4 2.2 9.1 2.2 3.8 0 7.7-.3 11.5-.3v7.7c-3.9 0-7.7-.2-11.6-.2-4.7 0-9.4.3-14.1.7-2.1.2-4.5.2-6.6.7 2.2-3.6 4.2-7.4 5.7-11.4h-.2c-2.1.1-10.4 4.4-13.3 5.5-15.6 5.7-32.9 6.4-49.3 4.3-7.8-1-15.1-3.1-22.5-5.6-2.7-.9-5.3-2.2-8-2.9-.7-.2-2.3-.7-2.9.1 0 0 0 .1-.1.1-.2-1.2-1.9-6-2.3-7.8-2.1-8.7-1.3-18.2 1.4-26.7.3-.8.5-1.6.9-2.3s.6-1.5 1-2.3c.3-.8.7-1.5 1.1-2.2.4-.7.8-1.5 1.2-2.2.4-.7.8-1.4 1.3-2.1s.9-1.4 1.4-2.1c.5-.7 1-1.3 1.5-2s1-1.3 1.6-1.9c.5-.6 1.1-1.2 1.7-1.8l1.8-1.8c.6-.6 1.2-1.1 1.8-1.7.6-.5 1.3-1.1 1.9-1.6.7-.5 1.3-1 2-1.5s1.4-.9 2.1-1.4c.7-.4 1.4-.9 2.1-1.3.7-.4 1.5-.8 2.2-1.2 12.3-6.2 27.5-7.2 40.5-2.6 3.2 1.1 6 3.3 9.2 4.4l.3-.3c2-5.1 1.3-14.8.5-20.1zm0 0c.8 5.3 1.5 15.1-.5 20 0 0 0 .1.1.1 1.2 1.7 7.4 5.4 9.5 7.5 2.8 2.7 5.2 6.1 7.1 9.4 6.2 10.4 9.1 21.7 7.3 33.8-.3 2.3-.9 4.5-1.5 6.8-.3 1.1-.8 2.3-.9 3.4-1.6 4-3.5 7.7-5.7 11.4 2.1-.5 4.5-.5 6.6-.7 4.7-.4 9.4-.7 14.1-.7 3.9 0 7.7.2 11.6.2v-7.7c-3.8 0-7.7.3-11.5.3-2.7 0-7.1-.1-9.1-2.2-1.2-1.3-1.8-3.3-2.1-5-.6-3.7-.3-7.8-.3-11.6v-10.3c0-2.7.5-4.8 2.5-6.7 2.4-2.3 9.9-1.5 13.2-1.4-2.5-9.8-7.1-17.5-12.7-25.8-.8-.1-1.6-.1-2.5-.3l-.1-.4c.3-.4.6-.7 1-1-2.5-2-4.2-4.9-6.7-6.9-3.5-2.9-7-5.5-11-7.7-2.8-1.6-5.7-2.9-8.4-4.5z" class="st8"/><path d="M198 117.7c2.3.1 11.7-.1 12.9 1.2.7.8.6 2.6.5 3.6-1.4 12.9-7.3 24.1-17.5 32.2-7.4 5.9-16.7 8.9-26 7.8-.4 0-.8-.1-1.2-.1 3 0 8.5-1.8 11.4-2.9 9.5-3.8 15.2-12.4 19-21.5 1.6-6.8 2.3-13.4.9-20.3z" class="st3"/><path d="m195.5 117.2.9.3 1.7.2c1.4 6.9.6 13.5-.9 20.3-3.9 9.1-9.5 17.7-19 21.5-2.9 1.2-8.4 2.9-11.4 2.9l-.9-.6c.1-.1.3-.2.4-.3 5.4-2.6 8.8-6.2 11.2-11.8.2-1.5.7-3 .9-4.5.4-2.8.6-5.7 1.1-8.5l1.1-.5c5.3-4.1 10-7.9 13-14.1.7-1.5 1.3-3.3 1.9-4.9z" class="st3"/><path d="m196.3 117.5 1.7.2c1.4 6.9.6 13.5-.9 20.3-3.9 9.1-9.5 17.7-19 21.5-2.9 1.2-8.4 2.9-11.4 2.9l-.9-.6c.1-.1.3-.2.4-.3 5.4-2.6 8.8-6.2 11.2-11.8.2-1.5.7-3 .9-4.5.4-2.8.6-5.7 1.1-8.5l1.1-.5c-.1 4.5-.5 9.3-2 13.6-.1.2 0 .1-.1.4-1.3 3.4-3.5 6.9-6.1 9.4 3.4-1 6.6-2.3 9.6-4.2 6.6-4 12-11.3 13.9-18.8 1.8-7.4 1.3-11.6.5-19.1z" class="st12"/><path d="M176.3 99.2c2.5 2.1 4.5 4.8 7.4 6.5 1.8-.4 16.4-1.8 17.5-1.1.3.2.3.4.5.7.2 3.8-5.1 8.7-6.3 12-.6 1.7-1.1 3.4-1.9 5-3 6.1-7.7 10-13 14.1l-1.1.5c-.5 2.8-.7 5.7-1.1 8.5-.2 1.5-.7 3-.9 4.5-2.4 5.5-5.8 9.1-11.2 11.8-.2.1-.3.2-.4.3-2.6-.7-5.7-2.7-7.9-4.3-5.4-3.8-8.6-9.1-9.7-15.6-.5-3.1-.9-6.1 1-8.8 4.1-3.4 8.8-5.8 13.3-8.5-1.8-1.9-3.7-3.7-5.9-5.1 3.5-4.7 7.4-8.6 11.5-12.8 2.6-2.8 5.1-5.7 8.2-7.7z" class="st3"/><path d="M164 155.3c0-.1-.1-.2-.1-.2-.4-.6-1.2-.5-1.8-.6-.7-.1-.8-.2-1.2-.8.1-.7 0-.8.6-1.3 1-.3 1.7-.1 2.6.1-.1.9-.2 1.8-.1 2.8z" class="st19"/><path d="M163.8 139.6c.2-.6.2-1.1.7-1.5l.4.3.1 1.1c1.2 1 2.5-.1 3.2 1.7-.1.6-.2.7-.7 1.1-.7.2-1.3.1-2 0l-.6-.3c-.7-.5-.9-1.5-1.1-2.4z" class="st5"/><path d="M164.1 148.3c-1.7 0-3.2-.8-4.5-1.9-.5-.4-.9-1-.8-1.7.1-2.8 3.3-3.4 4.9-4.9l.2-.2c.2.9.4 1.8 1 2.5l.6.3c-.8.8-.6 2.3-.8 3.4l-.4-.1c-.4.8-.1 1.7-.2 2.6z" class="st19"/><path d="m163.7 142.4.4.4c.1.6.2 1.3 0 1.9-.2.6-.2.6-.8.9-.6-.5-.9-.8-1.1-1.5.2-.8.9-1.2 1.5-1.7z" class="st3"/><path d="M164.1 148.3c.1-.9-.2-1.8.2-2.6l.4.1s.1 0 .1.1c1.8.8 4.2.7 5 2.9.3.9.4 2 0 2.8-1 1.8-4 2.1-4.7 3.8-.1.4-.3.6-.5.8l-.4-.2-.3-.8c-.1-.9 0-1.9.1-2.9l.1-4z" class="st19"/><path d="M164.1 148.3c.1-.9-.2-1.8.2-2.6l.4.1c.6 3.1.3 6.4.5 9.6-.1.4-.3.6-.5.8l-.4-.2-.3-.8c-.1-.9 0-1.9.1-2.9v-4z" class="st5"/><path d="M162.6 124.6c3 2.9 6.1 6.4 9.6 8.7-4.9-.1-9.8-.1-14.7 0-2.7 0-5.5.1-8.2-.1 4-3.5 8.8-5.9 13.3-8.6z" class="st7"/><path d="M176.1 108.9c.9.4 1.3 1.3 1.8 2.1 1.3.3 3 .4 3.8 1.5l-.1.7c-.1.2-.6.8-.7.9-.1.1-4.6-.4-5.4-.3-.6.1-1.4.5-1.7 1-.2.3-.1.4 0 .8 1.8 1.8 5.7 1.8 8 3.2.4.8.8 1.6 1.2 2.5-.3 1-.6 2-1 2.9-1.7 1.1-4 1.5-5.1 3.4l-.4.2c-1.1-.8-2.3-1.4-3.4-2.1-.8-.5-1.2-.9-1.5-1.8.3-.4.6-.8 1.1-.8.4 0 1.2.3 1.6.4 1.7.4 4 .1 5.6-.6l.2-.7c-1.3-2.1-5.7-2.5-7.8-3.9-.6-.4-1.5-1.1-1.6-1.8-.4-2.9 4-5.2 5.4-7.5v-.1z" class="st5"/><path d="M183.7 105.7c1.8-.4 16.4-1.8 17.5-1.1.3.2.3.4.5.7.2 3.8-5.1 8.7-6.3 12-.6 1.7-1.1 3.4-1.9 5-3 6.1-7.7 10-13 14.1l-1.1.5c-.3.1-.6.2-1 .3-.7.2-1.3.2-2-.2-1.2-.6-2.7-2.2-3-3.6-.1-.6-.1-.8.2-1.3.2-.1.3-.1.4-.1 1.4-.1 3.3 1.6 4.4 2.5 1-.2 2.1-.5 3.1-.9 4.8-1.9 9-6.7 11-11.4.5-1.3.7-2.8 1-4.2-2.2-6.1-5.4-8.1-9.8-12.3z" class="st6"/></svg>