<svg xmlns="http://www.w3.org/2000/svg" id="Слой_1" data-name="Слой 1" viewBox="0 0 350 280"><defs><style>.cls-2{fill:#6de3f6}.cls-3{fill:#00c3f8}.cls-4{fill:#087bd1}.cls-5{fill:#087ad1}.cls-8{fill:#0350b2}.cls-12{fill:#fcb827}.cls-14{fill:#03c4f8}.cls-22{fill:#04c4f8}.cls-41{fill:#0a79cf}.cls-50{fill:#fbb827}.cls-91{fill:#6ce2f6}</style></defs><path d="M15.94 155.91q-85.41 0-170.83.09c-3.39 0-4.11-.63-4.11-4.08q.18-135.84 0-271.69c0-3.15.27-4.23 3.95-4.23q171.08.19 342.16 0c3.09 0 3.84.65 3.84 3.81Q190.82 15.93 191 152c0 3.68-1.08 4-4.23 3.95q-85.41-.12-170.83-.04Z" style="fill:#fefefe" transform="translate(159 124)"/><path d="M238.79 106.14c8.21 2.57 15.75 6.53 23.21 10.78-2.71 9.89-1.11 20-1.49 30-.14 3.8.06 7.62-.39 11.41-.36 3.54 2 4.11 4.69 4.2 4.3.14 8.61-.08 12.91.11 5.1.23 6 1.37 5.85 6.33s-1.13 9.76-1.36 14.55c1.33-2.88 3-5.38 6.66-5.61 1.9 3.58 4.3 6.92 5.08 11-.94 1.18-2.3 1.27-3.61 1.28-15 .08-25.5 7.06-31.87 20.52-1.39 1.39-3 1.15-4.64.58-6.88-2.4-11.92-6.82-13.51-14.06a58.94 58.94 0 0 1-.75-17.23c1.88-2.12 4.6-.36 6.71-1.43 6.59-3.68 8.07-6.77 6.93-14.39-.09 5.55-.27 11-6.26 13.83a5.16 5.16 0 0 1-2.24.83c-4.26-.15-5.06-3-5.13-6.49-.16-7.64.37-15.3-.4-22.92.16-2.19 2.17-2.74 3.49-3.92 3.4-3 3.6-7.28.53-10.58a6.77 6.77 0 0 0-9.41.06 7.44 7.44 0 0 0 .36 10.36c1.16 1.16 2.92 1.67 3.64 3.33a11.08 11.08 0 0 1 .56 4.12v18.69c0 1.79.15 3.63-.83 5.27-3.73 2.76-7.89 1.76-11.9 1.16-2.4-.35-2.84-2.5-3-4.58-.16-3-.06-6-.09-8.93 0-4.08-1.48-7.4-5.1-9.56a13.11 13.11 0 0 0-8.42-2.47c-4.81 0-9.62.07-14.44-.05-2.89-.07-4.75-1.26-4.87-4.41-.11-2.87 1-4.66 4-5.33 2.59-.58 5.23-.9 7.76-1.69 7.35-1.3 12.88-5.19 16.05-12 2.11-4.52 4.73-7.46 9.9-9.38 5.59-2.04 9.76-7.08 11.38-13.38ZM80.1 124c6.76-2.61 11.19-8.55 17.37-12 5-2.85 9.74-6.21 15.44-7.64-1 8.06 2.34 13.48 10.63 15.59 4.65 1.18 5.76 5 8 8.13a5 5 0 0 1 1.06 1.69c4.26 7.73 11 11.51 19.64 12.06 2 .34 4 .73 5.22 2.52 2.34 3.39.33 7.56-3.88 7.91-3.47.29-7 .08-10.45.1-10.25.09-13 2.25-15.58 12.25-.61 3.77.71 7.74-1.15 11.38a4 4 0 0 1-1.55 1c-4 .38-8 1-11.84-.59-1.71-1.92-1.41-4.31-1.44-6.58-.08-5.12 0-10.23-.07-15.35 0-1.95 0-4-1.54-5.54-2.2-3.43 1.19-2.87 2.54-3.2 3.88-.95 5.67-3.41 5.49-7.17-.15-3.18-1.63-5.87-4.93-6.75s-6.25.39-8.26 3.2-1.5 5.72.36 8.34c1.52 2.14 3.82 3.68 4.89 6.21 1 7.62.63 15.27.32 22.88-.18 4.32-1.42 4.83-8.48 5h-1.82c-11.47-1.05-20.42-9.49-21.24-20.86-.7-9.62-.27-19.3-.13-28.95a4.46 4.46 0 0 1 1.4-3.63ZM149.81 252a109.73 109.73 0 0 1-48.44-19c-2.26-1.56-4.12-3.95-7.18-4.18a57.53 57.53 0 0 1-.9-13.3 7.7 7.7 0 0 1 3.83-3.72c9.63-5.19 13.24-13.69 13.62-24.11.11-2.85-1-6 1.76-8.37 4.1-1.15 8.22-.77 12.36-.31a4.17 4.17 0 0 1 1.53.94c1.83 3.63.78 7.53 1 11.3.16 3 0 6 0 9 .1 9 5.19 14.18 14.28 14.34 6.49.12 13 0 19.48 0 2 0 4-.23 5.82 1 2 2.58 1.29 5.56 1.24 8.44a5.65 5.65 0 0 1-.48 1.56c-4.31 3.12-8.1 6.67-9.59 12.06-5.36 3-7.61 7.81-7.65 13.82.02.19-.4.4-.68.53Z" class="cls-2"/><path d="M255.63 227.05a120.94 120.94 0 0 1-51.92 24.87c-1.49.33-3 .37-3.91 1.79-3.11-1.25-1-3.71-1.09-5.52-.24-3.35-1.05-5.31-3.92-8-5-4.7-8.21-11.21-13.54-16.08-2.73-2.5 2-9.22 6.43-9.42 6-.26 12-.07 18-.08 12.22 0 17.25-4.74 17.88-17 .25-4.82.21-9.66 0-14.48-.15-3 1.07-4.4 3.94-4.44 3.13 0 6.33-.64 9.34.8 2.19 2.37 1.63 5.36 1.43 8.07-.83 11.76 4.43 19.72 14.83 24.64 2.44 1.16 4.09 2.82 4 5.72-1.1 2.93.9 6.39-1.47 9.13Z" class="cls-2"/><path d="M258.3 159c1.25-11.78.33-23.6.48-35.4 0-2.92.63-5.16 3.18-6.69l10.3.14a2.32 2.32 0 0 1 3.48 0h44.4c9.07 0 10.35 1.38 9.55 10.36a18.94 18.94 0 0 1-.52 2.44c-3.66 4.66-9.14 7-13.63 10.62s-9.79 6.8-14.54 10.45c-1.45 1.11-3 2.12-5 1.53-4.3-4-4.77.4-6.14 2.82-2.92 4.63-7.06 6.55-12.53 6.21-4.26-.26-8.55-.06-12.82-.06a7.84 7.84 0 0 1-6.21-2.42Z" class="cls-3"/><path d="M70.07 252.92c-14.09 3.83-28.39-2-36.94-15.16-7.17-11-6.28-27.33 2.68-37.63 6-6.89 14-10.52 23.18-11.27a6.08 6.08 0 0 1 5.23-1c13 2.68 22.55 10.1 28.89 21.71a3.9 3.9 0 0 1 .35 1.94 2.52 2.52 0 0 1-2 1.92c-5.3 1.44-5.3 1.43-3.71 6.54-1.55 2.83-1.8 2.81-5.18-.5-5-5.84-8.35-13.08-14.63-17.89-3.9-2.09-8.09-1.21-12.17-1.21-2.06 0-2.75 1.35-2.93 3.27q-.48 5.18-.52 10.38c0 6.44-.72 7.07-7.1 7.21a10.45 10.45 0 0 0-2.8.17c4.22 5.26 9.24 9.54 13.73 14.3a69.9 69.9 0 0 0 5 4.9c.92 3.22 3.89 4.76 5.83 7.14 1.3 1.58 3.58 2.57 3.09 5.18ZM269.7 99.18c-13.57-.57-26-10.31-30.2-23.6a33.72 33.72 0 0 1 12.89-37.39c11.94-8.62 24.77-9.54 37.45-2.39 11.89 6.7 17.81 17.37 17 31.31-3 .16-4.81-1.94-6.49-3.76a104.49 104.49 0 0 0-8.34-7.57c-2.07-3-5.73-3-8.54-4.64-3.38-6.65-11.44-8.84-18.15-5.25-2.36 1.26-1.74 3.74-3.09 5.31a3.46 3.46 0 0 1-1.72 1c-5.21.84-6.76 4.2-6.26 9 .07 1 0 2 0 3.06v10.36c0 3.11.7 5.85 3 8 4.12 4.84 9.84 7.6 14.82 11.32a6.42 6.42 0 0 1-.52 4.49c-.4.69-.93 1.22-1.85.75Z" class="cls-4"/><path d="M255.63 227.05c.24-3.09-1.24-6.27.42-9.3 2.48-.53 5.88 2.35 7.32-2a4.74 4.74 0 0 0-3-4.44 4.7 4.7 0 0 1-2.25-1.25c3.2-11.3 15.88-20.68 28.36-21l7.43-.16c18.71 4.61 28.55 16.75 27.67 34.12a3.9 3.9 0 0 1-.89 2.73c-4.17-1.29-5.26-5.6-8-8.3-1.63-1.6-2.94-3.55-4.79-5a34.16 34.16 0 0 1-3-4c-5.62-7.22-13.37-8.52-21.57-6.85-7.48 1.52-12 6.9-14 14.15-2.28 8.22.3 15 6.57 20.56 1.24 1.1 2.67 2 3.52 3.48a12.42 12.42 0 0 1 .64 1.26c2.07 3.29 4.45 6.23 8.22 7.69a8 8 0 0 1 1.91.74c2 1.76 4.28.78 6.48.79.9.35 2 .58 1.25 2-16.34 5.88-34-3-40.79-20.57-.52-1.52-.98-3.09-1.5-4.65Z" class="cls-5"/><path d="M92.9 212c-7-14-17.83-22.43-33.91-23.14l-.09-17.16c.92-2.39 3.1-1.92 4.94-2.09 3.2-.28 6.45.3 9.62-.42 2.1-2 1.27-5 2.34-7.42a4.1 4.1 0 0 1 1.12-1.9c2.3-.12 2.4 1.94 3.09 3.27 4.38 8.43 10.68 14.17 20.54 15.09 10.8 1.38 10.89 1.39 9.86 12.55-.84 9-5 16-12.92 20.65-1.49.86-2.9 1.72-4.59.57Z" class="cls-2"/><path d="M258.3 159c8.13 2.08 16.39.89 24.58.73 3.4-.07 4.22-4.43 7.06-5.82a9.66 9.66 0 0 1 5.91-1.9c7.24-2.74 12.52-8.47 18.91-12.51 4.89-3.08 9.19-7 14.41-9.65 1.51 10.21.53 20.46.49 30.69 0 3.27-2.81 3.68-5.44 3.69-6.47 0-12.94.08-19.41 0a5.73 5.73 0 0 0-5.07 2.18c-3.42 4-7.25 7.71-10.91 11.53l-7.69 7.15c-.77-6.07.73-11.37 1.2-16.65.34-3.67-.7-4.37-3.83-4.3-4.65.11-9.31-.13-14 .08-3.8.16-5.99-1.22-6.21-5.22ZM198 262.72l-45.75.13c-.79 0-1.69.11-2-.94 1.48-5.23.71-10.58.71-15.88 0-3.56 1.25-5.12 4.87-5.23q19.18-.63 38.37 0c3.62.11 5.3 1.71 4.76 5.24-.87 5.53 1.14 11.22-.96 16.68Z" class="cls-4"/><path d="M-82.73-19.56a29.88 29.88 0 0 1-16.16-4.56c.66-4.29 5-8.28 9.59-8.81a5.35 5.35 0 0 0 1.73.62c3.1-1.42 3.08-5.54 6.1-7 3.9.4 6.37 3.38 9.38 5.35s4.4 1.39 5.28-2c2.3-8.84 5.19-17.5 7.63-26.3.62-2.24 1.15-4.51 2.71-6.36 2.43-2.17 4.83-4.48 8.45-2.3 9.89 20.92-2.75 46.05-25.38 50.4-1.79.35-3.6.59-5.4.88a1.54 1.54 0 0 1-.58-1.15c-.1-1.1 1.1-2.92-1-2.93-1.49 0-.93 1.71-1.09 2.74a1.53 1.53 0 0 1-1.26 1.42Z" style="fill:#1163ba" transform="translate(159 124)"/><path d="M-116-46.91c-3.87-14.18.16-26.3 10.85-35.73 10-8.84 21.87-11.83 35-7.21-1.57 5.69-6.34 8.75-10.38 12.28-5.11 4.46-9.76 9.41-15.1 13.61a7.09 7.09 0 0 0-2.85 4.52c-2.23 2.54-5.56 2.61-8.44 3.51s-2.54 2.26-1.6 4.23c-1.57 3.13-3.34 5.83-7.48 4.79Z" style="fill:#207cd2" transform="translate(159 124)"/><path d="M253 64.05v-2.86c1.85-1.86 4.25-1.63 6.55-1.64 8.28 0 16.57-.2 24.84 0 3.89.11 6.74-.89 8.41-4.51 5.39 3.2 8.76 8.77 14.1 12 .1 15.49-12.9 30.54-27.77 32.18-2.71 1.05-3-1.56-4.14-2.77-1-.9-2.34-1.37-3.19-2.46-6-1.73-10.52-5.73-14.75-10.09 1.8-1.61 4-1.26 6.14-1.28 6.78-.08 13.55 0 20.32-.06 3-.05 6.2-.2 7.46-3.64a16.18 16.18 0 0 0-.11-12.1c-.51-1.21-1.89-1.19-3-1.26-2-.12-4 0-5.94-.31a51 51 0 0 0-18.14 0c-3.68.15-7.43 1.22-10.78-1.2ZM70.07 252.92c-2.44-2.61-4.93-5.19-7.33-7.84-1-1.11-2.92-1.91-1.7-4-.82-1.59.31-2.62 1.28-3.36 6.78-5.13 12-12 18.51-17.31a8.93 8.93 0 0 1 2.22-1.41c1.52-.53 1.89 4.2 4 .87 2-2 3.55-4.56 7-4 .72 4.29 1.19 8.57.15 12.88-3.67 12.46-10.75 21.45-24.13 24.17Z" class="cls-8"/><path d="M39 138.72c0-5.48-.16-11 0-16.46.11-3.12-.73-4.45-4.15-4.41-12.64.16-25.28.12-37.92 0-3 0-3.87 1.07-4.07 4.05-.35 5.34 1.81 11-1.65 16l-.4-9.9c.06-2.13.2-4.27.16-6.4 0-3.16-.6-6.54 4.49-5.79 2 .3 1.3-3.06 3.41-2.93l.62.38a4.54 4.54 0 0 0 3.15 1.29h25c2.85 0 3.44-1.22 2.32-3.79-2.16-4.94-8.87-8.79-14.78-8.29-1.81.16-3.58.8-5.44.54a3 3 0 0 1-2-1.2 2.91 2.91 0 0 1 .42-.89c.84-2 2.77-2.09 4.49-2.54s3.51-1.1 4-3.16a1.35 1.35 0 0 0-1.14-1.82 3.84 3.84 0 0 0-4.74 2.48 1.38 1.38 0 0 1-1.6 1C7.63 95.59 9.33 93.39 8 92c-8.31-.06-16.62-.1-24.93-.17-10.48-.08-15.92-5.38-16.11-15.92-.12-6.65 0-13.29.08-19.94 3.59-.77 3.26 2 3.32 4 .17 5.47.5 10.94.15 16.4.67 8.73 3.77 12 12.48 12.07q33.39.28 66.79 0c7.87-.07 12-3.44 12.36-11.32.65-12.92 1.2-25.89-.66-38.79-.36-2.56-1.84-4.61-2.65-6.95a1.55 1.55 0 0 1 .44-1.61c4.07 1.14 4.48 4.87 5.62 8a12.38 12.38 0 0 1 .2 2.46c.56 4.07-1.61 9.18 1 12s7.84.24 11.86 1a1.66 1.66 0 0 1 0 2.62c-4 .51-9.52-1.81-11.8 1.13-1.93 2.48-.37 7.65-.41 11.63a62.1 62.1 0 0 1-.5 9.91c-1.45 8.43-6.12 13-14.62 13.31-7.29.27-14.62.43-21.89 0-4.94-.26-4.21 3.67-5.61 6.11-1.78 3.1 1.34 3.2 2.7 4.05a18.16 18.16 0 0 1 7.43 8.43c1.17 2.75 1.42 6.24 6 5.76 1.48-.15 1.49 1.91 1.51 3.23.06 3.43.08 6.86.11 10.28-.87 2.99 1.81 6.64-1.87 9.03Z" style="fill:#0657b7" transform="translate(159 124)"/><path d="M-99-60c-1-4.07 2.83-5.13 4.81-7 8.12-7.52 17-14.23 24-22.93 6.41 2.08 12.29 5 16.73 10.29 2.21 2.64 4.49 5.23 5.47 8.64-3.16-.45-5.51 1.2-7.81 3-.87-3.74-2.85-4-6.33-2.85-10.75 3.47-21.47 7.05-32.2 10.59-1.54.56-3.07 1.69-4.67.26Z" style="fill:#1b72c8" transform="translate(159 124)"/><path d="M150 87.9c4.71 3.93 7.66 9.35 11.65 13.88-.27 11.62-11.19 24.37-22.71 26.5-.29-1.07-1.12-1.27-2.06-1.32-2-.24-4.19.48-6-.95l-2-.09c-3.31-2.29-5.59-5.74-8.91-8v-1.16c1.55-1.19 3.18-.49 4.77-.18 15.21 3 27.22-8.56 24.91-24-.26-1.58-1.12-3.25.35-4.68Z" style="fill:#0450b2" transform="translate(159 124)"/><path d="M75 170c-2.71 2.32-5.92.68-8.87 1.13-2.4.37-4.92-.6-7.26.6-11.58-1.21-23.21 0-34.8-.79-.75-2.62 1.11-4 2.66-5.47 3.32-2.12 5.74-5.22 8.58-7.86 1.41-1.3 2.58-3 4.73-3.18 6.17 5.15 12.4 5.82 18.7.22 2.59.82 3.92 3.17 5.86 4.77 3.29 3.4 6.64 6.74 10.1 10Z" class="cls-12"/><path d="M-116-46.91c3.21-.59 5.19-2.91 7.25-5.13 2.11-1.43 3.65-.37 5.07 1.17 2.63 4.69 7.89 5.76 11.87 8.61 1.4 3.3 4.46 6.18 2.61 10.31-4.73.75-7.32 4.13-9.65 7.83C-108-29.15-114-36.53-116-46.91Z" style="fill:#1a72c7" transform="translate(159 124)"/><path d="M172.84 45.32a16.44 16.44 0 0 1-9.14-3.47c-5-4.07-6.64-10.37-4.15-15.56 3.1-6.47 11-10.39 17.89-8.82 7.37 1.66 12 6.09 13.23 13.68-2.63 1.12-4.47-.74-6.54-1.74A14.61 14.61 0 0 0 177 23.5c-3.81-1.71-9.38 1.68-10.17 6 .17 4 .75 7.8 4.62 10.1 1 1.51 2.35 2.69 3.45 4.1.52.67.76 1.53 0 2.17s-1.41-.18-2.06-.55Z" class="cls-14"/><path d="m27.09 166-3 4.95c-1.6.35-2-.53-2-1.9 0-10.36.06-20.73.14-31.1 0-.4.49-.8.75-1.19l.64.25c5.61 5.31 12.55 9.39 15.77 16.93A116.81 116.81 0 0 1 27.09 166Z" class="cls-12"/><path d="M-78.94-20.74c0 .37.09.73.14 1.1q0 9.81-.1 19.6c0 9.45-.09 18.9 0 28.35.06 13.47 6.78 21.45 20.16 24.06a2 2 0 0 1 .26 2.25L-59 55c-10.08-.2-16.08-6.24-20.58-14.4-.86-1.56-1.5-3.24-2.25-4.86-.24-.23-.66-.43-.69-.68C-83.53 24.7-84.56 14.3-82 4c-.32-7.84 1-15.73-.71-23.53l.77-1.26a1.84 1.84 0 0 1 3 .05Z" style="fill:#03c4f7" transform="translate(159 124)"/><path d="M-27.54 5c-2.93-5.17-7.62-8-13-10.07-1.36-.54-2.27-2.23-3.7-3.15-5-3.21-5.44-6.54-1.86-11.48l5.9-3.42c2 2.19.1 4.32-.16 6.45-.31 2.62.1 4.53 3.08 5.14 3.2.65 3.94-1.26 4.35-3.81a31.11 31.11 0 0 0 .58-5.85c0-1.66-.53-2.52-2.41-2-1.43.41-2.82 1.05-4.38.87a2.78 2.78 0 0 1-1.11-.77 5.68 5.68 0 0 1 5.19-3c4.24 0 5.8-2.7 7.29-5.8a.94.94 0 0 1 1.34.57c.67 1.85-.12 3.55-.5 5.31-2.07 9.73-2.6 19.52-.27 29.33A3.25 3.25 0 0 1-27.54 5Z" style="fill:#0753b4" transform="translate(159 124)"/><path d="M13.84-78.68c.48-.31 2.52 1 1.33-.9-.86-1.41-2.92-2-3.16-4.07 1-1.07 2.19-.48 3.31-.58 6.86-.9 7.45-1.56 9-10.13a1.33 1.33 0 0 1 1.11-.74l6.26 2.25c-.19 6.58-3.49 11.62-10 13.56-3.37 1-4.3 2.63-3.78 5.58.73 4.18-1.67 8.44.4 12.55-3.75 2.57-3.47-.73-4.06-2.78Z" style="fill:#0e7ed2" transform="translate(159 124)"/><path d="M79.79-17.86c.42 5.7-6.57 14.75-12.86 15.73-3.17.5-4.44 1.87-5.51 4.57A24.89 24.89 0 0 1 44 18.05a1.65 1.65 0 0 1-.45-1.4c.52-1.6 1.94-2.15 3.26-2.8C56.19 9.26 60.65 1.63 60.7-8.72a12.07 12.07 0 0 1 .61-4.38c.7-1 1.12-2.5 2.89-1.81a6 6 0 0 1 1.11 2.21c.64 2 2.07 2.47 3.93 2.14s2-1.82 2.36-3.35c.56-2.71-1.43-6.11 2.09-8 2.09 1.25 4.48 2.07 6.1 4.05Z" style="fill:#0658b7" transform="translate(159 124)"/><path d="m63.92-15-1.79 2c-1.44-1-1.36-2.57-1.47-4-1.92-26.73-24.9-42.18-47.1-41.64-.49 0-1 0-1.49-.05-1.25-.3-2.82-.14-3-2 1.9-.77 5.15.58 5.13-3.24.94 1.53 1.42 3.73 4.06 2.78C38.47-59.64 52.9-49.89 60.6-31c1.23 3 2.36 4.74 5.84 4.54A5.78 5.78 0 0 1 71-24.77c0 .85-.51 1.2-1.23 1.37-1.74.78-5-2.31-5.29 2.11.39 2.16 1.34 4.37-.56 6.29Z" style="fill:#1062bc" transform="translate(159 124)"/><path d="M50.53 113.48c-.1 4-3.43 7.45-6.76 7.12-3.69-.36-6.25-2.25-6.26-6.34 0-3.77 3.5-7.42 6.92-7a6.55 6.55 0 0 1 6.1 6.22Z" class="cls-14"/><path d="m69.89-23.91 1.11-.86a4.69 4.69 0 0 1 2.68 2.83c-1.48 2.64-.66 5.51-.63 8.24 0 3.13-.47 4.86-4.26 4.85-3.51 0-5.45-.72-4.86-4.63a7.33 7.33 0 0 0 0-1.48c.44-2.47-.57-4.78-.82-7.17 2.64-1.8 5.19.08 7.78.21a1.64 1.64 0 0 1-1-1.99Z" style="fill:#087ad0" transform="translate(159 124)"/><path d="m-82 4 .21 31.8c-.1.84-.19 1.68-.29 2.52-2.64-1-2.2-3.46-2.29-5.5-.19-4.3 0-8.61-.11-12.91 0-1.74.46-3.71-1.36-5-14-.68-28-.1-42.06-.29-2.63 0-5.31.18-7.59-1.58a.39.39 0 0 1-.5-.29c7.07-1.3 14.2-.31 21.3-.56a71.61 71.61 0 0 1 11.44.05C-94.6 13.29-87.28 11.42-82 4Z" style="fill:#76e6f7" transform="translate(159 124)"/><path d="M329.51 185.54c-.15 3.22-2.62 5.05-6 5.28s-5.65-1.82-5.79-5.38 1.6-6.07 5.35-6.52c3.43-.42 6.27 2.32 6.44 6.62Z" class="cls-22"/><path d="M78.27-92.54c-.46 3.17-2.16 5.55-5.69 5.38a5.59 5.59 0 0 1-5.72-6.13 5 5 0 0 1 5.39-5.27c3.58.01 5.75 2.1 6.02 6.02Z" style="fill:#05c4f8" transform="translate(159 124)"/><path d="M9.07-60.7c.84 1 2 .68 3.08.84 0 1.33-1 1.64-2 2-15 1.91-25.88 10-33.69 22.68-.85 1.37-1 3.71-3.61 3.25l-.32.05h-.31C-22-47.15-10.58-55.84 4.73-60a41.76 41.76 0 0 1 4.34-.7Z" style="fill:#216bbf" transform="translate(159 124)"/><path d="M116.81-28.88c1.82.79.53 4.1 3.32 4.1-2.59.59-3.57 2-3.38 4.84.29 4.3 0 8.63 0 13h-3.48c.16-4.3.2-8.61.51-12.91.18-2.53-.76-4.1-3.07-5l1.35-1.32a11 11 0 0 0 4.75-2.71Z" style="fill:#1e86d5" transform="translate(159 124)"/><path d="M157-28.47c-.19 2.95-1.84 4.6-4.78 4.56-2.72 0-4.33-1.6-4.27-4.44s1.71-4.65 4.68-4.65c2.71.09 4.22 1.7 4.37 4.53Z" style="fill:#6fe4f6" transform="translate(159 124)"/><path d="M-55.55 122.81c3.22-.13 3.95 2.23 4.1 4.54.19 2.88-2.11 4.2-4.46 4.19A3.89 3.89 0 0 1-60 127c.18-2.72 1.85-4 4.45-4.19Z" style="fill:#71e4f6" transform="translate(159 124)"/><path d="M-29.37-76.51c4.59-.2 4.18-4 5.43-6.57 2.65 1.93 1.05 7.09 6.49 6.27-4 1-4.87 3.76-5.85 6.8-2.03-2.38-1.59-6.36-6.07-6.5Z" style="fill:#2fcef9" transform="translate(159 124)"/><path d="M75.16 137.67c-1.9-3.87-2.45-7.39-6.86-7.4 4.19-.56 5.41-3.31 5.89-7.62 2.08 3.39 1.94 7.56 6.58 7.06-1.17 2.41-3.64.77-4.42 2.17-.67 1.22-.63 2.83-1.19 5.79Z" style="fill:#24ccf9" transform="translate(159 124)"/><path d="M43.94 16.85v1.2a63 63 0 0 1-8.19 1.7C32.86 20 31.92 21 32 24c.05 3.5 2.21 3 4.31 3 5.12 0 10.25-.11 15.36 0 2.75.07 5.64.19 7.6 2.7L59 30c-5.14 1.54-10.38.14-15.56.49a64.8 64.8 0 0 1-8.36 0c-6.47.54-12.83-.94-19.29-1-12.25-.14-24.45.77-36.66 1.1a12.94 12.94 0 0 0-6.91 4.76c-.4.52-.84 1-1.25 1.54-1 1.08-.86 3-2.55 3.59a1.35 1.35 0 0 1-1.21-.48c2.32-10 6.06-13 16.26-13 3.5 0 7 .07 10.48 0 1.81 0 4.12.8 4.29-2.53.15-2.95-.48-4.87-3.78-5.07A21 21 0 0 1-8 19a1.14 1.14 0 0 1 .51-1.57 7.51 7.51 0 0 1 4.37-.69c14.29 1.23 28.55 1.45 42.79-.65 1.5-.26 3.01-.34 4.27.76Z" style="fill:#0452b4" transform="translate(159 124)"/><path d="M77.89 55.83v-2.62l.06-25.27c3.4-.86 2.91 1.73 3 3.54.14 5.08.18 10.18 0 15.26-.1 3.11.67 6.17.21 9.27.78 4.24.66 8.52.76 12.8a19.18 19.18 0 0 0 15 18 2.37 2.37 0 0 0 2.24-.74l2.85.11c.23 2.64 1.85 4.35 3.88 5.79-2.06 4.9-5.21 4.45-8.8 1.78-.25-1.46-.32-3-2-3.66-14.94-5.66-18.68-17.32-17.21-31.79.12-.82.01-1.65.01-2.47Z" style="fill:#06c0f5" transform="translate(159 124)"/><path d="M78.07 24.38c-8.14-1.81-8.14-11.45-3.28-15.25a7.86 7.86 0 0 1 11 1.67c3 3.88 2.65 8.77-.87 11.6A23.11 23.11 0 0 1 81 24.49a2.74 2.74 0 0 1-2.93-.11Z" style="fill:#fbb928" transform="translate(159 124)"/><path d="m78.07 24.38 3 .11c1.71 8 .58 16.08.72 24.12.06 3.76 1.19 5.63 5.11 5.22a1.66 1.66 0 0 1 1.38 1.39c-2.25 1.39-4.77.37-7.12.79-2.27-5.37-.6-11-1-16.49-.21-2.77 0-5.57 0-8.36 0-1.56-.07-3-2.1-3.22-.06-1.19-.06-2.37.01-3.56Z" style="fill:#2588c4" transform="translate(159 124)"/><path d="m88.23 55.22-1.38-1.39 1-1c4.38-1 5.37-4.29 5.6-8.16.16-2.58-.73-5.24.5-7.75 4.66 5.21 1.57 15.08-5.72 18.3Z" style="fill:#1873c3" transform="translate(159 124)"/><path d="M94 37c0 3.09.17 6.19-.08 9.25-.29 3.63-1.46 6.76-6 6.66 4.19-2.29 5.25-6.1 4.92-10.48-.18-2.01-.69-3.97 1.16-5.43Z" style="fill:#03c1f6" transform="translate(159 124)"/><path d="M202.94 140.85c-17.26 3.15-34.58 2.62-51.94.91-8.39-.61-14.54-4.78-18.8-11.91l-.74-.85a1.35 1.35 0 0 1-.2-.85c-1-7.94-1.32-16 0-23.81 3.59-21.7 17.34-33.91 38-39.24l1.89-.93A48.31 48.31 0 0 1 203.32 74c12.23 9.18 17.68 21.87 17.81 37-.49 4.75.14 9.54-1.67 14.24-3.06 7.99-9.27 12.28-16.52 15.61ZM135.68 154c5.62-2.52 11.72-1.41 17.5-1.69a269.35 269.35 0 0 1 40.66.78c3.09 6.68.84 13.16-1.69 19.12-8 18.95-23 28.93-43.09 32.06-7.42 1.16-14.54 1.11-21-3.4 0-5.73-.06-11.47-.19-17.2 0-1.45.78-3.51-1.86-3.74l-1-.21a2.67 2.67 0 0 1-1.45-.94 2.23 2.23 0 0 1 0-1.72c.36-.49 1-.66 1.38-1.07l1.06-.15c.43-.38.61-1 1.27-1.17s1.34.59 2.1.32c.91-4.35-.26-8.81.79-13.13 1-5.71 5.4-7.12 10.38-7.64-1.69.22-3.26 1.09-4.86-.22Z" class="cls-3"/><path d="M94 215.91c-2.61.82-4.06 3.67-7 4-1.37-1.91-2.83-3.91-1.6-6.31 1.35-2.66 3.62-1.29 5.66-1 .56.1 1.22-.41 1.84-.64a23.93 23.93 0 0 0 16.1-20.54c0-.66 0-1.32.1-2 .87-8.58.88-8.58-7.84-9.71A4.1 4.1 0 0 1 100 179l.08-.11c1-1.06 2.36-.91 3.66-.92-1-.31-2.5.15-2.55-1.64 7.87-.67 7.89-.67 7.87-8.66 0-6.6-.06-13.21-.09-19.81 2.83-.23 4.1.78 4 3.91-.2 8-.07 16.07-.07 24.1a4.27 4.27 0 0 1-.76 4.16c-.1 6.74.6 13.57-2.52 20-2.67 5.46-6 10.15-11.75 12.86-1.42.69-3.04 1.41-3.87 3.02Z" class="cls-22"/><path d="M-50 23.89c-7.32-2.15-9.32-11-3.44-15.62 3.13-2.42 6.44-2.8 9.69-.85a8 8 0 0 1 4 9.35c-.94 3.87-3 6.66-7.51 6.49-1 0-2-.27-2.76.66Z" style="fill:#fab928" transform="translate(159 124)"/><path d="M-26.79 5.85A37.38 37.38 0 0 0-8 17.76v1.2c-7.79-.44-13.48-4.7-18.42-10.22C-27 8-28.21 7-26.79 5.85Z" style="fill:#156ec2" transform="translate(159 124)"/><path d="M-46.86 56.09c0-1.44-.55-3 .76-4.16L-34 52l-1 1c-1.68 1.56-3.78.72-5.53 1 1.78.22 3.88-.58 5.6.94l1 .82Z" style="fill:#3c9ad5" transform="translate(159 124)"/><path d="M-57.79 52.36c2.31 1.4 5.24-.51 7.85 1.59-3 2.06-6.07.89-9 1 0-.85.07-1.7.11-2.55Z" style="fill:#0148af" transform="translate(159 124)"/><path d="m-31.79 51.08-1.18.8.18-11.88h.9a11.65 11.65 0 0 1 .1 11.08Z" style="fill:#0451b3" transform="translate(159 124)"/><path d="M167 216c1.68.83.43 2.84 1.55 4a5.93 5.93 0 0 1 8.09-3.88 1.37 1.37 0 0 1 .8 2c-.7 1.72 0 4.19-2.69 4.86s-5.08 1.35-7.62 2C167.06 222 167 219 167 216Z" class="cls-41"/><path d="M7.68 101.83 10 102c-3.73 3.61-6.88 7.81-11 11h-.1c.24-5.9 3.62-9.24 8.78-11.17Z" style="fill:#1b5dad" transform="translate(159 124)"/><path d="M132.38 3.14a30.91 30.91 0 0 1 19.67 7c1.09.87 2.73 2.17 1.53 3.69-1.6 2-2.54-.42-3.45-1.16-10.62-8.53-22.5-8.61-33-.1-1 .79-1.94 2.39-3.28 1-1.79-1.86.67-2.54 1.49-3.33 5.11-5.02 11.71-6.36 17.04-7.1Z" style="fill:#f3fbfd" transform="translate(159 124)"/><path d="M131.58 10.42c6.85.07 11.78 1.14 15.66 5 .69.69 2.21 1.38.79 2.76-1.09 1.06-1.76.47-2.85-.32-8.5-6.16-14.87-6.12-22.87 0-1.08.82-2.07 2-3.31.51s.37-2.11 1.12-2.78a20.13 20.13 0 0 1 11.46-5.17Z" style="fill:#eefafd" transform="translate(159 124)"/><path d="M133 17.36c2.71.39 5.54.73 7.92 2.4.87.6 2.18 1.28 1.24 2.74-.79 1.22-1.62 1.14-2.85.28-3.8-2.65-7.69-2.59-11.55 0-1 .71-2.29 1.83-3.26-.1-.84-1.69.94-1.79 1.67-2.47a11.66 11.66 0 0 1 6.83-2.85Z" style="fill:#ebf9fd" transform="translate(159 124)"/><path d="M136.85 28c-1.19 3-3.68 2.06-5.91 1.9-.07-2-.48-4.25 2.15-4.83 2.16-.46 3.37.86 3.76 2.93Z" style="fill:#e9f7fc" transform="translate(159 124)"/><path d="M-103.12 113.07c-5.33-5.38-10.95-10.47-16-16.81 2.58-1.13 5.05-.76 7.33-.58 3.37.25 4.25-1.07 4.12-4.26-.18-4.28.14-8.59.24-12.88 0-1.14-.25-2.37.91-3.16 1.62-1.1 14.6.16 16.6 1.59 2.18 3 1 6.34.63 9.56-.26 2.46 0 5-.38 7.39-2.81 6.9-7.22 12.82-11.66 18.71a1.46 1.46 0 0 1-1.79.44Z" style="fill:#fcfcfd" transform="translate(159 124)"/><path d="m-103.12 113.07 12.28-18.31a17.18 17.18 0 0 1 10.51-.46c1.4.37 3.44.3 3.42 2.66l-21 20.12c-2.88.08-3.61-2.52-5.21-4.01Z" style="fill:#d7e6f2" transform="translate(159 124)"/><path d="M-76.91 97c-2.5-2.43-5.68-1.71-8.63-1.68-1.81 0-3.59.3-5.3-.52q.45-8.9.89-17.79c6.12 4.87 9.77 11.67 14 18a2.08 2.08 0 0 1-.96 1.99Z" style="fill:#0551b3" transform="translate(159 124)"/><path d="m253 64.05 11.4-.26c1.65 2.76 1 5.83 1 8.77 0 3.58 1.6 5 5.15 5 11.39.08 9.87 0 9.93-9 0-1.64-.08-3.34 1-4.78a8.93 8.93 0 0 1 2-.09c3.12.52 8.21-1.72 9 1.22 1.49 5.18 2.1 11.17-.55 16.47-1.36 2.73-4.4 2.58-7.06 2.58-9.28 0-18.57 0-27.85-.07-3.46-1.87-4.37-5-4.27-8.62s.18-7.48.25-11.22Z" class="cls-50"/><path d="M133.78-68.91c.9 4.58-.07 6.73-5.64 6.45-11.36-.58-22.77-.29-34.16-.35 0-8.44.68-9.19 9-10a4.75 4.75 0 0 1 2.34-1.28 132.06 132.06 0 0 1 16-.15 4.74 4.74 0 0 1 3.31 1.18c3.37.77 7.5-.26 9.15 4.15Z" style="fill:#fab827" transform="translate(159 124)"/><path d="M105.27-72.84H103c-.67-4.5 1.5-6.69 5.78-7.54a26.86 26.86 0 0 1 9.83-.08c4.1.68 6.62 2.8 6.09 7.37l-2.5.09c-4.96-5.19-11.41-5.12-16.93.16Z" style="fill:#63d8f2" transform="translate(159 124)"/><path d="M116.81-28.88c-.47 2.86-1.69 4.41-4.76 2.74a4 4 0 0 1 .75-3.86c1.61-.6 2.8.3 4.01 1.12Z" style="fill:#6fe6f7" transform="translate(159 124)"/><path d="M309 211.9c2.19 8.38 2.17 16.34-4.21 23.19-6.24 6.7-13.71 8.8-22.51 6.3-1.09-.31-2.24-.44-3.37-.66-5.15-4.22-10-8.51-11.3-15.67-1.78-9.73 3.64-20.52 12.54-24.06 10-4 21.19-.5 26.73 8.21a33.82 33.82 0 0 0 2.12 2.69Z" class="cls-12"/><path d="M264.85 216c-3.59-.4-6-1.58-3.88-5.8 2.24 1.27 3.91 2.95 3.88 5.8Z" class="cls-2"/><path d="M120 117.89c4.06 1.47 6.29 5 8.91 8-4.16-1.36-6.34-4.89-8.91-8Z" style="fill:#2a73ac" transform="translate(159 124)"/><path d="M130.91 126c2 .17 4.24-.88 6 .95-2.21 1.05-4.48 2.37-6-.95Z" style="fill:#2677b3" transform="translate(159 124)"/><path d="M75 136.94c2 1.46.9 3.59 1 5.39.51 6.64-.83 13.36.84 20-1.43 2.36.47 5.54-1.87 7.68-4.21-3.19-7.52-7.31-11.36-10.89-1.56-2-4.28-3.11-4.41-6.12 4.1-6.56 9.8-11.44 15.8-16.06Z" class="cls-50"/><path d="M55.35 73.81c-1.41-1.46-3.27-1.68-5.14-1.85l-4.44-2.52L60 64q18.87-6.21 37.73-12.41c6.6-2.17 6.61-2.15 5.46 4.44-3.89 12.64-7.77 25.28-11.71 38.11-5.14-2.19-8.89-6.75-14.14-8.83-2.14-.18-3.49-1.79-4.64-2.58-.44 3.36.55 7.12-1.59 10.56l-1.33-1.28c-1-3.42-1.74-6.91-3.65-10-1.7-3.11-3.86-5.59-7.64-6.19a3.76 3.76 0 0 1-3.14-2.01Z" class="cls-12"/><path d="M-87.91-30.67c.16-3.86-.63-7.83 1.37-11.59a8.28 8.28 0 0 1 4.86 3.61c-1.16 3.23-3.35 5.78-5.53 8.33a.42.42 0 0 1-.41 0 1.65 1.65 0 0 1-.29-.35Z" style="fill:#f48208" transform="translate(159 124)"/><path d="m-78.94-20.74-3-.08c-1.48-1.57-1.81-3.18.12-4.56 1.26-.9 2.53-.38 3.56.62 1.64 1.62.83 2.89-.68 4.02Z" style="fill:#67dbf2" transform="translate(159 124)"/><path d="M122.47-60.21c.15 4 .27 8 .45 11.92.11 2.47-.82 3.81-3.48 3.45a4 4 0 0 0-.49 0c-14.09 0-14.09 0-13.55-15.36a67.26 67.26 0 0 1 17.07-.01Z" style="fill:#fafbf8" transform="translate(159 124)"/><path d="M128.06 200.9c16.15 5.43 31.12 2.14 44.78-7 14.31-9.59 21.78-23.17 21-40.76 8.05.1 16.16-1.14 24.16.86 4.76 4.4 4.66 10.44 4.89 16.1.38 9.62.29 19.27 0 28.9-.24 9.13-4 15.19-14.79 15-22.26-.31-44.53-.06-66.79-.11-8.95.02-13.2-4.26-13.25-12.99Z" class="cls-4"/><path d="M158 236.94c2.51-4.83 5.85-8.83 11-11 11.52-2.09 18.42 1.27 22.23 10.42 1.29 3.1.35 3.73-2.54 3.72-9.28 0-18.56 0-27.83.17-2.66.07-3.73-.63-2.86-3.31Z" class="cls-50"/><path d="m75 136.94-15.07 15.89c-.48.64-.12 1.65-.93 2.14a3.89 3.89 0 0 0-.86.45c-7.81 6.94-9.81 6.89-18-.44-.45-.27-1.07-.38-1.11-1.07-3.31-5-8-8.67-12.11-12.88-1.23-1.26-2.87-2.2-3.47-4Z" class="cls-41"/><path d="m-119.93 29.91 1.1 1.07q-4.94 4.65-9.9 9.3c-.9.84-1.54 2.23-3.18 1.68 3.52-4.48 7.84-8.17 11.98-12.05Z" style="fill:#486c8c" transform="translate(159 124)"/><path d="M-94.93 34.47c4 3.58 7.94 7.13 11 11.54-4.89-2-7.38-6.64-11-10a1.1 1.1 0 0 1 0-1.54Z" style="fill:#527186" transform="translate(159 124)"/><path d="M-94.93 34.47V36l-5.07-5c.07-.81-.18-1.77.93-2.13.25 2.67 3.07 3.5 4.14 5.6Z" style="fill:#868669" transform="translate(159 124)"/><path d="M-103.65-50.19c4.51 1.55 10.74.86 10.76 8.26-3.65-1-6.56-3.44-9.67-5.43-.84-.54-2.72-1.15-1.09-2.83Z" style="fill:#0b50b1" transform="translate(159 124)"/><path d="M7-94.9c-.41-.48-1.25-1.09-1.16-1.41.93-3.08 9.7-7 12.31-5.24s6.9 2 7.28 6.45a.79.79 0 0 0-.52.09 11 11 0 0 1-7.59 4.9c-4.07-.28-7.2-2.55-10.32-4.79Z" style="fill:#fafcfd" transform="translate(159 124)"/><path d="M7-94.9c4-.29 6.3 3.71 10.08 4-.23 2.71-.54 5.4-2 7.8-1.16.6-2-.53-3.06-.55C6.53-85.7 6.29-90.1 7-94.9Z" style="fill:#d8e9f4" transform="translate(159 124)"/><path d="M10.26-58.93c-6.92 3-13.92 5.79-20 10.65C-20.48-39.65-26.16-28.67-27-15c-.39 6.37.31 12.79-.76 19.14-4.34-10.2-2.3-20.5-.51-30.81.31-1.78 1.64-3.33 1.13-5.27 3.47-4.38 5.71-9.6 9.84-13.6 7.78-7.54 16.62-12.55 27.56-13.39Z" style="fill:#6be1f5" transform="translate(159 124)"/><path d="M-31-22c.45 3-.81 5.83-.84 8.74 0 3.14-1.76 3.61-4.12 3.24-2.56-.4-5.82.28-6-4-.16-3.25 1.87-5.93 1.84-9.07l1.21.16c2.52.63 5.44-1.33 7.91.93Z" style="fill:#097ad1" transform="translate(159 124)"/><path d="M116.1 109.69c-.64 1.23 1.11 3.87-1.55 3.67-1.78-.14-2.35-2.5-2.43-4.32s1.09-3.66 2.67-3.46c2.21.28.78 2.68 1.31 4.11Z" class="cls-5"/><path d="M-31-22c-2.67-.2-5.55 1.3-8-.93a57.22 57.22 0 0 1 5.64-1.61c1.8-.35 2.85.46 2.36 2.54Z" style="fill:#75edfa" transform="translate(159 124)"/><path d="M15.07-83.1c.08-2.75-1.07-5.81 2-7.8l7.82-4.1c.65 9.06-1.89 12.14-9.82 11.9Z" style="fill:#acab9f" transform="translate(159 124)"/><path d="M76.1-18.7c1.51.44 1.91 1.76 2.3 3s-.47 1.73-1.61 1.73c-1.64 0-1.82-1.16-1.8-2.39.01-.91-.34-2.06 1.11-2.34Z" style="fill:#00c0f6" transform="translate(159 124)"/><path d="M69.89-23.91c.32.89 1.71 1.4 1.25 2.48-.36.87-1.46.52-2.21.4-2-.3-3.89-.73-5.83-1.1 1.02-5.34 4.22-2.36 6.79-1.78Z" style="fill:#00c4f8" transform="translate(159 124)"/><path d="M4.41 27C1.8 27.24-.37 27 0 23.49c.17-1.6 0-4.13 2.37-3 2.24 1 6.74-1.55 6.65 3.74-.09 3.57-2.67 2.56-4.61 2.77Z" style="fill:#0879d0" transform="translate(159 124)"/><path d="M-27.87 38.14c0 4.44.11 8.88.07 13.32 0 1.73-.07 3.81-2.5 1.4-.94-5.68-1.32-11.34.62-16.92l.64-.88c2.68.16 1.24 1.88 1.17 3.08Z" style="fill:#d2e8f4" transform="translate(159 124)"/><path d="M-29.68 35.94q-.32 8.46-.62 16.92l-1.49-1.78q-.06-5.53-.1-11.07c1.39-1.01.24-3.38 2.21-4.07Z" style="fill:#11aeea" transform="translate(159 124)"/><path d="M-27.87 38.14c-.37-1 .27-2.45-1.17-3.08.69-3.06 3.59-3.61 5.72-5H-18c-4.17 1.63-9 2.36-9.87 8.08Z" style="fill:#9ddff5" transform="translate(159 124)"/><path d="M79.42 10.92c1.51.05 2.53.65 2.47 2.32-.07 2.06-1.33 2.92-3.22 2.74-1.62-.15-2.8-1.06-2.54-2.89s1.74-2.09 3.29-2.17Z" style="fill:#fde97d" transform="translate(159 124)"/><path d="M197.53 119.2h-3.49c-9.3-.19-12.72-3-13-10.65-.43-10 3.84-15.61 12.32-16.72a31.26 31.26 0 0 1 10.35.08A15 15 0 0 1 214.59 113c-1.78 3.95-5.05 5.62-9.08 6-2.64.22-5.32 0-8 0ZM153.08 119h-4.48c-8.18-.14-13-4.5-13.48-12.11a14.28 14.28 0 0 1 12.25-15 38.18 38.18 0 0 1 8.84-.45c11.88 1.18 14.67 13.38 11.47 21.9a8.53 8.53 0 0 1-7.68 5.54c-2.3.21-4.64 0-7 0Z" class="cls-8"/><path d="M-13.22 3.48h58.29v1h-58.29Z" style="fill:#0357b7" transform="translate(159 124)"/><path d="M-18.81 45.79A3.92 3.92 0 0 1-22.32 42c-.28-2.27 1.81-3.47 3.44-3.77a2.75 2.75 0 0 1 2.94 3c-.06 2.37-1.35 3.57-2.87 4.56Z" style="fill:#f2f4f9" transform="translate(159 124)"/><path d="M-12 40.87c1.43-1.78 3.1-3.06 5.3-1.33s1.12 3.38-.29 5c-3.6 1.16-3.82 1.01-5.01-3.67Z" style="fill:#eaeff7" transform="translate(159 124)"/><path d="M-34.93 54.93c-3.51-.16-7.07.55-11.54-.71 4.31-2.09 8-.86 11.47-1.21 0 .64.05 1.28.07 1.92Z" style="fill:#014ab0" transform="translate(159 124)"/><path d="M-27.28 62.21c-.37.95-.17 2.5-1.65 2.51-1.24 0-1.26-1.34-1.25-2.24s-.18-2.54 1.47-2.49c1.15.01 1.36 1.18 1.43 2.22Z" style="fill:#cef3fc" transform="translate(159 124)"/><path d="M-12 40.87c.7 2.54 1.45 5 5 3.63-.92 2.17-2.59 1.84-3.87.75s-2.91-2.38-1.13-4.38Z" style="fill:#2689d1" transform="translate(159 124)"/><path d="M-45.2 13.24c-.64 2.41-1.93 3.82-4.24 3.64-1.83-.14-3.31-1.4-3.14-3.15a3.79 3.79 0 0 1 4.16-3.41c1.82.06 2.76 1.5 3.22 2.92Z" style="fill:#fdf7e8" transform="translate(159 124)"/><path d="M105.27-72.84c-.31-2.76.85-4.24 3.66-4.74a43.48 43.48 0 0 1 10.32-.18c3.08.19 2.84 2.62 3 4.75-5.69.78-11.33.47-16.98.17Z" style="fill:#0452b5" transform="translate(159 124)"/><path d="M111.69-67.73c-1.48.12-2.63 1.63-4.19.76a1.39 1.39 0 0 1-.11-1.25c1.48-1.06 2.92-.78 4.3.49Z" style="fill:#fcd072" transform="translate(159 124)"/><path d="M127.83 107.79c-3.76-1.73-6.19-4.9-8.69-8-.76-.94-1.52-1.92-.56-3.08s2.21-.71 3.57-.27c2.52.81 3.17 5.64 6.68 3.58 2.19-1.29 3.46-4.09 5.58-5.6 2.86-2.06 4.29-7.63 9.6-4.44a3.16 3.16 0 0 1-.32 4.13c-4.27 4.63-8.52 9.29-13.48 13.21a3.09 3.09 0 0 1-2.38.47Z" style="fill:#fdfcf9" transform="translate(159 124)"/><path d="M127.83 107.79a106.23 106.23 0 0 0 14.08-13.57C143 93 144.13 91.8 144 90c3 1.72 1.94 4 .37 5.74-4.11 4.47-8.5 8.69-12.79 13-1.73 1.71-2.86.83-3.75-.95Z" style="fill:#f67d06" transform="translate(159 124)"/><path d="M118-52.11c-.78 2-2 4.18-4.31 4.08-1.8-.07-2.66-2.33-2.66-4.23 0-2.32 2.43-2.93 3.56-4.47 1.48 1.2 3.26 2.19 3.41 4.62Z" style="fill:#11c6f8" transform="translate(159 124)"/><path d="M34.57 76.2c7.68-2.28 15.58-1 23.4-1a1.52 1.52 0 0 1 1.48 1.66c-.05.85-.78 1-1.42 1H34.59Z" style="fill:#0351b3" transform="translate(159 124)"/><path d="M60.24 68c-2.15 3.06-4.16 3-6.13 2.95-4.8 0-9.6 0-14.4-.08-1 0-2.11-.32-2-1.64.12-.95 1.09-1.21 1.93-1.22C46.23 68 52.76 68 60.24 68Z" style="fill:#0353b5" transform="translate(159 124)"/><path d="M3.65 115.08c-1.16-4.69 1.7-6.72 4.1-8.9.27-.25 1.19.08 1.72.34.14.07.09 1-.15 1.3-1.71 2.27-3.5 4.5-5.67 7.26Z" style="fill:#fde678" transform="translate(159 124)"/><path d="M198.1 115.09a9.67 9.67 0 0 1-8.88-9.61c.23-5.07 4.86-9.55 9.72-9.4a9.8 9.8 0 0 1 9.23 10.32c-.17 5.2-4.59 9-10.07 8.69ZM150.53 115a9.64 9.64 0 0 1-9.37-9.68c.09-4.65 5.23-9.37 10-9.2 5.29.18 9.83 4.69 9.61 9.54a9.72 9.72 0 0 1-10.24 9.34Z" class="cls-91"/><path d="M115.53-52c-.29.32-.79 1.33-1.31 1.33a1.8 1.8 0 0 1-1.8-1.91 1.6 1.6 0 0 1 1.84-1.26c.91.05 1.62.32 1.27 1.84Z" style="fill:#71def6" transform="translate(159 124)"/><path d="M39.52-22.82c2.51.46 4.26 1.83 4.28 4.2a4.3 4.3 0 0 1-4.3 4.48 4 4 0 0 1-4.14-4c-.03-2.5 1.76-4.11 4.16-4.68Z" style="fill:#f7fcfd" transform="translate(159 124)"/><path d="M-3.83-18.67C-4-16.43-5-14.32-7.44-14.21s-4.54-1.12-4.69-4.05 1.51-4.35 4.14-4.51 3.85 1.5 4.16 4.1Z" style="fill:#f8fcfd" transform="translate(159 124)"/></svg>