<svg xmlns="http://www.w3.org/2000/svg" id="Слой_1" data-name="Слой 1" viewBox="0 0 350 280"><defs><style>.cls-1{fill:#fdfdfd}.cls-2{fill:#01abea}.cls-4{fill:#6ee3f8}.cls-5{fill:#fbb826}.cls-6{fill:#00c2f8}.cls-12{fill:#0551b2}.cls-19{fill:#3391d1}.cls-23{fill:#fbbd34}.cls-25{fill:#012e7d}.cls-30{fill:#14c8f9}.cls-36{fill:#0551b3}.cls-54{fill:#044fb1}.cls-66{fill:#0457b6}.cls-73{fill:#01c3f9}.cls-75{fill:#06c5f9}.cls-84{fill:#fdebc4}.cls-85{fill:#fdfcfb}.cls-91{fill:#fae94b}</style></defs><path d="M175 279.9q-85.45 0-170.91.1C.67 280 0 279.33 0 275.91Q.18 140 0 4.09C0 .67.67 0 4.09 0Q175 .18 345.91 0c3.42 0 4.09.67 4.09 4.09q-.18 135.91 0 271.81c0 3.43-.67 4.11-4.09 4.1q-85.45-.21-170.91-.1Z" class="cls-1"/><path d="M258.16 66.2v2.68c2.52 7.5 1.12 15.18 1.06 22.8-.53 1.93-.26 3.95-.58 5.91-1.94 3.93-2.44 8.15-2.74 12.41a29 29 0 0 1-5.63 14.77c-3.82 5.41-9.94 8-15.12 6.17-5.76-2.01-7.82-6.78-8.15-12.49 0-.64-.38-1.25-.31-1.5a63.78 63.78 0 0 1 .74 15.17c-.22 4.17 1.57 5.61 5.57 5.47 5.65-.19 11.31-.18 17 0 4 .13 5.67-1.44 5.61-5.54-.13-9.12-.35-18.26.9-27.35.18-1.29-.16-2.73 1.49-3.35 1.7-.28 3.13-.06 3.52 2-.21 21.47 0 42.94-.11 64.41 0 2.46.44 5-1 7.3-2.84 2.07-6 1.39-9.13 1.06s-3.54-2.64-3.6-5.13c-.14-6 0-11.94-.07-17.92 0-2 .21-4-.73-5.85-.8-1.67-2.36-1.58-3.84-1.6-11.72-.18-23.44-.13-35.17 0-1.6 0-3.36-.07-4.52 1.46-1.51 8.22-.7 16.49-.54 24.73.07 3.4 2.85 3.6 5.44 3.64 9.27.14 18.55-.16 27.82.15a5.91 5.91 0 0 1 2.43.72c1.66 3.11-1.64 3.2-2.78 4.62-2.34 2.16-1 5-1.32 7.49s.47 5.1-2.39 6.53a18 18 0 0 1-5.46.44H93.81c-2.29 0-4.69.37-6.79-1-1.77-2.14-1.29-4.72-1.29-7.16q-.07-32.83 0-65.68a22.65 22.65 0 0 0-.83-7.46c-1.38-12.21-.09-13.68 12.1-13.68h119.4c6.58 0 6.58 0 7.4-6.35 1.08-7.79.33-15.63.55-23.44.19-6.72.5-7 7-7h23.47c1.69-.03 4.09-.63 3.34 2.57Z" class="cls-2"/><path d="M66.05-29.81c0 7.84 0 7.84-8.18 7.84Q-3.49-22-64.86-22c-8.14 0-8.14 0-8.09 8.21 0 1.33.09 2.66.14 4 .74 3.29.31 6.62.32 9.92.08 23.1-.05 46.2.08 69.3 1 1.8 2.66 1 4 1q69.48.06 139 0c1.13 0 2.35.31 3.33-.58 0-3.65 0-7.3.11-10.94 0-1.32-.58-3.54 2.22-2.95a3.86 3.86 0 0 1 .52 2.73c-.85 10.3-.25 20.62-.34 30.93-.09 9.32-.15 18.64.07 27.95.41 2.09 1.57 4.05 1.16 6.29a2.85 2.85 0 0 1-3.08 2c-7.76.09-15.53.12-23.29 0a2.52 2.52 0 0 1-2.45-1.37 2 2 0 0 1 1.12-1.38c6.55-1.46 13.19-.55 19.79-.64 2.79 0 3.65-.42 3.08-3.55-1-5.21-.43-10.57-.34-15.86.07-4-1.51-5.58-5.56-5.61-11.25-.08-22.52.54-33.77-.35-12.63-.8-25.26-1.45-37.85.47-9.06-.64-18.12.2-27.18-.1-2.45-.08-5 .3-7.21-1.18-2-2.8-1.26-6-1.39-9.13-.41-9.85-3.17-12.6-13-12.67h-20.35c-2.29 0-4.69.24-6.59-1.55-1.29-2.13-.91-4.5-.92-6.79V13.93a30 30 0 0 0-.29-6.43 15.61 15.61 0 0 1-.48-1.8A110.33 110.33 0 0 1-82.33-8c.41-3.56-.27-6.5-4-8.12a5 5 0 0 1-3.12-3.63c.54-4-1.64-7.12-3.37-10.46-1.55-3-4.63-5.85-2.12-9.79 1.36-.7 2.07-.46 2.34 1.22.22 1.39-.3 3.52 2.27 3.45 5.75 2.77 7 7.82 6.45 13.17.8.65 1.27.69 1.37.35 2.43-7.66 8.17-9.77 15.52-9.56 6 .18 12 0 17.94.06 2 0 4-.28 5.72 1.16h4.23c2-1.47 4.39-1.39 6.72-1.39h91.43c2.44-.04 5.07-.46 7 1.73Z" style="fill:#1f74c4" transform="translate(159 124)"/><path d="M225.05 94.19c-13.12-.09-26.24-.21-39.36-.25q-32.89-.11-65.79-.15C119.05 80 121.4 67 129.28 55.3c21.89-32.63 67.49-34 91.23-2.65 2 2.64 4.42 5 5.66 8.15.83 2.12 2.42 2.26 4.42 2.23 8.33-.12 16.66-.06 25-.07 2.23 0 4.31.1 2.59 3.24-.32-1.85-1.54-2.27-3.25-2.26-8.49.08-17 .2-25.46.08-3.07-.05-3.54 1.41-3.5 4 .09 7.15 0 14.31 0 21.47-.05 1.57.49 3.33-.92 4.7ZM257.86 93.1l.3-24.22c3.29 3.5 8.16 3.26 12.19 5 13.79 6.12 25.4 14.53 30.65 29.27a51.8 51.8 0 0 1-1.95 40.92 2.76 2.76 0 0 1-1.21-1.76c-.84-4.21-1.23-8.54-3.28-12.39-2.09 2.16-.92 5.21-2.14 7.57-2.82 5.69-2.81 12.13-4.88 18-2.15 1.76-2.87-.45-3.67-1.53a46.62 46.62 0 0 0-5.44-6.18 1.52 1.52 0 0 1-.35-.32c-.29-.41-.74-.37-.67 0 .9 4.65 3.44 8.59 5.53 12.73.89 1.76 2.32 3.26 2.62 5.32a19.87 19.87 0 0 1-6.53 10 6.85 6.85 0 0 1-2.38.68c-7.68.83-9.13-.43-9.14-8.13V106.9c0-2.14.24-4.31-.41-6.4-.69-3.29-2.64-5-6.06-5.27-1.32-.06-3.04 0-3.18-2.13Z" class="cls-4"/><path d="M79.05 196.81c8.78 0 17.57.21 26.35 0 11.09-.23 14.41 2.8 14.43 13.75V220c4.6 8.59 1.73 24.2-5.29 28.84-15.06 1-30.12.3-45.18.37a3.78 3.78 0 0 1-3.48-1.54c-2.71-2.07-5-4.39-5.13-8.08-1.72-2.46-1-5.27-1.13-8-.17-5.13-.13-10.25-.12-15.38.18-3.21.1-6.42.16-9.63a15.8 15.8 0 0 1 .24-3.36c1.17-4.4 4-7 8.52-7.54.52-.06 1-.08 1.57-.09h2.33a23.05 23.05 0 0 1 5.37.37 7.17 7.17 0 0 1 1.36.85Z" class="cls-5"/><path d="M78.06 196.79H72c-4.4-8.54-7.41-17.61-10.13-26.79 10.38-5.22 11.8-10.34 5.84-21a19.22 19.22 0 0 0-3.28-4.38c-4.24-4.19-9.43-4.27-13.73-.21-4.64 4.39-6 14-2.63 19.46 2.15 3.47 5 5.78 9.51 4.81 1.54-.34 3.4-1.08 4 1.41 2.42 7.78 5.43 15.34 8.27 23 .46 1.23 1.34 2.37.3 3.7H69c-3.2-3-8.44-3.93-8.86-10.06-2.57 2.83-1 5-1.1 7-.09 1.17 0 2.48-1.19 3.08s-2.2-.33-3.1-1a8.27 8.27 0 0 1-3-6.57c-.1-2.25.57-4.67-1.27-6.91-1.72 1.33-.81 3-.86 4.5-.09 2.71-1.41 2.68-3.21 1.49a8.71 8.71 0 0 1-3.67-5.72c-.55-2.53-.69-5.21-2-7.41-.69 0-.88.22-1 .58-.59 1.54.95 4.08-1.75 4.57-2 .37-3.45-1.25-4.43-2.75-1.75-2.68-3.63-5.11-6.54-6.58 3.35-1.4 2.21-3.85 1.58-6.3-3.27-12.8-2.45-25.24 3.66-37.11 2.13-4.13 4.54-8.24 8-11.26 4-3.41 4.78-7.34 4.76-12.27 0-6-1.33-12.16.86-18.09 2 1.82 1.61 4.26 1.62 6.53.08 9.63 0 19.26 0 28.9 0 6.44.26 6.62 6.63 7.13 5.08.14 10.16.08 15.25 0 2.89-.07 6-.61 8.45 1.65v-.05c.78.82.59 1.85.59 2.82v61.53a4 4 0 0 1-.36 2.3Z" class="cls-4"/><path d="M115.67 93.82c-8 .09-15.91.22-23.87.27-10.28.08-12.19 1.63-14.15 11.67-3.72-.69-5.45-2.34-4-6.5 1.71-4.9-3.44-7-5-10.62-1.12-4.46-3.2-8.86-.66-13.51a2.15 2.15 0 0 0-1-3c-3.49-2.22-2.37-4.48-.33-6.93a46.43 46.43 0 0 0 3.2-4.42c1.35-2.1 2.52-2.38 4.73-.69 3.15 2.42 9.37-.84 9.38-4.81 0-2.58.74-3.63 3.39-3.41a44.09 44.09 0 0 0 7 0c3.4-.29 4.72.89 4.64 4.48s4.71 6 7.79 3.93c2.21-1.52 3.87-1.56 5.43.76s3.13 4.29 4.55 6.53c.68 1.06 1.61 2.41.27 3.6-4.87 4.28-3 8.56 0 12.76a3.58 3.58 0 0 1 .46 3.68c-.72 2.04-1.23 4.14-1.83 6.21Z" class="cls-5"/><path d="M234.92 181.9c.1-.63.2-1.27.31-1.91l3.83-2.87c1.64-2 4-1.59 6-1.51 12.46.47 24.91.28 37.37 0 2.33-.05 4.68-.08 6.79 1.19a5.18 5.18 0 0 1 1.52 1.2c2.4 3.06 2.88 6.72 2.76 10.38-.56 17.57 0 35.15-.17 52.72a7.66 7.66 0 0 1-.33 2l-.42 1a11.65 11.65 0 0 1-3.43 4.14c-1.94 1.2-4.11 1.16-6.26 1.16q-19.87.06-39.74 0c-2.68 0-5.37 0-7.12-2.56l-1.89-3.84c.78-14.06.07-28.14.37-42.21.13-6.35-.59-12.64.41-18.89Z" class="cls-6"/><path d="M-104.86 6c-8.15.23-8.15.23-8.16-7.61v-36.4c3.47-3.64 8-2.06 12.15-2.49 2.73 5.33 5.38 10.71 7.59 16.28-1.77 5.07-6.46 7.85-9.4 12 3.19-.09 6.35.45 9.4-.34-.89-.15-1.73 0-2.55-.17-3.65-.67-4.15-1.63-1.86-4.43 1.53-1.88 2.67-4.29 5.28-5.11 1.62.13 2.88.74 3.34 2.44a5.19 5.19 0 0 0 3.44 2.63c4.2 1.29 5.38 4.2 4.63 8.2-2.12 3-4.36 5.85-8.39 6.32-4-.45-7.94.42-12.39-.21 4.34 1.66 8.56-1 12.36 1.19.35 5.12-1.24 6.93-6.16 7.19-3.07.18-6.22-.49-9.28.51Z" style="fill:#01c3f8" transform="translate(159 124)"/><path d="M134 119c-1.32-1.92-1.1-4.1-1.1-6.25 0-16.91-.09-33.82.09-50.73 0-3-1.66-5.33-2-8.09 2.22-1.12 2.94.59 3.63 2 .77 1.62 1 3.46 2 5 .88 2.53.89 5.2 1.25 7.81.15 1.12-.27 3.21-1.06 2.89-2.9-1.16-1.6.8-1.55 1.77.07 1.48 0 3 .13 4.46a9.32 9.32 0 0 1 0 1.67c-.21 2.87.41 5.82-.88 8.58-.2 4.62.15 9.25-.14 13.19.76-2.65-.62-6.19.63-9.5a2.84 2.84 0 0 1 .92-.06c2.14 1.79.71 4.81 2.54 7.12 2.34-3.19 0-7.32 2.42-10.21 7.82-4.3 16.34-4.8 25-4.58 2.55.06 2.63 1.4 1.61 3.24-1.19 2.15-2.4 4.29-3.6 6.43-2.8 1-6.28-.51-8.72 2.31 2.23 1.43 4.7-.85 6.74.8.08 1.47-1 2.15-2 2.92-4 1.13-8.52-.67-12.87 2.06 3.73 1.85 7.39-.52 10.62 1C151.65 111 143.34 115.79 134 119Z" style="fill:#0a7bd1" transform="translate(159 124)"/><path d="M77 122.76a6.82 6.82 0 0 0 1 .23c17.63 1.4 35.27 1.82 52.89-.2 1.1 2 3 1.58 4.79 1.66 5.06.24 10.16-.6 15.19.5.5 1.9-1.25 1.75-2 1.74-3.19 0-6.43.66-9.58-.44-7.81.36-15.63.14-23.45.14h-229.32c-1.79 0-3.64.43-5.38-.44-.25-3.09 2.13-1.8 3.37-1.84 7.47-.23 15-.3 22.42-.41 16.28.61 32.57.75 48.85-.08 1.42-.25 2.76-1 4.26-.66 4.5 1.07 9.07.47 13.61.5.87-.15 1.76 0 2.62-.28 7.26-1.31 14.55-.92 21.85-.35a21 21 0 0 0 6.88.69c14.08 0 28.15.09 42.22-.08a2.51 2.51 0 0 1 1.73.56c7.91 2 15.95.4 23.91.89 1.68.11 3.8.58 4.14-2.13Z" style="fill:#036cc4" transform="translate(159 124)"/><path d="M-131.93 47c3-.27 5.15.47 6.09 3.73.71 2.48 2.75 3.93 4.93 5.16.33-.49.67-.76.64-1-.31-2.3-2.26-5.71 1.11-6.28 3-.51 2.82 3.25 3.33 5.6.81 3.77.58 8.11 5.48 10.25-.22-1.81-.54-3.43-.6-5.06 0-1.43-.3-3.21 1.92-3.35 2-.12 2.58 1.45 2.84 2.89a19.54 19.54 0 0 1 .22 5.45c-.43 3.82 1.3 6.24 4.55 8.07 1.36-2.65-.59-4.89-.48-7.28.08-1.68-.16-3.61 2-4s2.67 1.29 3.05 3.09c.45 2.21.14 5 4.23 4.22 1.71-.32 2.26 2.47 2.63 4.27-3.89.42-6.3 2.82-8.06 6.06-3.07 1.09-6.22.26-9.33.32-2.21 0-4.53-.38-5.15-3s1.39-3.79 3.94-4.65c-2.57-.68-4.69-.17-6.78-.33s-4.4-.54-5.23-3 .58-4 3.47-4.72c-2.8-1.16-5.15.14-7-1.32-1.29-.3-3 .33-3.63-1.47-.48-1.46.41-2.36 1.72-2.88 2.44-1.91.42-2.82-.87-3.88-2.85-1.42-8-1.27-5.02-6.89Z" style="fill:#03c4f9" transform="translate(159 124)"/><path d="M-98.39 91.79v16.12a1.83 1.83 0 0 1-1.32.15c-3.75-1.24-6.06-4.59-9.4-6.44a56.85 56.85 0 0 1-5.28-4 12.38 12.38 0 0 0-4.15-3c-3.12-2.54-6.52-4.67-9.87-6.89-2.76-2.32-6.62-3.26-8.54-6.67.23-1.42 1.27-.87 2.09-.86 2.31.26 4.66 3.29 6.93-.07a19.6 19.6 0 0 1 8.06.63c3.24 3.13 3.16 8.47 7.08 10.91-.38-3.18-3.51-5.84-2.16-9.59l1.09.07c1.34.18 3-.21 3.41 1.74a26.09 26.09 0 0 0 5.19 13.28c-.12-4.08-2.76-7.23-1.29-10.81a1.78 1.78 0 0 1 1.12-.79 3.51 3.51 0 0 1 2 .77c1.8 1.66 4.43 2.66 5.04 5.45Z" style="fill:#0978cf" transform="translate(159 124)"/><path d="M293 202v-7.88c1.24-.65 1.32 1.5 2.31 1 1.18-.59.67-1.79.34-2.56-1.1-2.53-.5-5.21-.89-7.79.46-2.5 1.4-4.42 4.5-3.73 1.23 1.7.77 3.74 1.17 6 .61-3.16-.53-6.31 1.5-8.87a12.8 12.8 0 0 1 5-2.33c1.33 1.23.77 2.73.57 4.14-.45 3.28 1.47 2.53 3.29 2 2.37-.29 4.77-.85 6.79 1-.17.66-.34 1.31-.5 2-2 1.72-4.65 1.55-7 2.23a7.94 7.94 0 0 0-4.59 2.79c3.51-.22 6.81-2.13 10.39-.94-.64 1.62-1.27 3.25-1.91 4.88-4.83-.23-9.69-.61-14.74 3.09 4.83.89 8.74-1.73 12.57 0-.93 1.32-1.19 3.11-2.83 3.92-5.33.31-10.54 2.24-15.97 1.05Z" class="cls-12"/><path d="M139.92 56.87c-1.86.81-2.91 2.46-4.16 3.92-2.07-.13-1.36-1.85-1.73-3-.54-1.65-.59-3.75-3.08-3.85-1.76-1.9-4-2-6.44-2.06-1.4 0-3.62.81-3.6-2l5-8.91a.9.9 0 0 1 .16-1.38 3.78 3.78 0 0 1 2.33-.43c2.82.86 5.62 1.81 8.5 2.47 1.3.37 3.1.15 3.1 2.37.75 4.06-2.75 8.09-.06 12.16l.33.35Z" style="fill:#6ee2f7" transform="translate(159 124)"/><path d="m-110.83 83.87-3-1.73c.87-2.39-1.54-3.3-2.44-4.72a92.25 92.25 0 0 1-7.83-15.21c3.33-.18 7.19-2.9 9.5 2-.6 1.11-1.7.58-2.56.65-1.47.13-2.67.46-2.57 2.27a2.47 2.47 0 0 0 2.47 2.6 29.34 29.34 0 0 0 7-.06c2.75-.55 3.84.81 5.07 2.75-2.24 1.45-6.78-1-6.25 3.23.44 3.59 4.32 1.88 6.74 2.19s4.67-.45 6.77 1c-.06 1-.11 2-.17 3.06a3.65 3.65 0 0 1-1.06.85 10.44 10.44 0 0 0-5.84 3.18l-1 .2a4.54 4.54 0 0 1-4.83-2.26Z" style="fill:#6de3f8" transform="translate(159 124)"/><path d="M132.45 250h160.88c1.65 0 3.31.15 4.95.23-1.15.11-2.3.31-3.45.31h-159c-1.15 0-2.31-.13-3.47-.2Z" class="cls-2"/><path d="M-109 101c4.09 1.25 6.68 4.7 10.15 6.85-2.08 2.22-5 2-7.63 2.67-1.37.33-3 0-3.53 1.88a35.6 35.6 0 0 1-14.83-10.43c5.15-1.97 10.38-3.13 15.84-.97Z" style="fill:#083c8f" transform="translate(159 124)"/><path d="m98.64-72 6.61.39c.94.64 1.18 1.29 0 2-1.82 0-3.65 0-5.47-.11-1.4 0-2.38.53-2.17 2 .58 4-1.93 3.73-4.57 3.7-6-.07-12-.09-17.94 0-3.4.06-7.07-.28-6.93-4.38.13-3.52 3.72-3.46 6.67-3.45 7 0 13.95-.11 20.92-.18a2.07 2.07 0 0 1 2.88.03Z" style="fill:#1a5eb8" transform="translate(159 124)"/><path d="M-93.85-24.11c-3-5.21-6.39-10.24-7-16.44l-.05-.27.23-.14h.49c1.44 2 3.74-.56 5.27 1-.31 4.26 2.33 7.36 4.14 10.83 1.49 2.86 4.58 5.55 1.72 9.27l-2.81-2a5.4 5.4 0 0 1-1.99-2.25Z" style="fill:#0b7bd1" transform="translate(159 124)"/><path d="m127.85 40-1.6.13c-2.38-4.67-3.67-9.84-6.57-14.29a2.29 2.29 0 0 1 .25-2.79c3.61 2.14 5.39 5.85 7.75 9.06 1.41.38 1.68 1.75 2.41 2.72s1.7.89 2.67 1a3.61 3.61 0 0 1 2.41.91c5.11 1 9.43 3.77 13.8 6.38.09 0 0 .65-.15.76s-.61.09-.92.12c-6.72-1.2-13.26-3.22-20.05-4Z" style="fill:#107dd1" transform="translate(159 124)"/><path d="m132.45 250-.14.38c-5.13.11-10.25.32-15.38.33q-35.79.06-71.6 0c-1.73 0-3.64.72-5.21-.72Z" class="cls-19"/><path d="M-127.94 87a34.4 34.4 0 0 1 9.88 7c-3 3.26-8.71 3.23-12.93-.06-2.29-3-4.36-6.16-4.94-10 2.82.61 4.64 3.83 7.99 3.06Z" style="fill:#03378a" transform="translate(159 124)"/><path d="m143 26.72-2.93-1.34c-.75-2.05 0-2.83 2.08-2.38 8-1.74 15.61-.52 23.35 3.49-1.76.66-2.92 1.67-4.58 1.32-6.02.06-11.98-.6-17.92-1.09Z" style="fill:#1c82d2" transform="translate(159 124)"/><path d="M131.26-60.12c3.14 0 5.3 2.12 5.4 5.67.1 3.29-1.87 5.6-5.34 6-3.26.38-6.37-2.7-6.39-6.1-.02-3.24 2.23-5.45 6.33-5.57Z" style="fill:#fbbb30" transform="translate(159 124)"/><path d="M126.1 44.09a5.92 5.92 0 0 1-5.86 4.82c-3.35.1-6.56-3.45-6-6.56.63-3.52 2.86-5.69 6.58-5.36s5.65 2.48 5.28 7.1Z" class="cls-23"/><path d="M-109 101c-5.31-.15-10.5 1.65-15.84 1a10.91 10.91 0 0 1-4.16-5 25.49 25.49 0 0 1 15.1-.18c1.5 1.54 4.02 1.86 4.9 4.18Z" style="fill:#012d7b" transform="translate(159 124)"/><path d="M311.8 197a84.92 84.92 0 0 1-14.2 2c3.05-6.29 12.5-9 16.37-5.06Z" class="cls-25"/><path d="M139.78 18c.1.68.21 1.36.31 2l-.09 2.12c-.61 2.69-1.24 5.35-4.9 5.13-3.72-4.27-4-9.11-2.38-14.28.57-3.39-.42-7.29 3.11-9.73a27 27 0 0 1 1.29 12.45c-.36 2.94 1.04 2.41 2.66 2.31Z" style="fill:#0a56b5" transform="translate(159 124)"/><path d="M-110 112.35c-1-2.52 1.11-2.69 2.52-3 2.85-.65 5.76-1 8.64-1.53l.49.11q.09 3.86.17 7.71c-4.39.36-8.23-1.09-11.82-3.29Z" style="fill:#013285" transform="translate(159 124)"/><path d="M146.35 15.78c1.51-5.87 5.26-9.94 10.38-12.91 2.11 0 1.41 1.33.84 2.18a29.78 29.78 0 0 1-4 4.25c1-.63 2-2.13 3.37-3.21.87-.7 1.86-1.85 3-.84s0 2.08-.71 2.92c-1.6 1.86-3.57 3.36-5.15 5.25-1.69 2.29-4.46 2.34-6.81 3.26a.76.76 0 0 1-.92-.9Z" style="fill:#0c59b7" transform="translate(159 124)"/><path d="M154 13.42c.8-3.25 4.51-4.33 5.87-8-3.54 1.53-4.85 5.48-8.68 6.05.63-3.91 5.88-4.45 5.5-8.57 2.06-2.2 4.89-3.14 7.4-4.77.15 5.36-3.46 10.8-10.09 15.29Z" style="fill:#0f70c8" transform="translate(159 124)"/><path d="M257.64 52h-2.85c.91-8.17 6.21-13 14.06-12.81 1.25 0 3-.27 3 1.62 0 1.56-1.66 1.18-2.76 1.29-8.55.9-10.63 2.71-11.45 9.9Z" class="cls-30"/><path d="M293 202c5.28-.92 10.48-3.09 16-1.11-.83 1.24-1.61 2.52-3.11 3.09-2 1.52-4.41 2.1-6.76 2.75-3.38 1-5.78.19-6.14-3.81.01-.29.01-.6.01-.92Z" class="cls-25"/><path d="M157.63 102.88c-3.63 1.64-7.47 1-11.24 1-.83 0-1.8 0-1.95-1s.67-1.39 1.36-1.86c4.48-3.06 9.25-2.52 14.08-1.17a5.29 5.29 0 0 1-2.25 3.03Z" style="fill:#0552b4" transform="translate(159 124)"/><path d="M-102.08-68.12c-.88-2.82-4.65-3.68-4.58-5.57s3-3.51 4.68-5.26c1.77 1.71 4.76 3.29 5 5.16.11 1.57-3.02 3.46-5.1 5.67Z" style="fill:#0dc6f9" transform="translate(159 124)"/><path d="M310.8 173.77a15.91 15.91 0 0 1 4-1.67c1.39-.2 3-1.89 4.1-.55s-.15 2.47-1.36 3.54c-.89.79 2.33 1.55.56 3-2.08 2.14-4.48 3.48-7.61 3-2.7-2.59-1.49-4.97.31-7.32Z" class="cls-12"/><path d="M156.88 65a30.12 30.12 0 0 1-12.42 1.85c3.09-6 8.58-5.41 13.6-5.89-.23 1.41.38 3.04-1.18 4.04Z" style="fill:#03307f" transform="translate(159 124)"/><path d="M140.84 88.71c0 2.63 0 5.26.11 7.89.08 2.14-.39 4.63-2.53 4.69-2.4.08-2.06-2.82-2.41-4.57a28.76 28.76 0 0 1-.13-4.92 9.83 9.83 0 0 1 4.96-3.09Z" style="fill:#0652b4" transform="translate(159 124)"/><path d="M64.56-93c.83 2.81 4.75 3.18 4.39 5.49-.2 1.23-3.07 2.78-4.5 4.44L59.51-88Z" style="fill:#fbbd33" transform="translate(159 124)"/><path d="M44.05 206.07c1.39 4 2.78 7.89 4.47 12.71-6.34-3.44-7.92-8.7-9.39-14 1.72.14 3.47.15 4.92 1.29Z" class="cls-36"/><path d="M161.86 96.91c-3.13.78-6.28 2.12-9.65-.29 3.42-3.72 7.16-4.75 11.63-2.82Z" style="fill:#0556b6" transform="translate(159 124)"/><path d="M264.28 54.39v-2c.87-2.22 2.61-2.79 4.78-2.49 1.57.21 2.18 1.43 2.48 2.73.39 1.69-.7 2.91-1.92 3.69-2.52 1.68-3.93-.32-5.34-1.93Z" class="cls-23"/><path d="M-100.54-55.11c-2.1-1.64-4.74-3.28-2.63-6.38 1.37-2 3.77-1.71 5.19 0 2.62 3.16-.68 4.56-2.35 6.38Z" style="fill:#fbbc31" transform="translate(159 124)"/><path d="M127.85 40c2-2.14 4.05-.33 6 0 4.8.9 9.73 1.42 14.06 4-2.65.88-5.29-.37-7.94 0-3.88-1.82-8.49-1.46-12.12-4Z" style="fill:#0553b4" transform="translate(159 124)"/><path d="M151.8 49.77c-.22 2.44-1.79 4.91.14 7.31.49 1-.37 1.32-.92 1.8-1 1.1-2.25 2.38-3.57 1.3-.68-.56-.5-2.4-.4-3.65a42.84 42.84 0 0 1 .86-4.69 6.54 6.54 0 0 1 3.89-2.07Z" style="fill:#3878c4" transform="translate(159 124)"/><path d="M143 26.72c6.11-1.93 12-.08 17.92 1.09-6.08.98-12.1 1.45-17.92-1.09Z" style="fill:#0a53b3" transform="translate(159 124)"/><path d="M-113.86 96.8-129 97a3.88 3.88 0 0 1-2-3 19.41 19.41 0 0 0 13 0c2.08-.16 3.06 1.4 4.14 2.8Z" style="fill:#094fab" transform="translate(159 124)"/><path d="M139.92 56.87v-.71l3-2c-.21 4 .45 8-.74 13.07-3.18-3.73-1.88-7.23-2.26-10.36Z" style="fill:#0b78cf" transform="translate(159 124)"/><path d="M293 202.93c1.12 2.62 2.82 3.7 5.76 2.7a68.44 68.44 0 0 1 7.1-1.63l-3.45 3.07c-3.08 1.19-6.68 1.46-8.5 4.86l.07.15a.63.63 0 0 1-1.06-.09c.01-2.99.08-5.99.08-9.06Z" class="cls-12"/><path d="M-127.94 87c-4.18 3-6-.3-8-3-1.14-.69-1.15-1.77-1-2.91 2.94 2.03 6.43 3.26 9 5.91Z" style="fill:#053584" transform="translate(159 124)"/><path d="m151 58.88.92-1.8c1.9-2.12 4.74-2.06 7.14-3 1.18 1.79.39 3.37-.52 5Z" style="fill:#0c3985" transform="translate(159 124)"/><path d="M150.87 125c-5.27 0-10.55.06-15.82 0-1.72 0-3.84.56-4.16-2.19.89-.93 1.79-1.85 2.69-2.78.31 1.49-.94 2.58-1.41 3.84 6.44 1.39 12.7-1.11 18.7 1.13Z" style="fill:#2272c4" transform="translate(159 124)"/><path d="M134.91 87.92c-.15-6.84 4.93-4.52 8.5-4.86-2.41 2.42-5 4.41-8.5 4.86Z" style="fill:#03307e" transform="translate(159 124)"/><path d="m135.17 36.72-3.51.19c-.09-3.28 2.25-5.51 3.56-8.18 1.14-.79 2.07-1.92 3.56-2.12-.3 3.69-2.12 6.84-3.61 10.11Z" style="fill:#7ed6dd" transform="translate(159 124)"/><path d="M138.78 26.61 136 29.18a1.29 1.29 0 0 1-.56-.85 1.48 1.48 0 0 1 .36-1c2.22-1.1 3.15-3.25 4.26-5.25l6.32-6.34.88.9-5.13 6.36c-.86.65-1.82 1.21-2.08 2.38Z" style="fill:#c27f2c" transform="translate(159 124)"/><path d="M-127.93 80.12c.49 2 1.85 4.7-2.4 2.87-1.67-.72-3.48-1.12-4.53-2.8Z" style="fill:#0655b6" transform="translate(159 124)"/><path d="m133.92 88 1.06.09v13.59h-1Z" style="fill:#538ecf" transform="translate(159 124)"/><path d="M-100.54-55.11h.21c.74 4.7.43 9.4.12 14.1h-.49c-.24-4.67-.6-9.39.16-14.1Z" style="fill:#1961ba" transform="translate(159 124)"/><path d="M-126.92 54c1.81.12 3.31 1.16 3.47 2.78s-1.58 1-2.6 1.1a4.8 4.8 0 0 0-.87-3.88Z" style="fill:#5fdef8" transform="translate(159 124)"/><path d="M142.34 142.86c-14.31 0-28.62-.13-42.93.09-4 .06-5.9-.76-5.36-5.14C94.64 133.1 92 127 95.22 124c2.92-2.75 8.9-.77 13.53-.78 25.62-.11 51.25 0 76.88-.16 4 0 5.9.76 5.35 5.14-.59 4.71 2 10.85-1.17 13.85-2.91 2.74-8.9.74-13.52.78-11.29.1-22.63.03-33.95.03Z" class="cls-54"/><path d="M6.5 23.13c7.16 0 14.32.18 21.47-.07 3.39-.12 4.21 1.07 4.11 4.26-.23 7-.17 14 0 21 .06 2.65-.48 3.81-3.49 3.78-14.83-.19-29.65-.1-44.46-.1-1.7 0-3.32.21-3.31-2.4 0-7.47-.08-14.94-.22-22.41-.06-3.16 1.19-4.24 4.44-4.13 7.14.24 14.31.07 21.46.07Z" style="fill:#fcfdfd" transform="translate(159 124)"/><path d="M236.58 176.83c-10.6.09-21.2.17-31.8.3-2.21 0-3.66-1.08-3.7-3.14-.21-9.1-.64-18.21.19-27.3 0-.43.51-.82.79-1.23 6.38 2.45 10.64 7.73 15.53 12.06 7 6.22 7.31 6.38 14.29.46 3.8-3.21 7.31-6.72 11.05-10 1.69-1.46 4.1-3.83 5.52.53 0 7.63-.17 15.26.07 22.87.11 3.55-1.18 4.83-4.58 4.58a25.86 25.86 0 0 0-7.36.87Z" class="cls-5"/><path d="M-42.67 52c-5.49 0-11-.09-16.47 0-2.65.07-4-.57-3.9-3.57.17-7.31.13-14.64 0-22 0-2.54.82-3.54 3.45-3.52q17 .15 33.94 0c2.91 0 3.7 1.14 3.66 3.86q-.2 10.73 0 21.45c.06 2.8-.9 3.84-3.73 3.76-5.64-.09-11.28.02-16.95.02Z" style="fill:#6ce3f8" transform="translate(159 124)"/><path d="M98.86-30.9c1.22 1.74 3 .74 4.56.9 3.13.33 5.42 1.44 5.6 5 .78 1.75.39 3.6.39 5.4v65.16c0 6.81-.68 7.32-7.51 5.66a3.8 3.8 0 0 1-.43-1.41c.06-23.55-.25-47.11.17-70.66-.32-1.56-1.75-.88-2.64-1.31-1.21-1.59-.55-3.25-.19-4.9.19-1.28-1.33-2.57.05-3.84Z" style="fill:#002c7b" transform="translate(159 124)"/><path d="M89 22.41c-6.44 2.2-9.71 8.29-14.85 12.1a44.29 44.29 0 0 0-3.72 3.28c-3.15 2.92-6 2.56-9.12-.3-6-5.46-12.17-10.7-18.27-16 1.13-1.74 2.91-1.28 4.52-1.29q18.18-.09 36.35-.13c2 0 4-.07 5.3 2Z" style="fill:#fcfcfc" transform="translate(159 124)"/><path d="M257.83 96.94c.07 1.63.13 3.26.19 4.9-1.59 1.47-1 3.41-1 5.17 0 9.3-.12 18.61 0 27.9 0 3-.91 4.07-4 4-7.81-.14-15.62-.07-23.42.13-2.92.07-3.69-1.08-3.65-3.8.13-7.64 0-15.27.5-23 .53 2.54.89 5.14 1.62 7.62 1.35 4.53 2.78 9.14 8.31 10.14 5.18.93 10.62-2 13.62-7.16a47.9 47.9 0 0 0 5.94-19.33 14.39 14.39 0 0 1 1.89-6.57Z" class="cls-54"/><path d="m89 22.41.21-.41c1.73 6.83.46 13.78.72 20.67.36 9.56-1.53 8.25 8.48 8.37.83 0 1.65-.07 2.48-.11.34-.48.67-.45 1 0 6.93.22 6.91.22 6.93-6.73q.07-34.61.18-69.2c1.29 1.61.74 3.51.74 5.28q.06 31.62 0 63.23c0 8 .36 8.37 8.38 7.39a13 13 0 0 0 2.76-1c1.35 1.87 3.34.79 5 1.08 2.07.35 4.43.15 5 3a27.19 27.19 0 0 0-8.28-1.13c-14.21.15-28.42.2-42.63.29l-2.48-.29c2-1.74 4.59-1.88 7-1.66 3.6.33 4.91-.74 4.74-4.58-.23-8.07-.15-16.14-.23-24.2Z" style="fill:#3d80c2" transform="translate(159 124)"/><path d="M73.9 69.88c-1.42 1.76-3.39 1-5.11 1q-68.27.12-136.51 0c-1.7 0-3.71.85-5-1.06.33-.33.61-.3.84.12Z" style="fill:#328ed2" transform="translate(159 124)"/><path d="M-71.93 69.94a2.38 2.38 0 0 1-.84-.12V-9.8c1.57 1.51.84 3.45.84 5.18q.03 37.28 0 74.56Z" style="fill:#30c7f5" transform="translate(159 124)"/><path d="M101.91 50.93h-1q0-33 .06-66c0-1.93-.57-4 .7-5.78Z" style="fill:#2bc0ef" transform="translate(159 124)"/><path d="M92.61-26.56c-2.4 6.28-6 10.53-9.54 14.72-1.61 1.89-2.59-.29-3.41-1.31-1-1.2-3.2-1.95-2.21-4 .64-1.3 1.85-.37 2.42.34 2.11 2.63 3.09.91 4.34-.87 2.12-3 3.57-6.67 8.4-8.88Z" style="fill:#e9f8fd" transform="translate(159 124)"/><path d="M76.24-28.65c-3-1.09-4.47-3.22-2.94-6.1 1.37-2.56 3.78-3 6.23-1 1.89 1.12 2.77 2.69 1.86 4.81s-2.82 2.94-5.15 2.29Z" style="fill:#f5b82b" transform="translate(159 124)"/><path d="M76.24-28.65c4.08-1 5.75-3.09 3.29-7.1 3.28.54 5.57 2.18 3.84 5.64-1.46 2.95-4.05 4.45-7.13 1.46Z" style="fill:#0657b5" transform="translate(159 124)"/><path d="M97.5 111.19a2.77 2.77 0 0 1-2.78 2.66 2.37 2.37 0 0 1-2.62-2.35 2.69 2.69 0 0 1 2.43-3.14c1.8-.31 2.47 1.14 2.97 2.83ZM107 111a3 3 0 0 1-3.15 2.82c-1.63.12-2.37-1.26-2.46-2.54a2.61 2.61 0 0 1 2.61-2.86c1.68 0 2.49 1.35 3 2.58Z" class="cls-66"/><path d="M-45.56-10.07c-1.84-.24-2.53-1.42-2.42-3.11.09-1.47.81-2.66 2.46-2.39A2.67 2.67 0 0 1-43-12.5a2.42 2.42 0 0 1-2.56 2.43Z" style="fill:#0455b6" transform="translate(159 124)"/><path d="M192 219.92c12.27 0 24.54 0 36.8-.16 3 0 4.17.8 4 3.91-.21 5.14 0 10.28-.08 15.42 0 2.84 0 5.62 2.38 8.66h-26.27c-.88-4.11-3.27-6-7.59-5.58a6.38 6.38 0 0 1-4.65-1c-2.9-4.3-2.9-9.51-4.55-14.2-.28-2.38-1.81-4.7-.04-7.05ZM119 248.13l-4.23-.51c4.66-2.82 5-7.46 5.06-12.17.07-5.14 0-10.28 0-15.42l31.43-.22c1.15 0 2.33 0 3 1.22 1.29 2.11.09 4.15-.18 6.21-1.74 4.67-1.33 10.07-4.83 14.13-1.82 1-3.83.84-5.8.89-6.59.16-6.59.16-8.27 6.39l-2.05.15c-4.66-1.03-9.45.2-14.13-.67Z" class="cls-4"/><path d="M135.21 248.65c-1.51-6.31-.53-7.59 6-7.71h8c14.7-2 29.47-1.73 44.25-1.47a5.78 5.78 0 0 1 3.61 1.53h6.43c5.27.19 6.19 1.39 5.34 6.75-.31.07-.61.16-.91.25H207c-9.23.92-18.48.31-27.72.35-7.42 0-14.86.53-22.27-.35-7.27.24-14.58-.9-21.8.65Z" class="cls-6"/><path d="M-5.83 102.91c.37-2 .75-3.92 1.12-5.88.93-1.16 1.74-2.19 3.58-2.17 10.64.1 21.29 0 31.93.06a2.45 2.45 0 0 1 2.16 1c.38 2.33.77 4.66 1.15 7-1 2.19-3 2.47-5 2.5-9.74.19-19.49.28-29.23-.05-2.15-.09-4.3-.5-5.71-2.46Z" style="fill:#002d7c" transform="translate(159 124)"/><path d="m-89-3 8-6V6.11L-104.86 6c2.52-1.7 5.36-.79 8-.9 4.47-.19 7.14-1.92 6.86-6.78A1.13 1.13 0 0 1-89-3Z" style="fill:#097cd2" transform="translate(159 124)"/><path d="M19.66 81.53c-.55 2.83-2.07 5-5.09 5A4.25 4.25 0 0 1 10 82.37c-.11-3 1.4-5.2 4.55-5.26 2.7-.05 4.5 1.64 5.11 4.42Z" style="fill:#f7f9fb" transform="translate(159 124)"/><path d="m-80.94 72.79-.12-66.73c1.91 1.56 1 3.71 1 5.58.07 20.39.05 40.78.06 61.17Z" style="fill:#3777c4" transform="translate(159 124)"/><path d="M234.92 181.9v56.76c0 1.45.38 3-.82 4.26l-.1-57.79c0-1.13-.1-2.35.92-3.23Z" class="cls-2"/><path d="M48.79-58.87 20.34-43.25v-31.23Z" style="fill:#fab927" transform="translate(159 124)"/><path d="M158.09 71a41.07 41.07 0 0 1-11.85-6.14c6.82-3.68 13.23-7.2 19.67-10.65a47.9 47.9 0 0 0 6.09-3.27c1.35-1 3.4-2.18 3.93 1-.87 5.43-.42 10.89-.54 16.34a24.74 24.74 0 0 1-.36 5.44c-.71 2.9-2.14 4.34-5.36 2.89-3.9-1.74-7.77-3.61-11.58-5.61Z" class="cls-73"/><path d="M-.91-53c3.54-.05 6.14 2.33 9.17 3.59 6.25 2.6 6.66 2.41 6.74-4.27v-12.46c0-2.22.19-4.31 2-5.88 1.9 9 .48 18.18.81 27.27 0 1.28-1 2-2 1.33C10.49-47.09 3.82-48.35-.91-53Z" style="fill:#1385d5" transform="translate(159 124)"/><path d="M130.87 81.37c-.93-2.08-6.28-2.7-1.84-6.38 1.1-.91 1.26-2.22 3.28-.56 4.42 3.65-.64 4.67-1.44 6.94Z" class="cls-75"/><path d="M49.09-43.52c0 1.18-.65 2-1.79 1.89s-2.28-.71-2.21-2.15a1.84 1.84 0 0 1 1.84-1.93c1.37-.01 2.07.86 2.16 2.19Z" style="fill:#f0bc36" transform="translate(159 124)"/><path d="M135.77 27.37a.58.58 0 0 0 0 .57c-2 2.94-2.51 7.12-6.89 8l-1.21-3.85c1.39-6.45 1.17-13.33 5.07-19.11.15 5.02.81 9.84 3.03 14.39Z" style="fill:#fafcfc" transform="translate(159 124)"/><path d="M119.93 23c.16 2.25 1.67 3.82 2.78 5.6a20.89 20.89 0 0 1 3.54 11.49 6.63 6.63 0 0 1-.36.87 57.44 57.44 0 0 1-9.32-19.83c2.23-.56 2.59.97 3.36 1.87Z" style="fill:#0957b6" transform="translate(159 124)"/><path d="M139.78 18c-3.27.58-.86 3.9-3.92 6.39V3.24c2.69 4.56 3.65 9.58 3.92 14.76Z" style="fill:#0c78ce" transform="translate(159 124)"/><path d="M120.92 1.1c1.34.4 2.33 1.08 2.12 2.72-.16 1.25-.68 2.22-2.11 2.15-1.86-.08-2.53-1.42-2.44-3 .08-1.23 1.1-1.86 2.43-1.87Z" style="fill:#f1bb35" transform="translate(159 124)"/><path d="M133.74-4.14c-.53 1.14-1.43 1.86-2.68 1.41a2.26 2.26 0 0 1-1.69-2.64 1.85 1.85 0 0 1 2.63-1.4 2.34 2.34 0 0 1 1.74 2.63Z" style="fill:#11c8f9" transform="translate(159 124)"/><path d="M-90.89 110.68c3-1.75-2-4.94 1.21-5.92 2.17-.67 3.32-2.62 5.43-3 .43 3.07 5.76 1.15 5.33 5.82-.4 4.36-1.5 7.83-6 8-1.08-.02-5.66-1.08-5.97-4.9Z" style="fill:#107ecd" transform="translate(159 124)"/><path d="M-84.4 80.11c1.56.61 1.89 2.55 3.71 3.09 1.58.48 2.11 8.18.73 8.33-2.41.27-2.9 3.67-4.48 3.11-2-.69-3.55-2.46-5.74-3.24-1.36-.49.07-8.06 1.58-8.19 2.22-.21 2.48-2.55 4.2-3.1Z" style="fill:#0f7ecd" transform="translate(159 124)"/><path d="M88 211.44h24.81c-5.32 2.08-20.81 1.92-24.81 0ZM88.68 215.4h22.83v1H88.68Z" class="cls-84"/><path d="M88.64 228.3h22.78v.75H88.66Z" class="cls-85"/><path d="M-47.37 109.61h-23v-1.21c7.65-.87 15.31-.55 23-.25Z" style="fill:#fdecc6" transform="translate(159 124)"/><path d="M-88.85 72.79c-2.62-7.41-5.26-14.79-7.85-22.22-.54-1.54-.89-3.13-1.33-4.7a.87.87 0 0 1 1.3.42l9.73 26.5Z" style="fill:#2b85cb" transform="translate(159 124)"/><ellipse cx="97.05" cy="236.99" class="cls-84" rx="12.04" ry=".7"/><path d="M111.3 207.77H88.58V207h22.7Z" class="cls-1"/><path d="M-99.11 82.07c.3-.06.61-.11.92-.15q-.11 4.93-.2 9.87l-5.75-4.85c2.05-1.24 4.14-2.47 5.03-4.87Z" style="fill:#57d0f2" transform="translate(159 124)"/><path d="m-96.73 46.29-1.3-.42c-.37-.28-.81-.86-1.09-.8-9.06 2.11-15.73-3.69-15-13.08.64-8 4.6-13.87 10.35-15.42a9.12 9.12 0 0 1 4.43-.18c8.72 1.85 15.43 17.66 10.93 25.37-1.94 3.35-4.9 4.24-8.32 4.53Z" style="fill:#fbb827" transform="translate(159 124)"/><path d="M-88.82 9.89a2.4 2.4 0 0 1 2.18 2.39 2 2 0 0 1-2.63 2.16A2 2 0 0 1-91.08 12a2.2 2.2 0 0 1 2.26-2.11Z" style="fill:#f4ba30" transform="translate(159 124)"/><path d="M91.89 87.08c-4.73 0-8-3.11-8.07-7.51a8.17 8.17 0 0 1 8-8.35 7.89 7.89 0 0 1 7.59 8.23 7.61 7.61 0 0 1-7.52 7.63Z" class="cls-85"/><path d="M91.82 61.05c9.3.11 18 7.89 18.17 16.12 0 1.32.77 3.37-1.44 3.62-1.66.18-2-1.6-2.31-2.82-3-10.41-5.72-12.74-16.33-13.91-1.13-.13-2.89 0-2.54-1.53.63-2.61 3.06-.99 4.45-1.48Z" class="cls-91"/><path d="M-67.24-69.87c1.14 0 2.29-.07 3.42 0s1.88.82 1.54 2c-.79 2.63-3.08 2-4.93 1.92s-4.48.89-5.45-1.91c-.39-1.12.31-1.9 1.5-2s2.61-.01 3.92-.01Z" style="fill:#faeb4c" transform="translate(159 124)"/><path d="M114.83 68.85c-.21 1.32-1 2.51-1.8 2.39-3.26-.5-2.77-4.45-5.14-6-1.26-.83-.54-2.07.41-2.92.47-.42 1-1.13 1.69-.56a20.43 20.43 0 0 1 4.84 7.09Z" class="cls-91"/><path d="M105 62.86c6.66 0 13.35.33 20-.1 5-.33 6.52 1.52 5.89 6.2-1.15 8.59-.87 17.25-.83 25.88 0 4.61 1.54 9.11.28 13.85-.62 2.37-1.25 3.33-3.78 3.31q-22.48-.14-45 0c-2.93 0-3.65-1.11-3.63-3.83.09-13.82.12-27.64 0-41.46 0-3.17 1.17-4 4.1-3.91 7.6.2 15.26.07 22.97.06Z" style="fill:#1e61b9" transform="translate(159 124)"/><path d="M108 117.51c0 3-1.44 4.14-3.39 4.18-2.2 0-3.17-1.79-3.17-3.64a3.1 3.1 0 0 1 3.2-3.08c2.15-.08 3.29 1.16 3.36 2.54Z" style="fill:#0454b5" transform="translate(159 124)"/><path d="M97.78 55.8c3.79-1.64 7.78-.95 11.61-.6 2.55.23 4 2 .67 3.93l-.51-.26c-.26-.27-.51-.56-.75-.86a2.4 2.4 0 0 0-1-.63c-3-.56-6.11.29-9.09-.64a2.2 2.2 0 0 1-.93-.94Z" style="fill:#056dc2" transform="translate(159 124)"/><path d="M110.06 59.13c-3.77 1.65-7.75 1-11.56.58-2.49-.24-4-1.94-.72-3.9l.34.33a1.75 1.75 0 0 1 .37.9 2 2 0 0 0 1.56.59c3.28.42 6.77-.92 9.81 1.24Z" style="fill:#036dc4" transform="translate(159 124)"/><path d="M-93.85-24.11a2 2 0 0 1 2 2.22l-6.66 7.15c2.88 1.71 6.09-.47 8.52 1.53-1.68 1.93-4 1-6 1.22-3 .34-6.2-.77-9.1.9-1.26-1-1.06-2.18.2-2.67 5.1-1.99 7.56-6.7 11.04-10.35Z" style="fill:#59daf7" transform="translate(159 124)"/><path d="m-89-3-1 1.24c-5.21.39-10.5 1.15-15.57-1.24C-100-3.75-94.5-5.24-89-3Z" style="fill:#d8b943" transform="translate(159 124)"/><path d="M53.54 116.12a40.18 40.18 0 0 1 15.9-.25c-3 2.39-10.68 2.7-15.9.25ZM53.9 112.91c-.17-2.7 1.85-2.16 3.36-2.17h11.71c.59 2.94-1.73 2.31-3.13 2.33-3.98.11-7.96-.07-11.94-.16Z" class="cls-5"/><path d="M311.68 229.54c-3.42 4.92-9.51 5.8-16.2 3 4.62-5.94 10.52-1.15 16.2-3Z" class="cls-36"/><path d="M145.18 111.94c-3 2.89-5.56 3.39-8.1 3.91-1.26.25-2.84.24-3-1.65s1-2.27 2.52-2.26c2.4.06 4.92 0 8.58 0Z" style="fill:#0b58b7" transform="translate(159 124)"/><path d="M-2 124h50c-.88 1-2.06.88-3.21.88H1.23c-1.16.01-2.35.12-3.23-.88Z" style="fill:#0289d5" transform="translate(159 124)"/><path d="M119 248.13c4.73.08 9.51-1 14.17.67-4.74-.19-9.52.94-14.17-.67Z" class="cls-19"/><path d="m-110.83 83.87 4.82 2.26c-.31 4.53 2.39 8.44 2.67 12.88-5.37-3.01-8.99-10.32-7.49-15.14Z" style="fill:#0450b3" transform="translate(159 124)"/><path d="M-119.27 88.64c-2.66-1.21-5.09-1.71-5.69-4.4-.22-1-1.38-2.29 0-3.08a2.57 2.57 0 0 1 3.43 1.11 14.07 14.07 0 0 1 2.26 6.37Z" style="fill:#033988" transform="translate(159 124)"/><path d="M-99.11 82.07c1.21 4.61-1.38 5.28-5 4.87l-.87-1c-.02-4.31 2.98-3.94 5.87-3.87Z" style="fill:#02c4f9" transform="translate(159 124)"/><path d="M82.59-69.79h10c1.4 0 2.74 0 2.88 1.88.17 2.16-1.45 1.81-2.71 1.81H73.85c-1.52 0-3.37-.08-3.49-1.94-.16-2.38 2-1.67 3.31-1.71 2.95-.11 5.93-.04 8.92-.04Z" style="fill:#e2eaf5" transform="translate(159 124)"/><path d="m128.89 35.93 6.89-8c.06.41.13.83.19 1.24-1.28 2.67-2.29 5.48-4.31 7.73-.9-.38-2.5 1.2-2.77-.97Z" style="fill:#cd8e40" transform="translate(159 124)"/><path d="M133.7-54c-.45 1.43-1.43 2.72-3.36 2.48a2.63 2.63 0 0 1-2.45-3.11c.17-1.55.69-2.92 2.7-2.74s3.02 1.07 3.11 3.37Z" style="fill:#fdf9f0" transform="translate(159 124)"/><path d="M-35.11-81.5c-.32 2.57-1.44 3.82-3.63 3.82s-3.35-1.52-3.36-3.53a3.26 3.26 0 0 1 3.5-3.46 3.69 3.69 0 0 1 3.49 3.17Z" style="fill:#fdfbf5" transform="translate(159 124)"/><path d="M-45.4 14.86h-12.48c-1.59 0-2.67-.57-2.76-2.14-.12-1.82.9-2.62 2.77-2.62q13 0 25.94-.14c1.53 0 2.7.46 2.72 2.14s-.74 2.78-2.71 2.76c-4.49-.04-8.99 0-13.48 0Z" style="fill:#f1f5fa" transform="translate(159 124)"/><path d="M145.5 163.94h39.18c-13.06 2.41-26.12.9-39.18 1.52Z" class="cls-73"/><path d="M185.41 160.6h-39.84c2.96-2.16 34.64-2.39 39.84 0Z" class="cls-30"/><path d="M1.38 29.13c-5 1.41-10 1.14-15.08.21 4.95-1.78 10-1.44 15.08-.21Z" style="fill:#2062ba" transform="translate(159 124)"/><path d="M-43 47a14.79 14.79 0 0 1-1.49 0c-4.4-.39-10.64 2.07-12.79-1-2.8-4-.64-10.23-.84-15.5-.08-2 1.13-2.47 2.86-2.47 8.45 0 16.9.08 25.35 0 2.58 0 2.86 1.28 3 3.39C-26 47-25.93 47-41.48 47Z" style="fill:#097bd1" transform="translate(159 124)"/><path d="M153.17 226.91c12.34 2 24.76.57 37.13.89a9 9 0 0 0 2.81-.9c2.07 4.48 2.47 9.42 4 14-9.43 0-18.85 0-28.28.17-4.77.08-9.54.49-14.31.71-1.81.08-3.65.19-5.29-.86q1.96-6.98 3.94-14.01Z" class="cls-54"/><path d="M60.21 110c-2.43-.36-3.57-1.72-3.72-3.68a2.65 2.65 0 0 1 2.72-2.91 3.22 3.22 0 0 1 3.62 3.2c.17 2.07-1.4 2.68-2.62 3.39Z" style="fill:#efbc37" transform="translate(159 124)"/><path d="M129.86 234.34c-1.76-.13-2.14-1.51-2.18-2.77a2.17 2.17 0 0 1 2.19-2.21c1.62-.08 2.25 1.21 2.46 2.55.27 1.82-1.33 1.95-2.47 2.43Z" class="cls-75"/><path d="M-82.24 109.32c0 1.55-1.73.8-2.06 1.77a4.08 4.08 0 0 1-2.26-2.89c-.22-1.19 1.17-1.74 2-1.67 1.65.12 1.56 1.94 2.32 2.79Z" style="fill:#01b9f3" transform="translate(159 124)"/><path d="M-82 86.66c-.24 1.4-1.08 2.6-2.45 2.64-1.18 0-2.78-.32-2.84-2.07-.07-2 2.11-1.57 3-2.59.29 1.11 2.38.28 2.29 2.02Z" style="fill:#01b6f2" transform="translate(159 124)"/><path d="M-93.66 30.68c.35 4.56-2.13 8.19-5.51 9s-6.3-2.69-9-6c2.63-.57 3.4 1.17 4.38 2.16 3.08 3.14 5.53 2.9 7.61-1 .76-1.41 1.68-2.77 2.52-4.16Z" style="fill:#fdedcb" transform="translate(159 124)"/><path d="M-97.26 28.52c-3.56 6.44-4.56 6.57-8.65 1.05 3.33 3.22 6.01 1.25 8.65-1.05Z" style="fill:#fdf0d3" transform="translate(159 124)"/><path d="M-101 21.2v5.05c-2.42-1.5-1.46-3.25 0-5.05Z" style="fill:#fdfaf5" transform="translate(159 124)"/><path d="M262.66 234.88c-7.16 0-14.32-.11-21.47.06-2.65.06-3.4-.77-3.37-3.38q.17-20.24 0-40.47c0-2.37.69-3.13 3.1-3.12q22 .15 44 0c2.78 0 3.41 1.18 3.4 3.52-.11 13.49-.22 27-.24 40.45 0 2.56-1.25 3-3.42 3-7.35-.11-14.66-.06-22-.06Z" class="cls-1"/><path d="M97.92 58a3.05 3.05 0 0 1-.24-.7c0-.07.2-.18.31-.27a26.63 26.63 0 0 1 11.85.06.6.6 0 0 1 .07.84 28.34 28.34 0 0 1-11.99.07Z" style="fill:#f3b52a" transform="translate(159 124)"/><path d="m97.92 58 12-.07a2.12 2.12 0 0 1 0 1c-4.04-.38-8.15 1.07-12-.93Z" style="fill:#80836c" transform="translate(159 124)"/><path d="M109.84 57.06 98 57a3.14 3.14 0 0 1 .13-.86c3.87.25 7.96-1.44 11.71.92Z" style="fill:#a59356" transform="translate(159 124)"/><path d="M-30.88 37.8h-22.35c2.7-2.27 17.91-2.6 22.35 0Z" style="fill:#3db0e5" transform="translate(159 124)"/><path d="M-52.93 33.23h22v.55h-21.91Z" style="fill:#6ce2f7" transform="translate(159 124)"/><path d="M-52.89 42.24h11c-3.63 1.25-7.31.76-11 0Z" style="fill:#67dcf5" transform="translate(159 124)"/><path d="M97.89 101.82c-.56-3.57-.27-5.81 4.34-5.61 8.33.37 7.87.14 8.46 5.88.7 6.88-3.81 5.1-7.53 5.54-4.97.59-6.26-1.63-5.27-5.81Z" style="fill:#0ac5f9" transform="translate(159 124)"/><path d="M109.61 86.78c4.13-4.21 8.1-8.34 12.16-12.37 2.21-2.19 2.77 0 3.22 1.51a9.29 9.29 0 0 1-3.55 10.93c-3.97 3.04-7.82 2.78-11.83-.07Z" style="fill:#fbba2a" transform="translate(159 124)"/><path d="M256.47 196.64c-3.77 3.73-7.55 7.36-11.25 11.14-1.57 1.59-2.57 1.14-3.17-.71-1.33-4.11-.73-7.89 2.67-10.78 3.79-3.23 7.28-3.11 11.75.35Z" class="cls-75"/><path d="M247.66 231.1c-6.47 0-8.41-2.78-6.7-8.8a1.79 1.79 0 0 1 2.09-1.51 27.56 27.56 0 0 0 5-.06c5-.91 6 1 6.14 6 .15 6.41-4.07 3.84-6.53 4.37Z" class="cls-54"/><path d="M120 107.22c-4.22.6-7.08.61-7.15-5.37-.07-6.19 3.41-4.86 6.88-5.11 4.12-.31 6.5 0 6.45 5.46-.06 5.28-2.28 5.74-6.18 5.02Z" style="fill:#00c3f9" transform="translate(159 124)"/><path d="M92 89.12c-1.64-.05-3.8.24-4.59-1.18-1-1.84 1.33-2.69 2.35-3.79 2.48-2.68 5.11-5.22 7.73-7.76.68-.66 1.61-1.64 2.31-1.55 1.45.17 1.17 1.8 1.4 2.86A9.45 9.45 0 0 1 92 89.12Z" style="fill:#07c5f9" transform="translate(159 124)"/><path d="M106.07 79.66A10.4 10.4 0 0 1 117 69.37c1.08.07 2.59.4 3.09 1.15 1 1.53-.86 2.19-1.65 3-2.6 2.75-5.31 5.41-8 8-.91.88-1.74 2.57-3.1 2-1.66-.52-1.22-2.4-1.27-3.86Z" style="fill:#fbbb2e" transform="translate(159 124)"/></svg>