<svg xmlns="http://www.w3.org/2000/svg" width="285" height="570"><path fill="#38319B" d="M204.07 94.465q.028-.166.06-.331c.22-1.168.41-2.059 1.466-2.756.205-.136.459-.007.693.044.434.656.581 1.157.708 1.912-1.026.782-1.617 1.037-2.928 1.13M46.862 127.04q-.412-.01-.823-.033c-1.064-.066-1.485-.338-2.176-1.123-.058-.693-.02-.67.43-1.21.785-.267 1.368-.367 2.201-.34.383.875.35 1.768.368 2.706M237.526 124.318c.988-.083 2.36-.348 3.18.354.149.127.27.27.392.422-.01.557.026.687-.4 1.1-.684.662-1.933.683-2.83.768-.135-.81-.022-1.245.29-1.986l.1-.235zM77.958 94.674c-.045-1.12-.32-2.857.465-3.75.128-.146.27-.266.42-.386.596.087.668.08 1.041.602.716 1.003.469 2.6.426 3.778-.705-.095-1.244-.239-1.868-.597l-.134-.08z"/><path fill="#3FBEB1" d="M38.823 489.724c.711.595.64 1.458.853 2.351.925.02 1.905-.06 2.745.382l.137.453c-.633.665-2.223.574-3.1.974q-.157.83-.38 1.642c-.243.037-.415-.036-.648-.1-.088-.517-.188-.999-.348-1.5-.422-.186-.794-.312-1.254-.345-1.392-.103-1.84-.37-2.862-1.322 1.002.328 2.432.643 3.46.326 1.068-.755 1.132-1.667 1.397-2.861"/><path fill="#51BCE6" d="M250.041 378.44c1.206.877 1.473 2.967 2.884 3.666-.669 1.21-1.609 2.524-2.517 3.565l-.266-.009-2.285-3.298c.844-1.283 1.56-2.516 2.184-3.924"/><path fill="#FDFDFC" d="M37.189 190.8c1.627 1.259 2.692 5.397 3.416 7.36l-3.658-.032-3.215-.012c1.361-2.346 2.454-4.8 3.457-7.317M29.684 190.584c.109.118.221.241.314.372.764 1.078 3.286 6.01 3.114 7.13l-2.171.04-4.344-.076q1.596-3.711 3.087-7.466"/><path fill="#ED9E3B" d="M83.235 495.123q.171.151.352.295c2.898 2.26 5.296-3.64 7.925-3.969-1.616 3.46-6.713 6.229-10.15 7.484-1.648.601-4.771 1.534-6.418.804q-.061-.026-.122-.06c.466-1.484 6.327-2.91 8.413-4.554"/><path fill="#51BCE6" d="M165.411 345.871c1.22 1.33 2.013 3.22 3.663 4.11-.555.989-2.587 3.842-3.47 4.212-.932-.273-3.57-3.237-4.272-4.097.082-.011.165-.017.246-.033 1.49-.282 3.101-3.017 3.833-4.192M94.621 60.68c.589-.064 1.172-.092 1.76-.015q.175.024.345.065.172.041.338.1.165.058.325.132.159.075.31.166.15.09.292.195.14.105.27.224t.247.25.22.274c.517.71.702 1.605.56 2.467-.244 1.496-1.16 2.462-2.352 3.3a4 4 0 0 1-.803-.021c-1.236-.17-2.415-.55-3.189-1.59-.527-.71-.712-1.627-.568-2.494.246-1.48 1.085-2.206 2.245-3.052"/><path fill="#38319B" d="M150.873 115.52c-1.131.484-2.757.268-3.978.255l-.27 10.008-4.24.01-.507-.167q-.076-4.961-.088-9.923c-1.187.06-2.844.357-3.961-.06 1.454-.004 2.922-.046 4.375-.002 2.885-.173 5.78-.126 8.67-.12"/><path fill="#51BCE6" d="M116 347.424c.238.1.482.214.676.39 1.292 1.174 1 4.133 1.007 5.705.976.716 2.444.203 3.601.457.947.206 1.64.61 2.152 1.42-.265.205-.588.508-.918.59-1.473.364-3.459.489-4.822-.254 0 1.817.372 4.531-.94 5.906-.328.209-.392.18-.786.167-1.125-1.294-.717-4.425-.706-6.048a4 4 0 0 1-.578.287c-1.115.448-3.46.314-4.547-.162-.444-.195-.4-.23-.574-.684 1.38-2.302 3.705-.554 5.644-1.604q.07-.04.137-.083c-.022-2.051-.113-4.15.654-6.087"/><path fill="#4052C4" d="m136.382 115.577 1.447.067c1.117.416 2.774.118 3.961.059q.012 4.962.088 9.923l-.113.116c-1.776.097-3.5.247-5.257.533.044-3.559-.083-7.138-.126-10.698"/><path fill="#F4B03E" d="m132.061 106.28.37-.13c2.583 1.944 6.444 2.622 9.631 2.75.299 2.308.168 4.433.142 6.74-1.453-.043-2.921 0-4.375.004l-1.447-.067c-1.1-.004-2.86.197-3.739-.572-1.316-1.152-.563-6.904-.582-8.726"/><path fill="#EC8B2C" d="M212.404 184.888c3.395-.093 6.518 1.414 8.96 3.713q.294.279.574.572t.545.6.515.626.483.65.45.673.418.695.382.715.347.732q.165.37.311.748t.273.763.236.776.197.786.158.794.12.802.078.806.04.81c.1 4.3-1.425 8.76-4.453 11.859-2.5 2.56-5.533 3.284-8.585 4.848l-1.446-.657c3.324-2.178 6.57-3.113 8.969-6.591q.223-.324.43-.658.208-.334.4-.678.19-.343.365-.696.174-.352.331-.712t.296-.729q.14-.367.262-.741.121-.374.225-.753.103-.38.188-.764t.151-.771.114-.778.076-.782.038-.785q.01-.394 0-.787-.008-.393-.037-.785t-.075-.782q-.048-.39-.113-.778c-.881-4.88-3.387-8.228-7.634-10.744-1.13-.669-2.378-1.133-3.45-1.894z"/><path fill="#FDFDFC" d="M251.094 198.301c2.636 2.5 5.558 10.162 7.3 13.72l-7.14-.014-7.034-.072c2.575-4.36 4.66-9.081 6.874-13.634"/><path fill="#EC8B2C" d="M142.774 106.072c2.751.263 5.36.039 8.036-.617l.04 2.357.023 7.708c-2.889-.005-5.784-.052-8.67.12.027-2.307.158-4.432-.141-6.74-3.187-.128-7.048-.806-9.63-2.75.83-.216 1.586-.27 2.441-.294 1.375 1.053 5.81.52 7.618.482z"/><path fill="#CB7A38" d="M142.774 106.072c2.751.263 5.36.039 8.036-.617l.04 2.357c-2.276.556-5.944 1.988-8.133.768-.48-.873-.32-1.267-.226-2.242z"/><path fill="#FDFDFC" d="M46.58 369.534c2.13 3.9 4.219 12.335 7.36 14.998-1.132.616-2.47.758-3.743.774-1.183.014-1.888-.083-2.745-.91a4.1 4.1 0 0 1-1.478.727c-1.71.425-4.652.498-6.185-.435 1.805-1.277 5.676-12.396 6.79-15.154M237.43 197.21c2.652 3.754 4.98 10.43 6.662 14.818l-6.337.02-7.344-.009c1.45-4.856 4.696-10.285 7.02-14.83"/><path fill="#F4B03E" d="m83.235 495.123.483.02c1.796-.905 3.334-2.736 4.67-4.217 5.886-6.521 6.558-15.288 6.29-23.666-.065-2.037-.525-4.453.253-6.387.797-.643 1.465-.515 2.471-.585.313 8.97 1.288 23.88-5.367 30.86-.16.168-.302.24-.523.301-2.63.329-5.027 6.229-7.925 3.969a9 9 0 0 1-.352-.295"/><path fill="#EC8B2C" d="M154.308 93.514q5.232-.15 10.464-.031l.782.101c.211.34.294.364.199.756-.673 2.775-5.16 6.51-7.53 7.897-2.217 1.296-5.003 2.28-7.413 3.218-2.676.656-5.285.88-8.036.617 6.312-3.345 10.584-5.343 13.64-12.23q-1.055-.15-2.106-.328"/><path fill="#FDFDFC" d="M32.237 369.191c2.115 1.798 5.664 12.494 7.32 15.798-1.01.217-2.111.312-3.142.331-1.343.028-2.17-.02-3.156-.963-.525.482-.928.727-1.639.83-1.557.225-4.724.378-6.053-.624 2.195-2.093 5.355-11.931 6.67-15.372"/><path fill="#ED9E3B" d="M136.443 93.643c5.767-.46 12.084-.427 17.865-.13q1.05.178 2.105.329c-3.055 6.887-7.327 8.885-13.639 12.23l-.283.266c-1.807.038-6.243.57-7.618-.482 1.494-.129 6.614.415 7.528-.337l.027-.276c.353-3.8.09-7.62.036-11.437-1.604.019-4.608.436-6.021-.163"/><path fill="#51BCE6" d="M175.168 66.43c.611.583 1.142 1.94 1.582 2.7 2.79 4.827 3.949 5.146 8.936 7.07-.965.301-1.894.69-2.815 1.105-4.41 1.989-5.888 4.944-7.517 9.246-3.176-7.489-2.923-6.66-9.662-10.35l.05-.217c1.07-.389 2.165-.762 3.21-1.217 3.134-1.362 5.007-5.382 6.216-8.338"/><path fill="#4052C4" d="m210.805 216.323 1.202-.124 1.446.657c2.774 6.35 5.013 12.908 7.762 19.252-1.26-.208-2.508-.489-3.758-.748l-3.735-.633-.079-.376c1.148.008 2.366.367 3.49.602-.916-2.664-5.227-15.626-6.404-17.426l.105-.128a5 5 0 0 1-.04-.796zM58.45 431.594c-.223-4.918-.76-10.19 1.127-14.865 1.555-3.855 5.3-7.535 9.582-8.019 1.393-.156 3.078.075 4.366-.5q.075-.035.15-.073l.861.718c.07 1.767-.288 3.46.31 5.163.1.284.181.579.278.865-1.346.671-4.733.507-6.142.028l-.234-.086-.115.133c-.693.777-1.647 1.222-2.309 1.996-2.202 2.574-2.176 7.34-2.03 10.562.057 1.289.06 2.72.315 3.98q-.035.047-.074.086c-.043.048-.09.09-.135.134-.037.039-.071.078-.11.114-.691.668-2.087.766-3.008.74-1.077-.03-2.06-.17-2.832-.976"/><path fill="#51D4BF" d="M210.897 381.666c1.553-2.385 4.246-13.604 5.07-16.997.426-1.754.557-4.37 1.527-5.856l.464.696c-1.654 4.945.202 26.284-.902 28.202-1.753 1.36-13.678-.13-14.296.242-.098.058-.29.41-.367.52q.01-.086.017-.17c.008-.094.01-.189.017-.283.23-3.145-2.435-10.203-3.293-13.46q-1.082-4.124-1.86-8.319c.961 2.274 11.543 14.554 13.623 15.425"/><path fill="#F4B03E" d="M121.223 93.465c5.05.02 10.19-.24 15.22.178 1.413.599 4.417.182 6.02.163.055 3.817.318 7.637-.035 11.437l-.027.276c-.914.752-6.034.208-7.528.337-.855.024-1.61.078-2.441.293l-.37.13c-3.375-1.573-6.732-3.24-9.578-5.67-2.417-1.754-4.097-4.543-5.499-7.12z"/><path fill="#F6C044" d="M122.484 100.609c1.661-1.01 16.815-.349 19.789-.343 0 1.655-.197 3.648.128 5.253-.914.752-6.034.208-7.528.337-.855.024-1.61.078-2.441.293l-.37.13c-3.375-1.573-6.732-3.24-9.578-5.67"/><path fill="#3FBEB1" d="m217.958 359.509 4.006 13.944c.706 2.44 1.317 5.143 2.303 7.484 2.31-.788 12.046-11.99 13.22-14.348-.931 5.494-3.252 16.46-5.622 21.297-2.823 1-11.375.877-14.206-.117l-.603-.058c1.104-1.918-.752-23.257.902-28.202"/><path fill="#F6C044" d="M210.31 184.91c.578-.028 1.19-.233 1.754-.369l.34.347q.07.052.14.103c1.071.76 2.319 1.225 3.449 1.894 4.247 2.516 6.753 5.863 7.634 10.744q.065.387.113.778.047.39.075.782.029.392.038.785.01.393 0 .787-.01.393-.039.785t-.076.782-.114.778-.151.771-.188.764q-.104.379-.225.753t-.262.741-.296.729-.331.712-.366.696-.398.678-.431.658c-2.4 3.478-5.645 4.413-8.97 6.591l-1.201.124-.384.027a68 68 0 0 1 .06-4.2l-.353.01c.083-2.547-.22-5.188.367-7.683.703-.16 1.006-.195 1.557-.691l.026-1.403c.829-.895 1.837-.768 3.001-.833.196-.148.567-.338.625-.576.168-.695-.041-1.817-.437-2.413-.305-.459-1.78-.602-2.338-.744-.592-.914.109-1.758-.442-2.723l-.587-.128c-.717-.32-1.206-.44-1.636-1.152-.894-1.485-.292-3.532.083-5.092-.327-1.235.002-2.536-.038-3.811"/><path fill="#51D4BF" d="M210.347 188.722c3.726 1.188 6.585 2.639 8.461 6.302q.138.27.263.545.124.275.235.557.11.281.207.567.097.287.18.578.082.29.15.585t.12.593q.054.297.092.597.039.3.062.601.024.302.032.604t.002.604q-.006.302-.027.604-.022.302-.058.602t-.087.598-.117.593-.146.587q-.08.29-.174.578c-1.053 3.178-3.384 5.412-6.333 6.863-.894.44-1.739.744-2.727.87l-.354.01c.083-2.547-.22-5.188.367-7.683.703-.16 1.006-.195 1.557-.691l.026-1.403c.829-.895 1.837-.768 3.001-.833.196-.148.567-.338.625-.576.168-.695-.041-1.817-.437-2.413-.305-.459-1.78-.602-2.338-.744-.592-.914.109-1.758-.442-2.723l-.587-.128c-.717-.32-1.206-.44-1.636-1.152-.894-1.485-.292-3.532.083-5.092"/><defs><linearGradient id="a" x1="783.939" x2="676.948" y1="639.909" y2="550.829" gradientUnits="userSpaceOnUse"><stop offset="0" stop-color="#4147B9"/><stop offset="1" stop-color="#6067CD"/></linearGradient></defs><path fill="url(#a)" d="M731.842 582.599c5.566.572 3.12-8.298 5.585-11.212.831-.981 2.531-2.026 3.565-2.854-.201 4.515-.366 9.002-.325 13.523 13.81-.114 78.44-3.246 84.94 3.922 3.187 3.514 3.871 10.043 3.354 14.55-.303 2.645-1.175 4.315-3.286 6.007-8.756 7.014-50.76 5.122-62.797 3.605.029 11.5-.926 24.034 1.301 35.341-2.57-1.32-4.794-2.09-7.611-2.687l-9.218.147c2.127-9.824.805-22.444.5-32.593-10.501 2.255-23.863.79-34.761.832-23.75.091-47.592.565-71.331-.095 1.121-2.031 1.424-4.631 1.907-6.891 1.015-6.475 1.581-12.736.964-19.279l1.002-1.541c11.739-2.751 48.031-.335 63.628-1.171 7.32-.247 15.333-.865 22.583.396" transform="scale(.27832)"/><path fill="#38319B" d="M203.686 162.149c1.55.16.869-2.31 1.555-3.12.231-.274.704-.564.992-.795a70 70 0 0 0-.09 3.764c3.843-.032 21.83-.904 23.64 1.091.887.978 1.077 2.796.933 4.05-.084.736-.327 1.2-.914 1.672-2.437 1.952-14.128 1.425-17.478 1.003.008 3.2-.258 6.69.362 9.836a8 8 0 0 0-2.118-.748l-2.566.041c.592-2.734.224-6.246.14-9.07-2.923.627-6.642.219-9.675.23-6.61.026-13.246.158-19.853-.026.312-.565.396-1.289.53-1.918q11.902-.136 23.803-.042c4.636.06 20.344 1.107 23.143.281.81-.238 1.612-.657 1.994-1.456.329-.689.254-1.523-.027-2.213-.205-.504-.603-1.13-1.11-1.37-1.187-.564-5.99-.057-7.599-.036-5.158.068-37.291.727-39.755-.44l-.18-.09.279-.428c3.267-.766 13.368-.094 17.709-.326 2.037-.069 4.267-.241 6.285.11M71.837 169.955q-.067.015-.136.027c-1.954.349-16.305.404-17.412-.496-.928-.754-1.289-2.123-1.383-3.261-.092-1.116-.005-2.403.81-3.26.785-.824 2.613-.934 3.694-1.022 5.873-.478 12.058-.102 17.958-.083 10.318.034 20.652-.046 30.966.2l-.03 1.45c.121 1.423.334 2.897.301 4.323l.431 1.948-30.433.171c-.024 2.974-.495 6.808.172 9.689-.727-.131-1.466-.357-2.185-.536l-.363-.114c-.7.173-1.673.533-2.378.478.7-1.574.084-7.49-.012-9.514"/><path fill="#4052C4" d="M71.837 169.955c1.132-.405 2.677-.2 3.874-.185q-.872 4.59-1.484 9.22c-.7.174-1.673.534-2.378.48.7-1.575.084-7.49-.012-9.515M106.605 167.833c-5.152.015-50.125.679-51.641-.369-.386-.267-.676-.796-.737-1.257a2.4 2.4 0 0 1 .56-1.853c.39-.439.93-.648 1.5-.712 5.211-.582 10.432.035 15.636.025q17.19-.19 34.38-.157c.122 1.423.335 2.897.302 4.323"/><path fill="#38319B" d="m73.675 408.137.76.108.653-.56c.654.81 1.12.97 2.16 1.075 1.16.12 2.52.048 3.633.376 2.07.61 3.786 2.338 5.953 3.023l.108.244c.886 1.996 2.376 3.758 3.017 5.845 1.305 4.25-.677 9.516.444 13.407-.58.634-1.406.726-2.22.838-1.5.203-3.175.02-4.405-.91.813-2.363.689-7.807.162-10.268-.474-2.215-1.668-4.225-3.606-5.458-1.774-1.127-3.2-1.419-5.21-.974-.097-.286-.177-.581-.278-.865-.598-1.704-.24-3.396-.31-5.163z"/><path fill="#8777D7" d="M173.522 371.9c1.772.91 5.82.943 7.812.71.094 1.12.038 2.415.315 3.503.826 3.243 4.258.49 6.087 1.534 1.655 1.784 2.561 4.581 2.918 6.969.113.757.22 1.653-.283 2.296-.646.827-2.072.52-2.979.735-.844.2-1.468 1.773-1.905 2.51.499 1.172 1.081 2.143 2.17 2.848a10 10 0 0 1-.202.378c-1.063 1.895-4.455 4.662-6.57 5.16-2.182.515-1.858-1.717-3.304-2.563q-.073-.041-.15-.078c-1.177.668-2.424.415-3.688.192-.444.96-.901 1.764-1.563 2.591-.352.022-.654.003-.99-.117-2-.71-5.41-3.212-6.285-5.107.029-1.027 1.094-2.112 1.548-3.067l.1-.212c-.854-.506-1.334-1.697-1.785-2.546-.464.139-1.244.3-1.722.267-.458-.03-.765-.217-1.057-.551-.624-.713-.67-1.631-.615-2.533.139-2.33 1.454-6.256 3.206-7.848.85.192 1.658.49 2.5.698 3.18.788 3.36-3.869 6.442-5.77m.937 7.76c-1.937 1.366-3.526 2.76-3.943 5.254-.233 1.391.205 2.808 1.03 3.932.218.298.47.513.784.696.85.76 2.15 1.303 3.304 1.21.507-.04.898-.141 1.24-.536q.089-.11.174-.217c.877.2 1.56.189 2.341-.304 1.044-.662 1.583-2.012 1.807-3.175.292-1.528.028-3.131-.866-4.423-1.354-1.956-3.947-1.489-5.871-2.438"/><path fill="#F6C044" d="M74.911 459.746c2.383.083 22.45.217 22.563.256l-.072.286c-1.006.07-1.674-.058-2.47.585-.78 1.934-.32 4.35-.254 6.387.268 8.378-.404 17.145-6.29 23.666-1.336 1.48-2.874 3.312-4.67 4.216l-.483-.02c-2.086 1.646-7.947 3.07-8.413 4.554-.285.195-.605.404-.943.493-1.12.3-3.126-.245-4.063-.868 1.453-.273 3.611-.418 4.765-1.392.356-12.7.162-25.455.33-38.163"/><path fill="#864BAE" d="M90.131 367.65q.075.026.15.052c.557.167.828.117 1.351-.064.528-.183.948-.322 1.478-.03.395.22.77.582 1.108.88 1.061.127 1.76-.813 2.456.097.217.284.378.673.536.996.878.501 1.603-.139 2.304.106.767.27.717 1.444 1.158 1.937.664.743 1.517-.111 2.022.164.656.356.699 1.756 1.105 2.307.643.869 1.989-.005 2.305 1.047.308 1.027 0 1.572.734 2.452.448.136 1.35.256 1.573.657.251.453.097 1.135.039 1.628.82 1.506 2.031 3.32 2.522 4.954.933 3.109.534 8.316-.292 11.467-.147.56-.747.826-1.215 1.108-.266.999.365 1.862-.065 2.755l-1.38.676c-.124.657-.026 1.383-.152 1.999-.165.804-2.798 2.852-3.507 3.384-.81.61-.664 1.684-1.307 2.19-2.085 1.637-4.506 1.275-6.472 3.585-1 .19-1.387-.682-1.958-.626-.687.067-1.102 1.096-1.731 1.21-.837.154-1.742-.687-2.763-.57-.065-5.664 1.152-12.21-.208-17.704l-.204-.008c.065-2.786-1.46-5.514-2.06-8.21.955.077 1.32.066 2.195-.326.31-.103.232-.017.387-.276.312-.518.193-16.705-.109-17.837"/><path fill="#51BCE6" d="M89.853 385.763c.153.225.377.707.639.76 3.202.648 12.318-6.764 14.445-4.028-.83 2.666-8.817 6.786-11.297 8.656-1.138.86-2.275 2.349-3.398 3.022-.08.048-.244.106-.32.134l-.204-.008c.065-2.786-1.46-5.514-2.06-8.21.955.077 1.32.066 2.195-.326"/><path fill="#8866CB" d="M83.778 431.582c1.23.93 2.905 1.114 4.405.91.814-.11 1.64-.203 2.22-.837.211.15.547.47.777.556 1.178.432 8.691.332 10.114.109a6 6 0 0 0 1.073-.29c.05 5.32.494 12.394-.003 17.546q.08 4.929.046 9.858c-1.538.827-3.282.245-4.936.568-.112-.04-20.18-.173-22.563-.256l-.298-.078-.042-10.053-1.077.053.715-.009c.926-1.416.506-13.534.346-15.747-.078-1.08-.3-1.383-1.087-2.068 2.519.685 7.964 1.038 10.31-.262"/><path fill="#DD779E" d="M86.055 435.966c1.172.657 2.31.337 3.53.008.106.156.106.167.26.326.712.735 2.478 2.282 3.504 2.335.165 1.155.35 2.33.302 3.496-.063 1.478-.357 3.498-1.589 4.497-.717.582-1.292.552-2.157.42-.507.727-.883.975-1.757 1.122-1.05.178-2.085-.197-2.92-.826-1.505-1.136-2.62-2.998-2.862-4.87-.41-3.182 1.855-4.137 3.535-6.308z"/><path fill="#4052C4" d="M86.966 438.696c.567.281 1.244.376 1.83.646.895.418 1.76 1.598 2.045 2.541.233.765.056 1.317-.301 1.99-.732.362-.807.362-1.615.231-.077.09-.2.242-.3.323q-.121.095-.252.175-.13.084-.269.15-.138.067-.283.12t-.294.092q-.15.036-.302.059-.152.022-.306.027t-.308-.005-.305-.036c-.461-.36-.713-.888-.803-1.462-.336-2.126.218-3.195 1.463-4.85M74.571 449.615c2.002 1.04 24.508 1.127 27.141.312a2.1 2.1 0 0 0 .652-.351q.08 4.929.046 9.858c-1.538.827-3.282.245-4.936.568-.112-.04-20.18-.173-22.563-.256l-.298-.078z"/><path fill="#BE65C2" d="M75.088 407.686c.066-.393-.077-.676-.215-1.033-.251-.078-.154-.041-.44-.164-1.425-.601-4.331-5.383-4.951-6.916.14-.68.278-1.191.074-1.876-.338-.217-.797-.47-1.049-.785-.929-1.158-.865-9.521-.591-11.269.288-.278.69-.607.908-.944.337-.523.093-.97-.042-1.51-.173-.697-.334-1.156.047-1.79l1.042-.103c.54-.894-.124-1.89.393-2.859.545-.328 1.059-.4 1.674-.506.48-.718.382-1.228.412-2.08.652-.703 1.66-.356 2.096-1.09.402-.674.024-1.64.724-2.263 2.542.164 1.722-1.514 3.699-2.318 1.774.347 1.543-.685 2.866-1.392.4.106.922.29 1.335.292 1.043 0 1.24-.885 2-1.375.195-.125.332-.22.53-.103 2.578 1.52 2.226-.325 4.531.048.302 1.132.421 17.32.11 17.837-.156.259-.078.173-.388.276-.875.392-1.24.403-2.195.325.6 2.697 2.125 5.425 2.06 8.21l.204.01c1.36 5.493.143 12.04.208 17.703-1.005.423-1.2-.067-2.176-.234-.605-.103-.652.025-1.12.382-2.167-.685-3.882-2.414-5.953-3.023-1.113-.328-2.474-.256-3.633-.376-1.04-.106-1.506-.264-2.16-1.074"/><path fill="#FDFDFC" d="M89.718 394.299c-.127.261-.26.512-.419.757-.358.545-1 .83-1.622.946-1.096.2-2.219-.317-3.1-.924-1.275-.88-2.374-2.366-2.606-3.919-.151-1.016.093-1.928.704-2.75 1.27-1.703 3.016-2.028 4.983-2.32.6 2.696 2.125 5.424 2.06 8.21"/><path fill="#DD779E" d="M64.61 431.496c1.178 1.16 2.604 1.072 4.192 1.06 1.501-.008 3.304-.036 4.666-.712.788.685 1.009.988 1.087 2.068.16 2.213.58 14.33-.346 15.747l-.715.009 1.077-.053.042 10.053c-.77.153-1.221.02-1.931-.234-1.767.765-20.056.635-22.31.217l-.913.66c-1.37-.713-3.051-.178-4.463-1.183-.67-2.836-.156-6.669.376-9.516-.808-5.834-.28-12.21.031-18.08.44.379.901.535 1.464.618 1.608.242 9.58.593 10.854-.014.238-.114.51-.378.729-.542.771.807 1.755.946 2.832.977.92.025 2.317-.073 3.009-.74.038-.037.072-.076.11-.115.044-.044.091-.086.134-.134q.04-.038.074-.086"/><path fill="#E098C7" d="M58.715 435.407c1.14.612 2.402.965 3.591 1.472 1.215.518 2.158 1.714 2.614 2.93.59 1.576.452 3.38-.255 4.893-.501 1.072-1.368 2.21-2.552 2.561-.86.256-1.404.078-2.137-.367-.631.412-1.098.637-1.862.584-1.38-.095-2.636-.83-3.497-1.895-1.051-1.3-1.579-2.995-1.352-4.66.446-3.28 3.144-3.662 5.31-5.402q.07-.057.14-.116"/><path fill="#4052C4" d="M60.386 438.488q.753.32 1.511.623c.485.612.781 1.158.962 1.923.235.994.115 2.03-.46 2.89-.36.542-.938 1.029-1.608 1.09-.768.07-1.07-.197-1.648-.623-.59.044-.809-.034-1.346-.295-.659-.323-1.091-.632-1.31-1.37-.213-.72-.057-1.322.283-1.967.797-1.514 2.114-1.779 3.616-2.271"/><path fill="#2AA4ED" d="M45.372 449.612c1.771.938 25.05 1.18 27.56.328.206-.07.374-.164.562-.272l1.077-.053.042 10.053c-.77.153-1.221.02-1.931-.234-1.767.765-20.056.635-22.31.217l-.913.66c-1.37-.713-3.051-.178-4.463-1.183-.67-2.836-.156-6.669.376-9.516"/><path fill="#F5DD78" d="m74.613 459.668.298.078c-.168 12.708.026 25.463-.33 38.163-1.154.974-3.312 1.119-4.765 1.392-.366.153-.728.247-1.125.23-4.451-.158-10.076-3.949-13.035-7.141-5.743-6.196-6.19-13.521-6.267-21.55q-.095-5.266.07-10.53l.914-.659c2.253.418 20.542.548 22.309-.217.71.253 1.162.387 1.931.234"/><path fill="#FDFDFC" d="M53.632 461.004c.846.136 1.473.211 2.153.773 1.177 2.416.748 15.085.352 18.258-.088.699-.202 1.091-.77 1.523-.657.373-.682.423-1.418.292-.38-.323-.624-.64-.791-1.11-.93-2.63-.634-17.538.474-19.736"/><path fill="#38319B" d="M131.967 79.215c-3.18-2.642-5.202-6.627-5.605-10.734-.406-4.135.721-8.247 3.439-11.444 2.547-2.996 6.456-5.1 10.39-5.372 4.002-.276 8.142 1.198 11.125 3.857q.287.259.56.531.273.273.533.559.26.285.504.584.245.298.475.607.23.31.444.631.215.321.413.653.198.33.38.671.181.34.346.69t.311.706.276.72.24.733q.111.37.204.744.092.375.166.754.074.378.13.76.055.382.09.766.037.385.054.77c.234 4.77-1.596 8.951-4.788 12.412q-.312.339-.642.661c.218 4.729.479 8.945-.95 13.527 4.793.089 9.98-.215 14.71.482q-5.232-.119-10.464.03c-5.781-.297-12.098-.33-17.865.13-5.03-.417-10.17-.158-15.22-.178 3.793-.497 7.645-.484 11.464-.448-1.035-4.798-.848-8.955-.72-13.802"/><path fill="#C1B1EE" d="M134.213 90.624c2.648-.166 12.895-.778 14.857.1l.174.456-.442.54c-2.289.556-12.73.801-14.798-.01l-.238-.648z"/><path fill="#FDFDFC" d="M136.513 87.532c3.375-.094 9.55-.702 12.604.328.457.154.43.166.653.588l-.268.348c-.852.47-1.841.465-2.79.544-3.044.017-6.095.063-9.138.02-1.312-.02-3.54.102-4.498-.886l.075-.48c.946-.553 2.287-.435 3.362-.462M140.944 53.281c3.824.28 7.361 1.403 10.155 4.166q.24.238.467.487.227.25.442.51t.416.53q.202.27.39.55.189.28.363.57t.334.586.304.602q.145.305.274.616.13.312.244.63.114.317.212.64.098.322.18.65.082.327.148.658.066.33.116.665.049.333.082.67.033.335.049.672t.016.674c.009 4.706-2.202 8.294-5.4 11.518v7.883l-7.654-.001-8.712.05c-.333-2.626-.167-5.28-.015-7.913-2.93-2.708-5.06-5.965-5.562-10.012q-.044-.333-.071-.668-.028-.334-.039-.67t-.005-.671.028-.67.06-.67q.039-.333.094-.664t.126-.66q.071-.327.158-.652.088-.324.19-.643.104-.32.223-.634.118-.314.252-.622.134-.307.283-.608.15-.301.313-.594.164-.293.342-.578t.37-.56q.191-.276.396-.542c2.669-3.41 6.274-4.776 10.43-5.295"/><path fill="#F4B03E" d="M145.975 57.772c2.785 1.892 4.88 3.97 5.569 7.417.524 2.619.035 5.275-1.452 7.5-1.484 2.217-6.257 4.618-6.654 5.447-.088.184-.024.736.012.932.144.784.272.969-.017 1.754-.531.508-.993.89-1.776.897-.84.009-1.36-.312-1.982-.82-.292-.579-.54-.917-.316-1.585.157-.468.573-.854.783-1.298a9 9 0 0 1-.081-.63c-.206-2.378 4.425-17.81 5.914-19.614"/><path fill="#F6C044" d="M140.142 78.016c-2.732-1.266-5.192-2.699-6.838-5.325q-.143-.228-.274-.462t-.25-.474q-.12-.24-.227-.487-.107-.246-.202-.497-.094-.251-.176-.507t-.151-.515-.125-.522q-.055-.263-.098-.528-.042-.265-.071-.531-.03-.267-.045-.535-.016-.268-.018-.536-.002-.269.01-.537.01-.268.036-.536.024-.267.063-.533.038-.265.09-.529.051-.263.116-.523.057-.236.126-.468t.149-.46.172-.454.194-.444.215-.434.237-.422.258-.41q.133-.202.277-.397t.297-.383q.153-.187.316-.367.162-.18.333-.352.17-.171.35-.334t.367-.317q.187-.154.382-.298.194-.144.396-.279.201-.134.409-.259c3.034-1.778 6.262-1.397 9.515-.59-1.49 1.805-6.12 17.237-5.914 19.616q.029.317.08.63"/><path fill="#F4B03E" d="M202.393 388.473c.078-.11.269-.462.367-.52.618-.373 12.543 1.119 14.296-.242l.603.058c2.831.994 11.383 1.116 14.206.117 1.123 6.466 2.338 12.906 3.353 19.388.688 4.392 1.152 8.84 1.945 13.206-1.106 1.166-2.95.905-4.5.947-3.014.078-12.693.707-14.972-.75-.193.093-.384.173-.58.26-.666.286-1.285.423-2 .517-2.087.279-5.395.515-7.166-.835-.186.206-.395.412-.649.535-1.863.899-5.314.431-7.153-.384-.186.161-.397.348-.627.442-.712.29-.988.231-1.617-.094-.538-.78-.444-1.44-.383-2.341 1.236-10.153 3.71-20.153 4.877-30.304"/><path fill="#864BAE" d="M217.427 395.835c.663 1.47 1.116 3.526 2.159 4.74 1.195.996 3.578 1.25 5.079 1.113.466-.042.934-.145 1.34-.381-.832 1.489-2.348 4.122-4.048 4.676-.17.055-.328.066-.504.052.22 1.837.43 3.619.922 5.405q.018.07.04.137c-1.37.298-2.627-.304-3.758-1.036a6.1 6.1 0 0 1-1.294-1.132c-.16.156-.312.3-.49.437-1.182.893-3.417 2.635-4.937 2.424.985-1.612 1.202-4.153 1.557-5.99-1.552-1.021-2.833-2.346-3.874-3.885l-.189-.22c.536-.882 2.128-.409 2.937-1.492.248.204.45.354.759.457.604.2 1.256.25 1.83-.067 1.357-.754 2.014-3.846 2.471-5.238"/><path fill="#F5DD78" d="M202.393 388.473c.078-.11.269-.462.367-.52.618-.373 12.543 1.119 14.296-.242l.603.058c-.05 2.692-.44 5.38-.232 8.066-.457 1.392-1.114 4.484-2.47 5.238-.575.317-1.227.267-1.831.067-.308-.103-.511-.253-.759-.457-.81 1.083-2.4.61-2.937 1.492l.189.22c1.04 1.54 2.322 2.864 3.874 3.885-.355 1.837-.572 4.378-1.557 5.99 1.52.211 3.755-1.53 4.937-2.424.178-.137.33-.281.49-.437.004 1.812-.39 10.144.328 11.269-.193.092-.384.172-.58.259-.666.286-1.285.423-2 .517-2.087.279-5.395.515-7.166-.835-.186.206-.395.412-.649.535-1.863.899-5.314.431-7.153-.384-.186.161-.397.348-.627.442-.712.29-.988.231-1.617-.094-.538-.78-.444-1.44-.383-2.341 1.236-10.153 3.71-20.153 4.877-30.304"/><path fill="#F6C044" d="M202.393 388.473c.078-.11.269-.462.367-.52.618-.373 12.543 1.119 14.296-.242l.603.058c-.05 2.692-.44 5.38-.232 8.066-.457 1.392-1.114 4.484-2.47 5.238-.575.317-1.227.267-1.831.067-.308-.103-.511-.253-.759-.457q-.024-.061-.046-.128c-.792-2.502 2.395-7.336-.242-8.842-1.632-.935-4.233-.882-5.986-.367-.767.225-1.698.698-2.106 1.422-1.437 2.552-1.96 26.758-3.733 27.971-.032.022-.074.02-.111.03-.186.162-.397.349-.627.443-.712.29-.988.231-1.617-.094-.538-.78-.444-1.44-.383-2.341 1.236-10.153 3.71-20.153 4.877-30.304"/><path fill="#51BCE6" d="M246.658 510.545q.075.041.151.08c3.968 1.912 14.211-2 16.278 3.254.422 1.074.419 2.928-.07 3.969-.53 1.124-2.113 1.74-3.223 2.048-4.44 1.228-17.865.543-23.242.535l-39.293-.014-105.818-.014-43.81.02c-5.509-.012-11.047.191-16.551.055-1.879-.047-4.004-.178-5.65-1.166-.983-.59-1.76-1.57-2.033-2.692-.27-1.113-.217-2.772.396-3.768.67-1.091 2.026-1.545 3.214-1.765 3.617-.676 12.856.974 14.998-.189.184.231.394.496.667.626 1.561.746 8.884.554 10.96.574 4.512.041 9.002-.281 13.507-.295l36.822.016 116.247-.039c3.916-.008 23.631.671 25.637-.114.52-.206.589-.64.813-1.121"/><path fill="#51D4BF" d="M185.694 423.742c1.247-.3 2.379-1.72 3.751-2.112 2.217-.635 5.088.01 7.439-.365.53-.682.512-1.636.632-2.488-.061.902-.155 1.561.383 2.34.63.326.905.385 1.617.095.23-.094.441-.28.627-.442 1.839.815 5.29 1.283 7.153.384.254-.123.463-.329.65-.535 1.77 1.35 5.078 1.114 7.165.835.715-.094 1.334-.23 2-.517.196-.087.387-.167.58-.26 2.28 1.457 11.958.828 14.972.75 1.55-.042 3.394.22 4.5-.947.718.376 8.869 1.089 9.578.89.038-.01.073-.027.109-.04 3.378 5.88 4.174 15.026 5.418 21.71.286 1.537.427 3.83 1.091 5.203 1.287.576 3.103.729 4.448.22.07-.025.138-.056.208-.084.572.381.69.354.821 1.055.562 3.006.44 10.35.015 13.418l-.259.278c-.85-.003-1.488-.061-2.291-.356-7.431.913-15.524.409-23.014.406-4.563-.003-9.816.457-14.29-.242-.505-.08-.927-.298-1.332-.598-2.779 1.722-26.039.826-31.036.715-1.96-.042-5.338-.585-7.15-.033l-.274.005a6 6 0 0 1-1.35.08c-.529-.03-.5-.094-.835-.472-.71-3.418-.702-10.432-.169-13.897l1.796-.49c.144.053.254.106.405.126.786.102 1.775-.334 2.386-.79q.153-5.286.112-10.574c.052-.006.106-.003.157-.014 1.002-.223 3.043-2.082 3.64-2.94.383-3.4-.057-6.874.347-10.314"/><path fill="#FDFDFC" d="M190.777 434.096q.682.414 1.368.82c.283.54.57 1.086.613 1.707.059.84-.114 1.684-.674 2.327l-.567.656-.414-.186a4 4 0 0 1-.422-.932c-.362-1.283-.603-3.201.096-4.392M191.898 426.453c.822.242 1.853.437 2.552.94.71.513 1.373 1.468 1.476 2.347.088.754-.236 1.475-.73 2.029-.548.615-.96.846-1.766.877-.037.033-.07.075-.11.103-.318.214-.726.247-1.095.183-.924-.161-1.705-.581-2.234-1.38-.476-.718-.616-1.664-.433-2.502.298-1.361 1.245-1.896 2.34-2.597"/><path fill="#51BCE6" d="M197.38 429.456c.2.17.412.317.657.42 2.562 1.07 16.978.883 19.63-.247-.1 1.255-.59 3.969.236 4.97q-.068.038-.134.078c-.384.25-.708.44-1.17.513-3.224.509-16.964.837-19.307-.858.127-1.6.066-3.267.089-4.876"/><path fill="#1F74C3" d="M217.666 429.629c2.023.91 24.458.86 26.55-.04.244-.105.457-.247.66-.414-.01 1.748.085 3.599-.129 5.33-.59.34-1.157.579-1.84.657-3.319.373-21.487.556-24.06-.167a4.5 4.5 0 0 1-.944-.396c-.826-1.001-.335-3.715-.237-4.97M217.677 443.25c1.817.868 25.63.698 27.606-.017.284-.103.51-.248.75-.429l.002 4.949c-.217.184-.547.545-.789.67-1.724.888-22.43.298-25.464.05-.631-.05-1.265-.1-1.889-.21-.574-1.34-.245-3.56-.216-5.013"/><path fill="#51BCE6" d="M186.208 442.796c.165.128.328.234.515.326 2.326 1.16 28.646.977 30.954.128-.03 1.452-.358 3.673.216 5.012l-.227.08q-.67.12-1.348.187c-6.84.68-13.965.187-20.83.087-2.364-.034-4.96.35-7.291.07-.696-.087-1.174-.262-1.72-.71-.711-.863-.299-4.047-.269-5.18"/><path fill="#F5DD78" d="M178.647 448.248c.412.24.688.351 1.172.323 2.19-.136 4.807.827 6.657-.595.547.448 1.025.623 1.72.71 2.332.28 4.928-.104 7.293-.07 6.864.1 13.99.592 20.829-.087q.677-.066 1.348-.186c-.173 4.656-.063 9.338 0 13.997-2.78 1.722-26.04.826-31.037.715-1.96-.042-5.338-.585-7.15-.033l-.274.005a6 6 0 0 1-1.35.08c-.529-.03-.5-.094-.835-.472-.71-3.418-.702-10.432-.169-13.897z"/><path fill="#FDFDFC" d="M181.548 452.69q.056.039.114.07c.784.4 1.735.518 2.577.29.474.715 1.283 1.438 1.559 2.231.363 1.044.395 1.857-.083 2.873-.593.353-.915.476-1.607.39-.435.509-1.145.837-1.801.979-.507.109-.814.103-1.24-.195-.64-.448-.848-1.297-.943-2.029-.267-2.048.2-2.994 1.424-4.609"/><path fill="#F6C044" d="M246.035 447.753c.205.195.501.56.735.698 1.068.643 7.705.61 9.166.59.792-.01 1.47-.116 2.079-.662.572.381.69.354.821 1.055.562 3.006.44 10.35.015 13.418l-.259.278c-.85-.003-1.488-.061-2.291-.356-7.431.913-15.524.409-23.014.406-4.563-.003-9.816.457-14.29-.242-.505-.08-.927-.298-1.332-.598-.062-4.66-.172-9.34 0-13.997l.228-.08c.624.11 1.258.16 1.889.21 3.034.248 23.74.838 25.464-.05.242-.125.572-.486.789-.67"/><path fill="#4052C4" d="m77.958 94.674.35-.432.134.079c.624.358 1.163.502 1.868.597l.186.047c2.515.616 5.23.688 7.803 1.282 7.658 1.769 13.824 7.191 17.91 13.744 2.86 4.587 4.053 9.497 4.737 14.802.95-.045 2.221-.25 2.985.449.136.125.248.263.36.41-.168.613-.313.804-.89 1.126-.59.33-1.862.235-2.554.245-.7 9.844-3.801 17.145-11.345 23.692-6.64 5.764-14.47 7.91-23.183 7.3-8.327-.582-16.235-5.163-21.623-11.421-4.902-5.695-6.812-12.233-7.834-19.554-.018-.938.015-1.83-.368-2.706.633-.666 1.405-5.944 1.826-7.293 3.163-10.14 11.158-18.233 21.578-20.796 1.89-.465 6.553-.729 7.937-1.496q.061-.036.123-.075m.127 7.244-7.566.017 1.451.456c-2.968-.054-5.934.169-8.9.101l-2.238 1.809c-6.808 4.819-9.083 12.361-10.498 20.193-.09.832-.231 1.673-.097 2.507.208 7.69 3.823 14.575 9.299 19.763.654.62 1.647 1.347 2.087 2.124 1.14 1.036 2.127 1.55 3.637 1.85l.196.514c2.468 2.246 8.994 3.4 12.2 3.655.21.017.133.01.374.08.87.432 1.714.211 2.613-.033 3.985-.385 8.887-1.154 12.362-3.252l.039-.447-.837-.427c.597-.345 3.417-.795 4.444-1.194l-.165-.853.012-.028-1.68-.44c1.074-.192 2.216-.228 3.304-.33 5.888-6.076 9.391-12.32 9.858-20.917-1.766-.117-3.527-.171-5.297-.202 1.482-.155 4.16.026 5.422-.606l-.033-.62a5.6 5.6 0 0 1-.52-.672q-.053-.085-.104-.172c.111-.196.216-.41.254-.634.712-4.211-3.494-11.401-5.878-14.644-1.269-1.727-2.856-3.295-3.98-5.109l-.097-.16c-3.4-2.757-5.827-.724-9.282-2.32-2.76.157-5.485.236-8.252.21l.032-4c-.818.048-1.104-.02-1.747.531-.44 1.086-.233 2.135-.413 3.25m-14.157-.309c2.18.207 4.402.23 6.591.326l7.566-.017c-.21-1.274-.121-2.654-.13-3.945-4.515-.166-9.941 1.84-14.027 3.636m16.317-3.472-.032 4c2.767.026 5.491-.053 8.252-.21 1.796-.092 3.485-.27 5.246-.641-4.5-1.646-8.72-2.578-13.466-3.149"/><path fill="#38319B" d="M78.085 101.918c.18-1.115-.028-2.164.413-3.25.643-.552.93-.483 1.747-.53l-.032 3.998c2.767.027 5.491-.052 8.252-.21 3.455 1.597 5.881-.436 9.282 2.32l.097.161c1.124 1.814 2.711 3.382 3.98 5.109 2.384 3.243 6.59 10.433 5.878 14.644-.038.224-.143.438-.254.634q.052.087.103.172c.157.248.33.45.521.672l.033.62c-1.263.632-3.94.451-5.422.606 1.77.03 3.53.085 5.297.202-.467 8.597-3.97 14.84-9.858 20.918-1.088.1-2.23.137-3.304.33l1.68.439-.012.028.165.853c-1.027.4-3.847.849-4.444 1.194l.837.427-.04.447c-3.474 2.098-8.376 2.867-12.36 3.252-.9.244-1.744.465-2.614.032-.241-.07-.165-.062-.374-.079-3.206-.254-9.732-1.41-12.2-3.655l-.196-.514c-1.51-.3-2.497-.814-3.637-1.85-.44-.777-1.433-1.505-2.087-2.124-5.476-5.188-9.091-12.072-9.3-19.763-.133-.834.008-1.675.098-2.507 1.415-7.832 3.69-15.374 10.498-20.193l2.238-1.809c2.966.068 5.932-.155 8.9-.101l-1.45-.456zM50.237 127c.208 7.69 3.823 14.575 9.299 19.763.654.62 1.647 1.347 2.087 2.124.7-.286 1.506-.625 2.268-.675 1.956-.126 4.116.228 6.085.32 2.697.126 5.414.086 8.115.08-.072-4.594-.805-17.577.201-21.325-3.437-.24-6.857-.088-10.297-.117zm29.923.037c.352 7.245-.027 14.398.101 21.63q7.283-.011 14.557-.354c1.074-.193 2.216-.23 3.304-.33 5.888-6.077 9.391-12.32 9.858-20.918-4.766.401-11.063-.52-15.483.31-.114.412-.163.642-.093 1.076l-.852.096c.192-.428.192-.62.135-1.087-1.758-1.01-8.974-.41-11.527-.423m-19.328-22.737c-6.808 4.819-9.083 12.361-10.498 20.193 6.677.144 13.353-.091 20.034.01 2.23.033 4.808-.176 6.981.272.373-.161.39-.286.588-.63-.129-5.015 1.175-14.894-.322-19.215-.944-.36-2.192-.261-3.204-.288-3.301.52-10.309.362-13.58-.342m19.375.364.08 13.136c.013 2.138-.224 4.58.171 6.663.768.312 1.549.285 2.364.3 4.798-.175 20.878-.933 24.626.03.111-.196.216-.41.254-.634.712-4.211-3.494-11.401-5.878-14.644-1.269-1.727-2.856-3.295-3.98-5.109l-.097-.16c-2.464.842-14.08.4-17.54.418m12 46.163c-3.941.386-8.04.204-12.002.212-.015.94-.294 3.111.349 3.837.026.03.06.051.09.077 3.984-.385 8.886-1.154 12.36-3.252l.04-.447zm-26.75.424c2.467 2.246 8.993 3.4 12.2 3.655.208.017.132.01.373.08l-.036-3.868c-3.977.144-8.668-.578-12.538.133"/><path fill="#F6C044" d="M91.566 107.829c.328.116.615.291.918.46.816 1.22 1.092 2.834 1.47 4.239.976-.082 2.575-.37 3.385.185-.019 1.118-.736 1.532-1.086 2.506-.288.801.65 1.782.899 2.539.2.61.102.734-.186 1.26-.982.265-2.242-.168-3.225-.38-.263 1.18-.423 2.649-1.156 3.632-.633.272-.661.332-1.309.127-.083-.793-.074-2.017-.384-2.731-.6-1.376-2.808-.076-3.965-.593l-.027-.617c.559-1.156 1.625-1.977 2.56-2.828-1.178-.467-2.593-.888-3.214-2.078.009-.595.012-.697.334-1.192 1.084-.325 2.354.066 3.443.273.416-.222.907-3.763 1.543-4.802M65.653 107.756q.095.03.188.06c2.22.793 1.29 2.531 2.042 4.164.31.673 2.217-.528 3.527-.042.151.415.32.704.248 1.15-.197 1.23-1.779 2.054-2.737 2.725.497.605 1.348 1.482 1.475 2.257.1.613.008.715-.312 1.2a4 4 0 0 1-.57.136c-1.075.15-2.046-.754-2.861-1.343-1.21.033-1.826 1.241-2.904 1.606-.677.23-1.314.329-1.957.028-.092-1.288 1.24-2.59 1.352-3.994-.476-1.092-1.693-1.213-2.536-2.073-.19-.194-.114-.376-.114-.636q.055-.05.111-.099c1.235-1.025 2.742-.83 4.224-.698.196-1.513.402-2.969.824-4.44"/><path fill="#CB7A38" d="M92.404 128.452c1.76.299 4.233.934 5.372 2.44.532.702.453 1.293.312 2.1-.478.45-.659.59-1.366.562-1.868-.072-3.409-1.699-5.462-1.871.323-.123.486-.394.705-.653.122-.41.239-.787.14-1.215-.16-.707-.286-.732-.868-1.083l.315-.184z"/><path fill="#EC8B2C" d="M88.282 143.284c-.659-.9-1.72-2.495-1.577-3.618.977-.063 1.985-.431 2.951-.436.838-.004 1.772 2.244 2.926 2.675.707.264 1.528.197 2.182-.116 1.368-4.488-6.262-3.873-7.5-7.099-.356-.929-.039-1.858.372-2.707.848-1.752 1.765-2.633 3.601-3.251.582.35.708.376.869 1.083.098.428-.02.805-.141 1.215-.219.259-.382.53-.705.653l-.587.58c-.173.64-.168.683.082 1.299.916.895 2.04 1.175 3.216 1.6 1.658.6 3.563 1.278 4.331 3.02.522 1.182.223 2.875-.266 4.02-.44 1.032-1.243 1.857-2.3 2.257-2.44.924-5.235-.149-7.454-1.175"/><path fill="#ED9E3B" d="M68.987 139.186c1.101.837 2.145 1.659 3.422 2.22l-.102.26c-.939 2.361-2.556 3.216-4.78 4.16-.789-.21-1.59-.415-2.366-.667-1.192-.387-2.32-1.124-2.86-2.296-.297-.642-.36-1.42-.069-2.072.16-.36.328-.485.707-.603 3.936-1.223 1.652.867 3.833 2.042.708-.022 1.147-.082 1.756-.457.507-.767.432-1.7.46-2.587"/><path fill="#EC8B2C" d="M63.383 129.987c2.431-.87 5.076-1.007 7.472.154.664.322 1.314.833 1.566 1.553.239.681.167 1.396.025 2.088l-.38.2c-1.702-.547-4.955-2.843-6.57-2.207-.493.6-.665 1.148-.596 1.943.055.636.315 1.032.717 1.505 1.325.785 2.947.556 4.43.513 1.2.822 2.201 1.583 2.487 3.086.157.827.076 1.773-.125 2.583-1.277-.56-2.32-1.382-3.422-2.22l-.215-.13c-.595-.354-1.183-.747-1.902-.551-1.33.361-2.01.513-3.33-.234a4.22 4.22 0 0 1-2.032-2.636c-.34-1.268-.256-2.664.417-3.807.389-.66.948-1.267 1.458-1.84"/><path fill="#8777D7" d="M206.997 93.334c.101.4.098.865.463 1.084.578.349 5.517.897 6.725 1.23 10.428 2.874 18.876 10.4 22.017 20.89.742 2.476 1.226 5.196 1.324 7.78l.733.423-.1.235c-.313.74-.426 1.175-.29 1.986l-.074.13c-.962 1.863-1.068 6.186-1.751 8.537-2.75 9.466-11.303 17.622-20.502 20.802-3.041 1.051-6.126 1.467-9.31 1.803-.287.23-.76.521-.991.794-.686.811-.006 3.28-1.555 3.121-.147-1.36-.117-2.78-.164-4.15-6.756.166-14.34-3.003-19.539-7.208-7.537-6.098-10.182-14.705-11.175-23.966-.81.157-1.859.264-2.672.153-.7-.095-.944-.439-1.306-.97.118-.428.108-.564.476-.847 1.046-.805 2.399-.457 3.614-.309-.069-7.44 3.812-14.837 8.847-20.145 5.746-6.058 13.933-10.017 22.302-10.242 1.31-.094 1.902-.349 2.928-1.131"/><path fill="#4052C4" d="M203.456 150.919c1.025.022 1.945-.112 2.843.415-.027 1.243.212 2.797-.505 3.822-.754.302-1.547.21-2.34.173z"/><path fill="#38319B" d="M172.808 126.825c-.81.157-1.859.264-2.672.153-.7-.095-.944-.439-1.306-.97.118-.428.108-.564.476-.847 1.046-.805 2.399-.457 3.614-.309.937.158 1.794.271 2.746.223q2.42-.032 4.84-.016l-.175 1.58c-2.389.005-5.186-.265-7.523.186"/><path fill="#51BCE6" d="m230.804 126.572 2.22-.04c.406.065 1.087.063 1.32.398.747 1.077.098 3.725-.223 4.92-2.248 8.347-7.322 15.552-14.93 19.877-3.614 2.054-8.631 3.569-12.779 3.68 0-1.359-.04-2.73.005-4.088l1.123-.33c3.678-.461 7.035-1.527 10.262-3.372 5.153-2.945 9.575-7.55 11.246-13.342.731-2.533 1.059-5.161 1.756-7.703M203.454 155.329c-5.133-.235-10.294-2.036-14.538-4.92-6.925-4.707-11.394-12.012-12.903-20.217-.174-.944-.405-2.097.173-2.942 1.225-.515 2.869-.367 4.187-.398q.034.065.067.13c.817 1.718.468 4.208.965 6.083 1.953 7.37 7.818 13.523 14.873 16.188a27.8 27.8 0 0 0 7.178 1.666z"/><path fill="#51BCE6" d="M175.666 125.075c1.085-7.665 4.41-14.867 10.298-20.014 4.517-3.95 11.61-7.63 17.772-7.218l.248.369c.65-.283 1.253-.398 1.95-.178.442.14.932.41 1.189.804l.083-.633c1.014-.673 3.194-.155 4.38.08 7.505 1.486 14.437 6.323 18.66 12.695 1.724 2.6 5.12 10.434 4.546 13.48-.016.087-.058.168-.087.252-.02.837.033.882-.536 1.481l-1.144.339-2.22.04-.305-1.887q-.292-1.411-.604-2.818c-1.655-7.356-5.759-12.35-12.044-16.32-5.368-3.443-11.327-4.678-17.609-3.319-6.674 1.444-12.336 5.684-15.98 11.401-2.792 4.384-2.378 6.875-3.757 11.43q-2.42-.016-4.84.016"/><path fill="#38319B" d="M203.984 98.212c.65-.283 1.253-.398 1.95-.178.442.14.932.41 1.189.804-.174.39-.34.812-.63 1.132-.397.437-.507.406-1.065.447-.81-.539-1.075-1.345-1.444-2.205M230.5 124.685l4.205.027c-.02.837.033.882-.536 1.481l-1.144.339-2.22.04z"/><path fill="#51D4BF" d="M180.506 125.06c1.38-4.556.965-7.047 3.758-11.43 3.643-5.718 9.305-9.958 15.98-11.402 6.28-1.359 12.24-.124 17.608 3.32 6.285 3.97 10.389 8.963 12.044 16.319q.312 1.407.604 2.818l.304 1.887c-.697 2.542-1.025 5.17-1.756 7.703-1.671 5.792-6.093 10.397-11.246 13.342-3.227 1.845-6.584 2.91-10.262 3.372l-1.123.33-.118.015c-.898-.527-1.818-.393-2.843-.415a27.8 27.8 0 0 1-7.178-1.666c-7.055-2.665-12.92-8.819-14.873-16.188-.497-1.875-.148-4.365-.965-6.083q-.033-.065-.067-.13l-.042-.213z"/><path fill="#3FBEB1" d="M220.67 118.37c-.208-3.646-2.587-6.89-3.178-10.473-.143-.869-.187-1.6.36-2.35 6.285 3.97 10.389 8.964 12.044 16.32q.312 1.407.604 2.818l.304 1.887c-.697 2.542-1.025 5.17-1.756 7.703-1.671 5.792-6.093 10.397-11.246 13.342-3.227 1.845-6.584 2.91-10.262 3.372l-.436-.137-.08-.287c3.474-1.82 7.078-3.59 9.518-6.742 4.181-5.398 6.373-13.187 5.51-19.96l-.618-.498c-.737-1.472-.363-3.209-.678-4.804z"/><path fill="#51D4BF" d="M222.052 123.864c-.192.994-.187 2.053-.283 3.062-.45 4.744-2.487 8.662-6.189 11.672-3.352 2.725-7.557 3.875-11.826 3.434q-.409-.04-.815-.1t-.808-.14-.8-.179-.79-.22-.78-.258-.764-.296-.75-.335-.73-.371-.713-.407-.69-.443-.669-.476-.644-.508q-.315-.263-.617-.54-.302-.278-.59-.57-.288-.293-.561-.599t-.53-.626q-.245-.309-.474-.63-.23-.32-.442-.652-.213-.332-.41-.674t-.376-.693-.342-.71-.307-.727q-.145-.367-.271-.74-.127-.374-.234-.753-.108-.38-.197-.764t-.16-.772-.121-.779-.084-.784-.044-.787-.006-.788.032-.788.071-.785c.492-4.242 2.652-8.338 6.02-10.992 3.717-2.928 8.478-3.932 13.118-3.359 5.781.716 9.043 4.278 12.394 8.583l.086.191c.315 1.595-.06 3.332.678 4.804z"/><path fill="#FDFDFC" d="M222.052 123.864c-.192.994-.187 2.053-.283 3.062-.45 4.744-2.487 8.662-6.189 11.672-3.352 2.725-7.557 3.875-11.826 3.434q-.409-.04-.815-.1t-.808-.14-.8-.179-.79-.22-.78-.258-.764-.296-.75-.335-.73-.371-.713-.407-.69-.443-.669-.476-.644-.508q-.315-.263-.617-.54-.302-.278-.59-.57-.288-.293-.561-.599t-.53-.626q-.245-.309-.474-.63-.23-.32-.442-.652-.213-.332-.41-.674t-.376-.693-.342-.71-.307-.727q-.145-.367-.271-.74-.127-.374-.234-.753-.108-.38-.197-.764t-.16-.772-.121-.779-.084-.784-.044-.787-.006-.788.032-.788.071-.785c.492-4.242 2.652-8.338 6.02-10.992 3.717-2.928 8.478-3.932 13.118-3.359 5.781.716 9.043 4.278 12.394 8.583l.086.191c-.71 2.954-15.022 13.407-17.873 16.43-3.037-2.61-6.191-5.454-8.594-8.679l4.382-.001c1.127 1.077 2.231 2.243 3.448 3.217 5.34-3.78 10.08-8.325 15.046-12.566-3.24-3.113-7.029-5.238-11.672-5.156-3.892.07-7.888 1.76-10.561 4.592q-.237.251-.462.514-.225.264-.436.537-.212.274-.41.558t-.38.578q-.183.293-.352.596-.168.302-.321.612t-.29.628q-.139.317-.26.641-.122.324-.227.653-.106.33-.195.664-.089.335-.161.673t-.128.68-.094.685q-.038.344-.06.69-.02.345-.025.69-.004.347.009.692c.13 3.75 1.917 7.385 4.675 9.904 2.738 2.502 6.31 3.686 10 3.514 3.284-.153 7.837-1.798 10.092-4.327 2.42-2.716 3.232-5.787 3.805-9.278.115-.701.156-1.682.521-2.29.305-.508.665-.5 1.201-.647zM68.297 235.367c2.79-.468 5.606-.573 8.426-.735q2.336.114 4.67.268c4.413 12.768 9.623 25.189 14.562 37.754-1.26.846-2.097 1.72-2.426 3.25-.163.76-.03 1.344.422 1.985.317.45 1.28.812 1.8.92l1.851.477q10.808-.245 21.618-.167c3.577-.006 7.555-.518 11.065.217 1.202 2.338 2.953 6.705 5.662 7.478.345.1.638.095.988.05l.013 5.322c.551 2.193.973 16.307.124 17.949a.97.97 0 0 1-.362.373c-.993 3.161-1.647 6.42-2.8 9.532-3.184 8.592-9.734 16.733-16.862 22.405-12.636 10.056-28.08 13.793-43.986 11.934q-.693-.08-1.383-.175-.691-.097-1.38-.209-.687-.114-1.372-.245-.685-.128-1.367-.275t-1.36-.31q-.677-.163-1.351-.344-.674-.178-1.343-.376-.669-.195-1.333-.406-.664-.215-1.323-.443t-1.312-.473-1.3-.504q-.646-.261-1.286-.537-.64-.278-1.274-.568-.633-.292-1.259-.6-.626-.307-1.244-.63t-1.229-.66q-.61-.336-1.212-.69-.601-.35-1.194-.718-.593-.367-1.177-.749-.584-.38-1.158-.776-.575-.395-1.14-.804-.564-.41-1.118-.833t-1.098-.86q-.544-.434-1.077-.885-.533-.448-1.055-.913-.522-.462-1.032-.935-.51-.476-1.01-.963-.498-.487-.985-.988-.486-.498-.96-1.01-.475-.51-.937-1.033-.461-.523-.91-1.057-.449-.532-.884-1.077c-7.3-9.28-13.23-23.126-11.798-35.124-2.366-8.951 1.116-23.74 4.908-31.991q.285-.63.586-1.254.3-.623.617-1.239.315-.615.647-1.222.331-.607.677-1.206.347-.6.708-1.19t.737-1.17q.376-.58.766-1.152.39-.571.795-1.133.405-.561.823-1.112t.85-1.092.877-1.07q.446-.529.904-1.047.459-.518.93-1.024.471-.507.955-1.002.484-.494.98-.976.496-.483 1.004-.953t1.027-.926 1.05-.901q.53-.444 1.073-.874.541-.43 1.094-.847.552-.417 1.114-.82t1.135-.791 1.154-.763 1.174-.734q.59-.36 1.19-.704.6-.345 1.209-.674.608-.33 1.224-.644.617-.314 1.24-.613.625-.299 1.256-.582.632-.283 1.27-.55t1.282-.518 1.296-.486c1.008-.417 2.114-.671 3.164-.971 1.079.092 2.608-.088 3.611-.477z"/><path fill="#38319B" d="M91.423 312.2c.96.93 3.465-.064 4.783.57.377.43.608.524.586 1.108-.143.12-.237.203-.416.262-1.188.39-2.563.256-3.626-.368.032 1.968-.818 5.475.362 7.111.392.546 1.3.666 1.918.802l.368.649c-.236 1.027-1.545 1.046-2.258 1.84-.95 1.051-.477 3.016-.32 4.308-.002.42.094.843.163 1.258.916.754 2.214.32 3.26.84.19.095.233.412.302.612l-.25.504a2.2 2.2 0 0 1-.757.292c-1.358.248-3.387-.1-4.516-.896-.001-4.806-1.27-14.923.4-18.892"/><path fill="#C1B1EE" d="M97.602 279.286q10.808-.245 21.618-.167c3.577-.006 7.555-.518 11.065.217-4.853.317-9.693.167-14.552.128-4.535-.036-9.082.039-13.615-.092.733 2.34 1.473 6.05 3.138 7.843 1.034.674 1.932.749 3.13.507-.307.22-.57.425-.95.506-2.232.462-30.88.32-32.373-.562 2.813.568 23.604.498 26.297-.395-1.806-1.92-1.665-6.808-3.758-7.985"/><path fill="#38319B" d="M85.345 312.041c.732.156 1.596.29 2.248.677.8.47 1.263 1.52 1.474 2.39.276 1.141.094 2.52-.532 3.521-.927-.73-1.07-2.613-1.66-3.68-.336-.609-.494-.687-1.116-.837l-.662.454c-.88 2.029-.738 11.853-.11 14.166.198.73.345 1.047 1 1.408.205-.075.395-.142.574-.27.593-.42.611-1.285.692-1.945.134-.724.198-1.25.765-1.778.227.041.48.008.62.205.591.827.614 2.088.466 3.06-.123.812-.462 1.7-1.184 2.162-.729.465-1.908.431-2.724.22-.679-.179-1.19-.524-1.541-1.13-1.637-2.83-1.416-13.079-.46-16.243.407-1.344.95-1.723 2.15-2.38M77.138 326.341c.182 1.114.475 2.366.45 3.493-.014.638-.206 1.208-.658 1.665-1.474-.777-.978-3.031-1.685-4.3-.248-.446-.533-.407-.982-.504-1.66.94-1.282 3.15-2.028 4.76-.55.375-.544.403-1.199.308-.475-1.904 1.16-15.817 1.994-17.846.299-.726.48-1.046 1.193-1.364.172.092.264.123.402.245 1.84 1.645 2.176 10.181 2.424 12.722zM50.951 312.002c1.816.727 3.835.22 5.573 1.178.376.37.521.765.624 1.272.427 2.09.698 7.723-.517 9.443-.52.737-2.358.813-3.213.924-.415.615-.257 1.403-.258 2.137.029 1.066.183 2.363-.004 3.399-.12.66-.497.93-1.003 1.274l-.456-.345c-1.358-3.028-.707-15.4-.746-19.282"/><path fill="#FDFDFC" d="M53.572 314.285c.387.091 1.354.283 1.577.603 1.054 1.512.558 5.436.32 7.206l-.496.253c-.6.443-.578.47-1.312.37a2.7 2.7 0 0 1-.46-.754c-.757-2.04-.482-5.755.37-7.678"/><path fill="#38319B" d="M59.28 312.058c1.348.743 3.017.34 4.471.743.727.2.995.724 1.298 1.358 1.383 2.909-.445 6.722-.363 9.82.07 2.643 1.515 5.313.571 7.984l-.375.034c-1.39-1.692-1.293-3.652-1.472-5.745-.203-.565-.4-1.169-.68-1.697-.315-.596-.637-1.058-1.286-1.236-1.315 1.942.161 5.302-.568 7.498-.229.687-.408.743-1.015 1.043l-.475-.297c-1.067-3.34-.479-15.564-.106-19.505"/><path fill="#FDFDFC" d="M61.922 313.85c.284.153.629.334.859.568.772.788.978 2.51.968 3.563-.01 1.14-.177 2.112-.988 2.914-.546.44-.559.509-1.25.487-.627-.618-.643-1.695-.666-2.53-.047-1.67-.117-3.721 1.077-5.002"/><path fill="#38319B" d="m74.633 287.644.43.022c1.493.882 30.14 1.024 32.372.562.381-.08.644-.286.952-.506 1.235.448 3.695.61 4.905.01.15-.072.219-.138.357-.244-.456 4.556-2.329 8.408-5.905 11.336-6.575 5.385-15.118 4.845-23.103 4.812-2.707-.011-5.493.273-8.183.003-.661-.067-1.093-.223-1.573-.693l-.127-.114c-.631-1.882-.147-12.533-.125-15.188"/><path fill="#4052C4" d="m74.098 287.633.535.01c-.022 2.656-.506 13.307.125 15.189l.127.114c-2.86 1.608-21.156 1.018-25.195.645-5.028-.464-9.696-2.399-12.972-6.35-1.706-2.06-3.933-5.962-3.573-8.67.087-.663.241-.693.742-1.094.364.311.686.445 1.157.498 2.595.295 5.359.13 7.971.147 5.24.034 10.43.025 15.673-.044 4.652-.061 9.424.275 14.058-.042.523-.036.906-.111 1.352-.403"/><path fill="#51BCE6" d="M136.948 292.186c.551 2.193.973 16.307.124 17.949a.97.97 0 0 1-.362.373c-.993 3.161-1.647 6.42-2.8 9.532-3.184 8.592-9.734 16.733-16.862 22.405-12.636 10.056-28.08 13.793-43.986 11.934q-.693-.08-1.383-.175-.691-.097-1.38-.209-.687-.114-1.372-.245-.685-.128-1.367-.275t-1.36-.31q-.677-.163-1.351-.344-.674-.178-1.343-.376-.669-.195-1.333-.406-.664-.215-1.323-.443t-1.312-.473-1.3-.504q-.646-.261-1.286-.537-.64-.278-1.274-.568-.633-.292-1.259-.6-.626-.307-1.244-.63t-1.229-.66q-.61-.336-1.212-.69-.601-.35-1.194-.718-.593-.367-1.177-.749-.584-.38-1.158-.776-.575-.395-1.14-.804-.564-.41-1.118-.833t-1.098-.86q-.544-.434-1.077-.885-.533-.448-1.055-.913-.522-.462-1.032-.935-.51-.476-1.01-.963-.498-.487-.985-.988-.486-.498-.96-1.01-.475-.51-.937-1.033-.461-.523-.91-1.057-.449-.532-.884-1.077c-7.3-9.28-13.23-23.126-11.798-35.124.463 2.157.435 4.525.877 6.74 1.554 7.785 5.457 15.542 10.209 21.86q.42.554.853 1.096.434.543.88 1.078.447.531.907 1.054.459.52.93 1.033.473.51.957 1.008.484.5.98.988.496.487 1.004.96.508.476 1.027.938.52.462 1.05.913.53.448 1.07.885.542.437 1.093.86.552.423 1.113.832.562.412 1.133.807t1.152.78q.58.38 1.17.748.59.367 1.189.72.598.354 1.205.694t1.223.662q.615.326 1.237.635t1.253.604q.63.292 1.267.57.637.279 1.28.543.644.262 1.294.51.65.247 1.305.478.656.231 1.317.448.66.214 1.326.415t1.337.381q.67.184 1.345.35.675.168 1.354.318t1.361.284 1.367.253q.686.117 1.374.217.699.098 1.4.178.702.081 1.405.142.704.064 1.408.109.705.047 1.41.075.706.028 1.412.04t1.412.005 1.412-.028 1.41-.064q.706-.04 1.41-.098.703-.058 1.405-.13.702-.076 1.402-.167t1.398-.2 1.393-.237q.694-.126 1.386-.268t1.38-.303q.687-.159 1.37-.334.685-.178 1.364-.37.679-.195 1.353-.404.675-.208 1.344-.434.668-.225 1.332-.467.663-.245 1.32-.501.657-.26 1.308-.535.65-.273 1.295-.562.643-.292 1.28-.598.636-.304 1.265-.627.629-.32 1.25-.656.62-.337 1.233-.688.612-.35 1.216-.718.604-.367 1.198-.749.595-.378 1.18-.776.585-.395 1.16-.804t1.14-.833c10.483-7.94 18.496-19.694 21.096-32.666.866-4.317.968-8.673 1.561-13.017"/><path fill="#FDFDFC" d="M68.297 235.367c2.79-.468 5.606-.573 8.426-.735q2.336.114 4.67.268c4.413 12.768 9.623 25.189 14.562 37.754-1.26.846-2.097 1.72-2.426 3.25-.163.76-.03 1.344.422 1.985.317.45 1.28.812 1.8.92l1.851.477c2.093 1.177 1.952 6.064 3.758 7.985-2.693.893-23.484.963-26.297.395l-.43-.022-.535-.011c-.446.292-.829.367-1.352.403-4.634.317-9.406-.02-14.058.042-5.242.07-10.433.078-15.673.044-2.612-.016-5.376.148-7.97-.147-.472-.053-.794-.187-1.158-.498.153.05.31.1.468.133 2.144.454 6.032.696 7.877-.492.66-.8 1.099-1.807 1.499-2.758 4.02-9.572 7.419-19.475 11.26-29.128 1.998-5.022 6.047-13.416 7.258-18.085-.66-.45-1.723-.236-2.496-.198 1.008-.417 2.114-.671 3.164-.971 1.079.092 2.608-.088 3.611-.477z"/><path fill="#C1B1EE" d="m66.528 235.5 1.769-.133-1.735.566c-5.398 13.214-10.26 26.719-15.448 40.024-.806 2.067-4.384 9.967-4.574 11.197.896.91 3.602.601 4.8.61l14.125.066c2.804.014 5.867.242 8.633-.197-.446.292-.829.367-1.352.403-4.634.317-9.406-.02-14.058.042-5.242.07-10.433.078-15.673.044-2.612-.016-5.376.148-7.97-.147-.472-.053-.794-.187-1.158-.498.153.05.31.1.468.133 2.144.454 6.032.696 7.877-.492.66-.8 1.099-1.807 1.499-2.758 4.02-9.572 7.419-19.475 11.26-29.128 1.998-5.022 6.047-13.416 7.258-18.085-.66-.45-1.723-.236-2.496-.198 1.008-.417 2.114-.671 3.164-.971 1.079.092 2.608-.088 3.611-.477"/><path fill="#FDFDFC" d="M204.025 234.63c3.235-.109 6.463.004 9.697.097l3.735.633c1.25.26 2.499.54 3.758.748.938.25 1.93.456 2.842.781 15.808 6.245 26.957 15.8 33.823 31.657 3.45 7.969 5.454 17.186 4.855 25.894-.094 1.38-.147 3.031-.634 4.334 1.417 12.07-4.516 26.938-11.9 36.293q-.416.523-.845 1.035-.428.512-.87 1.016-.44.5-.893.993-.453.49-.917.972-.465.479-.941.949-.477.467-.964.927-.488.456-.986.901-.499.446-1.008.877-.509.434-1.028.855-.52.42-1.049.826-.53.41-1.069.805t-1.088.776q-.548.381-1.106.749-.558.367-1.124.723-.567.354-1.142.693-.575.343-1.158.668-.583.326-1.174.64-.59.312-1.189.61-.598.298-1.203.582-.605.28-1.217.55-.612.268-1.23.521-.619.254-1.243.493-.625.24-1.254.462-.63.223-1.265.431-.635.209-1.275.401t-1.285.367q-.644.179-1.293.34t-1.3.306q-.653.145-1.309.276-.655.128-1.314.242-.658.114-1.32.211-.66.098-1.324.178c-15.718 1.787-30.96-2.37-43.353-12.248-11.726-9.346-19.715-23.766-22.18-38.548-.056-.058-.116-.111-.169-.172-1-1.136-.206-15.313-.075-17.838l.562-.172q.374-.147.744-.304c2.787-1.155 3.825-4.136 4.992-6.685 7.397-1.255 16.462.125 24.126-.128 2.266-.654 5.752-.086 8.11.022 1.405.14 2.536-.122 3.8-.723.527-.84 1.11-1.808.965-2.844-.166-1.18-1.123-1.846-2.025-2.478 1.559-6.512 4.782-13.052 7.202-19.32 2.502-6.479 4.536-13.078 7.508-19.374"/><path fill="#38319B" d="M214.165 312.06c1.658.513 3.807-.322 5.19.894-.096.57-.15.601-.534 1-.615.074-1.058.144-1.6.456-1.046 1.759-.06 13.08-.178 15.998-.043.253-.083.545-.192.776-.238.507-.523.643-1 .84-1.989-2.257-.141-12.335-.602-15.736-.19-1.405-.895-2.104-2.005-2.914l-.167-.12c.169-.687.54-.804 1.088-1.193M208.157 311.977c.487.131.836.306 1.253.587 1.9 3.054-.221 13.287.588 16.853.222.977 1.901.62 2.735 1.166l-.09.434c-.28.3-.436.543-.835.674-1.038.342-2.336.091-3.306-.351-1.067-1.33-.617-16.424-.345-19.363M221.54 312.128c2.688 1.675.682 6.601 2.723 8.739.324-2.221.405-4.581.862-6.769.147-.704.38-1.063.954-1.464l.413.306c.859 2.174-.307 6.925-1 9.135-.212 2.354-.167 4.726-.373 7.058-.083.93-.036 1.703-.764 2.324l-.666-.067-.326-.448c-.311-3.298-.592-6.63-1.112-9.903-.381-2.402-1.18-5.062-1.222-7.478-.01-.557.208-.977.511-1.433M202.06 312.308c.382.073.847.145 1.161.39.638.501.93 1.648 1.095 2.4.546 2.493.49 5.179.755 7.717.242 2.31.746 4.615.903 6.927.05.732.092 1.548-.41 2.13l-.406-.031c-.928-1.239-.7-2.844-1.708-4.027q-.066-.074-.133-.148c-.258 0-.529-.008-.785.025-1.456.192-.943 3.067-1.78 4.058l-.817-.092c-.676-1.703 1.383-17.208 2.125-19.349"/><path fill="#FDFDFC" d="m202.59 318.56.485.567c.272 1.77.846 4.234.5 5.995-.088.443-.157.412-.539.657l-.708.075-.382-.409c-.24-2.04.211-4.876.643-6.885"/><path fill="#38319B" d="M184.013 311.871c1.285 1.239 2.81.095 4.127.76.49.248.953.78 1.472 1.069l.125.067c.208 2.43.595 5.082.187 7.498-.167.996-.534 2.207-1.455 2.758-.843.504-1.94.236-2.827.014l.14 3.476c.059 1.634.073 3.507-.993 4.857l-.159-.059c-1.775-2.916-1.242-17.052-.617-20.44"/><path fill="#FDFDFC" d="M186.331 313.728c.597.18 1.247.409 1.553.968.72 1.325.713 5.222.171 6.566-.235.582-.337.582-.882.821l-.52.315-.568-.17a2.9 2.9 0 0 1-.411-.838c-.598-2.079-.412-5.806.657-7.662"/><path fill="#38319B" d="M191.844 312.038c1.488.805 3.398.095 4.696 1.373.938.924 1.212 2.546 1.243 3.801.044 1.751-.383 4.15-1.642 5.464.633 2.922 1.722 5.93 1.087 8.926l-.753-.006.076.14c-.85-1.813-1.262-3.566-1.444-5.55-.155-.947-.242-1.72-.867-2.486l-.488.262.176-.423c-.756 2.254.174 4.609-.353 6.807-.184.766-.652 1.434-1.332 1.826-1.126-1.511-.531-17.431-.399-20.134"/><path fill="#FDFDFC" d="m193.943 313.778 1.074.651c.758 1.108.997 2.758.939 4.075-.046 1.046-.218 1.926-.993 2.633l-.596.665-.494-.14c-.925-1.986-.47-5.791.07-7.884"/><path fill="#C1B1EE" d="M217.457 235.36c1.25.26 2.499.54 3.758.748.938.25 1.93.456 2.842.781-.775-.022-1.44-.187-2.108.229.26 3.541 8.408 20.675 10.088 25.982.72 2.274 8.78 23.472 9.397 23.92.044.034.096.053.144.078-.034.042-.065.084-.102.123a2.74 2.74 0 0 1-1.826.846c-.845.05-1.665-.384-2.267-.935-1.109-1.398-10.546-26.934-11.948-30.492-1.906-4.84-4.11-9.566-5.913-14.445-.83-2.247-1.562-4.49-2.065-6.835"/><path fill="#38319B" d="M241.578 287.098c1.18 1.06 3.25 1.063 4.753.985 1.177-.058 2.351-.172 3.496-.462-.571 4.551-3.019 8.954-6.648 11.762-6.714 5.2-15.125 4.323-23.084 4.336-2.463.006-5.043.432-7.484.078-.881-.128-1.243-.222-1.91-.82l-.164-.165c-.124-1.336.126-14.097.381-15.135 2.744 1.158 20.435.635 24.395.342 1.077-.08 1.346-.05 2.07-.887.602.55 1.422.985 2.267.935a2.74 2.74 0 0 0 1.826-.846c.037-.04.068-.081.102-.123"/><path fill="#4052C4" d="M178.737 287.173c1.35 1.372 5.682 1.12 7.644 1.136 2.254.02 5.218.133 7.376-.518 2.614.84 14.527.638 17.161-.114-.255 1.038-.505 13.8-.38 15.135l.164.164c-1.623 1.317-5.118 1.013-7.112.991-9.301-.1-21.09 1.21-28.135-6.056-2.195-2.266-4.73-6.774-4.672-9.95 1.459-.832 5.515 1.035 7.817-.68.047-.032.091-.071.137-.108"/><path fill="#51BCE6" d="m148.041 286.636.562-.172c-.994 16.407 3.297 31.135 14.303 43.537q.472.526.956 1.038.484.515.98 1.016.498.501 1.006.988.51.49 1.03.966t1.053.94q.532.463 1.076.914.544.45 1.098.888.554.434 1.12.857.565.423 1.14.832t1.16.804q.586.393 1.18.774.595.378 1.199.746.603.364 1.216.715.613.35 1.234.685.621.334 1.25.654.63.32 1.266.623.637.306 1.281.593.644.29 1.295.562.651.27 1.309.53.657.255 1.32.495.664.239 1.334.462.67.225 1.344.431.674.209 1.354.398t1.364.365q.683.172 1.371.33.688.157 1.38.296t1.387.261q.695.126 1.393.231.697.103 1.397.192t1.403.162q.702.07 1.406.125.703.053 1.408.09.69.038 1.38.058.69.022 1.38.025.691.005 1.382-.009.69-.01 1.38-.041t1.38-.078q.688-.048 1.376-.112.687-.066 1.373-.147t1.37-.178q.683-.1 1.364-.215.68-.117 1.359-.247.677-.134 1.352-.281.674-.15 1.344-.318.671-.164 1.337-.348.666-.18 1.327-.38.662-.199 1.318-.413.656-.217 1.307-.448.65-.23 1.295-.479.645-.247 1.283-.512.639-.261 1.27-.542.632-.279 1.257-.574t1.241-.604q.617-.311 1.226-.637.61-.326 1.21-.665.601-.34 1.193-.696t1.176-.727q.583-.367 1.157-.751.574-.387 1.137-.785.565-.398 1.119-.81t1.097-.837 1.077-.866 1.055-.89q.522-.454 1.032-.92c10.145-9.075 17.176-22.254 18.931-35.763 1.417 12.07-4.516 26.938-11.9 36.293q-.416.523-.845 1.035-.428.512-.87 1.016-.44.5-.893.993-.453.49-.917.972-.465.479-.941.949-.477.467-.964.927-.488.456-.986.901-.499.446-1.008.877-.509.434-1.028.855-.52.42-1.049.826-.53.41-1.069.805t-1.088.776q-.548.381-1.106.749-.558.367-1.124.723-.567.354-1.142.693-.575.343-1.158.668-.583.326-1.174.64-.59.312-1.189.61-.598.298-1.203.582-.605.28-1.217.55-.612.268-1.23.521-.619.254-1.243.493-.625.24-1.254.462-.63.223-1.265.431-.635.209-1.275.401t-1.285.367q-.644.179-1.293.34t-1.3.306q-.653.145-1.309.276-.655.128-1.314.242-.658.114-1.32.211-.66.098-1.324.178c-15.718 1.787-30.96-2.37-43.353-12.248-11.726-9.346-19.715-23.766-22.18-38.548-.056-.058-.116-.111-.169-.172-1-1.136-.206-15.313-.075-17.838"/><path fill="#FDFDFC" d="M204.025 234.63c3.235-.109 6.463.004 9.697.097l3.735.633c.503 2.345 1.234 4.588 2.065 6.835 1.803 4.879 4.007 9.605 5.913 14.445 1.402 3.558 10.84 29.094 11.948 30.492-.724.837-.993.807-2.07.887-3.96.293-21.65.816-24.395-.342-2.634.752-14.547.955-17.16.114-2.159.651-5.123.537-7.377.518-1.962-.017-6.295.236-7.644-1.136l.317-.066c1.56-1.581 2.34-5.478 3.034-7.612-1.225.025-2.41.06-3.623-.148 2.266-.654 5.752-.086 8.11.022 1.405.14 2.536-.122 3.8-.723.527-.84 1.11-1.808.965-2.844-.166-1.18-1.123-1.846-2.025-2.478 1.559-6.512 4.782-13.052 7.202-19.32 2.502-6.479 4.536-13.078 7.508-19.374"/><path fill="#C1B1EE" d="M178.465 279.347c2.266-.654 5.752-.086 8.11.022-1.245 2.43-1.727 5.62-3.288 7.807 2.263 1.33 7.89.651 10.47.615-2.158.651-5.122.537-7.376.518-1.962-.017-6.295.236-7.644-1.136l.317-.066c1.56-1.581 2.34-5.478 3.034-7.612-1.225.025-2.41.06-3.623-.148"/><path fill="#38319B" d="m141.878 125.626.507.168 4.24-.01c8.283.207 16.698 5.423 22.253 11.273 6.724 7.08 9.485 15.377 10.388 24.925 6.034.013 12.106-.112 18.135.057-4.341.232-14.442-.44-17.709.326l-.279.429c.172 1.82.014 3.563-.268 5.365-.135.63-.219 1.353-.53 1.918 6.606.184 13.242.052 19.852.027 3.033-.012 6.752.396 9.675-.232.084 2.825.452 6.337-.14 9.071l2.566-.04a8 8 0 0 1 2.118.747c-.032 1.581-.071 2.996-.509 4.53a10 10 0 0 1-.113.361c-.564.136-1.176.341-1.755.37.04 1.275-.29 2.576.038 3.81-.375 1.561-.977 3.608-.083 5.093.43.713.919.832 1.636 1.152l.587.128c.55.965-.15 1.81.442 2.723.558.142 2.033.285 2.338.744.396.596.605 1.718.437 2.413-.058.238-.429.428-.625.576-1.164.065-2.172-.062-3 .833l-.027 1.403c-.55.496-.854.532-1.557.69-.586 2.496-.284 5.137-.367 7.683l.354-.01a68 68 0 0 0-.06 4.201l.383-.027-.01.28c-.009.27.007.526.039.796l-.105.128c-2.346 3.632-4.307 12.377-5.983 14.464.002.672-.114 1.09.323 1.64 2.856.222 5.737.325 8.574.72l.079.376c-3.234-.093-6.462-.206-9.697-.097-2.972 6.296-5.006 12.895-7.508 19.374-2.42 6.268-5.643 12.808-7.202 19.32.902.632 1.859 1.297 2.025 2.478.146 1.036-.438 2.003-.964 2.844-1.265.6-2.396.862-3.8.723-2.36-.108-5.845-.676-8.11-.022-7.665.253-16.73-1.127-24.127.128-1.167 2.55-2.205 5.53-4.992 6.685-.248.103-.493.206-.744.304l-.562.172c-.13 2.525-.925 16.702.075 17.838.053.061.113.114.17.172-.882 3.955-.226 17.598-.218 22.319l-.021 46.977c.004 7.974.447 16.246-.024 24.192l.02.437q8.627 26.994 16.878 54.108l4.63 15.302c1.031 3.454 1.91 7.184 3.437 10.454.873.32 8.595.223 9.89.03l-.085.142.268.037.013.236-.26-.34.534.357c-.177 1.528 9.295 17.183 10.982 19.56.624 1.144 1.296 2.87 2.3 3.696q.452.162.924.25.472.09.951.107c1.405.05 3.019-.128 4.082-1.133.696-.585 1.159-1.492 1.845-2.118 3.744-3.418 4.625-3.245 8.826-5.183l.173-1.274q-.153.092-.316.167-.162.075-.332.13t-.346.092q-.175.034-.353.05c-5.914.46-16.266-4.837-20.736-8.63-6.003-5.096-11.503-13.577-12.143-21.584l.274-.005c1.812-.552 5.19-.009 7.15.033 4.997.111 28.257 1.007 31.036-.715.405.3.827.517 1.333.598 4.473.699 9.726.24 14.29.242 7.49.003 15.582.507 23.013-.406-.42.295-1.108.651-1.37 1.088.027 6.816-4.46 13.897-9.1 18.575-4.48 4.517-11.005 8.737-17.317 9.978-2.069.409-5.142.504-6.995 1.294 1.6 1.72 4.278 2.029 6.077 3.476 1.708 1.378 2.978 3.733 4.66 4.938 1.017.72 2.538.968 3.762.762.303-.05.595-.156.878-.272l.16.027c3.091.47 4.588.145 7.627 1.581 1.443 2.09 1.685 3.866 1.975 6.324-.224.481-.293.915-.813 1.121-2.006.785-21.721.106-25.637.114l-116.247.04-36.822-.017c-4.505.014-8.995.336-13.508.295-2.075-.02-9.398.172-10.959-.574-.273-.13-.483-.395-.667-.626.745-.921.452-3.88 1.096-5.285.839-1.834 2.67-2.533 4.51-2.953 5.66-1.289 11.895-.3 17.65-.125 5.672.172 11.435.172 17.114.192 1.874.008 4.99.328 6.704-.315 1.195-1.728 2.12-3.785 3.199-5.61 2.275-3.861 4.67-7.663 6.857-11.57.816-1.462 2.81-5.92 3.7-6.705.927-.821 7.497.445 9.516-.47q.08-.04.16-.079c1.492-1.592 12.084-38.104 13.81-43.73 3.385-10.475 6.784-21.076 9.752-31.672 1.997-6.156 1.11-14.801 1.192-21.339l-.168-52.591c-.029-4.409.537-14.587-.387-18.138a.97.97 0 0 0 .362-.373c.85-1.642.427-15.756-.124-17.95l-.013-5.32c-.35.044-.643.05-.988-.05-2.709-.774-4.46-5.141-5.662-7.48-3.51-.734-7.488-.222-11.065-.216q-10.81-.078-21.618.167l-1.851-.476c-.52-.109-1.483-.47-1.8-.92-.451-.642-.585-1.226-.422-1.986.329-1.53 1.166-2.404 2.426-3.25-4.94-12.565-10.149-24.986-14.562-37.754q-2.334-.154-4.67-.268c-2.82.162-5.637.267-8.426.735l-1.769.134c-1.003.39-2.532.57-3.61.477 1.27-4.14 2.828-8.198 4.38-12.24.872-2.273 1.937-4.6 2.528-6.958l-.306-.484-.554-.182c-1.759-.256-3.253-1.034-4.685-2.07-3.452-2.497-5.565-6.675-6.242-10.825-.706-4.332.06-8.74 2.691-12.325 2.26-3.082 5.505-5.08 9.26-5.688.243-2.247.282-3.974 1.86-5.737.704.055 1.677-.305 2.377-.478l.363.114c.719.179 1.458.405 2.185.536-.667-2.88-.196-6.715-.172-9.689l30.433-.171-.43-1.948c.032-1.426-.18-2.9-.302-4.323l.03-1.45c-.339-7.721 2.846-16.346 7.583-22.378 5.313-6.767 13.95-12.372 22.591-13.407 1.757-.286 3.481-.436 5.257-.533zm-65.275 44.326c-.024 2.974-.495 6.808.172 9.689-.727-.131-1.466-.357-2.185-.536l-.363-.114c-.7.173-1.673.533-2.378.478-1.577 1.763-1.616 3.49-1.858 5.737-3.756.607-7 2.606-9.261 5.688-2.63 3.586-3.397 7.993-2.69 12.325.676 4.15 2.79 8.328 6.24 10.825 1.433 1.036 2.927 1.814 4.686 2.07l.554.182.306.484c-.59 2.358-1.656 4.685-2.529 6.959-1.55 4.04-3.11 8.099-4.38 12.239 1.079.092 2.608-.088 3.611-.477l1.769-.134c2.79-.468 5.606-.573 8.426-.735q2.336.114 4.67.268c4.413 12.768 9.623 25.189 14.562 37.754 1.303-.108 2.584-.198 3.894-.184q15.512-.078 31.024.002c.39-.735.643-1.367.825-2.183 1.242-2.286 2.968-3.534 5.16-4.817-.416-9.441-.172-18.979.129-28.423-.4-3.804-.201-7.652-.138-11.468.136-8.176.66-19.35-.21-27.315-4.295-.28-9.244-2.636-12.887-4.816-9.305-5.567-14.114-13.352-16.716-23.67zm102.011.125c-4.223 12.189-7.984 19.638-20.1 25.486-1.802.87-3.743 1.694-5.67 2.245-1.536.523-3.153.98-4.603 1.713q-.223 22.585-.154 45.17c.006 6.927-.176 13.916.074 20.835 2.648 1.427 4.537 3.902 5.837 6.592l.251.732c2.52-.678 5.378-.416 7.953-.32 6.265.956 13.226.123 19.596.248 2.486.048 5.072.634 7.517.546 1.559-6.512 4.782-13.052 7.202-19.32 2.502-6.479 4.536-13.078 7.508-19.374 3.235-.109 6.463.004 9.697.097l-.079-.376c-2.837-.395-5.718-.498-8.574-.72-.437-.55-.32-.968-.323-1.64 1.676-2.087 3.637-10.832 5.983-14.464l.105-.128a5 5 0 0 1-.04-.796l.01-.28-.383.027a68 68 0 0 1 .06-4.2l-.353.01c.083-2.547-.22-5.188.367-7.683.703-.16 1.006-.195 1.557-.691l.026-1.403c.829-.895 1.837-.768 3.001-.833.196-.148.567-.338.625-.576.168-.695-.041-1.817-.437-2.413-.305-.459-1.78-.602-2.338-.744-.592-.914.109-1.758-.442-2.723l-.587-.128c-.717-.32-1.206-.44-1.636-1.152-.894-1.485-.292-3.532.083-5.092-.327-1.235.002-2.536-.038-3.811.58-.029 1.19-.234 1.755-.37q.06-.18.113-.362c.438-1.533.477-2.948.51-4.529a8 8 0 0 0-2.119-.748l-2.566.041c.592-2.734.224-6.246.14-9.07-2.923.627-6.642.219-9.675.23-6.61.026-13.246.158-19.853-.026"/><path fill="#8866CB" d="M208.215 502.329c-.684.314-1.519.345-2.262.32-.685-.025-1.344-.112-1.841-.63l.077-.676c2.296-3.014 5.93-5.026 9.616-5.833 1.043-.226 2.348-.248 3.209-.916.041-.03.08-.067.12-.103.498 2.288.318 4.932.25 7.27-1.925 1.105-7.018 1.11-9.17.568"/><path fill="#864BAE" d="m217.134 494.491.245.1c1.488.602 3.043.922 4.571 1.395 3.764 1.166 6.41 3.468 9.076 6.304-1.988.523-21.398.837-22.46.311-.134-.066-.24-.175-.351-.272 2.15.542 7.244.537 9.17-.568.067-2.338.247-4.982-.251-7.27"/><path fill="#8777D7" d="M142.431 265.453c3.31.404 6.388 1.297 8.553 4.018 1.815 2.283 2.408 5.502 2.044 8.348-.42 3.279-2.201 5.772-4.79 7.74-1.39 1.055-3.142 1.895-4.927 1.6-.546-.089-.693-.267-1.113-.61.915-2.045.272-17.85.233-21.096"/><path fill="#C1B1EE" d="M143.217 267.128c.28.162.552.333.824.507 2.322 1.478 4.323 3.403 4.901 6.204.65 3.151-.759 5.828-2.45 8.358q-1.661 1.147-3.292 2.335zM142.198 286.55l-.71.506c-1.862.131-3.3-.125-4.845-1.235q-.24-.173-.472-.354-.231-.183-.454-.378-.222-.192-.435-.398-.212-.203-.415-.42-.202-.215-.393-.437-.192-.226-.372-.46-.18-.233-.348-.476-.169-.242-.325-.492t-.3-.51q-.144-.256-.275-.52t-.249-.534q-.118-.273-.222-.549-.104-.275-.195-.556-.09-.281-.167-.565t-.14-.574q-.062-.288-.11-.58c-.437-2.793.144-5.819 1.84-8.112 2.23-3.016 5.304-3.933 8.82-4.453.04 3.246.682 19.051-.233 21.097"/><path fill="#EC8B2C" d="M154.25 272.85c2.518-.678 5.377-.416 7.952-.32 6.265.956 13.226.123 19.596.248 2.486.048 5.072.634 7.517.546.902.632 1.859 1.297 2.025 2.478.146 1.036-.438 2.003-.964 2.844-4.912-1.578-29.039-.625-35.857-.604.042-1.74-.125-3.46-.27-5.192"/><path fill="#4052C4" d="M189.963 505.554c1.14-.567 2.335-1.219 3.593-1.472 5.157-1.046 22.62 1.077 25.443-.863.366 2.08.49 4.186.256 6.288l-.205.278c-.155.158-.3.314-.5.42-1.802.935-27.356.587-29.976-.17-.299-1.23.84-3.362 1.389-4.48"/><path fill="#EB938B" d="M99.849 272.47q15.512-.078 31.024.002c-.503 1.856-.704 3.572-.711 5.5l-22.96-.184c-3.181.003-7.08-.286-10.196.336-.507.102-.867.357-1.255.686-.52-.109-1.483-.47-1.8-.92-.451-.642-.585-1.226-.422-1.986.329-1.53 1.166-2.404 2.426-3.25 1.303-.108 2.584-.198 3.894-.184"/><path fill="#4052C4" d="M71.07 503.11c1.217.655 2.202.555 3.51.251.067 2.24.261 4.434-.06 6.663-.261.159-.54.284-.842.348-2.501.512-24.723.81-26.221-.145-.404.226-.794.343-1.244.432-.943.186-1.356.022-2.117-.493-.448-.815-.544-1.483-.335-2.385 2.002-8.647 22.57-1.614 27.309-4.67"/><path fill="#8777D7" d="M146.038 287.477c.567 5.074.38 10.337.407 15.438l.092 23.446q.027 35.377-.406 70.752c-.381.409-.696.567-1.258.65-.891.134-1.42-.177-2.098-.7.12-.276.093-.165.14-.465.653-4.047.247-8.887.224-13.017l-.079-23.518-.037-48.484-.068-12.953c.011-2.63.19-5.316.051-7.94-.057-1.086-.426-1.706-1.066-2.566.446.275.843.478 1.38.503 1.114.05 1.919-.428 2.718-1.146"/><path fill="#4052C4" d="M99.283 503.364c-1.642.604-3.923-1.28-6.366-.782-.795.164-.825.178-1.484-.245-.222-.935.125-1.623.384-2.538.16.423.186.832.616 1.024.733.331 1.666.403 2.463.44 4.566.206 44.659.34 46.129-.254.178-.072.208-.091.36-.172.504.106.894.172 1.406.097-.531 1.926.238 8.492-.556 9.394-.255.11-.5.197-.774.256-3.078.629-9.492.142-12.99.147-8.003.014-16.692.51-24.624-.083-.35-.028-.612-.15-.903-.343-.904-3.593-1.626-4.038-3.661-6.941"/><path fill="#FDFDFC" d="M139.161 287.655c.625.56.788.737 1.647.88l1.132-.415c.64.86 1.009 1.48 1.066 2.566.138 2.624-.04 5.31-.05 7.94l.067 12.953.037 48.484.079 23.518c.023 4.13.43 8.97-.223 13.017-.048.3-.02.189-.141.464-.688.585-1.328.838-2.237.774a3.1 3.1 0 0 1-1.662-.61c-.338-9.944-1.003-106.757.285-109.571"/><path fill="#4052C4" d="m179.205 463.027.274-.005c.093.289.171.848.44.985.717.367 1.496.487 2.294.534 2.57.148 5.268-.167 7.853-.175 4.585-.014 24.167.801 26.864-.26.273-.108.482-.252.69-.455.094 3.245.4 28.486-.334 29.243-.054.055-.12.1-.179.153l-.182.075c-1.39.548-2.176.242-3.494-.32q-.153.092-.316.167-.162.075-.332.13t-.346.092q-.175.034-.353.05c-5.914.46-16.266-4.837-20.736-8.63-6.003-5.096-11.503-13.577-12.143-21.584"/><path fill="#C1B1EE" d="M103.685 479.59c.077.042.152.086.232.122 1.216.557 2.878.496 4.108.064.742.446 1.492.48 2.333.524 5.437.283 10.98-.092 16.43-.123 3.962-.022 11.271.596 14.791-.236.432-.103.781-.315 1.147-.557.052 3.373.943 19.212-.394 21.417-.378.097-.558.142-.947.036-.152.08-.182.1-.36.172-1.47.593-41.563.46-46.13.254-.796-.037-1.729-.109-2.462-.44-.43-.192-.455-.601-.616-1.024 1.495-.738 10.292-17.365 11.868-20.21"/><path fill="#8777D7" d="M108.025 479.776c.955.362 34.254.178 36.935-.359 2.199.785 35.748.666 37.184.128 1.362 4.245 8.594 16.546 11.547 20.087l.129.459c-.494.69-.544.882-1.415 1.027-3.36.562-48.5.273-49.614-.184-.512.075-.902.009-1.406-.097.389.106.57.061.947-.036 1.337-2.205.446-18.044.394-21.417-.366.242-.715.454-1.147.557-3.52.832-10.83.214-14.79.236-5.452.03-10.994.406-16.43.123-.842-.045-1.592-.078-2.334-.524"/><path fill="#4052C4" d="m136.658 403.233.396-.067c.895-.99.852-2.46 1.432-3.607.549-1.083 2.657-.306 3.803-.743q.092-.039.184-.078c.99 3.415.279 13.087.273 17.25l-.022 43.41q.003 6.017-.078 12.032c-.04 2.17-.258 4.433-.146 6.593-.148.17-.306.342-.497.465-1.346.857-25.387.612-27.886-.142.483-3.187 2.07-6.733 3.057-9.847 2.194-6.92 4.216-13.88 6.33-20.821 1.325-4.348 3.015-8.445 3.688-12.97l.431-.317c1.691-3.635 9.227-27.796 9.035-31.158"/><path fill="#8777D7" d="m141.878 125.626.507.168 4.24-.01c8.283.207 16.698 5.423 22.253 11.273 6.724 7.08 9.485 15.377 10.388 24.925 6.034.013 12.106-.112 18.135.057-4.341.232-14.442-.44-17.709.326l-.279.429c.172 1.82.014 3.563-.268 5.365-.135.63-.219 1.353-.53 1.918-4.224 12.189-7.985 19.638-20.1 25.486-1.803.87-3.744 1.694-5.671 2.245-1.536.523-3.153.98-4.603 1.713l-.636-.424c-.403.115-.478.07-.68.435-.296.532-.377 1.13-.486 1.72-.253 5.077.006 10.224-.006 15.31l-.024 32.416c.012 4.217.795 12.15-.23 15.91-1.074-.377-2.236-.483-3.36-.64-1.34.122-2.613.214-3.887.687-1.098-3.69-.427-15.889-.556-20.54-.678-4.926.7-11.84-.239-16.333-.08-.388-.136-.777-.197-1.168-.142.911-.489 1.862-.533 2.769-.112 2.262.433 4.998-.336 7.163q-.041.112-.084.223c-.4-3.804-.201-7.652-.138-11.468.136-8.176.66-19.35-.21-27.315.755.22 1.342.262 1.751 1.03.731 1.371.115 3.58.444 5.129.191-1.88.055-3.874.039-5.768 1.188.1 2.38.314 3.561.482-.809-3.132-.29-7.424-.279-10.675l2.076-.258c5.36-.138 10.888-2.752 14.947-6.156 5.262-4.413 8.263-10.84 8.84-17.637q.027-.324.047-.65.02-.324.03-.65.012-.325.016-.65.003-.326-.002-.651-.004-.325-.017-.65-.012-.326-.033-.65-.02-.325-.049-.65-.028-.324-.064-.647-.037-.324-.081-.646-.045-.323-.097-.644t-.112-.641-.129-.638-.143-.635q-.076-.316-.16-.631-.083-.315-.174-.627-.092-.312-.19-.622-.1-.31-.206-.618t-.22-.612q-.114-.305-.236-.607t-.25-.601-.265-.595-.28-.588-.293-.58-.308-.574q-.158-.284-.322-.565t-.336-.558q-.17-.277-.35-.55-.177-.272-.362-.54-.185-.267-.376-.531-.19-.263-.389-.522-.197-.258-.401-.512t-.414-.502c-5.078-5.964-11.744-8.579-19.393-9.2l-.2-.12c.013-1.945.159-3.891.18-5.838.013-1.1.106-3.377-.674-4.176z"/><path fill="#864BAE" d="M153.605 195.522q-.062.076-.127.15c-.818.888-4.398.861-4.449 2.212 1.302.238 2.521-.202 3.815-.076-1.536.523-3.153.98-4.603 1.713l-.636-.424c-.403.115-.478.07-.68.435-.296.532-.377 1.13-.486 1.72.007-.744.068-1.313-.36-1.962-1.037-.625-3.014-.281-4.227-.3 3.536-1.347 8.02-2.931 11.753-3.468"/><path fill="#FDFDFC" d="M136.639 198.266c.755.22 1.342.262 1.751 1.03.731 1.371.115 3.58.444 5.129.191-1.88.055-3.874.039-5.768 1.188.1 2.38.314 3.561.482 1.313 1.683.465 58.153.385 65.11-1.34.12-2.613.213-3.887.686-1.098-3.69-.427-15.889-.556-20.54-.678-4.926.7-11.84-.239-16.333-.08-.388-.136-.777-.197-1.168-.142.911-.489 1.862-.533 2.769-.112 2.262.433 4.998-.336 7.163q-.041.112-.084.223c-.4-3.804-.201-7.652-.138-11.468.136-8.176.66-19.35-.21-27.315"/><path fill="#4052C4" d="M136.639 198.266c.755.22 1.342.262 1.751 1.03.731 1.371.115 3.58.444 5.129l-.194 24.407c-.014 5.06.305 10.55-.264 15.563-.678-4.926.7-11.84-.239-16.333-.08-.388-.136-.777-.197-1.168-.142.911-.489 1.862-.533 2.769-.112 2.262.433 4.998-.336 7.163q-.041.112-.084.223c-.4-3.804-.201-7.652-.138-11.468.136-8.176.66-19.35-.21-27.315"/><path fill="#8866CB" d="M146.625 125.783c8.283.208 16.698 5.424 22.253 11.274 6.724 7.08 9.485 15.377 10.388 24.925 6.034.013 12.106-.112 18.135.057-4.341.232-14.442-.44-17.709.326l-.279.429c.172 1.82.014 3.563-.268 5.365-.135.63-.219 1.353-.53 1.918-4.224 12.189-7.985 19.638-20.1 25.486-1.803.87-3.744 1.694-5.671 2.245-1.294-.126-2.513.314-3.815.076.05-1.35 3.631-1.324 4.449-2.213q.065-.074.127-.149c4.874-3.332 9.527-6.159 13.141-10.966q.264-.35.52-.704.255-.356.502-.718t.484-.73.466-.74.448-.753.429-.763q.21-.385.41-.774.2-.39.39-.783.192-.394.372-.793.181-.399.352-.802t.333-.81.312-.818q.15-.411.291-.826.141-.414.272-.832.13-.418.25-.839t.23-.845.21-.85q.099-.427.188-.855.088-.429.167-.86.078-.43.145-.863.068-.433.125-.867t.103-.87.082-.871.06-.874.039-.874.017-.876q.003-.437-.004-.875-.008-.438-.027-.875-.018-.438-.047-.875-.03-.436-.07-.873-.039-.435-.09-.87t-.112-.869c-1.66-11.44-10.277-23.897-20.996-28.539-2.96-1.282-7.547-1.729-10.015-3.641q-.099-.077-.197-.155z"/><path fill="#C1B1EE" d="M141.765 125.742c.78.8.687 3.076.675 4.176-.022 1.947-.168 3.893-.182 5.839l.201.12c7.649.62 14.315 3.235 19.393 9.199q.21.248.414.502t.401.512q.198.259.39.522.19.264.375.532.185.267.363.54.178.272.35.549.17.277.335.558.164.28.322.565.157.285.308.574.15.288.294.58.143.293.28.588.135.296.264.595t.25.6q.122.303.236.608.114.304.22.612.107.308.206.618t.19.622q.09.312.174.627.084.314.16.631.075.317.143.635t.129.638.112.641q.052.321.097.644.044.322.08.646.037.323.065.647.029.325.05.65.02.324.032.65.013.325.017.65t.002.65-.015.652-.031.65-.047.649c-.577 6.797-3.578 13.224-8.84 17.637-4.06 3.404-9.588 6.018-14.947 6.156l-2.076.258c-.01 3.251-.53 7.543.28 10.675-1.182-.168-2.374-.381-3.562-.482.016 1.894.152 3.887-.039 5.768-.33-1.55.287-3.758-.444-5.128-.41-.769-.996-.81-1.751-1.031-4.295-.28-9.244-2.636-12.887-4.816-9.305-5.567-14.114-13.352-16.716-23.67l-.43-1.947c.032-1.426-.18-2.9-.302-4.323l.03-1.45c-.339-7.721 2.846-16.346 7.583-22.378 5.313-6.767 13.95-12.372 22.591-13.407 1.757-.286 3.481-.436 5.257-.533"/><path fill="#F5DD78" d="m142.258 135.757.201.12c-1.357 5.807-.098 16.269-.234 22.71l-.002.16c-1.77 1.208-3.354 3.02-4.8 4.6-.69-1.284-2.948-3.406-4.248-4.076-1.196-.616-2.54-.94-3.853-.495-1.491.507-2.304 1.761-2.935 3.118.282 3.566 4.82 7.606 7.434 9.847 1.278 1.096 3.45 2.923 5.188 2.807.82-.054 1.714-.43 2.48-.71l1.069 1.46c-.314.188-.71.365-.947.643 1.696 3.098-1.583 9.859 1.282 12.132l1.338.133-2.076.258c-5.68-.238-11.63-2.099-16.133-5.626-5.493-4.303-9.003-10.886-9.84-17.785q-.04-.312-.074-.626-.033-.313-.058-.628-.025-.314-.043-.629-.017-.314-.027-.63-.01-.315-.011-.63-.002-.315.004-.63t.02-.63.036-.63.052-.628.067-.627.083-.625.098-.623.114-.62.129-.617.145-.613.16-.61.174-.606.19-.6.205-.597.22-.59.235-.586.249-.58q.128-.287.263-.572t.277-.566q.143-.282.292-.559.15-.278.305-.552.157-.273.32-.543.162-.27.332-.536t.346-.527.358-.518.372-.51q.19-.252.384-.5c5.37-6.814 12.485-9.381 20.86-10.358"/><path fill="#F4B03E" d="M141.61 175.94c-.385.196-.785.397-1.202.518-1.4.409-2.999-.047-4.241-.712-2.78-1.487-9.881-8.27-10.722-11.196-.27-.94-.305-2.097.166-2.976.274.083.558.13.776.32.282 3.566 4.82 7.606 7.434 9.847 1.278 1.096 3.45 2.923 5.188 2.807.82-.054 1.714-.43 2.48-.71l1.069 1.46c-.314.188-.71.365-.947.643"/><path fill="#FDFDFC" d="M124.207 149.058c.355.103.726.194 1.014.437.26.218.455.39.457.752.007 1.236-1.867 5.299-2.315 6.698-.703 2.196-1.04 4.52-1.798 6.69-.191.547-.51 1.014-.862 1.467-.386-.235-.776-.492-1.095-.814-.846-.853-1.042-2.31-1.018-3.458.09-4.254 2.579-8.912 5.617-11.772"/><path fill="#F6C044" d="M142.46 135.877c7.648.62 14.314 3.235 19.392 9.199q.21.248.414.502t.401.512q.198.259.39.522.19.264.375.532.185.267.363.54.178.272.35.549.17.277.335.558.164.28.322.565.157.285.308.574.15.288.294.58.143.293.28.588.135.296.264.595t.25.6q.122.303.236.608.114.304.22.612.107.308.206.618t.19.622q.09.312.174.627.084.314.16.631.075.317.143.635t.129.638.112.641q.052.321.097.644.044.322.08.646.037.323.065.647.029.325.05.65.02.324.032.65.013.325.017.65t.002.65-.015.652-.031.65-.047.649c-.577 6.797-3.578 13.224-8.84 17.637-4.06 3.404-9.588 6.018-14.947 6.156l-1.338-.133c-2.865-2.273.414-9.034-1.282-12.132.236-.278.633-.455.947-.643l-1.068-1.46c-.767.28-1.66.656-2.48.71-1.74.116-3.91-1.711-5.189-2.807-2.614-2.241-7.152-6.28-7.434-9.847.631-1.357 1.444-2.611 2.935-3.118 1.313-.446 2.657-.12 3.853.495 1.3.67 3.558 2.792 4.247 4.077 1.447-1.58 3.03-3.393 4.8-4.601l.003-.16c.136-6.441-1.123-16.903.234-22.71"/><path fill="#F4B03E" d="M146.407 154.568c1.71-1.979 3.536-4.393 6.157-5.16 2.036-.594 3.705.048 5.484 1.033l-.33.46c-1.447-.603-2.693-.936-4.207-.332-2.151.858-3.726 2.825-5.257 4.486-.516-.28-1.27-.357-1.847-.487"/><path fill="#ED9E3B" d="M158.048 150.441c1.334 1.045 2.506 2.233 2.751 3.99.229 1.64-.58 2.857-1.553 4.098-2.814 3.589-6.435 6.81-9.696 9.995-2.298 2.245-4.558 4.686-6.992 6.774l-1.068-1.46c2.768-2.969 17.29-16.782 17.656-19.048.238-1.482-.599-2.753-1.428-3.89z"/><path fill="#FDFDFC" d="M148.254 155.055c1.531-1.661 3.106-3.628 5.257-4.486 1.514-.604 2.76-.27 4.207.332.83 1.136 1.666 2.407 1.428 3.889-.366 2.266-14.888 16.08-17.656 19.048-.767.28-1.66.656-2.48.71-1.74.116-3.91-1.711-5.189-2.807-2.614-2.241-7.152-6.28-7.434-9.847.631-1.357 1.444-2.611 2.935-3.118 1.313-.446 2.657-.12 3.853.495 1.3.67 3.558 2.792 4.247 4.077 1.447-1.58 3.03-3.393 4.8-4.601l.003-.16c1.569-1.12 2.95-2.546 4.182-4.019.576.13 1.33.207 1.847.487"/><path fill="#F4B03E" d="M137.422 163.348c1.447-1.58 3.03-3.393 4.8-4.601.165.58.38 1.181.443 1.78-1.066 1.185-2.208 2.864-3.671 3.522-.787-.044-.963-.241-1.572-.701"/><path fill="#ED9E3B" d="M146.407 154.568c.576.13 1.33.207 1.847.487-1.818 1.877-3.622 3.748-5.589 5.473-.063-.6-.278-1.201-.442-1.781l.002-.16c1.569-1.12 2.95-2.546 4.182-4.019"/><path fill="#F6C044" d="m208.002 178.943 2.566-.04c-1.073 1.783-1.028 3.79-.554 5.778l.038.148c-.657-.016-1.127-.277-1.74.034-.304-.485-.596-1.03-.767-1.577-.482-1.536-.227-2.93.457-4.343"/><path fill="#F4B03E" d="M210.568 178.902a8 8 0 0 1 2.118.748c-.032 1.581-.071 2.996-.509 4.53a10 10 0 0 1-.113.361c-.564.136-1.176.341-1.755.37l-.257-.082-.038-.148c-.474-1.988-.519-3.995.554-5.779"/><path fill="#51BCE6" d="M166.245 228.114c.59 1.88 1.368 2.581 2.87 3.77l-.211.001.63.315c.014.406.007.277-.332.44-1.715.826-1.914 1.263-2.608 3.005l-.147.217-.364-.053c-.433-1.62-1.371-2.08-1.879-3.313-.539-1.309 1.487-3.092 2.041-4.382"/><path fill="#8866CB" d="M206.37 215.953c1.327.174 2.713.446 4.051.397l.384-.027-.01.28c-.009.27.007.526.039.796l-.105.128c-2.346 3.632-4.307 12.377-5.983 14.464-1.152-.297-2.907-.305-4.035.076 1.784-5.42 4.076-10.616 5.66-16.114"/><path fill="#F5DD78" d="M208.311 184.863c.614-.31 1.084-.05 1.741-.034l.257.082c.04 1.275-.29 2.576.038 3.81-3.23.071-6.395 1.222-8.678 3.562q-.206.214-.401.439-.195.224-.379.458-.184.233-.355.476-.172.243-.332.494-.16.25-.306.509-.147.258-.281.524-.134.265-.254.537t-.228.549-.2.56-.172.569-.143.576q-.065.29-.115.584-.05.293-.086.588t-.056.591-.027.594.003.595q.008.28.03.56t.058.558q.036.279.085.555.05.277.113.55.064.273.14.544.077.27.167.535.09.267.193.528.103.26.22.516.116.256.244.506t.27.492q.14.243.293.479.152.235.316.463.165.228.34.447.175.22.36.43.187.21.383.411t.402.392c2.163 2 5.222 3.24 8.177 3.267l.354-.01a68 68 0 0 0-.06 4.201c-1.34.05-2.725-.223-4.052-.397l-.604-.208c-4.474-1.554-7.734-3.902-9.829-8.277q-.172-.362-.325-.733t-.288-.749-.25-.762q-.117-.384-.214-.774t-.173-.783q-.077-.394-.135-.79-.058-.398-.095-.798-.038-.4-.056-.8-.018-.401-.016-.802.003-.401.025-.802.022-.4.063-.8.042-.399.104-.795.062-.397.143-.79t.182-.781.22-.772.259-.76c1.44-3.992 4.16-7.011 8.184-8.451 1.515-.543 3.13-.895 4.585-1.584z"/><path fill="#3FBEB1" d="M210.128 212.16c-2.955-.029-6.014-1.268-8.177-3.268q-.206-.191-.402-.392-.196-.2-.382-.411t-.361-.43q-.175-.22-.34-.447-.164-.228-.316-.463-.153-.236-.294-.48-.14-.242-.269-.491-.128-.25-.244-.506-.117-.255-.22-.516t-.193-.528q-.09-.265-.167-.535-.076-.27-.14-.544-.063-.273-.113-.55-.05-.276-.085-.555-.036-.278-.058-.558t-.03-.56q-.009-.298-.003-.595t.027-.594q.021-.296.056-.591t.086-.588.115-.584.143-.576q.08-.287.172-.57.093-.282.2-.559t.228-.55q.12-.27.254-.536t.28-.524q.148-.259.307-.51.16-.25.332-.493.171-.243.355-.476.184-.234.379-.458.195-.225.4-.44c2.284-2.339 5.45-3.49 8.68-3.56-.376 1.56-.978 3.607-.084 5.092.43.713.919.832 1.636 1.152l.587.128c.55.965-.15 1.81.442 2.723.558.142 2.033.285 2.338.744.396.596.605 1.718.437 2.413-.058.238-.429.428-.625.576-1.164.065-2.172-.062-3 .833l-.027 1.403c-.55.496-.854.532-1.557.69-.586 2.496-.284 5.137-.367 7.683"/><path fill="#FDFDFC" d="m211.9 194.966.587.128c.55.965-.15 1.81.442 2.723.558.142 2.033.285 2.338.744.396.596.605 1.718.437 2.413-.058.238-.429.428-.625.576-1.164.065-2.172-.062-3 .833l-.027 1.403c-.55.496-.854.532-1.557.69q-1.435-.122-2.867-.281c-1.49-1.046-3.105-3.578-3.484-5.314.297-.97 2.484-2.108 3.237-3.236l.072-.11zM200.711 232.067c1.128-.381 2.883-.373 4.035-.076.002.672-.114 1.09.323 1.64 2.856.222 5.737.325 8.574.72l.079.376c-3.234-.093-6.462-.206-9.697-.097-2.972 6.296-5.006 12.895-7.508 19.374-2.42 6.268-5.643 12.808-7.202 19.32-2.445.088-5.031-.498-7.517-.546-6.37-.125-13.331.708-19.596-.248-2.575-.096-5.434-.358-7.953.32l-.25-.732c.63-4.248 2.794-8.443 5.035-12.05 8.484-13.653 21.156-21.225 36.53-24.843 1.188-.415 2.556-.547 3.797-.768z"/><path fill="#C1B1EE" d="M200.711 232.067c1.128-.381 2.883-.373 4.035-.076.002.672-.114 1.09.323 1.64 2.856.222 5.737.325 8.574.72l.079.376c-3.234-.093-6.462-.206-9.697-.097-2.972 6.296-5.006 12.895-7.508 19.374-2.42 6.268-5.643 12.808-7.202 19.32-2.445.088-5.031-.498-7.517-.546-6.37-.125-13.331.708-19.596-.248 3.524-.945 18.525-.235 23.065-.19 2.66-6.126 4.757-12.676 7.15-18.927 2.307-6.02 5.117-12.073 6.883-18.265-1.253.078-2.479.125-3.735.077 1.187-.415 2.555-.547 3.796-.768z"/><path fill="#CB7A38" d="M77.94 184.152c4.329.806 7.874 3.19 10.344 6.817q.23.342.444.696t.41.716.375.735.339.753.302.768.264.782.227.794q.104.399.188.803t.149.812.11.818.07.823.03.824-.01.825-.05.825q-.035.41-.09.82t-.128.815q-.225 1.205-.613 2.368a36 36 0 0 1-1.232-3.067c.1-3.802-.023-7.22-1.914-10.644-1.944-3.519-4.942-5.682-8.746-6.774z"/><path fill="#F6C044" d="M110.838 216.115c1.481 1.143 1.723 3.783 3.076 5.22.909.967 2.625.813 3.401 1.764-.481.855-1.985.949-2.753 1.643-1.376 1.242-2.225 3.229-3.338 4.705l-.498.016-.048-.105c-1.813-3.849-4.228-4.524-7.952-5.863 1.28-.431 2.706-.78 3.918-1.366 2.587-1.249 3.29-3.5 4.194-6.014"/><path fill="#8777D7" d="M69.52 216.296c3.936.797 7.002.539 10.895-.4-.665.354-1.534.66-1.85 1.38 1.806 5.985 4.773 11.634 6.55 17.658l-3.722-.034q-2.334-.154-4.67-.268c1.585-.281 3.135-.237 4.736-.207-1.083-2.6-5.682-15.866-7.27-16.895-.535.027-.66-.028-1.04.394-.941 1.048-5.652 15.092-6.62 17.577-1.004.39-2.533.57-3.612.477 1.27-4.14 2.83-8.198 4.38-12.24.873-2.273 1.938-4.6 2.529-6.958z"/><path fill="#F5DD78" d="m74.227 178.99.363.115c.719.179 1.458.405 2.185.536.843 1.181 1.412 2.775 1.211 4.254-.011.086-.031.172-.047.257l.47 1.309c3.804 1.092 6.802 3.255 8.746 6.774 1.891 3.424 2.014 6.842 1.914 10.644a36 36 0 0 0 1.232 3.067c-1.895 4.024-5.116 8.604-9.637 9.9-.081.023-.166.032-.25.05-3.892.939-6.958 1.197-10.894.4l-.554-.182c-1.759-.256-3.253-1.034-4.685-2.07-3.452-2.497-5.565-6.675-6.242-10.825-.706-4.332.06-8.74 2.691-12.325 2.26-3.082 5.505-5.08 9.26-5.688.243-2.247.282-3.974 1.86-5.737.704.055 1.677-.305 2.377-.478"/><path fill="#51D4BF" d="M74.495 210.983a9 9 0 0 1-.449.065c-2.278.266-4.989-.615-6.765-2.037-2.224-1.78-3.555-4.491-3.866-7.3-.34-3.072.526-6.251 2.518-8.634 2.252-2.694 5.127-3.526 8.482-3.85l-.022 7.785c1.592-.594 2.539-.65 4.105.108.505.245 1.022.654 1.223 1.195.328.886-.03 1.86-.448 2.648-1.21 2.278-3.742 3.501-5.05 5.654q.109 2.185.272 4.366"/><path fill="#FDFDFC" d="M74.223 206.617c-2.077-1.508-4.888-3.628-5.808-6.094-.34-.912-.344-1.867.097-2.75 1.522-3.044 4.008-.132 5.881-.761 1.592-.594 2.539-.65 4.105.108.505.245 1.022.654 1.223 1.195.328.886-.03 1.86-.448 2.648-1.21 2.278-3.742 3.501-5.05 5.654"/><path fill="#F6C044" d="M74.59 179.105c.719.179 1.458.405 2.185.536.843 1.181 1.412 2.775 1.211 4.254-.011.086-.031.172-.047.257l.47 1.309c3.804 1.092 6.802 3.255 8.746 6.774 1.891 3.424 2.014 6.842 1.914 10.644a36 36 0 0 0 1.232 3.067c-1.895 4.024-5.116 8.604-9.637 9.9-.081.023-.166.032-.25.05-3.892.939-6.958 1.197-10.894.4l-.554-.182.454-.293c-.428-.186-.865-.365-1.281-.576-1.683-.854-4.75-2.245-5.384-4.043l.349-.053c2.652 2.355 5.758 3.301 9.07 4.374 1.044-.057 1.86-.055 2.636-.843.552-.99.337-2.435.311-3.541l-.626-.156q-.163-2.181-.272-4.366c1.308-2.153 3.84-3.376 5.05-5.654.419-.789.776-1.762.448-2.648-.2-.54-.718-.95-1.223-1.195-1.566-.758-2.513-.702-4.105-.108l.022-7.785.232-.083c-.285-1.733-.52-3.769-.186-5.507.226-1.466.12-3.049.129-4.532"/><path fill="#F4B03E" d="M74.59 179.105c.719.179 1.458.405 2.185.536.843 1.181 1.412 2.775 1.211 4.254-.011.086-.031.172-.047.257l.47 1.309c-.984-.088-2.688-.06-3.515-.642-.344-.241-.349-.782-.433-1.182.226-1.466.12-3.049.129-4.532"/><path fill="#EC8B2C" d="M89.07 202.879a36 36 0 0 0 1.23 3.067c-1.894 4.024-5.115 8.604-9.636 9.9-.081.023-.166.032-.25.05-3.892.939-6.958 1.197-10.894.4l-.554-.182.454-.293c-.428-.186-.865-.365-1.281-.576-1.683-.854-4.75-2.245-5.384-4.043l.349-.053c2.652 2.355 5.758 3.301 9.07 4.374 3.156.298 5.972-.187 8.789-1.712 4.522-2.448 6.694-6.128 8.106-10.932"/><path fill="#3FBEB1" d="M74.647 189.144c3.573.84 6.74 2.136 8.742 5.43q.142.234.273.475.13.24.248.488.118.247.223.5t.197.511.17.52q.08.263.145.528.065.266.117.535.052.27.09.54.038.272.062.544.024.273.034.547t.007.547-.022.547-.049.546-.077.542-.104.537-.132.532c-.793 2.953-2.737 5.303-5.396 6.782-1.287.715-2.632 1.038-4.054 1.344l-.626-.156q-.163-2.181-.272-4.366c1.308-2.153 3.84-3.376 5.05-5.654.419-.789.776-1.762.448-2.648-.2-.54-.718-.95-1.223-1.195-1.566-.758-2.513-.702-4.105-.108l.022-7.785z"/><path fill="#FDFDFC" d="m81.393 234.9 3.721.034c.854.18 1.73.33 2.573.55 14.402 1.78 27.629 9.965 36.45 21.315 3.185 4.097 5.885 8.563 7.561 13.49-.182.816-.435 1.448-.825 2.183q-15.512-.08-31.024-.002c-1.31-.014-2.59.076-3.894.184-4.94-12.565-10.149-24.986-14.562-37.754"/><path fill="#C1B1EE" d="m81.393 234.9 3.721.034c.854.18 1.73.33 2.573.55l-2.138.16c.904 4.978 4.438 12.174 6.376 16.962 1.865 4.606 3.474 9.31 5.326 13.919.781 1.944 2.009 3.976 2.598 5.945-1.31-.014-2.59.076-3.894.184-4.94-12.565-10.149-24.986-14.562-37.754"/></svg>