<svg xmlns="http://www.w3.org/2000/svg" width="285" height="570"><path fill="#062782" d="M143.17 394.254c.366.167.735.35.97.69.97 1.409 1.108 4.762.702 6.424-.162.662-.298.838-.858 1.191l-.825.376-.6-.312a3.2 3.2 0 0 1-.379-.86c-.553-2.143-.143-5.644.99-7.509"/><path fill="#FAFCF9" d="M38.148 349.948c.414.195.876.404 1.181.755 1.022 1.169.744 3.14.7 4.58 1.907.978 3.917-.124 5.772 1.392.05.187.17.373.065.546-.424.69-1.49 1.04-2.245 1.216-1.121.262-2.71.256-3.712-.364.018 1.3.184 2.978-.144 4.219-.19.715-.32.88-.94 1.244-.352.242-.367.234-.798.214-1.147-1.205-.766-4.174-.755-5.73-.535.367-1.077.5-1.715.542-1.107.076-2.879.145-3.755-.656-.32-.295-.24-.462-.246-.874 1.318-1.762 3.793-.615 5.541-1.626q.086-.051.17-.103c-.034-1.97-.097-3.568.88-5.355M214.078 94.668c.582.108 1.322.215 1.763.641 1.019.986.594 2.593.68 3.858.049.741 3.669.534 4.672 1.402.236.712.238.775.01 1.49-1.168 1.12-3.146.946-4.658.955.037 1.793-.072 3.399-.602 5.124-.495-.005-1.321-.071-1.694-.412-1.23-1.12-1.021-3.205-1.097-4.752-1.182.055-3.405.184-4.322-.692-.424-.405-.34-.7-.36-1.25 1.154-1.803 2.524-.703 4.114-1.297.428-.16 1.033-4.163 1.494-5.067"/><path fill="#0CD0F1" d="M80.16 174.51c.79-.026 1.598-.062 2.36.181 1.232.394 2.378 1.279 2.962 2.446.567 1.13.554 2.413.15 3.592-.58 1.689-1.875 2.365-3.382 3.11-.757.091-1.703.053-2.426-.193-1.15-.391-2.17-1.294-2.688-2.391q-.105-.22-.187-.448-.083-.229-.142-.464t-.094-.476q-.034-.24-.045-.483t.003-.486.053-.482.1-.475.148-.462c.58-1.56 1.73-2.322 3.188-2.968"/><path fill="#FAFCF9" d="M31.642 271.431c.446.073.852.254 1.27.42 1.38 1.51.928 3.916.882 5.817 1.225-.058 2.67-.243 3.867.042.74.177 1.327.441 1.735 1.12l-.165.606c-1.555 1.347-3.498 1.072-5.43 1.08.045 1.355.375 3.871-.506 4.92-.207.237-.406.48-.7.61-.47.209-.549.131-1.001-.047-1.026-1.48-.748-3.769-.74-5.491-1.355.047-3.187.306-4.422-.318-.635-.32-.825-.542-1.025-1.208.1-.222.22-.445.407-.61 1.32-1.152 3.577-.795 5.179-.7.083-2.062-.024-4.272.649-6.24"/><path fill="#0CD0F1" d="M201.468 193.216c1.074-.033 2.312.118 3.318.51 1.055.41 1.922 1.283 2.353 2.33.5 1.211.442 2.612-.092 3.801-.73 1.626-1.778 2.545-3.418 3.168-.91.102-1.916.043-2.779-.283q-.21-.078-.41-.176t-.39-.216-.367-.253q-.178-.136-.34-.29-.163-.152-.31-.32t-.277-.35-.24-.376-.202-.398q-.054-.122-.1-.247t-.088-.252q-.04-.127-.074-.256-.035-.13-.062-.26t-.048-.262q-.02-.132-.035-.265-.014-.133-.021-.266t-.008-.266.006-.267.019-.266.033-.265.046-.263.06-.26q.032-.13.071-.257.04-.127.086-.252.046-.126.098-.249c.665-1.6 1.615-2.33 3.17-2.994"/><path fill="#FAFCF9" d="M155.545 129.555c.667.123 1.405.38 1.876.892 1.08 1.171.787 3.546.784 5.032 1.743.044 3.041-.063 4.416 1.181.266.66.27.653.018 1.316-1.277 1.114-2.69 1.025-4.29 1.073-.154 2.245-.093 4.037-1.498 5.903-3.122-1.661-.987-2.837-2.024-5.054-.844-1.805-2.974-.882-4.588-1.456-.543-.56-.636-.603-.732-1.366 1.106-1.791 2.972-.818 4.476-1.767 1.31-.827 1.198-4.233 1.562-5.754M71.27 84.083c.561.147 1.17.289 1.584.726 1.07 1.127.764 3.926.776 5.405 1.76-.02 3.755-.21 5.36.604.503.64.517.671.509 1.484-1.304 1.864-3.438.318-5.121 1.28-.985.564-1.165 4.517-1.492 5.74-.342-.084-1.076-.177-1.318-.4-1.312-1.216-1.022-3.751-1.075-5.408-1.398.06-3.533.21-4.738-.588-.592-.393-.68-.552-.813-1.206.13-.251.272-.47.482-.664 1.2-1.102 3.634-.83 5.133-.804-.07-2.17-.105-4.105.713-6.169"/><path fill="#062782" d="M177.973 102.346c6.512 2.05 23.434 13.172 27.28 18.216.842 1.103.986 1.862.808 3.22l-.134-.033c-2.167-.485-11.662-9.613-14.792-11.716-3.89-2.615-9.769-4.398-13.07-7.474-.355-.805-.234-1.374-.092-2.213M143.028 124.503c.92.157 1.401.194 2.067.885.947 4.333.211 11.357.204 16.059-.008 5.227.307 10.594-.03 15.8a5.75 5.75 0 0 1-.635 2.353c-.615-.182-1.187-.295-1.602-.826-.816-1.042-.41-30.872-.004-34.271"/><path fill="#1088AD" d="M218.587 298.587c3.64 2.533 6.612 4.306 7.512 9.043.438 2.304.321 5.307.119 7.64-.203.189-.38.328-.643.428-1.844.702-4.642.41-6.384-.445.257-4.052.603-7.96-.076-11.987-.11-1.559-.38-3.12-.528-4.679"/><path fill="#0CD0F1" d="M99.182 344.34c.66.131 1.321.203 1.982.32 1.713.31 3.442 1.492 4.425 2.92q.077.111.148.225t.137.231q.065.12.125.24.06.122.112.245.054.125.1.25.048.128.089.256t.074.259.062.262q.028.133.049.264.02.134.035.267.014.137.022.27.008.134.008.27.001.134-.005.27-.005.134-.018.267-.013.137-.032.27-.02.131-.046.265c-.264 1.366-1.21 3.12-2.422 3.877-.78.484-1.138.49-2.02.292-.763.562-1.559.623-2.481.62-1.121-.002-2.037-.389-2.816-1.199-1.224-1.275-1.747-3.173-1.677-4.907.066-1.611.74-3.93 2.208-4.829.655-.398 1.254-.545 1.83-1.096q.056-.055.11-.109"/><path fill="#1088AD" d="M251.157 223.479c5.208 5.348 7.873 13.797 7.798 21.16-.032 3.077-.994 6.502-.419 9.506-4.335 8.887-11.093 15.698-20.53 18.936-7.806 2.68-17.01 2.809-24.514-.905-2.28-1.129-4.651-2.71-6.417-4.548 2.055.355 4.342 1.562 6.37 2.206 6.666 2.116 13.74 1.816 20.291-.58q.376-.135.748-.28.372-.144.74-.297.368-.154.732-.316.364-.163.725-.335.36-.171.716-.351.356-.181.707-.37t.698-.387.688-.404.677-.42.668-.438q.33-.223.656-.453.325-.232.645-.47.32-.24.633-.486.314-.247.621-.5.307-.255.608-.517.302-.262.596-.53.294-.27.582-.546.288-.277.569-.56t.554-.574.54-.587q.267-.296.526-.6.26-.303.511-.613.252-.31.495-.625.244-.316.48-.637.236-.322.464-.65.228-.327.448-.66t.431-.671.415-.682q.203-.343.398-.691t.38-.701q.187-.353.364-.71.177-.358.345-.72c4.794-10.423 2.847-18.726-.94-28.994M54.202 343.734c.88.211 1.876.873 2.74 1.235 2.587 1.08 5.226 2.026 8.01 2.447 7.706 1.166 15.996-.721 22.283-5.394q.365-.27.723-.554.357-.281.705-.573.348-.295.687-.599.338-.303.667-.618.33-.314.648-.637.32-.326.628-.66t.606-.679q.298-.345.585-.698.287-.35.563-.716.275-.361.54-.731.263-.37.516-.75.252-.378.492-.765.24-.386.469-.779.228-.395.443-.796.216-.4.419-.807.203-.406.392-.821.19-.415.367-.832.177-.42.34-.844.164-.425.314-.854.15-.431.287-.866.137-.434.26-.87.122-.44.231-.88.11-.443.204-.888.095-.445.176-.893t.148-.897q.067-.45.12-.901.052-.454.09-.908.04-.453.063-.907.024-.454.034-.91.01-.454.006-.91-.005-.454-.024-.91-.019-.454-.052-.908c-.113-1.667-.206-3.479-.683-5.087-.633-2.132-4.984-9.895-4.735-11.23q.013-.067.031-.129c6.005 6.688 10.166 14.292 9.66 23.466-.461 8.383-3.96 16.56-10.308 22.173-5.408 4.785-12.628 6.674-19.751 6.215-5.836-.375-14.408-2.92-18.35-7.49a3.7 3.7 0 0 1-.544-.845M68.193 164.318l27.065-.065c5.985.034 12.273.562 18.212-.265 4.426-.616 8.118-2.87 10.781-6.433 3.036-4.06 3.793-8.72 2.91-13.64-.277-1.542-.786-3.027-1.004-4.58l-.03-.213c4.85 3.868 5.958 9.175 6.642 15.047.33 2.837-1.011 5.532-2.745 7.692-3.002 3.74-7.386 6.54-12.198 7.053-5.178.553-10.53.008-15.74.055-10.113.089-20.282.505-30.39.257q-3.17 3.664-6.482 7.2c-.898-.713-1.801-1.505-2.761-2.128-1.615-1.05-2.821-1.222-4.07-2.8.835.192 1.41.893 2.014 1.467 2.74-2.732 5.168-5.803 7.796-8.647M181.632 181.765c2.6 2.254 4.9 3.99 5.167 7.646.36 4.902.226 9.86.236 14.772l.028 26.055c.045 6.012 1.186 12.481.449 18.427q-.057.426-.144.847-.088.42-.206.834-.12.413-.268.816-.15.403-.328.794-.178.39-.385.767-.207.376-.442.737-.234.36-.494.702-.261.342-.546.663c-2.34 2.634-5.755 3.167-9.093 3.323-3.117.145-6.259.097-9.38.085-2.377 4.572-8.425 18.076-12.963 19.477-.858.265-1.668.145-2.444-.296-1.61-.915-2.459-2.78-4.147-3.583.383-.058.764-.13 1.138-.231 3.212-.876 8.36-11.656 10.26-14.907 1.183-2.215 2.461-4.39 3.696-6.578 4.165.393 9.071.8 13.186-.036 2.513-.51 4.609-1.592 6.014-3.792.874-1.368 1.271-2.786 1.404-4.393.207-2.502.01-5.064-.014-7.574l-.011-12.589.004-24.353c.001-5.776.49-11.952-.717-17.613"/><path fill="#1193D1" d="M245.423 154.296c6.79-.386 13.798-.373 19.186 4.403 3.875 3.434 6.136 8.622 6.428 13.752.292 5.104-1.47 10.367-4.909 14.171-3.639 4.026-9.08 5.784-14.381 6.023-3.667.166-36.635.299-38.729-.28q-3.077.016-6.154-.044c-.708-1.196-1.187-2.26-2.289-3.177a169 169 0 0 0 7.04-12.41h3.875c5.5-.063 22.284 1.429 26.204-1.377 5.851-4.187 2.07-14.494 3.123-20.493.05-.286.373-.407.606-.568"/><path fill="#1088AD" d="M211.616 176.735h3.874c-2.383 4.915-4.253 10.255-6.821 15.038 1.49.011 2.978-.095 4.35.593q-3.078.015-6.155-.045c-.708-1.196-1.187-2.26-2.289-3.177a169 169 0 0 0 7.04-12.41"/><path fill="#1193D1" d="M237.846 316.138c9.816.565 20.889-1.767 28.323 6.566 3.502 3.927 5.125 9.582 4.816 14.784q-.024.487-.072.971-.048.485-.12.966-.072.482-.167.958-.096.478-.215.949-.119.473-.26.938-.143.464-.308.924-.165.456-.352.907-.187.448-.396.888t-.44.868-.482.846-.523.821-.564.793q-.29.39-.601.766-.31.376-.638.735-.329.359-.675.701-.345.342-.707.668c-6.04 5.33-13.344 4.843-20.888 4.798-3.725-.025-7.498.042-11.215-.214-.673-.047-1.312-.086-1.88-.496-1.518.179-3.079.268-4.528-.275.443-3.098.248-6.37.262-9.496l.074-16.318c-.563.1-.826.058-1.327-.217l-.072-.54c.37-.9.94-1.428 1.633-2.085l-.132-.161c.364-3.22.164-6.744.013-9.975 2.133.748 9.434.876 11.441-.07"/><path fill="#FAFCF9" d="M226.524 326.344c.63.484.977.688 1.797.74.722-.39.835-.648 1.079-1.447.394-1.291.63-2.9 1.401-4.019h.386c.269.39.532.796.76 1.214.537.982.34 2.48.312 3.576q.08.051.16.098c1.754.982 4.074.303 5.623 1.786l.046.543c-.641.757-1.267.916-2.249.99-1.141.09-2.287.068-3.431.04-.308 1.69.258 4.15-.974 5.505-.686.08-.73-.039-1.311-.437-.937-1.606.013-3.507-.733-5.01-1.055-.058-2.133.006-3.003-.668q-.049-.036-.097-.07c-.563.101-.826.06-1.327-.216l-.072-.54c.37-.9.94-1.428 1.633-2.085"/><path fill="#062782" d="M54.202 343.734a1.1 1.1 0 0 1-.439-.245c-7.242-5.68-11.997-11.754-13.087-21.139q-.042-.373-.075-.748-.033-.376-.056-.752-.024-.376-.038-.751-.014-.376-.02-.752-.004-.376 0-.754.004-.376.017-.752.013-.375.036-.751.022-.376.054-.751.031-.376.072-.75.04-.372.09-.745.05-.376.11-.746.058-.373.126-.743t.145-.738q.077-.367.163-.734.086-.368.18-.732.095-.362.2-.724.103-.362.216-.72.112-.36.233-.716t.251-.71q.13-.353.269-.704.138-.35.285-.696.147-.348.302-.69.156-.342.32-.682.163-.34.335-.673.172-.334.352-.666.18-.33.368-.656.189-.326.384-.646.196-.323.4-.638.204-.317.415-.629.212-.311.43-.617.22-.307.446-.607t.46-.596c4.902-6.126 12.34-9.989 20.113-10.812q.64-.064 1.28-.098.64-.036 1.283-.042.641-.002 1.283.023t1.28.078q.64.055 1.276.139.637.083 1.268.197.632.114 1.258.256t1.244.315q.619.17 1.229.37t1.21.429 1.188.481q.59.256 1.166.537.576.284 1.139.593.563.31 1.11.643.548.334 1.08.693.532.36 1.047.743c2.39 1.82 4.546 4 6.895 5.89q-.017.061-.031.127c-.25 1.336 4.102 9.099 4.735 11.23.477 1.61.57 3.421.683 5.088q.033.454.052.908.02.456.024.91.004.456-.006.91-.01.456-.034.91t-.062.907-.092.908q-.052.45-.119.901-.067.449-.148.897t-.176.893q-.095.445-.204.888-.109.44-.232.88-.122.436-.259.87-.137.435-.287.866-.15.429-.313.854-.164.424-.34.844-.177.417-.368.832-.19.415-.392.821-.203.406-.419.807-.215.4-.443.796-.228.393-.469.78-.24.386-.492.765-.253.378-.517.749-.264.37-.54.731-.275.365-.562.716-.287.353-.585.698t-.606.68-.628.66q-.319.322-.648.636-.329.315-.667.618-.34.304-.687.599-.348.292-.705.573-.358.284-.723.554c-6.287 4.673-14.577 6.56-22.284 5.394-2.783-.42-5.422-1.367-8.01-2.447-.863-.362-1.86-1.024-2.74-1.235"/><path fill="#FAFCF9" d="m51.395 337.867-.508.022c-2.814-1.498-5.217-6.563-6.416-9.496-2.58-6.31-2.087-14.147.509-20.362q.133-.315.274-.627.14-.311.29-.62.148-.31.304-.613.156-.306.32-.606.163-.3.333-.596.171-.298.35-.59.177-.292.362-.579.185-.286.377-.57.193-.284.392-.563t.404-.55.419-.543q.212-.268.431-.532.219-.262.444-.52.226-.256.457-.51.232-.25.47-.495.237-.248.481-.487.244-.242.493-.476.25-.234.505-.462t.516-.448q.26-.223.527-.437.266-.215.537-.423.271-.209.547-.412.277-.2.558-.395t.567-.384q.286-.187.576-.37.29-.182.585-.354.295-.173.594-.34t.602-.325.61-.312q.306-.15.617-.295.31-.145.624-.281t.63-.265c6.473-2.616 15.129-2.621 21.273.936 2.022 1.171 3.913 3.15 6.047 4.016q.072.028.143.055c-1.844.17-6.322-2.85-8.51-3.598-9.361-3.212-21.28.122-27.599 7.698-4.688 5.622-7.284 12.697-6.607 20.067.42 4.567 2.657 12.513 6.344 15.553.04.03.086.058.128.089"/><path fill="#EA7D0A" d="M91.645 302.49c4.548 8.316 6.607 14.8 3.818 24.244-1.808 6.126-6.465 12.165-12.107 15.235-3.042 1.656-9.097 4.208-12.56 3.117a6 6 0 0 1-.94-.403c.224.072.448.12.684.13 3.359.128 8.771-3.83 11.154-6.14 9.522-9.231 9.73-23.823 9.95-36.184"/><path fill="#F9BD19" d="M51.395 337.867q-.065-.045-.128-.09c-3.687-3.039-5.924-10.985-6.344-15.552-.677-7.37 1.919-14.445 6.607-20.067 6.319-7.576 18.238-10.91 27.6-7.698 2.187.748 6.665 3.768 8.51 3.598 1.424 1.386 2.58 3.11 4.005 4.431-.221 12.36-.429 26.953-9.951 36.185-2.383 2.31-7.795 6.267-11.154 6.14a2.6 2.6 0 0 1-.683-.131 2.2 2.2 0 0 1-.413.38c-1.042.725-3.408.338-4.617.098-4.655-.913-10.705-3.234-13.432-7.294"/><path fill="#062782" d="M68.753 314.769c-.222-.064-.36-.245-.528-.401-.089-.543-.091-.952.101-1.467.222-.595.642-1.428 1.252-1.692.746-.323 1.44-.442 2.213-.075.621.295 1.217.874 1.391 1.553.148.579.062.651-.234 1.122-1 .036-1.359-.298-2.216-.785-.058.434-.183.64.111.999 2.792 3.429 10.998 1.753 10.377 12.346q-.018.295-.05.587-.033.293-.08.585-.048.29-.11.579-.061.286-.137.57-.076.287-.166.565-.09.281-.195.557-.104.276-.221.545-.118.27-.25.535-.13.264-.275.52-.144.256-.3.507-.157.25-.327.49-.169.242-.35.473-.18.234-.373.456-.193.223-.396.437-.203.212-.417.415t-.437.395c-1.54 1.325-4.735 1.478-5.41 2.14-.091.092-.179.635-.19.746-.11 1.005.147 1.854-.382 2.786-.535.32-.626.382-1.243.362-.839-.993-.309-2.727-.423-3.93-3.166-.974-6.3-2.407-7.961-5.472-.415-.765-.663-1.636-.389-2.493.194-.604.51-1.024.987-1.442 1.398.771 1.32 2.878 2.109 4.15 1.757 2.825 5.833 3.568 8.829 2.705 2.157-.623 3.873-2.076 4.95-4.036 1.05-1.914 1.438-4.95.832-7.047-.603-2.081-2.16-3.445-4.016-4.436-2.244-1.194-4.545-1.684-6.076-3.85"/><path fill="#062782" d="M60.73 316.069c-.218-.237-.342-.568-.394-.883-.538-3.27 1.078-7.787 3.705-9.83 1.462-1.136 3.413-1.904 4.739-3.17.673-.643.72-1.67 1.275-2.363.417-.523.694-.532 1.303-.596.61.599.369 1.873.517 2.759 1.284 1.466 2.915 1.78 4.69 2.346 1.769.562 2.804 1.714 3.623 3.356.692 1.386 1.554 3.22.961 4.762-.254.663-.568.85-1.171 1.114-1.302-.746-1.127-2.714-1.531-4.036-.51-1.67-2.31-3.354-3.826-4.136q-.168-.086-.342-.164-.173-.078-.35-.148-.176-.07-.356-.13-.18-.062-.363-.112-.183-.053-.368-.094-.185-.045-.372-.078-.186-.034-.375-.056-.188-.025-.378-.042-.189-.014-.379-.02-.19-.005-.38-.002-.189.003-.379.017t-.378.036-.376.053q-.187.03-.372.072-.186.04-.369.09t-.364.108c-3.793 1.241-4.476 3.974-6.088 7.103l-.078.147c-.021 2.922.044 5.469 2.212 7.712 2.322 2.408 8.524 3.527 8.768 6.46-.323.771-.894 1.598-1.698 1.923-.496.203-.876.217-1.35-.06-1.194-.697-1.707-2.48-2.674-3.46-2.448-2.48-6.183-3.034-6.902-7.04-.097-.54-.14-1.09-.18-1.638M80.773 480.188c.992.624 1.98.195 3.056.351 1.361.195 3.262 1.1 4.588.974 1.108-.103 2.143-1.13 3.408-1.155 1.648-.03 3.276 1.052 4.98 1.05 1.453 0 2.94-.298 4.39-.424 1.6-.139 3.21.003 4.814-.072 2.188-.103 4.453-.532 6.637-.44 1.89.08 8.54 1.456 9.454 1.283 1.504.565 4.724-1.277 6.52-1.283 2.007-.005 3.984 1.133 5.966 1.127 1.384-.002 2.701-.93 4.093-1.018 2.59-.164 5.323.256 7.93.328 4.103.114 8.28-.022 12.391-.028 1.574 0 3.287-.66 4.73-.573 2.29.13 3.5 2.892 4.891 4.35l.17.178c1.405-.918 1.683-2.85 3.348-3.529 3.023-1.233 25.17-1.044 28.134.265 2.018.89 3.472 2.827 4.194 4.865.923 2.602.861 5.555-.303 8.062.705 2.366 2.199 4.863 1.726 7.44-.098.537-.336 1.233-.837 1.52-.699.398-1.553.342-2.298.153q-.05.03-.102.06-.088.043-.176.084c-.27.137-.536.26-.839.295-1.922.229-3.913-.103-5.846-.013-10.346.475-20.553.153-30.886.025-4.74-.062-9.532-.025-14.274-.014-1.608.002-3.317.328-4.903.206-.954-.073-1.873-.638-2.591-1.233-.29.245-.584.478-.928.643-2.743 1.313-5.218.064-8.042.128-3.593.08-6.958 1.714-10.54.306-2.047-.807-3.07-2.127-3.947-4.072l-.044.2c-.365 1.548-1.207 2.9-2.613 3.721-.787.457-1.864.838-2.768.616-.19.06-.274.103-.463.12-1.316.124-4.152-1.17-5.112-2.05-5.01 3.45-7.733 1-12.178 1.067-1.658.025-3.259 1.202-4.968.91-.049-.008-.097-.02-.146-.028-1.113-.192-1.86-.654-2.782-1.291-2.347 1.004-4.299 2.042-6.878 1.258-.728-.009-1.603-.52-2.11-1.036-2.558-2.608-1.806-12.975-1.727-16.71.07-3.326.498-4.325 2.88-6.616"/><path fill="#FAFCF9" d="M109.185 484.455c2.377 1.55 7.131-.952 9.228.918.412.368.35.538.36 1.052-.281.365-.426.627-.853.827-.96.454-2.082.09-3.02-.259v9.46c.01.852.169 2.3-.257 3.042-.355.618-.827.916-1.496 1.06-2.78-2.109-.284-10.22-1.398-13.155-.58.052-1.231.161-1.81.125-.66-.04-.874-.37-1.299-.813-.105-.955.178-1.38.545-2.257M151.264 484.48c1.63 1.283 4.939.017 6.986.704.551.507.545.557.663 1.303-1.12 1.656-3.18.924-4.865 1.397-.696.195-1.13.793-1.472 1.389-.003.573-.056.723.363 1.163 1.023 1.074 2.758.42 4.04.593.703.097.923.415 1.29.952-.007.729-.048.843-.439 1.46-.952.641-2.846.207-4.046.38-.615.478-.619.475-.755 1.24-.022.521-.048 1.044-.04 1.565.03 1.929 4.39.317 6.082 1.9-.037.694-.351.95-.756 1.479-.796.309-1.746.33-2.597.387-1.5.097-3.998.208-5.169-.822-.56-1.271-.555-2.713-.572-4.08-.033-2.766-.652-9.02 1.287-11.01M180.766 484.48c1.236.98 4.216.328 5.743.342 1.035.009 1.65.248 2.37.966.034.429.116.635-.127 1.008-.361.556-.96.848-1.592.99-1.249.282-3.448-.06-4.536-.72v3.565c1.427.698 3.013.384 4.388 1.216.403.596.42.649.388 1.367-1.183 1.13-2.704.214-4.005.823-.6.282-.572.563-.77 1.161q.003.757.017 1.517c1.492 1.881 4.849.387 6.53 1.776-.13.723-.438.985-.902 1.533-2.075.582-5.371.766-7.42.073-.677-.638-.84-1.309-.965-2.227-.418-3.073-.978-10.983.881-13.39M191.555 484.45c1.234.893 4.046.734 5.616 1.026 1.08.2 2.345.499 2.955 1.514.833 1.384.32 3.324.015 4.788-.543.854-1.113 1.335-1.94 1.912.644 1.452 1.545 2.794 2.174 4.244.283.651.484 1.316.226 2.004-.655.331-.894.236-1.597.133-.683-.487-.926-1.263-1.257-2.009-.948-.312-1.483-2.004-2.012-2.825-.406-.632-.895-.854-1.61-1.013-1.54.835.002 4.289-1.124 5.88-.679.262-.77.262-1.48.104-.63-.63-.82-1.506-.952-2.358-.44-2.838-.582-11.305.986-13.4"/><path fill="#062782" d="M193.847 487.266c1.06.843 2.502.042 3.649 1.3.225.743.257.915.09 1.67l-.535.25c-.21.345-.57.676-.93.86-.662.334-.967.323-1.643.156-.32-.273-.59-.537-.788-.913-.576-1.094-.195-2.232.157-3.323"/><path fill="#FAFCF9" d="M91.982 484.202c.497.303 1.009.55 1.533.804 1.027 1.898.856 9.605.54 11.862-.165 1.177-.445 2.396-1.43 3.15-.292.034-.641.14-.91.02-2.34-1.035-5.604-7.303-6.576-9.75.076 2.636.483 5.973-.236 8.503-.12.423-.192.395-.57.604-.386.334-.651.487-1.141.63-.242-.118-.566-.204-.695-.443-.53-.986-.7-11.996-.226-13.399.24-.71.484-.949 1.13-1.283 4.172.2 4.096 7.607 7.477 9.012.051.02.104.036.156.056q-.034-.248-.06-.496c-.306-2.836-.899-6.9 1.008-9.27M138.183 484.48c.18.117.353.209.55.295 1.226.529 5.746.67 6.984.159.421.679 1.083 1.171 1.507 1.84.76 1.196 1.164 3.256.814 4.633-.368 1.445-1.328 2.369-2.567 3.123.783 1.411 2.578 3.919 2.378 5.567-.046.378-.166.392-.46.62-.314-.005-.64-.014-.945-.092-.764-.197-1.155-1.138-1.49-1.778-1.579-.788-1.614-3.643-3.464-4.261-1.945.542-.996 4.573-2.6 5.803-.238-.006-.714.061-.885-.098-.82-.76-.884-2.349-.953-3.398-.203-3.064-.81-10.19 1.131-12.413"/><path fill="#062782" d="M140.415 487.127c1.189.938 3.281.492 4.65 1.706.484.431.539.651.578 1.247-.383.5-.726.899-1.242 1.263-.24.384-.582.674-1.025.796-1.153.315-2.325-.078-3.344-.61-.023-1.505.162-2.919.383-4.402"/><path fill="#FAFCF9" d="M100.799 484.369c1.07.595 2.961.915 4.175.768.453.815 1.166 1.47 1.613 2.324 1.76 3.373 1.355 6.819.23 10.278-.374.618-.912 1.294-1.522 1.695-.911.598-1.713.51-2.711.3-.726.555-1.36.669-2.283.6-.862-.068-1.63-.658-2.186-1.284-1.773-1.998-2.457-4.926-2.26-7.537.313-4.144 2.134-4.756 4.944-7.144"/><path fill="#062782" d="M101.167 487.121c.803.198 1.692.512 2.283 1.12 1.166 1.193 1.562 3.33 1.506 4.94-.037 1.057-.203 2.643-1.068 3.37-.518.437-.69.356-1.327.306-.398.236-.897.495-1.374.473-.547-.028-1.02-.206-1.388-.607-.786-.857-.903-2.574-.895-3.67.017-2.597.417-4.095 2.263-5.932"/><path fill="#FAFCF9" d="M161.84 484.338c5.092 1.222 3.725 8.422 7.212 10.278 2.651-1.711 2.881-8.29 6.66-10.016.424.044.61-.003.907.367 1.496 1.856.945 10.431.604 12.934-.187 1.369-.308 2.079-1.463 2.955l-.629-.128c-1.07-1.372-.764-4.283-.67-5.945.106-1.508-.02-2.992-.127-4.494-.735 2.265-2.097 7.356-4.206 8.67-.67.414-.957.336-1.693.216-2.556-1.653-3.65-5.93-4.688-8.706.157 2.405.781 6.961-.4 9.07-.354.633-.645.808-1.322.975-.461-.334-.654-.715-.793-1.26-.763-2.99-.937-12.358.608-14.916M127.237 484.369q.17.097.343.18c.922.44 2.962.85 3.933.507.674 1.047 1.825 1.734 2.533 2.811 1.22 1.857 1.064 5.483.595 7.537-.325 1.425-.948 3.195-2.292 3.974-.836.488-1.422.476-2.325.25-.38.449-.65.658-1.232.78-.483.1-1.056.253-1.55.226-.834-.048-1.61-.635-2.169-1.222-1.869-1.97-2.68-4.784-2.557-7.454.191-4.16 1.92-5.012 4.721-7.59"/><path fill="#062782" d="M127.886 486.918c1.052.398 2.055.763 2.8 1.645 1.146 1.355 1.685 3.382 1.514 5.138-.096.98-.443 2.363-1.277 2.986-.648.487-.873.437-1.643.312-.347.323-.619.484-1.095.56-.55.086-1.205.094-1.65-.274-.766-.634-1.027-1.747-1.135-2.696-.36-3.165.567-5.294 2.486-7.67M78.942 129.002c3.212-6.3 8.72-11.722 14.24-16.076 2.66-2.099 14.662-10.62 17.764-10.073.494.087.533.254.78.646-.585 2.499-6.648 4.686-8.917 5.84-8.492 4.32-16.2 12.12-21.7 19.803q8.33.05 16.658-.038c4.643-.074 9.63-.52 14.234.139 6.782.971 10.246 4.683 14.126 9.879l.03.214c.218 1.552.727 3.037 1.004 4.578.883 4.921.126 9.581-2.91 13.641-2.663 3.563-6.355 5.817-10.781 6.433-5.94.827-12.227.299-18.212.265l-27.065.065c-2.628 2.844-5.057 5.915-7.796 8.647-.604-.574-1.18-1.275-2.014-1.467-.445-.286-.81-.623-1.191-.988-2.173-2.08-4.073-4.432-6.196-6.565-5.37-5.393-12.003-10.495-12.11-18.816-.053-4.244 1.754-8.25 4.707-11.244 1.898-1.926 4.312-3.43 6.917-4.188 6.21-1.808 21.142-.664 28.432-.695"/><path fill="#FAFCF9" d="M51.392 160.288q-1.91-1.425-3.606-3.099c-3.319-3.217-6.445-7.454-6.475-12.273-.021-3.484 1.6-7.009 4.081-9.425 1.486-1.446 3.555-3.054 5.59-3.517 7.67-1.744 16.428-.662 24.282-.675 10.55-.017 21.131-.35 31.678-.194 5.505.081 9.622.654 13.64 4.8-1.432-.646-3.051-1.535-4.616-1.706-3.183-.349-6.516-.157-9.717-.123q-6.876.077-13.752.069l-22.664-.009c-3.712-.01-7.447-.203-11.155-.064-2.162.081-5.008.09-7.044.82-2.693.968-5.505 3.104-6.733 5.746-1.327 2.852-1.358 6.31-.23 9.22 1.527 3.946 4.908 6.693 6.721 10.43"/><path fill="#EA7D0A" d="M125.06 144.879c.389 4.443-.44 8.674-3.376 12.2-2.653 3.185-5.781 4.51-9.817 4.828-5.322.419-10.857.113-16.2.087l-28.553-.059c-2.407 2.535-4.634 5.235-6.997 7.81-1.032-1.125-2.046-2.291-3.12-3.376 2.536-2.681 4.78-5.845 7.103-8.727 9.542-.005 19.096-.11 28.637.022 6.375.089 13.005.619 19.355.171 1.882-.132 4.1-.415 5.796-1.263 4.648-2.324 5.664-7.242 7.173-11.693"/><path fill="#F9BD19" d="M51.392 160.288c-1.813-3.737-5.194-6.484-6.721-10.43-1.128-2.91-1.097-6.368.23-9.22 1.228-2.642 4.04-4.778 6.733-5.745 2.036-.732 4.882-.74 7.044-.821 3.708-.14 7.443.053 11.155.064l22.664.009q6.876.007 13.752-.07c3.201-.033 6.534-.225 9.717.124 1.565.171 3.184 1.06 4.616 1.706 2.389 2.464 3.821 5.625 4.479 8.974-1.51 4.451-2.525 9.369-7.173 11.693-1.695.848-3.914 1.13-5.796 1.263-6.35.448-12.98-.082-19.355-.17-9.54-.134-19.095-.028-28.637-.023-2.323 2.882-4.567 6.046-7.104 8.727-1.999-1.91-3.81-3.981-5.604-6.081"/><path fill="#062782" d="M104.02 140.967q1.005.002 2.007.087c.904.082 1.753.384 2.344 1.1l-.166.521c-.912.673-1.95.62-3.034.662-.654 2.548-.827 5.54-2.03 7.868-.294.278-.658.468-1.002.676l-.395-.355c-.64-2.777 1.103-5.205 1.258-7.904-.546-.646-1.571-.529-2.353-.922-.153-.59-.06-.603.22-1.116.896-.562 2.119-.534 3.152-.617M111.33 141.218c.652-.08 1.301-.147 1.96-.098.87.065 1.731.252 2.313.96.27.33.207.388.166.808-1.375.846-3.344.048-4.773.857.192 1.384 2.478 2.34 3.413 3.44.626.737.665 1.306.582 2.234-.889 1.57-2.25 1.964-3.846 2.575-.834-.21-1.646-.44-2.383-.897-.69-.427-1.182-.809-1.377-1.595 1.763-1.477 2.727.474 4.492.282.544-.059.64-.316.946-.718-.19-1.9-2.868-2.528-3.912-3.881-.25-.324-.433-.736-.372-1.145.186-1.245 1.834-2.149 2.79-2.822M53.301 141.245c2-.014 4.761-.362 6.67.12.689.173 1.088.307 1.46.925-1.405 1.977-4.18.12-6.053 1.13-.427.586-.406 1.034-.424 1.727 1.042 1.882 3.421.277 5.032 1.387q.066.047.131.098c-.204.295-.422.607-.696.84-1.186 1.008-3.61.6-5.055.522l-.097.521c-.269 1.406-.359 2.625-1.647 3.5l-.343-.118c-1.193-2.604.443-7.936 1.022-10.652M82.21 141.236c1.178-.064 2.374-.15 3.553-.111 1.113.037 3.053.08 3.857.935l-.131.425c-1.408 1.013-2.301.785-3.96.83-.908.023-1.74.075-2.376.745.82 1.36 2.993 1.16 4.406 1.658l.166.392c-1.141 1.473-3.335.723-4.882 1.59q-.079.045-.156.095l.057 1.113c1.44 1.542 3.064.323 4.73 1.04l.181.479c-.097.243-.155.552-.374.703-1.669 1.147-4.92.77-6.843.456.209-3.517.949-6.934 1.772-10.35M72.31 141.122c.948-.035 1.902-.076 2.85-.057 1.451.029 2.88.074 3.94 1.173.217.722.23.893.073 1.63-1.14.448-2.49-.83-3.8-.507-.73.18-1.172.733-1.5 1.373-.701 1.371-1.042 3.206-.572 4.691.52.568.554.606 1.308.74.61-.176 1.134-.373 1.64-.769 1.243-.97 1.229-2.045 1.403-3.491.115-.22.26-.354.438-.523.344-.325.448-.241.907-.229.171.163.336.349.42.574.441 1.175.107 2.933-.5 3.99-.586 1.022-1.6 1.737-2.73 2.038-1.318.351-4.286.607-5.492-.103-.094-3.213 1.09-7.295 1.615-10.53M64.21 141.246c.869-.088 1.733-.12 2.606-.124 1.085-.004 2.935-.157 3.734.638-.476 2.829-4.505.361-5.967 1.731-.463.434-.711.99-.7 1.617 1.073.945 3.344.107 4.724.859.21.114.206.357.272.576-1.353 1.53-3.775.24-5.826 1.8l.174.73c1.406 1.417 3.683.495 5.519.88l.208.36c-.103.261-.182.638-.4.816-1.808 1.486-5.893.634-8.033.39.63-2.543.76-7.267 1.937-9.366.425-.758.984-.73 1.752-.907M92.671 144.26c-.294 2.317-.44 5.429-2.172 7.147l-.43-.024a2.8 2.8 0 0 1-.22-.648c-.412-2.087.72-7.196 1.952-8.928.362-.51.8-.807 1.418-.913 1.895 1.123 1.428 4.175 2.602 5.853q.046.065.096.128l.505-.552c.63-1.776.617-4.052 2.175-5.254l.357.1c.747 2.486-.525 5.809-1.283 8.204-.099.817-.152 1.448-.667 2.131-.525.325-.822.392-1.438.34-1.192-2.46-2.043-4.995-2.895-7.585M186.789 176.215c-.667-.683-1.36-1.35-1.993-2.066-1.255-1.419-1.792-3.125-2.073-4.97-.754-4.945-.096-10.412-.055-15.411.044-5.335-.3-10.735.05-16.058.181-2.753.73-6.027 2.94-7.901 1.2-1.018 2.623-1.623 4.175-1.829 3.432-.455 7.07-.214 10.529-.162l16.45.25c6.967.083 14.208-.484 21.139.098 1.608.134 3.16.565 4.24 1.836 2.06 1.846 2.596 3.578 2.753 6.306.172 2.99-.588 16.213.111 17.796l.368.192c-.233.161-.556.282-.606.568-1.054 5.999 2.728 16.306-3.123 20.493-3.92 2.806-20.704 1.314-26.204 1.378h-3.874a169 169 0 0 1-7.04 12.409c-2.604-2.377-3.982-6.087-6.236-8.805-1.856.033-3.694-.001-5.55-.086-2.456-.546-4.265-2.338-6.001-4.038"/><path fill="#1088AD" d="m186.789 176.215 1.97.142c2.266.795 5.318.431 7.686.373.712 1.111 1.489 2.218 2.065 3.407-1.794-.002-3.98-.233-5.72.116-2.456-.546-4.265-2.338-6.001-4.038"/><path fill="#FAFCF9" d="M185.962 132.891c.665-.674 1.338-1.308 2.176-1.766q.305-.168.626-.303.321-.137.654-.24t.675-.17q.342-.068.689-.101c2.26-.207 4.657-.041 6.93-.035l12.931.02c8.491.008 17.166-.464 25.632.007 1.278.07 2.448.338 3.667.708.703.752 1.36 1.527 2.006 2.33l-2.883-.772c-10.318-.367-20.719-.099-31.046-.103-5.852-.002-12.243-.6-18.02.16-1.626 1.284-2.23 1.963-2.47 4.038-.647 5.637-.244 11.595-.214 17.274.03 5.544-.201 11.143.08 16.677.027 1.142.162 2.204.37 3.326-.754-.622-1.67-1.448-2.116-2.325-.672-1.321-.69-3.485-.754-4.962-.19-4.315.171-8.697.178-13.02.008-5.671-.353-11.513.095-17.16.099-1.246.42-2.397.794-3.583"/><path fill="#EA7D0A" d="m239.065 132.569 2.883.772c.222.891.483 1.79.652 2.692-.282 7.476.032 15.087.086 22.582.023 3.224.261 6.592-.124 9.795-.181 1.51-.39 3.35-1.54 4.454-.98.94-2.286 1.415-3.606 1.635-2.555.428-5.368.194-7.954.142-6.218-.126-13.07-.635-19.238.209-2.13 3.316-3.867 6.908-6.062 10.174-2.274-3.514-4.519-7.051-6.938-10.467-2.375-.036-4.97-.277-7.3.203-.682-.361-1.428-.576-2.158-.819-.21-1.122-.344-2.184-.37-3.326 1.95-2.012 38.088.598 44.57-1.62 1.589-.544 2.794-1.33 3.611-2.828 2.879-5.279 1.646-20.147 1.514-26.47-.037-1.75-.368-4.807.472-6.346.34-.624.867-.611 1.502-.782"/><path fill="#F9BD19" d="M190 132.626c5.776-.76 12.167-.162 18.019-.16 10.327.004 20.728-.264 31.046.103-.635.17-1.162.158-1.502.782-.84 1.54-.509 4.596-.472 6.347.132 6.322 1.365 21.19-1.514 26.47-.817 1.497-2.022 2.283-3.61 2.827-6.483 2.218-42.622-.392-44.571 1.62-.282-5.534-.05-11.133-.08-16.677-.031-5.679-.434-11.637.214-17.274.238-2.075.843-2.754 2.47-4.038"/><path fill="#062782" d="M207.524 152.652c1.22-2.62 2.621-6.687 5.336-7.999.769.012.749.03 1.302.57 1.056 2.75-.238 7.681-1.403 10.316-.26.587-.653 1.525-1.156 1.931l-.223-.067c-1.042-2.535.082-6.747.62-9.32-1.338 2.708-2.739 6.539-4.93 8.627l-.455.12c-1.09-.883-1.146-1.883-1.288-3.23-.126-1.198.084-3.422-.58-4.384-.309.831-.611 1.661-.878 2.507-.389 2.025-.62 4.03-2.06 5.615l-.337-.082c-.73-2.76.128-5.62.873-8.273a8.5 8.5 0 0 1 .414-2.255c.26-.757 1.026-1.726 1.764-2.052.631-.278.89-.202 1.5.04.23.549.292.957.287 1.55q.733 3.17 1.214 6.386M223.008 157.07c-2.323-.01-4.267-.027-6.093-1.693-1.014-.924-1.493-2.21-1.512-3.566-.026-1.936.81-3.844 2.171-5.208 1.328-1.331 3.332-2.318 5.237-2.297q.236.002.47.027t.465.074q.23.048.454.12.225.072.44.165.217.094.422.21.206.115.398.25t.371.29.34.324c1.77 1.898 1.813 3.75 1.697 6.175q-.056.19-.121.376t-.14.37q-.074.182-.158.36-.083.18-.176.354-.092.175-.193.345-.1.17-.21.334-.109.165-.226.324t-.242.312-.257.3-.271.286-.286.272q-.146.134-.299.259-.152.125-.31.243-.16.117-.324.227t-.333.211q-.17.102-.344.195a4 4 0 0 1-.97.36"/><path fill="#F9BD19" d="M221.212 155.384c-.867-.324-1.693-.708-2.354-1.374-.746-.751-1.2-1.657-1.186-2.731.015-1.213.683-2.369 1.538-3.195.899-.87 2.196-1.539 3.472-1.5.779.024 1.525.33 2.06.908 1.04 1.125.96 2.59.914 4.02-.78 1.53-1.672 2.997-3.388 3.57q-.522.171-1.056.302"/><path fill="#062782" d="M207.075 267.628c-4.395-2.255-8.938-7.186-11.54-11.306q-.212-.33-.415-.664-.204-.335-.399-.675t-.382-.684-.365-.693-.347-.702-.33-.71-.312-.719q-.152-.361-.295-.726-.142-.365-.276-.733-.133-.368-.258-.74-.124-.371-.24-.745-.114-.375-.22-.752t-.202-.757-.183-.761q-.087-.383-.164-.766-.078-.384-.145-.77-.068-.386-.127-.773-.058-.388-.106-.776-.049-.39-.088-.779-.039-.39-.068-.78t-.049-.782-.029-.783-.01-.783.01-.784.029-.782q.02-.392.048-.782.03-.39.068-.78.04-.39.088-.779t.106-.776q.058-.388.126-.773.068-.386.145-.77t.164-.766c1.974-8.548 7.891-16.031 15.279-20.634 7.034-4.384 16.094-5.377 24.096-3.498 8.275 1.943 16.038 8.13 20.473 15.334 3.786 10.268 5.733 18.571.94 28.994q-.169.362-.346.72-.177.357-.363.71t-.38.7q-.196.35-.399.692-.203.344-.415.682t-.431.671-.448.66-.464.65q-.236.321-.48.637-.243.316-.495.625-.252.31-.51.613-.26.304-.526.6-.267.297-.54.587-.275.29-.555.574-.281.283-.569.56-.288.276-.582.545-.294.27-.596.531-.3.262-.608.516-.307.254-.62.501-.315.247-.634.486-.32.238-.645.47-.325.23-.656.453t-.668.437q-.336.215-.677.421-.342.206-.688.404-.347.198-.698.387t-.707.37-.716.351-.725.335q-.364.162-.732.316-.368.153-.74.298-.372.144-.748.28c-6.55 2.395-13.625 2.695-20.29.579-2.03-.644-4.316-1.85-6.371-2.206"/><path fill="#DAF9F8" d="M213.167 211.272c5.233-2.33 11.047-2.006 16.573-1.199l.304 1.303c-.5.517-.96.529-1.64.702-2.838-.314-5.97-.586-8.812-.27-1.665.186-3.645.937-5.272.838-.235-.718-.584-.903-1.153-1.374"/><path fill="#ACFCF7" d="M229.74 210.073c7.893 2.552 14.981 6.459 18.886 14.13q.36.711.671 1.445c-1.502-.462-7.285-6.912-9.36-8.406-3.542-2.548-7.38-3.952-11.533-5.164.68-.173 1.14-.185 1.64-.702z"/><path fill="#FAFCF9" d="M213.167 211.272c.57.47.918.656 1.153 1.374-7.505 2.792-13.827 8.022-17.208 15.351-3.317 7.188-3.01 15.165-.29 22.48 1.1 2.96 3.14 5.901 3.926 8.903-2.052-2.253-3.729-4.706-4.994-7.484q-.153-.333-.299-.67-.145-.338-.282-.678-.137-.341-.266-.685-.128-.344-.248-.69-.12-.348-.231-.698t-.215-.702q-.102-.353-.196-.708t-.18-.712q-.085-.357-.162-.716-.076-.359-.144-.72-.068-.36-.126-.723-.06-.363-.11-.726-.05-.364-.09-.729t-.073-.73q-.032-.367-.054-.733-.024-.366-.037-.733-.014-.367-.02-.734-.004-.368 0-.735t.018-.734q.013-.367.035-.733.022-.367.053-.732.032-.366.072-.731t.09-.73q.048-.363.106-.726.059-.362.125-.723.067-.361.143-.72.076-.36.16-.717.085-.357.179-.712t.195-.708.213-.703.23-.697.247-.692c3.311-8.725 9.985-14.019 18.28-17.744"/><path fill="#0CD0F1" d="M214.32 212.646c1.627.099 3.607-.652 5.272-.838 2.842-.316 5.974-.044 8.812.27 4.153 1.212 7.991 2.616 11.532 5.164 2.076 1.494 7.86 7.944 9.361 8.406 3.564 7.077 4.402 15.013 1.897 22.625q-.117.35-.243.695-.126.346-.26.688-.134.343-.276.682-.143.34-.293.675-.15.336-.31.668-.158.332-.325.66t-.341.652q-.175.324-.357.644t-.372.634-.388.626-.403.616-.417.606-.432.595-.447.585-.46.574-.475.563-.488.55-.5.54-.515.526q-.26.26-.526.515-.267.253-.539.5-.273.248-.55.488-.28.241-.563.475-.284.234-.574.46-.29.227-.585.447t-.596.432-.605.418-.616.403-.625.388q-.316.19-.635.373-.32.182-.644.356-.323.175-.651.342c-7.005 3.507-15.369 4.267-22.815 1.757-4.604-1.552-9.606-4.109-12.62-8.026-.786-3.002-2.825-5.942-3.926-8.903-2.72-7.315-3.027-15.292.29-22.48 3.38-7.329 9.703-12.56 17.208-15.35"/><path fill="#DAF9F8" d="M233.442 219.405c2.208-.163 4.74 1.294 6.352 2.71 4.444 3.905 6.8 10.22 7.106 16.022.204 3.882-.44 8.887-2.67 12.178-.521-.737-.444-1.794-.488-2.667 1.915-3.6 1.935-10.055.922-13.937-1.576-6.038-5.894-11.198-11.222-14.306"/><path fill="#ACFCF7" d="M207.528 256.095c1.671 1.15 3.356 2.22 5.193 3.088q.257.124.517.242t.522.23.528.215.534.203.538.19q.27.09.543.175.272.085.547.162.274.078.55.149.277.07.556.134.278.063.557.12.28.057.56.107.282.05.564.092t.565.078q.283.035.567.064t.569.05.57.034q.284.014.57.021.285.007.57.007t.57-.008q.286-.007.57-.022.285-.014.57-.036t.569-.05q.283-.03.566-.066t.565-.079.563-.093.56-.108q.28-.057.558-.121t.555-.136.55-.149q.275-.078.547-.163.273-.085.543-.177t.538-.19c6.116-2.22 10.56-6.55 13.27-12.41.044.873-.033 1.93.489 2.667-2.514 5.43-7.672 9.508-13.223 11.55q-.289.103-.58.2-.291.095-.584.185-.294.089-.59.17-.295.083-.592.157-.298.075-.597.142t-.6.128q-.3.06-.602.112-.303.053-.606.098t-.608.083q-.304.037-.61.068-.304.03-.61.052-.306.023-.612.038-.306.016-.613.023-.306.008-.613.008t-.613-.007q-.307-.008-.613-.023t-.612-.037-.611-.052-.61-.067-.607-.082-.606-.098-.603-.111-.6-.127-.597-.141q-.297-.075-.593-.156-.295-.082-.589-.17-.293-.09-.584-.185-.292-.097-.58-.2-.29-.103-.575-.213-.287-.11-.57-.227-.284-.118-.564-.242t-.558-.255c-1.779-.831-3.505-1.718-4.633-3.385-.118-.695-.04-.804.255-1.456"/><path fill="#062782" d="M207.528 256.095c-2.01-2.508-4.277-4.834-5.64-7.794-2.297-4.992-2.572-11.324-.632-16.467 2.116-5.611 6.698-10.31 12.148-12.755 6.637-2.976 13.398-2.185 20.038.326 5.328 3.108 9.646 8.268 11.222 14.306 1.013 3.882.993 10.338-.922 13.937-2.71 5.86-7.154 10.19-13.27 12.41q-.268.098-.538.19t-.543.177-.547.163-.55.15-.555.135-.557.121-.56.108-.564.093-.565.079-.566.065q-.284.03-.569.05-.285.023-.57.037-.284.015-.57.022-.285.008-.57.008t-.57-.007q-.286-.007-.57-.02-.286-.015-.57-.036-.285-.021-.569-.05-.284-.028-.567-.063t-.565-.078-.563-.092-.56-.107-.558-.12-.555-.134-.551-.149-.547-.162-.543-.175-.538-.19-.534-.203-.528-.216-.522-.229-.517-.242c-1.837-.869-3.522-1.939-5.193-3.088"/><path fill="#FEF365" d="M210.528 255.69c-.29-.439-.572-.713-.4-1.279.512-1.674 8.276-9.447 10.029-10.492.74-.442 1.07-.268 1.824-.058-3.221 4.462-7.788 7.748-11.453 11.83M212.91 223.003c-.188-.59-.333-.742-.003-1.31.741-1.275 3.152-1.827 4.527-2.124 5.538-1.199 11.678-.554 16.53 2.561.676.434 1.86 1.194 2.03 2.048.076.38-.105.653-.24 1.002-1.796-.438-3.232-1.901-4.903-2.67-6.205-2.855-11.81-1.777-17.941.493M207.206 252.43c-.647-.884-1.293-1.774-1.867-2.707-3.179-5.17-3.7-11.077-2.263-16.9.309-1.253.96-3.168 2.224-3.78.713-.346 1.183.016 1.827.303-2.64 4.77-3.602 9.56-2.06 14.881.64 2.209 3.138 6.121 2.139 8.202"/><path fill="#F9BD19" d="M212.91 223.003c6.131-2.27 11.736-3.348 17.941-.493 1.671.769 3.107 2.232 4.903 2.67-3.69 2.878-7.006 6.775-10.271 10.144-4.019-4.153-8.145-8.602-12.573-12.32M207.127 229.346c3.116 4.92 8.723 7.89 12.118 12.482-2.126 2.247-9.044 10.389-11.496 10.824l-.543-.223c.999-2.08-1.5-5.993-2.139-8.202-1.542-5.321-.58-10.11 2.06-14.881"/><path fill="#F7553D" d="M210.145 223.416c2.96 1.679 7.296 6.689 9.777 9.206 6.264 6.357 12.383 12.955 18.93 19.018l-3.158 3.122-.219-.003c-.337-.006-.394-.2-.605-.434-8.792-9.735-18.642-18.59-27.934-27.85.906-1.164 2.099-2.096 3.209-3.06"/><path fill="#F9BD19" d="M221.98 243.86c3.334 4.496 8.03 8.04 11.723 12.286-5.255 2.926-10.588 3.93-16.46 2.272-2.338-.66-4.537-1.667-6.715-2.727 3.665-4.082 8.232-7.368 11.453-11.83M237.826 225.606c2.53 2.12 4.257 5.944 5.058 9.084 1.442 5.652.079 10.472-2.831 15.385l-3.62-3.62-9.557-9.653c3.692-3.68 7.479-7.305 10.95-11.196"/><path fill="#062782" d="M72.611 506.111c1.191.465 2.554 1.136 3.846 1.097 1.077.192 2.374-.368 3.494-.457 3.645-.295 12.017-.646 15.194.827 3.098 1.436 2.185 3.668 3.176 6.248l.062.15c1.651-2.006.188-4.035 3.62-7.069 1.33.075 2.675-.167 4.028-.08 2.783.177 5.486.717 8.228.957l.193.016c2.128-.014 4.303-1.238 6.523-1.294 1.59-.042 3.026 1.286 4.626 1.264l45.417-.323c1.233 0 2.435-.657 3.66-.632 1.786.034 3.265 1.584 5.097 1.411.93.173 2.27-.787 3.208-1.06 1.034-.298 21.311-.473 23.317-.192 1.115.156 2.23.801 3.219 1.322l-.013-.14c3.613-1.101 7.327-2.315 11.01-.631 1.9.865 3.086 2.418 3.802 4.35.62 1.673.217 2.739-.484 4.317.28 3.337 1.767 4.934.18 8.46-.984 2.188-2.816 3.705-5.056 4.498-2.542.9-7.028 1.158-9.522-.03q-.058.028-.115.055c-.212.103-.44.215-.673.26-2.51.486-8.243.021-11.143.024-7.873.003-15.786.248-23.65.156-1.204-.014-2.264-.687-3.433-.679-2.521.022-5.144.49-7.694.59-2.544.1-12.21.96-13.951-.164-.675-.073-1.656-1.072-2.177-1.528-1.039-.117-2.242.852-3.186 1.283-.551.253-1.078.45-1.687.487-2.24.125-4.576-.178-6.828-.198-2.15-.016-4.447.256-6.574.059-1.07-.1-2.116-.68-3.178-.696-3.964-.058-6.024 1.692-10.267.033-2.005-.784-3.349-3.46-4.187-5.332-.454 2.018-.941 4.069-2.755 5.285q-.044.043-.092.08c-.99.808-1.991.978-3.229.847-.882.117-1.936-.345-2.655-.843-1.823-1.264-2.422-3.535-2.777-5.586-.099.064-.137.092-.25.15-1.346.682-3.56.292-4.93-.147-.134 1.764-.338 3.977-1.572 5.371-1.713 1.934-5.736-.014-7.994.13-1.406.09-2.743.816-4.15.864-1.087.033-2.376-.493-3.162-1.236q-.8.259-1.607.493c-3.484 1.01-9.158 1.756-12.487-.073-.101-.055-.144-.078-.247-.147-1.3-.894-1.78-2.861-2.019-4.314-.5-3.05-.966-12.277.133-14.946.503-1.225 1.643-2.026 2.393-3.092.028-.042.056-.08.084-.123 2.51.827 6.784.988 9.234-.072"/><path fill="#FAFCF9" d="M94.99 516.882c1.038.665 2.326.334 3.464.654.615.173.74.36 1.05.863-.323.562-.357.534-.979.737-.71.435-1.429.68-2.267.693-.761.014-1.051-.3-1.538-.798-.225-.936-.028-1.25.27-2.149M65.263 510.333c.55.329 1.44.39 1.83.935.86 1.205.549 10.009.328 12.013-.065.587-.002.837-.485 1.221-.18.212-.318.396-.573.52-.46.224-.56.132-1.027-.016a4 4 0 0 1-.383-.732c-.919-2.377-.658-11.656.31-13.94M83.91 510.645c.994.787 5.045.145 6.46.147 1.053.003 2.01.064 2.79.858.227.665.274.679-.004 1.316-1.176.696-2.09.662-3.395.376-.015 2.791-.163 5.658.09 8.438.02 1.097-.075 1.974-.388 3.023-.571.381-.671.359-1.365.345-.22-.134-.436-.287-.593-.495-1.672-2.216-.74-8.511-.57-11.25-.622.18-1.522.379-2.17.206-.732-.192-.92-.476-1.334-1.055-.046-.877.103-1.147.48-1.91M140.04 510.486c2.133 1.152 5.25-.039 7.602.86.499.192.491.245.711.732l-.324.646c-1.413.988-3.755.646-5.4.595-.4.593-.26 2.397-.289 3.154.996.723 1.657.51 2.762.824.873.25 1.765.548 2.227 1.397l-.793.267c-.285.309-.574.607-.969.771-1.065.445-2.063.192-3.096-.175.014 1.352.26 3.32-.215 4.586-.312.835-.645 1.022-1.39 1.403-.578-.17-.668-.17-.989-.72-1.483-2.547-.553-11.476.163-14.34M214.721 510.297c.69.359 1.27.437 2.025.551 1.29.192 2.305.601 3.088 1.698.168.234.067.373.023.645-1.577.913-3.885.106-5.462.983-.34.19-.312.309-.428.679.764 2.154 5.087 2.574 6.77 4.28.451.46.696 1.03.649 1.679-.09 1.252-1.559 2.822-2.427 3.651-.13.112-.264.223-.408.315-.754.479-1.322.473-2.156.27-1.341.192-2.682.531-3.878-.317-.664-.474-1.496-1.386-1.627-2.202.992-1.21 5.16-.086 6.877-.362l.299-.773.018.578c-.475-2.738-4.738-2.869-6.466-4.9-.505-.596-.727-1.225-.648-2.007.216-2.118 2.248-3.538 3.751-4.768M150.429 510.575c2.069 1.17 5.63-.434 7.663.983.482.334.447.5.525 1.04l-.425.518c-1.553.771-3.839.393-5.517.279-.367.515-.138 2.184-.115 2.86 1.544.708 3.649.081 4.863 1.362.12.684.14.715-.201 1.316-.967.543-1.97.446-3.04.554-.835.084-1.123.097-1.663.752-.025.4-.064.812.004 1.21.436 2.552 4.219.869 5.75 1.987.06.718.06.802-.297 1.425-.482.312-.95.532-1.516.643-1.828.357-5.139.387-6.704-.682-.393-3.325-.968-11.47.673-14.247M192.175 510.506c1.385.818 3.734.117 5.326.974.461.248.53.284.667.776-1.658 2.864-3.862.434-5.874 1.336-.53.81-.346 1.857-.31 2.778.748.434 1.448.445 2.28.548.916.114 1.861.432 2.44 1.186-.025.456.011.54-.289.882-.882 1.008-1.995.518-3.164.66-.77.094-1.024.506-1.445 1.08-.05.776-.035.876.353 1.55l.577.055c1.625 1.083 4.109-.144 5.648 1.445l-.057.573c-.514.582-1.087.902-1.832 1.091-2.024.518-5.38.54-7.212-.506-.39-3.738-1.067-9.33.051-12.911.582-.866 1.905-1.122 2.841-1.517M104.227 510.642c1.513 1.016 4.495-.033 6.292.487 1.03.298 1.94 1.086 2.422 2.035.627 1.235.664 2.7.224 4.002-.358 1.057-1.096 2.04-2.12 2.527-1.081.515-1.866.267-2.917-.12-2.732 1.55-1.546 2.558-2.297 5.13-.497.434-.504.465-1.158.47-.695-.484-.904-1.213-1.064-2.01-.513-2.552-.8-10.4.618-12.52"/><path fill="#062782" d="M106.4 513.255c.935.276 1.909.312 2.853.638.815.284 1.256.59 1.621 1.364-.249.478-.467.776-.89 1.11-.434.682-.93.969-1.607 1.358-.54.025-.851.084-1.262-.353-1.043-1.105-.872-2.753-.714-4.117"/><path fill="#FAFCF9" d="M71.107 510.367c4.664 1.94 3.963 5.09 6.896 7.637.387.336.428.359.931.33.677-1.452.092-4.024.244-5.68.068-.732.244-1.338.824-1.831.706-.128.688-.128 1.286.27 1.624 2.758.892 8.397.788 11.556-.03.938.045 1.62-.663 2.282l-.84-.103-.716.067c-2.559-1.556-5.626-6.616-6.482-9.402.126 2.694.525 5.784-.184 8.397-.218.807-.455 1.308-1.177 1.712-.634-.434-.829-.777-1.075-1.509-.85-2.519-.96-11.352.168-13.726M128.718 510.642c1.924 1.186 5.2-.242 7.176.983.643.398.979 1.216 1.549 1.714q.104.087.21.178c.018 1.417.105 3.064-.379 4.414-.406 1.13-1.053 1.562-2.1 2.035.744 1.478 2.155 3.19 1.925 4.915-.564.565-.618.506-1.428.545-.628-.367-.749-.62-1.106-1.23-1.268-.643-1.79-2.789-2.912-3.874l-.493.02c-.877 1.363-.322 3.595-1.313 4.842-.366.462-.663.376-1.21.412-.66-.626-.758-1.007-.888-1.904-.463-3.211-.97-10.473.969-13.05"/><path fill="#062782" d="M131.223 513.139c.538.584 2.267.578 3.126 1.163.652.442.72.529.862 1.297-.277.623-.316.637-.922.957-.342.499-.562.755-1.187.922-.617.167-1.245.15-1.778-.231-.429-.31-.777-.936-.851-1.453-.137-.96.19-1.893.75-2.655"/><path fill="#FAFCF9" d="M200.526 510.575c1.061.768 3.665.103 5.108.485 1.436.38 2.716 1.124 3.45 2.457.69 1.26.723 2.641.284 3.991-.442 1.364-1.065 2.01-2.315 2.667.623 1.065 1.42 2.215 1.895 3.353.282.677.134 1.044-.117 1.673l-.62.256c-.736-.287-.839-.484-1.28-1.105-.047 0-.094.008-.141 0-1.004-.13-1.712-1.834-2.278-2.594-.474-.637-.695-.927-1.476-1.066-1.077 1.356-.282 3.396-1.314 4.815-.67.226-.733.206-1.413-.008-.43-.482-.603-1.005-.715-1.628-.56-3.131-.926-10.64.932-13.296"/><path fill="#062782" d="M203.031 513.144c1.234.735 2.552.523 3.6 1.79.418.504.517.785.474 1.425-.408.426-.763.765-1.287 1.043-.08.162-.144.295-.277.423-.464.446-.988.771-1.645.777-.776-.493-1.109-.91-1.349-1.815-.343-1.297-.177-2.49.484-3.643"/><path fill="#FAFCF9" d="M179.736 519.46c2.347-2.336 2.07-7.173 5.415-8.88.302.056.59.043.8.28 1.447 1.633 1.103 9.19.839 11.33-.154 1.244-.303 2.727-1.323 3.523l-.516-.156c-.92-1.812-.769-4.027-.75-6.003.001-.676.14-1.584-.33-2.076-1.12 1.14-1.673 3.935-2.323 5.48-.359.851-.791 1.909-1.698 2.282-2.337-.615-2.867-5.45-4.077-7.362-.102.076-.26.109-.306.226-.301.768.564 4.183-.045 5.975-.23.68-.452 1.345-1.108 1.654-.12-.084-.208-.134-.304-.237-1.206-1.314-1.37-4.962-1.416-6.727-.06-2.271-.444-6.387 1.207-8.13 5.132 2.205 2.833 6.235 5.935 8.82M118.09 510.617c.804.576 2.377.44 3.365.615 1.186.212 2.555.665 3.248 1.709 1.45 2.19.958 7.13.416 9.596-.419.721-.855 1.467-1.554 1.951-.692.48-1.302.418-2.074.287q-.044.055-.087.106c-.535.598-1.478.799-2.255.83-1.053.041-1.933-.38-2.675-1.106-1.593-1.555-2.18-4.046-2.157-6.203.036-3.44 1.437-5.483 3.774-7.785"/><path fill="#062782" d="M119.122 513.047c.135.089.255.153.41.2.753.242 1.456.42 2 1.035 1.065 1.206 1.698 3.006 1.573 4.612-.08 1.03-.336 2.497-1.186 3.181-.363.293-.55.173-.989.115-.304.253-.645.548-1.042.637-.789.178-1.081.117-1.77-.284a5.7 5.7 0 0 1-.808-2.324c-.352-2.76.137-4.968 1.812-7.172"/><path fill="#FAFCF9" d="M161.283 510.645c.888.562 5.69.835 6.83.62.825 1.615 2.595 2.72 3.123 4.607.443 1.586.018 4.89-.784 6.345-.372.674-.642.944-1.373 1.153q-.119.222-.27.425-.15.204-.328.382t-.38.328q-.202.153-.424.273c-1.577.852-4.455.952-6.152.445-.61-.517-.783-.888-.976-1.67-.698-2.833-.84-10.417.734-12.908"/><path fill="#062782" d="M163.51 513.08c.732.457 1.745.34 2.575.593.746.228 1.203.64 1.56 1.328.792 1.516 1.06 3.838.48 5.466-.256.718-.628.968-1.272 1.286-.071.128-.141.27-.234.384-.534.662-1.225 1.032-2.04 1.082-.41-.256-.62-.5-.823-.943-1.047-2.28-1.101-6.841-.246-9.196M141.739 43.508q.855-.07 1.713-.098c9.54-.312 19.324 3.94 26.176 10.421q.34.324.671.655.331.332.655.67.323.34.638.688t.621.702.604.717q.298.363.586.732.289.37.568.746.28.376.55.76.27.383.53.773.261.39.512.785.251.396.493.798.241.402.472.81.232.407.453.82.221.414.433.832.21.42.412.843.2.423.39.852.191.428.371.861t.35.87.327.879q.159.44.306.886.148.445.285.893.136.449.262.9.126.452.24.907.115.454.218.912.103.457.196.917.092.46.173.92.08.463.15.926.07.464.128.93.058.464.105.93.047.467.082.935t.06.936q.023.468.036.936c.254 9.97-3.52 20.16-10.418 27.404-5.951 6.25-15.2 11.013-23.926 11.223-8.062.88-15.616-1.391-22.302-5.904q-.393-.26-.779-.532-.386-.27-.765-.55t-.75-.57q-.373-.29-.737-.59-.365-.298-.722-.606t-.706-.625-.69-.642-.674-.66-.658-.675-.64-.692q-.315-.35-.622-.708t-.605-.724-.586-.738-.568-.753-.548-.767-.53-.78-.509-.793-.49-.806-.469-.818q-.229-.412-.448-.83-.219-.417-.427-.84-.209-.423-.407-.85-.198-.428-.385-.861t-.363-.87-.341-.88q-.165-.44-.32-.886-.154-.446-.296-.895-.143-.45-.275-.902-.131-.453-.251-.909t-.23-.915-.205-.92q-.097-.46-.183-.925c-1.985-10.452-.273-21.15 5.78-30.029 6.899-10.119 15.815-13.079 27.279-15.226"/><path fill="#FAFCF9" d="M117.612 103.263c-3.968-5.163-6.192-11.489-7.02-17.903-1.197-9.26 1.025-18.853 6.795-26.252q.26-.334.53-.66.269-.328.545-.648.277-.32.562-.633t.577-.62q.293-.305.592-.604.3-.299.607-.59.308-.292.622-.575.314-.284.635-.56.321-.275.65-.543.327-.268.662-.527.334-.26.675-.511.34-.251.687-.494.347-.242.7-.477.352-.234.71-.459.36-.225.723-.441.364-.217.733-.424t.743-.405.753-.387.762-.368.771-.35.78-.33q.392-.16.787-.31.396-.15.795-.291.4-.14.802-.272.403-.13.809-.251.405-.12.814-.231t.82-.212.824-.19.83-.17q.415-.081.833-.15.417-.07.836-.13.42-.06.84-.109c7.658-.906 16.539.97 22.656 5.81l-.204-.016c-2.918-.276-6.236-2.18-9.097-3.045q-.467-.14-.938-.265-.471-.126-.946-.237-.474-.111-.952-.208-.478-.098-.958-.18-.48-.084-.963-.152-.482-.069-.967-.123-.484-.054-.97-.094t-.973-.065-.974-.036-.974-.007q-.488.003-.975.021t-.973.051q-.487.033-.972.08t-.969.108-.965.138-.96.166-.955.194-.95.223q-.472.118-.941.25-.47.133-.934.28-.465.146-.926.306-.46.16-.915.334-.456.174-.906.36-.45.188-.894.389-.444.2-.883.414-.438.213-.87.44-.43.226-.856.466-.424.24-.841.491-.418.252-.828.516t-.81.54-.796.564q-.393.289-.777.588c-6.978 5.536-11.128 13.592-12.111 22.391q-.132 1.203-.195 2.412t-.055 2.419q.006 1.21.084 2.418.076 1.208.223 2.41.146 1.2.362 2.392.215 1.191.499 2.367.284 1.177.635 2.335.351 1.159.768 2.295c.844 2.265 3.267 4.91 3.162 7.337"/><path fill="#0CD0F1" d="M117.612 103.263c.105-2.427-2.318-5.072-3.162-7.337q-.417-1.136-.768-2.295-.351-1.158-.635-2.335-.284-1.176-.5-2.367-.215-1.191-.361-2.393-.147-1.2-.223-2.409-.078-1.208-.084-2.418-.008-1.21.055-2.419t.195-2.412c.983-8.799 5.133-16.855 12.11-22.391q.385-.3.778-.588t.795-.564.811-.54.828-.516q.417-.252.841-.491.425-.24.857-.466.431-.227.87-.44.438-.214.882-.414t.894-.388q.45-.187.906-.36.455-.175.915-.335t.926-.306.934-.28.942-.25.949-.223.955-.194.96-.166.965-.138.969-.108.972-.08.973-.05q.487-.019.975-.022.487-.004.974.007.488.01.974.036.487.025.973.065t.97.094.967.123.963.151.958.18.952.209.946.237.938.265c2.86.865 6.18 2.769 9.097 3.045l.204.016c8.153 5.322 13.446 13.104 15.543 22.648 2.037 8.443-.018 18.223-4.525 25.592q-.225.367-.458.73-.234.36-.476.717-.243.356-.494.705-.25.35-.51.694t-.527.68-.543.668-.56.655-.575.64-.59.626q-.3.31-.607.612-.306.302-.62.597-.314.294-.635.581t-.649.566-.663.55q-.334.27-.675.533t-.689.517-.7.5q-.354.245-.713.482-.36.237-.725.466-.365.228-.736.447-.37.219-.746.43-.375.21-.756.41-.38.2-.767.393-.385.191-.775.373t-.785.355-.793.335-.8.316q-.403.153-.809.296t-.815.277-.822.256-.828.237-.833.216c-7.32 1.761-16.438 1.304-22.974-2.725l-.26-.162c-1.416-.726-2.713-1.577-4.033-2.46-2.911-2.262-5.382-4.467-7.517-7.486"/><path fill="#FAFCF9" d="M143.933 88.56c.52.71.972 1.218.817 2.151-.404 2.451-4.965 9.552-6.827 11.209-.733-.364-1.12-1-1.466-1.749 2.224-3.995 4.939-7.808 7.476-11.611M115.222 79.455c.042.025.086.047.127.075.206.142.638.52.75.742.247.486.26 1.429.302 1.963.3 3.78.735 7.266 1.872 10.91 1.187 3.803 7.49 10.224 7.741 11.625.072.396-.14.56-.35.879-4.007-2.088-7.01-7.381-8.608-11.424-1.576-3.989-3.645-10.622-1.834-14.77M147 51.398c7.44 1.106 14.808 4.833 19.674 10.673 1.467 1.76 2.831 3.926 2.61 6.284-.122-.049-.247-.092-.367-.148-1.356-.633-4.243-5.09-5.493-6.438-1.523-1.641-3.306-3.35-5.135-4.639-3.035-2.139-7.644-1.797-10.483-3.94-.732-.552-.7-.964-.806-1.792"/><path fill="#1193D1" d="M170.798 65.663c2.255 2.4 4.927 7.843 7.452 9.422l.345-.441c2.037 8.443-.018 18.223-4.525 25.592q-.225.367-.458.73-.234.36-.476.717-.243.356-.494.705-.25.35-.51.694t-.527.68-.543.668-.56.655-.575.64-.59.626q-.3.31-.607.612-.306.302-.62.597-.314.294-.635.581t-.649.566-.663.55q-.334.27-.675.533t-.689.517-.7.5q-.354.245-.713.482-.36.237-.725.466-.365.228-.736.447-.37.219-.746.43-.375.21-.756.41-.38.2-.767.393-.385.191-.775.373t-.785.355-.793.335-.8.316q-.403.153-.809.296t-.815.277-.822.256-.828.237-.833.216c-7.32 1.761-16.438 1.304-22.974-2.725l-.26-.162c-1.416-.726-2.713-1.577-4.033-2.46.35-.733.77-1.906 1.337-2.466.427-.42.524-.415 1.085-.436 1.692.401 3.278 1.185 4.906 1.785 7.825 2.884 15.76 2.594 23.355-.942q.354-.166.704-.341t.696-.359.686-.376.677-.392.667-.41q.332-.208.657-.425.326-.217.647-.442.32-.225.634-.457.315-.233.624-.473t.612-.489.6-.503.586-.518.574-.532.56-.546q.277-.277.547-.56t.533-.573.519-.587.504-.598.489-.612.473-.622.459-.635.442-.646.427-.656q.209-.33.41-.667.2-.335.393-.676.192-.34.377-.686.184-.346.36-.695.175-.35.341-.704t.325-.713q.158-.357.307-.72.15-.361.29-.727.14-.365.271-.734c2.984-8.31 2.323-17.016-1.405-24.953"/><path fill="#8FBFE2" d="M125.13 110.749c.349-.733.77-1.906 1.336-2.466.427-.42.524-.415 1.085-.436.151 2.04 2.674 3.067 1.61 5.362-1.415-.726-2.712-1.577-4.032-2.46"/><path fill="#062782" d="M156.427 60.124c2.59 2.688 5.211 5.35 7.02 8.65-1.801-1.706-3.71-3.346-5.447-5.115-1.978 2.905-4.215 5.843-5.723 9.025 3.905-.019 6.976.402 9.933 3.21 1.759 2.109 2.952 4.698 2.707 7.499-.229 2.624-1.674 5.051-3.71 6.687q-.2.164-.409.317t-.425.295-.44.273q-.223.13-.452.25-.23.119-.466.226-.235.108-.476.203-.24.095-.486.178-.245.082-.494.152-.25.07-.502.127t-.507.101-.512.075-.515.049-.517.022-.518-.004q-.258-.01-.516-.031-.258-.022-.514-.057c-2.45-.32-4.353-1.241-5.864-3.218-.586-.767-1.08-1.504-1.223-2.475-.381-.13-.59-.307-.964-.11-.68.358-1.212 1.35-1.46 2.048q-.01.03-.014.059c-2.537 3.803-5.252 7.616-7.476 11.611l-.629.434c-1.596-.449-7.198-8.165-8.765-9.96-.69-.45-1.36-.996-1.875-1.643q-.169-.21-.327-.43t-.305-.446q-.146-.227-.282-.461t-.258-.475-.233-.487-.21-.5q-.097-.251-.182-.508-.085-.256-.158-.517-.072-.26-.13-.524-.06-.264-.104-.53-.046-.267-.077-.536-.032-.268-.05-.538t-.022-.54.005-.54.032-.54.06-.537c.394-2.926 1.879-4.848 4.176-6.56 2.362-1.442 4.845-2.199 7.612-1.558 2.696.625 4.87 2.558 6.28 4.882.62 1.021 1.048 2.155 1.48 3.264 4.53-6.911 8.638-14.45 13.932-20.797"/><path fill="#1193D1" d="M140.717 88.26c-.184 2.158-3.63 6.415-5.018 8.181-.614-.192-1.133-1.153-1.508-1.667l-1.892-2.337c3.59-.728 5.657-1.787 8.418-4.177"/><path fill="#FAFCF9" d="M127.761 75.902c2.455-1.076 5.13-1.928 7.77-.927 1.842.698 3.209 2.186 3.974 3.978q.086.2.162.403t.141.411.12.418.1.423.076.428.055.432.033.433.011.434-.011.435-.033.433q-.023.217-.056.432-.033.214-.077.427t-.1.423-.12.418-.141.411q-.077.204-.163.403c-.8 1.877-2.28 3.424-4.184 4.191-1.766.712-4.13.753-5.905.068-.176-.068-.348-.132-.521-.206q-.684-.499-1.324-1.052c-1.57-1.356-2.844-3.226-2.969-5.346-.171-2.907 1.343-5.362 3.162-7.47M146.962 84.602c-.074-1.676.05-3.358.63-4.942.713-1.941 2.033-3.553 3.955-4.387 3.017-1.307 5.742-.331 8.58.82 1.806 2.298 3.126 4.584 2.732 7.642q-.024.193-.058.384-.034.192-.078.381-.043.19-.096.377-.052.187-.114.372-.061.184-.132.365-.07.181-.15.358-.079.178-.167.351-.088.174-.184.343-.096.168-.2.332-.105.165-.217.323-.113.159-.233.312t-.247.3q-.127.147-.261.287t-.276.275-.288.26-.3.246c-1.665 1.286-3.876 1.797-5.945 1.485-2.257-.34-4.343-1.755-5.664-3.593-.454-.632-.786-1.292-1.112-1.995-.078-.169-.05-.11-.175-.296"/><path fill="#062782" d="M154.693 76.962c.661.386.368.74.777 1.175.454.485 1.403.84 1.958 1.357-.362.644-1.602.414-2.305.99-.09 1.285 2.359 2.113 2.859 3.635-.393 1.489-2.026 1.605-2.903 2.906q-.074.108-.144.218c-.042-.017-.086-.029-.126-.05-.677-.356-2.074-2.036-2.31-2.767.796-.525 2.146-.384 3.123-.525-.11-.297-2.756-1.98-3.407-2.641.788-1.45 1.663-2.862 2.478-4.298M66.426 362.999c1.523-1.498 2.231-4.008 3.87-5.622 3.813-3.746 6.285-.07 8.392-.12l.119-.008c.67 1.95 2.206 4.194 3.442 5.861 1.421 1.445 4.667.771 6.52 1.712 1.271.648 2.37 2.29 3.498 3.22l.18.148.148.158c1.357 1.447 3.045 2.555 4.353 4.044 3.613 4.12 1.524 9.778 2.11 14.69.086.718.169 1.06.816 1.405l.554-.06c1.276.31 2.39.467 3.675.097 1.152 1.074 2.99 2.413 3.054 4.122.09 2.36-2.024 11.937-3.56 13.576-.017.017-.035.03-.052.047-.293 1.261-.735 2.603-.524 3.9 1.418 1.948 11.136 3.42 13.814 5.63.589.487 1.061 1.528 1.427 2.193-.209 3.657-5.902 20.067-8.581 22.427-.712.626-1.696.985-2.647.907-.858-.072-1.795-.44-2.616-.704-.437 2.764-2.672 15.319-1.376 17.34.092.144.194.25.317.364l.36.56c.47.314.877.42 1.427.509 5.26.84 14.239.295 19.795.298 5.22 0 11.157.465 16.308-.067.48-.05.856-.231 1.245-.51l.037-24.536c-.028-4.022-.46-8.288-.099-12.277.077-.84.206-1.636.802-2.276.163-.173.458-.109.69-.112.597.551.795 1.197.88 1.982.35 3.253.027 6.855.007 10.134-.054 8.964-.446 18.049-.077 26.997 2.22 1.422 24.58.612 28.755.503 1.661-.044 5.73-.6 7.077-.139.053.017.102.048.154.073l.063-.173.553-.042.099-.259c-.273-.732-.996-.996-1.6-1.425-1.48-1.054-2.03-3.52-2.31-5.21-.915-5.55-1.261-18.288 1.42-23.017 1.54-2.716 2.974-2.605 4.036-4.1-.52-1.566-3.07-3.156-4.147-4.586-2.714-3.607-2.226-17.145-1.612-21.706.366-2.714 1.41-6.822 3.762-8.433 1.037-.713 2.217-1.155 3.223-1.926l-.035-.404-1.08-.4c.522.013.947.01 1.398.303.518.33 1.04.528 1.665.556.988.045 2.096-.657 2.778-1.319.629.543 1.195.713 2.01.813 4.938.61 10.294.167 15.277.15 5.345-.014 10.826.298 16.154-.067.833-.055 1.527-.222 2.255-.645.141.136.115.12.251.228q.066.05.133.103c1.846 1.455 9.185.092 12.31 1.291 2.487.952 4.28 3.112 5.336 5.503 2.124 4.8 1.8 21.146-.18 26.09-.572 1.43-1.567 3.047-3.042 3.662 1.05 1.698 2.77 2.942 3.55 4.84 1.72 4.183 1.388 22.352-.436 26.574-.586 1.358-1.4 2.544-2.814 3.095.149.053.297.097.447.145 4.698 1.525 11.089-.499 16.153.258 1.071.162 2.56.487 3.214 1.39l-.321.389c-1.098.492-2.098.785-3.309.81-23.199.487-46.468.144-69.674.139l-98.27.106q-21.144.111-42.288-.084c-4.164.003-14.864.518-18.287-.136-.843-.159-1.162-.401-1.637-1.094l.15-.56c3.611-2.735 24.072.251 30.07-1.463 1.108-1.751.505-6.452.474-8.573-.05 0-.1.009-.15 0-.55-.078-1.17-.662-1.53-1.068-1.047-1.183-1.67-2.798-1.843-4.359-.44-3.933-.098-8.19-.094-12.162l.003-24.045-.07-23.359c-.041-3.977-.422-8.063-.14-12.02.6-.93 1.499-.688 2.142-1.426 2.722-3.125 2.296-6.29 7.119-7.932 1.346-.459 3.262-.158 4.404-.835q.064-.04.126-.083"/><path fill="#FAFCF9" d="M59.073 452.501c1.29 1.976 2.754 3.96 3.856 6.045-.375.342-.97.54-1.45.693-.763.24-1.134.111-1.797-.25-1.24-1.65-.71-4.556-.609-6.488M63.252 365.381c.11.09.128.114.276.178 1.09.48 2.445.36 3.522-.052-.99 1.73-3.396 1.505-4.895 2.499-1.416.938-2.11 2.725-3.446 3.676l-.697.627-.573-.12-.285-.573c.56-2.845 4.09-4.481 6.098-6.235"/><path fill="#F9BD19" d="M73.334 357.978c.55.209 1.194.114 1.776.142 2.437.12 2.856 3.095 4.287 4.606q.043.046.088.09c-.308.275-.57.417-.962.553-1.017.356-1.983.373-2.957-.092a3.2 3.2 0 0 1-.539.292c-1.641.69-4.232.103-5.823-.5.151-.181.116-.112.203-.301.99-2.143 2.08-3.39 3.927-4.79"/><path fill="#FAFCF9" d="M96.892 408.162c-.62.264-.725.34-1.376.211a1.9 1.9 0 0 1-.313-.682c-.255-1.26 3.984-14.558 4.81-15.577.796-.985 1.76-1.119 2.934-1.308-.773 2.385-4.736 16.604-6.055 17.356"/><path fill="#7C90AE" d="M80.792 432.957c.317.415.615.743 1.096.966.865.406 9.559 2.856 10.653 3.02.017 1.308.284 3.178-.242 4.38-2.393.602-34.804.805-35.936.087a1.1 1.1 0 0 1-.36-.356c.274.13.545.272.857.267.628-.011.892-.49 1.302-.916.21.22.58.599.877.632 3.669.4 27.905 1.046 29.684-.384-1.275-.097-3.021-1.623-4.014-2.424-1.582-1.28-3.698-3.162-3.917-5.272"/><path fill="#F9BD19" d="m102.947 390.806.628-.022c.925.854 1.39 1.419 1.449 2.727.166 3.668-1.97 7.952-3.181 11.397-.367 1.32-.757 3.88-2.045 4.59-.364.197-.71.186-1.105.061-.682-.214-1.362-.86-1.8-1.397 1.318-.752 5.281-14.971 6.054-17.356"/><path fill="#FAFCF9" d="m85.728 414.04-.436-.362c.056-.612.183-1.16.35-1.75.023-.078.041-.156.064-.234.25-.852.809-1.38 1.569-1.793 2.12-1.146 4.76-.17 6.917.512l15.256 4.846c1.484.479 3.183.71 4.584 1.355.698.32 1.268.788 1.715 1.414.04.262.137.526.032.774-.537.192-1.042.334-1.615.225-.96-.178-1.798-.94-2.75-1.227-1.854-.557-3.81-.807-5.68-1.355-3.685-1.08-13.806-5.341-17.025-4.701-1.491.298-2.177 1.077-2.98 2.296M181.973 454.967l-.4-.039a2.5 2.5 0 0 1-.774-.86c-2.059-3.63-1.62-16.593-.428-20.749 1.192-4.16 2.676-5.678 6.856-6.735 1.024-.259 2.099-.432 3.023-.96q.073-.047.144-.09c-.527 3.301-7.189 4.604-8.034 10.855-.428 3.162 1.151 17.053-.387 18.578M182.218 419.865l-.448-.008c-.628-.326-.96-.905-1.22-1.536-1.743-4.228-1.229-18.996.655-23.466 1.647-3.907 6.043-3.1 9.211-4.436l.174-.075c-.019.064-.035.128-.056.192-1.076 3.329-6.55 3.868-7.671 8.227-1.582 6.145 1.238 16.418-.645 21.102"/><path fill="#1088AD" d="m92.447 368.19.148.158c1.357 1.447 3.045 2.555 4.353 4.044 3.613 4.12 1.524 9.778 2.11 14.69.086.718.169 1.06.816 1.405l.554-.06.127.472c-3.98 1.356-3.628 8.926-5.776 11.71q-.378-3.382-.364-6.786c.037-4.323.92-17.078.044-20.087-.25-.86-1.052-1.475-1.562-2.184-.705-.98-.657-2.224-.45-3.362"/><path fill="#F7553D" d="M67.05 365.507c5.925 2.16 15.153-1.272 20.28 1.288 1.184.59 2.435 2.232 2.995 3.404.36.751.32 1.16.07 1.926-.164.117-.407.35-.586.42-1.23.476-27.69.187-29.836-.144-.568-.087-.888-.293-1.264-.719 1.336-.951 2.03-2.738 3.446-3.676 1.5-.994 3.905-.768 4.895-2.5"/><path fill="#1088AD" d="M94.871 436.826c1.813 2.586 6.655 2.911 9.499 3.485l.048.311c-.437 2.764-2.672 15.319-1.376 17.34.092.144.194.25.317.364-.422.61-.745.874-1.492 1.038-2.228.496-6.917.724-8.88-.478-.205-2.622-.023-5.441-.028-8.083a3.4 3.4 0 0 0 .382-.373c2.827-3.314 1.785-9.563 1.53-13.604"/><path fill="#F7553D" d="M56.026 443.542c.158.122.286.22.478.287 2.706.91 34.101.6 36.06-.362.017 1.144.224 2.922-.214 3.96-.26.613-.336.604-.922.83-.238.403-.499.832-.966.993-3.095 1.075-11.349.192-14.88.223-4.44.042-8.883.548-13.324.18-1.787-.147-3.731-.433-5.322-1.293-.735-.398-1.428-.98-1.62-1.835-.232-1.035.182-2.115.71-2.983"/><path fill="#FAFCF9" d="m56.003 441.054-.373-.05c-.064-.098-.162-.231-.21-.346-.303-.726-.29-1.95-.308-2.752-.118-5.155-.364-60.699.191-61.999.325-.762 1.817-1.04 2.557-1.255.975 4.295.296 15.266.286 20.19l.016 45.563c-.41.426-.674.905-1.302.916-.312.005-.583-.136-.857-.267"/><path fill="#F9BD19" d="m59.073 452.501.249-.417c2.944-.707 6.679-.343 9.709-.304 7.016.09 14.133.507 21.114-.362.81 1.033.378 5.698.29 7.142-1.195 1.214-8.625.788-10.543.804-2.79.023-15.062.615-16.963-.818-1.102-2.085-2.565-4.069-3.856-6.045"/><path fill="#EA7D0A" d="m224.369 390.427.157.042c5.288 1.28 11.59-2.037 15.679 4.208 2.11 3.22 1.608 18.556.754 22.483-.445 2.051-1.48 4.077-3.298 5.224-1.681 1.063-3.772 1.094-5.662.637a6 6 0 0 1-1.004-.345c.047-.008.094-.008.14-.02.619-.144 1.193-.653 1.568-1.151 2.487-3.326 2.053-19.477 1.46-23.769-1.33-9.622-6.835-4.882-9.684-7.209q-.056-.05-.11-.1M231.842 425.192l.161.092c3.568 1.912 7.11.443 8.675 5.363 1.158 3.64 1.465 20.816-.165 23.947-1.002 1.923-3.032 3.39-5.082 4.008-1.286.39-3.796.801-5.008.122-.208-.114-.363-.275-.522-.448.082.003.165.008.248.006.68-.023 1.584-.807 2.01-1.311 3.508-4.164 2.254-23.282 1.68-29.026-.054-.017-.112-.025-.163-.047-.827-.379-1.536-1.88-1.834-2.706"/><path fill="#FAFCF9" d="M66.097 396.53c.264.257.674.313 1.027.36 3.06.412 14.716.746 16.921-.868-.076 4.809 1.299 11.633-1.106 15.944l-.392.963c-.175.081-.351.154-.536.212-2.258.712-14.545.554-16.438-.431-.098-2.884-1.177-14.245.524-16.18"/><path fill="#F7553D" d="M68.827 400.536c2.413.693 2.742 2.922 4.699 3.866 1.727.832 3.503-2.937 5.1-3.63.745 0 .815-.005 1.41.432.227.673.27 1.227-.034 1.892-.3.657-.705 1.027-1.376 1.27-.073.253-.17.495-.283.734-.691 1.459-2.488 3.997-4.018 4.545a4 4 0 0 1-.558-.228c-2.084-1.046-4.684-4.409-5.381-6.571-.292-.907.035-1.517.441-2.31"/><path fill="#F9BD19" d="M85.728 414.04c.804-1.22 1.49-1.998 2.981-2.296 3.219-.64 13.34 3.62 17.024 4.7 1.871.549 3.827.8 5.68 1.356.953.287 1.79 1.05 2.75 1.227.574.109 1.079-.033 1.616-.225-.322 3.54-5.077 17.498-7.359 19.655-3.193.468-23.952-5.886-26.895-7.838-.825-1.085-.646-2.335-.466-3.61.114-.806.294-1.602.48-2.393 5.244-.481 13.66 4.801 19.673 5.297.77.064 1.4.13 1.994-.385-.517-3.214-18.196-4.558-20.578-8.152.068-.144.129-.292.196-.44.6-1.31.825-2.713 1.111-4.118.483-.454.636-.426 1.271-.526.664.74 14.899 5.118 16.443 5.193.295.017.528-.025.808-.109.287.2.558.39.905.47.48.115.537.129.946-.138l.017-.59c-2.024-3.816-14.416-3.65-18.37-6.839z"/><path fill="#FAFCF9" d="M83.935 416.818c.483-.454.636-.426 1.271-.526.664.74 14.899 5.118 16.443 5.193.295.017.528-.025.808-.109-.17.758-.156.916-.721 1.425a2.2 2.2 0 0 1-1.134.02c-2.162-.465-14.827-3.972-16.097-5.127-.191-.172-.42-.648-.57-.876"/><path fill="#8FBFE2" d="M57.86 374.652c4.23.838 30.603 1.141 34.264-.039l.036 22.316c.015 3.095.484 7.033-.052 10.053-1.421.504-4.074.529-5.467-.092-.122-.056-.163-.08-.27-.14.112-3.013.933-8.867-.626-11.447-2.867-2.067-19.101.396-22.255-1.007-.705 6.476-1.096 14.205.027 20.64 1.986 1.255 14.809 1.289 17.519.604.438-.111.853-.309 1.253-.515l-.048.228c-.953 4.353-5.603 12.127-2.977 16.363.33.531.903 1.2 1.528 1.341.22 2.11 2.335 3.991 3.917 5.272.993.801 2.739 2.327 4.014 2.424-1.779 1.43-26.015.785-29.684.384-.296-.033-.666-.412-.877-.632l-.016-45.564c.01-4.923.69-15.894-.286-20.189"/><path fill="#FAFCF9" d="M85.025 377.739c2.217.442 3.163 2.802 5.133 3.334-.316.687-.758 1.283-1.228 1.873-.635.796-1.62 1.926-2.691 2.04-.278.451-.304.593-.803.81-1.327-.612-2.977-2.73-3.914-3.913 1.24-.924 2.802-2.764 3.503-4.144"/><path fill="#F9BD19" d="M190.59 390.344c1.964.665 31.73.907 33.779.083q.054.05.11.1c2.849 2.327 8.355-2.413 9.684 7.209.593 4.292 1.027 20.443-1.46 23.769-.375.498-.949 1.007-1.568 1.152-.046.01-.093.01-.14.02a4.3 4.3 0 0 1-1.114.386c-4.11.76-13.428.273-17.983.256-7.759-.022-18.088.41-25.58-.331a3.64 3.64 0 0 1-1.818-.654 8 8 0 0 1-.472-.198c-1.074-.487-1.413-1.23-1.81-2.27 1.883-4.685-.937-14.958.645-21.103 1.121-4.359 6.595-4.898 7.671-8.227q.029-.096.056-.192"/><path fill="#FAFCF9" d="M186.836 396.784c.256.117.506.242.761.362.411.19.758.342 1.083.673.768.785 1.273 2.04 1.26 3.126-.004.309-.232.426-.442.635-.562.089-.944.016-1.492-.12-.212.164-.462.37-.72.454-.686.225-1.003.114-1.557-.24-.285-.515-.436-.94-.445-1.533-.024-1.564.508-2.263 1.552-3.357M209.996 397.547c.197.15 5.44 1.873 5.964 1.99 1.313 2.844 1.967 5.26 1.275 8.433-.505 2.315-1.538 5.018-3.638 6.334-1.25.782-2.474 1.041-3.911.73-.425.414-.91.523-1.495.531-1.193.017-2.135-.415-2.975-1.252-1.647-1.645-2.669-4.337-2.663-6.652.009-3.652 1.939-6.26 4.818-8.294.836-.59 1.796-.985 2.525-1.717q.05-.052.1-.103"/><path fill="#F9BD19" d="M212.495 401.396c1.465.236 1.54 1.725 2.583 2.535-.355 2.397-1.287 5.628-3.266 7.209-.739.59-1.633.963-2.584.838-.343.025-.708.052-1.051.008-.76-.1-1.14-.757-1.522-1.339a.87.87 0 0 1-.33-.303c-.493-.699-.46-1.806-.34-2.62.225-1.533.973-3.445 2.23-4.41l.211.158c-.053.871-.077 1.706-.018 2.58l.396.217c1.262-.406 2.795-3.665 3.691-4.873M190.394 425.535c2.094.707 39.561.448 41.448-.343.298.827 1.007 2.327 1.834 2.706.051.022.109.03.163.047.574 5.744 1.828 24.862-1.68 29.026-.426.504-1.33 1.288-2.01 1.31-.083.003-.166-.002-.248-.005a3.3 3.3 0 0 1-.507.3c-2.317 1.07-41.51.78-44.11-.308-1.567-.657-2.676-1.723-3.311-3.301 1.538-1.525-.04-15.416.387-18.578.845-6.251 7.507-7.554 8.034-10.854"/><path fill="#FAFCF9" d="M186.61 432.715c.787.49 1.563.398 2.328 1.12.55.517 1.038 1.246.99 2.034-.047.779-.296.985-.851 1.436l-.793-.112c-.381.404-.883.721-1.447.777-.669.067-.765-.1-1.28-.493-.238-.5-.392-.946-.414-1.505-.057-1.487.475-2.205 1.467-3.257M209.854 433.414c1.43.72 2.94.787 4.514.67.609 1.01 1.82 1.587 2.473 2.67 1.13 1.876.94 4.2.444 6.248-.622 2.572-2.1 5.605-4.448 7.01-.857.516-1.582.744-2.569.496-.706.39-1.313.607-2.127.652-1.069.06-1.992-.287-2.769-1.022-1.705-1.614-2.425-4.436-2.435-6.713-.014-3.462.958-6.156 3.983-7.971.969-.579 2.014-1.074 2.802-1.898z"/><path fill="#F9BD19" d="M212.5 436.55c.8.218 1.354.563 1.761 1.306.6 1.102.487 2.5.154 3.662-.64 2.244-2.25 4.996-4.393 6.098-.746.385-1.31.404-2.113.165-.747-.51-.97-.858-1.256-1.704q-.043-.048-.084-.103c-.614-.784-.66-1.63-.531-2.58.224-1.65.98-3.033 2.298-4.04.338.378-.2 1.886-.01 2.59l.55-.128c1.637-1.283 2.67-3.454 3.624-5.266"/><path fill="#062782" d="M118.8 377.087c-1.955-.86-3.334-2.78-4.107-4.703-.628-1.567-.754-3.14-.836-4.807-.228-4.6-.07-9.257-.065-13.866l.028-24.406v-19.451c-.023-4.197-.22-8.467.032-12.656.097-1.608.415-3.292 1.08-4.767.869-1.929 2.281-3.337 4.274-4.066 1.794-.657 3.672-.788 5.563-.844 6.374-.18 12.81.095 19.19.142q15.966.112 31.933.009c5.367-.025 10.744.01 16.11-.106 3.283-.07 6.884-.615 10.123-.137 2.913.429 4.128 3.087 6.541 4.18q.056.024.113.048c1.395 1.08 3.714.66 5.186 1.717 1.7 1.222 2.833 4.51 4.622 5.213.149 1.559.418 3.12.528 4.679.68 4.027.333 7.935.076 11.987 1.742.855 4.54 1.147 6.384.445.263-.1.44-.239.643-.428.298.473.298.67.861.799 3.14.718 7.512.155 10.767.07-2.007.945-9.308.817-11.44.069.15 3.231.35 6.755-.014 9.975l.132.161c-.693.657-1.262 1.186-1.633 2.085l.072.54c.501.275.764.317 1.327.217l-.074 16.318c-.014 3.125.18 6.398-.262 9.496 1.45.543 3.01.454 4.528.275-1.321.602-3.093.677-4.496.287q-.066 8.528.016 17.053c.028 3.404.294 6.96-.06 10.35-.159 1.526-.449 3.31-1.313 4.61-.728.423-1.422.59-2.255.645-5.328.365-10.81.053-16.154.067-4.983.017-10.34.46-15.277-.15-.815-.1-1.381-.27-2.01-.813-.682.662-1.79 1.364-2.778 1.32-.625-.029-1.147-.226-1.665-.557-.451-.293-.876-.29-1.398-.304-.151.103-.302.195-.47.27-1.643.727-36.474-.37-40.957-.746-1.959-.164-4.487-.348-6.3-1.107-2.561-1.075-4.113-2.956-5.185-5.455l-.805-.312c-.178.1-.337.18-.53.248-2.153.745-5.643.253-7.603-.752-1.32-.679-1.987-1.439-2.443-2.842"/><path fill="#1088AD" d="M118.8 377.087c.877-.136 2.077.407 3.015.515 1.996.229 3.837.21 5.831-.058a18.7 18.7 0 0 0 1.853 2.686l-.124.203c-.178.1-.337.18-.53.248-2.153.745-5.643.253-7.603-.752-1.32-.679-1.987-1.439-2.443-2.842"/><path fill="#2D7CB1" d="M219.115 303.266c.68 4.027.333 7.935.076 11.987 1.742.855 4.54 1.147 6.384.445.263-.1.44-.239.643-.428.298.473.298.67.861.799 3.14.718 7.512.155 10.767.07-2.007.945-9.308.817-11.44.069.15 3.231.35 6.755-.014 9.975l.132.161c-.693.657-1.262 1.186-1.633 2.085l.072.54c.501.275.764.317 1.327.217l-.074 16.318c-.014 3.125.18 6.398-.262 9.496 1.45.543 3.01.454 4.528.275-1.321.602-3.093.677-4.496.287q-.086.043-.174.08c-2.142.908-4.391-.414-6.276.31-1.01 2.878 1.071 11.656-.405 15.792-.302-11.506-.03-23.073-.04-34.584-.01-11.28-.315-22.622.024-33.894M130.18 380.745c1.264.62 2.524 1.394 3.952 1.516 6.432.551 14.98-.075 21.676-.07 5.99.006 45.918.883 48.765-.1.185-.063.365-.141.541-.225-.436 1.066-1.467 1.475-2.47 1.898-2.841 1.2-12.381 2.733-13.711 3.56-.682.662-1.79 1.364-2.778 1.32-.625-.029-1.147-.226-1.665-.557-.451-.293-.876-.29-1.398-.304-.151.103-.302.195-.47.27-1.643.727-36.474-.37-40.957-.746-1.959-.164-4.487-.348-6.3-1.107-2.561-1.075-4.113-2.956-5.185-5.455"/><path fill="#1088AD" d="M219.13 371.744c1.477-4.136-.604-12.914.406-15.792 1.885-.724 4.134.598 6.276-.31q.088-.037.174-.08-.066 8.528.016 17.053c.028 3.404.294 6.96-.06 10.35-.159 1.526-.449 3.31-1.313 4.61-.728.423-1.422.59-2.255.645-5.328.365-10.81.053-16.154.067-4.983.017-10.34.46-15.277-.15-.815-.1-1.381-.27-2.01-.813 1.33-.827 10.87-2.36 13.712-3.56 1.002-.423 2.033-.832 2.47-1.898.762.237 1.58.412 2.377.479 2.748.236 5.533-.515 7.666-2.29 2.627-2.188 3.674-5.008 3.973-8.311"/><path fill="#2D7CB1" d="M209.971 294.515c1.587.507 2.922.997 4.186 2.127 2.279 2.029 2.423 5.34 2.558 8.202.196 4.147-.067 8.386-.078 12.544l-.028 27.34.126 17.216c.034 3.64.292 7.515-.205 11.122-.24 1.74-1.137 3.342-2.318 4.623-1.744 1.895-4.726 2.176-7.178 2.251-11.118.334-22.328-.161-33.46-.055-7.898.075-15.778.192-23.676.108-3.109-.03-6.361.136-9.45-.164-.731-.072-1.167-.228-1.707-.738-.221.165-.448.32-.697.443-1.346.654-3.355.47-4.703-.078-.638-.259-1.017-.423-1.273-1.077.678-.515 1.504-.57 2.331-.624 6.544-.42 13.366-.03 19.934-.027 10.984.002 21.987-.187 32.966.172 5.71.19 14.977 1.358 19.413-2.894 1.6-1.534 2.572-3.457 2.933-5.634 1.206-7.272.216-15.343.188-22.733-.064-17.356-.357-34.773.138-52.124"/><path fill="#FAFCF9" d="M121.463 289.648c.893.634 3.038.548 4.156.579 6.089.164 12.288-.215 18.394-.218 16.32-.008 32.617-.016 48.933-.27 4.036-.064 9.53-.587 12.617 2.516 1.365 1.373 1.81 3.777 2.009 5.648.81 7.628.052 15.789.004 23.487q-.122 20.73.128 41.456c.026 3.699.146 7.615-2.68 10.406-.773.763-1.461 1.2-2.543 1.205-1.43.724-2.569.908-4.154.98-4.265.195-8.593-.086-12.867-.106l-26.145-.01-22.912.083c-4.36.03-8.846.286-13.191-.003-1.853-.125-4.067-.468-5.333-1.962-.92-1.089-1.55-2.441-1.707-3.86-.501-4.568-.128-9.452-.118-14.061l.001-26.438-.026-21.695c-.018-3.576-.388-7.428-.006-10.977.396-3.682 2.862-4.71 5.44-6.76"/><path fill="#062782" d="M147.87 358.657c2.904 2.093 9.99-1.15 12.949.793.448.295.438.493.539.98l-.327.337-.718-.023c-1.276.975-4.024.788-5.582.819-1.912.039-5.657.295-7.108-1.1-.25-.82-.06-1.04.248-1.806M147.87 341.465c3.027 1.534 10.229-.946 12.74.632.52.328.533.406.675.963l-.412.562c-.841.212-.978.17-1.808-.106-.396.268-.744.432-1.221.476-2.386.231-8.364.888-10.162-.61-.22-.829-.065-1.12.189-1.917M147.832 323.455c2.637 1.239 7.428.256 10.373.326 1.257.03 2.284-.04 3.194.918l-.108.454-.558.167c-.365.409-.816.61-1.352.71-2.785.531-9.104 1.13-11.483-.485-.46-.882-.266-1.14-.066-2.09M147.853 305.977c1.784 1.063 7.752.147 10.083.206.975.027 2.64 0 3.331.798.132.15.045.476.031.674l-.568.292c-.668.707-1.465.702-2.376.793-2.582.262-8.45.81-10.558-.913-.32-.793-.159-1.052.057-1.85M164.57 358.654c3.585 2.168 24.747-1.074 28.62.73.603.28.69.425.914 1.001l-.459.504c-.486.1-.813.092-1.303.006l-.16-.03c-1.492.74-20.055.592-22.854.586-1.292-.002-4.236.109-5.158-.823-.223-.841.073-1.183.4-1.974M187.914 323.221c1.447.732 2.838.36 4.383.53.65.072 1.16.25 1.587.765.076.66.08.679-.284 1.233-2.905 1.19-20.82.654-24.401-.109-.671.529-1.299.648-2.134.598-1.049-.064-2.308-.314-3.031-1.13.963-3.248 20.007.643 23.88-1.887M164.62 306.01c2.954 1.815 23.014-1.158 28.352.507.648.203.793.345 1.111.92l-.233.454-.552.106c-.62.549-1.262.574-2.054.618-3.717.2-25.481.668-27.06-.757-.154-.788.12-1.122.436-1.848M164.57 341.337c2.041 1.255 22.457-.12 26.877.34 1.12.117 1.852.211 2.575 1.105l-.1.428c-.66.412-.688.404-1.464.3a3.4 3.4 0 0 1-1.103.421c-2.087.387-25.33.46-26.473-.033-.193-.084-.435-.32-.611-.448-.23-.885.014-1.258.3-2.113M128.72 355.203c2.154 1.275 5.608.008 7.856.145.736.044 1.359.431 1.817.993 1.43 1.76 1.13 5.517.909 7.654-.143 1.39-.232 2.917-1.382 3.86-.68.173-1.029.137-1.68-.125-1.655.927-7.6.574-9.409-.039-.396-.133-.605-.28-.77-.665-.904-2.096-1.155-8.057-.125-10.147.477-.969 1.833-1.292 2.784-1.676"/><path fill="#0CD0F1" d="m136.237 357.199.546.3c.627 1.907.74 5.291-.194 7.122-.44.863-1.257 1.434-2.182 1.682-1.33.356-4.206-.154-5.406-.805-.305.117-.54.086-.86.07-.053-.064-.11-.125-.159-.192-.914-1.225-.099-6.66.064-8.188.343.164.693.322 1.056.44 1.994.628 5.264.503 7.135-.43"/><path fill="#062782" d="M127.046 337.524c.044.04.082.087.13.117 1.495.99 5.86.042 7.584-.184 1.056-.136 2.19-.256 3.06.493 1.06.913 1.304 2.664 1.412 3.966.157 1.876.542 6.09-.704 7.568l-.617.047c-.07.089-.11.142-.192.228-.871.905-3.628.727-4.834.743-1.291.014-5.405.22-6.314-.729-1.218-1.272-1.131-3.888-1.125-5.564.008-2.276-.118-4.981 1.6-6.685"/><path fill="#0CD0F1" d="m136.38 339.436.477.546q.193 1.92.166 3.849t-.274 3.84c-.613.377-1.225.46-1.926.55-1.53.197-4.556.436-5.828-.535-.335.053-.515-.025-.825-.15-.714-2.13-.178-5.817-.143-8.089.304.2.631.393.983.496 1.884.554 5.627.518 7.37-.507"/><path fill="#062782" d="M126.718 319.411c2.314 1.76 8.662-1.169 11.149.76.93.718 1.243 2.093 1.35 3.206.18 1.829.466 7.109-.643 8.47h-.665c-.213.256-.426.45-.734.592-1.761.796-8.777.752-10.535-.167-.624-.325-.86-.913-1.032-1.567-.794-3.028-.367-8.572 1.11-11.294"/><path fill="#F7553D" d="M136.38 321.348c.235.228.33.29.418.601.43 1.531.464 6.814-.28 8.108-.729.476-1.498.615-2.354.693-1.558.142-4.498.314-5.723-.693l-.427-.042q-.061-.09-.118-.186c-.706-1.217-.271-5.828.167-7.226.088-.28.238-.612.513-.762.988-.537 5.416.82 7.63-.393z"/><path fill="#062782" d="M136.155 300.677c.955.393 2.377.81 2.788 1.835 1.096 2.727.466 8.945-.658 11.603-1.306.72-3.46.626-4.928.581-1.448-.044-3.6.056-4.638-1.049-.278.192-.66.501-.983.596-.676.197-.929-.02-1.467-.368-1.454-2.343-1.057-7.239-.595-9.947.171-1.005.398-2.307 1.308-2.92.705-.475 2.74.26 3.553.418 1.362.267 4.298.212 5.464-.629q.079-.06.156-.12"/><path fill="#0CD0F1" d="M127.82 302.951c.427.295.973.487 1.482.585 2.164.414 5.583.512 7.428-.713.214 2.013.822 7.175-.211 8.837-.347.34-.636.529-1.11.662-2.082.585-5.778.332-7.614-.762-.714-2.433-.293-6.107.025-8.609"/><path fill="#062782" d="M90.505 212.922c.022-8.418-2.003-30.704 1.478-37.32 1.059-2.012 3.278-3.776 5.443-4.446 1.2-.372 2.582-.42 3.833-.458 9.544-.286 19.226.103 28.79.065l23.589-.011c5.003.013 10.891-.547 15.74.645 3.807.936 5.42 5.1 8.77 6.876 1.194 1.029 2.6 2.183 3.484 3.492 1.206 5.661.718 11.837.717 17.613l-.004 24.353.01 12.589c.025 2.51.222 5.072.015 7.574-.133 1.607-.53 3.025-1.404 4.393-1.405 2.2-3.501 3.281-6.014 3.792-4.115.837-9.021.429-13.186.036-1.235 2.189-2.513 4.363-3.697 6.578-1.898 3.25-7.047 14.03-10.26 14.907-.373.102-.754.173-1.137.231-.74-.24-1.631-.47-2.2-1.028-2.192-2.148-.844-16.466-.81-20.13-9.744.114-19.507-.1-29.254-.097-5.489.002-11.55.547-16.972-.134-1.46 2.676-3.058 5.263-5.023 7.601-5.588 6.65-13.289 11.126-21.992 11.861-9.008.76-19.028-.6-26.106-6.648-7.226-6.173-12.016-15.188-12.749-24.672q-.031-.422-.053-.844-.02-.423-.032-.845-.01-.423-.011-.847 0-.423.01-.845.01-.423.03-.846.02-.422.05-.844t.072-.843.092-.841.113-.839q.062-.418.134-.835.071-.417.153-.832t.174-.828q.093-.413.195-.823t.215-.819q.112-.407.234-.812t.255-.807.274-.8.293-.794.314-.786q.16-.391.332-.778.17-.387.351-.77.18-.382.37-.76t.388-.752q.2-.373.407-.742.209-.368.425-.731.217-.363.443-.721t.46-.71.478-.698.495-.687.511-.674.528-.661.543-.648q.29-.33.587-.654t.602-.64.618-.625q.312-.308.632-.61.32-.3.648-.593.327-.293.661-.578t.676-.562.688-.545.702-.529.715-.51.726-.495.74-.475q.371-.234.749-.458t.76-.44q.384-.214.772-.42t.781-.402q.393-.196.791-.383.398-.186.8-.363t.808-.344.817-.324q.41-.157.824-.304t.831-.284.838-.264.844-.243.85-.223.855-.202.86-.18q.43-.086.864-.161.433-.075.867-.14.435-.064.87-.117.437-.054.874-.097t.875-.076c9.79-.68 18.882 3.311 26.171 9.641"/><path fill="#FAFCF9" d="M62.523 237.924c1.161.02 2.455-.064 3.596.115.783.123 1.084.384 1.557.983.078.818-.107 1.317-.415 2.049-.647.272-1.3.521-2.003.594-.576.06-1.244-.116-1.677-.494-.978-.853-.966-2.046-1.058-3.247"/><path fill="#F9BD19" d="m56.655 221.124 12.036.094c1.628 1.982 4.423 4.723 4.234 7.475-1.805-.304-1.602-1.964-2.67-3.034-1.643-1.648-8.964-.775-11.297-.778-.72-1.011-2.145-2.54-2.303-3.757"/><path fill="#FAFCF9" d="M67.56 226.725c.066-.007.132-.021.2-.021.585-.002 1.327.43 1.707.867.81.93 1.003 2.366.881 3.552-.167 1.63-.957 3.255-2.269 4.267-1.448 1.117-2.582 1.107-4.335.862l-2.449-1.622c-1.423-2.703-1.488-4.81-1.456-7.8q3.86.025 7.72-.105M65.613 215.28c5.445-.17 10.001 1.768 14.534 4.593-1.789 2.169-3.767 4.137-5.748 6.127q-1.245-1.737-2.46-3.495l-2.41-3.047q-8.163-.11-16.328-.095c3.656-2.715 7.945-3.765 12.412-4.084"/><path fill="#FAFCF9" d="M44.677 262.449q-.224-.188-.444-.38c-6.154-5.36-9.815-13.584-10.34-21.657q-.029-.403-.047-.807-.02-.403-.028-.807t-.007-.808.012-.808.034-.808.052-.806q.032-.402.074-.804t.093-.803q.051-.4.113-.8t.133-.797q.072-.397.153-.793t.173-.79q.091-.393.192-.784.101-.392.212-.78.11-.389.23-.774.121-.386.251-.768.13-.383.27-.762.14-.38.288-.755.15-.375.308-.747t.325-.74.344-.73q.177-.364.362-.723.186-.359.38-.713.195-.354.398-.703.203-.35.416-.693.211-.344.432-.683.22-.339.449-.671.229-.334.466-.66.237-.328.482-.65.245-.32.498-.635t.514-.624.53-.61q.267-.301.541-.596.275-.294.557-.582.281-.288.57-.568t.585-.554q.295-.273.598-.538.303-.266.611-.525.31-.258.625-.508t.636-.493.649-.477.66-.46.672-.445.682-.427.693-.41q.35-.202.703-.394.354-.192.712-.375.359-.183.722-.357.363-.175.73-.34t.738-.321.746-.303.754-.284.76-.266.766-.246.773-.227q.388-.11.778-.208.39-.1.783-.189.392-.09.787-.17.395-.079.791-.149.397-.07.795-.13t.798-.11q.399-.05.8-.09.4-.04.802-.07.401-.03.803-.05c7.831-.426 17.64 2.536 23.509 7.904 1.725 1.578 2.332 2.823 2.434 5.13-6.66-6.652-14.114-11.307-23.804-11.317-8.203-.01-16.393 3.17-22.21 8.994-6.228 6.235-9.126 14.437-9.098 23.146.017 5.18 2.008 12.166 4.927 16.485 1.412 2.09 3.266 4.086 4.304 6.393"/><path fill="#EA7D0A" d="M176.97 180.41c1.302.373 2.016 1.586 2.69 2.676.775 4.154.563 7.865.543 12.046l-.095 16.681c.018 9.943.708 20.042.254 29.96-.07 1.525-.281 3.077-.833 4.509-.486 1.26-1.342 2.555-2.64 3.083-.847.344-3.411.965-4.208.603.071-.889 2.23-3.172 2.752-4.297.866-1.861 1.193-3.86 1.318-5.89.316-5.13-.044-10.393-.074-15.538l-.033-29.691c0-3.837-.499-10.722.326-14.142"/><path fill="#F89208" d="M176.97 180.41c1.302.373 2.016 1.586 2.69 2.676-.055.626-.146 1.25-.221 1.874l-.254.16-.578-.777a7 7 0 0 0-.943.045c-.844-1.024-.755-2.725-.694-3.978"/><path fill="#FAFCF9" d="m52.772 219.601.203.021c1.864 1.516 3.57 4.84 4.957 6.908-.045 1.9-.105 4.196.5 6.01l.06.173c.606 1.804 2.882 3.168 3.038 4.992.204 2.389-7.604 1.996-10.16 5.217-1.78 2.243-1.962 6.067-1.687 8.818l-.001 3.51q-.933-1.391-1.83-2.806c-3.695-5.896-5.811-12.82-4.19-19.756 1.272-5.44 4.339-10.122 9.11-13.087M81.688 221.153c2.507 2.331 4.72 5.056 6.323 8.09 2.381 4.507 3.181 9.733 1.65 14.652-1.147 3.68-5.516 10.79-8.963 12.484-.368.18-.369.147-.748.012l-.055-1.102c.045-3.375.548-9.964-1.843-12.6-1.575-1.736-3.759-2.406-5.897-3.15-1.106-.385-2.563-.763-3.354-1.66.13-1.101.925-2.006 1.502-2.92 1.021-1.616 1.972-3.338 3.14-4.852 2.43-3.153 5.53-6.025 8.245-8.954"/><path fill="#F7553D" d="M60.603 241.179c1.438-.074 2.839 2.403 4.739 2.358 1.614-.038 3.026-1.484 4.022-2.598 2.352.36 4.42.72 6.154 2.504 3.269 3.364 2.414 10.324 2.364 14.646-1.255.668-2.497 1.196-3.824 1.695.072-3.08.695-6.626-.209-9.612-.203-.672-.306-.702-.896-1.009l-.383.25c-1.192 2.12-.542 8.613-.485 11.29-4.675 1.692-10.806.707-15.38-.79.31-2.14.455-4.368.302-6.529-.084-1.194-.207-2.47-1.141-3.282l-.459.284c-1.115 2.35-.617 5.942-.57 8.506l-3.034-2.037c-.17-3.9-.966-9.594 1.679-12.81 1.785-2.172 4.486-2.613 7.12-2.866"/><path fill="#0CD0F1" d="M44.677 262.449c-1.038-2.307-2.892-4.304-4.304-6.393-2.92-4.32-4.91-11.306-4.927-16.485-.028-8.71 2.87-16.91 9.097-23.146 5.818-5.824 14.008-9.003 22.21-8.994 9.69.01 17.145 4.665 23.805 11.317q-.128 5.104-.068 10.21c-4.38-7.186-9.712-13.066-18.172-15.128q-.307-.074-.617-.14t-.62-.126q-.312-.06-.624-.11-.313-.052-.626-.096-.314-.044-.628-.08-.315-.036-.63-.065t-.631-.05-.633-.034-.632-.019-.634-.003-.633.011-.632.027-.632.043-.63.057q-.316.033-.63.073t-.627.088q-.312.048-.624.104t-.622.118-.62.133q-.308.07-.615.149t-.612.163-.607.178-.604.193-.598.207q-.298.107-.593.222-.295.114-.588.236-.292.12-.581.25-.29.128-.576.264-.286.135-.568.278-.283.142-.563.291-.279.15-.554.306-.276.155-.548.318-.261.161-.52.329-.257.167-.511.341t-.504.354q-.25.18-.494.366-.245.186-.485.378t-.476.39-.467.402-.456.412-.446.424-.435.435-.425.445-.414.455-.402.466-.391.475-.38.484-.366.494-.355.503q-.175.253-.343.51-.168.258-.33.52-.161.262-.317.527-.155.266-.304.535-.149.27-.29.542-.143.273-.278.55-.135.276-.264.555-.128.28-.25.562t-.237.568-.222.574-.208.579q-.1.29-.194.584-.094.293-.18.588t-.165.593-.15.596c-1.353 5.738-.616 11.048 1.768 16.373.683 1.527 1.804 3.263 2.222 4.86 2.193 2.56 4.574 4.867 7.48 6.614q.265.156.534.305.268.15.54.292.273.143.548.279.276.136.555.265.278.13.56.251.282.123.567.238t.572.224.578.21.582.196.588.18q.294.088.591.168t.595.152q.299.073.599.138t.602.123.605.109.607.094.61.078q.305.036.611.064t.612.05.614.033q.307.014.614.02.308.005.615.004.307-.002.614-.011.307-.01.614-.026.307-.017.614-.041.306-.024.611-.056.306-.032.61-.07.306-.04.61-.086.303-.047.605-.1.303-.055.604-.116t.6-.13.598-.145c8.442-2.122 14.031-7.653 18.409-14.918l.552-1.195c.092.018 3.55 3.64 4.331 4.283q-.158.368-.325.732t-.343.723-.36.715q-.186.355-.38.706-.193.35-.395.696-.202.345-.413.686-.21.34-.43.676-.218.335-.445.664-.228.33-.463.654t-.478.642-.495.63-.51.617q-.258.306-.524.605-.266.3-.54.592-.273.292-.554.578-.28.285-.568.564t-.582.55-.595.535-.608.52q-.308.257-.621.506-.314.25-.634.49-.32.241-.645.474t-.657.458q-.33.225-.668.442-.336.216-.678.425-.342.208-.689.408t-.699.39q-.352.192-.708.374-.356.183-.717.356-.361.174-.726.338t-.734.32-.742.302q-.36.144-.725.28-.365.134-.732.26-.368.126-.739.243-.37.117-.744.224-.373.108-.75.206-.375.098-.754.187-.378.09-.759.169-.38.08-.762.15-.383.07-.767.13-.383.06-.769.112-.385.05-.772.092-.386.041-.773.073-.388.032-.776.054-.388.023-.776.035-.389.013-.777.016-.39.003-.778-.004-.388-.006-.777-.023-.388-.016-.776-.042t-.775-.061-.773-.08q-.386-.046-.77-.1-.385-.055-.769-.12-.383-.063-.765-.137-.381-.074-.761-.157t-.757-.175q-.378-.093-.753-.194t-.747-.213-.743-.232-.736-.25q-.366-.129-.73-.267-.363-.139-.722-.286-.36-.148-.716-.304c-2.79-1.231-6.635-2.998-8.442-5.566"/><path fill="#FAFCF9" d="M90.385 247.973c.43 1.295-.19 2.745-.777 3.904-2.952 5.819-9.967 10.274-16.016 12.186-6.433 2.033-13.535 1.626-19.54-1.544-2.659-1.404-7.31-4.787-8.317-7.755-.128-.378-.18-.783-.218-1.179 2.193 2.56 4.574 4.867 7.48 6.614q.265.156.534.305.268.15.54.292.273.143.548.279.276.136.555.265.278.13.56.251.282.123.567.238t.572.224.578.21.582.196.588.18q.294.088.591.168t.595.152q.299.073.599.138t.602.123.605.109.607.094.61.078q.305.036.611.064t.612.05.614.033q.307.014.614.02.308.005.615.004.307-.002.614-.011.307-.01.614-.026.307-.017.614-.041.306-.024.611-.056.306-.032.61-.07.306-.04.61-.086.303-.047.605-.1.303-.055.604-.116t.6-.13.598-.145c8.442-2.122 14.031-7.653 18.409-14.918M146.57 250.857c-.84-.5-1.679-.769-2.652-.891-4.064-.51-8.584-.03-12.685.044l-21.361.207c-3.387.025-7.022.305-10.366-.276-2.157-.376-4.08-1.167-5.337-3.038-.803-1.193-1.071-2.502-1.168-3.915-.314-4.6-.056-9.317-.052-13.932l.008-26.59c-.002-4.852-.71-19.626.137-23.49.364-1.66 1.796-3.462 3.207-4.366 1.391-.891 2.9-1.13 4.516-1.245 3.69-.262 7.45-.054 11.15-.048l21.315.013 18.754-.017c5.088-.047 11.236-.81 16.181.4 2.588.632 4.342 2.82 5.64 5.01 1.413 5.282.673 11.749.664 17.223l-.02 22.203.005 13.56c.017 2.96.198 6.02-.082 8.97q-.071.713-.22 1.414-.147.702-.37 1.384-.222.68-.517 1.334t-.66 1.271c-1.033 1.743-2.633 2.701-4.567 3.185-2.38.595-4.852.29-7.238.773-3.103 3.067-9.644 14.572-11.277 18.723-.667 1.097-1.038 1.932-2.273 2.459l-.417.054-.375-.421c-.502-4.135-1.108-16.307.06-19.998"/><path fill="#062782" d="M156.075 214.99c2.15-.349 4.948-.295 6.93.658.703.338.948.586 1.215 1.3l-.293.342c-.838.482-1.78.352-2.71.32-1.175-.044-2.333-.02-3.507.01-1.683.043-4.483.362-5.754-.845l.16-.541c1.01-1.189 2.525-1.114 3.959-1.245M133.66 215.026c2.866-.096 6.795-.78 9.43.536.61.305.79.437.987 1.074a2.6 2.6 0 0 1-.331.396c-.811.772-2.528.596-3.596.61-2.796.073-6.168.493-8.829-.433-.698-.243-1.104-.425-1.443-1.08l.401-.543c1.069-.622 2.186-.553 3.38-.56M132.93 203.38c4.518-.61 9.666.026 14.248.04 4.721.015 9.587-.42 14.292-.104.884.06 2.093.098 2.701.839.134.162.024.506-.001.713-.643.616-.983.594-1.84.762-4.14.178-29.468.909-32.267-.383-.21-.097-.2-.253-.279-.46.134-.242.28-.471.472-.673.72-.758 1.706-.706 2.675-.734"/><path fill="#8FBFE2" d="M146.57 250.857c3.188-1.044 6.619-.703 9.928-.63-1.947 4.499-3.81 9.05-5.872 13.496-1.062 2.29-2.87 4.846-3.475 7.245l.151.254-.417.054-.375-.421c-.502-4.135-1.108-16.307.06-19.998"/><path fill="#062782" d="M131.636 189.676c3.735-.122 29.58-.421 31.379.331.8.334.981.727 1.278 1.484-.095.562-.079.932-.5 1.35-1.073 1.061-4.198.652-5.638.638-4.434.066-25.033.674-27.49-.516-.45-.218-.517-.573-.637-1.016-.121-.445-.112-.906.137-1.309.443-.717.679-.76 1.471-.962M110.56 227.554c6.997-.332 14.064.088 21.072.079 4.796-.006 18.706-.734 22.363.18.494.422.963.695 1.063 1.395.11.764-.372 1.434-.77 2.035-1.502.42-3.245.459-4.803.506-7.693.231-15.499-.184-23.21-.175-5.153.007-13.668.516-18.488-.098-.73-.093-1.435-.518-1.832-1.148-.364-.579-.345-.862-.208-1.48 1.065-1.226 3.303-1.16 4.812-1.294M115.226 188.84c2.199-.024 5.072-.297 7.149.429.432.472.49 1.073.597 1.687.54 3.097 1.103 24.69-.346 26.757-2.229.599-4.949.415-7.262.49-3.07.037-6.065-.006-9.105-.475q-.298-2.005-.461-4.025c-.283-3.74-1.059-22.167.984-24.424.518-.574 7.13-.368 8.444-.44"/><path fill="#F9BD19" d="M112.856 191.345c2.72.015 5.446-.076 8.166-.127v24.527H116.2q-4.106-.01-8.211.096v-24.403q2.436.048 4.868-.093"/></svg>