<svg xmlns="http://www.w3.org/2000/svg" xmlns:xlink="http://www.w3.org/1999/xlink" xml:space="preserve" width="490mm" height="535mm" style="shape-rendering:geometricPrecision;text-rendering:geometricPrecision;image-rendering:optimizeQuality;fill-rule:evenodd;clip-rule:evenodd" viewBox="0 0 4900 5350"><defs><linearGradient id="id5" x1="4345.429" x2="3391.076" y1="2968.608" y2="3301.87" gradientUnits="userSpaceOnUse"><stop offset="0" style="stop-opacity:.172549;stop-color:#4065fe"/><stop offset="1" style="stop-opacity:.419608;stop-color:#2436ff"/></linearGradient><linearGradient id="id11" x1="1987.747" x2="1455.577" y1="945.949" y2="955.85" gradientUnits="userSpaceOnUse"><stop offset="0" style="stop-opacity:1;stop-color:#caddff"/><stop offset="1" style="stop-opacity:1;stop-color:#fdfcfd"/></linearGradient><linearGradient id="id1" x1="3067.023" x2="3223.684" y1="429.988" y2="439.942" gradientUnits="userSpaceOnUse"><stop offset="0" style="stop-opacity:1;stop-color:#2f75f6"/><stop offset="1" style="stop-opacity:1;stop-color:#1f1eb9"/></linearGradient><linearGradient id="id2" x1="3421.688" x2="1260.135" y1="1863.376" y2="1982.795" gradientUnits="userSpaceOnUse"><stop offset="0" style="stop-opacity:1;stop-color:#1d14b0"/><stop offset="1" style="stop-opacity:1;stop-color:#2f7bf8"/></linearGradient><linearGradient id="id3" x1="3025.116" x2="2368.211" y1="2912.809" y2="2941.895" gradientUnits="userSpaceOnUse"><stop offset="0" style="stop-opacity:1;stop-color:#141468"/><stop offset="1" style="stop-opacity:1;stop-color:#2336b7"/></linearGradient><linearGradient id="id4" x1="2300.182" x2="3078.255" y1="2704.362" y2="2733.133" gradientUnits="userSpaceOnUse"><stop offset="0" style="stop-opacity:1;stop-color:#1b14b3"/><stop offset="1" style="stop-opacity:1;stop-color:#2e78fa"/></linearGradient><linearGradient id="id0" x1="508.165" x2="865.222" y1="2432.495" y2="2442.362" gradientUnits="userSpaceOnUse"><stop offset="0" style="stop-opacity:1;stop-color:#1d16b2"/><stop offset="1" style="stop-opacity:1;stop-color:#2f76f5"/></linearGradient><linearGradient id="id6" x1="4438.468" x2="1333.08" y1="4311.407" y2="4609.738" gradientUnits="userSpaceOnUse"><stop offset="0" style="stop-opacity:.678431;stop-color:#6989dd"/><stop offset="1" style="stop-opacity:.984314;stop-color:#aecefe"/></linearGradient><linearGradient id="id7" x1="939.691" x2="371.505" y1="2408.314" y2="2418.219" gradientUnits="userSpaceOnUse"><stop offset="0" style="stop-opacity:1;stop-color:#c9ddff"/><stop offset="1" style="stop-opacity:1;stop-color:#fdfdfe"/></linearGradient><linearGradient id="id8" x1="673.628" x2="98.615" y1="3902.417" y2="3912.341" gradientUnits="userSpaceOnUse"><stop offset="0" style="stop-opacity:1;stop-color:#caddff"/><stop offset="1" style="stop-opacity:1;stop-color:#fdfdfe"/></linearGradient><linearGradient id="id9" x1="3349.257" x2="2858.32" y1="438.261" y2="448.173" gradientUnits="userSpaceOnUse"><stop offset="0" style="stop-opacity:1;stop-color:#cadeff"/><stop offset="1" style="stop-opacity:1;stop-color:#fdfcfd"/></linearGradient><linearGradient xlink:href="#id9" id="id10" x1="4306.085" x2="3863.706" y1="1504.93" y2="1514.884" gradientUnits="userSpaceOnUse"/><style>.fil19{fill:#0f78ad;fill-rule:nonzero}.fil16,.fil17,.fil20{fill:#1331af;fill-rule:nonzero}.fil16,.fil20{fill:#161c78}.fil20{fill:#224986}.fil18,.fil24,.fil31{fill:#3158bd;fill-rule:nonzero}.fil24,.fil31{fill:#52c0ec}.fil24{fill:#5789fe}.fil1,.fil26,.fil30{fill:#98c7f1;fill-rule:nonzero}.fil26,.fil30{fill:#a5a3a4}.fil26{fill:#afd7f7}.fil14,.fil37,.fil40{fill:#c8c7c6;fill-rule:nonzero}.fil14,.fil40{fill:#d5e5fe}.fil40{fill:#d9695c}.fil13,.fil28,.fil35{fill:#fe725b;fill-rule:nonzero}.fil13,.fil35{fill:#fed15c}.fil13{fill:#fefefe}</style></defs><g id="Слой_x0020_1"><path d="M29.216 31.863h4877.05v5320.392c-1.93 1.174-2.976 1.971-5.015 2.72-16.521 6.041-492.404 1.828-552.273 1.839l-960.342.061c-160.889 0-322.621 3.355-483.432-.17-7.287-.158-12.166-.718-18.941-3.404-.948.448-1.892.937-2.859 1.335-13.317 5.511-260.243 4.548-275.204-1.147-2.039.888-3.024 1.426-5.074 1.982-20.627 5.564-98.478 1.374-124.863 1.385l-335.254-.042H642.371l-403.944-.03c-63.278 0-135.434 4.33-197.673-.459-4.672-.357-7.546-1.809-11.538-4.07V31.863zm0 0v5320.392c3.992 2.261 6.866 3.713 11.538 4.07 62.239 4.789 134.395.459 197.673.459l403.944.03h1500.638l335.254.042c26.385-.011 104.236 4.179 124.863-1.385 2.05-.556 3.035-1.094 5.074-1.982-5.214-12.282-53.914-10.928-65.832-11.605-52.571-2.976-104.345-11.963-156.202-20.822a2178.227 2178.227 0 0 1-66.806-12.628 2182.216 2182.216 0 0 1-66.378-14.732 2155.467 2155.467 0 0 1-65.881-16.823 2134.265 2134.265 0 0 1-65.324-18.869 2170.468 2170.468 0 0 1-64.692-20.923 2179.703 2179.703 0 0 1-64-22.951 2189.86 2189.86 0 0 1-63.251-24.952 2167.915 2167.915 0 0 1-123.99-55.807 2192.147 2192.147 0 0 1-60.614-30.806 2168.09 2168.09 0 0 1-59.618-32.697 2169.51 2169.51 0 0 1-58.556-34.557 2132.283 2132.283 0 0 1-57.447-36.388 2167.963 2167.963 0 0 1-111.309-78.091 2171.794 2171.794 0 0 1-53.756-41.636 2094.57 2094.57 0 0 1-52.82-43.585 2109.506 2109.506 0 0 1-51.379-45.258 2118.317 2118.317 0 0 1-49.904-46.888 2152.606 2152.606 0 0 1-48.362-48.482 2134.137 2134.137 0 0 1-46.771-50.014 2110.218 2110.218 0 0 1-45.138-51.499 2120.508 2120.508 0 0 1-85.168-107.223 2107.345 2107.345 0 0 1-39.958-55.611 2131.278 2131.278 0 0 1-38.138-56.883 2122.723 2122.723 0 0 1-36.282-58.075 2131.498 2131.498 0 0 1-34.391-59.211 2123.213 2123.213 0 0 1-32.465-60.299 2105.759 2105.759 0 0 1-30.504-61.31 2128.225 2128.225 0 0 1-28.515-62.258 2130.455 2130.455 0 0 1-26.487-63.15c-17.523-42.749-33.36-85.25-49.024-128.635-6.621-18.336-15.514-37.694-19.659-56.725-5.632-25.836-2.953-55.378-2.901-81.805l.38-136.656c.083-30.316 1.573-61.87-1.963-91.999-8.096-68.973-42.818-46.797-67.198-68.066-11.925-10.402-5.902-51.15-7.008-67.604-1.494-22.274-7.934-43.995-9.093-66.528-3.359-65.241-3.709-141.023.561-206.05 1.497-22.752 5.62-45.266 7.535-67.98 1.621-19.249 1.418-38.638 3.299-57.868 3.668-37.521 8.934-75.583 15.021-112.81 3.314-20.291 12.959-43.235 11.18-63.398-.534-6.094-1.505-13.787-.448-19.829 1.501-8.569 17.098-20.761 23.877-25.64 17.541-12.621 38.036-22.473 56.845-33.221 44.107-25.193 88.67-49.528 132.559-75.12 36.445-21.247 82.508-58.91 93.786-101.738l-4.093-3.834c14.852-39.92 13.373-79.912 13.592-121.864 8.678 11.334 2.174 63.548 3.028 80.371 5.677-15.348 1.452-80.691 1.444-100.328l-.319-237.92c-.049-40.063-2.713-81.857.812-121.68 1.133-12.798 4.571-24.903 9.533-36.708 12.09-28.752 78.87-108.397 101.614-136.964a2113.85 2113.85 0 0 1 49.288-59.817 2127.654 2127.654 0 0 1 51.458-57.97 2112.925 2112.925 0 0 1 53.538-56.043 2125.656 2125.656 0 0 1 55.547-54.047 2120.302 2120.302 0 0 1 57.5-51.977 2113.516 2113.516 0 0 1 59.361-49.833 2100.14 2100.14 0 0 1 61.141-47.628 2099.888 2099.888 0 0 1 62.845-45.357 2121.182 2121.182 0 0 1 64.467-43.027 2119.102 2119.102 0 0 1 66.001-40.639 2133.838 2133.838 0 0 1 67.442-38.19 2121.664 2121.664 0 0 1 68.796-35.693 2119.927 2119.927 0 0 1 141.276-63.717 2101.282 2101.282 0 0 1 72.298-27.932 2115.39 2115.39 0 0 1 73.265-25.268c133.135-44.642 272.797-79.638 412.59-95.073a2190.978 2190.978 0 0 1 71.524-7.268c23.88-2.031 47.79-3.664 71.73-4.905a2179.216 2179.216 0 0 1 143.743-2.709 2202.41 2202.41 0 0 1 71.855 2.19 2176.898 2176.898 0 0 1 71.749 4.57 2192.554 2192.554 0 0 1 71.565 6.926 2179.024 2179.024 0 0 1 71.283 9.277 2173.707 2173.707 0 0 1 70.959 11.624 2195.343 2195.343 0 0 1 70.527 13.956 2183.19 2183.19 0 0 1 70.019 16.274 2150.966 2150.966 0 0 1 69.455 18.572 2178.056 2178.056 0 0 1 68.807 20.84 2184.38 2184.38 0 0 1 68.089 23.113 2187.497 2187.497 0 0 1 67.284 25.332 2188.005 2188.005 0 0 1 66.408 27.541c58.086 24.722 169.271 73.551 215.496 110.966.685 11.327-14.641 25.012-18.614 36.219-2.298 6.511-2.298 13.836 1.046 19.968.587 1.083 1.253 2.14 1.881 3.205-6.519 69.262-2.441 142.05-2.498 211.674-.052 57.108-4.898 119.159 2.058 175.771 1.264 10.292 3.404 18.094 10.085 26.167 12.012 14.532 30.893 24.516 46.707 34.387 15.002 8.212 26.863 12.73 44.134 14.385 9.089 4.018 13.655 2.984 23.011-.616 27.273-10.511 54.821-30.968 80.334-45.488l181.158-102.119c21.646-12.185 45.823-30.309 69.56-37.415 45.597 36.749 79.299 80.92 117.399 124.682a2112.002 2112.002 0 0 1 44.22 52.974 2114.019 2114.019 0 0 1 42.471 54.381 2115.1 2115.1 0 0 1 40.67 55.739 2104.445 2104.445 0 0 1 75.782 115.319 2102.126 2102.126 0 0 1 35.037 59.44 2114.407 2114.407 0 0 1 33.063 60.566 2103.85 2103.85 0 0 1 31.084 61.607 2098.034 2098.034 0 0 1 29.052 62.586 2114.31 2114.31 0 0 1 51.906 127.86 2111.286 2111.286 0 0 1 22.804 65.121 2145.407 2145.407 0 0 1 20.653 65.84 2112.765 2112.765 0 0 1 18.504 66.479 2137.15 2137.15 0 0 1 16.33 67.043 2102.676 2102.676 0 0 1 14.126 67.544c8.667 44.201 14.63 88.451 21.141 132.973 1.403 9.634 5.703 19.181 6.557 28.687 1.971 22.045-1.584 75.094 6.76 93.331l10.917 7.802V31.863H29.216zm3372.669 2875.916c-43.983 29.222-91.957 54.024-137.871 80.202l-245.425 139.884-1152.198 656.529-373.136 212.46c-62.615 35.643-127.56 69.485-188.591 107.633-4.646 2.908-8.799 5.666-11.286 10.729-.858 5.914-1.493 11.696-3.574 17.331 1.701 15.089 1.016 29.967 1.81 45.055 60.449 36.381 122.267 70.58 182.475 107.295 284.349 161.92 565.199 330.935 847.78 496.008l227.677 133.052c39.217 23.034 78.351 49.261 118.941 69.545 5.007 2.498 7.027 2.946 12.403 2.607 6.895 1.125 12.478-2.317 18.41-5.436 90.318-47.523 178.413-101.362 267.225-151.786l543.114-308.18 562.931-319.653c96.687-54.961 195.48-107.634 290.342-165.6 3.017-5.229 5.586-10.074 7.188-15.935 1.554-5.725 1.949-5.387 5.94-9.288l3.187.09 3.634 8.073 3.084-.131c6.61-10.827 1.373-22.921 4.917-34.997 2.517-3.205 4.082-5.601 8.013-7.143 3.084-1.215 6.229-2.261 9.314-3.525-2.976-6.03-11.286 1.505-16.669-1.554-.827-5.849-2.641-11.157-4.499-16.729 50.002-28.766 99.542-59.301 150.639-85.976l124.915-72.679c23.03-13.377 47.207-29.989 72.05-39.495a1907.566 1907.566 0 0 0 41.824-25.855c-85.54-46.165-168.259-99.214-251.628-149.209l-445.085-267.383c-76.21-40.447-149.893-89.468-224.028-133.82l-453.823-272.119zm1210.424 999.13c9.507 6.071 19.25 11.921 28.526 18.331 38.995 14.453 75.267 45.436 110.542 67.284 12.718 7.874 27.401 11.775 38.758 21.71l1.681 5.353c-8.441 10.74-21.051 18.692-32.498 25.938-31.919 20.216-66.645 36.708-99.561 55.351-119.22 67.51-241.663 131.13-358.863 201.988 5.974 2.37 6.391 2.757 12.561.071 10.86-4.74 21.63-12.959 32.141-18.854l84.592-47.008a18501.935 18501.935 0 0 0 273.481-151.684l2.37 2.189c-8.66 42.61-59.501 127.052-82.354 166.814-71.302 124.035-150.353 243.075-244.977 350.858-17.158 19.551-37.164 36.381-54.573 55.66-17.794 19.686-31.788 42.938-50.443 61.879-18.53 18.82-41.771 33.371-61.419 51.187-20.145 18.286-38.769 38.273-59.162 56.277-66.001 58.267-140.271 113.197-213.604 161.946a2164.066 2164.066 0 0 1-89.957 56.315 2164.186 2164.186 0 0 1-92.616 51.849 2173.488 2173.488 0 0 1-95.031 47.245 2165.659 2165.659 0 0 1-97.232 42.531 2170.43 2170.43 0 0 1-99.203 37.724 2175.494 2175.494 0 0 1-100.926 32.825 2165.75 2165.75 0 0 1-102.42 27.827 2157.641 2157.641 0 0 1-103.649 22.793c-77.287 15.498-156.447 29.094-235.306 31.862-13.686.478-28.165-2.4-36.904 10.131 6.775 2.686 11.654 3.246 18.941 3.404 160.811 3.525 322.543.17 483.432.17l960.342-.061c59.869-.011 535.752 4.202 552.273-1.839 2.039-.749 3.085-1.546 5.015-2.72V3343.639c-10.432 8.13-12.929 12.192-14.592 25.746-2.758 22.605.022 45.748-2.806 68.319-1.404 11.248-5.414 21.897-6.907 33.157-5.237 39.205-8.69 78.381-15.717 117.387-18.73 104.079-50.901 209.274-84.092 309.482-7.208 21.758-13.776 62.935-25.768 80.364-30.998-.508-119.879-75.635-138.462-74.311-2.129.158-3.739 2.08-5.613 3.126zm-225.288 47.406c1.858 5.572 3.672 10.88 4.499 16.729 5.383 3.059 13.693-4.476 16.669 1.554-3.085 1.264-6.23 2.31-9.314 3.525-3.931 1.542-5.496 3.938-8.013 7.143-3.544 12.076 1.693 24.17-4.917 34.997l-3.084.131-3.634-8.073-3.187-.09c-3.991 3.901-4.386 3.563-5.94 9.288-1.602 5.861-4.171 10.706-7.188 15.935-94.862 57.966-193.655 110.639-290.342 165.6l-562.931 319.653-543.114 308.18c-88.812 50.424-176.907 104.263-267.225 151.786-5.932 3.119-11.515 6.561-18.41 5.436-5.376.339-7.396-.109-12.403-2.607-40.59-20.284-79.724-46.511-118.941-69.545l-227.677-133.052c-282.581-165.073-563.431-334.088-847.78-496.008-32.408 11.297-62.778 33.266-91.958 51.191a5699.635 5699.635 0 0 0-114.236 71.196c50.883 42.46 115.5 75.354 172.16 110.169l318.883 196.21 572.903 352.001c93.997 57.819 186.741 120.217 283.157 173.842 55.491-18.023 117.598-60.167 169.143-88.862l339.317-189.766 758.357-425.071c128.049-71.862 258.257-141.422 384.504-216.373 11.327-3.144 23.696-11.545 34.575-16.57 117.2-70.858 239.643-134.478 358.863-201.988 32.916-18.643 67.642-35.135 99.561-55.351 11.447-7.246 24.057-15.198 32.498-25.938l-1.681-5.353c-11.357-9.935-26.04-13.836-38.758-21.71-35.275-21.848-71.547-52.831-110.542-67.284-9.276-6.41-19.019-12.26-28.526-18.331l-10.39-6.828-5.217 1.542c-11.158-15.25-41.414-27.352-59.042-33.284-51.097 26.675-100.637 57.21-150.639 85.976zm-983.612-2097.869c-2.351 38.886-1.065 78.322-1.016 117.268l.17 194.712c.188 246.253 4.318 493.19-.678 739.353l453.823 272.119c74.135 44.352 147.818 93.373 224.028 133.82l5.147-2.927c12.827 4.093 25.29 12.929 36.963 19.689 36.877 21.36 81.579 53.17 120.194 68.349l1.306-1.125c-5.256-6.271-93.512-57.191-105.354-63.872l2.528-4.597-2.122.986c1.595-5.158 7.366-18.76 6.681-23.259-1.124-7.498-6.519-17.737-9.227-24.945-14.95-39.744-37.464-79.623-49.209-119.905-25.708-88.196-26.713-181.594-49.964-270.757a1364.262 1364.262 0 0 0-24.008-82.459 1370.623 1370.623 0 0 0-13.934-40.632 1331.043 1331.043 0 0 0-15.198-40.169 1375.517 1375.517 0 0 0-16.443-39.683 1374.443 1374.443 0 0 0-36.588-77.704 1394.034 1394.034 0 0 0-20.095-37.953 1382.146 1382.146 0 0 0-21.281-37.314 1379.47 1379.47 0 0 0-46.014-72.52 1370.068 1370.068 0 0 0-50.473-69.493 1377.066 1377.066 0 0 0-26.833-33.533 1362.739 1362.739 0 0 0-27.879-32.663 1379.396 1379.396 0 0 0-28.895-31.78c-37.114-38.969-77.96-73.845-118.143-109.537-26.333-23.399-51.078-51.048-78.916-72.34-13.43-10.27-54.716-30.546-60.197-35.978-5.605-5.564-4.747-11.03-12.53-15.627l-6.572 4.307 1.922-.624-4.51.049c-.467-6.44-.696-7.366-4.417-12.621l-5.763 1.501c-6.192-57.947.865-119.995 1.162-178.469-9.562 43.009-5.654 88.324-14.182 131.642l-.658 3.193c2.52-41.745 3.198-113.693-2.825-154.502zm1331.216 1899.719c-24.843 9.506-49.02 26.118-72.05 39.495l-124.915 72.679c17.628 5.932 47.884 18.034 59.042 33.284l5.217-1.542c51.996-30.576 110.549-55.927 159.043-91.589 6.508-16.304 11.744-33.653 7.711-51.232-11.176-13.893-19.824 4.521-34.048-1.095zM1778.782 2089.759c3.566.707 6.658 1.215 9.995 2.697 21.596-7.855 44.668-24.595 64.714-36.17l141.844-82.015 254.043-146.508c45.786-26.397 93.64-51.481 137.721-80.552l-4.495-3.386c4.856-4.01 9.84-7.764 14.919-11.496l-1.008-1.971c-3.175-.068-5.571-.249-8.6.948-20.005 7.922-45.533 25.806-65.41 36.399-92.255 49.156-184.243 101.987-274.019 155.536-8.78 5.226-16.466 11.974-25.223 17.188-17.467 10.424-36.599 18.426-54.445 28.297-24.941 13.798-48.889 30.188-73.792 44.442-43.506 24.915-89.092 48.332-130.475 76.549 4.954.61 9.254.489 14.231.042zm-504.307 933.486c.162 24.933-4.977 48.332-5.981 73.088-1.464 35.741.906 71.971.726 107.78-.237 48.306-9.108 132.277 2.847 175.884l2.498 1.163c4.759-34.109 4.928-343.929-.09-357.915zm504.307-933.486c-6.997 3.096-11.275 5.195-18.84 5.812-14.471 1.173-29.729 11.097-41.098 19.219-4.898 3.495-10.153 6.132-15.325 9.149-3.954 2.306-2.581 1.192-5.188 4.984l4.827 1.791c-16.759 7.922-27.601 6.632-38.27 23.462 1.814 3.66 3.883 3.909 7.385 5.831 39.424-20.78 78.938-43.566 116.504-67.551-3.337-1.482-6.429-1.99-9.995-2.697zm-499.499 928.279c1.015 38.83-2.717 362.336 2.121 369.592.03-42.61 3.732-358.242-2.121-369.592z" style="fill:#5789fe;fill-rule:nonzero;fill-opacity:.015686"/><path d="M3227.416 31.863h46.293c14.502 9.153 32.855 13.9 49.088 19.498-13.238.925-26.863 7.854-38.736 13.621-112.663 70.222-229.501 135.147-344.82 200.927-13.584-14.701-35.192-22.116-51.435-34.03 42.418-28.973 91.141-53.113 135.76-79.058 68.01-39.552 135.749-82.572 206.238-117.414l-2.388-3.544z" class="fil1"/><g id="_1383441567552"><path d="M320.577 3556.066c45.552-1307.178 1173.34-3352.517 2749.305-2899.721 380.678 109.371 670.805 257.689 954.386 535.225l59.813 58.538" style="fill:none;stroke:#98c7f1;stroke-width:10;stroke-miterlimit:22.9256;stroke-dasharray:20 50"/><path d="M4387.021 3954.315c50.002-28.766 99.542-59.301 150.639-85.976 17.628 5.932 47.884 18.034 59.042 33.284l5.217-1.542 10.39 6.828c9.507 6.071 19.25 11.921 28.526 18.331 38.995 14.453 75.267 45.436 110.542 67.284 12.718 7.874 27.401 11.775 38.758 21.71l1.681 5.353c-8.441 10.74-21.051 18.692-32.498 25.938-31.919 20.216-66.645 36.708-99.561 55.351-119.22 67.51-241.663 131.13-358.863 201.988-10.879 5.025-23.248 13.426-34.575 16.57-126.247 74.951-256.455 144.511-384.504 216.373l-758.357 425.071-339.317 189.766c-51.545 28.695-113.652 70.839-169.143 88.862-96.416-53.625-189.16-116.023-283.157-173.842l-572.903-352.001-318.883-196.21c-56.66-34.815-121.277-67.709-172.16-110.169a5691.113 5691.113 0 0 1 114.236-71.196c29.18-17.925 59.55-39.894 91.958-51.191 284.349 161.92 565.199 330.935 847.78 496.008l227.677 133.052c39.217 23.034 78.351 49.261 118.941 69.545 5.007 2.498 7.027 2.946 12.403 2.607 6.895 1.125 12.478-2.317 18.41-5.436 90.318-47.523 178.413-101.362 267.225-151.786l543.114-308.18 562.931-319.653c96.687-54.961 195.48-107.634 290.342-165.6 3.017-5.229 5.586-10.074 7.188-15.935 1.554-5.725 1.949-5.387 5.94-9.288l3.187.09 3.634 8.073 3.084-.131c6.61-10.827 1.373-22.921 4.917-34.997 2.517-3.205 4.082-5.601 8.013-7.143 3.084-1.215 6.229-2.261 9.314-3.525-2.976-6.03-11.286 1.505-16.669-1.554-.827-5.849-2.641-11.157-4.499-16.729zm0 0c1.858 5.572 3.672 10.88 4.499 16.729 5.383 3.059 13.693-4.476 16.669 1.554-3.085 1.264-6.23 2.31-9.314 3.525-3.931 1.542-5.496 3.938-8.013 7.143-3.544 12.076 1.693 24.17-4.917 34.997l-3.084.131-3.634-8.073-3.187-.09c-3.991 3.901-4.386 3.563-5.94 9.288-1.602 5.861-4.171 10.706-7.188 15.935 78.942-42.185 156.913-87.978 233.79-133.831-11.158-15.25-41.414-27.352-59.042-33.284-51.097 26.675-100.637 57.21-150.639 85.976zm253.814-29.075-1.64 4.469c-5.654 1.057-8.821-.188-14.156-2.088 21.221 20.363 68.289 41.952 95.919 56.292 8.521 4.421 21.07 9.13 28.398 15.191 3.732 3.077 6.14 6.241 6.091 11.308-.019 1.772-.944 4.725-1.445 6.489l3.096 8.829-2.358 3.562c-2.788 4.3-4.409 8.419-6.14 13.216-8.042 3.028-18.075-.866-24.617 2.968l4.808 8.012c-7.174 6.219-34.158 6.301-44.74 7.754 1.911 3.017 3.314 4.119 6.102 6.27l-1.023 3.841c-71.765 39.086-142.75 80.612-213.657 121.308-17.019 9.766-36.091 17.173-52.602 27.224-18.226 11.098-34.725 25.351-53.102 36.099-21.239 12.433-73.829 32.746-87.466 51.887-4.281 1.094-11.737 1.531-13.904 5.394-1.903 3.363-1.275 2.02-2.08 6.169 11.327-3.144 23.696-11.545 34.575-16.57 117.2-70.858 239.643-134.478 358.863-201.988 32.916-18.643 67.642-35.135 99.561-55.351 11.447-7.246 24.057-15.198 32.498-25.938l-1.681-5.353c-11.357-9.935-26.04-13.836-38.758-21.71-35.275-21.848-71.547-52.831-110.542-67.284z" style="fill:#1331af;fill-rule:nonzero;fill-opacity:.411765"/><path d="M1279.283 3018.038c5.853 11.35 2.151 326.982 2.121 369.592-4.838-7.256-1.106-330.762-2.121-369.592z" style="fill:#426aff;fill-rule:nonzero;fill-opacity:.007843"/><path d="M1778.782 2089.759c3.566.707 6.658 1.215 9.995 2.697-37.566 23.985-77.08 46.771-116.504 67.551-3.502-1.922-5.571-2.171-7.385-5.831 10.669-16.83 21.511-15.54 38.27-23.462l-4.827-1.791c2.607-3.792 1.234-2.678 5.188-4.984 5.172-3.017 10.427-5.654 15.325-9.149 11.369-8.122 26.627-18.046 41.098-19.219 7.565-.617 11.843-2.716 18.84-5.812z" style="fill:#426aff;fill-rule:nonzero;fill-opacity:.105882"/><path d="M1274.475 3023.245c5.018 13.986 4.849 323.806.09 357.915l-2.498-1.163c-11.955-43.607-3.084-127.578-2.847-175.884.18-35.809-2.19-72.039-.726-107.78 1.004-24.756 6.143-48.155 5.981-73.088z" style="fill:#426aff;fill-rule:nonzero;fill-opacity:.058824"/><path d="M1778.782 2089.759c-4.977.447-9.277.568-14.231-.042 41.383-28.217 86.969-51.634 130.475-76.549 24.903-14.254 48.851-30.644 73.792-44.442 17.846-9.871 36.978-17.873 54.445-28.297 8.757-5.214 16.443-11.962 25.223-17.188 89.776-53.549 181.764-106.38 274.019-155.536 19.877-10.593 45.405-28.477 65.41-36.399 3.029-1.197 5.425-1.016 8.6-.948l1.008 1.971c-5.079 3.732-10.063 7.486-14.919 11.496l4.495 3.386c-44.081 29.071-91.935 54.155-137.721 80.552l-254.043 146.508-141.844 82.015c-20.046 11.575-43.118 28.315-64.714 36.17-3.337-1.482-6.429-1.99-9.995-2.697z" style="fill:#426aff;fill-rule:nonzero;fill-opacity:.133333"/><path d="M4734.625 3756.165c14.224 5.616 22.872-12.798 34.048 1.095 4.033 17.579-1.203 34.928-7.711 51.232-48.494 35.662-107.047 61.013-159.043 91.589l-5.217 1.542c-11.158-15.25-41.414-27.352-59.042-33.284l124.915-72.679c23.03-13.377 47.207-29.989 72.05-39.495z" style="fill:#98c7f1;fill-rule:nonzero;fill-opacity:.384314"/><path d="M3311.153 1856.659c13.882 57.928 16.73 158.49 14.308 216.54l1.077-4.376c13.834-59.415 3.74-123.354 19.572-182.193 2.799 81.763-7.14 167.586 8.054 249.515l10.948-1.298c7.427 7.869 7.919 9.196 9.183 18.271l8.634.559-3.645.606 12.335-5.112c15.168 7.514 13.84 15.042 24.893 23.605 10.808 8.362 91.027 42.471 117.333 58.707 54.527 33.659 103.5 75.783 155.268 112.181 78.997 55.523 159.214 109.996 232.522 169.676a2748.216 2748.216 0 0 1 57.156 48.479 2653.02 2653.02 0 0 1 55.262 49.575 2567.358 2567.358 0 0 1 53.309 50.645 2484.809 2484.809 0 0 1 51.34 51.64 2426.31 2426.31 0 0 1 49.304 52.6 2367.895 2367.895 0 0 1 47.201 53.507 2294.268 2294.268 0 0 1 45.081 54.35 2226.784 2226.784 0 0 1 42.896 55.161 2175.412 2175.412 0 0 1 40.664 55.892 2066.307 2066.307 0 0 1 38.408 56.583 2012.057 2012.057 0 0 1 36.123 57.214 1951.653 1951.653 0 0 1 33.769 57.805 1833.975 1833.975 0 0 1 31.413 58.31 1819.465 1819.465 0 0 1 29.02 58.781 1774.718 1774.718 0 0 1 26.587 59.167 1718.456 1718.456 0 0 1 24.131 59.533c49.657 127.973 56.96 258.777 111.264 385.739 24.807 57.988 70.213 116.91 101.127 174.591 5.601 10.46 16.52 25.536 19.105 36.181 1.57 6.39-8.695 24.617-11.452 31.611l4.005-1.084-4.575 6.079c23.059 10.994 194.979 94.508 205.402 104.012l-2.434 1.392c-74.812-26.607-162.236-77.327-234.076-112.339-22.74-11.081-47.112-25.177-71.909-32.687l-9.685 3.379c-148.253-67.187-292.159-146.016-436.66-218.376l-884.621-443.823c-4.613-343.686-26.745-689.725-41.288-1034.258l-11.54-272.425c-2.337-54.492-7.071-109.841-4.809-163.915zm14.308 216.54c-6.223 40.711.766 86.464 3.098 128.279l12.913 231.478c2.814 51.777-4.282 116.986 9.073 167.336 16.333-29.76-12.264-173.844-3.527-220.826 2.467 42.827 1.512 86.959 8.033 129.86 8.557-35.834.474-84.93.54-122.919.193-82.522 9.476-167.186-1.427-250.262-15.194-81.929-5.255-167.752-8.054-249.515-15.832 58.839-5.738 122.778-19.572 182.193l-1.077 4.376z" style="fill:url(#id5);fill-rule:nonzero"/><path d="m3406.234 2010.948.658-3.193c8.528-43.318 4.62-88.633 14.182-131.642-.297 58.474-7.354 120.522-1.162 178.469 3.92 58.993-2.769 120.175-4.65 179.349-.853 27.239 2.321 62.017-2.934 88.154-2.49-30.418-1.038-62.107-1.407-92.684-5.59 34.139 6.283 135.949-2.915 158.136-5.91-35.402-.786-82.523-1.144-119.498l-1.772-165.283c-.319-29.858-2.994-62.296 1.144-91.808z" style="fill:#426aff;fill-rule:nonzero;fill-opacity:.188235"/><path d="M4640.835 3925.24c38.995 14.453 75.267 45.436 110.542 67.284 12.718 7.874 27.401 11.775 38.758 21.71l1.681 5.353c-8.441 10.74-21.051 18.692-32.498 25.938-31.919 20.216-66.645 36.708-99.561 55.351-119.22 67.51-241.663 131.13-358.863 201.988-10.879 5.025-23.248 13.426-34.575 16.57.805-4.149.177-2.806 2.08-6.169 2.167-3.863 9.623-4.3 13.904-5.394 13.637-19.141 66.227-39.454 87.466-51.887 18.377-10.748 34.876-25.001 53.102-36.099 16.511-10.051 35.583-17.458 52.602-27.224 70.907-40.696 141.892-82.222 213.657-121.308l1.023-3.841c-2.788-2.151-4.191-3.253-6.102-6.27 10.582-1.453 37.566-1.535 44.74-7.754l-4.808-8.012c6.542-3.834 16.575.06 24.617-2.968 1.731-4.797 3.352-8.916 6.14-13.216l2.358-3.562-3.096-8.829c.501-1.764 1.426-4.717 1.445-6.489.049-5.067-2.359-8.231-6.091-11.308-7.328-6.061-19.877-10.77-28.398-15.191-27.63-14.34-74.698-35.929-95.919-56.292 5.335 1.9 8.502 3.145 14.156 2.088l1.64-4.469z" style="fill:#161c78;fill-rule:nonzero;fill-opacity:.27451"/><path d="M4387.021 3954.315c50.002-28.766 99.542-59.301 150.639-85.976 17.628 5.932 47.884 18.034 59.042 33.284-76.877 45.853-154.848 91.646-233.79 133.831 3.017-5.229 5.586-10.074 7.188-15.935 1.554-5.725 1.949-5.387 5.94-9.288l3.187.09 3.634 8.073 3.084-.131c6.61-10.827 1.373-22.921 4.917-34.997 2.517-3.205 4.082-5.601 8.013-7.143 3.084-1.215 6.229-2.261 9.314-3.525-2.976-6.03-11.286 1.505-16.669-1.554-.827-5.849-2.641-11.157-4.499-16.729z" style="fill:#5789fe;fill-rule:nonzero;fill-opacity:.662745"/><path d="m3401.885 2907.779 453.823 272.119c74.135 44.352 147.818 93.373 224.028 133.82l445.085 267.383c83.369 49.995 166.088 103.044 251.628 149.209a1892.328 1892.328 0 0 1-41.824 25.855c-24.843 9.506-49.02 26.118-72.05 39.495l-124.915 72.679c-51.097 26.675-100.637 57.21-150.639 85.976 1.858 5.572 3.672 10.88 4.499 16.729 5.383 3.059 13.693-4.476 16.669 1.554-3.085 1.264-6.23 2.31-9.314 3.525-3.931 1.542-5.496 3.938-8.013 7.143-3.544 12.076 1.693 24.17-4.917 34.997l-3.084.131-3.634-8.073-3.187-.09c-3.991 3.901-4.386 3.563-5.94 9.288-1.602 5.861-4.171 10.706-7.188 15.935-94.862 57.966-193.655 110.639-290.342 165.6l-562.931 319.653-543.114 308.18c-88.812 50.424-176.907 104.263-267.225 151.786-5.932 3.119-11.515 6.561-18.41 5.436-5.376.339-7.396-.109-12.403-2.607-40.59-20.284-79.724-46.511-118.941-69.545l-227.677-133.052c-282.581-165.073-563.431-334.088-847.78-496.008-60.208-36.715-122.026-70.914-182.475-107.295-.794-15.088-.109-29.966-1.81-45.055 2.081-5.635 2.716-11.417 3.574-17.331 2.487-5.063 6.64-7.821 11.286-10.729 61.031-38.148 125.976-71.99 188.591-107.633l373.136-212.46 1152.198-656.529 245.425-139.884c45.914-26.178 93.888-50.98 137.871-80.202zm985.136 1046.536-1132.073 648.28-363.58 207.841c-61.322 35.056-122.293 72.618-184.83 105.425-5.048 2.648-7.027 3.683-12.862 3.961-4.578.914-6.835 1.572-11.326.03-27.439-9.427-58.034-32.54-83.246-47.32-42.181-24.723-296.206-178.1-321.437-177.065-41.963-22.206-82.662-48.701-123.572-72.927l-238.485-141.008-622.232-366.316c-.858 5.914-1.493 11.696-3.574 17.331 1.701 15.089 1.016 29.967 1.81 45.055 60.449 36.381 122.267 70.58 182.475 107.295 284.349 161.92 565.199 330.935 847.78 496.008l227.677 133.052c39.217 23.034 78.351 49.261 118.941 69.545 5.007 2.498 7.027 2.946 12.403 2.607 6.895 1.125 12.478-2.317 18.41-5.436 90.318-47.523 178.413-101.362 267.225-151.786l543.114-308.18 562.931-319.653c96.687-54.961 195.48-107.634 290.342-165.6 3.017-5.229 5.586-10.074 7.188-15.935 1.554-5.725 1.949-5.387 5.94-9.288l3.187.09 3.634 8.073 3.084-.131c6.61-10.827 1.373-22.921 4.917-34.997 2.517-3.205 4.082-5.601 8.013-7.143 3.084-1.215 6.229-2.261 9.314-3.525-2.976-6.03-11.286 1.505-16.669-1.554-.827-5.849-2.641-11.157-4.499-16.729z" class="fil13"/><path d="M3018.638 3632.54c31.693 4.747 72.889 36.147 100.14 52.82-30.038 17.537-59.907 35.583-90.901 51.386-29.831-2.588-75.06-35.978-102.957-51.514 30.565-18.324 61.701-37.088 93.718-52.692zM2882.419 3710.88c32.667 7.825 69.891 35.384 98.319 53.775-30.576 17.369-60.577 36.908-92.726 51.203-28.334-3.047-73.731-36.641-99.481-52.098 30.727-17.955 61.34-38.517 93.888-52.88zM2601.839 3871.755c25.599-2.182 80.364 37.381 104.519 51.623-30.189 16.025-59.768 33.413-89.547 50.194-30.576 2.667-78.543-36.268-104.789-52.462 30.267-15.886 59.113-34.18 89.817-49.355zM2465.033 3949.824c26.137-.873 77.467 38.75 103.314 51.202-29.3 18.234-60.038 36.196-90.802 51.804-30.02 1.873-77.912-35.982-103.601-51.646a4451.88 4451.88 0 0 1 91.089-51.36zM3443.42 3718.445c20.991.737 78.908 40.161 101.046 52.53-29.143 18.256-59.155 35.008-89.072 51.928-25.671 2.419-80.977-37.693-104.5-51.916 31.016-17.181 61.532-35.305 92.526-52.542zM2760.87 4277.276c33.356 7.565 69.286 34.924 98.5 52.451-29.989 18.625-60.498 38.073-92.447 53.121-30.049-4.838-73.107-36.746-100.268-53.576 31.912-16.387 61.958-36.073 94.215-51.996zM2607.354 4032.964c24.824-1.911 82.064 39.145 103.781 52.462-31.362 16.406-61.103 35.685-92.823 51.507-23.15.23-76.44-40.526-102.118-49.994 27.916-20.931 60.614-37.194 91.16-53.975zM3723.364 3723.9c26.803-.67 78.2 37.325 103.54 52.282-31.75 14.889-61.649 35.007-93.079 51.01-29.045-.677-75.447-38.638-104.56-50.999 31.882-16.195 62.627-35.196 94.099-52.293zM3023.547 3793.84c25.25 1.621 77.456 39.834 101.351 54.463l-90.979 50.273c-22.635 1.114-80.722-38.528-103.127-51.476 30.426-18.554 61.72-35.742 92.755-53.26zM3150.14 3390.925c20.555-2.181 78.731 40.15 99.602 53.599-28.127 18.869-58.733 34.567-88.523 50.612-23.598 1.512-80.842-39.007-103.176-51.876a2151.617 2151.617 0 0 1 92.097-52.335zM2328.873 4027.927c28.289 2.351 74.232 38.75 102.348 51.548-30.824 18.892-62.386 37.284-94.79 53.32-.312-.03-.621-.06-.929-.079-27.748-2.212-74.308-37.516-99.361-53.549 31.682-14.961 61.551-34.967 92.732-51.24zM3163.517 3713.596c34.03 10.661 68.36 35.963 98.605 54.652a7255.891 7255.891 0 0 1-91.239 52.914c-24.783-2.22-76.391-38.837-100.121-52.914 29.173-20.273 61.592-37.551 92.755-54.652zM3300.869 3635.294c22.925 1.305 76.82 40.62 97.473 53.429-27.439 20.427-60.148 36.411-89.539 54.227-22.831-.877-79.345-41.019-100.475-53.828 29.907-19.347 61.408-36.546 92.541-53.828zM3029.916 3954.823c20.415 1.023 80.183 42.915 99.414 54.502-29.403 19.14-60.536 35.933-90.995 53.338-27.589-2.268-76.169-38.618-100.347-53.527a4162.1 4162.1 0 0 0 91.928-54.313zM2472.191 4111.048c32.815 4.477 72.788 36.588 100.614 54.016-30.275 17.199-61.31 37.78-93.726 50.401-28.906-3.412-73.167-37.344-100.986-51.247 30.697-18.602 61.799-37.524 94.098-53.17zM3306.643 3796.198c16.443 1.422 80.91 43.953 100.099 54.833-30.268 18.978-62.157 35.602-93.47 52.789-24.903-2.456-76.64-39.401-100.317-53.538l93.688-54.084zM3439.985 3554.723c29.196 9.167 70.73 38.619 97.334 55.509-29.354 20.344-62.766 36.949-93.82 54.694-20.792-3.841-75.346-42.757-96.773-55.946 30.467-18.982 62.168-36.309 93.259-54.257zM3153.526 3554.704c24.602-2.618 81.744 38.371 104.375 52.075-30.324 16.432-59.489 34.857-90.603 49.844-29.53 2.37-78.848-36.505-104.229-52.063a2811.335 2811.335 0 0 1 90.457-49.856zM2895.34 4032.896a1329.227 1329.227 0 0 1 95.351 55.645c-30.625 19.441-62.348 38.412-94.673 54.863-32.807-13.893-65.704-36.908-96.645-55.051 31.369-19.377 63.958-37.114 95.967-55.457zM2884.213 3874.362c25.358-.388 78.799 38.645 102.487 53.527-30.896 16.582-61.092 34.706-91.589 52.033-16.037 1.764-81.767-42.697-102.231-53.079 29.443-19.061 60.576-35.662 91.333-52.481zM3168.265 3876.859c22.872 1.641 76.918 40.101 99.372 53.546a2402.069 2402.069 0 0 1-91.559 53.501c-26.513-3.145-77.038-40.24-102.656-54.674 32.189-15.943 63.431-34.876 94.843-52.373zM2753.2 4113.497c18.869-.282 81.394 43.137 101.72 55.088l-92.169 52.703c-20.412-.609-79.544-41.466-100.158-53.948 29.184-19.257 60.437-36.14 90.607-53.843zM2182.602 3944.621c21.082-2.05 80.383 40.308 101.713 53.617a7541.128 7541.128 0 0 1-89.611 53.486c-21.356.041-79.672-40.737-101.479-53.756l89.377-53.347zM2739.413 3791.233c24.914-2.75 81.187 39.175 102.479 53.647-28.954 17.508-58.485 34.684-88.624 50.074-24.971 2.238-81.805-39.345-103.594-52.843 29.99-16.841 59.441-34.567 89.739-50.878zM2877.98 3546.91c34.168 15.649 64.628 38.588 98.766 54.445-31.61 18.662-63.014 38.111-95.877 54.482-27.571-5.552-73.567-39.074-99.764-53.734l96.875-55.193zM2325.243 3864.028c22.473 4.239 76.241 42.211 97.251 55.062-30.14 19.967-62.845 37.245-94.347 55.013-27.747-9.13-70.756-40.222-98.654-55.642 31.502-18.82 63.76-36.448 95.75-54.433zM2748.001 3952.623c26.427 2.546 76.771 38.709 100.727 53.907-31.412 18.022-62.684 36.406-94.874 53.019-26.344-6.2-72.516-38.777-99.094-52.275 28.011-21.239 62.458-37.723 93.241-54.651zM2736.388 3627.454c16.293-1.456 81.952 42.151 102.548 52.639-30.539 19.163-62.428 37.743-94.734 53.757-17.926.918-81.628-41.79-100.381-52.79l92.567-53.606zM3293.436 3474.145c22.127-1.554 82.391 41.97 101.832 54.204-31.306 15.845-60.904 35.075-92.157 51.187-23.402-.673-79.13-39.811-100.617-53.757 29.88-17.785 59.5-36.745 90.942-51.634zM2600.417 3705.267c20.276 3.164 78.472 43.224 98.853 55.408-30.226 18.753-61.528 36.219-92.83 53.129-22.594-1.58-78.991-41.535-102.42-53.934 32.965-15.517 64.775-36.361 96.397-54.603zM3012.281 3469.036c21.149-.715 79.852 42.065 102.058 53.768-30.576 17.947-60.972 36.35-92.454 52.662-26.984-.794-75.974-38.01-100.618-53.369a2333.789 2333.789 0 0 1 91.014-53.061zM2464.186 3783.359c33.157 17.617 65.283 37.585 97.654 56.634-31.453 19.178-63.493 39.146-96.755 54.98-33.303-16.522-65.136-37.743-97.841-55.668a5636.739 5636.739 0 0 1 96.942-55.946zM3483.122 3365.285c30.038 9.107 70.35 38.449 98.368 55.133-46.632 26.672-93.199 55.656-141.565 78.999-32.325-5.177-71.979-35.347-100.196-51.797 45.954-29.534 95.14-56.695 143.393-82.335zM3335.798 3284.097c28.635 1.753 76.997 38.153 102.246 53.738-47.188 24.952-92.443 53.549-139.703 78.479-25.776.647-79.047-38.668-101.272-52.402 45.853-26.954 91.379-55.589 138.729-79.815zM3626.308 3447.846c29.561 8.671 70.738 38.092 98.556 54.245-45.326 30.159-95.351 56.815-143.393 82.493-17.955-2.659-78.569-42.986-98.973-54.155 47.534-28.146 95.847-55.141 143.81-82.583zM3914.472 3614.762c21.42 1.215 77.177 41.244 97.713 53.737-45.029 29.41-94.279 56.164-141.862 81.308-33.962-7.783-69.255-37.046-101.396-52.097a6314.129 6314.129 0 0 1 145.545-82.948zM2331.951 4191.529c26.374.037 78.799 38.081 102.197 52.68-54.046 29.173-105.88 62.447-160.246 91.112-22.026 3.972-80.748-38.905-102.356-51.297a5308.176 5308.176 0 0 1 160.405-92.495zM2620.863 4355.296c27.988 3.434 74.258 37.825 100.147 53.738-52.154 32.728-106.569 63.533-160.852 92.605-29.342-2.487-75.267-37.186-100.779-52.771l161.484-93.572zM2048.734 4022.453c29.35 6.73 72.039 38.747 98.018 55.07-55.081 30.666-109.315 63.183-163.88 94.794-25.66-3.314-74.398-39.522-98.586-54.325a9771.079 9771.079 0 0 1 164.448-95.539zM2191.412 4105.661c24.494 2.02 75.715 41.565 100.306 54.434-52.741 32.359-108.965 67.005-164.855 93.214-32.983-5.635-70.538-35.305-98.913-52.703 53.109-33.443 109.097-63.503 163.462-94.945zM3768.332 3534.149c23.181-1.222 79.006 38.77 101.122 51.639-93.937 49.844-183.385 108.469-277.363 158.324-23.41 3.047-80.304-37.961-102.788-51.567 51.409-30.335 103.623-59.399 155.371-89.148 40.838-23.481 81.368-48.475 123.658-69.248zM2619.787 4191.856c33.002 16.631 65.034 37.005 97.16 55.381l-303.282 174.098c-26.325-6.636-73.724-39.872-98.725-54.592 99.203-61.509 203.394-117.038 304.847-174.887zM3589.522 3801.98c33.472 10.402 67.633 35.971 97.63 54.088-70.545 36.817-139.202 79.645-208.221 119.378l-381.603 219.137c-43.664 25.152-156.823 98.071-195.946 109.435-32.378-8.926-68.898-37.373-98.071-54.96 70.568-35.056 138.778-78.193 207.168-117.429l390.62-223.558c60.833-34.556 124.396-78.78 188.423-106.091z" class="fil14"/><path d="M4387.021 3954.315c1.858 5.572 3.672 10.88 4.499 16.729 5.383 3.059 13.693-4.476 16.669 1.554-3.085 1.264-6.23 2.31-9.314 3.525-3.931 1.542-5.496 3.938-8.013 7.143-3.544 12.076 1.693 24.17-4.917 34.997l-3.084.131-3.634-8.073-3.187-.09c-3.991 3.901-4.386 3.563-5.94 9.288-1.602 5.861-4.171 10.706-7.188 15.935-94.862 57.966-193.655 110.639-290.342 165.6l-562.931 319.653-543.114 308.18c-88.812 50.424-176.907 104.263-267.225 151.786-5.932 3.119-11.515 6.561-18.41 5.436-5.376.339-7.396-.109-12.403-2.607-40.59-20.284-79.724-46.511-118.941-69.545l-227.677-133.052c-282.581-165.073-563.431-334.088-847.78-496.008-60.208-36.715-122.026-70.914-182.475-107.295-.794-15.088-.109-29.966-1.81-45.055 2.081-5.635 2.716-11.417 3.574-17.331l622.232 366.316 238.485 141.008c40.91 24.226 81.609 50.721 123.572 72.927 25.231-1.035 279.256 152.342 321.437 177.065 25.212 14.78 55.807 37.893 83.246 47.32 4.491 1.542 6.748.884 11.326-.03 5.835-.278 7.814-1.313 12.862-3.961 62.537-32.807 123.508-70.369 184.83-105.425l363.58-207.841 1132.073-648.28z" style="fill:url(#id6);fill-rule:nonzero"/><path d="M2277.667 4695.467c25.231-1.035 279.256 152.342 321.437 177.065 25.212 14.78 55.807 37.893 83.246 47.32 4.491 1.542 6.748.884 11.326-.03-1.361 2.705-2.178 4.638-4.209 7.046-3.604 4.281-10.77 6.579-16.221 5.612-13.727-2.448-385.858-225.717-395.579-237.013z" class="fil14"/><path d="M2387.099 1747.211c81.519-42.938 160.905-91.939 240.798-137.943l481.205-277.295c68.5-39.285 135.814-83.517 206.1-119.288 14.185-7.215 29.233-14.829 45.446-15.288 9.608-.267 21.552 2.208 28.338 9.566 8.291 8.987 12.034 22.274 13.795 34.079 3.404 22.793 1.226 48.512 1.124 71.602l-.767 138.21c-1.241 134.737-3.461 270.915.271 405.592-2.351 38.886-1.065 78.322-1.016 117.268l.17 194.712c.188 246.253 4.318 493.19-.678 739.353-43.983 29.222-91.957 54.024-137.871 80.202l-245.425 139.884-1152.198 656.529-373.136 212.46c-62.615 35.643-127.56 69.485-188.591 107.633-4.646 2.908-8.799 5.666-11.286 10.729-.858 5.914-1.493 11.696-3.574 17.331-.579-2.261-1.414-5.218-1.802-7.614-6.797-41.617-1.869-123.851-1.839-170.151l.056-379.546.102-757.124c-.06-128.865-4.917-259.291.188-387.927.677-16.969 2.776-31.163 13.08-45.176 29.936-35.037 120.043-78.659 162.714-103.235a14537.543 14537.543 0 0 0 209.97-121.767c39.424-20.78 78.938-43.566 116.504-67.551 21.596-7.855 44.668-24.595 64.714-36.17l141.844-82.015 254.043-146.508c45.786-26.397 93.64-51.481 137.721-80.552z" class="fil16"/><path d="M1932.332 3269.347c.677.508 1.392.956 2.02 1.512 3.363 2.968 4.578 6.29 6.387 10.281l1.584-2.087-1.204-4.658c8.092-3.844 12.93-2.618 21.759-2.121 7.294 5.157 8.938 8.11 18.173 7.106.327-.038.658-.139.986-.207 27.969 20.652 44.799 46.778 52.861 80.401-5.564 6.696-14.423 8.318-22.443 10.797-16.436-10.458-29.952-24.065-44.036-37.393-16.251-17.447-36.926-38.25-36.087-63.631zM1977.071 2988.23c-.718 22.416-21.051 43.148-28.635 64.206l-13.339 9.537c-56.097 29.342-110.579 63.104-165.351 94.854-23.749 13.753-48.731 30.764-74.36 40.609-12.042 4.619-19.599 1.832-30.795-3.446-2.896-3.671-6.241-6.011-4.946-11.135 2.764-10.909 13.783-19.727 22.431-26.009 29.256-21.27 63.741-36.576 95.054-54.603 66.129-38.04 131.363-80.571 199.941-114.013z" class="fil17"/><path d="M2100.64 2786.509c-43.07 21.657-404.905 230.209-421.934 230.882-5.218.2-10.007-2.099-12.783-6.628-3.461-5.673-2.167-9.672-.925-15.604 20.065-21.051 54.008-32.559 79.167-46.801a18384.37 18384.37 0 0 1 384.124-212.769c-1.475 12.422-5.297 20.604-11.048 31.573l-6.061 11.805-10.54 7.542zM2169.733 3208.981l3.126 2.201c15.676 3.84 159.46-83.28 186.094-96.916l43.295 37.953c-80.887 41.244-159.479 88.087-238.617 132.646-30.286 17.048-61.381 37.531-92.962 51.747-5.323 2.397-10.988 3.431-16.811 3.713 35.304-45.108 75.695-90.517 115.875-131.344z" class="fil18"/><path d="M2152.184 2566.755c9.499-1.343 13.539.218 21.172 5.582 3.246 6.538 3.555 6.707 2.129 13.813-12.768 16.944-436.327 256.534-486.739 282.273-6.357.839-14.032 2.298-19.806-1.163-5.135-3.077-5.394-3.784-6.73-9.227 4.322-10.958 16.684-19.686 26.228-26.077 33.532-22.455 70.737-39.545 105.485-59.986a25917.32 25917.32 0 0 1 358.261-205.215z" class="fil19"/><path d="M1968.419 3332.978c14.084 13.328 27.6 26.935 44.036 37.393-28.127 13.008-55.243 30.207-82.335 45.398l-142.062 79.972c-23.598 13.539-47.256 29.523-71.911 40.809-8.201 3.761-17.545 6.56-26.622 6.857-8.551.279-19.81-2.437-25.205-9.724-3.731-5.037-3.822-10.71-2.148-16.481 2.637-9.077 11.425-16.296 18.663-21.63 32.536-23.978 73.096-42.727 108.45-62.604 59.508-33.454 118.629-68.428 179.134-99.99zM1833.456 3247.619c31.483-9.544 139.853-76.538 175.632-96.634 9.228-5.176 25.084-16.77 35.026-18.456 2.826-.477 8.054.817 11.068 1.118-35.692 41.094-75.384 80.213-108.837 123.041l.786 3.563c.737.128 1.463.248 2.2.399 12.998 2.614 23.102 9.664 32.706 18.523-.328.068-.659.169-.986.207-9.235 1.004-10.879-1.949-18.173-7.106-8.829-.497-13.667-1.723-21.759 2.121l1.204 4.658-1.584 2.087c-1.809-3.991-3.024-7.313-6.387-10.281-.628-.556-1.343-1.004-2.02-1.512 2.637-4.367 3.374-4.221 3.036-9.593-26.555-4.661-204.67 125.965-249.677 127.06-6.38.162-13.896-1.761-17.974-7.046-3.961-5.135-4.123-12.61-2.859-18.693 2.37-11.326 10.421-20.453 19.201-27.521 16.413-13.215 37.336-21.318 55.897-31.084 31.791-16.71 63.898-34.455 93.5-54.851z" class="fil18"/><path d="M2145.18 2722.441c11.635-27.641 64.387-116.759 82.5-140.47 4.627-6.06 11.169-10.969 17.162-15.585-38.503 94.038-53.162 186.135-41 287.257-8.16 10.898-186.015 111.207-206.209 117.598 6.749-28.458 69.861-121.687 88.911-154.645 3.942-6.816 15.916-23.278 14.096-30.087l10.54-7.542 6.061-11.805c5.751-10.969 9.573-19.151 11.048-31.573 6.279-3.641 11.395-8.442 16.891-13.148z" class="fil20"/><path d="M2145.18 2722.441c8.829 2.16 16.42 3.157 22.89 9.883 1.088 3.731 2.57 5.515.817 9.318-7.445 16.044-41.922 30.185-57.707 37.325l6.061-11.805c5.751-10.969 9.573-19.151 11.048-31.573 6.279-3.641 11.395-8.442 16.891-13.148z" class="fil19"/><path d="M2203.842 2853.643c3.524 17.556 6.88 35.116 11.657 52.383l12.719 37.205c-57.966 63.194-114.472 127.811-173.036 190.416-3.014-.301-8.242-1.595-11.068-1.118-9.942 1.686-25.798 13.28-35.026 18.456-35.779 20.096-144.149 87.09-175.632 96.634 5.466-45.375 87.997-133.801 101.641-185.646l13.339-9.537c7.584-21.058 27.917-41.79 28.635-64.206l20.562-16.989c20.194-6.391 198.049-106.7 206.209-117.598z" class="fil20"/><path d="M2203.842 2853.643c3.524 17.556 6.88 35.116 11.657 52.383-45.578 8.679-208.341 118.475-267.063 146.41 7.584-21.058 27.917-41.79 28.635-64.206l20.562-16.989c20.194-6.391 198.049-106.7 206.209-117.598z" class="fil18"/><path d="M2244.842 2566.386c53.237-110.113 126.551-209.534 221.835-287.02 88.899-72.291 203.003-128.455 320.421-115.796 87.816 9.464 161.491 63.232 215.496 130.595-1.245-.199-2.498-.369-3.743-.606-6.918-1.335-53.2-30.617-72.208-37.622-107.735-39.725-228.505-5.146-322.694 52.839-154.291 94.975-269.47 262.696-310.798 438.43-27.529 117.109-21.077 233.778 43.28 337.3 3.532 5.673 7.603 10.311 8.43 17.041a429.175 429.175 0 0 1 14.092 12.719c-26.634 13.636-170.418 100.756-186.094 96.916l-3.126-2.201c-40.18 40.827-80.571 86.236-115.875 131.344l-18.96 19.249c-8.062-33.623-24.892-59.749-52.861-80.401-9.604-8.859-19.708-15.909-32.706-18.523-.737-.151-1.463-.271-2.2-.399l-.786-3.563c33.453-42.828 73.145-81.947 108.837-123.041 58.564-62.605 115.07-127.222 173.036-190.416l-12.719-37.205c-4.777-17.267-8.133-34.827-11.657-52.383-12.162-101.122 2.497-193.219 41-287.257z" class="fil13"/><path d="M2302.687 3059.625c12.271 15.616 26.796 29.421 42.174 41.922a429.175 429.175 0 0 1 14.092 12.719c-26.634 13.636-170.418 100.756-186.094 96.916l-3.126-2.201c44.502-49.445 90.464-98.199 132.954-149.356z" class="fil20"/><path d="M2344.861 3101.547c-.827-6.73-4.898-11.368-8.43-17.041-64.357-103.522-70.809-220.191-43.28-337.3 41.328-175.734 156.507-343.455 310.798-438.43 94.189-57.985 214.959-92.564 322.694-52.839 19.008 7.005 65.29 36.287 72.208 37.622 1.245.237 2.498.407 3.743.606 17.846 24.008 38.269 46.195 53.877 71.783 49.298 80.819 55.141 182.212 41.722 273.88-26.047 178.092-133.349 350.832-277.593 457.329-89.001 65.712-200.655 111.636-312.946 94.527-38.19-5.816-72.14-20.306-105.406-39.465l-43.295-37.953a429.175 429.175 0 0 0-14.092-12.719z" style="fill:url(#id4);fill-rule:nonzero"/><path d="M2946.659 2312.47c59.558 33.981 95.092 90.954 112.927 156.135 29.022 106.132 5.951 217.177-32.886 317.347-1.633-3.494-3.036-5.913-5.335-9.118-2.208 2.249-3.265 3.415-5.842 5.563-6.587 5.496-8.449 6.373-16.909 5.485-5.165-11.842-4.161-28.364-6.06-41.244-1.693-11.406-1.039-19.43-11.132-26.567-.963-.684-1.967-1.331-2.953-2.008l-1.346-12.343a452.394 452.394 0 0 0 24.218-95.43c12.76-89.87 1.373-222.862-54.682-297.82z" class="fil16"/><path d="m2977.123 2705.72 1.346 12.343c.986.677 1.99 1.324 2.953 2.008 10.093 7.137 9.439 15.161 11.132 26.567 1.899 12.88.895 29.402 6.06 41.244 8.46.888 10.322.011 16.909-5.485 2.577-2.148 3.634-3.314 5.842-5.563 2.299 3.205 3.702 5.624 5.335 9.118-63.699 147.276-176.569 284.244-328.919 344.279-77.347 30.478-165.423 38.461-242.98 3.901-33.989-15.149-71.693-44.318-85.04-80.071-.388-1.045-.745-2.11-1.125-3.167 19.163 9.326 39.397 20.325 60.249 25.035 30.456 8.31 60.633 12.072 92.244 10.898 47.448-3.393 92.375-13.855 135.922-33.115 145.237-64.237 263.061-201.442 320.072-347.992z" style="fill:url(#id3);fill-rule:nonzero"/><path d="M2384.413 2586.929c8.291-16.574 18.723-32.837 28.816-48.403 78.05-120.352 198.146-226.323 341.453-256.026 66.076-13.705 134.647-7.404 191.977 29.97 56.055 74.958 67.442 207.95 54.682 297.82a452.211 452.211 0 0 1-24.218 95.43c-57.011 146.55-174.835 283.755-320.072 347.992-43.547 19.26-88.474 29.722-135.922 33.115-31.611 1.174-61.788-2.588-92.244-10.898-20.852-4.71-41.086-15.709-60.249-25.035-9.375-7.674-15.694-15.713-22.631-25.468-8.122-17.616-15.142-34.838-20.893-53.369-11.624-43.039-14.002-84.084-14.231-128.376.786-19.23 3.193-38.122 5.65-57.191 6.609-51.311 23.662-105.075 45.409-151.778 6.29-16.232 14.987-32.017 22.473-47.783z" style="fill:#7676ab;fill-rule:nonzero"/><path d="M2316.531 2786.49c13.279 2.705 23.184 4.24 31.027 15.973 1.024 7.922.497 12.613-4.36 19.212-7.106 9.675-21.498 17.157-32.317 22.006.786-19.23 3.193-38.122 5.65-57.191zM2428.885 3075.929c15.924-13.467 49.07-36.418 70.835-34.251 7.009.707 13.088 3.814 17.139 9.664 6.738 9.735 4.778 24.237 4.27 35.485-31.611 1.174-61.788-2.588-92.244-10.898zM2384.413 2586.929c.767-.09 1.542-.162 2.31-.289 21.389-3.454 44.48-21.221 63.371-31.961l159.63-91.341c28.842-16.631 58.914-38.329 90.223-49.554 10.135-3.634 20.435-6.102 30.358-1.415.102 7.178-3.592 11.756-8.302 16.793-18.392 19.637-315.794 190.653-353.254 206.05l-6.809-.5c6.29-16.232 14.987-32.017 22.473-47.783z" class="fil24"/><path d="M2387.099 1747.211c81.519-42.938 160.905-91.939 240.798-137.943l481.205-277.295c68.5-39.285 135.814-83.517 206.1-119.288 14.185-7.215 29.233-14.829 45.446-15.288 9.608-.267 21.552 2.208 28.338 9.566 8.291 8.987 12.034 22.274 13.795 34.079 3.404 22.793 1.226 48.512 1.124 71.602l-.767 138.21c-8.449-.278-14.697 2.818-22.104 6.7-69.184 36.279-136.479 78.539-204.11 117.715l-393.22 227.639-991.105 573.871c-167.315 96.833-333.761 195.746-502.298 290.413-.587-70.471-9.017-222.257 9.288-282.183 29.936-35.037 120.043-78.659 162.714-103.235a14537.543 14537.543 0 0 0 209.97-121.767c39.424-20.78 78.938-43.566 116.504-67.551 21.596-7.855 44.668-24.595 64.714-36.17l141.844-82.015 254.043-146.508c45.786-26.397 93.64-51.481 137.721-80.552z" style="fill:url(#id2);fill-rule:nonzero"/><path d="M1443.979 2405.812c5.714-.778 11.237-1.365 16.981-.47 8.776 1.384 17.037 5.605 21.668 13.479 4.917 8.34 4.04 18.579 1.381 27.487-5.632 18.855-17.267 29.662-33.928 39.067-6.858 1.106-13.449 1.994-20.325.478-8.002-1.75-15.27-6.279-19.299-13.524-4.969-8.938-3.961-20.107-.985-29.512 5.812-18.425 17.635-28.687 34.507-37.005z" class="fil13"/><path d="M3886.198 1324.34c57.059-33.8 115.386-65.772 173.055-98.537 39.473-22.436 78.728-46.959 119.348-67.145 39.115-19.438 64.805-8.698 103.364 4.48-46.451 17.308-88.445 43.863-131.382 68.319-70.918 40.368-141.294 82.124-213.168 120.72-12.918-6.835-26.923-10.051-38.577-19.606-4.161-3.416-7.863-5.733-12.64-8.231zM1484.31 715.951c9.592-9.999 333.083-194.637 364.645-209.206 37.072-17.117 75.232 2.486 110.639 15.528-15.1-.763-31.87 8.152-45.199 14.69-38.938 19.095-76.32 43.235-113.825 65.05-86.014 50.036-171.611 101.915-258.979 149.499-11.417-2.912-42.761-17.933-50.145-27.165-6.053-7.553 2.377 1.392-4.936-6.188-.73-.748-1.474-1.471-2.2-2.208zM398.06 2172.162c90.013-48.137 178.22-100.46 266.995-150.853 41.275-23.429 82.685-50.123 125.95-69.572 40.489-18.203 75.398-2.309 113.791 12.343-4.619 1.125-7.121 2.848-11.119 5.206-12.294 7.234-27.18 11.305-40.026 18.034-31.976 16.752-63.15 35.335-94.512 53.2l-183.54 104.09c-37.374 21.141-74.507 43.554-113.05 62.495-11.019-9.295-50.984-31.231-64.489-34.943zM126.505 3666.656c33.172-15.596 65.309-36.704 97.183-54.941l193.775-111.294c32.205-18.565 64.952-39.902 99.109-54.584 43.562-18.73 73.822-3.104 114.514 13.08-16.044 7.512-32.837 13.155-48.629 21.149-45.198 22.872-88.96 49.927-132.917 75.135l-253.588 145.078c-17.177-3.126-44.898-14.291-57.898-25.986-3.006-2.709-4.646-4.123-8.111-5.914-1.14-.587-2.295-1.144-3.438-1.723z" class="fil1"/><path d="M2810.688 786.147c-8.532-47.847-9.096-425.418 1.185-467.377 9.694-39.552 42.749-66.705 75.933-86.891 16.243 11.914 37.851 19.329 51.435 34.03-42.121 34.891-67.611 70.91-72.806 126.371-4.808 51.371-1.163 106.053-1.046 157.744.222 94.261-.188 188.389 3.355 282.593-21.16-13.927-41.244-27.33-58.056-46.47zM1391.438 1245.789c6.538-98.229 1.67-199.55 1.361-298.087-.139-41.361-6.282-94.155 4.887-133.748 12.73-45.115 47.218-75.707 86.624-98.003.726.737 1.47 1.46 2.2 2.208 7.313 7.58-1.117-1.365 4.936 6.188 7.384 9.232 38.728 24.253 50.145 27.165-38.412 24.151-69.884 68.397-79.867 112.79-8.957 39.872-5.094 85.582-4.925 126.379l.764 161.766c.301 55.66-4.386 166.397 4.77 216.869-30.516-17.586-64.508-38.069-67.803-76.38-.775-9.066-.297-17.157-5.842-24.843l-11.466 5.436-2.886-2.291c1.234-9.495 11.03-18.294 17.102-25.449zM398.06 2172.162c13.505 3.712 53.47 25.648 64.489 34.943-46.282 36.828-77.554 79.258-84.235 139.214-7.678 68.928-1.554 166.25-1.204 237.751.436 87.858-5.902 180.523 4.518 267.594-21.533-13.768-52.278-29.293-66.249-51.071-6.606-10.292-6.527-31.652-7.107-43.746-4.254-88.7-.635-179.146-.583-268.019.03-53.963-6.515-172.13 5.128-217.855 10.71-42.042 49.227-77.741 85.243-98.811z" class="fil26"/><path d="M4281.965 1163.138c17.308 8.927 27.13 14.762 33.363 34.44 2.765 8.716 4.059 17.763 4.458 26.882 2.329 52.891-.986 107.125-.617 160.235.436 62.378 5.684 129.004-.489 190.924-2.039 20.46-7.693 39.243-17.624 57.258-10.074 18.264-22.447 32.638-39.078 45.259-49.227 37.344-109.834 65.561-163.85 96.126-59.599 33.732-120.762 75.139-184.401 100.459-17.271-1.655-29.132-6.173-44.134-14.385-15.814-9.871-34.695-19.855-46.707-34.387-6.681-8.073-8.821-15.875-10.085-26.167-6.956-56.612-2.11-118.663-2.058-175.771.057-69.624-4.021-142.412 2.498-211.674.628-2.276 1.29-4.548 1.979-6.809 11.398-36.915 37.366-63.402 70.978-81.188 4.777 2.498 8.479 4.815 12.64 8.231 11.654 9.555 25.659 12.771 38.577 19.606 71.874-38.596 142.25-80.352 213.168-120.72 42.937-24.456 84.931-51.011 131.382-68.319z" style="fill:url(#id10);fill-rule:nonzero"/><path d="m4196.906 1454.149 15.736-9.355c10.202-5.982 25.497-8.769 37.072-5.436 6.381 1.832 11.158 5.345 14.205 11.308 7.366 14.453 2.569 37.084-2.569 51.586-4.947 13.994-14.589 27.751-22.323 40.439-13.764 6.411-24.975 13.001-36.757 22.756-12.839-4.372-25.708-8.532-38.122-14.017 7.475-16.025 1.106-27.183 4.819-42.569 4.446-18.421 18.602-34.567 26.615-51.808l1.324-2.904z" class="fil28"/><path d="M4220.812 1476.472c4.737.749 7.505 1.772 11.587 4.292l1.252 5.383c-3.235 13.607-12.421 25.483-19.836 37.175-1.881-.139-5.304-.286-7.015-.914-5.726-2.081-5.745-5.662-7.227-10.838 2.547-15.269 9.871-24.945 21.239-35.098z" class="fil14"/><path d="M4152.603 1574.832c9.077 3.623 23.778 7.295 29.53 15.326 3.544 27.413 3.006 52.673-14.708 75.575-13.317 17.229-30.546 26.735-48.205 38.717-11.338-2.378-31.591-5.662-38.509-15.266-4.191-5.823-2.976-15.032-2.299-21.799.805-7.96-.568-12.253-4.33-19.159 27.142-25.521 38.898-63.602 78.521-73.394z" style="fill:#4bd9c4;fill-rule:nonzero"/><path d="M4139.057 1614.595c3.893 12.749 2.497 21.13-4.041 32.784-3.017 5.365-6.936 10.112-10.868 14.822-4.22-5.556-5.386-7.008-5.447-14.303-.086-12.79 11.598-25.343 20.356-33.303z" class="fil14"/><path d="M4139.057 1614.595c8.212 1.493 10.691 1.174 16.879 7.087 1.994 7.125 2.351 12.271-1.162 19.08-4.101 7.953-13.28 18.211-22.165 20.581-2.6.696-5.763.798-8.461.858 3.932-4.71 7.851-9.457 10.868-14.822 6.538-11.654 7.934-20.035 4.041-32.784z" class="fil30"/><path d="M3813.241 1412.337c.628-2.276 1.29-4.548 1.979-6.809 11.398-36.915 37.366-63.402 70.978-81.188 4.777 2.498 8.479 4.815 12.64 8.231 11.654 9.555 25.659 12.771 38.577 19.606-35.135 25.66-62.375 57.523-69.612 101.901-7.336 45.01-2.758 95.253-2.487 140.937.527 88.504.23 176.907 4.277 265.321-15.814-9.871-34.695-19.855-46.707-34.387-6.681-8.073-8.821-15.875-10.085-26.167-6.956-56.612-2.11-118.663-2.058-175.771.057-69.624-4.021-142.412 2.498-211.674zM4074.124 1381.151c7.294-.308 13.663-1.941 20.152 1.625 19.448 10.68 23.523.297 43.607-5.086 9.145-2.46 15.337-2.611 23.598 2.05 4.149 5.365 5.466 8.239 6.369 14.969-2.698 7.064-5.056 12.433-4.18 20.186 4.499 7.482 9.965 10.71 17.32 15.216 9.931 6.102 12.041 13.607 15.916 24.038l-1.324 2.904c-8.013 17.241-22.169 33.387-26.615 51.808-3.713 15.386 2.656 26.544-4.819 42.569-6.32 5.534-14.859 11.297-17.067 19.629 1.929 1.742 2.994 3.006 5.522 3.773-39.623 9.792-51.379 47.873-78.521 73.394-8.618-4.36-15.047-5.165-24.692-5.256-1.065-.011-2.141 0-3.205 0l-5.575-6.598c-12.52-4.488-29.771 13.975-44.51 14.611-6.422.267-11.985-2.031-16.124-7.027-8.212-9.905-3.253-18.433-1.952-29.711.944-8.133-3.86-13.148-8.69-18.899-4.597-1.584-8.855-3.228-13.185-5.406-5.255-10.33-2.949-23.767-2.502-35.105 37.856-39.236 9.966-48.411 28.696-80.293 20.573-35.004 47.41-28.744 65.076-75.684l26.705-17.707z" class="fil26"/><path d="M4093.264 1428.4c10.849-1.494 21.16-2.002 31.37 2.659 9.506 4.338 15.897 11.624 19.02 21.578 7.884 25.073-2.457 58.214-14.363 80.74-15.198 28.774-38.367 53.915-70.068 63.71-7.317.617-15.826.994-22.932-1.117-9.058-2.675-18.565-9.085-23.022-17.594-9.168-17.511-3.664-44.811 2.279-62.924 13.148-40.105 40.846-68.021 77.716-87.052z" class="fil31"/><path d="M4086.752 1459.006c2.63-.019 5.842-.188 8.382.526 5.492 1.565 10.77 7.268 13.109 12.373 4.609 10.052 1.272 24.256-2.023 34.169-9.115 27.431-24.99 48.682-50.789 61.709-2.298-.388-2.569-.369-5.067-1.133-6.978-2.121-11.176-6.827-14.412-13.189-4.995-9.822-2.968-22.653.26-32.675 8.539-26.524 25.987-48.73 50.54-61.78z" class="fil14"/><path d="M3284.061 64.982c11.873-5.767 25.498-12.696 38.736-13.621 13.685 7.06 24.358 14.152 34.906 25.618 11.278 52.18 5.575 176.162 5.853 236.389.29 65.659 7.257 150.657-2.37 214.42-3.829 25.37-12.959 44.36-26.784 65.9-7.433 11.586-16.014 22.657-27.123 30.937-35.692 26.608-356.85 215.677-388.19 223.204-18.693 4.492-34.628-6.748-50.345-15.212-3.543-94.204-3.133-188.332-3.355-282.593-.117-51.691-3.762-106.373 1.046-157.744 5.195-55.461 30.685-91.48 72.806-126.371 115.319-65.78 232.157-130.705 344.82-200.927z" style="fill:url(#id9);fill-rule:nonzero"/><path d="m3104.795 614.972 20.961-10.405c.188 13.851-1.723 30.603 4.905 43.088l-20.246 12.456c-.696-12.768.538-34.357-5.62-45.139zM3138.825 480.513c-11.181 2.16-22.914 4.985-34.282 5.658-15.585.922-33.051-2.189-44.897-13.057-10.281-9.427-14.085-22.785-13.885-36.418.538-35.614 20.506-70.704 45.319-94.99-15.179 26.923-33.556 69.823-24.05 101.02 3.724 12.192 11.466 20.758 22.913 26.269 14.006 6.741 31.066 4.984 46.143 4.175 11.308-1.546 25.031-5.183 34.876 2.476 5.244 4.089 6.688 8.904 6.621 15.337-.143 12.342-11.109 25.727-19.502 33.864-1.064-11.038 1.475-21.33-.308-32.42-6.042-7.753-9.961-8.362-18.948-11.914z" class="fil30"/><path d="M3091.08 341.706c14.302-15.36 38.359-34.304 36.587-57.334-.417-5.444-1.456-10.883-2.43-16.251 2.329-8.378 7.396-11.711 14.701-15.777a270.565 270.565 0 0 1 33.093-15.977l.47 37.494c18.621-5.71 36.08-10.695 55.638-11.947-3.834 19.708-7.833 39.269-12.682 58.756-26.863 9.179-71.053 18.308-85.408 45.533-4.27 8.099-5.316 14.34-3.574 23.24 4.3 5.056 6.689 7.498 13.577 8.303 30.218 3.54 63.123-12.602 87.868 13.505 9.894 10.443 12.034 24.207 11.049 38.069-3.706 52.309-35.354 91.849-69.135 129.042.666 17.049 4.161 36.185-9.017 49.528-8.114 8.213-21.081 14.122-31.156 19.765-6.628-12.485-4.717-29.237-4.905-43.088l-20.961 10.405c-14.024 6.042-29.004 8.585-43.897 11.662 1.238-14.227 3.126-28.263 5.147-42.392l-4.199-4.228 2.728-6.617-3.198 6.237-1.64-3.269c17.09-23.598 48.023-22.105 72.261-33.217 9.724-4.458 17.944-11.485 26.084-18.301 8.393-8.137 19.359-21.522 19.502-33.864.067-6.433-1.377-11.248-6.621-15.337-9.845-7.659-23.568-4.022-34.876-2.476-15.077.809-32.137 2.566-46.143-4.175-11.447-5.511-19.189-14.077-22.913-26.269-9.506-31.197 8.871-74.097 24.05-101.02z" style="fill:url(#id1);fill-rule:nonzero"/><path d="M1541.591 751.512c87.368-47.584 172.965-99.463 258.979-149.499 37.505-21.815 74.887-45.955 113.825-65.05 13.329-6.538 30.099-15.453 45.199-14.69 14.75 8.006 28.913 14.525 34.405 31.747 9.07 28.386 10.601 434.276 4.71 479.768-2.915 22.544-12.252 44.45-23.161 64.218a164.996 164.996 0 0 1-19.468 27.807 165.325 165.325 0 0 1-24.726 23.252c-34.229 25.75-385.324 228.445-412.985 235.521-21.709 5.545-37.735-5.075-56.036-15.27-9.156-50.472-4.469-161.209-4.77-216.869l-.764-161.766c-.169-40.797-4.032-86.507 4.925-126.379 9.983-44.393 41.455-88.639 79.867-112.79z" style="fill:url(#id11);fill-rule:nonzero"/><path d="m1890.986 816.192 6.53 2.088 1.512 4.977c-7.305 14.694-27.333 24.723-40.778 33.187-3.792-.707-5.116-1.587-8.261-3.668.098-.82 0-1.689.297-2.456 5.944-15.273 27.401-26.13 40.7-34.128zM1733.843 726.883l6.271 3.213c4.608 6.891 5.405 16.578 4.469 24.692-1.58 13.81-5.165 20.581-15.954 29.237l-3.115.557-2.885-3.766c.617-19.415.696-36.79 11.214-53.933zM1823.574 958.506c4.408-.101 8.746.666 12.978 1.926 7.614 2.265 10.77 5.981 14.43 12.753-.338 9.54-2.129 11.534-7.046 19.422-4.977-.124-10.42-.685-15.19-2.163-7.234-2.235-9.273-4.721-13.125-11.003-.669-8.95 3.194-13.648 7.953-20.935zM1625.525 841.938c5.225 2.069 10.856 4.029 15.754 6.783 6.392 3.596 8.002 6.67 9.954 13.46-3.811 8.844-6.869 10.525-14.302 16.349-5.267.128-13.159-2.536-17.369-5.523-3.156-2.227-4.209-5.492-4.548-9.303-.748-8.351 5.861-15.551 10.511-21.766z" class="fil35"/><path d="M1616.605 973.937c2.867-29.022 21.27-83.723 41.753-104.041l-1.072 3.544c-14.502 46.361-47.836 96.081-21.886 146.06 13.941 26.856 43.482 33.876 59.109 59.373-3.98 11.846-6.978 23.35-15.924 32.548a345.382 345.382 0 0 0 5.105-15.127c-2.426-5.834-4.887-11.816-8.558-17.003a33.937 33.937 0 0 0-4.232-4.985 34.204 34.204 0 0 0-5.105-4.07 34.096 34.096 0 0 0-5.804-3.006 33.429 33.429 0 0 0-6.268-1.832c-7.644 25.08-26.675 45.876-43.757 65.133 5.007-27.74 19.471-50.394 37.377-71.663-3.923-2.178-7.726-4.289-11.138-7.257-17.09-14.897-19.468-36.068-21.559-57.202-19.269 14.487-39.108 26.513-61.213 36.181 1.791-2.607 3.634-5.165 5.455-7.753 15.814-22.529 35.045-34.364 57.717-48.9z" class="fil30"/><path d="M1694.509 1078.873c26.705-17.387 54.772-32.603 82.512-48.253 10.221 16.661 9.995 40.839 4.966 59.422-7.234 26.754-26.943 56.781-51.567 70.35-10.996 6.06-31.829 1.095-45.643 4.082-3.713-2.201-4.89-1.772-6.124-6.234-3.213-11.533 5.594-30.346 9.495-41.474l-1.719-.527-10.153 5.824-2.13-2.479c1.313-2.6 2.566-5.951 4.439-8.163 8.946-9.198 11.944-20.702 15.924-32.548z" class="fil20"/><path d="M1658.358 869.896c25.313-38.611 61.671-79.769 109.217-89.46 17.162-3.498 37.385-2.99 52.015 7.795 15.668 11.549 20.961 32.754 22.883 51.176 6.053 57.939-23.169 104.887-48.659 154.144-6.234 12.038-10.432 25.295-16.793 37.069-27.74 15.65-55.807 30.866-82.512 48.253-15.627-25.497-45.168-32.517-59.109-59.373-25.95-49.979 7.384-99.699 21.886-146.06l1.072-3.544z" class="fil35"/><path d="M462.549 2207.105c38.543-18.941 75.676-41.354 113.05-62.495l183.54-104.09c31.362-17.865 62.536-36.448 94.512-53.2 12.846-6.729 27.732-10.8 40.026-18.034 3.998-2.358 6.5-4.081 11.119-5.206 16.379 6.876 29.207 13.516 42.069 26.167 15.284 49.844 8.107 117.813 8.144 170.588.061 86.898-2.02 174.439.501 261.251-.219 41.952 1.26 81.944-13.592 121.864-14.058 26.894-29.545 53.497-53.621 72.758-27.939 22.345-62.39 38.938-93.496 56.495l-150.914 85.149-118.249 66.577c-25.163 14.193-51.616 31.742-78.851 41.304-22.018 7.724-40.022-1.173-59.196-11.356a696.933 696.933 0 0 1-5.963-3.213c-10.42-87.071-4.082-179.736-4.518-267.594-.35-71.501-6.474-168.823 1.204-237.751 6.681-59.956 37.953-102.386 84.235-139.214z" style="fill:url(#id7);fill-rule:nonzero"/><path d="M534.298 2456.691c13.652-65.204 31.223-125.969 76.579-176.975 14.818-16.665 33.665-33.006 56.642-34.221-52.176 56.047-82.147 117.18-91.961 193.538-41.772 34.609-66.859 79.837-71.637 134.162-2.095 23.827-1.636 51.089 15.111 70.03 7.02 7.93 16.263 11.951 25.878 15.845-9.679 5.492-21.119 11.116-32.318 12.12-12.403 1.106-26.705-2.208-35.816-11.086-13.761-13.396-15.247-36.241-14.863-54.396 1.305-61.957 28.492-107.52 72.385-149.017z" class="fil37"/><path d="M667.519 2245.495c22.522-15.21 52.188-32.288 80.586-27.819 14.596 2.291 25.957 11.677 34.237 23.5 12.064 17.229 13.527 42.659 26.009 57.56 18.222-.181 37.129-7.076 52.289 6.827 14.856 13.637 16.093 38.021 16.138 56.902.109 45.574-15.16 95.17-48.098 127.988-30.719 30.595-244.703 156.462-283.77 168.617-9.615-3.894-18.858-7.915-25.878-15.845-16.747-18.941-17.206-46.203-15.111-70.03 4.778-54.325 29.865-99.553 71.637-134.162 9.814-76.358 39.785-137.491 91.961-193.538z" style="fill:url(#id0);fill-rule:nonzero"/><path d="M631.086 3458.917c17.808 6.579 32.536 12.899 41.06 31.212 3.002 6.447 4.594 12.869 5.188 19.937 7.572 89.716 4.307 191.349 4.469 282.032.113 64.019 4.39 130.972-.636 194.705a176.83 176.83 0 0 1-4.503 27.152 177.244 177.244 0 0 1-8.644 26.134c-10.808 26.318-29.339 55.671-51.267 74.093-28.507 23.947-65.786 41.974-98.164 60.475L360.02 4265.17l-115.127 65.851c-19.776 11.289-40.105 25.012-61.235 33.345-19.757 7.79-39.634 8.648-59.076-.29-5.868-2.708-11.326-6.162-16.74-9.664-24.685-16.383-50.186-31.562-68.405-55.449-4.931-43.239-2.9-88.904-4.86-132.597l-5.361-22.383V3797.643l5.745-6.301c.199-5.116.948-10.033 2.02-15.059 10.578-49.479 49.107-83.369 89.524-109.627 1.143.579 2.298 1.136 3.438 1.723 3.465 1.791 5.105 3.205 8.111 5.914 13 11.695 40.721 22.86 57.898 25.986l253.588-145.078c43.957-25.208 87.719-52.263 132.917-75.135 15.792-7.994 32.585-13.637 48.629-21.149zM34.961 3791.342l-5.745 6.301V4143.983l5.361 22.383c1.96 43.693-.071 89.358 4.86 132.597 18.219 23.887 43.72 39.066 68.405 55.449-10.774-101.979-5.033-207.991-5.251-310.648-.124-59.373-6.813-171.016 5.21-222.384 11.624-49.667 44.901-94.516 88.151-121.101-17.177-3.126-44.898-14.291-57.898-25.986-3.006-2.709-4.646-4.123-8.111-5.914-1.14-.587-2.295-1.144-3.438-1.723-40.417 26.258-78.946 60.148-89.524 109.627-1.072 5.026-1.821 9.943-2.02 15.059z" style="fill:url(#id8);fill-rule:nonzero"/><path d="M288.816 3755.153c9.111 4.04 18.531 7.633 26.611 13.554 9.661 10.063 19.607 17.331 19.603 32.318a129.708 129.708 0 0 1-.188 5.913c-2.291 6.441-5.255 12.313-3.653 19.231l-4.668 13.892c-15.706-8.449-30.708-18.444-45.811-27.939 2.099-7.016 3.171-14.502 4.548-21.706 2.595-11.338 2.693-23.658 3.558-35.263z" class="fil26"/><path d="M260.193 3771.427c8.106 6.726 16.476 12.899 25.065 18.989-1.377 7.204-2.449 14.69-4.548 21.706 15.103 9.495 30.105 19.49 45.811 27.939-4.187 7.178-7.956 13.618-13.78 19.588l20.186 16.086c9.461 6.259 18.527 12.681 27.488 19.648 10.078 7.305 20.378 14.272 29.203 23.09l-6.117 9.893c-13.038 8.848-22.958 21.747-35.594 30.038l-.199 4.778c-11.598 8.043-23.696 19.866-36.268 25.453.459 10.25 2.912 19.279 5.564 29.112l.191 2.111c-13.298 8.261-19.892 22.273-35.267 27.341l5.666 19.697-2.4 3.412c-2.449 3.543-4.052 6.997-5.812 10.909-5.685 12.651-12.072 17.131-23.918 23.948-.655.368-1.298.767-1.945 1.143 14.886 28.368 32.856 50.95 64.737 61.032 15.747 4.988 31.329 5.507 47.674 6.113a249.764 249.764 0 0 1-5.395 2.957c-23.646 12.561-47.959 16.631-73.765 7.971-27.582-9.254-48.027-28.364-60.573-54.475-35.418-73.702-14.562-172.058 11.413-245.256-8.396-6.248-17.872-11.285-26.893-16.601 11.79-11.842 24.384-22.074 37.532-32.367 5.12-21.401 9.085-42.441 11.944-64.255z" class="fil37"/><path d="M280.71 3812.122c15.103 9.495 30.105 19.49 45.811 27.939-4.187 7.178-7.956 13.618-13.78 19.588-4.239 3.562-8.866 6.937-12.421 11.199-3.021 1.84-6.941 4.706-10.326 5.631-8.607 2.352-12.572-1.452-19.829-5.304-6.316-8.975-21.107-17.259-30.347-24.008 14.438-11.056 27.857-22.364 40.892-35.045z" class="fil31"/><path d="M237.136 4020.832c4.729-.895 8.991-2.569 13.396-4.462 9.281-3.991 13.155-5.733 23.387-4.13l2.773 7.715c1.219 9.375 2.648 18.144 5.236 27.244l5.666 19.697-2.4 3.412c-2.449 3.543-4.052 6.997-5.812 10.909-5.685 12.651-12.072 17.131-23.918 23.948-.655.368-1.298.767-1.945 1.143-11.293-27.849-14.656-55.686-16.383-85.476z" class="fil40"/><path d="M237.136 4020.832a478.812 478.812 0 0 1 7.919-74.808c3.156-17.289 10.567-64.846 25.11-74.849 7.257 3.852 11.222 7.656 19.829 5.304 3.385-.925 7.305-3.791 10.326-5.631-16.481 46.85-26.024 91.529-26.401 141.392-10.232-1.603-14.106.139-23.387 4.13-4.405 1.893-8.667 3.567-13.396 4.462z" class="fil28"/><path d="M300.32 3870.848c3.555-4.262 8.182-7.637 12.421-11.199l20.186 16.086c9.461 6.259 18.527 12.681 27.488 19.648 10.078 7.305 20.378 14.272 29.203 23.09l-6.117 9.893c-13.038 8.848-22.958 21.747-35.594 30.038l-.199 4.778c-11.598 8.043-23.696 19.866-36.268 25.453.459 10.25 2.912 19.279 5.564 29.112l.191 2.111c-13.298 8.261-19.892 22.273-35.267 27.341-2.588-9.1-4.017-17.869-5.236-27.244l-2.773-7.715c.377-49.863 9.92-94.542 26.401-141.392z" class="fil13"/><path d="m310.68 3975.047.76 13.588c.459 10.25 2.912 19.279 5.564 29.112l.191 2.111c-13.298 8.261-19.892 22.273-35.267 27.341-2.588-9.1-4.017-17.869-5.236-27.244 8.257-2.558 17.338-8.46 23.432-14.61 9.394-9.476 10.454-17.271 10.556-30.298z" class="fil37"/><path d="M332.927 3875.735c9.461 6.259 18.527 12.681 27.488 19.648 10.078 7.305 20.378 14.272 29.203 23.09l-6.117 9.893c-13.038 8.848-22.958 21.747-35.594 30.038l-.199 4.778c-11.598 8.043-23.696 19.866-36.268 25.453l-.76-13.588c2.283-34.887 8.487-67.025 22.247-99.312z" class="fil28"/><path d="M360.415 3895.383c10.078 7.305 20.378 14.272 29.203 23.09l-6.117 9.893c-13.038 8.848-22.958 21.747-35.594 30.038 1.539-21.818 2.494-43.136 12.508-63.021z" class="fil13"/><path d="M34.961 3791.342c.199-5.116.948-10.033 2.02-15.059 10.578-49.479 49.107-83.369 89.524-109.627 1.143.579 2.298 1.136 3.438 1.723 3.465 1.791 5.105 3.205 8.111 5.914 13 11.695 40.721 22.86 57.898 25.986-43.25 26.585-76.527 71.434-88.151 121.101-12.023 51.368-5.334 163.011-5.21 222.384.218 102.657-5.523 208.669 5.251 310.648-24.685-16.383-50.186-31.562-68.405-55.449-4.931-43.239-2.9-88.904-4.86-132.597l-5.361-22.383V3797.643l5.745-6.301zm-5.745 6.301V4143.983l5.361 22.383c.15-6.768-.271-13.644-.455-20.412 3.13-79.675-.158-160.257-1.05-239.993-.421-37.524-4.142-77.565 1.889-114.619l-5.745 6.301z" class="fil26"/><path d="m29.216 3797.643 5.745-6.301c-6.031 37.054-2.31 77.095-1.889 114.619.892 79.736 4.18 160.318 1.05 239.993.184 6.768.605 13.644.455 20.412l-5.361-22.383V3797.643zm0 175.354v170.986l5.361 22.383c.15-6.768-.271-13.644-.455-20.412-12.038-47.35 7.422-122.207-4.906-172.957z" style="fill:#d5e5fe;fill-rule:nonzero;fill-opacity:.662745"/><path d="M29.216 3972.997c12.328 50.75-7.132 125.607 4.906 172.957.184 6.768.605 13.644.455 20.412l-5.361-22.383v-170.986z" style="fill:#d5e5fe;fill-rule:nonzero;fill-opacity:.407843"/><path d="M315.427 3768.707c46.391-48.404 93.869-107.634 167.59-109.973 25.2-.805 48.621 7.982 66.81 25.52 33.638 32.419 42.444 83.497 42.407 128.207-.083 105.075-47.076 219.13-121.582 293.369-30.983 30.878-64.692 50.653-104.722 67.623-16.345-.606-31.927-1.125-47.674-6.113-31.881-10.082-49.851-32.664-64.737-61.032.647-.376 1.29-.775 1.945-1.143 11.846-6.817 18.233-11.297 23.918-23.948 1.76-3.912 3.363-7.366 5.812-10.909l2.4-3.412-5.666-19.697c15.375-5.068 21.969-19.08 35.267-27.341l-.191-2.111c-2.652-9.833-5.105-18.862-5.564-29.112 12.572-5.587 24.67-17.41 36.268-25.453l.199-4.778c12.636-8.291 22.556-21.19 35.594-30.038l6.117-9.893c-8.825-8.818-19.125-15.785-29.203-23.09-8.961-6.967-18.027-13.389-27.488-19.648l-20.186-16.086c5.824-5.97 9.593-12.41 13.78-19.588l4.668-13.892c-1.602-6.918 1.362-12.79 3.653-19.231.109-1.971.169-3.942.188-5.913.004-14.987-9.942-22.255-19.603-32.318z" class="fil28"/><path d="M334.842 3806.938c31.622-40.432 71.757-89.17 126.751-94.655 20.559-2.05 41.546 3.303 57.658 16.492 25.43 20.814 33.879 55.957 36.079 87.331 5.88 83.704-29.598 175.463-84.291 238.15-26.54 30.414-63.688 59.55-105.376 62.702-21.318 1.614-39.402-3.713-55.152-18.433-9.48-8.859-16.962-20.163-22.917-31.629l-5.666-19.697c15.375-5.068 21.969-19.08 35.267-27.341 5.056 11.074 10.71 22.033 19.818 30.365 11.53 10.541 26.355 15.875 41.997 14.63 33.785-2.686 64.105-29.767 84.445-55.088 36.772-45.767 63.101-114.962 56.021-174.233-2.655-22.225-11.699-47.565-30.512-61.152-13.392-9.664-30.399-11.444-46.278-8.231-40.744 8.242-68.736 43.287-91.16 75.477-7.245-4.413-13.716-10.153-20.337-15.457-1.602-6.918 1.362-12.79 3.653-19.231z" class="fil13"/><path d="M351.526 3841.626c22.424-32.19 50.416-67.235 91.16-75.477 15.879-3.213 32.886-1.433 46.278 8.231 18.813 13.587 27.857 38.927 30.512 61.152 7.08 59.271-19.249 128.466-56.021 174.233-20.34 25.321-50.66 52.402-84.445 55.088-15.642 1.245-30.467-4.089-41.997-14.63-9.108-8.332-14.762-19.291-19.818-30.365l-.191-2.111c-2.652-9.833-5.105-18.862-5.564-29.112 12.572-5.587 24.67-17.41 36.268-25.453l.199-4.778c12.636-8.291 22.556-21.19 35.594-30.038l6.117-9.893c-8.825-8.818-19.125-15.785-29.203-23.09-8.961-6.967-18.027-13.389-27.488-19.648l-20.186-16.086c5.824-5.97 9.593-12.41 13.78-19.588l4.668-13.892c6.621 5.304 13.092 11.044 20.337 15.457z" class="fil28"/><path d="m347.708 3963.182 5.661 22.364c-11.59 11.816-23.033 22.375-36.365 32.201-2.652-9.833-5.105-18.862-5.564-29.112 12.572-5.587 24.67-17.41 36.268-25.453z" class="fil40"/><path d="M376.967 3860.932c15.86-17.824 37.712-43.355 63.56-43.912 10.665-.229 20.355 4.796 27.728 12.282 13.035 13.238 15.969 32.638 15.078 50.454-2.035 40.628-21.732 86.063-52.609 113.058-12.208 10.668-28.011 19.956-44.819 18.354-12.38-1.178-20.746-7.039-28.086-16.763a80.674 80.674 0 0 1-3.63-5.236l-.82-3.623-5.661-22.364.199-4.778c12.636-8.291 22.556-21.19 35.594-30.038l6.117-9.893c-8.825-8.818-19.125-15.785-29.203-23.09-8.961-6.967-18.027-13.389-27.488-19.648l-20.186-16.086c5.824-5.97 9.593-12.41 13.78-19.588l4.668-13.892c6.621 5.304 13.092 11.044 20.337 15.457 8.287 6.489 16.518 13.735 25.441 19.306z" class="fil13"/><path d="M347.907 3958.404c12.636-8.291 22.556-21.19 35.594-30.038 2.284 8.709 4.232 17.598 7.453 26.01-10.47 7.027-33.033 23.169-36.765 34.793l-.82-3.623-5.661-22.364.199-4.778z" class="fil37"/><path d="M404.545 3881.727c7.693-5.913 14.532-11.368 24.847-10.093 3.638.448 7.971 3.013 10.198 6.06 7.407 10.112 6.14 26.597 3.235 38.021-3.746 14.762-11.714 30.448-25.403 38.213-5.835 3.314-12.523 5.789-19.159 3.532-2.509-.846-4.917-1.96-7.309-3.084-3.221-8.412-5.169-17.301-7.453-26.01l6.117-9.893c6.798 5.274 11.79 9.984 20.57 10.89 7.253-2.061 8.475-2.836 13.813-8.174 1.67-5.414 2.822-9.484 1.836-15.179-2.197-12.708-11.556-17.485-21.292-24.283z" class="fil28"/><path d="M331.189 3826.169c6.621 5.304 13.092 11.044 20.337 15.457 8.287 6.489 16.518 13.735 25.441 19.306 9.017 7.238 17.94 14.374 27.578 20.795 9.736 6.798 19.095 11.575 21.292 24.283.986 5.695-.166 9.765-1.836 15.179-5.338 5.338-6.56 6.113-13.813 8.174-8.78-.906-13.772-5.616-20.57-10.89-8.825-8.818-19.125-15.785-29.203-23.09-8.961-6.967-18.027-13.389-27.488-19.648l-20.186-16.086c5.824-5.97 9.593-12.41 13.78-19.588l4.668-13.892z" class="fil20"/></g></g></svg>