<?xml version="1.0" encoding="UTF-8"?>
<!DOCTYPE svg PUBLIC "-//W3C//DTD SVG 1.1//EN" "http://www.w3.org/Graphics/SVG/1.1/DTD/svg11.dtd">
<!-- Creator: CorelDRAW -->
<svg xmlns="http://www.w3.org/2000/svg" xml:space="preserve" width="195px" height="129px" version="1.1" style="shape-rendering:geometricPrecision; text-rendering:geometricPrecision; image-rendering:optimizeQuality; fill-rule:evenodd; clip-rule:evenodd"
viewBox="0 0 195 129"
 xmlns:xlink="http://www.w3.org/1999/xlink"
 xmlns:xodm="http://www.corel.com/coreldraw/odm/2003">
 <defs>
  <style type="text/css">
   <![CDATA[
    .str1 {stroke:#0D61A9;stroke-miterlimit:22.9256}
    .str0 {stroke:#0D61A9;stroke-width:2;stroke-miterlimit:22.9256}
    .str2 {stroke:#0D61A9;stroke-width:0.9;stroke-miterlimit:22.9256}
    .str3 {stroke:#A1A8B2;stroke-width:0.9;stroke-miterlimit:22.9256}
    .fil2 {fill:none}
    .fil5 {fill:#2A5DE5}
    .fil6 {fill:#A1A8B2}
    .fil3 {fill:#FF6369}
    .fil4 {fill:#FFE069}
    .fil85 {fill:#02047C;fill-rule:nonzero}
    .fil86 {fill:#040982;fill-rule:nonzero}
    .fil84 {fill:#060E88;fill-rule:nonzero}
    .fil76 {fill:#070F89;fill-rule:nonzero}
    .fil40 {fill:#08128D;fill-rule:nonzero}
    .fil118 {fill:#091590;fill-rule:nonzero}
    .fil46 {fill:#0A0E84;fill-rule:nonzero}
    .fil96 {fill:#0D1C98;fill-rule:nonzero}
    .fil113 {fill:#0D1D99;fill-rule:nonzero}
    .fil98 {fill:#0E209D;fill-rule:nonzero}
    .fil12 {fill:#1024A2;fill-rule:nonzero}
    .fil29 {fill:#1224A0;fill-rule:nonzero}
    .fil25 {fill:#1225A0;fill-rule:nonzero}
    .fil97 {fill:#1329A8;fill-rule:nonzero}
    .fil127 {fill:#152EAD;fill-rule:nonzero}
    .fil116 {fill:#1733B3;fill-rule:nonzero}
    .fil78 {fill:#182092;fill-rule:nonzero}
    .fil23 {fill:#1A3BBC;fill-rule:nonzero}
    .fil18 {fill:#1B3DBE;fill-rule:nonzero}
    .fil92 {fill:#1E218D;fill-rule:nonzero}
    .fil114 {fill:#1E43C5;fill-rule:nonzero}
    .fil44 {fill:#1F2490;fill-rule:nonzero}
    .fil30 {fill:#2048CC;fill-rule:nonzero}
    .fil28 {fill:#2347C6;fill-rule:nonzero}
    .fil21 {fill:#2450D5;fill-rule:nonzero}
    .fil95 {fill:#2757DC;fill-rule:nonzero}
    .fil22 {fill:#285AE0;fill-rule:nonzero}
    .fil34 {fill:#2958DB;fill-rule:nonzero}
    .fil19 {fill:#2A5EE5;fill-rule:nonzero}
    .fil107 {fill:#2C62E9;fill-rule:nonzero}
    .fil117 {fill:#2C62EA;fill-rule:nonzero}
    .fil33 {fill:#2E67EF;fill-rule:nonzero}
    .fil88 {fill:#2F68F0;fill-rule:nonzero}
    .fil87 {fill:#316DF7;fill-rule:nonzero}
    .fil24 {fill:#3263E4;fill-rule:nonzero}
    .fil72 {fill:#336BF0;fill-rule:nonzero}
    .fil49 {fill:#3E77F8;fill-rule:nonzero}
    .fil90 {fill:#5073D8;fill-rule:nonzero}
    .fil59 {fill:#5156AA;fill-rule:nonzero}
    .fil89 {fill:#5680E7;fill-rule:nonzero}
    .fil82 {fill:#6F9AFA;fill-rule:nonzero}
    .fil63 {fill:#7E91DB;fill-rule:nonzero}
    .fil99 {fill:#959ACF;fill-rule:nonzero}
    .fil105 {fill:#969ACE;fill-rule:nonzero}
    .fil109 {fill:#969CD1;fill-rule:nonzero}
    .fil115 {fill:#969DD2;fill-rule:nonzero}
    .fil35 {fill:#989FD3;fill-rule:nonzero}
    .fil36 {fill:#999FD3;fill-rule:nonzero}
    .fil43 {fill:#99A1D7;fill-rule:nonzero}
    .fil100 {fill:#99A3DA;fill-rule:nonzero}
    .fil39 {fill:#9A9BC2;fill-rule:nonzero}
    .fil94 {fill:#9A9CC7;fill-rule:nonzero}
    .fil69 {fill:#9A9CCD;fill-rule:nonzero}
    .fil37 {fill:#9A9FD1;fill-rule:nonzero}
    .fil31 {fill:#9A9FD2;fill-rule:nonzero}
    .fil126 {fill:#9AA3D7;fill-rule:nonzero}
    .fil41 {fill:#9AA4D9;fill-rule:nonzero}
    .fil125 {fill:#9AA7DE;fill-rule:nonzero}
    .fil108 {fill:#9B9EC8;fill-rule:nonzero}
    .fil57 {fill:#9BA8DF;fill-rule:nonzero}
    .fil110 {fill:#9CA0CC;fill-rule:nonzero}
    .fil56 {fill:#9CA9E0;fill-rule:nonzero}
    .fil38 {fill:#9CA9E1;fill-rule:nonzero}
    .fil42 {fill:#9D9CBF;fill-rule:nonzero}
    .fil119 {fill:#9DA3D2;fill-rule:nonzero}
    .fil111 {fill:#9DAAE1;fill-rule:nonzero}
    .fil20 {fill:#9DAEE6;fill-rule:nonzero}
    .fil17 {fill:#9EAEE6;fill-rule:nonzero}
    .fil123 {fill:#9EAFE7;fill-rule:nonzero}
    .fil65 {fill:#9FA1CF;fill-rule:nonzero}
    .fil120 {fill:#9FA5D8;fill-rule:nonzero}
    .fil50 {fill:#9FADE3;fill-rule:nonzero}
    .fil67 {fill:#9FAFE7;fill-rule:nonzero}
    .fil121 {fill:#9FB0E9;fill-rule:nonzero}
    .fil27 {fill:#A0A7DD;fill-rule:nonzero}
    .fil45 {fill:#A0AEE3;fill-rule:nonzero}
    .fil124 {fill:#A1B5EF;fill-rule:nonzero}
    .fil93 {fill:#A2A8D9;fill-rule:nonzero}
    .fil48 {fill:#A2B5ED;fill-rule:nonzero}
    .fil122 {fill:#A2B8F1;fill-rule:nonzero}
    .fil103 {fill:#A3B2E7;fill-rule:nonzero}
    .fil26 {fill:#A3B8F1;fill-rule:nonzero}
    .fil112 {fill:#A3BBF5;fill-rule:nonzero}
    .fil101 {fill:#A4B9F2;fill-rule:nonzero}
    .fil60 {fill:#A5B9F0;fill-rule:nonzero}
    .fil47 {fill:#A6BCF4;fill-rule:nonzero}
    .fil102 {fill:#A8C1FA;fill-rule:nonzero}
    .fil106 {fill:#A9C1F9;fill-rule:nonzero}
    .fil71 {fill:#AEB2DA;fill-rule:nonzero}
    .fil66 {fill:#AFC7FC;fill-rule:nonzero}
    .fil74 {fill:#B1C8FC;fill-rule:nonzero}
    .fil64 {fill:#B4C8FA;fill-rule:nonzero}
    .fil73 {fill:#B5C2EC;fill-rule:nonzero}
    .fil79 {fill:#BABBDD;fill-rule:nonzero}
    .fil61 {fill:#C1C2E0;fill-rule:nonzero}
    .fil68 {fill:#C4D1F6;fill-rule:nonzero}
    .fil53 {fill:#C5C8E5;fill-rule:nonzero}
    .fil81 {fill:#C6C9E6;fill-rule:nonzero}
    .fil80 {fill:#C9D8FC;fill-rule:nonzero}
    .fil52 {fill:#C9D9FD;fill-rule:nonzero}
    .fil51 {fill:#D5DFF9;fill-rule:nonzero}
    .fil11 {fill:#D7E6FD;fill-rule:nonzero}
    .fil10 {fill:#D8E8FD;fill-rule:nonzero}
    .fil32 {fill:#DCB9A1;fill-rule:nonzero}
    .fil77 {fill:#DCDDED;fill-rule:nonzero}
    .fil58 {fill:#DCE0EC;fill-rule:nonzero}
    .fil62 {fill:#E2E6F6;fill-rule:nonzero}
    .fil104 {fill:#E5EDFE;fill-rule:nonzero}
    .fil70 {fill:#ECF2FE;fill-rule:nonzero}
    .fil15 {fill:#EFF5FD;fill-rule:nonzero}
    .fil16 {fill:#EFF5FE;fill-rule:nonzero}
    .fil55 {fill:#F0E1D7;fill-rule:nonzero}
    .fil83 {fill:#F0F2F8;fill-rule:nonzero}
    .fil54 {fill:#F1E2D7;fill-rule:nonzero}
    .fil75 {fill:#F3E3DC;fill-rule:nonzero}
    .fil7 {fill:#F5F9FE;fill-rule:nonzero}
    .fil9 {fill:#F6CEB3;fill-rule:nonzero}
    .fil91 {fill:#F6F6FA;fill-rule:nonzero}
    .fil13 {fill:#FAE8DD;fill-rule:nonzero}
    .fil14 {fill:#FAE9DE;fill-rule:nonzero}
    .fil1 {fill:#FBFCFE;fill-rule:nonzero}
    .fil0 {fill:#FDFDFE;fill-rule:nonzero}
    .fil8 {fill:#FEFEFE;fill-rule:nonzero}
   ]]>
  </style>
 </defs>
 <g id="Слой_x0020_1">
  <metadata id="CorelCorpID_0Corel-Layer"/>
  <path class="fil0" d="M8.05 161.87l2.21 0c1.25,5.69 -0.95,6.83 -6.64,6.82 -68.24,-0.26 -136.48,-0.2 -204.73,-0.05 -3.78,0 -4.68,-0.73 -4.53,-4.54 0.34,-9.6 0.11,-19.21 0.11,-28.81 0.73,-0.33 1.31,-0.15 1.75,0.51 1.7,4.7 0.54,9.58 0.92,14.37 0.02,1.66 -0.09,3.32 0.08,4.98 0.5,5.19 2.15,6.8 7.26,7.11 2.02,0.13 4.05,0.06 6.08,0.06 61.6,0 123.19,-0.01 184.79,0.03 4.25,0 8.46,-0.49 12.7,-0.48l0 0z"/>
  <path class="fil1" d="M-204.41 149.69c0.47,7.92 5.79,7.86 11.86,7.85 62.98,-0.15 125.98,-0.08 188.96,-0.14 3.08,0 6.89,1.2 8.32,-3.28 2.28,2.08 2.53,5.04 3.32,7.75 -1.04,2.32 -3.11,2.23 -5.17,2.23 -67.02,0 -134.04,-0.02 -201.07,0.02 -2.95,0 -4.61,-0.7 -5.38,-4.04 -0.8,-3.5 -0.77,-6.92 -0.86,-10.39l0.02 0z"/>
  <g id="_2213732856112">
   <g>
    <path class="fil2 str0" d="M175.74 96.53c0,2.38 -1.95,4.32 -4.32,4.32l-147.3 0c-2.38,0 -4.32,-1.94 -4.32,-4.32 0,-26.94 -0.04,-51.08 -0.05,-78.02 0,-9.87 2.81,-11.39 10.89,-11.23 9.52,0.19 19.13,0.01 28.66,0.01 35.17,0 70.4,0.15 105.56,0 2.57,-0.01 5.19,-0.71 7.16,1.04 2.23,2 3.73,3.99 3.72,6.79 -0.13,26.11 0,55.3 0,81.41z"/>
    <rect class="fil2 str1" x="35.4" y="22.89" width="125.86" height="67.94"/>
    <ellipse class="fil3" cx="30.15" cy="15.12" rx="2.55" ry="2.29"/>
    <ellipse class="fil4" cx="42.92" cy="15.12" rx="2.55" ry="2.29"/>
    <ellipse class="fil5" cx="55.68" cy="15.12" rx="2.55" ry="2.29"/>
    <path class="fil2 str2" d="M24.33 102.71c-1.57,0 1.47,4.77 3.64,6.08 1.91,1.16 2.63,3.19 5.32,3.19 40.9,-0.03 82.41,1.01 123.31,1.07 4.58,0 8.71,-0.43 11.06,-2.45 7.02,-6.06 7.36,-8.23 2.5,-8.45 -1.94,-0.09 -8.24,0 -10.59,0 -41.91,0.01 -93.33,0.71 -135.24,0.56z"/>
    <path class="fil2 str2" d="M128.33 122.3l2.76 4.18c-23.9,0 -47.8,0 -71.7,0 0,-1.39 3.41,-2.79 3.41,-4.18 23.9,0 41.63,0 65.53,0z"/>
    <rect class="fil6 str3" x="70" y="113.37" width="51.57" height="8.93"/>
   </g>
   <path class="fil7" d="M116.98 89.62c-1.64,0.94 -3.47,0.85 -5.3,0.84 -20.48,-0.01 -40.97,-0.04 -61.45,0.03 -2.17,0 -4.19,-0.43 -6.24,-0.88 -0.6,-1.3 -1.21,-2.58 -1.93,-3.83 -0.27,-0.82 0.16,-1.34 0.86,-1.76 5.55,-0.59 11.06,-1.56 16.68,-1.56 13.67,0.01 27.34,-0.02 41,0.02 4.26,0.02 8.49,-0.17 12.73,-0.39 2.06,2.17 2.62,4.94 3.64,7.53l0.01 0z"/>
   <path class="fil8" d="M160.95 23.81c0.11,7.47 0.28,14.95 0.3,22.41 0.03,14.56 -0.05,29.11 -0.07,43.68 -3.5,1.75 -7.3,1.29 -11.02,1.23 -5.24,-0.09 -10.52,0.51 -15.74,-0.4 -1.87,-0.89 -2.64,-2.32 -1.93,-4.14 0.68,-1.74 2.54,-1.82 4.19,-1.91 3.78,-0.23 7.58,0.05 11.37,-0.17 2.01,-0.11 4.2,-0.27 3.32,-3.09 -0.34,-1.25 -0.72,-2.5 -1.04,-3.76 0.29,-3.18 -2.9,-3.21 -4.8,-4.41 -1.5,-3.04 -1.28,-6.39 -2.12,-9.54 -0.45,-0.86 -1.3,-1.26 -2.23,-1.56 -0.9,-0.28 -1.81,-0.55 -2.74,-0.71 -3.07,0.15 -2.35,3.43 -4.38,4.43 -2.06,0.31 -1.4,-1.67 -2.32,-2.29 -0.65,0.35 -1.22,0.8 -2.03,0.69 -1.69,-0.48 -1.3,-3.47 -3.97,-2.77 -2.61,0.59 -4.66,1.97 -6.42,3.79 -0.57,0.26 -1.19,0.36 -1.83,0.33 -2.07,-0.25 -3.96,-1.19 -6.04,-1.37 -0.57,-0.05 -1.14,-0.15 -1.69,-0.21 -1.12,-0.07 -1.45,0.69 -1.78,1.46 -1.06,2.13 -1.42,4.56 -3.32,6.3 -1.78,0.03 -2.34,-1.11 -2.75,-2.39 -0.25,-1.44 -0.68,-2.85 -0.36,-4.32 -0.23,-1.84 0.68,-3.2 2.2,-4.28 1.33,-0.94 2.6,-1.91 2.83,-3.57 0.5,-1.34 1.19,-2.6 2.34,-3.58 3.52,-1.76 5.85,-4.01 4,-8.02 -0.2,-1.68 -0.72,-3.3 -1.02,-4.95 -0.09,-1.06 -0.44,-2.01 -1.41,-2.69 -0.43,-0.35 -0.82,-0.74 -1.18,-1.16 -0.82,-0.94 -1.42,-2.08 -2.75,-2.58 -0.55,-0.17 -1.09,-0.33 -1.64,-0.49 -0.38,-0.11 -0.75,-0.25 -1.1,-0.41 -1.54,-0.8 -3.12,-0.72 -4.69,-0.14 -0.92,0.29 -1.68,0.82 -2.36,1.46 -1.48,1.56 -3.71,2.43 -4.75,4.38 -0.32,0.66 -0.63,1.32 -0.93,1.98 -0.13,0.34 -0.27,0.67 -0.4,1.01 -0.48,1.19 -0.44,2.48 -0.8,3.71 -0.29,1.87 -1.38,3.86 1.01,5.31 0.6,0.01 1.2,0.04 1.79,0.19 3.21,1.77 2.81,5.4 4.79,7.8 1.61,1.74 4.29,2.85 4.02,5.7 -0.08,0.81 -0.34,1.56 -0.78,2.27 -0.79,1.02 -1.61,2 -3.24,1.55 -0.95,-0.56 -1.35,-1.46 -1.76,-2.35 -0.49,-1.09 -0.99,-2.16 -2.38,-2.54 -0.93,-0.02 -1.59,0.55 -2.37,0.87 -0.51,0.21 -1.04,0.31 -1.59,0.38 -0.37,0.06 -0.74,0.09 -1.1,0.13 -0.92,0.11 -1.79,0.37 -2.66,0.65 -0.72,0.24 -1.39,0.55 -1.97,1.01 -2.26,1.43 -0.61,4.53 -3.02,5.89 -3.39,-2.31 -2.1,-5.94 -3,-8.93 -0.59,-1.1 -1.81,-1.18 -2.88,-1.52 -0.72,-0.23 -1.41,-0.53 -2.15,-0.73 -2.22,-0.59 -2.43,2.02 -4.16,2.2 -1.1,0.01 -2.2,-0.4 -3.29,0.1 -0.62,0.1 -1.19,0.04 -1.75,-0.21 -1.75,-2.4 -3.94,-2.21 -6.33,-0.94 -2.04,0.53 -1.99,2.17 -2.34,3.62 -0.59,2.4 -0.46,4.94 -1.76,7.19 -0.5,0.42 -1.11,0.65 -1.76,0.79 -2.44,0.16 -5.08,0.1 -4.57,3.51 0.01,1.7 0.34,3.35 0.95,4.97 0.8,2.11 2.86,1.77 4.56,1.86 3.46,0.18 6.94,-0.01 10.4,0.1 1.92,0.06 3.99,-0.17 5.35,1.57 0.35,4 -0.24,4.71 -4.33,4.93 -8.54,0.45 -17.03,-0.47 -25.54,-1.05 -0.53,-0.91 -0.36,-1.9 -0.36,-2.86 0,-20.14 0,-40.28 0,-60.42 0,-0.97 -0.16,-1.95 0.31,-2.88 0.98,-0.54 2.07,-0.36 3.12,-0.36 39.04,0 78.09,0 117.13,0 0.91,0 1.83,-0.08 2.7,0.27l0.02 -0.02z"/>
   <path class="fil9" d="M91.73 59.8c-1.91,-2.55 -1.54,-6.15 -4.46,-8.25 -1.42,-1.07 -1.21,-2.48 -0.98,-3.89 0.69,-2.08 1.31,-4.19 2.4,-6.12 1.45,-2.57 3.47,-4.11 6.83,-2.66 2.22,1.21 4.74,1.43 7.2,1.85 1.38,0.45 2.26,1.32 2.63,2.63 0.18,0.77 0.27,1.58 0,2.33 -0.77,2.1 1.07,0 1.19,0.64 0.61,0.29 1.03,0.72 1.29,1.31 0.61,2.91 -0.92,4.87 -3.38,6.42 -0.63,1.1 -1.26,2.21 -1.89,3.3 -2.67,4.35 -6.8,3.19 -10.83,2.42l0 0.02z"/>
   <path class="fil10" d="M41.54 82.46c-1.07,-1.61 -0.99,-3.37 -0.82,-5.13 1.45,-1.13 3.19,-1.13 4.94,-1.07 8.09,0.04 16.18,-0.02 24.28,0.02 1.78,0 3.62,-0.22 5.23,0.79 1.86,2.25 1.1,4.14 -0.93,5.88 -8.39,1.22 -16.86,0.71 -25.29,0.82 -2.54,0.03 -5.21,0.39 -7.41,-1.31l0 0z"/>
   <path class="fil11" d="M146.36 77.34c0.67,1.06 1.13,2.18 1.01,3.45 0.89,2.71 -1.53,2.74 -3.11,2.78 -8.42,0.29 -16.84,0.5 -25.25,-0.39 -1.33,-0.58 -1.37,-1.62 -1.22,-2.75 0.18,-1.33 0.24,-2.72 1.69,-3.55 8.97,-0.66 17.96,-1.64 26.88,0.46z"/>
   <path class="fil12" d="M106.31 63.33c2.3,-0.05 4.37,0.71 6.38,1.6 1.96,2.18 1.24,4.79 1.24,7.21 0,3.74 0.45,7.49 -0.37,11.2 -0.28,0.69 -0.79,1.2 -1.47,1.57 -2.84,0.86 -1.25,3.81 -2.92,5.22 -0.68,0.3 -1.42,0.25 -2.14,0.22 -0.53,-0.06 -0.95,-0.29 -1.25,-0.69 -0.95,-1.8 -0.73,-3.69 -0.52,-5.57 1.01,-4.65 0.79,-9.33 0.43,-14.01 -0.43,-1.3 -1.69,-2.29 -1.71,-3.76 0.29,-1.31 1.79,-1.83 2.33,-2.99l0 0z"/>
   <path class="fil13" d="M57.99 57.39c-1.05,-1.31 -0.67,-3.37 -2.66,-4.18 -0.6,-0.35 -0.78,-0.89 -0.77,-1.51 0.27,-1.3 1.36,-2.34 1.48,-3.7 0.22,-0.96 0.6,-1.85 1.46,-2.49 0.53,-0.32 1.13,-0.44 1.77,-0.4 0.58,0.07 1.14,0.24 1.7,0.39 0.53,0.14 1.06,0.3 1.58,0.47 0.84,0.31 1.7,0.49 2.57,0.69 0.93,0.24 1.55,0.85 2.1,1.52 0.24,0.26 0.45,0.54 0.64,0.83 0.25,0.45 0.5,0.9 0.71,1.38 0.47,1.09 -0.33,1.97 -0.56,2.95 -0.59,1.82 -2.74,2.47 -3.67,4.02 -2.12,2.88 -4.24,1.37 -6.36,0.02l0.01 0.01z"/>
   <path class="fil14" d="M133.71 53.98c-1.79,0.61 -2.3,2.36 -3.6,3.42 -1.53,2.12 -3.52,1.73 -5.59,0.84 -1.53,-1.45 -1.2,-3.98 -3.43,-5.03 -0.93,-0.48 -0.96,-1.26 -0.8,-2.09 0.5,-1.04 1.36,-1.93 1.58,-3.1 0.33,-0.94 0.74,-1.84 1.53,-2.56 0.56,-0.35 1.18,-0.48 1.85,-0.47 0.86,0.05 1.65,0.35 2.43,0.65 1.13,0.49 2.35,0.7 3.52,1.1 1.03,0.43 1.64,1.22 2.17,2.1 0.28,0.76 0.69,1.47 1.02,2.22 0.24,1.06 0,2.03 -0.68,2.92l0 0z"/>
   <path class="fil15" d="M118.32 82.47c8.36,0 16.71,0.02 25.06,-0.03 1.51,-0.01 3.54,0.66 3.98,-1.65 1.69,4.29 1.28,4.96 -3.17,5 -4.05,0.05 -8.09,0.13 -12.13,-0.02 -3.74,-0.14 -4.71,1.1 -2.97,4.13 -0.54,0.01 -1.08,0.03 -1.62,0.05 -2.26,-0.86 -0.09,-4.35 -3.29,-4.66 -0.89,-0.03 -1.78,-0.07 -2.66,-0.13 -1.62,-0.35 -3.56,-0.39 -3.21,-2.69l0.01 0z"/>
   <path class="fil16" d="M41.54 82.46c10.93,0 21.86,0 32.79,0 0.55,0.6 0.55,1.24 0.11,1.89 -0.83,0.62 -1.82,0.78 -2.85,0.85 -1.25,0.11 -2.51,0.06 -3.78,0.06 -1.55,0.02 -3.07,-0.05 -4.36,-1 -0.97,0.17 -0.73,1 -1.01,1.55 -5.7,0 -11.39,-0.06 -17.08,0.01 -2.61,0.03 -4.01,-0.85 -3.82,-3.36l0 0z"/>
   <path class="fil17" d="M52.5 61.61c2.83,-1.77 5.38,-2.58 6.43,1.62 0.24,0.16 0.45,0.38 0.69,0.54 0.66,0.44 0.38,1.25 0.82,1.77 -0.35,-0.63 -0.17,-1.19 0.26,-1.72 0.8,-0.51 1.63,-0.33 2.46,-0.09 0.38,0.21 0.58,0.53 0.59,0.95 -1.36,2.52 -1.07,5.19 -0.83,7.87 -0.05,0.41 -0.23,0.75 -0.57,1.02 -0.63,0.26 -1.25,0.25 -1.88,0 -1.78,-1.05 -2.26,-2.91 -3.29,-4.41 -0.12,1.59 0.37,3.33 -1.32,4.57 -0.96,0.4 -1.94,0.41 -2.92,0.09 -0.52,-0.23 -0.89,-0.56 -1.16,-1.02 -0.79,-3.79 -1.57,-7.57 0.7,-11.19l0.02 0z"/>
   <path class="fil18" d="M84.42 64.16c0.6,-0.06 1.19,-0.13 1.79,-0.19 0.91,0.34 1.73,0.84 2.51,1.38 0.69,2.42 -0.56,5.18 1.54,7.35 0.03,0.4 -0.03,0.79 -0.17,1.17 -2.15,3.47 0.2,6.99 -0.18,10.49 -0.39,0.3 -0.83,0.49 -1.32,0.6 -1.33,0.26 -2.62,0.21 -3.88,-0.32 -0.49,-0.28 -0.85,-0.66 -1.08,-1.14 -0.34,-6.46 -1.73,-12.97 0.79,-19.34l0 0z"/>
   <path class="fil19" d="M74.32 83.98c0,-0.51 0.01,-1.01 0.02,-1.52 0.56,-1.63 1.04,-3.27 0.82,-5.02 -0.76,-0.9 -0.89,-1.91 -0.6,-2.99 0.24,-0.85 0.76,-1.53 1.5,-2.06 0.96,-2.29 -1.27,-5.67 2.81,-6.9 1.49,1.13 1.3,2.73 1.32,4.22 0.12,6.76 0.75,13.59 -3.29,19.77 -0.3,0.47 -0.74,0.75 -1.33,0.86 -0.59,0.06 -1.1,-0.1 -1.54,-0.48 -1.25,-2.01 -1.11,-3.98 0.3,-5.88l-0.01 0z"/>
   <path class="fil20" d="M114.52 64.94c0.51,-3.46 3.66,-3.57 6.39,-4.21 3.04,1.46 1.98,4.18 2.4,6.46 -0.57,2.02 0.16,4.26 -1.19,6.15 -1.38,1.03 -2.98,1.31 -4.69,1.03 -2.04,-2.1 -1.51,-4.96 -2.56,-7.35 -0.24,-0.33 -0.44,-0.67 -0.61,-1.02 -0.13,-0.4 -0.05,-0.75 0.25,-1.06l0.01 0z"/>
   <path class="fil21" d="M84.42 84.12c0.3,0 0.61,0 0.91,0 1.52,1.83 1.53,3.74 0.38,5.73 -0.66,0.66 -1.54,0.49 -2.37,0.53 -1.1,-0.09 -2.34,0.28 -3.15,-0.81 -1.62,-4.77 0,-9.61 -0.22,-14.42 -0.15,-3.37 -1.02,-6.92 0.81,-10.21 0.81,-0.53 1.67,-0.94 2.72,-0.8 0.05,5.22 -0.04,10.43 0.02,15.65 0.02,1.48 -0.35,3.06 0.91,4.32l-0.01 0.01z"/>
   <path class="fil22" d="M80.77 64.94c0,8.34 0,16.68 0,25.02 -1.52,0.65 -3.04,0.65 -4.57,0 0.29,-2.29 -1.07,-4.98 2.22,-6.53 0.54,-0.25 0.49,-1.76 0.49,-2.69 0.02,-5.09 -0.02,-10.17 -0.05,-15.25 0.5,-0.57 1.18,-0.62 1.9,-0.55l0.01 0z"/>
   <path class="fil23" d="M98 69.09c0.5,0.86 0.31,2.19 1.85,2.38 -0.55,2.89 0.49,5.68 0.59,8.53 -0.02,1.7 -1.23,3.17 -1.08,4.92 -0.13,1.79 0.29,3.68 -1.18,5.22 -1.52,0.4 -3.03,0.29 -4.57,0.08 -1.69,-1.56 -1.32,-3.44 -0.94,-5.3 0.15,-0.44 0.39,-0.84 0.69,-1.2 0.47,-0.51 0.95,-1 1.33,-1.58 0.87,-2.96 1.29,-5.96 1.32,-9.03 0.01,-1.52 -0.52,-3.45 1.98,-4.02l0.01 0z"/>
   <path class="fil24" d="M95.28 39.99c-2.39,-1.56 -3.84,-0.82 -5.36,1.33 -1.33,1.88 -0.76,4.35 -2.6,5.97 -0.43,-0.22 -0.74,-0.54 -0.92,-0.96 -0.34,-0.82 -0.4,-1.7 -0.42,-2.57 -0.13,-1.71 0.73,-3.35 0.44,-5.08 0.52,-2.75 3.56,-3.13 5.28,-4.76 1.35,-0.64 2.7,-1 4.01,0.1 1.16,2.07 1.37,4.09 -0.44,5.98l0.01 -0.01z"/>
   <path class="fil25" d="M95.28 39.99c0.06,-1.95 0.11,-3.91 0.16,-5.87 1.15,-1.58 2.93,-0.84 4.45,-1.03 0.62,0.02 1.23,0.03 1.83,0.05 1.26,0.62 1.54,1.79 1.93,2.9 0.28,1.9 0.6,3.8 -0.99,5.41 -2.59,0.07 -5.17,0.07 -7.39,-1.46l0.01 0z"/>
   <path class="fil26" d="M52.5 61.61c0,3.88 -0.02,7.75 -0.02,11.62 -1.56,1.23 -3.11,1.25 -4.64,-0.04 0.35,-2.98 0.76,-5.96 1.02,-8.95 0.2,-2.16 1.54,-2.79 3.64,-2.64l0 0.01z"/>
   <path class="fil27" d="M146.36 77.34c-9.1,0.03 -18.18,0.05 -27.28,0.09 0.89,-2.61 3.33,-1.74 5.28,-1.99 1.52,-0.02 3.05,-0.06 4.57,0 1.86,-0.01 3.73,0 5.6,0.05 2.07,-0.02 4.37,0.67 5.68,-1.62 0.23,-0.31 0.53,-0.53 0.9,-0.69 3.07,-0.02 6.44,-0.35 5.25,4.16l0 0z"/>
   <path class="fil28" d="M98 69.09c-1.82,3.97 0.07,8.36 -1.73,12.33 -0.27,0.61 -0.52,1.23 -0.78,1.84 -1.77,-0.35 -2.17,-1.8 -2.87,-3 -0.35,-0.77 -0.56,-1.56 -0.49,-2.4 0.42,-1.82 -0.11,-3.82 1.16,-5.5 0.39,-0.26 0.82,-0.37 1.3,-0.34 2.06,0.64 0.7,2.43 1.41,3.52 0.06,0.56 0.66,-0.06 0.09,0.14 -0.2,-2.45 -1.09,-4.8 -1.19,-7.26 0.01,-0.63 -0.02,-1.28 0.31,-1.86 0.42,-0.64 0.85,-1.27 1.27,-1.9 0.18,0 0.36,0 0.53,0 0.98,1.35 1.21,2.84 0.99,4.41l0 0.02z"/>
   <path class="fil29" d="M99.81 79.89c-1.28,-2.81 -1.53,-5.62 0.04,-8.42 0.35,-2.45 1.53,-4.63 2.66,-6.82 2.06,2.35 1.1,5.2 1.54,7.81 0.3,2.3 -1.12,4.07 -2.16,5.96 -0.5,0.72 -1.07,1.37 -2.09,1.48l0.01 -0.01z"/>
   <path class="fil30" d="M84.42 84.12c-0.78,-0.11 -1.7,-0.39 -1.67,-1.12 0.17,-6.29 -1.15,-12.63 0.74,-18.86 0.31,0 0.62,0 0.93,0.01 0,6.65 0,13.31 0,19.96l0 0.01z"/>
   <path class="fil31" d="M76.06 72.39c0.25,0.74 -0.07,1.31 -0.66,1.81 -1.74,0.21 -3.3,0.01 -4.37,-1.46 -1.06,-2.56 -0.71,-5.22 -0.49,-7.82 0.12,-1.37 0.21,-3.31 2.86,-2.5 2.01,3.07 0.38,6.96 2.66,9.97l0 0z"/>
   <path class="fil32" d="M97.01 64.67l-0.26 0.05c0,0 -0.27,-0.05 -0.27,-0.05 -0.81,-2.27 -3.05,-3.35 -4.75,-4.88 0.27,-0.61 0.08,-2.39 0.88,-1.62 3.88,3.67 6.74,0.34 9.95,-0.79 0.41,1.98 -1.09,2.87 -2.53,3.9 -1.25,0.91 -2.66,1.78 -3.02,3.39l0 0z"/>
   <path class="fil33" d="M90 73.2c-2.06,-2.18 -3.66,-4.47 -1.94,-7.48 -0.96,-1.05 -0.86,-2.09 0.01,-3.13 2.77,-0.42 3.09,1.43 3.49,3.19 -0.55,2.47 2.19,5.52 -1.56,7.43l0 -0.01z"/>
   <path class="fil34" d="M90 73.2c2,-2.21 -0.39,-5.2 1.56,-7.43 0.4,0.81 0.8,1.63 1.22,2.44 1.59,1.11 2.19,2.4 0.83,4.03 -0.46,1.97 0.73,4.17 -0.9,6 -2.19,-1.03 -3.72,-2.39 -2.95,-4.91l0.25 -0.13 -0.01 0z"/>
   <path class="fil35" d="M129.02 65.52c0.65,-1.5 1.28,-3.01 1.95,-4.5 0.67,-1.5 1.66,-1.24 2.73,-0.36 1.16,1.6 0.31,3.15 -0.13,4.72 -0.61,1.24 -1.32,2.43 -2.2,3.55 -0.62,0.6 -1.1,1.47 -2.28,0.97 -1.35,-1.44 -1.27,-2.91 -0.06,-4.38l-0.01 0z"/>
   <path class="fil36" d="M63.43 64.9c0,-0.28 -0.01,-0.57 -0.02,-0.85 -0.31,-0.18 -0.4,-0.35 -0.28,-0.5 0.12,-0.14 0.23,-0.22 0.35,-0.22 1.87,-0.32 0.77,-5 4.52,-2.61 0.56,1.51 0.14,2.99 -0.09,4.49 -0.54,1.09 -1.32,2.03 -2.05,3.01 -0.64,0.64 -1.26,1.31 -2.37,0.94 -1.32,-1.4 -1.19,-2.83 -0.05,-4.26l-0.01 0z"/>
   <path class="fil37" d="M139.18 62.37c1.68,3.45 1.61,7.16 1.93,10.81 0,0 -0.19,0.09 -0.19,0.09 -1.09,0.69 -2.13,0.73 -3.12,-0.18 -1.43,-2.76 -0.79,-5.66 -0.66,-8.52 0.06,-1.03 0.32,-2.27 2.03,-2.21l0.01 0.01z"/>
   <path class="fil38" d="M67.09 64.91c0.51,-1.36 -0.2,-2.94 0.91,-4.19 0.63,0.21 1.26,0.43 1.89,0.64 1.46,3.83 0.93,7.7 0.4,11.59 -0.56,0.76 -1.34,0.83 -2.22,0.57 -2.46,-2.67 -0.77,-5.73 -0.98,-8.61z"/>
   <path class="fil39" d="M47.83 73.19c1.55,0.02 3.09,0.03 4.64,0.04 0.3,0.02 0.61,0.04 0.91,0.05 0.96,1.14 1.13,2.29 0.1,3.47 -2.45,0.44 -4.9,0.34 -7.36,0.06 -1.12,-1.14 -1.04,-2.28 -0.03,-3.44l1.73 -0.18 0.01 0z"/>
   <path class="fil40" d="M103.5 73.23c-1.79,-2.72 -0.29,-5.76 -0.98,-8.59 0.6,-0.57 -0.95,-3.55 2,-1.5 0.7,0.87 0.73,1.74 -0.03,2.6 0.6,1.1 1.21,2.19 1.81,3.29 -0.16,1.83 -0.65,3.48 -2.8,4.2z"/>
   <path class="fil41" d="M69.82 73.26c0.03,-3.97 0.04,-7.93 0.07,-11.9 1.19,0.28 2.64,-0.14 3.51,1.06 -2.2,0.3 -1.72,1.88 -1.73,3.15 -0.05,2.56 -0.01,5.12 -0.01,7.69 -0.13,0.11 -0.27,0.22 -0.4,0.33 -0.55,0.15 -1.04,0.08 -1.43,-0.34l-0.01 0.01z"/>
   <path class="fil42" d="M46.1 73.37c0,1.09 0,2.16 0,3.24 -0.21,0.33 -0.51,0.57 -0.9,0.7 -1.5,0 -2.99,0 -4.48,0 -1.11,-4.64 2.1,-4.34 5.38,-3.94l0 0z"/>
   <path class="fil43" d="M139.18 62.37c-2.06,3.5 -0.42,7.28 -0.95,10.89 -0.78,0.48 -1.52,0.47 -2.21,-0.16 -1.38,-3.67 -1.17,-7.35 -0.18,-11.06 0.2,-0.18 0.39,-0.36 0.58,-0.54 1.01,0.04 2.07,-0.04 2.76,0.86l0 0.01z"/>
   <path class="fil44" d="M104.45 54.08c2.17,-1.8 2.51,-4.19 2.57,-6.68 -0.25,-0.61 -0.36,-1.22 0.03,-1.82 0.65,-0.37 1.28,-0.41 1.85,0.13 2.2,4.48 1.34,6.09 -4.45,8.36l0 0.01z"/>
   <path class="fil45" d="M129.02 65.52c0.39,1.45 -0.57,3.16 0.99,4.38 0.64,1.75 -0.36,2.84 -1.81,3.74 -0.71,0.21 -1.41,0.15 -2.05,-0.21 -0.91,-0.84 -1.27,-1.85 -1.1,-3.02 1.11,-2.61 0.67,-5.59 2.19,-8.11 2.04,0.41 0.13,2.63 1.78,3.22l0 0z"/>
   <path class="fil46" d="M102.67 41.46c0,-1.94 0,-3.89 0,-5.84 1.18,-0.41 1.86,0.42 2.69,0.92 0.3,0.31 0.6,0.61 0.9,0.92 0.37,0.88 0.55,1.8 0.79,2.71 0.13,0.97 0.23,1.94 -0.22,2.88 -0.51,0.72 -1.14,1.21 -2.17,0.92 -0.15,-1.19 -1.03,-1.87 -1.99,-2.5l0 -0.01z"/>
   <path class="fil47" d="M122.71 66.59c-0.6,-1.95 -1.2,-3.91 -1.81,-5.86 4.4,-2.18 2.64,2.73 4.6,3.36 1.53,2.08 -0.19,2.85 -1.77,3.67 -0.72,-0.11 -1.33,-0.31 -1.02,-1.17z"/>
   <path class="fil48" d="M123.62 67.42c0.93,-0.96 1.75,-1.98 1.89,-3.33 0.58,-0.6 1.16,-1.19 1.74,-1.79 -0.24,2.88 1.07,6.03 -1.76,8.45 -1.7,-0.61 -2.92,-1.44 -1.86,-3.33l-0.01 0z"/>
   <path class="fil29" d="M114.52 64.94c0.05,0.22 0.13,0.44 0.22,0.64 0.32,4.86 0.15,9.72 0.08,14.58 -0.03,1.51 0.48,3.5 -2.13,3.95 0,-6.4 0,-12.79 0,-19.18 0.61,0 1.21,0 1.83,0l0 0.01z"/>
   <path class="fil49" d="M86.3 52.33c-4.6,-1.27 -3.15,-3.99 -1.91,-6.67 0.4,-0.31 0.83,-0.35 1.29,-0.12 0.61,0.42 0.91,0.98 0.98,1.66 -0.15,1.71 0.42,3.46 -0.36,5.12l0 0.01z"/>
   <path class="fil50" d="M132.79 64.92c0.3,-1.42 0.61,-2.84 0.91,-4.26 0.98,0.08 2.03,0 2.72,0.85 0,0 -0.05,0.12 -0.05,0.12 -1.62,2.09 -0.6,4.48 -0.87,6.72 -0.2,1.59 0.37,3.27 -0.63,4.78 -0.43,0.35 -0.91,0.39 -1.41,0.14 -2.06,-2.67 -0.35,-5.58 -0.68,-8.35l0.01 0z"/>
   <path class="fil51" d="M54.38 44.89c1.86,-3.88 5.48,-3.62 9.14,-3.26 0.04,1.28 -1.11,1.32 -2.01,1.63 -0.54,0.16 -1.09,0.31 -1.62,0.52 -0.83,0.39 -1.65,0.8 -2.33,1.41 -0.54,0.49 -0.85,1.17 -1.52,1.55 -1.48,0.08 -1.03,-1.29 -1.66,-1.85l0 0z"/>
   <path class="fil52" d="M54.38 44.89c0.57,0.53 1.14,1.07 1.7,1.6 0.76,0.32 0.31,1.18 0.85,1.6 0.5,1.61 -0.73,2.48 -1.75,3.44 -1.7,0.47 -1.01,-1.18 -1.69,-1.6 0.91,-1.59 0.79,-3.34 0.89,-5.04l0 0z"/>
   <path class="fil53" d="M128.1 42.24c4.34,-1.34 5.68,1.09 6.38,4.29 -0.44,0.44 -0.98,0.5 -1.57,0.35 -1.02,-0.53 -1.46,-1.53 -2.24,-2.25 -0.38,-0.34 -0.75,-0.68 -1.15,-1 -0.54,-0.4 -1.15,-0.75 -1.42,-1.38l0 -0.01z"/>
   <path class="fil54" d="M57.99 57.39c2.12,0.42 4.24,1.46 6.36,-0.02 -2.08,4.23 -2.76,4.23 -6.36,0.02z"/>
   <path class="fil55" d="M124.53 58.24c1.8,-0.62 3.91,0.48 5.58,-0.84 -2.13,4.02 -2.44,4.06 -5.58,0.84z"/>
   <path class="fil56" d="M60.72 42.45c0.99,-0.13 2.07,0.01 2.8,-0.83 0.55,0.28 1.1,0.55 1.65,0.82 0.24,0.18 0.34,0.37 0.31,0.59 -0.03,0.22 -0.07,0.34 -0.13,0.34 -0.24,0.28 -0.53,0.53 -0.83,0.75 -1,0.61 -0.99,1.91 -2.03,2.49 -0.59,-0.1 -1.18,-0.2 -1.77,-0.3 -1.09,-1.29 -1.04,-2.58 0,-3.88l0 0.02z"/>
   <path class="fil57" d="M128.1 42.24c0.64,0.32 1.27,0.64 1.9,0.95 -0.07,1.12 0.46,2.07 1.07,2.99 0.15,0.36 0.12,0.7 -0.11,1.02 -1.34,0.22 -2.54,-0.09 -3.66,-0.73 -1.02,-1.38 -1.28,-2.74 0,-4.11 0.26,-0.06 0.54,-0.1 0.8,-0.12z"/>
   <path class="fil58" d="M93.61 72.24c0.25,-1.44 -0.41,-2.72 -0.83,-4.03 1.34,0.12 1.63,-1.08 2.43,-1.64 0.11,0.56 0.22,1.13 0.32,1.69 0.3,1.53 0.92,3.16 -1.24,4.06 -0.23,0 -0.46,-0.03 -0.69,-0.09l0.01 0.01z"/>
   <path class="fil59" d="M108.9 45.71l-1.49 0c-1.91,-1.64 -0.13,-3.61 -0.59,-5.39 0.18,-0.54 0.57,-0.73 1.16,-0.54l0.92 5.93z"/>
   <path class="fil60" d="M125.48 45.61c-0.59,0.07 -1.17,0.15 -1.77,0.23 -0.55,-0.34 -0.74,-0.85 -0.78,-1.43 -0.05,-0.78 0.43,-1.4 0.74,-2.07 0.9,-1.29 1.8,-0.32 2.7,0 0.32,1.23 0.09,2.34 -0.89,3.27l0 0z"/>
   <path class="fil61" d="M132.83 46.5c0.54,0 1.1,0.02 1.65,0.02 0.05,1.07 0.08,2.14 0.13,3.21 0.39,0.98 -0.11,1.16 -1.03,0.97 -0.79,-0.38 -0.82,-1.06 -0.83,-1.74 -0.57,-0.83 -0.76,-1.66 0.07,-2.47l0.01 0.01z"/>
   <path class="fil62" d="M99.9 33.1c-1.09,1.76 -3.02,0.46 -4.45,1.02 -1.25,-0.06 -2.49,-0.14 -3.74,-0.2 0.64,-0.53 1.26,-1.07 1.89,-1.6 2.06,0.68 4.4,-0.46 6.37,0.82l-0.06 -0.04 -0.01 0z"/>
   <path class="fil63" d="M99.96 33.14c-2.12,-0.31 -4.43,0.66 -6.37,-0.82 2.23,-0.44 4.56,-1.46 6.37,0.82z"/>
   <path class="fil64" d="M86.18 46.53l-0.87 -0.84c-0.66,-1.4 -0.67,-2.79 0.02,-4.18 0,-0.27 0,-0.54 0.01,-0.8 2.54,0.2 0.56,2.42 1.72,3.24 0.04,0.87 0.08,1.74 0.12,2.61 -0.34,0.37 -0.67,0.37 -1,-0.02l0 -0.01z"/>
   <path class="fil65" d="M68.01 53.34c-1.21,-1.12 0.5,-2.33 -0.14,-3.47 0.35,-0.31 0.71,-0.32 1.1,-0.05 1.13,1.51 1.6,2.86 -0.96,3.52z"/>
   <path class="fil66" d="M120.94 50.71c0.05,0.82 0.1,1.66 0.15,2.49 -2.37,-0.23 -2.58,-0.82 -1.16,-3.39 0.34,-0.28 0.7,-0.31 1.09,-0.09 0.25,0.35 0.23,0.68 -0.08,0.99l0 0z"/>
   <path class="fil67" d="M125.48 45.61c-0.17,-1.2 0.31,-2.25 0.89,-3.27 0.31,0 0.62,0.02 0.92,0.02 0,1.38 0,2.74 0,4.12 -0.6,-0.29 -1.22,-0.58 -1.82,-0.87l0.01 0z"/>
   <path class="fil68" d="M123.67 42.34c1.05,0.57 0.03,1.11 -0.02,1.67 -0.51,0.51 -0.82,1.22 -1.71,1.27 -0.2,-0.03 -0.38,-0.06 -0.57,-0.09 -0.15,-0.11 -0.29,-0.23 -0.44,-0.34 0.13,-1.56 0.98,-2.45 2.75,-2.5l-0.01 -0.01z"/>
   <path class="fil69" d="M133.58 50.71c0.34,-0.32 0.68,-0.65 1.03,-0.97 1.56,1.74 1.33,3.17 -0.9,4.24 -0.04,-1.09 -0.09,-2.18 -0.13,-3.27l0 0z"/>
   <path class="fil70" d="M87.06 43.94c-1.5,-0.67 -0.15,-2.6 -1.72,-3.24 0.36,-0.67 0.72,-1.35 1.09,-2.02 1.52,1.63 0.47,3.5 0.63,5.26l0 0z"/>
   <path class="fil71" d="M105.37 36.53c-0.9,-0.3 -1.8,-0.61 -2.69,-0.92 0.09,-0.95 -0.22,-1.77 -0.94,-2.46 2.5,-0.04 2.64,2.06 3.63,3.38z"/>
   <path class="fil72" d="M88.07 62.59c0,1.05 0,2.09 -0.01,3.13 -1.28,0 -1.78,-0.69 -1.85,-1.76 0.26,-0.86 0.85,-1.36 1.86,-1.38l0 0.01z"/>
   <path class="fil73" d="M63.48 63.33c-0.03,0.25 -0.05,0.48 -0.06,0.72 -0.87,0.02 -1.74,0.04 -2.61,0.05 -0.29,-0.14 -0.43,-0.32 -0.4,-0.54 0.03,-0.23 0.08,-0.35 0.17,-0.35 1.15,-3.3 1.94,0 2.9,0.13l0 -0.01z"/>
   <path class="fil74" d="M53.49 49.93c0.56,0.53 1.13,1.07 1.69,1.6 0.04,0.56 0.1,1.12 0.14,1.67 -3.14,0.1 -1.57,-2.03 -1.83,-3.28l0 0.01z"/>
   <path class="fil75" d="M86.18 46.53c0.34,0 0.67,0.01 1,0.02 0.19,0.23 0.23,0.47 0.15,0.74 -0.02,1.42 -0.04,2.84 -0.06,4.26 -0.32,0.26 -0.64,0.52 -0.97,0.78 -0.04,-1.93 -0.09,-3.87 -0.12,-5.8l0 0z"/>
   <path class="fil76" d="M104.48 65.74c0.01,-0.86 0.03,-1.74 0.03,-2.6 0.6,0.07 1.2,0.13 1.79,0.19 1.04,1.86 -0.19,2.26 -1.82,2.41l0 0z"/>
   <path class="fil77" d="M67.37 44.76c0.68,0.09 1.27,0.32 1.46,1.01 -1.15,0.83 0.79,3.07 -1.77,3.26l0.04 0.02c-0.59,-1.11 -0.98,-2.25 -0.67,-3.49 0.19,-0.39 0.5,-0.67 0.94,-0.81l0 0.01z"/>
   <path class="fil78" d="M107.98 39.79c-0.22,0 -0.45,0 -0.67,0 -0.37,-0.05 -0.75,-0.04 -1.12,0.04 -1.32,-0.83 -0.36,-1.6 0.07,-2.38 1.48,0.22 1.48,1.36 1.71,2.34l0.01 0z"/>
   <path class="fil79" d="M67.05 49.04c1.55,-0.65 0.34,-2.56 1.77,-3.27 0.05,1.35 0.1,2.7 0.15,4.05 -0.37,0.01 -0.74,0.03 -1.1,0.05 -0.28,-0.28 -0.55,-0.55 -0.82,-0.83l0 0z"/>
   <path class="fil80" d="M120.83 49.9c-0.3,-0.01 -0.59,-0.05 -0.89,-0.08 0.4,-1.65 -0.72,-3.55 0.99,-4.98 0,0 -0.02,-0.01 -0.02,-0.01 1.32,1.71 1.36,3.41 -0.08,5.08l0 -0.01z"/>
   <path class="fil81" d="M65.16 43.2c0.03,-0.25 0.03,-0.5 0.01,-0.74 1.95,-0.2 1.88,1.2 2.19,2.31 0,0 -0.33,0.08 -0.33,0.08 -1.45,0.24 -2.03,-0.34 -1.88,-1.64l0.01 -0.01z"/>
   <path class="fil82" d="M85.33 41.5c0,1.39 -0.01,2.79 -0.02,4.18 -0.31,-0.01 -0.61,-0.02 -0.92,-0.02 0.35,-1.38 -0.76,-3.04 0.94,-4.16l0 0z"/>
   <path class="fil83" d="M60.57 63.2c0.08,0.3 0.15,0.6 0.24,0.9 -0.12,0.53 -0.23,1.05 -0.35,1.58 -1.09,-0.52 -1.09,-1.61 -1.53,-2.46 0.55,0 1.1,-0.01 1.64,-0.02z"/>
   <path class="fil84" d="M115.44 65.79c1.43,2.57 1.88,5.36 2.21,8.17 1.92,2.04 0.19,4.7 1.39,6.86 -0.24,0.54 -0.48,1.1 -0.72,1.64 0.4,1.88 2.21,1.37 3.5,1.73 1.57,1.9 1.58,3.8 0,5.7 -1.84,0.06 -3.68,0.12 -5.53,0.17 -0.19,-0.2 -0.37,-0.39 -0.57,-0.58 -1.8,-7.88 -1.86,-15.78 -0.29,-23.7l0.01 0.01z"/>
   <path class="fil85" d="M124.55 84.19c1.55,-0.26 3.01,-0.5 2.89,1.7 -0.07,1.35 0.02,2.7 0.04,4.06 -0.98,-0.02 -1.95,-0.03 -2.93,-0.04 -1.59,-1.9 -1.58,-3.81 0,-5.71l0 -0.01z"/>
   <path class="fil86" d="M124.55 84.19c0,1.91 0,3.81 0,5.71 -0.91,0 -1.82,0 -2.73,0 0,-1.9 0,-3.8 0,-5.71 0.91,0 1.82,0 2.73,0z"/>
   <path class="fil87" d="M63.46 84.26c1.51,-0.02 3.03,-0.04 4.54,-0.07 1.6,1.92 1.57,3.84 0,5.76 -5.74,0.94 -4.43,-2.85 -4.54,-5.69z"/>
   <path class="fil88" d="M68 89.95c0,-1.92 0,-3.84 0,-5.76 1.21,0 2.43,0 3.65,0 1.54,1.84 1.54,3.74 0.35,5.72 -1,0.67 -2.04,0.62 -3.09,0.11 -0.3,-0.02 -0.6,-0.04 -0.9,-0.07l-0.01 0z"/>
   <path class="fil89" d="M68.9 90.01c0.92,-0.02 1.83,-0.05 2.75,-0.06 0.91,-0.66 1.82,-0.66 2.73,0 0.31,0.01 0.61,0.03 0.91,0.04 0.3,0.18 0.4,0.36 0.3,0.54 -0.1,0.17 -0.2,0.26 -0.31,0.26 0,0 0.04,0.09 0.04,0.09 -1.53,0 -3.06,0 -4.59,0 -0.61,-0.04 -1.22,-0.09 -1.84,-0.14 0,-0.24 0,-0.49 0,-0.73l0.01 0z"/>
   <path class="fil90" d="M92.61 90.05c0,0.23 0,0.47 0,0.7 -1.52,0.04 -3.03,0.09 -4.55,0.14 -1.53,-0.04 -3.04,-0.06 -4.57,-0.1 -0.29,-0.17 -0.4,-0.35 -0.29,-0.52 0.1,-0.18 0.2,-0.27 0.29,-0.27 0.61,-0.02 1.22,-0.04 1.84,-0.05 1.06,-0.83 2.31,-1.1 3.67,-1.07 1.34,0.03 2.66,0.11 3.6,1.17l0.01 0z"/>
   <path class="fil91" d="M106.2 39.83c0.35,-0.65 0.71,-0.95 1.12,-0.04 0.03,1.98 0.07,3.96 0.1,5.93 -0.13,0.56 -0.26,1.12 -0.39,1.68 -0.31,-0.33 -0.62,-0.66 -0.94,-0.98 -0.89,-1.1 -0.45,-2.18 0.06,-3.25 0.02,-1.12 0.03,-2.23 0.05,-3.34z"/>
   <path class="fil92" d="M106.15 43.17c-0.01,1.08 -0.04,2.17 -0.06,3.25 -0.34,0.41 -0.69,1.16 -1.01,1.15 -0.74,-0.03 -0.56,-0.76 -0.55,-1.25 0.02,-0.79 0.09,-1.58 0.14,-2.36 0.5,-0.27 0.99,-0.53 1.48,-0.8l0 0.01z"/>
   <path class="fil93" d="M45.2 77.32c0.3,-0.24 0.6,-0.47 0.9,-0.7 2.44,0 4.86,-0.01 7.29,-0.02 1.54,-1.22 3.4,-1.2 5.26,-1.17 1.5,-0.01 2.99,-0.05 4.47,0.01 3.03,-0.1 6.35,0.74 8.52,-2.18 0,0 0,0 0,0 1.31,0.1 2.79,-0.36 3.75,0.93 -0.08,1.09 -0.15,2.17 -0.24,3.25 -9.99,-0.04 -19.97,-0.08 -29.96,-0.13l0.01 0.01z"/>
   <path class="fil94" d="M119.04 80.82c-0.82,-2.23 -2.04,-4.39 -1.39,-6.86 1.26,-0.88 2.73,-0.69 4.16,-0.71 0.97,-0.68 1.96,-0.76 2.98,-0.09 0.87,1.2 0.71,2.34 -0.24,3.43 -1.82,0.28 -3.86,-0.66 -5.46,0.83 -0.02,1.13 -0.04,2.26 -0.05,3.4l0 0z"/>
   <path class="fil95" d="M103.5 73.23c0.93,-1.4 1.87,-2.8 2.8,-4.2 1.59,5.01 1.44,10.03 0,15.06 -0.69,0.66 -1.54,0.96 -2.51,1.03 -0.92,0.06 -1.85,0.01 -2.74,-0.21 -0.42,-0.11 -0.81,-0.31 -1.15,-0.57 -0.42,-2.11 1.76,-3.86 1.02,-6.02l2.6 -5.09 -0.02 0z"/>
   <path class="fil96" d="M116.39 89.88c-1.84,0 -3.68,0 -5.52,0 -1.32,-1.92 -1.28,-3.83 0,-5.74 0.61,0 1.21,0 1.82,-0.01 1.94,-4.4 0.4,-9 0.93,-13.48 0.2,-1.71 -0.76,-3.66 1.12,-5.05 0.28,-0.05 0.51,0.01 0.7,0.2 -0.03,8.04 -0.24,16.08 0.95,24.09l0 -0.01z"/>
   <path class="fil97" d="M103.57 84.13c0.91,-0.02 1.81,-0.04 2.72,-0.05 0.01,1.93 0.02,3.87 0.03,5.81 -0.92,0.01 -1.83,0.02 -2.75,0.03 -1.63,-1.93 -1.58,-3.86 0,-5.79l0 0z"/>
   <path class="fil98" d="M110.87 84.14c0,1.91 0,3.82 0,5.74 -0.61,0 -1.21,0 -1.83,0 0.64,-1.91 -1.57,-4.57 1.82,-5.74l0.01 0z"/>
   <path class="fil99" d="M65.16 43.2c0.62,0.55 1.25,1.1 1.88,1.64 0.01,1.41 0.03,2.81 0.06,4.22 -0.62,-0.61 -1.24,-1.22 -1.87,-1.83 -2.04,-1.03 -2.16,-2.39 -0.86,-4.02 0.27,0 0.53,-0.01 0.79,-0.01l0 0z"/>
   <path class="fil100" d="M64.37 43.21c-0.11,1.42 -0.02,2.79 0.86,4.02 -0.98,0.07 -1.98,0.18 -2.74,-0.6 0.27,-1.31 -0.7,-3.19 1.88,-3.42l0 0z"/>
   <path class="fil101" d="M57.02 44.79c0.56,-1.03 1.42,-1.67 2.74,-1.69 0.66,0.84 0.64,1.69 0.04,2.55 -0.59,0.02 -1.16,0.05 -1.75,0.07 -0.89,0.2 -1.33,-0.02 -1.03,-0.93l0 0z"/>
   <path class="fil102" d="M57.02 44.79c0.34,0.31 0.68,0.62 1.03,0.93 -0.36,0.79 -0.74,1.59 -1.11,2.37 -0.29,-0.53 -0.57,-1.06 -0.85,-1.6 0.31,-0.57 0.63,-1.13 0.94,-1.7l-0.01 0z"/>
   <path class="fil103" d="M59.79 45.65c-0.01,-0.85 -0.02,-1.69 -0.04,-2.54 0.32,-0.22 0.64,-0.44 0.97,-0.65 0,1.29 0,2.58 0,3.87 -0.31,-0.22 -0.62,-0.45 -0.93,-0.67l0 -0.01z"/>
   <path class="fil104" d="M120.83 49.9c0.03,-1.69 0.05,-3.38 0.08,-5.07 0.34,0 0.69,0 1.03,0 1.19,0.93 0.24,2.26 0.76,3.32 0.04,1.22 0.09,2.44 -1.76,2.56 -0.05,-0.26 -0.09,-0.53 -0.11,-0.8l0 -0.01z"/>
   <path class="fil105" d="M132.83 46.5c-0.02,0.82 -0.05,1.65 -0.07,2.47 -0.6,-0.59 -1.21,-1.18 -1.81,-1.77 0,-0.23 -0.02,-0.46 -0.02,-0.69 -0.72,-0.88 -0.82,-1.75 0.03,-2.61 1.21,0.51 1.78,1.4 1.87,2.59l0 0.01z"/>
   <path class="fil106" d="M122.7 48.14c-1.38,-0.89 -0.76,-2.16 -0.76,-3.32 0.56,-0.27 1.14,-0.55 1.71,-0.81 0.02,0.61 0.04,1.21 0.06,1.82 -0.34,0.77 -0.67,1.54 -1.01,2.31l0 0z"/>
   <path class="fil107" d="M74.38 89.95c-0.91,0 -1.82,0 -2.73,0 0,-1.92 0,-3.84 0,-5.76 0.89,-0.08 1.78,-0.15 2.67,-0.22 0.02,1.99 0.05,3.98 0.06,5.97l0 0.01z"/>
   <path class="fil108" d="M58.87 76.6c-1.82,0 -3.65,0 -5.47,0 0,-1.11 0,-2.21 0,-3.32 0.91,-0.01 1.82,-0.02 2.74,-0.03 0.97,-0.69 1.97,-0.76 2.99,-0.1 0.87,1.21 0.7,2.34 -0.25,3.44l-0.01 0.01z"/>
   <path class="fil109" d="M58.87 73.26c-0.91,0 -1.83,0 -2.74,0 0,-1.99 0,-3.97 0,-5.95 0.35,-0.1 0.69,-0.2 1.03,-0.31 1.18,2.09 2.37,4.17 3.55,6.26 -0.61,0.45 -1.22,0.51 -1.84,0z"/>
   <path class="fil110" d="M58.87 73.26c0.62,0 1.23,0 1.84,0 0.61,0 1.22,0 1.82,-0.01 0.5,-0.26 0.93,-0.19 1.28,0.21 0.68,1.13 0.53,2.17 -0.38,3.14 -1.52,0 -3.04,0 -4.56,0 0,-1.11 0,-2.22 0,-3.33l0 -0.01z"/>
   <path class="fil111" d="M63.43 64.9c0.25,1.4 -0.61,3 0.91,4.17 0.5,0.7 0.15,1.35 -0.14,2 -0.38,0.64 -0.83,1.21 -1.68,1.35 -1.49,-2.79 -1.12,-5.8 0.91,-7.52z"/>
   <path class="fil112" d="M62.52 72.42c0.31,-0.55 0.62,-1.11 0.93,-1.66 1.91,0.11 1.58,1.21 1.24,2.32 -0.36,0.4 -0.77,0.47 -1.26,0.21 -0.3,-0.02 -0.59,-0.03 -0.9,-0.05 0,-0.28 -0.01,-0.54 -0.01,-0.82l0 0z"/>
   <path class="fil113" d="M89.75 73.33c0.99,1.64 1.97,3.27 2.95,4.91 0.26,0.58 0.51,1.16 0.77,1.74 -0.9,1.61 1.32,2.61 0.96,4.11 -0.31,0.03 -0.62,0.06 -0.92,0.09 -1.22,0.79 -2.43,0.94 -3.61,-0.07 -1.97,-3.57 -3.49,-7.14 -0.16,-10.78l0.01 0z"/>
   <path class="fil114" d="M89.92 84.11c1.2,0.03 2.4,0.04 3.61,0.07 0.01,1.91 0.01,3.82 0.03,5.73 -0.31,0.04 -0.62,0.09 -0.94,0.13 -1.21,-0.03 -2.43,-0.07 -3.63,-0.11 -1.61,-1.92 -1.59,-3.86 -0.01,-5.79 0.32,-0.01 0.63,-0.02 0.95,-0.03l-0.01 0z"/>
   <path class="fil30" d="M88.97 84.14c0,1.94 0,3.87 0.01,5.81 -1.22,0 -2.44,0 -3.64,0 0,-1.94 0,-3.88 -0.01,-5.81 1.21,0 2.42,0 3.64,0.01l0 -0.01z"/>
   <path class="fil115" d="M124.55 73.26c-0.91,0 -1.83,0 -2.74,0 0.42,-2.21 -0.91,-4.62 0.9,-6.66 0.31,0.28 0.61,0.55 0.91,0.83 -0.11,1.45 1.33,2.18 1.86,3.32 0.3,0.84 0.61,1.67 0.91,2.51 -0.61,0.45 -1.22,0.51 -1.85,0.01l0.01 -0.01z"/>
   <path class="fil116" d="M99.92 84.06c0.3,0.03 0.61,0.06 0.92,0.09 1.57,1.93 1.6,3.86 0,5.78 -0.32,0.04 -0.62,0.09 -0.93,0.13 -0.6,-0.05 -1.21,-0.1 -1.8,-0.15 0,-1.92 0,-3.85 -0.01,-5.77 0.59,-0.49 1.2,-0.53 1.83,-0.07l-0.01 -0.01z"/>
   <path class="fil117" d="M99.92 84.06c-0.61,0.03 -1.22,0.05 -1.83,0.08 0.58,-1.42 1.15,-2.83 1.72,-4.25 0.36,-0.53 0.72,-1.05 1.08,-1.57 1.6,2.18 1.17,4.08 -0.97,5.74l0 0z"/>
   <path class="fil118" d="M94.45 84.09c-1.24,-1.18 -2.94,-2.29 -0.96,-4.11 0.67,1.1 1.33,2.19 2.01,3.29 -0.35,0.27 -0.69,0.55 -1.04,0.83l-0.01 -0.01z"/>
   <path class="fil119" d="M133.67 73.25c0.3,0 0.61,0 0.91,0 0.49,-0.3 0.91,-0.24 1.26,0.19 0.75,1.13 0.54,2.17 -0.35,3.14 -2.13,0 -4.26,0 -6.39,0 -0.9,-1.02 -1.13,-2.1 -0.31,-3.25 0.77,-0.73 1.71,-1.03 2.8,-0.98 0.8,0.06 1.45,0.43 2.06,0.88l0.02 0.02z"/>
   <path class="fil120" d="M135.5 76.6c0,-1.11 0,-2.23 0,-3.33 0.3,-0.3 0.6,-0.3 0.91,0 0.61,0 1.22,0 1.83,0 0.9,0 1.8,0 2.69,0 0.66,4.49 -2.97,3.1 -5.42,3.33l-0.01 0z"/>
   <path class="fil110" d="M129.1 73.3c0,1.1 0,2.2 0,3.3 -1.52,0 -3.04,0 -4.56,0 0,-1.11 0,-2.23 0,-3.33 0.61,0 1.22,0 1.84,-0.01 0.61,0 1.22,0 1.82,0 0.32,-0.35 0.63,-0.35 0.89,0.05l0.01 -0.01z"/>
   <path class="fil34" d="M94.3 72.33c0.89,-1.23 1.12,-2.64 1.24,-4.06 1.48,2.42 0.46,4.98 0.69,7.69 -1.52,-1.04 -0.25,-2.95 -1.93,-3.63z"/>
   <path class="fil121" d="M133.67 73.25c-0.62,0 -1.22,0 -1.83,0 -1.59,-1.47 -0.71,-3.33 -0.92,-5.01 0.62,-1.1 1.24,-2.21 1.86,-3.31 1.8,2.64 0.48,5.56 0.88,8.33l0.01 -0.01z"/>
   <path class="fil122" d="M130.93 68.23c1.67,1.47 0.63,3.34 0.92,5.01 -0.92,0.02 -1.82,0.03 -2.74,0.05 -0.29,-0.02 -0.59,-0.03 -0.89,-0.05 0.6,-1.11 1.2,-2.23 1.8,-3.35 0.02,-0.69 0.18,-1.3 0.91,-1.66l0 0z"/>
   <path class="fil123" d="M67.09 64.91c1.84,2.64 0.5,5.57 0.9,8.34 -0.67,0.47 -1.36,0.47 -2.05,0.07 -1.4,-1.85 -0.28,-3.94 -0.66,-5.89 0.6,-0.84 1.21,-1.68 1.81,-2.52l0 0z"/>
   <path class="fil124" d="M65.28 67.43c1.71,1.76 0.54,3.88 0.88,5.82 -0.61,0.45 -1.22,0.45 -1.83,-0.01 -0.03,-0.9 0.17,-1.87 -0.89,-2.47 0.29,-0.57 0.6,-1.13 0.89,-1.7 0.32,-0.54 0.63,-1.09 0.95,-1.64l0 0z"/>
   <path class="fil119" d="M64.34 73.23c0.61,0 1.21,0 1.83,0.01 0.61,0 1.21,0 1.83,0 0.61,0 1.21,0 1.83,0 0.61,0 1.21,0 1.83,0 0.28,2.3 -0.51,3.63 -3.37,3.37 -1.6,-0.15 -3.23,-0.03 -4.85,-0.04 0,-1.09 0,-2.2 0,-3.3 0.3,-0.01 0.61,-0.04 0.92,-0.05l-0.02 0.01z"/>
   <path class="fil125" d="M136.41 73.26c-0.3,0 -0.6,0 -0.91,0 -0.31,0 -0.62,0 -0.92,0 0,-2.85 -0.03,-5.69 0.02,-8.54 0.03,-1.26 -0.49,-2.88 1.77,-3.09 0.01,3.87 0.02,7.75 0.03,11.62l0.01 0.01z"/>
   <path class="fil126" d="M130.96 43.91c-0.01,0.87 -0.02,1.74 -0.03,2.61 -2.51,-0.6 -2.18,-1.85 -0.93,-3.33 0.32,0.24 0.64,0.47 0.96,0.72z"/>
   <path class="fil127" d="M100.84 89.93c0,-1.92 0,-3.85 0,-5.78 0.91,0 1.82,-0.01 2.73,-0.02 0,1.93 0,3.86 0,5.79 -0.91,0 -1.82,0 -2.73,0l0 0.01z"/>
  </g>
 </g>
</svg>
