<svg id="Слой_1" data-name="Слой 1" xmlns="http://www.w3.org/2000/svg" viewBox="0 0 350 437"><defs><style>.cls-1{fill:#fdfdfd}.cls-3{fill:#7bdbf7}.cls-4{fill:#063982}.cls-8{fill:#e54b52}.cls-11{fill:#82dcf7}.cls-12{fill:#054f9a}.cls-19{fill:#c5eff7}.cls-39{fill:#dd5562}.cls-44{fill:#c6f0f7}.cls-49{fill:#00c3f9}.cls-50{fill:#0899c8}.cls-63{fill:#21afe2}.cls-68{fill:#fafcfd}.cls-70{fill:#f4b12e}.cls-75{fill:#ec4f65}.cls-114{fill:#fcfdfd}.cls-118{fill:#f7d046}.cls-119{fill:#def2f6}.cls-160{fill:#ee8b19}</style></defs><path class="cls-1" d="M-158.9 15.5q0-107.2-.1-214.41c0-3.42.67-4.09 4.09-4.09q170.91.18 341.82 0c3.42 0 4.09.67 4.09 4.09q-.17 214.41 0 428.82c0 3.42-.67 4.09-4.09 4.09q-170.91-.18-341.82 0c-3.42 0-4.1-.67-4.09-4.09q.2-107.2.1-214.41Z" transform="translate(159 203)"/><path d="M-87.06 101c-6.27-1.5-12.76-2.06-18.61-5.24-17.39-9.44-26.42-26.76-24.12-46.56 2.12-18.32 16.7-34.74 35.76-39C-88.31 9-86.49 7-87 1.36a95 95 0 0 1 0-15.46c.26-3.87-.77-5.46-4.94-6a43.21 43.21 0 0 1-36.92-32.47 45.74 45.74 0 0 1 37.35-57.32c3.72-.58 5-1.75 4.84-5.58-.21-4.32-.6-8-3.47-11.85-10.17-13.7-3-33.12 13.08-36.71 1.1-.58 2-.64 2.36.85-.9 1.84-2.85 2.13-4.45 2.91-9.61 4.67-14.17 13.34-12.15 23.15s9.52 16.39 19 16.78a21.64 21.64 0 0 0 21.88-16c.42-1.42-.08-3.52 2.32-3.77.55 2.78 2 4 5 3.67 5.34-.58 10.78.72 16.1-.67 5.34-20.59 19.91-34.25 38.37-36 21.65-2.05 39.41 9.67 45.4 30.57 1.26 4.4 2.93 6 7.34 5.43a72.62 72.62 0 0 1 9-.1c1.84.68 1 1.36 0 2-3.5 0-7 .21-10.49-.08-3.18-.26-3.9.88-3.78 3.92.42 10.59-1.92 20.47-8.28 29.18A40.68 40.68 0 0 1 21.24-85c-3.47.4-4.36 1.64-4.28 5 .22 8.33.13 16.66 0 25 0 2.25.5 3 2.95 3.28C45.62-49 63.21-31.33 66.07-5.35c.38 3.48 1.65 4.33 5 4.28 10.82-.15 21.66.29 32.47-.05 4.94-.15 7.51.85 6.46 6.29-.74 3.82 1.2 4.27 4.44 3.87 2.47-.31 2.41-1.71 2.41-3.45 0-6.66-.19-13.33.06-20 .13-3.43-.6-4.7-4.41-5.2-22.67-3-36.71-17.07-39.91-39.35-2.6-18.09 8.35-38.88 24.75-47a45.32 45.32 0 0 1 52.48 8.77c13.32 13.36 16.62 34.52 7.81 51.74-7.32 14.24-18.63 23.26-34.71 25.56-2.89.42-4.36 1.16-4.2 4.57.31 6.82.26 13.66 0 20.48-.1 3 .8 3.75 3.72 4.28 19.96 3.67 33.56 14.72 38.64 34.83 6.51 25.88-11.78 52.94-38.18 56.59-3.06.43-3.81 1.57-3.78 4.42.12 11 .14 22-.05 33 0 2.91.74 4.3 3.72 4.48 5.6.36 10 3.3 14.08 6.85a1.79 1.79 0 0 1-2.23 1.6c-5-2.89-9.83-6.09-16-6-15.56.34-24.12 14.42-19 29.79.52 1.56 1.7 2.86 1.83 4.59-.13.83-.44 1.47-1.46 1.3-10.76-14-4.25-33.53 12.94-37.88 4-1 4.86-2.62 4.78-6.33-.24-10.48-.24-21-.09-31.45 0-3-1-3.88-4-4.18-21.78-2.16-37.14-16.49-41-38.33-.53-3-1.46-4.25-4.64-4-4 .33-8 .19-12 .25a1.67 1.67 0 0 1-.91.58 1.79 1.79 0 0 1-1-.37c-6.6-.88-13.23-.12-19.84-.42-3.8-.17-2.58 3.36-3.33 5-2.49 5.36-7.06 8-12.92 8.26-6.71.26-11.48-3.53-16.82-6.28-.22-.12 0-1.17.08-1.78 7.54.11 15.06 1.11 22 .48-7-.37-14.61.8-22.07-1.36-2-5.28-6.58-3.9-10.55-3.92h-26.95c-1.77 0-3.41-.41-3.91 2.4-4.29 24-19 36.69-43.07 38.94a16.49 16.49 0 0 0-1.95.41 1.17 1.17 0 0 1-1.82.09Z" transform="translate(159 203)" style="fill:#023883"/><path class="cls-3" d="m-11 109.88 2-1.88c6.72-1.27 7.64-.07 6.63 8.66C-1.14 107-1.14 107 8.88 107c8.78 0 17.58-.52 26.35.54 2.41 1.88 2.22 4.6 2.25 7.2a92.3 92.3 0 0 1-.21 11.26 6 6 0 0 1-.41 1.66c-.28.6-.55 1.34-1.11 1.61-7.41 3.6-8.24 10-7.46 17.16-.53 2.82-.32 5.88-2.62 8.14-7.87 1.55-15.81.78-23.71.48-3-.12-3.93-2.51-3.95-5.35-.06-5.79.22-11.59-.16-17.36-1.42-1.6-.58-2.85.59-4.15a1.43 1.43 0 0 0 0-2.16 1.46 1.46 0 0 0-1.79-.11 1.74 1.74 0 0 0-.65 2.13 22 22 0 0 0 1.91 4.44c-.54 11.69 1.64 23.38-.27 35-.22 1.32.56 2.58.32 3.91-2.62 3.6-3.66 7.08.04 10.6.52 4.17.81 8.32-.2 12.46a8.17 8.17 0 0 1-8.44 3 2.65 2.65 0 0 1-1.16-1.27c-.61-4.92-1.7-9.81-1.12-14.82 1.87-10.51.56-21.11.95-31.66V115.6c-.03-1.94-.37-3.99.97-5.72Z" transform="translate(159 203)"/><path class="cls-4" d="m27.06 145.84-.09-.48c-1.76-8.23 1.09-14.12 8.89-17.49 1.25-.13 1.47.55 1.26 1.58s-1.15 1.6-1.38 3c10.78.14 21.49 0 32.2.06H86.8c2 0 4-.15 5.79 1-3.27 3.36-2.53 8.44-5.18 12.07-.09.12-.29.15-.44.22-.58.42-1.94-.29-1.4 1.65 1.12 4 1.88 8.16-.73 12a1.15 1.15 0 0 0 0 1.64c3.57 4.47 2.55 9.33.71 14-.54 1.36.13 2 .37 3 1.33 5.72 3 11.51-1.18 16.94-1.78 2.31 0 5.08-.2 7.65-.07.77 3 .21 4.56.43 3.27.44 6.8-1 11 1.68H-65.57c1.33-2.18 3.56-1.72 5.51-2l.8-.12c6.38-.35 12.78.33 19.14-.39 1.29-.35 2.68-.36 3.84-1.1a1.45 1.45 0 0 0 .31-2.42c-.73-2.54-1.88-5.07-.07-7.63-1.05-4.38 3.12-8.83-.35-13.34-.81-1.05 1.43-2.26 2.25-3.37a1.53 1.53 0 0 1 2.55.23c.65 1 1.68 2.27 1 3.38-3.06 4.85.53 9.27.67 13.89 1.41 1.63-.09 3.1-.34 5 2.32-1.22 3.91-3 5.75-4.49 1.05-.84 2.28-2.55 3.74-.92 1.19 1.33.24 2.83-.71 4a25.57 25.57 0 0 1-9 6.92c2.46 0 4.73.23 7 .33 4.52.2 8.64-.14 10.69-5.08a1.32 1.32 0 0 1 1.69-.68h.23a3.77 3.77 0 0 1 .84 1.85c-.42 3.35 1.95 2.81 3.93 2.81a20.35 20.35 0 0 1 4.67.41 130 130 0 0 0 24.79 0 13.2 13.2 0 0 1 3.42-.38 11.17 11.17 0 0 1 2.51.35c4 .67 8.06 1.22 12-.55 2.13-1.19 2.12-3.27 2.13-5.26.07-14.49 0-29 .07-43.47 0-3.87-1.53-5.26-5.32-5.32s-7.74 1.12-11.11-1.6Z" transform="translate(159 203)"/><path d="M-66.76 166c0 4.49 0 9-.08 13.48 0 1.42.49 3.31-1.1 4.11-6.92 3.46-13.13 8.38-20.86 10.16-2.17-3.14-2.32-6.1.8-8.75 1-.55 2.37-.59 3.66-2-2 1.38-3.5 2.4-5.18.65a5 5 0 0 1-.08-4.32 2.68 2.68 0 0 1 1.43-1.21c-1.07-1.52-2.44-3-1.26-5 2.38-1.29-1.2-1.59-.45-2.62-.4-3.23 1-4.73 4.14-4.88-1.67-.31-4.1-.36-3.7-3.33 1.87-2.68 3.41-5.74 7.21-6.15 2.5.41 4.34 2.21 6.62 3.09 2.75 2.51 7.42 2.53 8.85 6.77Z" transform="translate(159 203)" style="fill:#01c3f9"/><path d="M-86.92 185c-3.21 2.38-1.55 5.8-1.88 8.8-7.32-1.94-13.32-6.44-19.7-10.21-1.34-.79-1.47-2.08-1.45-3.46.1-5.65.18-11.3.27-17 2.6-2.52 6.15-3.34 9.19-5.08 2.25-.61 4.21-1.93 6.45-2.55a2.73 2.73 0 0 1 1.37.28c1.42 2 4.12 3.2 3.85 6.24s2.34 2.86 5.89 3c-4 1.48-6.75 2.31-6 5.91-2.57 2.06-4.65-.5-6.78-.62 2.06 1.16 4.91 1 7 2.81-.8 3.56 1.27 4.13 4.19 3.73-.33 1.59-1.58 1.54-2.53 1.91a35 35 0 0 1-7.42-2.17c2.06 1.25 4.3 1 5.76 2.56v4.59c-3.16 2-5.75-1.29-9.13-1-.27 0 .29 1.08.2.42 0-.27.08-.41.34-.34A106.3 106.3 0 0 0-86.92 185Z" transform="translate(159 203)" style="fill:#83dcf7"/><path d="M-35 202.05c-1.05 1.36-2.6.67-3.91.93a106.58 106.58 0 0 1-21 0l-.12-.25a29.75 29.75 0 0 1 2.26-20.87 13.05 13.05 0 0 1 6.26-6.14c6-3 6.16-2.6 7.72 3.68 1.13 4.53 3.26 9.07 7.78 11.67.32 2.92.65 5.84 1 8.76-4.14-.88-6.51-4.32-9.63-6.58 1.83 4.35 7.07 5.08 9.64 8.8Z" transform="translate(159 203)" style="fill:#137bc2"/><path class="cls-8" d="m135.32 150.94 1.55-1.35c1.56-1.19 3.12-2.39 4.69-3.57 1.95-1.46 3.76-.93 5.32.62a3.7 3.7 0 0 1 .26 5c-1.57 2.3-3.51 4.34-5.29 6.49a9.29 9.29 0 0 1-1.77 2.92c-5.78 5.94-11.8 11.64-17.61 17.55-2.54 2.58-4.84 2.26-7.25-.19-3.15-3.18-6.29-6.38-9.51-9.48-2.78-2.67-3-5.29-.49-8.26 2.64-3.15 5.42-2.53 8.35-.58.15.1.28.21.4.28 2 1.13 2.61 4.48 5.26 4.07s4-3.34 6-5c3.42-2.77 5.51-7.11 10.09-8.5Z" transform="translate(159 203)"/><path d="M-8.92 86.75A13.45 13.45 0 0 1-22.68 100c-7.38-.12-12.74-5.93-12.6-13.65a13.46 13.46 0 0 1 13.9-13.16c6.91.18 12.57 6.32 12.46 13.56Z" transform="translate(159 203)" style="fill:#d03d5a"/><path d="M-66.76 166c-3-2.23-6.77-3.31-9.31-6.22a5 5 0 0 1-1.19-4.19c1-5.9-1.94-10.88-3.5-16.21-1.16-4-5.53-4.68-7.1-8 .13-2.89-2.75-7 3.12-7.54A20.64 20.64 0 0 1-67 140.62a68.75 68.75 0 0 1 .24 25.38Z" transform="translate(159 203)" style="fill:#ee8a19"/><path class="cls-11" d="M54.1 59.22a.61.61 0 0 1 .62-.1c1.55 2.38.36 5 .75 7.53.27 1.72-.65 3.59.65 5.18 3.13.41 5.92 1.48 8 4 1.47 2.75 3.36 5.31 3.81 8.52C69.1 93 65 98.66 56.07 100.84 52.89 101.26 50 101 48 98c-5.22-5.51-5.55-12-4-19 1.4-1.61 2.53-4.23 4.22-4.67 7.14-1.84 5.78-7.2 5.78-12.14 0-.99.06-1.98.1-2.97Z" transform="translate(159 203)"/><path class="cls-12" d="M-11.1 197c-4.48 7.42-11.09 9.18-21.18 5.48 4.1-3.19 9.36-5.06 11.81-11.65-4.66 3.24-7.54 6.83-12 9.16-.25-3.38 2.38-5.39 2.49-8.11 3.26-4.37 7.3-8.46 6.92-14.44-.23-3.68 1.21-4.22 4.23-3.26 1.71.55 3.47 1 5.3 1.5 1.05-1.81.1-3.84.64-5.67 2.29.11 1.27 1.9 1.31 2.91a58.56 58.56 0 0 1-.27 9.17Z" transform="translate(159 203)"/><path d="M-39.95 169.91c-3.59-4.24-7.6-8.12-9.79-13.47-1.33-3.25-1.63-6 .93-8.6a5.94 5.94 0 0 0 .78-1.27c4.64-10.75 6.41-11.18 16.81-4.07 1.47 6.09 2.44 12.22 1.19 18.48-1 2.4-3.53 1.87-5.65 2.55 1.81 1.62 4.46.77 5.34 3.1.25 3.12-2 3.36-4.2 3.66a15.67 15.67 0 0 1-5.41-.38Z" transform="translate(159 203)" style="fill:#e5c8ac"/><path d="M-31 161.78c.75-6.61-.81-13.1-.94-19.67 1.84-2.68 5.08-3 7.65-4.35 1.88-1 3.15.39 3.92 2a35.7 35.7 0 0 1 2.64 6.86c.08-1.46 0-2.53 1.5-2.33 3.25 9.86-2.31 15.86-8.08 23.08-4.1 5.12-7.87 4.28-12.42 4.53a3.19 3.19 0 0 1-3.17-2c1.66-1.71 3.78-.89 5.68-.92 2.24 0 3.54-.66 3.3-3.12a4 4 0 0 0-.08-4.08Z" transform="translate(159 203)" style="fill:#d9b084"/><path d="m-16.28 144.29-1 4.47a10.82 10.82 0 0 1-.87-1.29c-1.53-3.16-3-6.34-4.54-9.51-3 1.51-5.79 3.62-9.27 4.15a17.48 17.48 0 0 1-11.1-4.11c-2.13 3.28-1.26 8.23-5.75 9.87-.71-15 8.73-23.09 22.08-19 7.73 2.3 10.29 8.02 10.45 15.42Z" transform="translate(159 203)" style="fill:#0a377b"/><path d="m37 128.63-1.12-.76c.07-.23.13-.46.2-.68a9.24 9.24 0 0 1 3.77-4.48c3.19-2.21 4.49-5.11 3.65-9-.8-3.7-3.77-4.2-6.72-4.83-.48-.1-.93-.34-1.41-.47-11.15-.09-22.3-.13-33.44-.31-2.55 0-3.1 1.1-3 3.32a61.44 61.44 0 0 1-.55 11.23c-2.36-2.38-1.84-5.13-1.56-8 .62-6.34.51-6.38-5.75-6.66 1.58-2.36 4.14-1.39 6.21-1.57a60 60 0 0 1 11.45 0c4.47.48 6.41-1.12 6.12-5.57-.15-2.15-.18-4.31-.29-6.45-.22-4.34-2.52-6.11-6.83-6-2.19.08-4.63.83-6.74-1 3.45-1.72 7-1.11 10.31-.47 3 .6 4.74 2.91 4.94 6.07s.45 6.62.35 9.93c-.07 2.61.83 3.49 3.43 3.42 5.48-.16 11 0 16.45 0 8.25 0 9.22.87 10.24 9.16.1.82.24 1.64.43 2.87 4.64-2.44 8.25-6 12.31-8.89 1.73-1.23 3.49-3 5.52-.4.18.87-.36 1.3-1 1.68-7.86 4.26-14.13 10.71-21.54 15.58-1.66 1.09-2.88 3.43-5.43 2.28Z" transform="translate(159 203)" style="fill:#10438a"/><path d="M-84.74 123.79c-4.23 1.68-1.35 5.29-2.15 7.89-.62 1.22-1.81 1.4-3 1.57-4.68.69-7.36 3.6-8.67 7.9-.62 2.07-1.47 3.72-3.84 4-2.55.14-5.16.69-7.41-1.13.3-11.05 6.32-18.12 17.31-20.3 1.78-.35 3.59-.56 5.38-.83a1.28 1.28 0 0 1 1.92 0 1.66 1.66 0 0 1 .46.9Z" transform="translate(159 203)" style="fill:#f4b230"/><path d="M146 134.22c-1 1.33-2.13 2.11-3.71.78-4-3.34-7.84-6.77-9.61-11.85-3.44-9.86 3.61-18 14.12-16.29a38 38 0 0 0-.38 10.6c-.67 4.19-4.09 2.73-6.84 2.79 1 3.27 3.61 4.23 5.66 5.77 1.14 2.65.15 5.5.76 8.2Z" transform="translate(159 203)" style="fill:#167bc2"/><path class="cls-19" d="M82.7-12.12c-1.49 0-3.13.41-4.43-.09-2.07-.8-4.57-1.55-5.15-4.15s1.34-4.16 3.19-5.11c2.7-1.4 4.15-5.45 7.87-4.42a53.54 53.54 0 0 1 10.24 4.1c2 1 1.76 3.42 1.41 5.4a3.57 3.57 0 0 1-3.31 3.23c-3.33.06-6.44 1.75-9.82 1.04Z" transform="translate(159 203)"/><path d="M145.63 118c-.6-3.83-2.59-7.81 1.19-11.18 9.05 2.41 12.4 10.06 7.88 18.12a27.67 27.67 0 0 1-8.68 9.23c-2.83-2.34-1-5.37-1.18-8.09-.66-2.46 1.47-3.43 2.66-4.87 1.43-1.72 3.47-3 4.43-5.65-3.07-.8-4 2.68-6.3 2.44Z" transform="translate(159 203)" style="fill:#043984"/><path d="m-109.76 144.05 7.93-.08c4 4.43 3.77 9.48 2.13 14.74-3 2.1-6.13 4.13-10 4.41q-.02-9.52-.06-19.07Z" transform="translate(159 203)" style="fill:#d57737"/><path d="M73.08-135.08v-2c0-6.16 0-12.32.11-18.48.06-4.69 2.39-7.88 7.13-8 12.13-.25 24.28-.1 36.42-.06.43 0 .85.45 1.27.68-2.08 2.13-5.08 1-7.44 2.13-8.44.87-16.92.24-25.38.41-7.7.15-8.87 1.11-8.71 8.6.22 9.94-.92 19.93.9 29.82a2 2 0 0 1-1.38 2.04c-3.4-2.31-2.66-6-2.95-9.25a52.64 52.64 0 0 1 .03-5.89Z" transform="translate(159 203)" style="fill:#f27a76"/><path d="M-27-137c-6.33 2.52-12.9.7-19.35 1-2.26.09-1.13-2.82-2.39-3.84-1.62-1.07-1.37-2.87-1.74-4.44-2.23-9.48-9.23-17.59-20-17.29-1.61 0-3.38.15-4.47-1.5l-2.1-.84c1-1.54 4 .18 4.24-2.53.21-2.11-2.54-1.28-3-3.1 2.57-1.87 5.58-1.06 8.42-1.14.83 0 1.77.48 1.73 1.36s-.89 1.33-1.83 1.3c-1.2 0-2.47-.15-2.26 1.67.16 1.35 1.3 1.17 2.24 1.42 14.31 3.74 19.64 10.22 20.38 25.25.13 2.57 1 3 3.22 2.94C-38.28-137-32.64-137-27-137Z" transform="translate(159 203)" style="fill:#1b4b8f"/><path d="M159.2 10.25a15.24 15.24 0 0 1-2.06-1.73c-1.21-1.48-2.32-1.66-3.57-.07s-2.41 2-4.07.3c-1.46-1.5-1.13-2.53.24-3.67 1.72-1.45 1.42-2.83-.18-4.11s-1.54-2.27-.1-3.64c1.28-1.22 2.38-1.79 3.7-.18s2.69 2.39 4.23.11c1.17-1.7 2.39-1.26 3.63.1 1.06 1.17 2.19 2.15.33 3.57s-1.38 2.83 0 4.58c1.94 2.54-.9 3.19-2.15 4.74Z" transform="translate(159 203)" style="fill:#f4b333"/><path d="m76-119.94 1.1-1.12c4.28-.85 4.28-.85 5.31 4.73a19.74 19.74 0 0 1 4.71-4.22c2.26-1.77 4.94-1.79 7.6-1.83 5.81-.09 11.62.19 17.42-.13 5.35-.3 7.11-2 7.29-7.43.24-7.46.3-14.94 0-22.4-.26-5.81-1.28-6.84-7-8.59A3 3 0 0 1 111-162c2.13-1.83 4.7-.39 7-.94 1.68 1.35 3.8 2.34 4 4.9a280.17 280.17 0 0 1 0 33.42c-1.25 3.8-3.79 5.51-7.81 4.81-8 1-16.15-.15-24.2.6l-9.43 10.74c-2.36-3.65 1.92-9.91-4.56-11.47Z" transform="translate(159 203)" style="fill:#df5151"/><path d="m140 159.64 1.81-1.52c3.72 11.18-1.47 23.21-12.47 28.94-10.6 5.52-22.36 3.06-29.39-6.15l1-.95c2-.66 3 .88 4.28 1.88 7 5.62 14.39 6.26 22.31 2.33S139 173.56 139.6 165c.11-1.8-.6-3.65.4-5.36Z" transform="translate(159 203)" style="fill:#15478c"/><path d="m64.05 110 .86-.83c10.43 7.39 20.24 15.6 30.09 23.73 0 1.28 2.57 2.51.08 3.86-.15.05-.3.11-.46.15-1.91.49-4.59.13-4.24 3.34.3 2.73 2.58 2.37 4.44 2.48 1.78-2.57.21-5.94 2.07-8.46 1.92 3.16.64 6.61.83 9.92.09 1.51-1.27 1.66-2.46 1.65l-8.26-.11a6 6 0 0 0 .94-4.27c-.68-4.1.4-6.94 5-7.48-10-6-18.53-14-27.78-21.07-.91-.66-1.85-1.59-1.11-2.91Z" transform="translate(159 203)" style="fill:#264788"/><path d="M-115.6 106.87c3.48.51 5.66 2.32 5.67 6.14a5.71 5.71 0 0 1-6.42 5.91c-3.75-.32-5.68-2.55-5.53-6.27s2.51-5.51 6.28-5.78Z" transform="translate(159 203)" style="fill:#d9e2e6"/><path d="M137.06-144.79c-3.36.09-7.08-3.14-7-6.07.05-2 5.78-8.76 6.78-7.93 2.84 2.38 5.07 5.5 7.43 8.43.33.36-6.27 5.55-7.21 5.57Z" transform="translate(159 203)" style="fill:#f5b63b"/><path class="cls-19" d="M149-124.94c3.89.07 5.15 2.32 5 5.88-.18 3.74-2 6-5.78 6s-5.49-2.84-6.07-6c-.53-2.53 3.75-5.94 6.85-5.88Z" transform="translate(159 203)"/><path d="M-123.63-7.63c-2.58-5.41 3.3-4.76 4.86-7.17 2.16 1.69 6.15 1.11 6.64 4.76.42 3.18-4 8.27-6.65 7.87-1.55-.24-2.61-1.71-4.32-2.1-1.9-.45-1.79-2.07-.53-3.36Z" transform="translate(159 203)" style="fill:#09c5f9"/><path d="M-41.29 116.34c-3.66-.23-5.34-2.43-5.42-5.5-.09-3.3 2.15-5.25 5.29-5.36s5.41 1.68 5.4 5.1-2.07 5.42-5.27 5.76Z" transform="translate(159 203)" style="fill:#06c5f9"/><path d="M45.49-58.56a56.17 56.17 0 0 0-4.07-5.1 33.36 33.36 0 0 0-4.25-3c4-.82 6.07-3.62 8.08-7.31 1.64 4.21 4.24 6.51 8.68 7.44-3.81 1.84-7.12 3.53-8.44 7.97Z" transform="translate(159 203)" style="fill:#f4b436"/><path d="M-11.82 182.09c-1.53-3.93 1.28-8.22-1-12.08V117c2.51.67 1.26 2.72 1.3 4.09.28 9.58-.29 19.16.34 28.74-.11 10.73.97 21.52-.64 32.26Z" transform="translate(159 203)" style="fill:#3d6ea6"/><path d="M-95.87-14.9c1.51.21 4.61.36 4.75 3.81s-2.82 4.84-5.68 4.93c-2.62.08-5.75-1.09-5.63-4.22.11-2.62 2.13-4.82 6.56-4.52Z" transform="translate(159 203)" style="fill:#d5e6eb"/><path d="M1.22 63.07C9 63 16.83 63 24.64 63c1.36 0 3.53-.56 3.51 1.56 0 1.62-2 1.37-3.29 1.34C17 65.7 9 66.78 1.27 64a1.55 1.55 0 0 1-.05-.93Z" transform="translate(159 203)" style="fill:#1173bb"/><path class="cls-19" d="M103 114.68c.13 2.54-.65 4.42-3.55 4.22-2.54-.17-5.34-.7-5.3-4a4.76 4.76 0 0 1 4.76-4.82c2.78-.08 3.95 1.92 4.09 4.6Z" transform="translate(159 203)"/><path d="M56.07 100.84c11.36-4.08 14.41-13.73 7.65-23.78-.14-.22.24-.79.37-1.2A15.29 15.29 0 0 1 67.93 93a12.14 12.14 0 0 1-11.86 7.84Z" transform="translate(159 203)" style="fill:#49d3f9"/><path d="M-11.22 149.79c-1.62-8-.35-16.11-.8-24.15-.16-2.9 1-6-.84-8.68.86-2.3-2.5-5.71 1.86-7.08q-.1 19.95-.22 39.91Z" transform="translate(159 203)" style="fill:#175295"/><path d="M-85.15 123h-1.92v-21.92l1.85-.1Z" transform="translate(159 203)" style="fill:#152e71"/><path class="cls-39" d="M122.05-124.64v-33.42a177.68 177.68 0 0 1 0 33.42Z" transform="translate(159 203)"/><path d="M158.91-25.13c2 .22 3.19 1.22 3.29 3.12.11 2.05-1.22 3-3 3A2.85 2.85 0 0 1 156-22a3 3 0 0 1 2.91-3.13Z" transform="translate(159 203)" style="fill:#0cc6f9"/><path d="M62.1-87.68a2.36 2.36 0 0 1-2.36 2.07 3 3 0 0 1-3.35-3 2.88 2.88 0 0 1 3-3.23c1.7.04 2.55 1.29 2.71 4.16Z" transform="translate(159 203)" style="fill:#89def7"/><path d="M-107.62-141a3 3 0 0 1-3.06-2.85c-.17-1.94 1.08-3.1 3-3.19a2.47 2.47 0 0 1 2.85 2.67 3.21 3.21 0 0 1-2.79 3.37Z" transform="translate(159 203)" style="fill:#13c8f9"/><path d="M44 79a1.24 1.24 0 0 1 .64 1.64C42.35 87.06 45.1 92.53 48 98c-5.69-4-7.09-10.74-4-19Z" transform="translate(159 203)" style="fill:#4bd3f9"/><path class="cls-44" d="M63.87-169.56c-.19 1.89-1.32 2.6-3 2.58-1.52 0-2.68-.78-2.69-2.3 0-1.81 1.1-3.31 3-3.25 1.47.05 2.4 1.43 2.69 2.97Z" transform="translate(159 203)"/><path d="M155.9 170c-.05 1.57-.74 2.84-2.6 2.78-1.56-.06-2.3-1.18-2.3-2.7 0-1.7.68-3 2.56-2.93 1.56.03 2.24 1.18 2.34 2.85Z" transform="translate(159 203)" style="fill:#c8f0f7"/><path class="cls-44" d="M-60.07 111.25c-.09 1.65-1 2.58-2.49 2.54s-2.3-1.14-2.35-2.64.36-2.88 2-2.79 2.5 1.39 2.84 2.89Z" transform="translate(159 203)"/><path class="cls-39" d="M90-119.23c8-1.62 16.13-.43 24.2-.6-8 1.38-16.1.24-24.2.6Z" transform="translate(159 203)"/><path d="M-33-166.14c-.57 1.74-1.64 2.43-3.12 2a2.15 2.15 0 0 1-1.59-2.71 2.19 2.19 0 0 1 2.53-1.85 2.36 2.36 0 0 1 2.18 2.56Z" transform="translate(159 203)" style="fill:#c9f0f8"/><path d="M-120.24-115.61a2 2 0 0 1 2.15 1.81 2 2 0 0 1-1.7 2.5c-1.14.15-1.77-.72-2-1.75a2.24 2.24 0 0 1 1.55-2.56Z" transform="translate(159 203)" style="fill:#ccf1f8"/><path class="cls-4" d="M95.9 136c.25-1.19-2.35-1.6-.86-3.13l1.89 1.37c-.07 3.2-.13 6.4-.22 9.6 0 .08-.23.21-.35.2a1.26 1.26 0 0 1-.44-.17 6.27 6.27 0 0 1-.02-7.87Z" transform="translate(159 203)"/><path d="M56.12 71.83c-2.62-4-.57-8.51-1.4-12.71L56 59Z" transform="translate(159 203)" style="fill:#3c649e"/><path class="cls-49" d="M48.92 34.9c-1.87 1.35-3.56 3.15-5.64 4C36.32 41.66 32 45.77 33.79 54c.43 2-.88 2.88-3 2.86q-14.16-.1-28.32 0c-2.42 0-3-1.19-3.21-3.36-.69-8.12-2.13-9.63-10.33-11.43h.05c-2.81-4.74-7.84-7.29-11.1-11.76-14.83-20.31-14.45-45.85 1.31-65.5 2.37-3 4.07-3.14 6.64-.25 2.07 2.34 4.72 4.17 7.17 6.19.74.62 1.57 1.61 2.59 1a3.14 3.14 0 0 0 1.16-3.11c-.23-3.31-.36-6.64-.75-9.93-.39-3.09 1.17-4.51 3.76-5.55 22.57-9 50.38 2.7 60.19 25.12 8.09 18.51 5.69 35.57-6 51.64a7.49 7.49 0 0 1-5.03 4.98Z" transform="translate(159 203)"/><path class="cls-1" d="M-55-122.95c1.22-1.56 3-3 3.57-4.72 2.19-7.11 7.39-7.79 13.59-7.14 3.12.32 7.12-1 9.23.5 2.28 1.63.35 5.82.67 8.86 2.17 20.78 17.32 39.18 38.81 40.65 2.95.2 4.33 1 4.21 4.47-.3 8.14-.2 16.3 0 24.45 0 2.74-.27 4.15-3.59 4.28a30.34 30.34 0 0 0-11.1 2.66 7.9 7.9 0 0 1-1.9.59c-4.42.75-4.44.74-4.47 6v11.4l-11-9.31c-1.58-1.34-2.63-2-3.09 1-.42 2.76-3.28 4-4.79 6.21a56.11 56.11 0 0 0-10 28.72C-35-1.1-36-.56-38.87-.59c-14.62-.13-29.24-.09-43.86-.07-1.8 0-2.9-.47-2.73-2.49v-1c.39-4.9-2.17-11.39 1.09-14.28s9.44-1.91 14.35-2.65c.49-.13 1.12-.21 1.38.19 5.81 8.66 14.54 5.29 22.27 5.09 3.47-.09 5.78-3.19 5.86-7 .09-4-2.52-5.81-6.14-6.59-2.21-.47-4.74.29-6.55-1.69 6.59-7.67 11.49-16.16 12.73-26.43 3.14-25.94-15.23-50-39-52.61-6.11-.68-6.11-.69-5.1-11.18 9.78 6 19.29 5.08 28.53-.91 3.52 3 6.15 6.91 9.08 9.29 1.09 1.09 1.25.11.88.67 0 .06-.19 0-.4-.26-2.9-3.41-7.11-5.78-8.52-10.44Z" transform="translate(159 203)"/><path class="cls-49" d="M57-128c-.33 22.55-16.36 41.2-40.66 41.68-23.65.47-42.19-18.64-42.17-42.39a43.06 43.06 0 0 1 43.32-42.88C39-171.61 57-151.72 57-128ZM108.34 19.41c1.39-.38 1.66-1.29 1.53-2.05-1.05-6 2.28-6.65 7.13-6.42 16.8.81 29.82 8.3 37.7 23 8.79 16.38 7.2 32.75-3.56 48-9.77 13.79-28.77 20.36-45.15 16S77 78.09 74.77 61.44C72.07 41 82.44 23.55 97.32 15.85c.74-.38 1.47-.78 2.23-1.11 7.58-3.35 7.58-3.35 8.79 4.67Z" transform="translate(159 203)"/><path class="cls-50" d="M-70 13.27c25.26 8.35 34.34 39.59 24 61.85-1.41 3-3 5.61-7 4.91-1.56-1.82-1.28-4-1.28-6.16q-.06-12.41 0-24.82a17.46 17.46 0 0 0-2.06-8.58c-.57-1-1.32-1.51-2.09-.09a16 16 0 0 1-1.37 3.52c-1.48 3.74-.77 7.46.08 11.18.35 5 .15 9.93.16 14.89 0 3.72-1.81 5.44-5.5 5.39s-7.61.2-11.4-.22a88.52 88.52 0 0 0-24.47-.14c-3 0-6.39 1.66-8.48-2.06.15-13.48 0-26.95.08-40.43 0-7.2.75-7.87 8.1-7.95 6.32-.07 12.64.13 19-.12a4.5 4.5 0 0 0 2-1C-76.94 20-73.79 16.29-70 13.27Z" transform="translate(159 203)"/><path class="cls-11" d="M87.14-33.55C63.6-55.93 73.68-99.43 108-107.4c21.94-5.09 44.45 6.31 51.19 32-1.93 1.75-3.37 0-4.83-.79-2.76-1.52-5.15-3.66-7.94-5.13-3.16.07-2 2.54-2 4-.13 10.25.07 20.5-.18 30.74 0 1.93 1.34 5.24-2.73 5.43-1.44-2.08-1.14-4.47-1.14-6.77v-29.93c0-2.47.23-5-1.66-7.07-4.8-3-9.82-2.19-14.86-.82-1.53.9-3 1.83-4.94 1.7A33.94 33.94 0 0 0 99.28-87a.31.31 0 0 0-.23.18 2.18 2.18 0 0 0 .08.49c-1.29 2-3.55 1.67-5.37 2.37-3 2.29-3.31 5.55-3.31 8.94v33.3a20.7 20.7 0 0 1-.51 6.42 2.36 2.36 0 0 1-2.8 1.75Z" transform="translate(159 203)"/><path class="cls-1" d="M-11.06 42.08c1.17 2.63 3.85 3.41 6.06 4.59a4.22 4.22 0 0 1 2.58 4.25c.16 6.22.25 6.24-6.1 6.22-9 0-18-.25-27-.09-3.32.06-4.49-.62-4.6-4.3-.62-20-12.46-36.07-30.38-41.74a36 36 0 0 0-11.7-1.93c-3.28.09-3.44-1.76-3.41-4.07s.1-4 3.42-3.93c14.47.2 29 .14 43.44 0 2.63 0 3.72.65 4.12 3.47 1.57 11.1 5.45 21.27 13.28 29.45 3 3.15 5.77 6.85 10.34 8.1ZM54.79 30.94c7.26-7.28 10.1-16.56 11.47-26.34.41-3 1.12-3.88 4.13-3.83C81.53 1 92.67.81 103.8.88c1.57 0 4.26-1 3.9 2.13-.31 2.66 2 6.18-2.82 7.62A44.16 44.16 0 0 0 78 32a46.85 46.85 0 0 0-5.92 21.79c-.08 2.74-1 3.24-3.46 3.21q-14.7-.18-29.42 0c-2.51 0-3.3-.57-3.47-3.25-.37-5.71.05-10.27 6.79-12.24 2.79-.81 5-3.64 7.48-5.55a9.85 9.85 0 0 1 4.79-5.02Z" transform="translate(159 203)"/><path class="cls-11" d="M-89.88-21.84c-29.13-2.42-46.07-33.08-34.8-59.81C-116.15-101.89-95.9-112-75-107.17c11.86 2.73 20.21 10.29 26.33 20.54.79 2.48.59 4.41-2.59 4.69a5.6 5.6 0 0 1-1.53-.14C-62-85-71.21-87.63-80.21-91a16.15 16.15 0 0 0-10.72-.09c-8.23 2.53-16.21 5.77-24.4 8.43-2 .65-1.64 1.13.06 1.64 3.33 1.37 7.31 1.17 9.92 4.2.93 2.35 1.17 4.65-.5 6.8-6.23-1.68-10 .57-10.76 6.53V-50.84c0 7.21 2.11 9.87 9.12 12.07 3.76 1.19 7.82 1.24 11.42 3 3.15 4.21 5.89 8.53 6.19 13.93Z" transform="translate(159 203)"/><path class="cls-1" d="M140 159.64a22.37 22.37 0 0 1-9.49 24.6c-8.7 5.49-18.72 5-26.28-1.3-1.14-.95-2.22-2-3.33-3-5.3-9.16-6.47-18.43.34-27.27 8.45-11 22.85-11.6 34-1.75-4.27 5.55-9.76 9.93-14.47 15.06-1.71 1.87-2.86.82-4-.52-1.52-1.74-2.69-3.78-4.72-5.08-2.38-1.52-4.45-1-6.16 1-1.55 1.77-2 3.61-.18 5.71A131.13 131.13 0 0 0 117 178.34c2.49 2.23 3.88.3 5.39-1.19 5.91-5.81 11.77-11.67 17.61-17.51Z" transform="translate(159 203)"/><path class="cls-11" d="M-70 13.27C-71.64 18-76.49 20-79 24c-1.35.78-2.69 1.22-4-.12-6.77-1.39-13.63-1.51-20.51-1.42-.66 0 0 .87-.18.22a53.62 53.62 0 0 1 11.81.18 1.26 1.26 0 0 1-.22 1.5c-3.83 1.28-7.76.35-11.63.61-1.78.12-3.6-.19-5.29.58-.45.18-.94.34-1.38.49-.36 12.21 0 24.4-.13 36.59a38 38 0 0 1-.24 5.94c-.81 2.65-2.7 4.57-4.49 6.56a6.37 6.37 0 0 1-2 1c-1.55.46-3.08 1.08-4.76.81-9.15-15.4-7.66-34.37 3.87-49.19a43.2 43.2 0 0 1 45.7-15c.82.25 1.64.34 2.45.52Z" transform="translate(159 203)"/><path class="cls-49" d="m-89.88-21.84-5.81-13A2.85 2.85 0 0 1-93.12-36a7.18 7.18 0 0 1 1.47.12c2.35.61 4.6 1.41 6.14 3.45 1.09 1.42 2 1.2 2.89-.26.62-1.07.93-2.38 2.19-3 5.36-.94 10.84-1 16.11-2.57 8-2.41 10.54-5.76 9.83-14.1-.21-2.47.07-4.95-.41-7.39a19.86 19.86 0 0 1-.35-3C-55.11-66.63-57-69-60.67-70c-1.41-.41-2.9-.8-3.86-2.12-1.08-5.53-.39-6.82 4.53-8.7a33 33 0 0 1 8.13-1.95c2.81.18 3-1.79 3.15-3.81C-40.08-71.95-39-56.82-47.64-42s-22 21.31-39 21c-1.09-.08-2.36.14-3.24-.84Z" transform="translate(159 203)"/><path d="M-117.76 81.9c13.63.11 27.27.25 40.91.33h24.88c.11.49.34.91.21 1.08-14.6 20.41-51.27 20.21-66.19-.33-.47-.44-.41-.81.19-1.08Z" transform="translate(159 203)" style="fill:#82dbf6"/><path class="cls-49" d="M87.14-33.55 89.07-35c1.74-.59 3.27.65 5 .55 14.69.06 29.37 0 44.05 0a21.33 21.33 0 0 1 5.41.34 3.52 3.52 0 0 1 1.53 1.11c-13.39 13.58-40.35 17.92-57.92-.55ZM148.06-81.87c3.76 2.08 6.65 5.66 11.17 6.42 2.86 14.86-.56 28.06-10.4 39.57-2.68-.72-2.2-3-2.26-4.86-.36-11.72-.32-23.44-.22-35.16.01-2.1-.15-4.35 1.71-5.97Z" transform="translate(159 203)"/><path d="M-53.2-31.06a53.48 53.48 0 0 1 7.4.38c5 .92 7.29 4.22 6.82 9.2-.34 3.69-4.45 7.36-8.47 7.48-2.64.07-5.31-.21-7.93.07-6.44.68-11.78-.62-14.65-7.15 6.08-2.53 11.49-6.2 16.83-9.98Z" transform="translate(159 203)" style="fill:#c4eff7"/><path d="M-75-163.14c16.36-.64 24.92 6.95 26.22 23.23-1.18 9.56-6 16.61-15.19 19.69-8.73 2.91-16.67.88-23.17-5.87-10.37-10.77-6.37-29.61 7.49-35.3 1.56-.61 3.13-1.17 4.65-1.75Z" transform="translate(159 203)" style="fill:#fbfafb"/><path d="M148.06-81.87q-.06 21.66-.13 43.31c0 1-.09 2 .9 2.68-.69 1.7-2.37 2.12-3.78 2.9l-1.24-.15c-7.24-.83-14.51-.1-21.76-.39-1.38-.06-3.77.85-3-2.24 3.28-4.05 7.83-4.71 12.49-4.09a17.91 17.91 0 0 0 10.54-1.33c1.58-3.67.67-7.49.69-11.25.06-9 .11-17.92.28-26.88 0-1.58-1.08-3.83.36-4.62 1.7-.93 3.29.86 4.65 2.06Z" transform="translate(159 203)" style="fill:#356eaa"/><path d="M-53.8 80c-10.36.44-20.72.76-31.07-.28a2.9 2.9 0 0 1-.1-4.14 5.06 5.06 0 0 1 2.56-.92c5.81.21 11.62.18 17.42.39 3.83.14 5.41-.84 5.11-5-.41-5.62.15-11.29-.26-16.94-.13-1.7-.11-3.32 1.23-4.63 4.88-.91 5.46-.59 5.4 3.85-.11 9.26.45 18.48-.29 27.67Z" transform="translate(159 203)" style="fill:#f4b22f"/><path d="m-85 76.31.12 3.42c-10.92 1-21.87 0-32.79.49-1.93-1.68-1.42-3.42-.13-5.18l1.84-.23a8.18 8.18 0 0 1 3.94-1 6.81 6.81 0 0 1 1.68.24 13.43 13.43 0 0 1 1.6.71c6 .79 11.91-.59 17.86-.14 2.08.13 4.42-.54 5.88 1.69Z" transform="translate(159 203)" style="fill:#f6d046"/><path d="M-53.8 80c-.07-8.92-.29-17.84-.13-26.75.06-3.64-1.06-4.87-4.53-3.73-2.74.45-.49 3.91-2.79 4.62-.47-3.92-2.34-8 1-11.54a4.74 4.74 0 0 1 .59 1.9c.08 1.16.42 2.47 1.74 2.22.92-.17-.67-1-.27-1.65 2-2.51.75-3.86-1.71-4.78 0-1.7.2-3.74 2.14-3.93 1.67-.16 1.94 2 2.58 3.26a20.16 20.16 0 0 1 2.27 9.55C-53 59.47-53 69.75-53 80h-.39Z" transform="translate(159 203)" style="fill:#1e4a84"/><path d="M3.66 59.36h24.26c-2.12 1.9-17.33 2.51-24.26 0Z" transform="translate(159 203)" style="fill:#1072ba"/><path d="M8.69 67.44H23c-4.82 2.73-9.63 3.53-14.47 1.3Z" transform="translate(159 203)" style="fill:#05509a"/><path d="M-55-122.95c3.08 4.76 8.45 7.61 10.69 13.11-4.51-3.56-9-7.11-11.75-12.35Z" transform="translate(159 203)" style="fill:#d8d2d1"/><path d="M-117.79 75c0 1.73.08 3.46.13 5.18 0 .56-.07 1.12-.11 1.68l-.18 1.09a11.25 11.25 0 0 1-4-6c1.04-1.33 2.8-1.17 4.16-1.95Z" transform="translate(159 203)" style="fill:#bcdeea"/><path d="M54.79 30.94A14.34 14.34 0 0 1 50 36l-1.08-1.1 5-5Z" transform="translate(159 203)" style="fill:#185799"/><path class="cls-63" d="m27 202.86-3 .27a249.58 249.58 0 0 1-25.95 0l-4.85-.32a5.71 5.71 0 0 1-4-4.12v-1.73c2.75 0 5.11-1.41 7.64-2.2 1.45 2.15 1.83-.59 2.82-.61 2.75-.9 5.6-.48 8.4-.57 9.24-.3 14.34-4.16 17-13a18.84 18.84 0 0 0-.2-10.42c-.22-4.85-1.33-9.75.89-14.44 2.67-1.69 5.49-1.33 8.34-.63 2.11 1.09 2.34 3.13 2.36 5.12.14 10.61.38 21.23-.09 31.83-.31 6.59-3.27 9.63-9.36 10.82Z" transform="translate(159 203)"/><path class="cls-50" d="M27 202.86c5.82-2.5 8.26-6.89 8.1-13.23-.24-9.58 0-19.16-.09-28.74 0-1.74.63-3.7-1.12-5.08a1.07 1.07 0 0 1 1.1-1.25c-.61-.24-1.13.26-1.69.22-2.49-.15-5.22 1.19-7.36-1.16.39-2.59.77-5.18 1.16-7.78 4.81 0 9.61.16 14.42.07 2.52 0 3.49.78 3.48 3.43-.08 16.75-.09 33.49.07 50.24 0 3.23-1.71 3.45-4.05 3.44a38.27 38.27 0 0 1-12 0Z" transform="translate(159 203)"/><path d="m25.9 153.62 12.06.56-4.11 1.63-7.91.15c-2.61 2.12-5.72 1.38-8.65 1.43-3.82.06-7.65 0-11.47-.07-4.22 0-5.49 1.83-5.39 5.77.09 3.26.75 6.68-1.09 9.77a1.73 1.73 0 0 1-2.41 0v-42h.06c2.64.24 1.87 2.29 1.89 3.77.07 5.14.14 10.28 0 15.41-.08 2.77.89 3.89 3.72 3.83 7.73-.21 15.52-.2 23.3-.25Z" transform="translate(159 203)" style="fill:#063d87"/><path d="M35.35 108.42c3.72-.6 7.65-1 9.1 3.46 1.33 4.09 1.65 8.37-2.83 11.26-1.93 1.24-3.71 2.69-5.56 4-.64-6.14.61-12.51-.71-18.72Z" transform="translate(159 203)" style="fill:#00c2f8"/><path d="M-3.07 172.85h1.92c4.21 4 3.85 6.41-1.19 8.11l-.77-.1c-4.57-2.96-4.56-5.14.04-8.01Z" transform="translate(159 203)" style="fill:#f8fbfd"/><path d="M13.42 119.4c-2-.36-3.9-1.24-3.95-3.54a3.52 3.52 0 0 1 3.17-3.8c2-.18 3.76.89 3.88 2.93s-.43 4.01-3.1 4.41Z" transform="translate(159 203)" style="fill:#f7fcfd"/><path class="cls-68" d="M-3.11 130.84c-3.48-3.14-3.82-5.85-.81-6.78 1.93-.6 3.74-.25 4.47 1.93 1.07 3.22-1.83 3.64-3.6 4.81Z" transform="translate(159 203)"/><path d="M-.87 194.8c-.47.78-.11 2.32-1.32 2.28s-.52-1.59-1-2.32l.12-13.92h.06c3 0 3.28 2.32 3.29 4.42-.02 3.18.05 6.45-1.15 9.54Z" transform="translate(159 203)" style="fill:#013782"/><path class="cls-8" d="M64.05 110c8.48 8 18.07 14.53 27.05 21.87.76.62 1.79.94 1.8 2.16H31.7c1.13-2.77 3.9-3.39 5.28-5.35q11.15-8.34 22.29-16.71c1.44-1.13 2.64-2.68 4.78-1.97Z" transform="translate(159 203)"/><path class="cls-70" d="M65.24 193.75c-4.64 0-9.29-.08-13.93 0-3 .06-4.73-1.09-4.85-4.23 0-1.16-.28-2.31-.29-3.46-.08-8.31-.07-8.31 8.08-8.31s16.6.13 24.9-.06c4.34-.09 6.61 1.37 6.26 6-.13 1.65 0 3.32 0 5-.06 3.39-1.62 5.22-5.19 5.17-5-.07-10 0-14.94 0ZM77 145.8c7 .35 8.31 1.85 8 8.52-.19 4-2.25 5.61-6 5.61-9.3 0-18.6-.06-27.9 0-3.09 0-4.73-1-4.52-4.31a33.3 33.3 0 0 0 0-5.47c-.35-3.39 1.42-4.46 4.41-4.38 2.74-2.54 6.14-.84 9-.9 5.63-.09 11.46-1.36 17.01.93ZM65.69 161.53c4.82 0 9.64.14 14.44 0 3.35-.13 5.15 1.12 5 4.53-.18 3.71 1.59 9.21-4 9.6-10.42.73-20.92.26-31.39.25-2 0-3-1.13-3.09-3.12v-1c.17-10.62-1.18-10.49 9.16-10 3.32.16 6.65 0 10 0ZM64.58 203.06c-4.5 0-9-.05-13.48 0-2.42 0-4.59-.6-4.77-3.21s1.62-4.17 4.43-4.19c9.63-.1 19.25-.25 28.88-.29 2.64 0 3.15 2.27 3.28 4.16s-1 3.41-3.36 3.39h-15Z" transform="translate(159 203)"/><path d="M77 145.8H50.93l-1.78-2a6.47 6.47 0 0 1 7.74.08c2.88-2-.55-5.73 2.07-7.83 1.2 1.08 1.2 2.61 1.46 4a2.45 2.45 0 0 0 2.58 2.34c1.61 0 2.27-1 2.53-2.46s.21-3 1.54-4c2.1 2.41.24 5.42 1.2 8 0 .09.28.16.41.14a1.45 1.45 0 0 0 .42-.26 6.25 6.25 0 0 1 7.7 0c.08.7.14 1.34.2 1.99Z" transform="translate(159 203)" style="fill:#4a5c7f"/><path d="m56.89 143.84-7.74-.08c0-1.15 0-2.3-.08-3.44-.32-3 .14-4.74 4-4.77s4.13 2 3.89 4.86c-.06 1.14-.04 2.29-.07 3.43Z" transform="translate(159 203)" style="fill:#eb8787"/><path d="M67.1 136c.06 1 .1 2 .18 3 .26 3.23.23 5.53-4.43 5.5s-3.93-2.71-3.92-5.43v-3Z" transform="translate(159 203)" style="fill:#f6f7f9"/><path class="cls-1" d="M47.14 140c1.15 4.38-1.61 4.51-5.26 4.55-4.7.05-3.17-3.16-3.33-5.45-.37-5.41 4-3 6.3-3.43 3.2-.67 2.58 1.95 2.29 4.33ZM78.59 139.86c-.86-3.64.85-4.42 4.25-4.5s4.06 1.31 4 4.34-.2 4.94-4.17 4.84c-3.56-.09-4.82-1.25-4.08-4.68Z" transform="translate(159 203)"/><path d="M76.83 143.86h-7.7l-.06-2.94c0-2.76-.64-5.35 3.92-5.35s3.93 2.64 3.9 5.37c-.01.96-.04 1.94-.06 2.92Z" transform="translate(159 203)" style="fill:#df4a53"/><path class="cls-75" d="M36.35 139.81c.39 2.71 0 4.58-4 4.64-4.22.06-3.35-2.69-3.64-4.94-.55-4.33 2.57-3.47 5.15-3.77 3.66-.44 2.46 1.98 2.49 4.07Z" transform="translate(159 203)"/><path d="M-35 202.05c-4.83-2.75-10.6-4.57-12.13-12.67l12.11 10.47c1.1.72.13 1.46.02 2.2Z" transform="translate(159 203)" style="fill:#0a3e82"/><path class="cls-12" d="M-2 203.13h26a85.52 85.52 0 0 1-26 0Z" transform="translate(159 203)"/><path d="M-59.94 203h21a49.79 49.79 0 0 1-21 0Z" transform="translate(159 203)" style="fill:#32619d"/><path class="cls-12" d="M29 203h12a17.41 17.41 0 0 1-12 0ZM-10.83 198.69l4 4.12c-3.17.42-6.01.53-4-4.12Z" transform="translate(159 203)"/><path d="M-99.7 158.71a71.6 71.6 0 0 0-.48-8.81c-.08-.49 2.12-4.34-2.09-2.74-.75.29.82-2 .44-3.19a2.43 2.43 0 0 0 2-1.77c2.61-8.63 4.36-10 12.9-10.52 4.65 1.9 6 6.19 8.45 10.06 4 6.16 1.75 12.06 2.37 18-2.5-.06-4.11-1.83-6-3.11a3.64 3.64 0 0 1-.88-1.34 30.29 30.29 0 0 1-.21-8.66c1.42-6.91.76-8.34-4.82-10.38-7.31.84-9 4.38-5.18 11.11a22.55 22.55 0 0 1-.64 8.88c-1.96.76-3.59 2.37-5.86 2.47Z" transform="translate(159 203)" style="fill:#113a7a"/><path d="M-82.25 155.78a4 4 0 0 1 .22.89c-3.36.39-3.74 4.57-6.79 5.34-1.36-2-3.77-3.34-4.41-5.93 1-1.46 2.68-1.52 4.24-1.78 2.3.22 4.72-.08 6.74 1.48Z" transform="translate(159 203)" style="fill:#7d43a0"/><path d="M-86.92 185c-4 .24-7.83 0-11.65-2.65 3.81-1 6.54 2.19 9.82 1.44l5.37-.68c-.93 1.42-2.36 1.38-3.54 1.89Z" transform="translate(159 203)" style="fill:#c7edf8"/><path d="M-88.75 173.12a31.8 31.8 0 0 1-10.46-3.66c4.28-.68 7 2.19 10.28 1.47-.07.74 3.51 1.18.18 2.19Z" transform="translate(159 203)" style="fill:#cbeffa"/><path d="M-88.75 179.15a19 19 0 0 1-8.73-3.39 24.52 24.52 0 0 1 10.39 3Z" transform="translate(159 203)" style="fill:#d6f3fb"/><path d="M-88.7 155.08c-1.28 1.4-3 .64-4.53 1a1.59 1.59 0 0 0-.54.2c-2.07-3-.28-6.21-.52-9.32 2.35-1.05 4.08.61 6 1.35a2.13 2.13 0 0 1 .76 1.2c-.04 1.92.14 3.91-1.17 5.57Z" transform="translate(159 203)" style="fill:#e58684"/><path d="M-26.91 82.5a10.89 10.89 0 0 1 2.25 1.66c1.5 1.81 2.79 2 4.31 0 1.15-1.47 2.6-2.09 4.17-.5 2.06 2.06-.59 2.67-1.27 3.87a2.9 2.9 0 0 1-1 1.1c-1.71 1-2.2 4.36-4.77 3.26-2.9-1.23-4.94-3.94-6.44-6.62-.79-1.42.93-2.49 2.75-2.77Z" transform="translate(159 203)" style="fill:#fcf6f7"/><path d="M55.79 77.31c1.69 4.39 3.36 8.19 4.57 12.13a4.11 4.11 0 0 1-2.08 5.07c-2.32 1-4.84 1.1-6.88-.93-1.68-1.65-1.47-3.4-.48-5.41 1.65-3.35 3.08-6.81 4.87-10.86Z" transform="translate(159 203)" style="fill:#1294c9"/><path d="M-31 161.78c1.08.4 3-.67 3.14 1.32s-2 1.87-3.06 2.77c-5.17-.11-5.33-.18-7.82-3.72Z" transform="translate(159 203)" style="fill:#1d3e79"/><path d="M145.63 118c1.14-1.17 2.31-2.31 3.4-3.52s1.79-1.74 3.18-.39 1.38 2.21 0 3.62c-2.56 2.7-5.83 4.8-7.41 8.37-3.65.55-4.81-2.57-6.73-4.56-.89-.93-.44-1.7.33-2.46s1.55-1.33 2.47-.37c1.97 2.03 3.42 1.19 4.76-.69Z" transform="translate(159 203)" style="fill:#f2f4f8"/><path d="m86.53-118.93-4.73 5.46c-2-2.33 1.46-8.21-4.74-7.59a7.39 7.39 0 0 1-2.1-5.38c.09-9.16-.08-18.32 0-27.47.06-6.23 1.9-8 8.09-8 9.32-.06 18.65-.08 28-.12l.89.22c1 1.42 3.76 2.39 1.17 4.7-7.74 1.49-15.56.34-23.33.69-2 .09-4 0-6 .08-2.87.07-4.2 1.51-4.22 4.35-.06 6.81-.08 13.62 0 20.43 0 3.54 1.9 5 5.32 5.09 4.12.16 8.31-.64 12.35.75.29 2.54.31 2.65-2.61 3.2s-6.17.65-8.09 3.59Z" transform="translate(159 203)" style="fill:#e3c7ac"/><path d="M113.62-158.36a3.09 3.09 0 0 1-1.72-3.44c6.93-.17 8.55.87 8.83 7.58.37 8.81.12 17.64 0 26.45 0 4.8-2.93 6.68-7.39 6.7-6.32 0-12.64.15-19 0a12.36 12.36 0 0 0-7.89 2.17c1.08-2.9 3.27-4.06 6.24-4.63 1.65-.31 3.69.36 5-1.33 2.86-2.45 6.33-1.37 9.56-1.55 6-.34 7.12-1.15 7-7.06.02-8.31.9-16.64-.63-24.89Z" transform="translate(159 203)" style="fill:#f2ae30"/><path d="M95.9 136v7.87c-3.27 0-7.58 2.16-7.22-4.43.37-6.16 4.6-2.77 7.22-3.44Z" transform="translate(159 203)" style="fill:#e44b52"/><path d="M136.63-153c1.3.06 2.2.62 2.22 2a2.13 2.13 0 0 1-2.45 2.34 2 2 0 0 1-2-2.34 1.89 1.89 0 0 1 2.23-2Z" transform="translate(159 203)" style="fill:#fcf8ee"/><path d="M-116.24-8.29c-.32 1.44-1.1 2.32-2.37 2.19a2.23 2.23 0 0 1-2-2.39 2.11 2.11 0 0 1 2.06-2.3c1.73-.09 1.87 1.45 2.31 2.5Z" transform="translate(159 203)" style="fill:#c3f0fc"/><path class="cls-1" d="m28.07-22.77 3-2c2.51.08 2.23 2.16 2.24 3.59 0 4.58 1.51 8.7 3.4 12.77a14 14 0 0 1 1.42 8.6c-.48 2.52-1.24 5-4.71 4.33-2.57-2.66.19-6-1.18-8.84-1.17-4.6-3-8.72-7.79-10.68a35.32 35.32 0 0 1-7.29-3.71c1.41 3.83 1.64 7.07-2.93 8.5A9.42 9.42 0 0 0 7.45-1.3c-.31 4.78 3.34 6.85 7 8.71 5.27 1.77 3.68 6.27 4 10a32.09 32.09 0 0 1 .09 4.49c-.14 6.52-.73 7.08-7.2 7-2.08-.42-1.86-2.08-1.78-3.54.14-2.57-1.35-3.87-3.35-5-2.29-1.36-3.44.26-4.61 1.57a3.6 3.6 0 0 1-4.84 1c-1.53-1.5-3.08-3-4.57-4.5s-1.88-3.38.14-4.53c3.35-1.9 2.48-4.32 1.55-7.11-1.06-3.2-3.56-2.23-5.73-2.39-.66-.05-1.32-.06-2-.08-1.4-3.17-.35-6.49-.6-9.74-.14-1.84 1.2-2 2.64-2.08 1.6-.1 3.31.55 4.8-.57 2.66-3.48 3.3-6.63-1.44-8.93-2.22-1.54-.27-2.55.56-3.52a10.89 10.89 0 0 1 4.19-3.4l1.77-1.7c1.2-1.79 2.07-.37 3.06.29 1.35.89 1.94 3.13 4.21 2.4l4.38-2.15c1.55-.88.52-2.09.21-3-1-2.9.38-3.59 2.91-3.36 4.09-.6 6.11.58 6.86 5.25.67 4.19 4.91 3.79 8.37 3.42Z" transform="translate(159 203)"/><path d="M33.1 3.92c2.43.44 3.36-1.15 3.72-3a8.36 8.36 0 0 0 0-4.44c-2.75-6.87-5.05-13.83-5.77-21.23a2.84 2.84 0 0 1 0-.77 1 1 0 0 1 .85-.95c3.05 1.15 4.71 3.94 7 6L40.44-19c1.66.84 1 2.17.12 2.72C37-14.17 37.37-11.5 39-8.48c.34.52.58 1.23 1.06 1.51 1.63 1 4.65-.82 5.18 1.63a25.49 25.49 0 0 1 .2 9.73C45 7.32 41.8 5.18 40 6.08c-3 3-2.26 5.64.92 8 .44.24 1.05.57 1 1 0 1.51-7.71 9.83-9.08 10s-1.4-1.18-2.13-1.72c-1.58-1.17-2.31-3.82-5.25-2.63-2.67 1.08-3.21 3-3.08 5.54 0 1.17.66 2.8-1.32 3.25-3.59-.06-7.18.13-10.77-.11a.81.81 0 0 1-.23-1.41c7.79-.08 6.87.74 6.94-7.11 0-1.3 0-2.59.06-3.89 1.27-1.27 2.4-2.87 4.19-3.33 4.4-1.11 7-4 8.62-8 .55-1.37 1.24-2.89 3.23-1.75Z" transform="translate(159 203)" style="fill:#cdd6db"/><path d="M28.07-22.77c-2.51 3.74-5.11 0-7.67 0-1.73 0-2.65-1.31-2.35-3.06.72-4.22-1.35-5.58-5.17-5.28-.23-.42-.13-.7.36-.79a43.34 43.34 0 0 0 5.47-.07c2.54-.34 3.34 1.06 2.85 3-1 4.17 1.32 5.19 4.61 5.67a15.62 15.62 0 0 1 1.9.53Z" transform="translate(159 203)" style="fill:#cbd2d6"/><path d="M22 29c0-2 .05-4 .08-6 0-2.47 2.3-2.47 3.76-3.35 2.13-1.27 3.25.59 4 1.78 2.17 3.43 4.14 3.06 6.08 0 1.63-2.52 5.87-3.29 5-7.46 2.75.27 2.6 1.67 1.11 3.25-2.5 2.66-5.14 5.19-7.73 7.77-1.36 1.37-2.35 1.1-3.69-.3s-1.61-4.25-4.79-3.16-2.69 3.74-2.82 6.16c0 .49-.18 1-.27 1.47-.34.25-.58.2-.73-.16Z" transform="translate(159 203)" style="fill:#376ea2"/><path d="M10.06 28a1.44 1.44 0 0 0 .08.89.68.68 0 0 1-1.16 0c0-1.3-.05-2.6-.09-3.9C8.84 23 7.42 21.93 5.81 21c-2.13-1.22-2.94.63-3.92 1.74-1.73 2-3.32 3.48-5.13.15 1.25-.52 2.73.94 4-.74s2.36-3.82 5.54-2.34 3.7 3.78 3.49 6.76a6.36 6.36 0 0 0 .27 1.43Z" transform="translate(159 203)" style="fill:#3a84b8"/><path d="M5.34-22.93C3.69-21 2.87-22.74 2-23.75.91-24.93.11-26.54-1.93-25.62-.47-30 2-29.39 4.91-27.14c-1.28 2.45-2.49-.72-3.7.31a8 8 0 0 0 4.13 3.9Z" transform="translate(159 203)" style="fill:#196da9"/><path d="M-7-8.07c-1.64 2.69-5.85-.64-6.61 2.22-.84 3.19-.21 6.76-.23 10.17C-16.22 1.41-15-2-14.77-5.09c.48-5.6 5.22-1.78 7.77-2.98Z" transform="translate(159 203)" style="fill:#075e9f"/><path d="M41 14.05c-5.08-2.57-5.32-4.61-.92-8-1.84 2.95.03 5.4.92 8Z" transform="translate(159 203)" style="fill:#3f77a8"/><path d="M39-8.48c-2.57-2.82-3.43-5.52.44-8a1.94 1.94 0 0 0 1-2.51c2.82.6 1.24 2.88.6 3.24-3.25 1.85-2.13 4.64-2.04 7.27Z" transform="translate(159 203)" style="fill:#113d7e"/><path d="M9 28.94h1.16L22 29a2.41 2.41 0 0 0 .7.18C18.1 30.25 13.52 31 9 28.94Z" transform="translate(159 203)" style="fill:#014e91"/><path d="m38.93-20.55-7-5.49c-.45-.68-.56-1.32.19-1.88 2.49 2.24 5.48 4.03 6.81 7.37Z" transform="translate(159 203)" style="fill:#3188b9"/><path d="M13.24-31.88a3.76 3.76 0 0 0-.36.79c-1.35.15-3.2-.43-2.32 2.28.37 1.14 1.6 3-.84 3.74-1.8-6.11-1.45-6.79 3.52-6.81Z" transform="translate(159 203)" style="fill:#1e5a96"/><path d="M-10.17-15.76c-.13 2.47 3 3.8.72 6.47-1.05-1.97-3.71-3.29-.72-6.47Z" transform="translate(159 203)" style="fill:#084487"/><path d="M-3.7-23.92c-1 2.7-5.1 3.31-4.75 7-1.76-.1-2-1.32-1.16-2.33 1.61-1.98 2.81-4.6 5.91-4.67Z" transform="translate(159 203)" style="fill:#065798"/><path d="M32.1-27.92c-.06.63-.12 1.25-.19 1.88-.28.16-.56.32-.85.47-.41-2.92-2.44-2.34-4.94-1.07 2.16-4.72 4.08-2.82 5.98-1.28Z" transform="translate(159 203)" style="fill:#084f91"/><path d="M-11.6 8.6c2.14 1.59 2.3 3.24 0 5.16Z" transform="translate(159 203)" style="fill:#0666a5"/><path d="M-17.92-49.7c-3.72-5.63-8.24-10.74-10.34-17.38-1.7-5.36-1.52-10.37 2.89-14.12 3.72-3.17 8.44-4.22 13-1.84 5 2.64 8.09 6.79 7.28 12.92-1 7-4.82 12.75-8.8 18.36-.94 1.31-2.01 2.76-4.03 2.06Z" transform="translate(159 203)" style="fill:#e74d58"/><path d="M-17.92-49.7c5.67-4.14 7.92-10.59 11-16.45.68-1.28 1.2-2.64 1.79-4 .81 8.38-3.92 14.4-8.67 20.42-1.34 1.78-2.74 1.45-4.12.03Z" transform="translate(159 203)" style="fill:#dcdee2"/><path d="M-34.79-105.88c2.34.21 3.92 1.11 4.09 3.58.18 2.72-1.43 4.1-3.8 4.22s-3.63-1.47-3.76-3.79 1.52-3.44 3.47-4.01Z" transform="translate(159 203)" style="fill:#0dc6f9"/><path d="M8.27-108.89c0-6.36-3-11.36-7.09-15.93a21.5 21.5 0 0 1 .38-28.93c7-7.29 18.56-8.31 26.26-2.32 9.76 7.59 12.14 19.38 5.28 29-4 5.66-8.25 11.07-10.14 17.88-4.85 2.61-9.75 2.27-14.69.3Z" transform="translate(159 203)" style="fill:#f7ce44"/><path d="M23.65-100.83c-1.19 2.18-3.79 3-5 5.3a2.75 2.75 0 0 1-4.91.18c-1.47-2.31-4-3.29-5.43-5.49a17.33 17.33 0 0 1 15.34.01Z" transform="translate(159 203)" style="fill:#00458a"/><path d="M8.25-103.89v-2.14c5.15-2.16 10.29-1.87 15.44 0 0 .69.09 1.39.13 2.08a19.59 19.59 0 0 1-15.57.06Z" transform="translate(159 203)" style="fill:#f9fcfd"/><path class="cls-114" d="M23.65-100.83H8.33l-.15-2.23a58.24 58.24 0 0 1 15.66.14c-.07.69-.13 1.39-.19 2.09Z" transform="translate(159 203)"/><path class="cls-68" d="m8.27-108.89 14.73-.28c1.2.33 1 .86.2 1.47-4.35 1.6-8.89.27-13.3.85a3.45 3.45 0 0 1-1.66 0c-.02-.64.01-1.34.03-2.04Z" transform="translate(159 203)"/><path d="M8.2-106.8a1.65 1.65 0 0 0 .8-.2 46.43 46.43 0 0 1 14.41.11l.36.89H8.28a1.35 1.35 0 0 1-.08-.8Z" transform="translate(159 203)" style="fill:#445a8f"/><path d="m23.84-102.93-15.66-.14a3.73 3.73 0 0 1 .07-.82l15.6-.06c-.01.34-.01.68-.01 1.02Z" transform="translate(159 203)" style="fill:#0b397c"/><path d="M23.36-106.92 9-107c4.66-1.9 9.47-.65 14.21-.67a3.44 3.44 0 0 0 .15.75Z" transform="translate(159 203)" style="fill:#9abcd6"/><path class="cls-118" d="M89.42 75c-1.12-8.38-.25-16.78-.22-25.17A5 5 0 0 1 92.75 45c8.26-1 16.56-.16 24.83-.46 2.21-.08 2.91.95 2.86 3-.06 2.49 0 5 0 7.46-.48 3.85-5.06 5.81-4.68 10.07-.75 2-1.28 4.08-2.21 6-1.06 1.7-1.47 3.92-3.71 4.71-6.84.89-13.71 1.88-20.42-.78Z" transform="translate(159 203)"/><path class="cls-119" d="M114.92 64.92c.52-3.27.06-7.1 4.65-8a2 2 0 0 1 1.56-.43c2.21-.12 4.47.37 6.63-.49a8.74 8.74 0 0 1 5 .06l1.47.86 8.17.15c3.32 1 6.74 0 10.09.48a8.25 8.25 0 0 1-3.25 7.93c-9.57 1-19.17 1.57-28.78 1.9-1.94.06-4.85.95-5.54-2.46Z" transform="translate(159 203)"/><path d="M89.42 75c7.29-.57 14.72 1.31 21.91-1.15 1.13 2 .23 3.73-.62 5.49-1.57 3.23-4.89 1.52-7.24 2.57-5.59-.49-11.56-.17-14.05-6.91Z" transform="translate(159 203)" style="fill:#d78525"/><path d="M103.47 81.89c2.68-1 6-1 6.92-4.56a8.43 8.43 0 0 0 6.38 2.2c5.8-.07 11.61 0 17.42 0 8.32 0 8.32 0 11.48-7.84 1.14-2.38 1.42-5.28 4.09-6.72q1.52-3.39 3-6.76c-.3-1-1.53-.49-2-1.23 1.11-1.05 2.5-1.31 3.53-.26.75.77-.27 1.82-.62 2.69-2.59 6.43-5.24 12.83-7.79 19.27-.78 2-1.54 3.44-4.13 3.41-12.75-.18-25.51-.16-38.28-.2Z" transform="translate(159 203)" style="fill:#305b92"/><path d="M124.92 34.58c-2.12-3.95.73-6.5 3.26-8 3-1.74 6.4-1 8.5 2.41 1.8 3.84.84 6.83-2.79 9h.11l-1.24 1c-2.79 3.63-.65 7.85-1.44 11.71-.39 1.94.89 4.8-2.59 5.25-1.72-5.5-.23-11.19-.92-16.74-.5-1.8-2.31-2.84-2.89-4.63Z" transform="translate(159 203)" style="fill:#f1f8fa"/><path d="M93.6 27.26c5.27 3 5 5.86.51 8.62-1.33-1.27-2.84-2.71-4.46-4.24 1.48-1.41 3.49-2.27 3.95-4.38Z" transform="translate(159 203)" style="fill:#e8f8fd"/><path d="M120.83 57h-1.26c1.17-12 1.17-12-10.55-12H92.75c8.77-2.06 17.67-.51 26.5-.88 2-.09 1.67 1.64 1.69 2.89.06 3 .06 5.95.08 8.92.51.41.44.78-.19 1.07Z" transform="translate(159 203)" style="fill:#293961"/><path d="M120.83 57c.07-.36.13-.72.19-1.09 4.94 1.28 6.32-.9 6-5.59-.39-5.29.66-10.73-2.07-15.71l3.24 3.49c.59 5.68.11 11.38.26 17.07a2.38 2.38 0 0 1-.5 1.68Z" transform="translate(159 203)" style="fill:#0877b5"/><path d="M132.94 38.21 134 38l.27 18.93-1.46.07a26.91 26.91 0 0 1 .13-18.79Z" transform="translate(159 203)" style="fill:#06347c"/><path d="M133.89 38c2.69-2.45 3.91-5.36 2.79-9 2.47 4.57 1.77 6.82-2.79 9Z" transform="translate(159 203)" style="fill:#356aa0"/><path d="M150.79 57c.84.13 1.8.07 2 1.23-3.39-.84-7.05.78-10.34-1.11Z" transform="translate(159 203)" style="fill:#768cb1"/><path d="m-83.42 38 9.4-5.67c1.93-1.11 4.13-1.82 5.91-.28s-.2 3.37-.33 5.1a5.26 5.26 0 0 1-.56 2.4l-.93 3c-2.61 11-2.67 11-11.45 4.08C-86 42.9-86.3 41.66-83.42 38Z" transform="translate(159 203)" style="fill:#f4cc44"/><path d="M-61.25 54.15c.79-1.62-1.28-5 2.78-4.62-.16 7.78-.38 15.57-.44 23.36 0 2.31-.14 3.43-3.17 3.21C-69 75.58-76 75.69-83 75.55c-9.09-.5-18.2.56-27.28-.56a1.81 1.81 0 0 1-.79-.2 2.15 2.15 0 0 1-.38-2c.56-1.08 1-2.27 2.65-1.89a3.89 3.89 0 0 1 .27 2.1c2.31 1.84 4.95.63 7.44.79a227.53 227.53 0 0 1 24.22 0c4.13 0 8.26 0 12.39.17 2.56.11 3.56-.8 3.46-3.42-.17-5.48-.16-10.94-.23-16.39Z" transform="translate(159 203)" style="fill:#fdfbf9"/><path d="M-76 54.29c-4.2 3.24-8.35 6.51-12.56 9.71-3.44 2.63-5.54 1.88-7.44-2.57 1.44-1 3.18-1.42 4.54-2.54 3.2-2 4.86-5.43 7.4-8 1.13-1.17 1.74-2.92 3.63-3.23 2.43 1.52 5.97 2.4 4.43 6.63Z" transform="translate(159 203)" style="fill:#90224b"/><path d="M-91.47 60c-1.24 1.34-2.46 2.72-4.54 1.47-1.85-3.74 2.2-5.25 3-8 1.16-2.37 2.56-4.59 3.9-6.84 3.29-5.49 3.55-5.49 7.69.09-2.32 5.19-5.97 9.38-10.05 13.28Z" transform="translate(159 203)" style="fill:#d44d68"/><path d="m-108.49 73-.59-1.91c-1.14-1.19-1.22-2.7-1.23-4.2q-.09-19 0-37.93a5.83 5.83 0 0 1 1-3.77c4.19-1.35 8.49-.36 12.74-.62 2.13-.13 4.31.2 6.34-.75a19.39 19.39 0 0 1 10.36 1.38c-7.2 1.75-14.53.75-21.77.65-4.89-.07-6.63 1-6.43 6.27.44 11.8.16 23.63.12 35.45-.05 1.8.4 3.67-.54 5.43Z" transform="translate(159 203)" style="fill:#055b96"/><path d="M-81.79 47a21.61 21.61 0 0 1-2-2.21c-1.65-2.4-2.85-2.24-4 .43A34.16 34.16 0 0 1-93 53.45C-90.7 47.73-88.5 42-83.42 38c-1.69 2-1.68 3.66.53 5.33 1.7 1.29 3.21 2.84 4.78 4.3 5 4.6 4.93 4.61 7-1.92.34-1.09.8-2.14 1.2-3.21-.56 4.69-.75 9.58-6.09 11.82.13-3.49-2.82-4.61-4.93-6.38a1.2 1.2 0 0 1-.86-.94Z" transform="translate(159 203)" style="fill:#23366d"/><path d="M-69 39.51a8.56 8.56 0 0 1 0-2c1.4-6.27 1.41-6.27-5-5.26 3-2.14 6.52-3.81 7.84-7.72.36-1.07 1.09-1.67 2.26-.86s2.13 2.23.87 3.25c-4.07 3.33-3.2 8.8-5.97 12.59Z" transform="translate(159 203)" style="fill:#094b87"/><path d="M-59.9 40.3c1.93-2.55 2.73-.74 3.66.9 1.16 2.06 1.47 3.69-1.66 3.9a2.08 2.08 0 0 1-3-.18l.63-2.31q.2-1.15.37-2.31Z" transform="translate(159 203)" style="fill:#f5f6f8"/><path d="M-76.83 73.75H-101a76.86 76.86 0 0 1 24.17 0Z" transform="translate(159 203)" style="fill:#043c7f"/><path d="M-79.87 25.2-90 24.82c-.57-.52-1.55-.09-2-.88l.15-.77a13 13 0 0 1 8.84 0c1.15 1.15 2.65.58 4 .84.1.68-.34.99-.86 1.19Z" transform="translate(159 203)" style="fill:#cde7f1"/><path class="cls-114" d="m94.13-85 4.72-1.8c7-1.53 13.84-2 19.77 3.22 1.1 2.36.71 4.89.71 7.35q.06 16.14 0 32.29c0 2.65.09 5.37-2.32 7.26-1.77 1-3.6.55-5.43.23-3.93-.41-7.82-1-11.81-.26a5.86 5.86 0 0 1-5.58-1.41c-1.56-1.93-1.77-4.25-1.79-6.58-.1-11.41-.06-22.83 0-34.24-.02-2.21.22-4.34 1.73-6.06Z" transform="translate(159 203)"/><path class="cls-1" d="M142.09-41.18c-2 5-6.12 3.31-9.57 2.83-4.59-.63-8.77-.13-12.63 2.5a1.23 1.23 0 0 1-1.53-.77c.2-15.58 0-31.15.11-46.73a1.43 1.43 0 0 1 .83-1.55 5.38 5.38 0 0 0 3.7-1.86c5.35-.95 10.69-1.48 16 .33 3.09.39 3.16 2.51 3.14 5-.14 13.43-.06 26.83-.05 40.25Z" transform="translate(159 203)"/><path d="M94.13-85c0 13.73.05 27.46 0 41.19a16.53 16.53 0 0 0 .86 5.3 1.29 1.29 0 0 0 1.41 1c5.17-.26 10.35.08 15.52-.35 1.54-.63 2.64.68 4 .91a3.72 3.72 0 0 1 1.08 1.4c.37 3.05-2 1.94-3.3 2-7.17.28-14.37-.33-21.54.34L89.07-35c0-14.53 0-29.06-.2-43.59-.04-3.76 2.29-5.27 5.26-6.41Z" transform="translate(159 203)" style="fill:#245ea0"/><path d="m119.3-84.9-.32 1a.73.73 0 0 1-1.15.14c-5.86-3.94-12.46-3.26-19-3.06 3.92-2.27 10.84-2.33 15.93-.11 1.53.65 3.03 1.35 4.54 2.03Z" transform="translate(159 203)" style="fill:#4e77a7"/><path d="M139-86.43c-5.31-1.13-10.65-.36-16-.33a19 19 0 0 1 16 .33Z" transform="translate(159 203)" style="fill:#5c7fab"/><path d="m-115.91-80.08-6-1.54c8.37-3 15.46-5.79 22.71-8.09 5.72-1.81 11.32-5.1 17.69-3 9.55 3.15 19.05 6.44 28.57 9.67-10.06 4.17-20.41 7.56-30.81 10.79-1.84.57-3.61 0-5.33-.65-9.02-2.1-17.52-6.17-26.83-7.18Z" transform="translate(159 203)" style="fill:#137ac2"/><path class="cls-118" d="M-63.82-72c8.26 1.8 9.84 3.19 9.94 8.75-2.12 4.54-6.29 6.25-10.73 7.3-6.65 1.52-13.35 2.81-20.24 2.38-8.51.26-16.91-.2-24.94-3.46-3.47-1.41-6.59-3.17-8.06-6.89.56-4.46 5.72-9.12 9.92-9 1.43.05 1.16 1.31 1.55 2.11.93 5.52 4.81 7.5 9.79 8.16 3.44.45 6.82 1.35 10.32 1.26h1.54c5.41.08 10.49-1.51 15.6-3a4.73 4.73 0 0 0 3.78-4.11c.19-1.26.27-2.65 1.53-3.5Z" transform="translate(159 203)"/><path class="cls-70" d="m-92.87-35.12-2.82.32c-4.81-1.22-9.72-2.15-14.4-3.75-6.22-2.12-8-4.93-8-11.45 0-2.31.12-4.63.19-7 2.57-.71 3.7 1.76 5.59 2.58a54.38 54.38 0 0 0 15.72 4c6.28.7 6.83 1.36 6 7.83-.28 2.68-.5 5.32-2.28 7.47Z" transform="translate(159 203)"/><path d="M-63.82-72c.62 6.58-3 9.11-9 10-4 .63-7.94 1.93-12.08 1.87-2.22-2.58-1.26-5.62-1.13-8.5 0-1.19.5-2.31-1.28-2.47-1.43-.41-2.93-.68-3.87-2 .24-1.53 1.07-1.62 2.23-.91a9.69 9.69 0 0 0 7.18-.12c9.45-3.48 19.08-6.4 28.83-9l1 .22c-1.84 1.85-4.32 2.44-6.67 2.89-4.6 1.02-6.28 3.49-5.21 8.02Z" transform="translate(159 203)" style="fill:#0a387b"/><path d="m-90.82-73.11 4 1.28c2.55 3.75 1.19 7.79.82 11.75a62.74 62.74 0 0 1-14.18-1.87c-4.71-1-7.35-3.6-6.24-8.8.09-2 .19-3.91.28-5.86 5.7-1.32 10.43 1.42 15.32 3.5Z" transform="translate(159 203)" style="fill:#147bc1"/><path d="M-117.85-63.92c9.39 8.88 21.18 9 33 9a3.63 3.63 0 0 1 .48 3.94 3.92 3.92 0 0 1-1.81 1.7c-11.29-.73-23 0-31.58-9.7Z" transform="translate(159 203)" style="fill:#f4b330"/><path d="M-117.77-58.94c9.26 7.69 20.37 8.85 31.76 9a1.85 1.85 0 0 1 .15 1.4c-2.1 3-4 6.12-4 10 0 1.31-.31 2.7-2 3.11l-1.08.31c.36-2.93.27-6 1.19-8.78 1.56-4.64-.83-4.81-4.36-5.15-7.9-.78-15.75-2-21.84-7.9.1-.66.14-1.33.18-1.99Z" transform="translate(159 203)" style="fill:#ef8e1b"/><path d="M-90.82-73.11c-5.15-.92-10-3.23-15.28-3.5l-9.81-3.47c1-1.32 2.42-1.06 3.6-.73 7.82 2.21 15.6 4.54 23.39 6.84Z" transform="translate(159 203)" style="fill:#094992"/><path d="M-108.85 25.07q-.12 23-.23 46l-1.8 1.94c-1.26-3.57-.25-7.23-.45-10.84.77-11.24.44-22.48.18-33.73-.24-1.17-.64-2.36.35-3.41h.89a.6.6 0 0 1 1.06.04Z" transform="translate(159 203)" style="fill:#bfdeeb"/><path d="M-110.78 61.88c0 3.7-.07 7.41-.1 11.11l-.15 1.8h-.37l-.36-.05c-1.73-1.51-1-3.18-.3-4.85q.06-22 .14-43.94a1.34 1.34 0 0 1 .29-.89c.15-.14.54 0 .83 0v3.08q.86 16.86.02 33.74Z" transform="translate(159 203)" style="fill:#2993c2"/><path d="M-83 23.17h-22.93v-.94h25c-.41 1.19-1.44.64-2.07.94Z" transform="translate(159 203)" style="fill:#4bacd5"/><path class="cls-1" d="m-108.85 25.07-1.06-.09c5.86-2.24 12-.29 17.9-1l2 .88Z" transform="translate(159 203)"/><path d="m-112.06 69.89.3 4.85-4.19.07c1.01-1.87 1.95-3.81 3.89-4.92Z" transform="translate(159 203)" style="fill:#d7e1e5"/><path d="M-86-49a7.69 7.69 0 0 0 0-1l1.08-.93c3.22-.81 6.56-.66 9.82-1a41.93 41.93 0 0 0 21.3-8.21c.11 4.39.48 8.8.26 13.17-.27 5.23-3.57 8.35-10 10A63.41 63.41 0 0 1-80.68-35a2 2 0 0 1-1-1c-.7-4.33-.68-8.91-4.15-12.31Z" transform="translate(159 203)" style="fill:#ed5f3e"/><path d="M-53.8-60.14a15.33 15.33 0 0 1-10.32 7.25c-6.85 1.33-13.58 4.4-20.81 2l.06-4c11-.49 22-.59 31-8.35.02 1.03.04 2.07.07 3.1Z" transform="translate(159 203)" style="fill:#ee8919"/><path d="M-91.79-35.43c1.53-2.16.45-4.75 1.14-7.08.82-2.74 2-5.07 4.63-6.49l.13.1c2.5 5.09 1.5 10.38.94 15.65a3.06 3.06 0 0 1-1.17 1.46c-1.19-2.3-3.88-2.21-5.67-3.64Z" transform="translate(159 203)" style="fill:#ecce4d"/><path d="m-86.12-31.79.25-1.08c1.37-1.48 1.68-4.58 4.92-3.2l.27 1a6.38 6.38 0 0 1-2.11 4.84c-2.21 1.86-3.13.89-3.33-1.56Z" transform="translate(159 203)" style="fill:#044088"/><path d="M92.13-33.2c6.94-1.71 14-.28 21-.82 1.29-.1 3.81 1.05 2.87-2.16a2.64 2.64 0 0 1 3 .07l.89.26c-1.06 3 1.37 1.91 2.45 1.93 5.58.1 11.17 0 16.75.07 1.59 0 3.31-.54 4.72.73Z" transform="translate(159 203)" style="fill:#073c86"/><path class="cls-75" d="M-64-123.94c-7.07 4.32-13.57 2-19.2-2.54-6.27-5-8-12-5.85-19.8 2.23-8.08 11.09-14.72 19.34-14.63 7.57.08 16 7.39 17.61 15.25 1.81 8.83-2.28 17.61-10 21.35a7.35 7.35 0 0 1-1.91.37 3.51 3.51 0 0 1 1.1-4.07c6.83-4.25 5.35-11.72 7.18-17.88a3.81 3.81 0 0 0-1-3.74c-3.7-3.28-7.2-7-12.65-7.16a3 3 0 0 0-1 .85c-.06 5.73-1.39 11.46.19 17.15a9.85 9.85 0 0 1 .5 4.32c-.6 4.93 1.17 8.47 5.69 10.53Z" transform="translate(159 203)"/><path d="M146.65-45.69V-36h-.47v-9.76Z" transform="translate(159 203)" style="fill:#5a88b9"/><path d="M-110.24 75c9.09.33 18.21-.73 27.28.56l-2 .76c-6.71-.11-13.42-.19-20.12-.36-1.77-.05-3.68.54-5.16-.96Z" transform="translate(159 203)" style="fill:#c1dee7"/><path d="m-60.89 44.92 3 .18c.69 1.24 2.66.55 3.15 2.09-5.11 1.42-5.18 1.39-6.15-2.27Z" transform="translate(159 203)" style="fill:#544687"/><path class="cls-3" d="M-.87 194.8c-1.35-3.16.05-6.41-.28-9.6-.18-1.66.63-3.74-1.9-4.39 5.14-1.59 3.52-4.79 1.9-8 0-4.66.12-9.32 0-14 0-2.33.7-3.19 3.16-3.13 8 .21 15.94.18 23.91.24q.07 7.51.16 15a26.58 26.58 0 0 1 0 9.9c-1.74 8.64-7.54 13.61-16.55 14-3.45.18-6.93.02-10.4-.02Z" transform="translate(159 203)"/><path class="cls-63" d="M26.1 180.88V171a11.88 11.88 0 0 1 0 9.88Z" transform="translate(159 203)"/><path class="cls-160" d="M78.49 188.92c-2.54.12-4.42-.38-4.51-3.32-.08-2.79 1.4-3.72 4-3.69s4.77.88 4.77 3.71c-.03 2.53-1.85 3.67-4.26 3.3ZM78.09 155.94c-2.57.16-4.12-.76-4.16-3.63 0-2.19.54-3.56 3.06-3.37s4.83.32 4.93 3.59c.08 2.6-1.44 3.47-3.83 3.41Z" transform="translate(159 203)"/><path d="M82 168.28c0 2.5-1.14 4.3-3.6 4.51-2.77.25-4.22-1.49-4.35-4.23-.13-2.48 1.1-3.6 3.57-3.64s4.29.37 4.38 3.36Z" transform="translate(159 203)" style="fill:#ee8a18"/><path d="M-88.13 148.76c-2.41.63-4.09-1.24-6.15-1.8a4.58 4.58 0 0 1-2.44-6.21c1.54-3.66 4.19-6.38 8.76-5.87 2.23 4.65 2.66 9.29-.17 13.88Z" transform="translate(159 203)" style="fill:#f4ce46"/><path d="M-88.13 148.76q.07-6.94.17-13.88c6.58 1.18 8.57 5.05 5.75 11.26-1.21 2.33-2.44 4.63-5.71 2.9Z" transform="translate(159 203)" style="fill:#eb8919"/><path d="M-87.92 149c2.56.33 3.88-1.8 5.72-2.9v9.64c-2.18 0-4.43.69-6.46-.7-.28-2.04-.46-4.11.74-6.04Z" transform="translate(159 203)" style="fill:#d94c52"/><path d="M113.62-158.36c2.11.32 2.43 1.72 2.42 3.58-.06 8.3-.13 16.6 0 24.89.06 3.57-1.74 4.65-4.87 4.7-4.47.06-9 .2-13.42.3-4.82-.07-9.65-.26-14.46-.18-3.69.07-5.51-1.15-5.4-5.19.21-7.82.19-15.65 0-23.47-.08-3.28 1.13-4.4 4.32-4.4 10.48.02 20.95-.14 31.41-.23Z" transform="translate(159 203)" style="fill:#01c1f6"/><path d="M33.1 3.92A2.29 2.29 0 0 0 31 5.61c-1.57 4.64-3.92 8.4-9.51 9-1.56.16-2.16 3-4.42 2.41-.39-3.38 1.58-7.82-4-8.84 1-1.47 2.63-1.35 4.13-1.5 4.38-.91 7-3.59 7.17-7.86a7.42 7.42 0 0 0-5.78-8c-1.5-.7-3.49-.29-4.52-2 1.41-.92 3-1.32 3.08-3.77.11-2.84-2.11-2.68-4-3.82 5.32-3.06 8 1.87 11.73 2.75 4 2.8 7.21 6.09 7.55 11.31a2.53 2.53 0 0 0 .48-.08 2.64 2.64 0 0 0 .37-.21c1.83 3 .36 5.94-.18 8.92Z" transform="translate(159 203)" style="fill:#d9e1e5"/><path d="M14.05-11.21c1.68.47 3.67-.49 5.13 1.07-1.56 5.92 0 12.06-1.21 18l-4.92.32C8.68 6.12 5.59 3 6.18-2.14c.53-4.58 3.11-7.86 7.87-9.07Z" transform="translate(159 203)" style="fill:#f4b12f"/><path d="m33.28-5-.42 2.28c-.57-5.83-4.58-9.39-8-13.28 5.41 1.59 7.08 6.14 8.42 11Z" transform="translate(159 203)" style="fill:#5d7fad"/><path d="M-12.84-73.33c.07 3.82-1.66 5.59-4.78 5.65s-5.49-1.57-5.59-4.95c-.08-2.93 1.39-5.39 4.57-5.43s5.82 1.41 5.8 4.73Z" transform="translate(159 203)" style="fill:#f5f1f2"/><path d="M12-154.91c.23.1 1 .18 1.36.62a1.42 1.42 0 0 1-.6 2.1c-5.26 2.94-8.43 7.19-9.05 13.34a1.88 1.88 0 0 1-1.36 1.17c-1.19 0-1.62-1-1.88-2-1.41-5.14 5.7-14.83 11.53-15.23Z" transform="translate(159 203)" style="fill:#fdfbf4"/><path d="M147.2 71.09c-.84 2.48-1.65 5-2.52 7.45-.61 1.74-1.78 2.43-3.74 2.41-9.26-.1-18.52-.14-27.77 0-3 .06-3.3-1.28-2.79-3.61.32-1.19.63-2.36 1-3.53 0-1.27-.67-2.94 1.64-2.93 9.9-.42 19.76-1.81 29.7-1.41 1.6.08 3.28.16 4.48 1.62Z" transform="translate(159 203)" style="fill:#bedee9"/><path d="M147.2 71.09c-9.75-.92-19.42 1.06-29.14.86-1.73 0-3.69.7-5.09-1a10.74 10.74 0 0 1 2-6c4.57 2.09 9.27.9 14 .6 7-.45 13.9-1.42 20.89-.58Z" transform="translate(159 203)" style="fill:#d3ecf2"/><path d="M132.94 38.21 132.82 57l-4.9-.17a3.2 3.2 0 0 1 .13-1c.32-.37.62-.33.88.08 2.48-4.51.57-9.36 1.06-14 .21-2.06-.07-4.08 2.95-3.7Z" transform="translate(159 203)" style="fill:#257fc2"/><path d="M127.11 61.3c2.18-1.2 3.93-2 5.66-.33a1.87 1.87 0 0 1-.29 1.67c-1.89.72-3.79.96-5.37-1.34Z" transform="translate(159 203)" style="fill:#2770b1"/><path d="M131 36.8c-2.62-.45-4.25-1.74-4.21-4.59s1.61-4.25 4.25-4.53c3-.33 4.32 1.77 4.5 4.16.24 2.89-1.77 4.41-4.54 4.96Z" transform="translate(159 203)" style="fill:#05c4f9"/><path class="cls-119" d="M128.93 55.93h-.45l-.43-.13q0-8.9.11-17.78c1.84 5.98.35 11.98.77 17.91Z" transform="translate(159 203)"/><path d="m-81.79 47 .84.94c-2.9 4.55-5.52 9.34-10.52 12.06Z" transform="translate(159 203)" style="fill:#4a2660"/><path d="m119-36.11-3-.06a1.8 1.8 0 0 0-.11-.76c1.64-1.42 2-3.28 2-5.36q-.08-20.74-.09-41.48l1.15-.14Q119-60 119-36.11Z" transform="translate(159 203)" style="fill:#b4c3d8"/><path d="M112.87-68.4H99v-1.42c4.65-.18 9.3-.53 13.87 1.42Z" transform="translate(159 203)" style="fill:#84e1fb"/><path d="M98.28-62.29c5.48-1.78 9.62-1.92 13.84 0Z" transform="translate(159 203)" style="fill:#34abd1"/><path d="M111.91-37.84c-5.69 1-11.4 2.25-16.92-.7 5.61.85 11.34-1.06 16.92.7Z" transform="translate(159 203)" style="fill:#063c86"/><path d="M112.14-56.46c-4.32 1.1-8.72.62-13.11.19a35 35 0 0 1 13.11-.19Z" transform="translate(159 203)" style="fill:#1bcaf9"/><path d="M112.1-75.24H99v-.57h13.52Z" transform="translate(159 203)" style="fill:#0bc6f9"/><path class="cls-49" d="M112.18-49.23h-12.7v-.58h12.92Z" transform="translate(159 203)"/><path d="M125.27-59.79a7.48 7.48 0 0 0 .81.53c2.38-3 5.19-1.8 8-.86.24.08.69-.35.89-.25a12.22 12.22 0 0 1 1.54 1.08c-4 3 3.59 4.67 1 6.91-1.32 1.11-2.06 1.47-1.61 3.29s-.15 3-2.37 1.82a2.27 2.27 0 0 0-1.31-.18c-2.27 5.83-5.56-2.08-8 .61-.71-2.43-2.13-4.93-1.87-7.25.17-1.46 1.33-2.5.59-4.59-.67-1.72 1.52-1.22 2.33-1.11Z" transform="translate(159 203)" style="fill:#05c4f8"/><path d="M136.44-69a21.51 21.51 0 0 1-13 .13c4.28-1.57 8.64-.96 13-.13Z" transform="translate(159 203)" style="fill:#76c6df"/><path class="cls-49" d="M123.39-75.81h14a27.53 27.53 0 0 1-14 0Z" transform="translate(159 203)"/><path d="M-86-60.08c-.31-3.92.81-7.93-.83-11.75.81.48 3.24-1.6 2.21 1.92-.9 3-.26 6.53-.29 9.83Z" transform="translate(159 203)" style="fill:#497394"/><path class="cls-1" d="M-110.78 61.88V28.09c1.9 4.46.81 9.13.74 13.66-.11 6.71 1.19 13.49-.74 20.13Z" transform="translate(159 203)"/><path d="M-80.95-36.07c-2.78-.68-2.3 3.63-4.92 3.2v-16c5.62 2.71 4.76 7.95 4.92 12.8Z" transform="translate(159 203)" style="fill:#eb8a1c"/><path d="M-69.95-157.93c2.85-.3 6-1.37 7 2.88.25 1.08.94 1.21 1.82 1.07 4.74-.7 6.8 3.76 6.52 6.08-.53 4.44 1.27 9.75-3 13.46-.88.77-.21 1.76.18 2.7.66 1.61-.75 3.13-1.67 3-3.81-.39-3.42 3-4.86 4.77-6-.49-7-1.5-7-7.45v-7.39c.35-1.38 2-1.43 2.81-2.77-2.24-.56-4.08-1.48-3-4.24.77-4-.85-8.18 1.2-12.11Z" transform="translate(159 203)" style="fill:#cb0d20"/><path d="M-71-145.06c-.38 2.32 1.42 2.23 2.78 2.32s3-.62 3 1.27-1.94 1.16-3.07 1.53c-.92.3-1.79.77-2.68 1.16-.94-.37-2.36-1.16-2-1.83 2.6-5.5-.34-11.61 2-17.07a34.32 34.32 0 0 1-.03 12.62Z" transform="translate(159 203)" style="fill:#f9e9eb"/><path d="M-83.36-141c-.1 1.07-.59 1.88-1.75 2-1.57.11-3-.18-3.24-2.11-.12-1.26.83-1.62 1.9-1.67 1.45-.15 2.58.19 3.09 1.78Z" transform="translate(159 203)" style="fill:#fadce0"/><path class="cls-1" d="M-71-145.06q0-6.31.07-12.62l1-.25c-.39 4.28 1.09 8.72-1.07 12.87Z" transform="translate(159 203)"/><path d="M111.58-143.77c-9.6 1-19.25 1.4-28.88-.16a107.43 107.43 0 0 1 28.88.16Z" transform="translate(159 203)" style="fill:#f8fcfd"/><path d="M82.09-136.1c6.08-2.34 12.33-1.42 18.5-1.46.46 0 1 .69 1.34 1.19.11.18-.37 1.07-.62 1.08-6.42.34-12.86.85-19.22-.81Z" transform="translate(159 203)" style="fill:#c9f1fc"/><path class="cls-1" d="M112.3-150.49H93.62v-1h18.67c.02.34.01.67.01 1Z" transform="translate(159 203)"/><path d="M87.49-149.7c-2.73-.08-4.37.1-4.49-1.67-.1-1.54 1.34-1.58 2.52-1.57 1.35 0 3 .09 3.15 1.64.12 1.35-1.38 1.59-1.18 1.6Z" transform="translate(159 203)" style="fill:#eef9fd"/><path d="M18 7.86c-2-5.31-.64-10.8-.84-16.21 0-1.21 1.06-1.53 2.05-1.79 4.79 1.06 6.42 4.77 6.23 8.89-.2 4.5-2.19 8.38-7.44 9.11Z" transform="translate(159 203)" style="fill:#ee8a1a"/></svg>