<svg id="Слой_1" data-name="Слой 1" xmlns="http://www.w3.org/2000/svg" viewBox="0 0 350 437"><defs><style>.cls-2{fill:#3694e6}.cls-3{fill:#0350b1}.cls-4{fill:#fcb827}.cls-5{fill:#e74249}.cls-8{fill:#244478}.cls-12{fill:#238add}.cls-14{fill:#0450b1}.cls-21{fill:#ebb393}.cls-50{fill:#415c90}.cls-51{fill:#71e3f6}.cls-52{fill:#3895e5}.cls-54{fill:#087bd1}</style></defs><path d="M-158.9 15.5q0-107.2-.1-214.41c0-3.42.67-4.09 4.09-4.09q170.91.18 341.82 0c3.42 0 4.09.67 4.09 4.09q-.17 214.41 0 428.82c0 3.42-.67 4.09-4.09 4.09q-170.91-.18-341.82 0c-3.42 0-4.1-.67-4.09-4.09q.2-107.2.1-214.41Z" transform="translate(159 203)" style="fill:#fefefe"/><path class="cls-2" d="M-59.85 43c.05-27.15.05-54.29.19-81.44 0-3-1.08-3.64-3.79-3.58-6.49.15-13 0-19.48.06-2 0-4.21.3-4.11-2.79 1.62-2 3.92-1.54 6-1.56 8.66-.08 17.33.19 26-.12 5.58-.2 9.66 1.58 12.54 6.42.38.64.71 4.45 3.08 1.19a2.88 2.88 0 0 1 2.92-.82 3.13 3.13 0 0 1 1.82 1.51 10.42 10.42 0 0 1-2 7.24c-2.1.92-4.26-.09-6.38.2-1.07.14-2.54-.57-3 .9-.34 1 .6 1.84 1.26 2.55a107.32 107.32 0 0 1 8.3 10.58c1.09 1.53 2.82 3.06 1.26 5.29-3.32 2.36-7.48 1.22-11 2.67-3.33.83-3.36 2.73-1.65 5.15a7.71 7.71 0 0 0 6.33 3.27 61.07 61.07 0 0 0 11.38-.95c3.81-.54 7.46 3 7.36 6.82-.07 2.52-1.84 2.08-3.18 1.58a56.21 56.21 0 0 0-11.14-2.55 13.78 13.78 0 0 0-6.68.11c.65 4 4.31 5.64 6.43 8.4a3.83 3.83 0 0 1 .74 2.7c-1.81 2.15-.54 3.84.8 5.57s3.38 2.55 4.36 4.51a3.17 3.17 0 0 1 0 2c-1.78 3.94 2.93 5.59 3.14 8.83a22.74 22.74 0 0 1-.11 2.74c1.39 4.44 3.82 8.35 6.11 12.34.8 1.38 2.68 2.76.87 4.71a2.73 2.73 0 0 1-1 .25c-10.78 0-11.1.56-8.8 11 1.49 6.75 4.59 13.16 4.48 20.27-1 1-2.37 1.07-3.68 1.22-8.67 1-12.06 8.22-7.46 15.79.62 1 1.57 1.71 2.21 2.68.94 2.7-.57 4.31-2.57 5.66a22.34 22.34 0 0 0-4 2.76 17.37 17.37 0 0 0-4.4 12.11c0 2.43.19 4.9-.77 7.24-3.3 5.32-4.42 5.7-9.16 3.14-1-1.67-.87-3.52-.88-5.35-.09-18.81 0-37.62-.15-56.43a8.2 8.2 0 0 1 .68-4.37 7.85 7.85 0 0 1 3.62-2.5c5.43-2.61 5.86-3.5 4.73-9.48.83-3.71 2.53-7.15 3.48-10.82 1.1-4.23 0-5.5-4.31-5.23-1.81.11-3.57.73-5.39.7s-4.08.2-5-2.17Z" transform="translate(159 203)"/><path class="cls-3" d="M39.92 199.67c-12.76.48-25.52.79-38.28 0C-.68 193 .87 186.06.56 179.26a41.72 41.72 0 0 1 .33-8.21c.92-4.23.46-8.54.65-12.81.14-3.11-1.32-4-4.2-3.88-5.27.2-10.55.13-15.83 0-2.27 0-4.71.16-6.22-2.19-1.18-3.22-.7-6.55-.69-9.86 0-3-.22-6 2-8.53 1.49-1.17 3.22-1.18 5-1 2.67.84 5.36 1.54 8.19.72 14.63 0 29.25-.11 43.87 0 6.94.06 7.92 1 8 7.71.1 17.45.07 34.9 0 52.35-.1 2.19.05 4.44-1.74 6.11Z" transform="translate(159 203)"/><path class="cls-4" d="m-38.81-39-.28 5.12c-1.61-.1-2-1.59-2.46-2.5-3.57-7.71-9.56-9.61-17.69-8.9-9.21.8-18.53.37-27.8.47-4.15-.11-8.3-.39-12.44-.26-3 .09-4.3-1.13-4.3-4 0-13.78-.08-27.57.11-41.34.06-4.26 2.5-6.61 7-6.6 12.45 0 24.9-.08 37.34-.13a8.42 8.42 0 0 1 2.54-1.09 66.23 66.23 0 0 1 10-.15c4.64.16 8 2.06 9.06 6.93.55 16.09.13 32.18.23 48.26A6.18 6.18 0 0 1-38.81-39Z" transform="translate(159 203)"/><path class="cls-5" d="M96.12 109c-2 17.55-.8 35.19-1.55 52.78-.42 9.78-.56 19.58-.82 29.37-3.89 3.14-7.37 3.06-11.55-.25a12 12 0 0 1-1.65-6.18c-.21-17.07-1.43-34.07-3-51.05-.26-5.43.28-10.86.4-16.3-.21 5.44-.83 10.86-.56 16.32-.65 14.43-1.34 28.87-2.61 43.25-.42 4.74.84 9.7-1.5 14.24-7.55 4.29-12.61 1.9-13.57-6.64-.76-6.79-.28-13.62-.29-20.44 0-9.8-.18-19.61.08-29.41v-1.88c.24-5.51-1-11.1 1-16.5 1.7-2 4.05-1.57 6.26-1.68 1.75-.09 3.54.18 5.16-.74 2.27-1.57 1.36-3.71 1.25-5.85-.23-4.71-2.72-9.35-.57-14.16 3.08-2.76 6.27-1.59 9.47-.26.33.37.77.74.81 1.21.54 7.31 4.92 9.72 11.64 9.16 2.69.93 2.2 2.93 1.6 5.01Z" transform="translate(159 203)"/><path d="M-112.41 96.6c-6.56-4.9-12.88-10.09-16.15-17.88-5.73-13.72 1.3-30.5 15.16-36.72 1.06-.48 2.13-.92 3.19-1.39 9.11-4 9.88-3.78 15.33 4.32.7 1 1.22 2.52 2.89 1.21 1.42 6.15 4.13 11.85 6.24 17.77 1.87 5.84 1.11 11.86 1.28 17.81a66.49 66.49 0 0 0 .27 9.36c-.65 5.94.29 12.24-3.75 17.46a21.85 21.85 0 0 1-18.21-.18c-3.75-2.52-1.3-6-1.49-9.13a3.07 3.07 0 0 1 1.9-.39c1.53 0 3.51 1.45 4.37-.8.58-1.49.76-3.45-1-4.48s-3.9-2.21-6-.61c-1.48 1.05-2.19 2.97-4.03 3.65Z" transform="translate(159 203)" style="fill:#066cc6"/><path d="M141 146.15c-3.24-.94-6.51-1.44-9.84-.42-2.93 1.27-5.87.4-8.82.06a3.59 3.59 0 0 1-1.19-.93c-2.63-4.86-.79-10.06-.94-15.07-.27-9.24 0-18.5.3-27.75a11.34 11.34 0 0 1 1.49-6.18 2.62 2.62 0 0 1 2.2-1c3.26.26 4.93-1.27 5.49-4.41.19-1.09.52-2.53 2-2.44a2.28 2.28 0 0 1 1.89 2.1c.34 4.77 3.53 4.44 7.06 4.63 3.72.19 7.52-2.1 11.16.28 2.16 14.92.69 29.93.89 44.9 0 2.07 1 4.7-1.8 6.07-2.28 1.82-4.94 1.28-7.53 1.19a4.55 4.55 0 0 1-2.36-1.03Z" transform="translate(159 203)" style="fill:#254477"/><path class="cls-8" d="M60.84 134q.22 21.45.46 42.89c0 1.5-.07 3 0 4.5.54 10-.42 11.44 11.48 9.36 2.38 3 2.23 5.95.12 9a201.88 201.88 0 0 1-33 0c0-20-.08-39.93.15-59.89 0-4.15-1.43-5-5.18-4.93-15.63.14-31.27 0-46.9 0a3.23 3.23 0 0 1-2.14-4 3.36 3.36 0 0 1 1.42-.86c6.29 1.08 12.59 2 19 1.5 7-.42 14.15 1.17 21.1-.93 1.18-.8 2.38-1.58 3.92-1.23 3.61 2.59 7.78 2.18 11.87 2.18a27.19 27.19 0 0 1 5.9.43c3.79 1.54 8.23-.82 11.8 1.98Z" transform="translate(159 203)"/><path d="M151.81 95c-4.91.4-9.86.54-14.72 1.28-3.33.51-4.6-.31-4.19-3.68.17-1.32-.24-2.61-1.85-4.53.28 7.17-3 9.39-9.05 7.76-2.58-.79-3.53-2.06-2-4.81 1.63-3 2.7-6.36 4.18-9.48 3.21-6.77 2-13.38-.18-20.2-3.2 2.62-2.77 9.95-9.63 6.59-3.32-3.42-5.67-7.18-4.24-12.24 2.22.5 3 3 5.33 3.89l7.42-19.69a7.11 7.11 0 0 0 2.76-6.46 10.6 10.6 0 0 1 1-5.27c5.3.29 8.14 3.61 7.14 8.38a21.15 21.15 0 0 1-1.29 3.68c-1.77 7.25-2.94 14.54-1.41 22.17 2.67-6.91 5.26-13.8 8.83-20.26 2.32-3-.25-6.31.54-9.42 1.91-4.31 4-8.51 5.86-12.86.69-1.64 1-3.91 3.64-3.82.36 4.51 1.33 8.61 4.93 12 5.38 5 5.22 6.13.25 12-.36.44-.3 1.24-.44 1.86-2.72 3.63-4.82 7.48-5 12.18a8.26 8.26 0 0 1-1.56 4.17A39.56 39.56 0 0 0 141.2 74c-2.18 1-4.15-.46-6.24-.52-1.11 0-2.67-.45-2.91 1-.29 1.83 1.46 2 2.71 2 3.92.26 7.92-.13 11.61 1.71a1.2 1.2 0 0 1 .54 1.23c3.4 3.29 5 7.59 6.78 11.82.89 2.21.75 3.58-1.88 3.76Z" transform="translate(159 203)" style="fill:#e64148"/><path class="cls-3" d="M110.08 55.72c.41 4.43 2.74 8.19 4.24 12.24-.34 7.23-1.85 14.27-3.07 21.38-.73 4.25-2.41 5.6-6.38 4.45-2.13-.71-5.19 1.24-6.37-2.21.12-8.88 3.7-17.65.82-26.87.06 8.16.23 16.09-.48 24-1.13 2.38-.45 4.74-.1 7.17.76 5.36-.78 8-4.77 8.71-10.35.3-10.35.3-12.12-10.7-.91-2.16-2.82-3.57-4.1-5.46 4.41-4.08 2.08-9.66 3.18-14.48a69.33 69.33 0 0 0 6.75-24.34 36.88 36.88 0 0 1 2-9.24c.61-1.61 1-3.69 3.48-3.54 8.17.34 10.37 2.09 13.12 9.89 1.05 3.07 2.51 6 3.8 9ZM-90.95 124.73c-2.89 7.13-3 14.84-4.53 22.25-3 14.44-5.77 28.94-9.59 43.21-2.66 1.54-5.26 1-7.83-.25 1.9-26.71 3.65-53.44 6.83-80 5.66-.12 11.33-.29 17 .57a14.46 14.46 0 0 1-1.88 14.22Z" transform="translate(159 203)"/><path d="m-90.95 124.73 2-13.72a3.45 3.45 0 0 1 1-3.2l2.89-16.59c1.15-1.48 2.57-1.35 4.08-.67 2.15 2.35 1.21 5.26 1.42 8 .15 1.78-.18 3.6.48 5.32.22.48.43 1 .66 1.43 3.07 2.31 3.62 5.38 2.67 8.89-.3 23.75-2.42 47.4-3.31 71.12-.11 2.84-.67 5.08-4.5 5-2.69-.07-3.51-.56-3.65-3.46-1-19.88-2.15-39.75-3.29-59.63a22.87 22.87 0 0 0-.45-2.49Z" transform="translate(159 203)" style="fill:#042669"/><path class="cls-4" d="M1.72 178.81c.27 7 1 13.92-.08 20.87-12.81 1.11-25.61.51-38.41 0a3.49 3.49 0 0 1-1.41-2.68 28.77 28.77 0 0 0-.63-5.54 8.67 8.67 0 0 1 0-1.69c.62-4.73.3-9.49.41-14.24 0-2-.08-4 1.12-5.69 5.47-1.38 11-.62 16.46-.2 1.22 7.31 6 8.58 12.52 7.93 3.3-.31 6.91-1.01 10.02 1.24Z" transform="translate(159 203)"/><path d="m-79.61 105.87-.21-1.2c-1.32-4.48-.21-9.08-.69-13.6-1.54-3.19-.68-6.59-.84-9.9-.2-5.21.53-10.44-.47-15.63C-83.26 58.37-83.53 51-85 43.85c-.12-2.47-2.73-5.3 1-7.22 8.52 3.49 11.07 10.23 10.33 18.83-.18 2.14 0 4.31-.06 6.46 2.78 7 3 7.19 10.78 6.37 2-.21 3.94-.33 5.78.67 1.14.67 2.31 1.31 2.53 2.8a2.7 2.7 0 0 0-1.63 2.7c.19 21.46.26 42.93.36 64.39-.67 1.44-1.57 2.17-3.11 1.05v-63c-4.88 4.09-8.51 9-13.45 2.39v23.75c0 2.07 1.09 4.57-2.5 4.65-1.52-.69-3.86.76-4.64-1.82Z" transform="translate(159 203)" style="fill:#1581d4"/><path class="cls-12" d="M17.56-144.56c3.05 1.1 6.23.68 9.35.68 18 0 35.92-.1 53.88-.09 8.42 0 9.77 1.05 9.83 9.34.23 30.09.22 60.18.25 90.27 0 18.78-.06 37.57-.09 56.35-3.2-.16-5-1.43-4-5A190.8 190.8 0 0 0 87-22.28c-.25-3.61-2.09-5.28-5.81-5.19s-7.64.12-11.45-.1-5.1-2.37-5.11-5.93 1.29-5.72 5.1-5.91c3.66-.17 7.31 0 11-.12 5.16-.13 5.7-.59 5.74-5.79.1-15.28-.07-30.56.14-45.84-.17-7.24 1-14.67-3.1-21.35-.93-1.51-2.32-2.9-1.89-4.95 1.86-2.14 3 1.28 5 .52.25-5.55.12-11.18.07-16.81 0-3-1.34-5.09-4.49-5.7-11.29-.15-22.56-.1-33.83 0-9.21.34-18.44-.45-27.65.59a10.45 10.45 0 0 1-7.52-1.82c-1.09-4.14 1.28-4.42 4.36-3.88Z" transform="translate(159 203)"/><path class="cls-8" d="M-24.06 141.84c-.06 3.42-.12 6.85-.17 10.27-4.2 3.4-8.85 2.19-13.46 1.3.82-1.95.82-1.95 4.92-2-7.09 0-7.07 0-9.47 6.9-.75 2.18-1.23 4.45-2 6.63a49.84 49.84 0 0 0-4.68 10.17c-.91 2.58-1.78 5.31-4.63 6.58a5 5 0 0 1-2.94 0 8.22 8.22 0 0 1-3.5-2.43l-.08-1.4a17.83 17.83 0 0 1 1.55-8.61c2.4-6.17 4.67-12.38 7-18.57 1.06-2.78 2.15-5.56 1.71-8.66-.55-3.93 1.47-5.32 5.15-5.41 2.47-.07 5.37 1.37 7.24-1.57 1-.71 2.46-.55 2.68.14 1.74 5.35 6.91 4.82 10.68 6.66Z" transform="translate(159 203)"/><path d="M-57 70.08c-2.87-1.52-5.87-.36-8.8-.38-8.06 0-8.07 0-7.9-7.78 2.62-3.76 3.24-8.28 4.74-12.47 1.54-4.45 4.05-7.15 9.11-6.45 4 1.92 8.18.37 12.27.33 4.26 0 5.32 1.69 4 5.55a84.4 84.4 0 0 1-4.83 12.49c-.19.46-.51 1.06-.91 1-5.45-.32-7.02 3.25-7.68 7.71Z" transform="translate(159 203)" style="fill:#fafcf6"/><path class="cls-14" d="m72.91 199.69-.12-9 3.38-57.81a1.9 1.9 0 0 1 2.71 0c1.91 16.67 2.49 33.4 3.12 50.12.1 2.63.65 5.25 1 7.87.76 2.46 3.24 2.46 5 3.53 1.14.7 2.28 1.64 2 3.1-.25 1.3-1.65 1.43-2.75 1.66a34 34 0 0 1-10.22.57 5.35 5.35 0 0 1-4.12-.04Z" transform="translate(159 203)"/><path d="M140.91 73.91c-.6-4.67.84-8.68 3.67-12.39A20.3 20.3 0 0 0 149 49.76a8.45 8.45 0 0 1 5.68-7.84 99.15 99.15 0 0 1 10.64 21.74c2.06 6.39 1.33 8-4.95 10.8-4.37 1.93-9 3.38-13.45 5a.3.3 0 0 0 0-.5c-1.92-1.69-3.73-3.68-6.01-5.05Z" transform="translate(159 203)" style="fill:#961e27"/><path d="M-50.79-130.92c-2-10.83 6.84-17.41 17.55-12.69a5.24 5.24 0 0 1 4.1 3.12 20.26 20.26 0 0 1 1.33 7.67c-.54 9.75-12.81 13.81-20.09 7.67-1.72-1.45-3.68-2.97-2.89-5.77Z" transform="translate(159 203)" style="fill:#fbb828"/><path class="cls-14" d="M-54.27 181.08c2.91-1.53 3.35-4.56 4.46-7.22 1.29-3.09 1.71-6.66 4.67-8.88 2.37 2.71 1.87 6.22 2.57 9.39 1.23 5.61.72 11.7 4.61 16.57l.15 1.21c.93 1.5-2.19 3.41.48 4.74.18.94.37 1.89.55 2.84a124.82 124.82 0 0 1-18.14-.15c-2-2.94-.48-6.32-1.22-9.42 1.32-2.88-1.1-6.54 1.87-9.08Z" transform="translate(159 203)"/><path d="M-78.09 22.94c0 1.47.07 2.93.15 4.4.33 5.88-3.54 7.4-8.29 8-2.74-.57-4.59-2.43-6.36-4.42a13.86 13.86 0 0 1-1.55-6.14 10 10 0 0 0-3.45-7.32l-.09-.49c-1.95-10.37-1-11.52 9.68-11.1C-84 6-80 6.13-76.54 3c1.26 3.93-.15 7-1.55 10.08-2.31 2.71-5.35 2.19-8.31 1.8-1.9-.26-3.76-.46-4.64 1.73a5.38 5.38 0 0 0 .86 5.19c1.29 1.89 2.82.95 4.39.31 2.68-1.11 5.19.05 7.7.83Z" transform="translate(159 203)" style="fill:#0551b2"/><path d="M-36.89 135.24c0 2.4-.17 4.5-3.64 3.08-1.31-.53-2.95-.25-4.43-.38-3.34-.28-4.6.81-3.47 4.35s-1.13 6.73-2.25 9.94c-3 8.59-6.26 17.1-9.41 25.64-.73-12.69-2.23-25.39 1.06-38l3.11-1.05c3.84 1.14 6.15-.76 7.83-3.93a5.7 5.7 0 0 1 3.39-1.32c2.7.09 5.62-.83 7.81 1.67Z" transform="translate(159 203)" style="fill:#0651b1"/><path d="M149.93 16.06c-3.34 4.23-4.44 9.55-6.89 14.23-.55 1-.86 2.13-2 2.72a2.56 2.56 0 0 1-1-1.23c-.6-1.8-.4-3.67-.48-5.51 0-2.68.36-5.42-1.86-7.55-1.48-1.82-3.57-1.23-5.47-1.38-2.07-.17-4.3.38-6-1.3-.12-6.75 4.39-11.56 11.07-11.79 7.7-.25 11.89 3.62 12.63 11.81Z" transform="translate(159 203)" style="fill:#fcba2a"/><path d="M93.13 36.83c-3.48 3.81-3.44 8.76-4.11 13.4-1.22 8.32-2.38 16.61-7.17 23.83-2.47-.45-2-2.63-2.48-4.24a24.44 24.44 0 0 1 .2-3.2c1.26-11.13.92-22.44 4-33.35a64.11 64.11 0 0 1 .28-6.5 5.43 5.43 0 0 1 .51-1.5 6 6 0 0 1 3.13-2.14c1.18-.33 2.35-.85 3.56-.14 1 4.56-.73 9.55 2.08 13.84Z" transform="translate(159 203)" style="fill:#0a7bd1"/><path class="cls-21" d="m121.16 144.86 1.21.1c5.57 1.42 7.37 5.31 7.21 10.65-.05 1.75-.7 3.58.29 5.29-.93 7.54-1.89 15.08-2.79 22.62a10.58 10.58 0 0 0 .61 5.39c1.11 4.48-1.71 7.5-4.11 10.58-1.14 1.46-2.57 1.3-3.45-.55 4.3-8.46 2.92-17.47 2.53-26.36-.41-9.24-.99-18.48-1.5-27.72Z" transform="translate(159 203)"/><path d="m91 23-2.87 1c-.74-2.48-2.67-3.34-5-3.69-1.71-4.45-4.4-7-9.61-5.4-1.34.4-2.88-.46-4.25-1.06a9.64 9.64 0 0 1-5.22-8c-.22-2.44 1-4.06 3.55-3.25 3.38 1 6.48.26 9.75-.48C83 .88 86.2 2.94 87.12 8c.1 2.36 2.48 2.64 3.66 4 .08 3.66.15 7.32.22 11Z" transform="translate(159 203)" style="fill:#053d9b"/><path class="cls-21" d="m141 146.15 2.14-.17c5.55 3.9 7.85 11.77 6 20.72-.29.6 1-.14.34-.23-.19 0-.12-.17-.06-.49.16-.75.51-1.17 1.32-1.09.78 5.6-1.51 11-1 16.62.22 2.28-.07 4.6 1 6.74.87 4.8-2.56 7.56-5.18 10.62a2.09 2.09 0 0 1-3.44-.19 27.18 27.18 0 0 0 3.23-20.07 255 255 0 0 1-4.35-32.46Z" transform="translate(159 203)"/><path d="M138.87 18.25c3.24 2 1.66 5.21 1.94 7.94-.36.53-.52 1.28-1 1.63-3.09 2.35-.67 3.23 1.09 4.31a6.74 6.74 0 0 0 .15.88c0 3 2.89 6 0 9.06-3.6 1-7.28 2.55-9.84-1.87 2.7-6.87 2.7-6.87-4.1-12.14-.72 0-.78-.67-1.1-1.08-.05-2.62-.09-5.23-.14-7.85 4.18-2.84 8.46-3.74 13-.88Z" transform="translate(159 203)" style="fill:#f4a294"/><path d="M-91.81 31.12c2.38.73 3.87 2.63 5.58 4.23a1 1 0 0 0 .31.48c.17 2.37-2.19 4.49-.67 7 3.16 7.84 3.93 16.23 5.62 24.4a97.21 97.21 0 0 1 .5 13.21c-.23 1.62-.26 3.51-2.27 3.89-1.8.34-2.53-1.08-2.94-2.6a62.94 62.94 0 0 0-1.4-19.11c-1.25-5.89-4-11.47-3.78-17.67 1.26-2.81.4-4.58-2.36-6-1.19-.6-4-.33-3-3.23 1.89-1.14 1.73-4.21 4.41-4.6Z" transform="translate(159 203)" style="fill:#e3444d"/><path d="M-50.79-130.92c2 2.76 3.72 5.84 7.41 6.88 5.51 1.55 12.94-.83 14.64-8.9 3.82 2.84 1.87 5.91 0 8.51-3.26 4.43-10.39 5.93-15.44 3.73a32.37 32.37 0 0 1-3-1.69c-5.78-3.22-7.24-2.37-7.29 4.26 0 5.15.07 10.3-.06 15.45-.05 2.12.13 4.45-2.38 5.55h-2.33c.11-9.24.5-18.49.21-27.73-.15-4.63.86-6.86 5.83-5.94a9.79 9.79 0 0 0 2.41-.12Z" transform="translate(159 203)" style="fill:#0b7cd2"/><path d="M-78.09 22.94c-3.52.93-7.07-.56-10.91 1.28-2.25 1.08-3.38-3.67-3.47-6.46-.09-2.6.91-4.7 4.07-4.31 3.47.43 6.92 1 10.31-.38Z" transform="translate(159 203)" style="fill:#e7b192"/><path d="M-7.08-144c.28-6.89 1.07-7.82 7.49-7.69 1.74 0 2.61-1.17 4-1.6 1.55-.49 2.93-2.48 4.81-.67-.34 3.48-.89 6.9-2.66 10-1.85 1.07-4.51.86-5.3 3.65a1.76 1.76 0 0 1-2.71 1.18c-1.91-1.13-2.53.65-3.6 1.46-1.61-.14-1.82-1.46-2.23-2.62s-.72-2.58.2-3.71Z" transform="translate(159 203)" style="fill:#063490"/><path d="M-78.17 199.67c-2.16 0-4.32.12-6.46 0-3.06-.2-2.86-2.44-2.88-4.69 0-2.81 1.89-1.62 3.27-2.12 5.12-1.89 8.77 1.68 13 3 1.25.39 2.81 1 2.48 2.61-.26 1.3-1.87 1.2-3 1.26-2.15.12-4.32 0-6.47 0Z" transform="translate(159 203)" style="fill:#0a1b50"/><path d="M6-143.82c.58-3.54.8-7.19 3.14-10.19 1.37 2.24 3.49 2.37 5.78 2.08 4.61-.58 5.42.36 4.06 4.83a13 13 0 0 1-1.45 2.54c-1.54.84-3.69.61-4.58 2.59a1.74 1.74 0 0 1-1.36.54c-1.88-.67-4.69.73-5.59-2.39Z" transform="translate(159 203)" style="fill:#0b2c6f"/><path d="M-105.12 192.65c3 1.74 6.61 2.15 9.33 4.44a8.73 8.73 0 0 1 1.21 2 57 57 0 0 1-17.5.31c-3.87-.52-1.17-3.65-1.62-5.56 2.47-3.19 5.7-.73 8.58-1.19Z" transform="translate(159 203)" style="fill:#0f2054"/><path d="M-112.41 96.6c2.16-2.91 2.83-7.39 8.7-5.29 4.14 1.48 4.94 4.72 4.31 7.26-.81 3.25-4.37 1.73-6.89 1.23a7.08 7.08 0 0 1-1.36-.59Z" transform="translate(159 203)" style="fill:#eca198"/><path d="m77 199.74 12.19-2.26c-.28-3.81-7.5-1.34-6.2-6.6a15.7 15.7 0 0 0 10.75.23c.14 8.95 2.47 8.86-8.5 9.51-2.79.16-5.57.28-8.24-.88Z" transform="translate(159 203)" style="fill:#2d4b7f"/><path d="M142.22 198.68c4.32 1.09 4.32-3.15 6.22-5.05 1.47-1.48 1.61-3.58 2.4-5.38 2.79 1.39 1.87 3.93 1.74 6.1-.16 2.74-.63 5.47-1 8.88-2-2.28-.67-4.64-1.71-6.7-1.66.62-2.26 2.11-2.76 3.55a3.5 3.5 0 0 1-2.17 2.53c-1.92.55-4.67 1.14-5.6-.34-1.55-2.39 2.02-2.21 2.88-3.59Z" transform="translate(159 203)" style="fill:#1c61b8"/><path d="M-7.08-144c.29 1 .57 2.08.86 3.12a4.85 4.85 0 0 1-4.08 1.48c-6.71-.34-13.57 1.5-20.12-1.34l-2.82-2.82Z" transform="translate(159 203)" style="fill:#1983d3"/><path d="M150.79 164.89c-1.35 1-.41 2.81-1.58 4.22-.71-8.29-.18-16.58-6.07-23.13h7.76q-.06 9.46-.11 18.91Z" transform="translate(159 203)" style="fill:#e84c50"/><path d="M120.13 198.94c1.22 1.09 2.06 1 3.15-.43a26.63 26.63 0 0 0 4.41-9.6c4.52 4.33 1 9.15 1.18 13.74-1.38-1.77-.7-3.79-1.16-5.79-2.95.85-1.9 4.54-3.9 5.64-2.18 1.19-4.77.87-7.57.08.76-1.99 2.69-2.46 3.89-3.64Z" transform="translate(159 203)" style="fill:#1b60b8"/><path d="M-60 179.27a4 4 0 0 1 3.39 1.43A5.11 5.11 0 0 1-59 186q-3 3.9-6 7.79c-1.89-.27-3.67-.67-3.84-3.08 3.41-3.49 6.7-7.02 8.84-11.44Z" transform="translate(159 203)" style="fill:#e8b396"/><path d="M94 104.59c5.37-.72 3.25-5.15 3.54-8 .26-2.47-.72-5.08.26-7.62 1.55.43 0 2.38 1.4 2.88l5.7 1.91c-3.21 2.4-3.58 6.48-5.62 9.58-1.17 1.78-2.1 3.72-3.13 5.59-.33-1.63.85-4.01-2.15-4.34Z" transform="translate(159 203)" style="fill:#dcc2b8"/><path d="m126 27 1.1 1.08c-.07 2.58-.29 5.18-.16 7.75.16 3.09-.89 4.64-4.15 4.11-3.85-2.13-3.74-4.54-.63-7.33 1.75-1.56 3.57-3.1 3.84-5.61Z" transform="translate(159 203)" style="fill:#fbb92e"/><path d="M-91.81 31.12c-1.25 1.74-2 4-4.37 4.63.08-6.14 1-12.35-1.41-18.29 3.12 1 4.22 3.26 4.46 6.36a68.18 68.18 0 0 0 1.32 7.3Z" transform="translate(159 203)" style="fill:#e1ae94"/><path d="M129.87 160.9c-1.56-1-1-2.66-1.1-4-.31-5-1.59-9.38-6.4-11.93a19.31 19.31 0 0 1 8.8.77c.2 5.1-.58 10.13-1.3 15.16Z" transform="translate(159 203)" style="fill:#e64b50"/><path d="M-55 189.9c0 3.22 0 6.45.08 9.68a10.49 10.49 0 0 1-6.59-.31 19.17 19.17 0 0 0 2.73-9.34 2.67 2.67 0 0 1 3.78-.03Z" transform="translate(159 203)" style="fill:#fcba2c"/><path d="M-90.86 45c2.77 5.57 3.43 11.59 3.78 17.67-2-5.4-6-10.19-4.91-16.5Z" transform="translate(159 203)" style="fill:#e3eff2"/><path d="M-88 107.81c0 1.17.18 2.38-1 3.2-5.71-.49-11.52.83-17.13-1.11l-.09-1.57c6.14.39 12.22 1.31 18.22-.52Z" transform="translate(159 203)" style="fill:#275088"/><path d="M-55 189.9h-3.78c-.08-1.33-.16-2.65-.23-4 .21-2 1.36-3.6 2.39-5.25l2.35.38c-.73 2.97.63 6.02-.73 8.87Z" transform="translate(159 203)" style="fill:#e4434a"/><path d="M-105.12 192.65c-2.72 1.42-5.78.37-8.58 1.19-.61-1.48.69-2.57.8-3.9 2.64-.84 5.23 0 7.83.25-.01.81-.03 1.64-.05 2.46Z" transform="translate(159 203)" style="fill:#cea797"/><path d="M138.87 18.25c-4.49-2.16-8.67.31-13 .88.1-1 .2-2.06.31-3.09h8.32c1.84.01 3.73-.1 4.37 2.21Z" transform="translate(159 203)" style="fill:#e37947"/><path d="M-88.15 42.14c-1.84-3 1.38-4.24 2.23-6.31l1.91.8c-2 2.46.77 4.91 0 7.37-2.34 1.55-2.77-1.21-4.14-1.86Z" transform="translate(159 203)" style="fill:#f0f6f4"/><path d="m-68.84 190.66 3.84 3.09a3.83 3.83 0 0 1-5.58-.76c-.83-.99.58-1.94 1.74-2.33Z" transform="translate(159 203)" style="fill:#394671"/><path class="cls-50" d="m-79.61 105.87 4.65 1.81c-.1 2.18.34 4.43-.82 6.47.78-3.72-1.64-5.94-3.83-8.28Z" transform="translate(159 203)"/><path class="cls-51" d="M48.92 132.85c-3.91.1-7.83 0-11.71.37-3.06.28-5.13-.6-6.35-3.41-4.19-.09-8.41 1.61-12.56-.25-3.83-6.54-4.12-14.17-6.44-21.18-.83-2.49-1.31-5.12-2.12-7.64-.5-1.59-1-3.23-3.13-3.33-5.48-.14-11-.1-16.44 0-4.72 0-5.2.57-3.75 4.82 2.19 6.45 3.81 13.07 6.14 19.48 2.63 7.27 1.64 8.64-6.17 8.88a.39.39 0 0 0-.49.23c-4.87-2-4.32-7-6.06-10.74-1-6.41-3.37-12.42-5.16-18.6a10.35 10.35 0 0 1 0-3.64c.86-3.42-1.24-6.27-1.81-9.42-2-7.67-4-15.32-5.92-23-2.24-9.07.26-11.56 9.58-9.73a16.76 16.76 0 0 0 2.46.13c3.53-2.31 7.47-.73 11.19-1.18 13.71 0 27.42-.32 41.13-.08 2.47 0 5-.16 7.29 1A7.15 7.15 0 0 1 42.2 60c2.14 7 3.83 14.09 5.38 21.23a3.77 3.77 0 0 1-.39 2.88c-3.86 2.25-8.1.94-12.16 1.2-5.05.33-6.32 1.46-5.35 6.46 1.17 6 2.86 11.92 4.57 17.82 1.11 3.86 4.32 4 7.56 4.24 2.69.16 5.71-1.13 7.9 1.6.68 5.87 2.16 11.75-.79 17.42Z" transform="translate(159 203)"/><path class="cls-52" d="m-30.42-140.79 24.2-.14c.45 1-.16 2.57 1.6 2.82 3.64 3.23 4 7.3 1.31 13.08-1.17 1.24-2.79 1.68-4.27 2.35a10.5 10.5 0 0 1-1.85.74c-10.25 2.28-14.9 9.21-15.89 19.16-.4 4.13-1.11 8.21-1.42 12.36-.64 8.5 1.59 15.1 10.15 18.36a8.14 8.14 0 0 1 .94 4.57 16.69 16.69 0 0 0 .43 5.13c1 7.11 6.43 10.53 11.72 14.07a4 4 0 0 1 1.23 2.7c-1.57 8-3.6 15.87-5.5 23.78-1.09 4.56-3.09 5-6.65 1.95-2.81-2.38-4-5.58-4.92-9-2.64-10.47-4.85-21-7.57-32.49-2.2 6.59-3.55 12.52-5.38 18.29-.6 1.86-.75 4-2.73 5.11l-1-1c-1.74-1.91-1.46-4.29-1.47-6.59v-40.14c0-2.12.36-4.35-1.33-6.11C-40.28-95.58-43.22-97-47-97l-9.93-.1c2.13-5.82.52-11.85 1-17.76.14-1.82-.14-3.68.06-5.49s-1.17-4.39 1.38-5.27a6.64 6.64 0 0 1 6.59 1.07c5 4.08 10.21 5.1 16 1.31 3.72-2.46 5-5.48 3.25-9.67Z" transform="translate(159 203)"/><path d="m-10 55.84-11-.09c-3.73-5.18-7-10.59-8.9-16.77 5.73-1.54 10.38 2.12 15.62 3.42-1-2.92-1-2.93-4.2-3.1-3.59-.19-7.32.24-10.37-2.33-1.38-1.84-2.74-3.68-4.12-5.51-1.2-1.6-1.61-3 1-3.55 5.37-1.7 10.33.24 15.33 1.75-1.05-2.87-1.06-2.89-4.18-2.65-3.78.3-7.57.75-11.17-1a17.81 17.81 0 0 1-7.08-7.31c-1.35-2.59.2-2.75 2.06-2.84 6.44-2.58 11.77 1.35 17.59 3.09-.46-4-2.18-5.49-6.33-4.35a18.52 18.52 0 0 1-12.16-.6c-3.59-2.71-6.7-5.81-8.64-10.68A42.6 42.6 0 0 1-23.8 6.94C-25.9-.83-26-.55-33.44.51c-5.67.81-12 2.64-16.17-3.85C-51.93-7-51.34-8.46-47-10c4.36 0 8.71.05 12.82 2.27.68-1.91-1.1-2.93-.84-4.36C-38.25-18-43-22.9-47-28.29c-.64-.85-2-1.68-1.33-3s2.07-.73 3.15-.72c2.79 0 5.64-.46 8.32.8 4-1.68 7.63-.27 10.54 2.32 2.65 2.36 1.23 5.58.53 8.47a13.15 13.15 0 0 1-1.93 4.59c-1.87 2.61-1.68 4.91 1.06 7.34.85-5.18 1.66-10.18 3.9-14.74 1.87-3.8 2.94-3.89 5.55-.55 4.13 5.28 3.69 13.4-1.48 18.66-3.06 3.11-4 5.89-.72 9.57 2.1-4.85 2.86-10.08 5.7-14.4 1.2-1.82 2.07-4.81 5-3.9 2.52.79 2.72 3.5 3 5.87.66 6.19-.74 11.87-5.82 15.65-4.56 3.41-4.91 6.93-2.13 11.26A69.58 69.58 0 0 1-7 3.07c.9-1.64 2-3.91 4.45-3.3S.71 2.58 1 4.79a16 16 0 0 1-3.71 13 26.63 26.63 0 0 1-5.77 5.5c-2.91 1.85-3.55 4.18-2 7.69 3.59-4.7 6.47-9.65 10.1-14 1-1.25 1.92-3.24 3.75-2.9 2.19.4 2.09 2.8 2.43 4.48 1.44 7.08-2.19 13.74-9.4 17.57-4.55 2.48-4.55 2.48-4.78 6.87 3.48-1.6 5.8-4.38 8.6-6.45 1.31-1 2.58-2.64 4.35-1.65 2.09 1.16 1.14 3.25.71 5a13 13 0 0 1-8.64 9.6c-2.61.89-4.31 2.36-4.88 5.08A3.25 3.25 0 0 1-10 55.84Z" transform="translate(159 203)" style="fill:#01c1f7"/><path class="cls-54" d="M-9 55c-.53-3.65.53-5.58 4.63-6.58 6.18-1.5 8.78-6.42 9.31-14-4 3.26-7.11 5.94-10.37 8.45-1.24 1-2.71 4-3.94 2.06s-1.81-5.41.6-7.75c.63-.66 1.77-.78 2.68-1.18C4.09 31.18 6.53 25.81 3.47 14.42-2 20.4-6 27.18-10.61 33.74c-3.36-7.36-3.33-7.39 2.24-12C-3.49 17.72.47 13.2.06 6.21-.08 3.85-.83 1.27-2.62.72S-5.6 3-6.53 4.53a59.06 59.06 0 0 0-3.94 8.59c-1.14 2.92-2 6-3.16 9.6-1.52-3.61-3-6.71-4.12-10-.62-1.83 1.31-2.36 2.47-3.25C-9.39 5-5.66-.55-7-8.46c-.31-1.84-.51-4.16-2.22-4.71-2-.63-2.26 2-3.07 3.25C-15.75-4.66-16.73 1.67-19 7.76c-2.22-2.25-2.82-4.91-4.18-7.14s.46-3.41 1.78-4.49A14.33 14.33 0 0 0-15.82-17a10.74 10.74 0 0 0-4.4-8.45c-3.86 6.19-4.64 13.05-5.33 20.2-2.84-1.69-3.4-4.39-5.23-6-.94-.86-.76-1.72.09-2.56a6.51 6.51 0 0 0 1-1.12c6.83-10.15 4.8-14.71-7.2-16.22C-37-33.63-35.83-35.76-35-38l7.86-27.89c2.69 7.51 3.76 13.92 5.2 20.24s3 12.51 4.58 18.76a10.84 10.84 0 0 0 1 2.79C-15-21.76-13-18.93-10.69-19s2-3.82 2.41-5.88C-6.75-32-5.37-39.12-3-46c3.51-1 3.75 1.82 4.53 4C.89-36.33 4.14-31.48 5-26.07c1.5 9.28 1.86 9.22-7.6 11a4.77 4.77 0 0 0-2.54 1.11C.83-7.7 2.4.74 6 8.24c1.3 2.7.25 6.09 2.86 8.23 1 .56 2.28.93 2.4 2.4-1.28 1.87-2 3.47 1.26 4 1.31.24 3.71.35 1.74 2.85-4.41.39-6.12 2.57-5.93 7.18.22 5.5-1.06 10.91-2.73 16.1-1.88 5.88-2.72 6.47-8.79 6.4-1.95.01-3.97.6-5.81-.4Z" transform="translate(159 203)"/><path d="M-19 120.49c1.67 3.41 2.38 7.29 5 10.28l2.09 4.06c-2.34 1.91-4-.53-6-.9-1.4-.69-2.4-1.92-3.65-2.81-.88.88-.49 2.2-1.32 3-1 2.49-1 5.12-1.07 7.73-2-.18-4-.22-5.92-.57-2.27-.42-5.16-.26-4.28-4.23.24-1.07-1.44-1.61-2.63-1.8l-8-.4a35.41 35.41 0 0 1 2-19.84c2-2.75 7.3-2.18 7-7.13a1.49 1.49 0 0 1-.32-2c2.68-1.22 4.95.85 7.47.94a20.56 20.56 0 0 0 4.84 6 14.18 14.18 0 0 1 4.79 7.67Z" transform="translate(159 203)" style="fill:#e74349"/><path d="M-35.76 106c0 .63-.09 1.27-.13 1.9-4.68-2.61-6.33-7.3-4.59-13.06 1.52-5 4.63-7.25 9.92-7 1.15.07 2.29.34 3.43.52 2.72 2.69 4.12 5.79 3 9.66-2.2.64-4.45 1.66-6.61 1.69-4.65.08-5.94 2.12-5.02 6.29Z" transform="translate(159 203)" style="fill:#951e27"/><path d="M-38.8-91.85c3.62.3 2.81 3.1 2.81 5.25q.06 23.8 0 47.6h-2.83q.03-26.41.02-52.85Z" transform="translate(159 203)" style="fill:#097bd1"/><path d="M-57 70.08c-1.22-5.76 1-8.51 6.77-8.26a6.45 6.45 0 0 0 1.9-.5c4.34 3.19 1.4 5.8-.94 8-1.36 1.27-3.53 1.66-5.34 2.45Z" transform="translate(159 203)" style="fill:#e9b394"/><path d="M-37.91 14c5.1-.13 10.29.75 15.18-1.55 1.92-.91 2.76.4 3.31 1.89.79 2.16 1.47 4.36 2.46 7.32-6.8-3.05-13-6-20.09-5.75-.29-.66-.57-1.3-.86-1.91Z" transform="translate(159 203)" style="fill:#087fd4"/><path d="M-28.86 37a79.9 79.9 0 0 0 13.21 1c3.58-.12 3.73 2.74 3.52 5.23s-2 1.12-2.87.58c-4.62-2.73-9.83-3.58-14.91-4.87Z" transform="translate(159 203)" style="fill:#087fd3"/><path d="M-42.94 115c-.61 6.62-.61 13.3-2 19.84l-3.2.08c-.13-7.13-.77-14.38 5.2-19.92Z" transform="translate(159 203)" style="fill:#c3686e"/><path d="M-32 26c4.42-.36 8.83 0 13.3-.69 5.41-.87 3.1 4.4 4.41 7.18-5.39-4-11.7-3.65-17.69-4.62C-32 27.28-32 26.66-32 26Z" transform="translate(159 203)" style="fill:#087ed3"/><path d="M-35-12c2 1.3 3 3.27 4.11 6L-47-10Z" transform="translate(159 203)" style="fill:#0880d4"/><path class="cls-4" d="M-37.82 152.9c4.5-.89 9.13.72 13.59-.79 7.8 1.86 15.7.7 23.54.51 3.48-.08 4.07 1 3.7 3.85-.6 4.8 1.19 9.77-1 14.46-7.7 2.1-15.36 3.24-22.81-.9-5.45 1.54-10.9.78-16.35 0a1.81 1.81 0 0 1-1.68-1.52c-.68-5.29-2.02-10.6 1.01-15.61Z" transform="translate(159 203)"/><path class="cls-5" d="M-20.83 170c7.55 1.83 15.21.49 22.81.9q-.12 3.94-.26 7.88c-4.63 0-9.27.1-13.91.11-8.6.05-8.6.04-8.64-8.89Z" transform="translate(159 203)"/><path d="M-23 134.11c-.84-1.92-.11-3.81 0-6.29a20.09 20.09 0 0 1 5 6.11Z" transform="translate(159 203)" style="fill:#2476c3"/><path d="M-71-83.68h22.44c1.54 0 3.71-.54 3.53 2.15-.16 2.39-2.21 1.55-3.5 1.55q-22.44.09-44.89 0c-1.37 0-3.26.51-3.29-1.87s1.91-1.84 3.26-1.85c7.52-.01 15.01.02 22.45.02Z" transform="translate(159 203)" style="fill:#fbf6e3"/><path d="M-71-63.79h-21.91c-1.35 0-3.41.64-3.56-1.55-.15-2.35 2-1.71 3.32-1.81 15.07-1.12 30.17-.23 45.26-.49 1.3 0 2.8-.15 2.86 1.83.08 2.4-1.75 2-3.14 2-7.59.04-15.2.02-22.83.02Z" transform="translate(159 203)" style="fill:#fbf7e5"/><path d="M-70.76-71.93h-22.46c-1.2 0-3 .61-3.2-1.35-.18-2.44 1.92-1.74 3.25-1.82 14.79-.94 29.59-.46 44.38-.52 1.46 0 3.75-.8 3.74 1.91S-47.42-72-48.8-72c-7.32.13-14.64.08-21.96.07Z" transform="translate(159 203)" style="fill:#fbf6e5"/><path d="M-85.27-55.83h-8.43c-1.25 0-2.9.3-2.82-1.77.06-1.64 1.41-1.57 2.56-1.57h17.35c1.12 0 2.48-.15 2.55 1.55.1 2.11-1.54 1.76-2.78 1.78-2.81.04-5.62 0-8.43.01Z" transform="translate(159 203)" style="fill:#fbfcf6"/><path class="cls-3" d="M73.08 93.28c-.45 5 .88 9.85 1.4 14.77.25 2.36 2 5.31-1.47 7a2.69 2.69 0 0 1-.92-1.21c-1.16-7.54-3.26-14.88-4.82-22.34-.76-3.65-2.72-6-6.44-6.64a3.36 3.36 0 0 1-1.22-.86 47.51 47.51 0 0 1-2-6.26 37.6 37.6 0 0 0 1.29-6.21 21.26 21.26 0 0 1-5.78 10.12c-2.21 2.32-4.18 1.89-5-1.21-.92-3.29-2.07-6.63-1.38-10.19 2.52-6 3.07-12.45 3.94-18.8.24-1.8.52-3.59.8-5.38.77-5 3.45-8.11 8.69-8.52 2.39-.18 4.7-1.82 7.19-.48 1.6 2.48.73 5.09.49 7.69-.91 10.12-1.22 20.15 4.88 29.1 1.46 4.72.13 9.7 1.34 14.46.12 1.76.33 3.51-.99 4.96Z" transform="translate(159 203)"/><path d="m61 116-.17 17a2.08 2.08 0 0 1-.91.39c-2.66.06-5.65.84-7.9-.21-3-1.38-.58-4.7-1-7.15-.6-3.33-1.53-6.83-.23-10.28 3.12-1.72 6.33-1.42 9.57-.42Z" transform="translate(159 203)" style="fill:#03c1f5"/><path d="M51.3 116a99.44 99.44 0 0 0 1 10.24c.47 2.36.49 4.43-1.14 6.42 3.45 1 6.57.36 9.66.37a1.2 1.2 0 0 1 0 1c-4-.55-8.13 1.19-11.92-1.12q.11-8.75.23-17.5c.29-.95 1-.9 1.73-.68a1.31 1.31 0 0 1 .44 1.27Z" transform="translate(159 203)" style="fill:#274e81"/><path d="M78.88 132.9h-2.71c-.61-6.26.67-12.38 1.62-18.6a58.92 58.92 0 0 1 1.09 18.6Z" transform="translate(159 203)" style="fill:#0dbcee"/><path d="M73.08 93.28 72.93 89a3.73 3.73 0 0 1 5-.3c3.81-.15 4.41 2.08 3.87 5.18Z" transform="translate(159 203)" style="fill:#09174d"/><path d="m72.77 114 .24 1.07c-3.88 1.88-8 .43-12 .89a.64.64 0 0 1-.49-.26 1.7 1.7 0 0 1 .85-1.35 24.42 24.42 0 0 1 11.4-.35Z" transform="translate(159 203)" style="fill:#d2987c"/><path d="M-111.32 63a43 43 0 0 1 4.13 25.48c-12.62-8.4-12.95-22.64-4.13-25.48Z" transform="translate(159 203)" style="fill:#fcfdfe"/><path d="M-85.68 81.73c2.37 4.11 3.68 1.62 5-.81a.59.59 0 0 1 .66.57v9.09c-.08.67-.42.84-1 .52l-4.1.12c-1.65-3.07-.59-6.31-.56-9.49Z" transform="translate(159 203)" style="fill:#f4e9e6"/><path class="cls-3" d="M18.08 128.86c4.24.55 8.61-.56 12.78 1a2 2 0 0 0-1.93 2.14c-5.67 1-11.39.18-17.08.49-1.93.1-3.93-.47-5.8.45-6.67.21-13.36.52-19.66-2.36 7.43-1 7.5-1.3 5-8.63s-4.66-14.79-7.2-22.11c-1.1-3.18-.21-4.08 3-4C-6.22 96 .4 95.91 7 96c2.75 4.63 3.3 10 4.82 15 1.34 4.43 2.05 9.05 3.6 13.41.58 1.59.58 3.67 2.66 4.45Z" transform="translate(159 203)"/><path d="M57.66 197.92c2.59-3.55 5.51-5.06 9.16-3 .85.48 1.89.93 1.61 2.15-.24 1.06-1.29.85-2.06.86-2.9.07-5.81-.01-8.71-.01Z" transform="translate(159 203)" style="fill:#054fad"/><path d="M6.05 132.9c5.05-2.13 10.33-.48 15.48-.91 2.45-.21 4.93 0 7.4 0-4 2.15-8.33.65-12.5.95-3.43.21-6.92-.02-10.38-.04Z" transform="translate(159 203)" style="fill:#2172c0"/><path d="M131.24 40.2c2.79 3.2 6.71.49 9.84 1.87-3.94 7.49-6.29 15.63-9.59 23.39-.09.2-.56.24-1.49.61-1.93-8.87-1-17.38 1.24-25.87Z" transform="translate(159 203)" style="fill:#fbf9f4"/><path d="M140.91 73.91c4.31-1 5.1 2.12 6 5.09-4.57-.47-9.06-1.58-13.74-1.09-2.1.22-3.39-1-3.35-3.36.06-2.82 2.08-2.49 3.89-2.52 2.59-.03 4.87 1.03 7.2 1.88Z" transform="translate(159 203)" style="fill:#e9a98a"/><path d="m78 88.71-5 .3c-1.82-4.89-.41-10-1.18-15a3.2 3.2 0 0 1-.19-2.81 1.62 1.62 0 0 1 1.22-.6c2.83 2.42 5.18.73 7.54-.88l1.53 4.34c0 3.3-.25 6.63.06 9.9s-1.12 4.47-3.98 4.75Z" transform="translate(159 203)" style="fill:#6ddcf2"/><path d="M99.17 91.88c-.12.29-.15.68-.37.87-.48.43-.75.16-.79-.4-.09-1.12-.16-2.24-.24-3.35V60.66a19 19 0 0 1 4 15.07c-.7 5.4-1.71 10.76-2.6 16.15Z" transform="translate(159 203)" style="fill:#f8fafc"/><path class="cls-50" d="m-81 91.1 1-.52.15 14.09c-2.31-4.35-.42-9.07-1.15-13.57Z" transform="translate(159 203)"/><path d="M-37.82 152.9c-.06 5.71-1.13 11.46.64 17.1.1 7 1.48 14-.78 20.94-2.54.2-3.55-1.36-3.87-3.53C-43 179.94-44 172.46-45.14 165c.35-4.69 2.42-8.83 4-13.13.73-1.91 1.88-2 3.47-1.67l5.79 1.19c-1.8 1.33-4.4-.65-5.94 1.51Z" transform="translate(159 203)" style="fill:#05174d"/><path d="M-37.33 196.89c-.77 1-1.28 2.78-2.91 1.87s.12-1.86.51-2.73c.58-1.32 1.27-2.59 1.92-3.88 1.39 1.46.58 3.13.48 4.74Z" transform="translate(159 203)" style="fill:#d99792"/><path d="M-88.15 42.14-84 44c2.32 6.79 2.37 13.93 3.15 21 .58 1.1.5 2-.87 2.37a195.37 195.37 0 0 0-6.43-25.23Z" transform="translate(159 203)" style="fill:#ecf3f3"/><path d="m-81.72 67.33.87-2.37c1.75 5.43.59 11 .82 16.52a8.39 8.39 0 0 1-.65-.56q-.51-6.79-1.04-13.59Z" transform="translate(159 203)" style="fill:#6577b0"/><path class="cls-2" d="M66.89 37.12c-1.56.54-3.11 1.53-4.67 1.55-9.43.13-8.66 3.47-10.25 12.57-.88 5-1.39 10.12-2.38 15.13-.32 1.63-.42 3.75-2.49 4.63-3-2.2-2.39-5.9-3.65-8.83-1-2.2-1-5.28-4.58-5.17-1.74-1.27-3.72-1-5.71-1Q11.61 56-10 55.84l1-.84c12.11 0 12.49-.12 14.69-11.88C6.44 39.11 7.55 35 7 30.85c-.59-4.33.72-6.7 5.55-5.86A11.51 11.51 0 0 0 15 24.9c2.57-2 5.72-.62 9.07-1.57-2.47-2.19-5.66-2.83-7.51-5.21a4.76 4.76 0 0 1-.56-2.87c4.44-9.53 9.6-18.69 14.76-27.84 3.6-6.47 6.57-13.28 10.48-19.59a50.59 50.59 0 0 0 4.15-7.31c2.91-6 2.46-8.82-2.72-13.44-5.9-5.29-12.32-10-18.27-15.19-1.23-1.08-2.75-1.92-3-3.77 0-1.6 1-2.67 2.09-3.71 1.24-1.28 3.09-1.86 4.29-3.9-3.16-.4-5.95-.37-8.69 1-1.41.69-2.88 2-4.44.19.64-4.16 2.14-8.13 2.82-12.28 3.31-1 4.09 2.07 5.44 3.69 2.53 3.06 5 4.06 8.45 1.63C34-87.11 36.23-87 37.9-83.83a26.73 26.73 0 0 0 16.8 13.68c1.57.46 3.15 1.06 4 2.67 1.93 4.63-.49 8.45-2.25 12.4-2.23 14.28-.64 28.53.22 42.78.09 1.5.42 3 1.91 3.85 4.46.54 4.74-2.7 4.82-5.67.23-8 0-16 .11-24 .07-5.48-.43-11 .36-16.44a3.72 3.72 0 0 1 .72-1.36c2.9-.43 1.38 1.82 2 3.21-.44-4.87-1.14-9.3-4.1-13.06a4.11 4.11 0 0 1-.28-2.22 3.05 3.05 0 0 1 .67-1.33c2.58-1.52 5.6-1.85 8.25-3.3 6.63-3.63 11.73-8.44 14-15.93.41-1.37.42-3.51 2.84-3.35 0 16.3-.1 32.61.12 48.91.06 4-1.15 5.3-5.08 5-4.3-.31-8.66.14-13-.12-3.53-.2-4.16 1.45-4.1 4.48.06 2.81.2 4.84 3.92 4.64 4.81-.26 9.65-.08 14.47 0 1.62 0 3.23-.25 3.68 2.23 1.94 10.87.4 21.82.94 32.72a1.81 1.81 0 0 1-1.78 2C84.69 3.11 80.9 2 76 3.79c-2.84 1.06-5.68 1.78-8.59 0-1.89-1.13-2.41 0-2.22 1.66a10 10 0 0 0 4.79 7.73c2.79 3.61-.09 7.32.22 11-1.58 3.43-2.27 6.82.38 10.1-.17 2.36-1.43 3.24-3.69 2.84Z" transform="translate(159 203)"/><path class="cls-52" d="M12.21-142.11a5.19 5.19 0 0 0 .79.11c3.76 2.28 7.71 1.43 11.8 1.2 7.76-.44 15.57-.09 23.35-.07a305.55 305.55 0 0 0 35.68 0c3.08 1.37 4.28 3.68 4.19 7.08-.19 6.71-.06 13.42-.06 20.71-3-1.32-3.69-4.22-6.14-4.86-3.36.1-3.94-3.75-6.6-4.64-15.21-8.77-32.31-3-39.07 13.19-1.21 2.9-2.29 5.85-4.62 8.14-3.46 3.39-4.78 3.31-7-1a114.64 114.64 0 0 0-6-10.29c-1.12-5.13-4.38-8.21-9.32-9.65a11.07 11.07 0 0 1-2.5-1.38 3.65 3.65 0 0 1-1.34-2.57 6.3 6.3 0 0 1 .91-2.86 17.7 17.7 0 0 0 4.2-9.29c.2-1.33.24-2.93 1.73-3.82Z" transform="translate(159 203)"/><path d="M76.24-123.14c2.73.82 3.48 3.74 5.56 5.24 6.17 7.71 6.66 16.76 6.11 26.05-1.69 3.68-2.88 7.72-5.18 11C78-74.19 71.65-69.52 63-69.18a3.26 3.26 0 0 1-.58-3.69 5.21 5.21 0 0 1 3.06-2.37c14.16-5.11 20.67-22.92 12.12-37.7-.42-.72-.83-1.44-1.29-2.12-1.07-1.67-2.86-3-2.92-5.2.37-1.51.61-3.2 2.85-2.88Z" transform="translate(159 203)" style="fill:#8f1f29"/><path d="M83.81-140.83c-1.5 1.58-3.44.84-5.17.86q-12.92.12-25.84 0c-1.57 0-3.35.63-4.67-.88Z" transform="translate(159 203)" style="fill:#5ba8e7"/><path d="M-59.91 54.64c-.07 1.63-.7 3-2.45 3.13a2 2 0 0 1-2.35-1.92A3.1 3.1 0 0 1-62 52.39c1.29-.15 2 .94 2.09 2.25Z" transform="translate(159 203)" style="fill:#84e6f6"/><path d="M146.1 72.85c-1.71-6.61 4-9.83 6.08-14.72 8.4 9.16 8 10.71-3.6 14Z" transform="translate(159 203)" style="fill:#fcf9f9"/><path d="m140.93 32.13-6.56-.4 6.44-5.54Z" transform="translate(159 203)" style="fill:#e84c51"/><path d="M80.32 69.72c-3.61 5.56-3.68 5.57-7.58.85-1.81-2.55-1.27-5.44-.89-8.16 1.06-7.51 2.89-14.92 2.4-22.6a3.44 3.44 0 0 1 1.38-3c1.62-.75 2.84-.17 3.82 1.18 1.12 5.55.91 11.18.91 16.79.19 3.47-.64 6.9-.28 10.37a16.63 16.63 0 0 1 .52 3Z" transform="translate(159 203)" style="fill:#e3454d"/><path d="M70 34.16c-4.36-2.87-3.35-6.1-.63-9.43a3.73 3.73 0 0 1 2-.86 16.52 16.52 0 0 1 5 .21c2.59 1.27 4.56-.48 6.69-1.41 1.46.18 1.92 1.16 2 2.46l-.16 1c-1.57 4.93-4.36 8.71-9.56 10.24a5.81 5.81 0 0 1-3.34-.46c-1-.29-1.42-1.13-2-1.75Z" transform="translate(159 203)" style="fill:#042f86"/><path d="M79.05 55c.3-5.67-1.35-11.31-.25-17-.22-4.12 2.49-5.07 5.8-5.35a239 239 0 0 0-3.24 28.25c-.17 2.42-.5 4.83-.76 7.25-.26-.8-.51-1.61-.77-2.41-1.03-3.52.37-7.22-.78-10.74Z" transform="translate(159 203)" style="fill:#f3f8f5"/><path d="M84.6 32.66c-2.15 1.55-4.89 2.45-5.8 5.35a4 4 0 0 0-3-.89c-.86-.09-1.3-.49-1.05-1.42 4.85-1.63 7.39-5.69 10.1-9.58-.1 2.18.64 4.39-.25 6.54Z" transform="translate(159 203)" style="fill:#d08264"/><path d="m85 25.13-2-2.23c-.65-1.21 0-2 .87-2.76 3.71-1.22 5.72-.59 4.22 3.87Z" transform="translate(159 203)" style="fill:#db424d"/><path d="M83.91 20.14 83 22.9c-1.28 2.9-3.16 4.2-6.23 2.33-.88-1.82.84-3.45.38-5.24-.25-1-.71-1.9-1.87-2s-1.75.82-1.7 1.89c.1 2.09-.11 3.94-2.38 4.82h-1.87l.6-11.51c1.43.21 3.07 1 4.25.52 6.37-2.38 8.82.73 9.73 6.43Z" transform="translate(159 203)" style="fill:#fbb728"/><path d="M135.55 27.26a2.88 2.88 0 0 1-2.41 1.36 1 1 0 0 1-1.09-1.27c.22-1.21 1.24-1.36 2.28-1.28.67.05 1.23.33 1.22 1.19Z" transform="translate(159 203)" style="fill:#f9e2db"/><path d="m5.71-126.15 1 2c.12 3.92-2.2 5.6-5.64 5.08-3.15-.49-6.24-1.82-5.28-6.19 1.59-4.32 2.15-8.61-.42-12.8-.29-1.26-1-2.74.32-3.62 1.09-.71 2.24 0 2.89 1.11 1.88 3.21 1.19-1.18 2.14-.71-.17-4.93 2.63-3.56 5.3-2.49 1.69 1.92 4.54-.38 6.18 1.71-.73 5-.11 10.46-5.26 13.74-.93 1.94-2.46.33-3.75.57a8.68 8.68 0 0 1 2.52 1.6Z" transform="translate(159 203)" style="fill:#d58f6e"/><path class="cls-4" d="M72.77 114c-3.85 2.05-8.07.34-12 1.17a41.24 41.24 0 0 1-9.68.09l-1.9.1c-3.62-.08-7.23-.27-10.85-.21a4.3 4.3 0 0 1-4.73-3.48c-1.89-7.51-4.43-14.86-5.65-22.55-.55-3.41.63-4.88 4.18-4.82 4.95.09 9.92-.14 14.88-.24 4.29-.27 8.59-.89 12.88.08 5.2-.7 8.1 1.66 8.77 6.86 1.03 7.7 4.45 15 4.1 23Z" transform="translate(159 203)"/><path d="M59.86 84.13A27.89 27.89 0 0 1 47 84.05c-2-7.61-4-15.21-5.86-22.84A7.52 7.52 0 0 0 38.87 57c3.42-2.49 4.35.53 5.09 2.64 1.3 3.7 2.12 7.57 3.13 11.36.64 3 1.31 6.05 1.91 9.11.16.82.2 1.73 1 2.1 1.23.54 1.75-.58 2.35-1.28a34.51 34.51 0 0 0 6.85-13.07c.23 3.42 2.24 6.93-1.26 9.92-.07 3.49-2.73 4.55-5.09 5.57 2.22-.72 4.68-1.15 7 .37Z" transform="translate(159 203)" style="fill:#23467c"/><path d="M18.08 128.86c-2 1.89-2.62.06-3-1.31C12 117.11 8.93 106.68 7 96c2.25-.76 3.09.85 3.51 2.43 2.67 10.07 5.68 20.11 7.57 30.43Z" transform="translate(159 203)" style="fill:#24477c"/><path d="M-35.76 106c-.64-1.31-1.36-2.59-1.9-4-.37-.92-.29-2.64.51-2.53 4.48.59 8.44-3.13 13-1.46-.17.93-.34 1.85-.52 2.77.56 3.46-.49 5.81-4.3 6.25-2.69 2.25-4.54-.63-6.79-1.03Z" transform="translate(159 203)" style="fill:#eb8756"/><path d="M-29 107.05c2.92-1.06 3.18-4 4.3-6.25a72.21 72.21 0 0 1 5.7 19.69c-2.73-3.19-4.71-7.1-8.62-9.14-2.03-1.03-1.17-2.8-1.38-4.3Z" transform="translate(159 203)" style="fill:#0f7ed1"/><path class="cls-3" d="M22-72c5.68 6 12.62 10.49 18.73 16 1.35 1.21 2.78 2.34 4.08 3.59 3.83 3.71 5.44 7.8 2 12.7-1.76 2.53-2.1 6-5 7.81-2.62-.2-3.31-2.53-4.37-4.23-5.73-9.3-14-16-22.79-23.28 2.2 5.55 5.69 9.53 8.33 14 1.49 3.54 4.12 6.43 5.71 9.92.39 5.08-2.15 9.56-3 14.41-1 6.08-1.22 6 4.78 8.21a2.71 2.71 0 0 1 1.17.87L17 14.93c-2.43 2-5.08 1.69-7.79.78-3.82-3.57-2.74-8.29-2.44-12.54.71-9.87 1.29-19.76 2-29.63a9.66 9.66 0 0 0-3.08-8.38C3.67-36.83.8-38.45 1-42c-1.21-1.43-1.67-3.62-4-4l-1.1-1.82C-7-53.55-11.66-58-15.14-63.32c-.11-.16-.26 1.22-1.06 1.35-1.21-1.56-.62-3.33-.59-5 1.93-1.77 4.36-1.46 6.62-1.36C-3.5-68.07 3-68.26 8.91-72c4.36-.24 8.73-1.27 13.09 0Z" transform="translate(159 203)"/><path d="M8.91-123c5.09 1.47 9.9 3.23 10.26 9.7 2.4 7.68 1.4 15.2-1.08 22.65-.08 4.44-.6 8.77-3 12.64-.16.2-.33.39-.49.58-4.2.18-6.23 3.19-8.18 6.31-7.9.54-15.74-.38-23.6-.82-7.68-1.84-10.59-5.54-10.82-13.18A115.63 115.63 0 0 1-26.54-104c1.5-11 7.45-17.68 18.43-19.75a2.71 2.71 0 0 1 1.19 1.5c1.18 3.74 3.81 5.75 7.62 5.78s6.35-2.22 7.58-5.86a1.84 1.84 0 0 1 .63-.67Z" transform="translate(159 203)" style="fill:#d83b43"/><path d="M-17.22-72c5.35-2.12 10.91-1 16.33-.69 2.55.15 5.14.5 7.73.5a2 2 0 0 1 2.07-.08.85.85 0 0 1 .28.82Q9.07-71 9-71c-7.72 6.84-17.08 3.21-25.74 4-.19-1.67-.34-3.33-.48-5Z" transform="translate(159 203)" style="fill:#264478"/><path d="M8.91-123c-.43 5.51-2.46 7.65-7.51 7.9-5.23.27-8.6-2.78-9.51-8.58l3.91-1.58c.51 3 2.51 4.54 5.37 5.09 3.22.62 4.28-1.84 5.56-4Z" transform="translate(159 203)" style="fill:#faf5f0"/><path d="M-16.2-62c.51-.67.26-3.33 1.46-1.84 4 5 9.86 8.85 10.68 16-6.22-2.83-11.23-6.72-12.14-14.16Z" transform="translate(159 203)" style="fill:#23457a"/><path d="M-19.83 49.88c2.71 0 4.68.07 6.65 0 1-.06 2.07-.4 2.1 1.15a7.17 7.17 0 0 1-.25 2.91c-.61 1.32-1.73.51-2.51.07-1.88-1.1-4.25-1.52-5.99-4.13Z" transform="translate(159 203)" style="fill:#0784d6"/><path d="M1-42c.3.4.5.93.89 1.18C12-34.25 10.35-24.61 9.65-14.6 9-4.84 6.44 5 9 14.86a3.48 3.48 0 0 1-.95 3.08C4.12 16.1 6.42 12 5 9.09 1 .89-.67-8.45-8.54-15.44c4-.64 6.77-1.47 9.48-1.41 4.39.09 4.54-2 3.55-5.32C3.06-27 2.73-32.22.6-36.94-.14-38.58-.67-40.43 1-42Z" transform="translate(159 203)" style="fill:#3594e6"/><path d="M17 17.94c2.89 1.18 5.23 3.51 8.42 4.09a1.6 1.6 0 0 1 1.44 1.75c-.12 1-1.1 1.08-1.92 1.09h-10c-1.12-1-2.49-.58-3.77-.69s-3.08.37-3.4-1.84.38-3.5 2.74-3.58a6.82 6.82 0 0 1 6.49-.82Z" transform="translate(159 203)" style="fill:#071d55"/><path d="M17 17.94a10.33 10.33 0 0 1-6.45.85l-2.51-.85c.13-1.08-.25-2.33.95-3.08l8 .07c.01 1.01.01 2.01.01 3.01Z" transform="translate(159 203)" style="fill:#eff4f3"/><path d="M-30 131c-1.28-.06-3 .09-3.12-1.48a2.57 2.57 0 0 1 2.65-2.38c1.47.21 3.67.72 3.68 2.56.01 1.63-1.97 1.18-3.21 1.3Z" transform="translate(159 203)" style="fill:#f9ece7"/><path d="M-6.77 165.69a2.12 2.12 0 0 1-1.79-2.79c.28-1.19.44-2.86 2.37-2.57a3 3 0 0 1 2.59 3.17c-.05 1.6-1.67 1.84-3.17 2.19Z" transform="translate(159 203)" style="fill:#2b83b9"/><path d="m70 34.16 2.2 1c2.74 5.66 1.33 11.68 1.15 17.5-.18 6.07-.87 12.13-1 18.22L71.76 74c-4.22-4.22-5.17-9.72-5.74-15.26-.75-7.23.74-14.41.87-21.64 1.11-.84 2.98-.98 3.11-2.94Z" transform="translate(159 203)" style="fill:#087ad1"/><path d="M59.94 83.72c-2.25.78-4.55.38-7.24.45.9-3.19 4.21-3.9 5.28-6.39 2.82 1.22 1.61 3.86 1.96 5.94Z" transform="translate(159 203)" style="fill:#04b3e9"/><path class="cls-51" d="m51.05 115.25 9.68-.09a.62.62 0 0 1-.21.54l-9.22.3a1.68 1.68 0 0 1-.25-.75Z" transform="translate(159 203)"/><path d="M1.31 113.88a2.76 2.76 0 0 1-3-2.49c-.14-1.27.4-2.82 2.12-2.75 1.32.06 2.62.66 2.56 2.4.01 1.37-.31 2.63-1.68 2.84Z" transform="translate(159 203)" style="fill:#e6edf0"/><path d="M72.3 70.85c-.57-11.91-.42-23.82-.14-35.72l2.58.57 1.05 1.42c.86 11.33-3.13 22.21-3.05 33.46a2 2 0 0 0-.44.27Z" transform="translate(159 203)" style="fill:#fafaf5"/><path d="m18.09-90.7 1.08-22.65c3.76 4.09 5.23 9.51 8.15 14.07 4.62-2.87 6.54-7.51 8.58-12.2 6.87-15.79 25.85-21.2 40.34-11.66l-2.35 3.38c-2.09.5-3.68-.94-5.53-1.39-16.53-2.67-27.58 4.41-30.63 19.54a21.4 21.4 0 0 0 .59 9.78A30.08 30.08 0 0 0 44.1-81.3c4 4.31 8.78 7 14.86 7.09 1.46 0 3 0 4.09 1.35 0 1.22-.07 2.45-.1 3.68-.15.38-.31.77-.46 1.16-1.38 1.37-2.8 1.29-4.24.09-10-2-17.82-7-22.22-16.52-.6-1.31-1.12-1.61-2.6-.83-7.65 4-7.67 3.92-13-2.92-.72-.89-1.57-1.67-2.34-2.5Z" transform="translate(159 203)" style="fill:#c8343c"/><path class="cls-8" d="M22-45a128.54 128.54 0 0 1-9.78-16.12C18.63-60 27.1-51.64 41.86-32c-2.65 7-6.73 13.32-10.13 20-1.47-.12-3-.11-4.4-.37-3.22-.58-4.85-1.76-3.57-5.73 1.85-5.8 2.85-11.82 4.24-17.72a5.54 5.54 0 0 1 .19-2c1.53-3.57.64-5.69-3.45-6.07A5.07 5.07 0 0 1 22-45Z" transform="translate(159 203)"/><path class="cls-54" d="M30.72 53c-2.74-.27-6.41 1.11-7.92-1.53-1.34-2.37 1.58-4.67 2.88-6.89 1.09-1.86 2.17-3.72 3.19-5.62 2.12-3.92 5.85-4.47 7.77-.66 1.68 3.33 3.84 3.91 7.07 3.77 3-.12 7.59 5.63 7.09 8.5-.23 1.33-1.24 1.51-2.23 1.41-6.01-.6-11.87 1.21-17.85 1.02Z" transform="translate(159 203)"/><path d="M65.08-55.87c.06 14.44.23 28.88.14 43.31 0 5.2-2.95 7.17-7.44 5.58-.82-15.09-.29-30.2-.27-45.3A6.17 6.17 0 0 1 58.64-56c2.19-1.55 4.36-1.77 6.44.13Z" transform="translate(159 203)" style="fill:#b8732a"/><path class="cls-4" d="M59-55.69c0 14.58 0 29.16-.07 43.74 0 1.67.87 3.7-1.15 5A4.79 4.79 0 0 1 55-11.29c-.24-14.88-1.51-29.77.2-44.64 1.32-1.07 2.62-1.26 3.8.24Z" transform="translate(159 203)"/><path d="M15.05-78.06c4.69-2.85 9.74-3.44 15.54-2.26-1.5 2.83-4.18 3.95-6.58 5.38-3.56 2-7.3 1.71-11.07.83-3-3 .64-2.78 1.82-3.75Z" transform="translate(159 203)" style="fill:#e8f5f5"/><path d="m59-55.69-3.82-.24c3.44-3.38 2.53-7.88 3.07-12l4.24-.07c.19.69.38 1.37.58 2.06a30 30 0 0 1 2.35 10.19l-.34-.1Z" transform="translate(159 203)" style="fill:#051b53"/><path d="m12-75.19 12 .25L22-72c-4.24 1.76-8.68.93-13 1-.06-.28-.13-.56-.21-.83.21-1.94.96-3.41 3.21-3.36Z" transform="translate(159 203)" style="fill:#72e2f6"/><path class="cls-12" d="M65.42-55.77A11.52 11.52 0 0 1 63.07-66c5.18 3.57 3.63 9 3.91 14.11-1.84-.94-.39-2.91-1.56-3.88Z" transform="translate(159 203)"/><path d="M5.71-126.15c-3.25.46-5-.63-4.64-4.32 2.31.08 3.62 2.45 5.88 2.1.16 1.06-.63 1.59-1.24 2.22Z" transform="translate(159 203)" style="fill:#3d537e"/><path d="M63.05-72.86c-8.11.58-15-1.73-20.19-8.31-1-2.19.65-3.43 1.88-4.67Q58.72-100 72.86-114c1.14-1.09 2.14-2.6 4.19-2 10.82 12.37 6.51 37.77-14 43.14Z" transform="translate(159 203)" style="fill:#00c3f8"/><path d="M77.05-116C65.49-105.68 55-94.27 44-83.3a8.7 8.7 0 0 0-1.15 2.13 22.41 22.41 0 0 1-5.68-9.77C45.94-101.13 55.36-110.67 65-120c1.06-1 2.13-2.13 3.81-2l5.13 2.33c1 1.15 2.06 2.39 3.11 3.67Z" transform="translate(159 203)" style="fill:#70e3f6"/><path d="M79.05 55c1.73 3.48.7 7.16.78 10.75-1.66-3.48-.62-7.16-.78-10.75Z" transform="translate(159 203)" style="fill:#8e6b91"/><path d="M71.24 24.74c.48-1.29 2.07-2.17 1.15-4a2.75 2.75 0 0 1 1.36-4.12c1.13-.56 2.26-.78 3.2.16 1.34 1.32 2.26 2.9 1.55 4.86-.45 1.24-1.12 2.39-1.69 3.58Z" transform="translate(159 203)" style="fill:#f1a88d"/><path d="M46.15 101.71a1.61 1.61 0 0 1 1.34-1.85 1.78 1.78 0 0 1 2.06 1.59 1.27 1.27 0 0 1-1.28 1.63 1.79 1.79 0 0 1-2.12-1.37Z" transform="translate(159 203)" style="fill:#575f65"/><path d="M22-45a8 8 0 0 1 1 0c8.24.33 9.22 2.15 5 9.2-2.87-2.52-4.35-5.9-6-9.2Z" transform="translate(159 203)" style="fill:#348fdf"/><path d="m12-75.19-3.26 3.34-1.9-.33c.63-6 .63-6 7.92-5.68Z" transform="translate(159 203)" style="fill:#e4a489"/><path d="M68.76-122.09c-8.13 8.21-16.58 16.1-24.17 24.85-2.11 2.43-3.94 5.37-7.4 6.3-5.58-15.76 9.96-38.13 31.57-31.15Z" transform="translate(159 203)" style="fill:#01c3f8"/></svg>