<svg id="Слой_1" data-name="Слой 1" xmlns="http://www.w3.org/2000/svg" viewBox="0 0 350 437"><defs><style>.cls-1{fill:#fdfdfd}.cls-2{fill:#00c3f9}.cls-3{fill:#097bd1}.cls-4{fill:#fbb826}.cls-5{fill:#e74149}.cls-6{fill:#044fb1}.cls-8{fill:#244377}.cls-9{fill:#e7424a}.cls-19{fill:#10bbdf}.cls-23{fill:#31b1e8}.cls-46{fill:#6ee3f8}.cls-58{fill:#bcf6f1}.cls-88{fill:#fab527}.cls-94{fill:#00c1f8}.cls-99{fill:#f8fbfd}.cls-106{fill:#439adc}.cls-109{fill:#6ce1f7}.cls-110{fill:#0da9cf}.cls-118{fill:#0959b7}.cls-122{fill:#fab827}.cls-128{fill:#244478}.cls-129{fill:#097ad1}.cls-147{fill:#1aa2f2}.cls-172{fill:#7ae5f8}.cls-228{fill:#dd8a46}</style></defs><path class="cls-1" d="M190.9 16q0 107 .1 213.91c0 3.42-.67 4.09-4.09 4.09q-170.91-.18-341.82 0c-3.42 0-4.09-.67-4.09-4.09q.17-214.41 0-428.82c0-3.42.67-4.09 4.09-4.09q170.91.18 341.82 0c3.42 0 4.1.67 4.09 4.09q-.19 107.46-.1 214.91Z" transform="translate(159 203)"/><path class="cls-2" d="M148.56-60.72c-.36 2.32.85 4.16 1.79 6.1 18.22 37.44 18 75.46 3.41 113.86-2.65 6.95-6 13.65-9 20.46-4.5-1.89-7.47-5-7.95-10.06.26-2.13.76-4.22 1.18-6.32 2-9.7 1.38-18.74-6.67-25.86-.67-2.93 1-5.12 2.44-7.32 6.66-10.15 6-14.06-3.89-21.49a5.56 5.56 0 0 1-1.64-1.84c-.85-2.07-.46-4.26-.71-6.39-.91-7.82-3.65-14.48-11.5-17.84s-15-1.42-21.43 3.5c-5.28 4-5.56 9.87-5.1 15.81.21 2.63 1 5.21.53 7.9a10 10 0 0 1-1.41 3.65c-4.43 6.69-4.28 13.18.65 19.54-.56 2.91-3.36 3.45-5.27 4.85-9.34 6.79-10.1 18-6.89 27.31 1.39 4 5.19 2.56 8.22 2.51 1.09-.09 2.17 0 3.25-.09 4.65-.11 9.29-.14 13.93 0 1.46 0 2.91-.11 4.36 0 1.45-.08 2.9 0 4.35 0 4.88-.13 9.76-.08 14.65 0a15.89 15.89 0 0 1 4.05.56 2.69 2.69 0 0 1 1.21.92c.22 1.71-.89 2.81-1.95 3.84-6.44 6.22-12.25 13.12-19.37 18.67-2.11 1.63-3.09 4.45-5.8 5.45a7 7 0 0 1-1.69.32c-8.08.16-16.14.08-24.2.06-2 0-4 .17-5.6-1.37-1.47-2.45-1-5.18-1-7.8V-32.41c.51-6.69-1-13.49 1-20.11 1.88-1.57 3.09.1 4.28 1a53.55 53.55 0 0 0 24.44 10.63 32.4 32.4 0 0 0 12.14.1c12.82-1.95 23.51-7.58 31.46-18 .88-1.21 1.93-2.38 3.73-1.93ZM-114.61 74.69c-4.48-10.83-9.73-21.32-12.77-32.78a131.36 131.36 0 0 1 1.08-72.23c2.63-8.89 5.36-17.74 10.5-25.6 2.49-.73 3.75 1 5.14 2.53 12.37 12.09 35.41 10.61 46.35-3A39.15 39.15 0 0 1-60.53-61c1.16-1.06 2.44-2 3.52.17.85 9.3.49 18.6.25 27.9a12.68 12.68 0 0 0-.17 8.25c.38 3.67 1.1 7.4-1.47 10.66-1.93 1.36-3.46.11-5-.84C-69.08-18.44-75-18.32-81-16c-3.13 1.21-5.66 3.37-6.33 6.58-2.19 10.21-4.9 20.32-5.24 30.8 2.57 3.45 6.57 3.38 10.13 4.16 1.88.4 4-.1 5.6 1.36a2.42 2.42 0 0 1-1.31 2.75c-2.14.94-4.42.73-6.67.84-.63.19.15-.1-.49.09-15.87 4.68-17.19 6.44-17.19 23v15.94c0 2 .12 4-1.19 5.74-3.73 1.44-7.41 2.24-10.92-.57Z" transform="translate(159 203)"/><path class="cls-3" d="M-57.06 195.94c-1.56-3.33-.82-6.88-.68-10.3.12-3.2-1-3.81-3.95-3.78-14.77.15-29.53.08-44.3.06-7.73 0-9.11-1.34-9.09-8.85q.06-33.85.16-67.73a2.71 2.71 0 0 1 2.36-1.59c10-.4 20.06-1.22 30.05.48 1 2.27 1 2.27.53 5.06 1.38-4.26 1.38-4.26 6-4.72a66.66 66.66 0 0 1 14.86 1c4.22 1.06 8.63.57 12.86 1.59a4.07 4.07 0 0 1 2 1.82 7.37 7.37 0 0 1 .29 4.5c-1.09 6.7-.25 13.46-.52 20.18-.11 2.79.32 5.6-.46 8.34-.77 1.84-2.47 2.19-4.12 2.2-4.74 0-7.41 1.91-6.87 7-4.78 2.25-10 .23-15.76 1.57 5.7 1 10.53 1.22 15.35-.2a2.14 2.14 0 0 1 2 .79 11.45 11.45 0 0 1 1.47 3.64c.23 1.54.88 3.09-.13 4.6-3.66 2.91-8 1.31-12 1.7-2 .19-4.09-.3-6.15-.08 6.26.39 12.53.34 18.8.15 1.91.14 2.46 1.64 3.08 3.07.43 1.17.76 2.37 1.18 3.55.65 2.14 1.44 4.23 2.07 6.38a7.25 7.25 0 0 1-.16 3.92c-3.43 3.59-1.33 8.73-3.54 12.65-2.3.26-2.12-1.62-2.42-3-.37-1.58 0-3.28-.66-5.21-1.84 3.82.66 8.06-2.25 11.21Z" transform="translate(159 203)"/><path class="cls-4" d="m-47 108.84-.85-1c-4.34-2.65-9.14-1-13.73-1.46-4.69-1.43-9.5-.89-14.28-1-2 0-4 .06-6 0l-33-.15c-3.92-.89-7.86.74-11.84-.23-2.64-.64-4-1.83-4.32-4.56-.86-7-.25-13.88.07-20.81.15-3 1.87-4.8 5-5.12a45.62 45.62 0 0 1 11.38.07l10.89-.12c3.38-1.82 7-.86 10.58-1 1.5-.08 3 0 4.49 0 4.83-.14 9.65-.16 14.48 0 2.11.06 4.22 0 6.33 0 6.64-.12 13.28.32 19.9-.3 7.49.37 15 0 22.48.57 2.63.74 3.88 2.7 4.56 5.16.69 6.26.41 12.54.27 18.81-.14 6-2.45 8.18-8.56 8.54-1.32.07-2.65.09-4 .06-2.78 0-4.34 1.06-4.42 4 0 1.61.1 3.7-1.63 4.38-2 .76-3.22-1.13-4.6-2.24s-1.96-2.51-3.2-3.6Z" transform="translate(159 203)"/><path class="cls-2" d="M-2-167.95c14.84-4.22 29.9-3.86 44.95-1.83 21.1 2.85 40.21 11 57.81 22.81-2.33 2.2-5.45 2.31-8.3 2.92-16.4 3.55-26.24 14.62-33.14 28.92a40.27 40.27 0 0 0-3.47 12.42 20.47 20.47 0 0 0 .07 9.9 5.72 5.72 0 0 1-.34 3.32c-1.71 2.34-4.18 1.8-6.53 1.75a4.81 4.81 0 0 1-3.68-2.37c-1.31-3.37-.54-6.91-.77-10.36-.12-2.89.42-5.8-.44-8.65-1.79-6.35-6.38-9.18-12.57-10-2.93-.89-6-.18-8.93-.68a5 5 0 0 1-1.37-.53c-1.73-1.76-.75-4-1.18-6.08a5.22 5.22 0 0 1 .27-1.35 14.29 14.29 0 0 1 1.94-2.74 22.66 22.66 0 0 0 2.15-4c.51-1 .89-2.32 1.79-3 4.32-3.16 3.44-6.6.78-10.24a7.36 7.36 0 0 1-.29-1.47c-1-11.78-2.63-13.19-14.77-13.35-5-.06-10.48 1.36-14.14-3.81a1.49 1.49 0 0 1 .16-1.58Z" transform="translate(159 203)"/><path class="cls-5" d="M159.52 108.8c2.8.1 3.59 1.7 3.58 4.29v62.41c0 4.11-1.73 6.61-6.24 6.58q-23.44-.15-46.89-.22c-1.69-1.76-1.46-4-1.47-6.13v-59.9c0-2.66-.22-5.4 2.21-7.35 1.64-1 3.5-.91 5.32-.92h37.83c1.94.01 3.98-.16 5.66 1.24Z" transform="translate(159 203)"/><path class="cls-6" d="M-57.06 195.94c0-3.48 0-7 .13-10.44 0-1.39-.43-3.31 1.82-3.39 2.68-.1 1.91 2.09 2.11 3.6.32 2.4-.79 5 .87 7.22 2.83 1.75 6 0 8.91.81 3.11 1.4 6.19 0 9.27 0 18.84.07 37.71-1.17 56.53.65 2.56.25 4.88-.81 7.34-.93 3.75.38 7.22.26 7.94-4.61 3.3.22 1.9 5.76 6.07 5.24 2.73-.35 5.46-1.24 8.3-.65 11.57 1.31 12.14.78 12.16-11 .07-39.18-.15-78.36.1-117.53-.29-33.45 0-66.9-.12-100.34v-35.45c0-8.31-.88-9.17-9-9.48a16.84 16.84 0 0 1-5.48-.64c-2.39-1.17-2.12-3.51-2.46-5.59a2.37 2.37 0 0 1 .63-1.62 5.49 5.49 0 0 1 1.76-.22c4.72.26 9.31-1.49 14.06-.89 5.67 1.38 8.5 4.72 9.32 11.26a74.08 74.08 0 0 1 .22 10.43c-.09 4.32.41 8.65-.16 13-1.71 7.25-.39 14.6-.81 21.89V95.15a4.85 4.85 0 0 0 .5 1.83c1.21 8.25.69 16.57.42 24.83-.2 6.27 2.11 12.52.1 18.77.09 2.06-.06 4.12 0 6.18-.12 1.72 0 3.44 0 5.17v6c-.08 1.45 0 2.89 0 4.34.16 2.38.05 4.76 0 7.15-.13 4.29 1.06 8.72-1.28 12.8 0 3.15.1 6.32-.09 9.46-.36 6.09-3.58 9.45-9.7 9.78-5.12.27-10.26.07-15.4.07h-94.18c-4.4-.06-8.49-.41-9.88-5.59Z" transform="translate(159 203)"/><path class="cls-3" d="M72.15-54.74q0-6.67-.08-13.35c2.21-.28 3.26 1.45 4.5 2.7C92.49-49.26 123.72-49.3 139.41-70c9.17-12.09 11.09-25.55 5.9-39.68-8.07-22-35.23-33.55-56.58-23.87-16 7.25-23.13 20.77-24.44 37.81-.18 2.41.65 5.06-1.44 7.1-2.58-.22-5.45 1.4-7.66-1.21-.09-1-.18-2.08-.28-3.12a23.72 23.72 0 0 1 0-10c.46-9.14 4.41-16.93 9.71-24 9-12.07 21.07-18.75 36.1-20 20.28-1.11 37 6.07 48 23.2 12.43 19.34 13.32 39.69 1.38 60-.59 1-1.07 2.06-1.6 3.09-4.6 3.93-7.62 9.37-12.93 12.69-6.74 4.2-13.62 7.72-21.72 8.13a42.4 42.4 0 0 1-12.92 0c-10.48-1.34-19.77-5.16-27.12-13a4.77 4.77 0 0 1-1.66-1.88ZM72 152v-5.15c4.07-.89 8.19-.07 12.28-.32a43.63 43.63 0 0 0 4.43-.18c1.48-.25 3.12-.52 3.14-2.47s-1.67-2.27-3.13-2.38c-4-.29-7.9-.09-11.85-.11-1.63 0-3.3.4-4.87-.35V96.97a226.68 226.68 0 0 1 32.13-.06c1.57 1.82 1.26 4 1.26 6.17 0 24.21-.1 48.42 0 72.63 0 2.14.28 4.36-1.42 6.11l-31.88.33v-13.38c4.37-2.48 9.14-.78 13.69-1.32 2-.24 5.42.85 5.52-1.66.12-3.19-3.45-2.08-5.56-2.36-4.55-.58-9.33 1.17-13.69-1.37v-4.18c4.27-1 8.59-.08 12.88-.35 1.33-.09 2.67 0 4-.19s2.83-.52 2.95-2.15c.15-1.93-1.38-2.52-2.95-2.66-3.81-.35-7.63-.1-11.45-.16-1.84-.03-3.68.47-5.48-.37Z" transform="translate(159 203)"/><path class="cls-2" d="M-2-167.95v1.07a25.83 25.83 0 0 0 3.23 11.24c1.64 2.79 1.4 6 .55 9.11-.52 1.16-1.69 1.6-2.57 2.35-1.24 1.3-1.07 2.58.06 3.85 3.34 1.52 3.85 4.76 4.75 7.76 1 1.7 3 2.49 3.84 4.37a9.68 9.68 0 0 1-.41 7.2 3.79 3.79 0 0 1-2.11 1.18c-1.79.33-3.62.14-5.43.33-7.81 1.48-12.79 5.83-14.08 13.92-.69 2.19-.43 4.44-.47 6.68a32.31 32.31 0 0 0 .42 7 3.15 3.15 0 0 1-.78 2.28c-3 1.27-5.3.71-6.67-2.42 1.49-3.11-1.72-5.33-1.59-8.2.26-6.08-1.48-11.85-2.64-17.71-.88-4.42-4.61-5.83-8.1-7.38a49.13 49.13 0 0 1-18.46-13.88 9.24 9.24 0 0 1 3.58-6.93c13.07-9.59 27.19-17.07 43-21.14 1.25-.33 2.57-.46 3.88-.68Z" transform="translate(159 203)"/><path class="cls-2" d="M-85-117c3.45-3.9 6.65-8 10.82-11.22 1.56.2 2.42 1.67 3.83 2.13 2.68.93 4.07-2.86 6.76-1.85 3.31 3.28 6.81 6.42 8.08 11.18 5.35 12.8 15.64 20.35 27.9 25.41A24.08 24.08 0 0 0-14-89.88c4.75-.88 9.59-.38 14.39-.26a4.19 4.19 0 0 1 3.8 2 1.61 1.61 0 0 1-.33 1.57 4.51 4.51 0 0 1-2.36.9 168.05 168.05 0 0 1-18.91.11c-5.67-.26-10.75.36-14.54 5.08-2-.2-2-1.83-2.22-3.25-.22-1.23.17-2.7-1.44-3.31a17 17 0 0 0-5.31-.61 15.46 15.46 0 0 0-4.74.49 15.63 15.63 0 0 0-5.06 2.11 3.42 3.42 0 0 1-3.42.39 7 7 0 0 1-2-3.86A32 32 0 0 0-66.27-105a18.26 18.26 0 0 0-4.17-3.47A27.07 27.07 0 0 0-80.67-114c-1.54-.86-4.14-.22-4.33-3Z" transform="translate(159 203)"/><path d="M137.71 70.32c.46 4.56 4.84 6.16 7.07 9.38 4.64 5.49 10.41 10 14 16.36-1.76 1.64-4 1.4-6.12 1.46-13.4.37-26.83-.76-40.22.86a9.94 9.94 0 0 1-5.35-.84 3.82 3.82 0 0 1-2.27-1.66c3.72-6.08 10-9.6 14.67-14.78 3.65-4.08 7.6-7.9 11.41-11.84 3.03-4.46 4.64.14 6.81 1.06Z" transform="translate(159 203)" style="fill:#0a8f87"/><path class="cls-8" d="M107 96.18c4.41 1.93 8.77-.14 13.16-.14h38.62c1.35 3.62-.56 7.27.13 10.89-.46 2.75-2.63 1.42-4 1.43-13.13.11-26.26 0-39.39.09-1.78 0-3.67-.53-5.34.6a3 3 0 0 1-3.6 0c-1.58-4.35-2.04-8.65.42-12.87Z" transform="translate(159 203)"/><path class="cls-9" d="M-72.06-131.89c-.89-1.45-2.33-2.24-3.68-3.19-5.17-3.65-5.73-9-1.5-13.59a43.37 43.37 0 0 1 3.24-3.17c4.75-4.21 8-4.13 12.51.3 1.54 1.51 3 3.09 4.53 4.64.64 1.33-.23 2.26-1 3.07q-5.28 5.66-10.93 10.94c-.89.78-1.84 1.56-3.17 1Z" transform="translate(159 203)"/><path d="M-122.59-65c-2.68-2-2.55-5.19-3.31-8-1.23-2.89.32-5.46 1.15-8q4.05-12.42 7.59-25c2.77-2.73 5.47-5.55 9.28-6.86 2.81.63 1.67 2.66 1.3 4.17a55.42 55.42 0 0 0-1.67 7.21c-.77 2.48-2.93 4-4.28 6-3.52 5.37-4.41 11.33-4.07 17.59a25.77 25.77 0 0 1-2.4 9.42c-.64 1.63-1.28 3.47-3.59 3.47Z" transform="translate(159 203)" style="fill:#0ebee2"/><path d="M107 96.18v12.9c1.51 1.77 1.2 3.81.9 5.85a25.92 25.92 0 0 0 .14 12.65 125 125 0 0 1 0 20.11A79.18 79.18 0 0 0 108 171c.22 3.65 1.38 7.4-1.08 10.78l-2.95.09-.05-84.87q-.51-.34-.3-.63a.53.53 0 0 1 .39-.26 5.87 5.87 0 0 1 .83-.19Z" transform="translate(159 203)" style="fill:#044fb2"/><path d="M106.78 115c.09-2 .19-3.94.28-5.91l2.86-.27c.46-.32.78-.21 1 .32-1.25 2-.88 4.19-.88 6.33q-.06 33.2-.06 66.4l-3-.13-.18-10.83a165.4 165.4 0 0 1 0-22.92v-21.07a45.81 45.81 0 0 1-.02-11.92Z" transform="translate(159 203)" style="fill:#cf121e"/><path d="M-117.16-106c1.82 2.42 0 4.61-.6 6.77-2.61 8.78-5.41 17.5-8.14 26.24-3.51-12.75-.16-23.64 8.74-33.01Z" transform="translate(159 203)" style="fill:#0ec2e5"/><path d="M-72.06-131.89c5.81-4.21 10-10.05 15.05-15a4.78 4.78 0 0 0 1-.1c3.1.7 2.27 3.07 1.3 4.46C-59.3-136-63.76-129.2-71-125c-1.71-.43-2.28-2-3.2-3.21Z" transform="translate(159 203)" style="fill:#064faf"/><path d="M-71-125c4.17-4.66 8.55-9.15 12.4-14.06 1.67-2.11 5.4-4.12 2.55-7.91 2.88-3.84 5-1.43 7.13.87-.1 2.57-1.85 4.23-3.31 6.06-1.49 4.26-5.36 6.46-8.23 9.51a20.63 20.63 0 0 0-2.91 2.45 1.15 1.15 0 0 1-1.16.12c-1.7 1.88-3.31 4.06-6.47 2.96Z" transform="translate(159 203)" style="fill:#284678"/><path d="M-85-117c1.27 1.69 3.63.78 5 2.12 1.65 4.23.18 7.16-3.77 9.07-4.3.07-8.63.45-12.88-.62 1.31-3.79 3.89-6.89 5.65-10.44Z" transform="translate(159 203)" style="fill:#0db0d5"/><path d="M-111.94-53c-.7-1.74-2.47-2.08-3.86-2.93l-2.1-3.1c-.06-3.6 1.72-6.42 3.83-9.1 4.1 1.61 6.36 5.15 8.83 8.47a9.66 9.66 0 0 1-2.46 7.93c-1.82.96-2.91-.54-4.24-1.27Z" transform="translate(159 203)" style="fill:#0eb5da"/><path d="M-90.94-116.89c-.94 3.9-.65 8.55-6 9.72-1.75 1.9-3.68 3.2-6.4 2-1.34-4-1.18-7.63 2.37-10.52 3.21-1.44 6.6-1.47 10.03-1.2Z" transform="translate(159 203)" style="fill:#0fb7db"/><path class="cls-19" d="M-114-67.8a29.27 29.27 0 0 1-3.9 8.8c-2-1.64-3.91-3.4-4.69-6 3.29-3.7 4.19-8.26 4.68-13 3.39 2.59 3.64 6.4 3.91 10.2ZM-101-115.68a23.2 23.2 0 0 0-2 10.39c-1.25 2.34-3.36 3.32-5.85 3.71-1.17-2.15.18-4 .56-6 .32-1.72 2.4-3.43.36-5.32 2.02-1.77 4.51-2.21 6.93-2.78Z" transform="translate(159 203)"/><path d="m110.87 109.13-1-.32c1.57-1.39 3.47-.81 5.23-.82 12.88 0 25.77 0 38.65-.06 1.74 0 3.68.66 5.13-1 .72.45.66 1.15.59 1.85Z" transform="translate(159 203)" style="fill:#327190"/><path class="cls-6" d="M89.05 10c-.33-3.46-.82-6.92-1-10.38-.49-14.12 15-24.32 28-18.59C124.6-15.2 127.86-8.19 128.79.39c.24 2.14.15 4.32.21 6.48a2.91 2.91 0 0 1-3.08 1.52c-1.49-.54-2.87-1.46-4.64-.91-3.51 1.1-6.69-.14-9.8-1.65-4.76-2.38-9.07-5.32-12.26-9.7-1.53-2.09-2.53-1.38-3.44.64a29.93 29.93 0 0 0-2.94 12.38c0 1.31.29 2.65-.62 3.8-2.56.65-2.22-1.81-3.17-2.95Z" transform="translate(159 203)"/><path class="cls-5" d="M137.71 70.32c-1.22.88-2 .23-2.74-.75-1.23-1.74-2.61-1.41-4.05-.31v-.34c-2.85-4-.84-8.28-.58-12.43.15-1.87.9-3.65 1-5.55a27.71 27.71 0 0 1-.74 3.8c-1.44 4.66.15 10.1-3.6 14.17h-16.11c-1.67-2-1.32-4.35-1.4-6.65.08-2.74.36-5.5-.5-8.18-.15-3.41-1.66-6.71-.87-10.19 1.91-2.5 3.31-.21 4.34.79 2.5 2.44 3.75 1.39 5.3-1 2.21-3.47 3.47-7.62 7-10.12 2.94-.36 5.29.48 6.65 3.3 8.76 6 10 14.63 8.14 24.22-.55 3.07-1.21 6.15-1.84 9.24ZM103 68.92H87.89c-3.63-3.72-2.26-8.74-3.38-13.11a11.82 11.82 0 0 0-1-3.18c-.27-.61-.57.08-.47.14 1.2.82 1.17 2.23 1.44 3.5.22 4.23 1.83 8.42.52 12.73-8.51.69-8.83.09-10.14-7.87C72.67 48.05 77.9 39.07 89.15 33a1.15 1.15 0 0 1 1.28.1c2.16 2.95 3.74 6.26 5.66 9.36 1.3 2.1 2.48 4 5.46 2.38 1.59-.87 2.89-.27 3.47 1.57.64 7.59.98 15.22-2.02 22.51Z" transform="translate(159 203)"/><path d="m131.46 36.83-6.72-2.9c-3.19-.23-5.64-2.27-8.46-3.43-5.23-4.91-5.33-7.71-.94-13.38 2.91-3.78 6-7.21 10.63-8.89l3-1.36c4.05 2.92 9.29 4.68 10.07 10.73a14.45 14.45 0 0 1-3.32 11.53 24.38 24.38 0 0 0-4.26 7.7Z" transform="translate(159 203)" style="fill:#061255"/><path d="M89.59 33.24a1.88 1.88 0 0 0-.44-.24c-6-5.55-6.79-9.72-3.12-16.73 1.07-2 2-4.17 3-6.25 2.19-.29 1.56 2.07 2.64 2.83 3.09 3.38 5.41 7.41 9 10.41 1 3.31-.56 5.61-3.08 7.49-2.59 1.25-4.9 3.09-8 2.49Z" transform="translate(159 203)" style="fill:#071456"/><path class="cls-23" d="M72.05 95.89 72.11-33c.3-.42.57-.43.82 0Q73 31.47 73 95.89c-.31.48-.63.46-.95 0Z" transform="translate(159 203)"/><path d="M137.1-16a34.82 34.82 0 0 0-3.82-4.52c-2.27-1.94-1.84-3.2.17-5.1 5.6-5.3 6.17-5.34 11.11.92.51.65 1 1.32 1.51 2-2.07 5.28-4.88 7.35-8.97 6.7Z" transform="translate(159 203)" style="fill:#f8fcfd"/><path d="M103 68.92c.07-8.09 1.82-16.12.8-24.24.35-1.91 1.16-3.23 3.44-2.65a3.12 3.12 0 0 1 .65 1.62 186.12 186.12 0 0 1 .59 18.74c0 2.29.19 4.65-1.47 6.58Z" transform="translate(159 203)" style="fill:#cf1420"/><path d="m107 69-.06-26.92c1.17-.65 2.08-.73 2.11 1l1 10.95c1 2.6-.36 5.44.83 8v6.89A5.21 5.21 0 0 1 107 69Z" transform="translate(159 203)" style="fill:#a3040d"/><path d="M137.1-16c4.82.21 6-4.39 9-6.72 4.08 5 4.13 5-2 10-4.33 3.44-4.87-1.74-7-3.28Z" transform="translate(159 203)" style="fill:#0858b7"/><path d="M155.57 3.61a6.55 6.55 0 0 0-4.33 3.87c.08-2.57-6.77-3.49-1.37-7.14 1.54-1.04 1.4-1.24 5.7 3.27Z" transform="translate(159 203)" style="fill:#e1b93b"/><path d="M131 55v13.9h-4l3-14.9c.88-.23 1.35 0 1 1Z" transform="translate(159 203)" style="fill:#d01420"/><path d="m84.94 55 2.94 13.9A3.33 3.33 0 0 1 85 69c-1.55-4.58-.82-9.33-1.07-14a.67.67 0 0 1 1.01 0Z" transform="translate(159 203)" style="fill:#d11622"/><path d="M72.05 95.89a3.86 3.86 0 0 0 1 0l31 .18-.09.89H72c.05-.35.05-.71.05-1.07Z" transform="translate(159 203)" style="fill:#147ace"/><path d="M86-21.91c-1.69-.69-2.07-2.87-4.16-3 2.35-3.41 4.59-4.62 7.25-1 .18 2.26-1.99 2.72-3.09 4Z" transform="translate(159 203)" style="fill:#e9b935"/><path d="M72.93-33h-.82v-21.74a2.43 2.43 0 0 1 1.72 1.82c-2.01 6.57-.27 13.32-.9 19.92Z" transform="translate(159 203)" style="fill:#2ac7f6"/><path d="M101-39.9h12.92a19.29 19.29 0 0 1-12.92 0Z" transform="translate(159 203)" style="fill:#2fbcef"/><path d="m86-21.91 3.09-4c1.67 3.4-1.45 3.14-3.09 4Z" transform="translate(159 203)" style="fill:#489bac"/><path class="cls-3" d="m-73.87 74.72-15-.06c-3.89-3.12-1.08-7.77-2.45-11.49.54 4 .69 7.93-1.69 11.49a48.64 48.64 0 0 1-10.72-.09c0-10.14-.18-20.28-.13-30.42 0-6.4 4.24-9.84 9.51-12.1a89.56 89.56 0 0 1 9.47-2.94c2.35 3.64.9 7.7 1.27 11.56.17 1.79-.14 3.6 0 5.45-.27.54 1 .27.34.2-2-.2 4.77-6.52 8.51-7.88a3.52 3.52 0 0 1 2.65 2.14c1.19 8.56.78 17.13.28 25.71-1.24 2.71.05 5.97-2.04 8.43Z" transform="translate(159 203)"/><path d="M-58.66-13.82A40.79 40.79 0 0 0-58.1-25a14.93 14.93 0 0 1 0-6.94l.1-29.94c-2.75-4.09-.81-8.64-1.3-13 .3-1.58.44-3.28 2.6-3.47 2.57 1.2 2.11 3.55 2 5.64-.64 11.61.35 23.19.54 34.78.12 7.31.08 14.62.16 21.92.18 15.83.24 31.67.58 47.5.29-4.58-.58-9.12-.48-13.69.59-27.26-.73-54.51-.5-81.77.12-3.07-.12-6.14.17-9.19.16-1.56-.34-3.84 2.48-3.78 2 2.64 1.39 5.75 1.4 8.68q.06 59.46 0 118.92c0 4.91.36 9.63 2.67 14-.67 3.48-3 2.17-4.9 1.56s-2.79-2.19-3.82-3.69a9.55 9.55 0 0 1-1-2.43 19 19 0 0 1-.93-6.85v-19.3c-.08-1.92-.49-3.8-.73-5.7a10.81 10.81 0 0 1 .23-3.16 11.66 11.66 0 0 0 0-7.43 17.88 17.88 0 0 1-.43-3.18c0-2.49-.1-5 0-7.47a63.49 63.49 0 0 0 .8-17.78 5.2 5.2 0 0 1-.2-3.05Z" transform="translate(159 203)" style="fill:#1d58a5"/><path class="cls-6" d="m-58.66-13.82.74 1.91a16.51 16.51 0 0 1 .1 7.78c-1.88 1-2.6-.9-3.73-1.62-4.38-2.76-7.4-2.62-11.2.85A39.2 39.2 0 0 0-78.19.88a6.05 6.05 0 0 1-2.42 2.39c-6.51 2.82-6.5 2.84-2.81 8.61C-85.61 16.64-88.66 20.5-94 22c-.45-8.19 2.85-15.81 3.59-23.82.06-.66.31-1.3.41-1.95 2.13-14.13 16-20 27.8-11.72 1.1.74 2.08 1.7 3.54 1.67Z" transform="translate(159 203)"/><path class="cls-3" d="M-58-74.95v13.07c-4.6 4.64-8 10.25-14.06 13.7C-84.54-41-103.52-43-111.94-53l4 1.08c3.25-.49 6 1.62 9.14 1.71a15.38 15.38 0 0 1 2.15.4 16.38 16.38 0 0 0 8.54 0c3.24-.76 6.53-1.33 9.56-2.78a27.56 27.56 0 0 0 9.09-6.14c3.82-3.41 6-7.92 8.27-12.36.75-1.46.66-3.81 3.19-3.86Z" transform="translate(159 203)"/><path d="M-94 22a64.7 64.7 0 0 0 10.22-10c1.71-2.6 3.39-1.53 4.4.39 1.38 2.53 3.26 4.81 4.38 7.55a7.73 7.73 0 0 1 .09 3.14c-.41 1.53-.64 3.16-2.27 4-5.91-.77-12.33.27-16.82-5.08Z" transform="translate(159 203)" style="fill:#254577"/><path d="M-74.75 38.88-84.88 48V29.11l6.64.07c1.51 3.1 3.34 6.1 3.49 9.7Z" transform="translate(159 203)" style="fill:#0450b2"/><path d="M-110.91 1.87c-.71-.69-1.45-1.35-2.11-2.09-3.94-4.38-2.9-9 2.43-11.4 1.28-.59 1.87.07 2.5.78 1.73 2 4.14 3.34 5.12 6-1.37 4.78-4.03 7.03-7.94 6.71Z" transform="translate(159 203)" style="fill:#f5fafc"/><path d="M-74.75 38.88c-1.49-3.12-3.55-6-3.49-9.7l1-2.1 1.32-4.22c2.73-.31 4.66.69 5.57 3.38.39 4.52 1.68 9.06-.16 13.57a1.85 1.85 0 0 1-2.23.47Z" transform="translate(159 203)" style="fill:#f1be84"/><path d="M-110.91 1.87c3.61-1.11 5.24-4.57 7.91-6.75 1.67 1 4.32 2.58 3.5 4.08a15.55 15.55 0 0 1-6.5 6.39c-2.25 1.1-3.63-1.9-4.91-3.72Z" transform="translate(159 203)" style="fill:#0454b4"/><path d="M-118 27c-2.81-2.34-6.05-4.64-.12-7.55l3.83 4.26c-.78 1.62-1.3 3.53-3.71 3.29Z" transform="translate(159 203)" style="fill:#e0b93c"/><path d="M-87.49-19c-.65-2.82-5.87-3.12-1.88-6.55.67-.57.71-2.66 3-.77 4.17 3.32.3 4.38-1.12 7.32Z" transform="translate(159 203)" style="fill:#e5f8fd"/><path d="M-118 27c1.14-1.2 1.82-2.93 3.71-3.29 1 1.13 2.52 2 .45 3.73-1.76 1.56-2.97 1.75-4.16-.44Z" transform="translate(159 203)" style="fill:#1185d0"/><path d="M-58.09-31.95V-25a6.53 6.53 0 0 1 0-6.95Z" transform="translate(159 203)" style="fill:#5cbce6"/><path class="cls-46" d="M-47 108.84c3.27.91 4.42 4.57 7.38 5.89.26-.36.58-.59.59-.83.27-8.31.27-8.31 8.71-8.53 7.21-.19 8.3-1.3 8.36-8.5q.07-9 .16-17.91c5.52 1.42 8.39 6.19 11.87 10 1.79 1.92 2.89 4.77 4.49 7.09s2.11 4.59 1.09 7.08c-1.72 4.21-2.19 8.65-2.84 13.08-1.11 2.28-3.41 3-5.43 4-8 4.06-13.86 9.48-13.13 19.44a4.88 4.88 0 0 1-1.14 3.69 4.44 4.44 0 0 1-1.61.77 121.13 121.13 0 0 1-14.88.18c-2.35 0-4.17-.72-4.08-3.73.29-9.24-.41-18.5.37-27.74Z" transform="translate(159 203)"/><path d="M-49 176a11 11 0 0 1-2-6c1-1.47 2.74-1.8 4.29-2.32 16.07-5.35 32.13-10.71 48.08-16.37 2.16-.77 4.34-1.77 6.77-1.09 2.34 1.24 2.47 3.36 2.26 5.63-1.4 2.08-3.86 2.38-5.98 3.15-7.57 2.74-15.42 4.67-22.75 8.07-3.13.38-6.82-1.06-8.92 2.74-5.92 2.89-12.33 4.4-18.51 6.53A3.2 3.2 0 0 1-49 176Z" transform="translate(159 203)" style="fill:#20aef6"/><path d="m-52 167-1.83-3.1a1.07 1.07 0 0 1 0-1.32c4.31-2.58 9.22-3.57 13.9-5.13 9.09-3.05 18.13-6.24 27.18-9.41 4-1.42 4.07-1.36 4.48-4.83 3.89-1.28 7.86-.58 11.81-.55a5 5 0 0 1 3.76 2 2.68 2.68 0 0 1 0 2.45c-2.45 2.44-5.77 3.19-8.86 4.25-15 5.17-30.15 10.07-45.23 15.11-1.67.53-3.38 1.39-5.21.53Z" transform="translate(159 203)" style="fill:#24b5f8"/><path d="m-9 144.15 5.8 1.8c-6.4 2.29-11.68 4.26-17 6.07-11.22 3.82-22.29 8.12-33.8 10.98-1.53 0-1.56-.83-1-1.94l-.81-4.06a276.08 276.08 0 0 0 40.51-14c2.21-.4 4.49-.93 6.3 1.15Z" transform="translate(159 203)" style="fill:#27b9f9"/><path d="m-52 167 59-20.06c1.87.92 2.24 2.25 1.07 4-12 2.66-23.15 8.06-34.93 11.48C-35 164.75-42.72 168.25-51 170c-1.14-.77-.92-1.95-1-3Z" transform="translate(159 203)" style="fill:#22b2f7"/><path d="M-16 144c-.75 1.7-2.37 2.27-3.9 2.8-10.11 3.49-20.25 6.86-30.34 10.41-2 .71-3.8.92-5.64-.23a4 4 0 0 1-.88-3.09c.8-2.26 3-2.47 4.79-3.1 6.9-2.38 13.87-4.54 20.72-7.05 1.32-.67 3 .33 4.19-.81l.13.07c3.93-2.37 7.47-1.21 10.93 1Z" transform="translate(159 203)" style="fill:#29bdfa"/><path d="M-97.24 171c-1.66 0-3.33.1-5 0s-4.32.9-4.82-1.28-.5-4.72 1.46-6.47 2.88-3.55 1.88-6.48.14-5.74 3.09-7.66c2.71-1.77 5.14-1.2 7.38.43a7.3 7.3 0 0 1 2.9 7.88c-.39 1.74-1.53 3 .66 4.6a6.4 6.4 0 0 1 2.48 7.55c-1.2 3.15-4.26 1.36-6.56 1.45-1.14-.02-2.31-.08-3.47-.02Z" transform="translate(159 203)" style="fill:#0651b1"/><path d="M-31 144c-1.45 2.52-4.23 2.38-6.49 3.19-6.41 2.3-12.86 4.46-19.3 6.68-.34-.36-.68-.71-1-1.06a1.21 1.21 0 0 1-.35-1.8c-2.54-6-2.16-6.81 4.26-7.82a40.84 40.84 0 0 1 5.86-.11c5.64 1.17 11.43-.52 17.02.92Z" transform="translate(159 203)" style="fill:#2dc2fb"/><path d="m-49 176 21.93-7a6.48 6.48 0 0 1 2.3 6.18C-31.61 179-39 181.2-46.5 183.36c-1.93-.36-2-2.06-2.45-3.45Z" transform="translate(159 203)" style="fill:#1ca7f4"/><path d="M-81.92 135c7.78 0 15.57-.11 23.35-.09 1.35 0 3.33-.62 3.55 1.6.25 2.58-1.87 2.34-3.45 2.29-11.2-.33-22.43.87-33.61-.59 1.35-1.89 3.44-1.47 5.31-1.63s3.6.05 4.85-1.58Z" transform="translate(159 203)" style="fill:#69def6"/><path d="M-82 125.16c8.09-.07 16.18-.17 24.28-.19 1.54 0 3.67-.48 3.54 2.15-.11 2.23-2 1.78-3.41 1.78-8.09 0-16.18-.07-24.28-.11a2.48 2.48 0 0 1-.13-3.63Z" transform="translate(159 203)" style="fill:#01bff7"/><path d="M-82 115.15c7.78-.06 15.55-.14 23.33-.14 1.52 0 3.7-.53 3.56 2.12-.11 2.23-2 1.77-3.42 1.78h-23.33c-1.24-1.24-.73-2.5-.14-3.76Z" transform="translate(159 203)" style="fill:#02bdf5"/><path class="cls-58" d="M-82 115.15c.83 1.21.24 2.48.14 3.72-7.13 0-14.25.09-21.37.09-1.39 0-3.2.49-3.28-1.88s1.74-2 3.14-2c7.11 0 14.23.05 21.37.07Z" transform="translate(159 203)"/><path d="M-82 125.16c0 1.21.09 2.42.13 3.63h-21c-1.64 0-3.66.28-3.58-2.23s2.17-1.56 3.45-1.56c7 0 14 .09 21 .16Z" transform="translate(159 203)" style="fill:#c0f8f2"/><path d="m-48.95 179.91 2.1 3c1.67.74 2 2.44 2.66 3.86a9.76 9.76 0 0 1 1.19 4.66 4.7 4.7 0 0 1-.36 1.37A2.33 2.33 0 0 1-45 194c-2.61 1.28-5.24 2.64-7.1-1.08a53.2 53.2 0 0 0 0-6.44 6.21 6.21 0 0 1 3.15-6.57Z" transform="translate(159 203)" style="fill:#6de2f7"/><path class="cls-58" d="M-81.92 135c.13 2-.55 3.08-2.78 3-2.46-.07-4.92.12-7.38.2-3.64.15-7.28.34-10.92.42-1.42 0-3.27.37-3.45-1.81-.21-2.42 1.72-2 3.12-2 7.13.01 14.27.09 21.41.19Z" transform="translate(159 203)"/><path d="M-55.06 161c.14.75.17 1.57 1 1.94.06.3.12.62.16.93-7.08 2.26-14.33.65-21.5.85-1.19 0-1.61-1.11-1.41-2.17.36-1.85 1.83-1.71 3.12-1.34 4.89 1.4 9.86.43 14.79.63a15 15 0 0 0 3.84-.84Z" transform="translate(159 203)" style="fill:#0451b3"/><path d="M-58.14 151c.12.6.23 1.2.35 1.8-2.75 2.37-15.72 2.95-18.28.81a1.32 1.32 0 0 1-.5-1.71c.57-1.1 1.63-.9 2.57-.9h15.86Z" transform="translate(159 203)" style="fill:#0557b7"/><path d="M-31 144c-5.67-.6-11.45 1-17.05-.93 0-8.37 0-16.74.06-25.11 0-1.74-.59-3.64.85-5.17 0 8.43.34 16.88.06 25.3-.13 4.1 1.33 5.14 5.12 4.92 5-.28 9.92-.09 14.88-.1-.92 1.61-2.56.81-3.92 1.09Z" transform="translate(159 203)" style="fill:#5dbbd5"/><path d="M-60.91 105.87a38.84 38.84 0 0 1 9.13-.79 3.77 3.77 0 0 1 3.91 2.81 43.1 43.1 0 0 1-13.06-1c-.55-.32-.54-.68.02-1.02Z" transform="translate(159 203)" style="fill:#1258ae"/><path d="M-60.91 105.87v1.07l-15-1.15v-.38c4.99-.28 10.02-.74 15 .46Z" transform="translate(159 203)" style="fill:#0667c3"/><path d="M-75.94 105.41v.38c-2.78.1-5.87-.19-4.89 4.87-1.65-2.06-.89-3.68-1.07-5.17a14.64 14.64 0 0 1 5.96-.08Z" transform="translate(159 203)" style="fill:#076bc6"/><path d="M-7.64 116c-1-4.26.21-8.22 1.78-12.07a7.56 7.56 0 0 0-.63-7.44A63.38 63.38 0 0 0-21.82 79c-.8-1.63-1.16-3.61-3.32-4.16-1.75-.68-3.57-.27-5.36-.32-4-.12-8.66-4.08-9.81-8.39 4.12-2.68 8.72-.87 13.07-1.42 5.26-.66 7.65 3 10.19 6.57 1.52 2.17 3.25 4.21 5 6.24C-11 78.74-10 80.24-8 79c3.67-1.48 4 1 4.28 3.57-.64 7.61 1.2 14.32 7.06 19.61a5.92 5.92 0 0 1 1.5 2.52 8.22 8.22 0 0 1 .29 3.12 4.67 4.67 0 0 1-.69 2.18c-1.25 1.28-3.09 1.09-4.55 1.84-2.26 1-3.15 3.79-5.62 4.6a2 2 0 0 1-1.91-.44Z" transform="translate(159 203)" style="fill:#01c3f9"/><path d="M-110.55 81.8a8.23 8.23 0 0 1 8.61 8.31A8.49 8.49 0 0 1-110 99c-5.41.13-9-3.14-9-8.28-.16-5.34 3.24-8.87 8.45-8.92Z" transform="translate(159 203)" style="fill:#0b7bd0"/><path d="M-42.84 81.24c7.81-.28 11 4 8.64 11.44-.78 2.45-2.69 2.12-4.44 2.18-2.12.06-4.34.42-6.27-1-.97-4.44-1.32-8.86 2.07-12.62Z" transform="translate(159 203)" style="fill:#e74548"/><path d="M-39.91 66a17.88 17.88 0 0 0 14.77 8.8c-7.49-.66-15.07.73-22.52-.93l-.68-.49c-.77-3.28-.15-6.1 2.74-8.16 2.02-.62 4-.89 5.69.78Z" transform="translate(159 203)" style="fill:#73e1ee"/><path d="m-56 60 .07 2a4.67 4.67 0 0 1 1 2.74c-.35 5.09 1.81 8.2 6.9 9.15h.39c-6.71 1.42-13.49 1.16-20.27.93a4.49 4.49 0 0 1-.92-1.39c-.39-1.67-.42-3.28.95-4.6 2.51 1.09 3.8 5.16 7.43 3.43s1.5-5.32 2.17-8c.38-1.65-.37-3.89 2.28-4.26Z" transform="translate(159 203)" style="fill:#2280bf"/><path d="m-93 74.66 1.29-12.59c2.55 3.84 1.19 8.56 2.85 12.59Z" transform="translate(159 203)" style="fill:#00bff7"/><path d="M-42.84 81.24c-1.36 4.11-2.66 8.24-2.07 12.67-2.31-5.7-1.49-10.75 2.07-12.67Z" transform="translate(159 203)" style="fill:#f6bd79"/><path d="M-68 74v.84l-5.95-.08c.2-2.61-.84-5.34.76-7.82 2.02 2.14 1.71 5.97 5.19 7.06Z" transform="translate(159 203)" style="fill:#276da6"/><path class="cls-3" d="M3.9-87a6.42 6.42 0 0 1 .1-.91C2.93-90 .93-89.35-.79-89.46c-4.72-.31-9.47.59-14.17-.49l-.1-2.08c-.85-2.27-.21-4.64-.41-7 .21-2.32-.46-4.69.43-7 .44-9 6.6-12.58 14.08-14.93 2 1.06 4.19-.11 6.16.81a3.8 3.8 0 0 1 .86 1.43C7-109.78 7.51-100.9 7.87-92c.79 2.15 2.67 1.63 4.24 1.66 4.64.08 9.28 0 13.93 0 6.39.16 12.79-.23 19.18.21l.86.16L49-88.9c.31.2.41.4.31.6s-.21.3-.31.3l-1.1.08a5.71 5.71 0 0 1-1.41.92c-2 .43-3.94.78-5.89 1.31-10.72.69-21.45.26-32.18.25-1.65-.01-3.33-.18-4.52-1.56Z" transform="translate(159 203)"/><path class="cls-6" d="M32-120.08c6.64.47 11.35 3.43 13.1 10.19.86 3 .2 6 .41 9.07-.23 3.67.49 7.38-.44 11-6.2.75-12.41.13-18.61.33-1.86-.56-4.31 1.34-5.66-1.35 1.9-3 1.77-6.3 1.75-9.62v-14.44c0-1.84 0-3.68 1.3-5.19a19.71 19.71 0 0 1 8.15.01Z" transform="translate(159 203)"/><path d="M.75-146c.24-4.39.6-8.66-2.45-12.58a7.26 7.26 0 0 1-.29-8.3c2.38 2.42 5.34 3.16 8.63 3.09s6.31 0 9.47 0c8.17.1 11.8 3.74 11.89 11.89 0 1.65.11 3.31.17 5a4.86 4.86 0 0 1 .59 2.82c-.27 1.22-1 2.23-2.25 2.15-1.12-.07-1.37-1.24-1.6-2.18-.69-2.9.16-6.33-2.91-8.4-5-1.84-10.1-1.11-15.17-.46-2 .75-2.37 2.57-2.86 4.35s-.49 3.66-2.08 4.93C.48-144 .33-144.85.75-146Z" transform="translate(159 203)" style="fill:#254578"/><path d="M6-154a44.9 44.9 0 0 1 17 .22c1.55 6.6 3.27 13.18 2.07 20.07a5.42 5.42 0 0 1-2.2 3.75c-3.35 0-3.27-2.82-3.66-4.95-.32-1.77.06-3.63-.08-5.45a5.19 5.19 0 0 0-.08-3.74 22 22 0 0 1-.75-5.75c.15-1.91-.77-2.67-2.52-2.73h-5.66a9.52 9.52 0 0 1-2.95-.41A2.33 2.33 0 0 1 6-154Z" transform="translate(159 203)" style="fill:#efae66"/><path d="m7.15-121.21.3-7.46a2.42 2.42 0 0 1 1.92.08c.83.32 1.64.68 2.45 1.07 2.94 2.57 6.19-.19 9.24.55a6.14 6.14 0 0 1-.35 6c-1.06 1.22-2.61 1.37-4 1.83a8.33 8.33 0 0 1-3.07.13c-2.18-.67-4.83.01-6.49-2.2Z" transform="translate(159 203)" style="fill:#b87e61"/><path d="M25.07-133.74c-.49-6.71-2.81-13.24-2.07-20.07 3.93 2.92 1.93 7.54 3.31 11.27 2.43-.65 1.08-3 1.86-4.4 4.25 3.86 4.32 5.41-.2 8.95-1.52 1.2-1.34 3.26-2.9 4.25Z" transform="translate(159 203)" style="fill:#ecab63"/><path d="M16.62-119.86c1.16-1.16 2.72-.74 4.09-1.06l1.1.11c.63.45 1.62.13 2.08 1l-.09 4.72c-.68 2.22-2.07 3.35-4.48 2.94a9.71 9.71 0 0 1-2.78-1.07A3.25 3.25 0 0 1 15.2-115a5.13 5.13 0 0 1 1.42-4.86Z" transform="translate(159 203)" style="fill:#f2f8f8"/><path d="M67.14-136.64c-3.12 1.08-5.39 2.47-6.57 5.63-.27-3.16-2.8-3.87-5.23-5.39 2.79-1 5-2.26 4.85-6.1 2.27 2.78 2.86 6.43 6.95 5.86Z" transform="translate(159 203)" style="fill:#e6f8fd"/><path d="M21.06-127c-3.35 1.78-6.7 3.76-10 0-1.64-2.8-.07-4.06 2.36-4.9a8 8 0 0 1 4.61 1c1.32.75 2.75 1.4 3.17 3.09a1.69 1.69 0 0 1-.14.81Z" transform="translate(159 203)" style="fill:#0d52af"/><path d="m21.15-127.74-3.28-2.12c.11-3.93-1.8-7.8-.34-11.77 1.27-1.11 1.89-.2 2.49.8 1.37 3.5-1.36 8.08 2.85 10.84Z" transform="translate(159 203)" style="fill:#eeb26c"/><path d="M49-88a8.77 8.77 0 0 1 0-.89c2.05-.38 4.32.66 6.18-.94 2.51 1.45 5.24.74 7.88.84.79-.17 1.09.19 1.06.93Z" transform="translate(159 203)" style="fill:#3477c4"/><path d="m45-90 .24-11c.25-.43.49-.45.72 0 .06 3.65.11 7.31.17 11h-.14a.58.58 0 0 1-.99 0Z" transform="translate(159 203)" style="fill:#4194d4"/><path d="M54.94-102.92v10a11.69 11.69 0 0 1 0-10Z" transform="translate(159 203)" style="fill:#3bade5"/><path class="cls-23" d="m23.89-119.85-2.08-1c3.39.17 6.87-1 10.15.74Z" transform="translate(159 203)"/><path d="M45.91-100.95h-.72c0-3-.08-6-.13-8.93 1.83 2.88.6 5.95.85 8.93Z" transform="translate(159 203)" style="fill:#3f9ad8"/><path d="M136.44 132.1h16.46c1.63 0 3 .22 3 2.34s-1.18 2.46-2.89 2.46H119.1c-1.81 0-3.35-.22-3.23-2.65s2-2.24 3.59-2.25h17Z" transform="translate(159 203)" style="fill:#fab228"/><path class="cls-88" d="M135.93 155.94H119c-1.66 0-3-.35-3-2.39s1.22-2.48 2.9-2.44c11.78.21 23.57.46 35.36.59 1.47 0 1.61.66 1.66 1.76.08 2.09-1.26 2.45-2.92 2.44h-17ZM135.85 141.94h16.43c1.38 0 3.27-.51 3.44 1.77.19 2.63-1.85 2.24-3.45 2.29q-14.91.4-29.81.76h-3c-1.78 0-3.41-.36-3.51-2.59-.12-2.59 1.82-2.3 3.45-2.31h16.44Z" transform="translate(159 203)"/><path d="M136.26 160.93h16.41c1.26 0 2.87-.32 3.05 1.64.19 2.12-1.31 2.38-2.92 2.41l-33.57.77c-1.77 0-3.37-.09-3.34-2.53s1.79-2.32 3.46-2.31Z" transform="translate(159 203)" style="fill:#fbb627"/><path class="cls-4" d="M135.46 127H119c-1.55 0-3.14 0-3-2.25.11-1.93 1.56-1.88 2.9-1.88q17 0 33.92.07c1.51 0 3.19-.1 3 2.2s-2 1.83-3.39 1.85c-5.66.06-11.31.01-16.97.01Z" transform="translate(159 203)"/><path d="M130.41 175h-11c-1.68 0-3.55.07-3.47-2.41.06-1.94 1.51-2.47 3.11-2.48h23.46c1.66 0 2.42.69 2.32 2.4s-.84 2.44-2.47 2.44h-12Z" transform="translate(159 203)" style="fill:#fab427"/><path d="M137.52 115c1.19.05 2.67.11 2.69 1.55s-1.45 1.56-2.65 1.52-2.52-.12-2.36-1.77c.13-1.3 1.32-1.3 2.32-1.3Z" transform="translate(159 203)" style="fill:#f9ac29"/><path class="cls-1" d="m-39.91 66-6.24.12c-.58.32-1.11.43-1.37-.39-3.78-2.36-4.68-5.84-4.67-10.15.12-39.87.08-79.74.08-119.61 0-4.31 0-8.61-.07-12.92-1.09-2.81 1.29-3.61 2.83-4.92a8.79 8.79 0 0 1 3.74-1.35c2.14-.23 4.28-.06 6.42-.14a10.92 10.92 0 0 1 4.8.75 1.88 1.88 0 0 1 .89 1.31 13.65 13.65 0 0 1 .74 2.35 11.07 11.07 0 0 1 .12 1.63c.31 3.15-.83 6.49 1.31 9.39 1.71 2.36 4.26 2.37 6.75 2.37q32.11.09 64.21 0c2.68 0 5.4 0 6.9-2.91 1.53-2.37.91-5 1.07-7.59.13-2-.38-4.27 1.39-5.94h9.47c6.18.2 7.47 1.55 7.47 7.82V36.53c0 9.47-.12 18.94-.18 28.41-3.93 2.91-8.52 2.36-13 2.43a44.23 44.23 0 0 1-13.25-1.66c-1.32-5.09-5.33-5.75-9.71-6.07-6.65-.47-13-2.58-19.38-4.17-2.55-.34-5.12-.26-7 1.77-1.65 1.82-4.25.68-5.86 2.28-.76 1.95.69 4.29-1.08 6-2.65 1.27-3.17 3.54-3.11 6.22s.35 5.68-1.31 8.22c-.47 2.34-1.14 3.61-3.17.91-2.77-3.7-6.07-7-8.43-11-2-3.32-4.43-4.41-8-4.21-4.11.34-8.24.28-12.36.34Z" transform="translate(159 203)"/><path class="cls-46" d="M64.13-88.07 63.07-89c-1.08-18.25 4.6-33.25 20.63-43.41 16.32-10.33 40.05-6.9 53.77 7.81 10.3 11 14.2 24.18 10.88 39-4.59 20.46-23.34 34-44.28 33.06-13.08-.59-23.65-5.6-32-15.55-.42-4.42.57-9-.91-13.29-1.16-3.43-2.93-6.31-7.03-6.69Z" transform="translate(159 203)"/><path d="M38.78 65.07c9 .44 18 1.37 27 0q0 62.3.16 124.6c0 3.82-1.3 5.29-5.09 5.59-3.34.26-6.52.59-9.57-1.08 4-5.54 4.5-11.84 4.38-18.45q-.37-18.93 0-37.87c.15-7.88-3.62-12.81-10.31-16.09-4.18-2-8.74-3.2-12.75-5.61-1.45-1-2.35-2.62-3.92-3.47-1.35-1.06-3.14-1.49-4.23-2.93a6.87 6.87 0 0 1-.73-3 36.45 36.45 0 0 1 .16-6.18c1-3.93 2.67-7.19 6.52-9.35s3.93-4.34 1.28-8.07A5 5 0 0 1 30.52 81c.67-5.2 1.09-10.49 5.41-14.32.84-.76 1.47-1.83 2.85-1.61Z" transform="translate(159 203)" style="fill:#6de3f8"/><path class="cls-8" d="M32.12 114.61c5 2.11 10.23 3.93 15.08 6.4 6.36 3.24 9.92 8.38 9.83 15.94-.19 15.48 0 31-.11 46.46 0 4.51-1.08 8.59-5.67 10.73a28.75 28.75 0 0 1-2.83.74c-8.09 1.29-8.09 1.28-10.34-6-2.26-1.9-5-1.59-7.64-1.55a35.13 35.13 0 0 1-8-.34c-3.53-1.49-3.32-5.13-4.59-7.93-.31-1.19-.75-2.34-1.11-3.51-.74-3.17-1.95-6.21-2.43-9.45a3.85 3.85 0 0 1 .38-1.32c.54-.73 1.19-1.39 1.71-2.14 4.67-7.84 9.15-15.8 13.87-23.61 1.14-1.9 1.73-3.44-.24-5.23-2.15-2-1.09-3.69 1.08-4.6 3.42-1.44 3-3.69 2-6.5-.81-2.6-2.38-5.19-.99-8.09Z" transform="translate(159 203)"/><path d="M-33.75-77.89v-1c2.14-1.65 4.68-1.45 7.14-1.48 4-.06 8-.24 11.94 0 6.57.45 12.11-1.35 16.41-6.48L3.9-87l38.1.05c1.48-1.15 3.4.12 4.9-.9l1-.08.1 1.08a18.19 18.19 0 0 1-.05 9.21C42.1-75.12 36-76.89 30-76.45 11.87-77-6.21-75-24.34-75.38c-2.48-.05-5 .2-7.43-.54a3.13 3.13 0 0 1-1.98-1.97Z" transform="translate(159 203)" style="fill:#3794e6"/><path class="cls-94" d="M72.09 141c6.45-2.15 13.08-.85 19.62-.81 2.09 0 2.15 2.1 2.21 3.82.07 2-.88 3.44-2.71 3.52-6.39.26-12.82 1.24-19.12-.72ZM72 152c6.27-2.18 12.72-.73 19.09-.86 2.23 0 2.58 2.16 2.76 4a2.82 2.82 0 0 1-2.77 3.41c-6.36.18-12.79 1.33-19.08-.7Z" transform="translate(159 203)"/><path class="cls-8" d="m-45 194 1.06-1.3c5.13-2.36 10.56-1 15.85-1.32 4.05.36 8.1-.26 12.15 0 5.27.22 10.54-.31 15.81.06 6.28 0 12.57-.2 18.84-.05a21.16 21.16 0 0 0 4 0 53.32 53.32 0 0 0 7.6 1.75 2.23 2.23 0 0 1 1 1c-4.55 2.54-9.3 1-14 .91-9.65-.27-19.3-.22-28.95 0-9 .17-17.93-.83-26.85.81A6.69 6.69 0 0 1-45 194Z" transform="translate(159 203)"/><path class="cls-2" d="M72.09 162.06c5.79-.05 11.58 0 17.37-.18 3-.08 4.22 1.33 4.41 4.08.24 3.48-2.29 3-4.38 3-5.79 0-11.57-.11-17.36-.17-.01-2.25-.03-4.49-.04-6.73Z" transform="translate(159 203)"/><path d="M30.8 186.31c2.64.24 6.46-2.9 7.28 2.54-.29 6.74-.67 7-6.81 5.26l-.32-.29a6.18 6.18 0 0 1-.15-7.51Z" transform="translate(159 203)" style="fill:#1781d2"/><path d="m47.87-77.81.12-9c1.86 1.32.62 3.27 1 4.89-.5 4.63 1 9.37-.82 13.92-1.32-.86-1.34-2.25-1.48-3.59v-1.61c-.01-1.67 0-3.3 1.18-4.61Z" transform="translate(159 203)" style="fill:#64a5dd"/><path d="M86.28 130.94c-2 0-4 .06-6 0-1.77-.06-4 .54-4.84-1.6s-1.35-4.94.58-6.54 1.47-3.19 1.13-5.2c-.73-4.28 2.64-8.41 7.19-9.26 4-.75 7.49 1.81 8.71 6.21.86 3.09 1.28 6.12 3.79 8.82 3.07 3.28.92 7.25-3.58 7.54-2.26.15-4.65.03-6.98.03Z" transform="translate(159 203)" style="fill:#0851af"/><path class="cls-4" d="M-61.16-131.17a61.86 61.86 0 0 1 9-8.9c5.46 5.8 11.36 11 18.95 13.95 5.54 2.15 9.43 5.43 9.57 12.18.1 4.68 2.76 9.21 1.16 14.08a7.46 7.46 0 0 1-5 3.59c-12.77-2.6-22.89-8.89-29-20.81-1.67-4.36-5.71-7-8-10.91l.52.11c2.67-1.6 3.88.81 5.3 2.12 4.22 3.93 8 8.35 12 11.2-3.67-5.82-10.56-9.9-14.5-16.61Z" transform="translate(159 203)"/><path d="M-56.52-117.08c5.32 6 9.78 12.89 17.74 15.91 4 1.51 7.84 3.36 12.09 4.06 3.41-.63 4.55 1.76 5.62 4.24 1 3.1 3.59 3 6.11 2.92H.26c1.57 0 3.45-.41 3.73 2C2.26-89.22.24-89-1.74-89c-3.48 0-7-.47-10.42.08-12.5 2.06-22.46-3.66-32-10.29-6.23-4.32-9.51-11.03-12.36-17.87Z" transform="translate(159 203)" style="fill:#0c7cd2"/><path class="cls-99" d="M-23.12-131.72a26.93 26.93 0 0 1-2.39-1.68c-6.91-5.91-6.74-5.77-1.06-12.44 2.19-2.58 3.53-2.86 5.58-.21a30 30 0 0 0 3.17 3.1c1 1 2.46 1.62 2.41 3.36-2.1 3.09-3.9 6.47-7.71 7.87Z" transform="translate(159 203)"/><path d="m9-127.94-1.56-.73c-1.82-.64-3.69-1.22-4.44-3.33.61-4.11-2.77-7.86-1.07-12.06.94-3.49-.85-8.09 4.06-10l1 .25c2 2.73 1.29 6 1.8 9.05a7.5 7.5 0 0 0 .35 4.44 27.49 27.49 0 0 1 1.28 10.58c-.02.92.16 2.12-1.42 1.8Z" transform="translate(159 203)" style="fill:#f5c37e"/><path d="M-23.12-131.72c1.82-3.36 4.72-5.76 7.48-8.27a1.07 1.07 0 0 1 1.66 0c1.37 1.14 2.87 2.16 3.72 4.31-3 .91-6 1.87-7.67 4.62-2.35 3.84-3.86 2.52-5.19-.66Z" transform="translate(159 203)" style="fill:#0554b4"/><path d="M7.15-121.21c2.29.58 4.82-.12 6.94 1.3 1.33 1.64.42 3.36.19 5a7.37 7.37 0 0 1-.75 2.14c-2.53 3.37-4.61 2.16-6.53-.64-1.33-2-1.26-4.35-1.85-6.53H5q-.51-.43-.24-.66a.66.66 0 0 1 .46-.17Z" transform="translate(159 203)" style="fill:#f7faf9"/><path d="M2-144.06c.84 3.97 2 7.92 1 12.06-.87-3.15-1.85-6.24-5-7.94a7 7 0 0 1-.1-5.22c.67-1.23 1.88-.61 2.84-.84.44.63 0 1.8 1.26 1.94Z" transform="translate(159 203)" style="fill:#f1c685"/><path d="m-21.07-92.87-5.63-4.24a9.66 9.66 0 0 1 4.19-2.75c.87.89.5 2.37 1.84 3.15 2.39 1.39.55 2.63-.4 3.84Z" transform="translate(159 203)" style="fill:#f8f8f2"/><path d="M-15.08-98.88v6.85c-1.76-2.11-.61-4.59-.86-6.9.33-.48.61-.46.86.05Z" transform="translate(159 203)" style="fill:#59c0ed"/><path class="cls-106" d="M-15.08-98.88a5.92 5.92 0 0 0-.84-.05c.28-2.34-1-4.87.88-7 .04 2.34-.03 4.7-.04 7.05Z" transform="translate(159 203)"/><path d="M-14-139.95h-1.66c-.72-1-1.45-2-2.18-3 1.95.16 2.99 1.47 3.84 3Z" transform="translate(159 203)" style="fill:#059ee5"/><path class="cls-106" d="M5.24-120.78a1.87 1.87 0 0 1-.22.83c-2-.32-4.2.81-6-.92Z" transform="translate(159 203)"/><path d="M-2.09-145.16c0 1.74.07 3.48.1 5.22-1.01-1.72-1.52-3.45-.1-5.22Z" transform="translate(159 203)" style="fill:#e3c990"/><path class="cls-109" d="M1.73-86.85a11.18 11.18 0 0 1-10.57 7.93c-8.31.07-16.62 0-24.92 0l-.06-2.08c.3-.45.59-.45.86 0 .48-.11 1.33-.14 1.37-.34C-30.33-87.52-25.7-87.12-21-87c7.59.19 15.16.11 22.73.15Z" transform="translate(159 203)"/><path class="cls-110" d="M-84-106.93c3.83-1.4 3.32-5 4-8 3.8 1.2 7.63 2.35 10 5.93-.82 3.11-.55 6.91-4.9 7.79-3.21-1.5-7.1-2.02-9.1-5.72Z" transform="translate(159 203)"/><path d="M-74.9-102c4.15-.57 1.61-5.88 5-7 2 .1 3.08 1.44 4 3 .65 1.52 2.49 2.36 2.41 4.3-1.38 2.66-.83 6.73-5.2 7.24-2.83-1.88-5.72-3.71-6.21-7.54Z" transform="translate(159 203)" style="fill:#0da4ca"/><path d="M-63.92-102c-.59-1.37-2.18-2.24-2-4 7.27 5.11 10.13 12.74 12 20.95 1.05 1.26.36 2.4-.24 3.54-.92 1.23-1.58 2.79-3.51 2.69-2.91-4-1.14-9.13-3.24-13.32-.61-3.37-2.81-6.3-3.01-9.86Z" transform="translate(159 203)" style="fill:#097cd1"/><path d="m-34-82-5-.26c-4.24-1.15-3.59-3.73-1.94-6.61 2.11-.27 4.2-.41 6 1 2.23 1.72 1.69 3.8.94 5.87Z" transform="translate(159 203)" style="fill:#073689"/><path d="M-55-82c.35-1 .7-2 1-3l3-1.1c1.51 1.38 1.53 3.34 2 5.13-1.22 1.22-2.8 2.16-3.14 4.06C-54-72.73-52.48-68.32-53-64c-2.72-.59-2.5-2.95-2.26-4.68.56-4.47-.09-8.89.26-13.32Z" transform="translate(159 203)" style="fill:#194f9d"/><path d="M-40.95-88.83c.11 2.36-.78 5 1.94 6.61l-7 .15c-1.7-2-1.46-4-.08-6.05 1.58-1.46 3.41-.74 5.14-.71Z" transform="translate(159 203)" style="fill:#104293"/><path d="m-46-88.12.08 6.05L-49-81c-3.18-.74-1.44-3.37-2-5.13a7.86 7.86 0 0 1 5-1.99Z" transform="translate(159 203)" style="fill:#114899"/><path d="M-34-82c.16-2 .49-4.07-.88-5.86 1-.44 1.93-.93 1.91.86v6a8.23 8.23 0 0 1-.86 0c-.07-.31-.17-.63-.17-1Z" transform="translate(159 203)" style="fill:#4cafe0"/><path class="cls-8" d="m-74.9-102 6.19 7c2.82 2.47 3.61 5.82 4.07 9.33.25 5.73.33 11.42-2.81 16.57a37.58 37.58 0 0 1-10.28 10.16c-3.48 2.47-7.72 2.71-11.62 3.95a22.38 22.38 0 0 1-7.12.18c-3.52-1-7.2-1.68-9.47-5l-8-8c-2.21-3.06-2.6-6.81-3.94-10.2-.64-9.28 1.87-17.35 9.11-23.59l5.85-3.7 6-1.88 13 .24c2.92 1.71 6.34 2.69 9.02 4.94Z" transform="translate(159 203)"/><path class="cls-118" d="M106.78 148v22.9a64.42 64.42 0 0 1 0-22.9ZM106.78 115v11.93a18.33 18.33 0 0 1 0-11.93Z" transform="translate(159 203)"/><path d="M-61.16-131.17c6.22 6.11 12.63 12.06 18.94 20-5-1.44-7.1-4.4-9.73-6.64-4-3.39-6.81-8.17-12-10.1-.05-1.86 1.2-2.72 2.79-3.26Z" transform="translate(159 203)" style="fill:#fcf7ec"/><path d="m-105.94-59.84 9 4c1.41 2.89-.14 4.92-2 6.87a20.16 20.16 0 0 1-9-2.93q.99-3.98 2-7.94Z" transform="translate(159 203)" style="fill:#0daed4"/><path d="M100.06 23.15c-4.11-2.35-7.21-5.54-8.37-10.3 0-10.24 1.27-14.64 6-21.1C100.93-2.1 106 2 111.9 5.06a7 7 0 0 1 0 5.81c-2 3.72-4.7 6.64-4.55 11.82.06 3.65-4.64 1.46-7.29.46Z" transform="translate(159 203)" style="fill:#f5c083"/><path class="cls-122" d="M100.06 23.15a19.28 19.28 0 0 0 3-.08c1.27-.21 3.19 1.84 3.7-.53.42-2 1.37-4.7-2.53-6.08 6.15-1.78 7-6.52 7.72-11.4 3.57.83 6.86 3.67 10.87.29 1.5-1.27 2.19 1.75 3.2 2.88-2.5 4.14-7.38 5.74-9.91 10.22-3 5.21-3.6 6.41.55 11.38-1.19 5.55-5.61 8.36-9.71 11.44-4.58-2.65-7.54-6.68-9.66-11.41 1.8-1.86 3.05-3.96 2.77-6.71Z" transform="translate(159 203)"/><path d="m107 41.3 9.66-11.47a27.65 27.65 0 0 1 8.13 4.1l-9 14.57-6.79-5.44c-.58-.58-1-1.57-2.11-1a.34.34 0 0 0 .08-.5Z" transform="translate(159 203)" style="fill:#fcf9f9"/><path d="M110.89 62c-1.68-2.53-.65-5.34-.83-8 1.76 2.53.55 5.36.83 8Z" transform="translate(159 203)" style="fill:#b54453"/><path d="m131 55-1-1c.38-1.35.77-2.69 1.15-4 .68 1.74 1.32 3.46-.15 5Z" transform="translate(159 203)" style="fill:#d8232e"/><path d="m107 41.3.06.25-3.23 3.13c-5.69 3.56-5.71 3.57-9.17-2.46-1.71-3-3.35-6-5-9 2.25-1.79 5.09-2.26 7.65-3.38Z" transform="translate(159 203)" style="fill:#fdfbfb"/><path d="M84.94 55h-1c-1.15-.84-.9-1.95-.8-3.26 1.55.74 1.66 2.01 1.8 3.26Z" transform="translate(159 203)" style="fill:#d92530"/><path class="cls-128" d="M-68 74c-6.61 1.22-4.63-3.84-5.15-7.06l.39-26.62 1.89-.27a1.61 1.61 0 0 1 2.46.37c1.34 8.62 2.45 17.26 1.76 26a3.94 3.94 0 0 1-1.19 2.65Z" transform="translate(159 203)"/><path class="cls-122" d="M-75.79 20.23c-1.87-2-3.83-4-4.45-6.82-.52-2.32-1.78-2.34-3.52-1.47-2.17-1.49-4.78-2.83-3.51-6.16 1-2.69 2.65-4.78 6-3.31.79.34 1.05.35 1.28-.53 1-3.65 4.34-5.24 6.76-7.62 5-4.93 9.94-4.34 14.46 1.52 2 1.91 1.32 4.21 1 6.46-.23 1.56-1.36 3.08-.18 4.7l-.27 8.4c-.91 4.48-3.32 7.55-8 8.48-3.51-.37-6.96-.88-9.57-3.65Z" transform="translate(159 203)"/><path class="cls-129" d="M-67.81 69.05q-.61-14.36-1.19-28.69c.1-1.24.91-1.72 2-1.93 4.85 1.64 7.43 5.48 9.5 9.82.37 1.88-.48 3.88.54 5.7 0 2.06-.15 4.16 1 6-1.94 3-.61 6.38-.94 9.56-.21 2.07.42 4.79-3 4.34-2.69-.36-7.17 2.32-7.19-3.61.01-.37-.47-.78-.72-1.19Z" transform="translate(159 203)"/><path d="M-55-82c2.12 3.12.55 6.63 1 9.92.4 2.66-.94 5.52.92 8v97.73c.25-6.83-3.32-13.41-1.23-20.39.81-2.7-.24-5.56-.38-8.32-.5-9.91-.28-19.84-.55-29.76-.37-13.22-.9-26.44-1.5-39.65a21.81 21.81 0 0 1 .32-6.88c.58-2.18 1.17-4.55-.57-6.62-.3-.2-.41-.41-.34-.64s.17-.36.26-.36Z" transform="translate(159 203)" style="fill:#1b55a2"/><path d="M-57-79c0 .33.06.67.08 1-1.16.73-1 1.92-1 3-3.39 5.84-5 12.83-10.94 17-2.93-.62-1.83-2.76-1.65-4.5.24-2.24 1.92-4.09 1.79-6.44 3-5.3 3.07-11.14 3.16-17 1.52-1.13 2-2.87 2.82-4.46.59-1.19.8-3 2.87-2.62C-57.53-88.6-58.78-83.47-57-79Z" transform="translate(159 203)" style="fill:#0d9cc3"/><path d="M-58 47.92c-3.13-2.93-5.3-6.83-9.07-9.14-1.3-4.18.48-7.74 2.31-11.29 2.35-1.13 4.63-1.22 6.81.41.35 1.69.7 3.39 1 5.08-1.52 4.9.51 10.02-1.05 14.94Z" transform="translate(159 203)" style="fill:#0656b6"/><path d="m-47.52 65.76 1.37.39c-.63 2.57-1.27 5.15-1.9 7.73a24.76 24.76 0 0 0-3 .1c-4 .6-5.43-1.09-5-5a67.62 67.62 0 0 0 .09-7c2.37 2.3 4.54 5.02 8.44 3.78Z" transform="translate(159 203)" style="fill:#0b52ae"/><path d="M-58 27.9h-7.35a1.85 1.85 0 0 1-2-1.64A4.58 4.58 0 0 1-66 23c4.17-1 6.18-4.11 7.82-7.65.1.91.21 1.82.32 2.72a11.67 11.67 0 0 1 0 6.8Z" transform="translate(159 203)" style="fill:#2b4977"/><path d="M-57.95 7c-2-3.6 1.45-7.58-.8-11.15 1.54-2.45.41-5.18.83-7.75C-55.88-5.61-56.91.69-57.95 7Z" transform="translate(159 203)" style="fill:#5080bb"/><path d="M-58 47.92c.7-5-1.27-10.1 1.09-14.94v21c-1.9-1.79-.65-4.07-1.09-6.06Z" transform="translate(159 203)" style="fill:#3f8ed0"/><path d="M-57.9 24.9v-6.8a5.86 5.86 0 0 1 0 6.8Z" transform="translate(159 203)" style="fill:#5280b8"/><path d="M-89-56c3.56-1.69 7.69-1.8 11.08-3.95 3.91 2.68 1.31 5.33 0 8-2.86 2.53-6.44 2.64-10 3a1 1 0 0 1-1.22.14c-1.23-2.41.87-4.77.14-7.19Z" transform="translate(159 203)" style="fill:#0da3c9"/><path d="M-77.94-51.95c-1-2.67 2.52-5.32 0-8 3.51-2.5 6.28-5.76 9.11-9 1.82 1.9.19 3.69-.18 5.51s-2 3.63 0 5.43a15.81 15.81 0 0 1-8.93 6.06Z" transform="translate(159 203)" style="fill:#0d9ec5"/><path class="cls-110" d="M-89-56c3.87 2.31-.56 4.67 0 7a14.23 14.23 0 0 1-8 .05l-2-.05q1-3.43 2-6.87Z" transform="translate(159 203)"/><path d="m-97-48.94 8-.05h1a9.49 9.49 0 0 1-9 .05Z" transform="translate(159 203)" style="fill:#25a2e0"/><path d="M-66 23c-.18 1 .31 2.27-.9 3a2.77 2.77 0 0 1-4 0l-4.91-3.13c0-.87.07-1.75.11-2.63Z" transform="translate(159 203)" style="fill:#e54a47"/><path d="M-71 26h4l1.59 1.9c1.84 4-1.49 7.2-1.77 10.87L-69 40.35l-1.84-.35Z" transform="translate(159 203)" style="fill:#e17c34"/><path class="cls-6" d="m-7.64 116 1.58-.19c3.43.84 1.42 3.21.93 4.56-1.25 3.45-.52 5 3.19 6 4.18 1.06 4.51 2.69 1.31 5.66-1.95 1.8-1.7 2.93-.42 5 1.54 2.45 4.74 3.68 5.07 7l-13 .19-7-.17-10.93-1c-2.1-12.3 3.85-19.71 14.62-24.27A42.49 42.49 0 0 0-7.64 116Z" transform="translate(159 203)"/><path d="M-19 166.77c.16-2.1 2.06-2 3.33-2.43 8.49-2.87 17-5.62 25.53-8.41a3.68 3.68 0 0 1 1.53 5c-8.51 4.35-17.77 6.59-26.8 9.49a4.22 4.22 0 0 1-3.59-3.65Z" transform="translate(159 203)" style="fill:#1ea8f3"/><path class="cls-99" d="m-19 166.77 3 3.15a3.3 3.3 0 0 1 2 2.34 7.63 7.63 0 0 1-.15 3.94c-1 2.34-2.87 3-5.25 2.59-2-.93-4.61-1.16-5.12-4a12.49 12.49 0 0 1-2.57-5.83c1.44-5.46 4.99-3.03 8.09-2.19Z" transform="translate(159 203)"/><path d="M11.05 160.94q-.57-2.5-1.16-5c-.94-1.54-.27-3.68-1.82-5-.36-1.33-.72-2.66-1.07-4 0-.64-.06-1.28-.1-1.93-.25-1 .33-1.28 1.21-1.24a8.19 8.19 0 0 1 2.72 3.59c1 4.35 2.59 8.52 3.79 12.81.44 1.57 1.23 3.1.52 4.8h-.19c-.5.76-1 1.53-2.11 1.25a3.68 3.68 0 0 1-1.7-2c-.31-1.14-.88-2.22-.09-3.28Z" transform="translate(159 203)" style="fill:#0757b7"/><path class="cls-129" d="M8 143.94 6.91 145 4 144c-3.28-2.09-5.1-5.54-7.68-8.28s1-3 2-4.24c.68-.83 2.36-1 2.27-2.33-.1-1.52-1.82-1.59-2.72-1.63-6-.21-6.15-3.14-4-7.65.51-1.08 1.91-2.63.11-4l4.87-4.9c2.44 2.17 3.08 5.33 4.45 8.09 2.05 6.8 3.61 13.72 5.07 20.66.26 1.4.76 2.89-.37 4.22Z" transform="translate(159 203)"/><path d="M-97.49 169.1a15.53 15.53 0 0 1-3.48 0c-1.42-.32-4.22 1.38-3.89-1.83.25-2.45 1.63-4.95 4.64-4.52a20.09 20.09 0 0 0 5.42 0c3.39-.44 5.31 1.41 5.4 4.36.11 3.37-3 1.3-4.62 1.92-1 .4-2.3.07-3.47.07Z" transform="translate(159 203)" style="fill:#f6b629"/><path d="M-92.82 155c-.11 3.89-1.7 5.81-4.84 5.67-2.86-.14-4.43-2-4.29-4.95s1.77-4.72 4.62-4.64 4.68 1.47 4.51 3.92Z" transform="translate(159 203)" style="fill:#f2b52b"/><path class="cls-147" d="m-24.53 174.77 4.7 3.09a2.69 2.69 0 0 1-1.33 1.42C-29 182-36.65 185.65-45 187c-.62-1.35-1.24-2.7-1.85-4.06a170.61 170.61 0 0 1 22.32-8.17Z" transform="translate(159 203)"/><path d="M-45 187c8-4.12 16.74-6.18 25.17-9.1 1.89-.19 4 .24 5.13-2 .06-.15.09-.39.2-.44 8.77-4.28 17.79-7.79 27.61-8.81 1.7 1 2 2.48 1.71 4.24-.84 2.36-3 2.93-5 3.68-16.5 6.13-33.38 11.17-49.88 17.29-1.23.46-2.5 1-3.77.08Z" transform="translate(159 203)" style="fill:#179ef1"/><path d="M-43.85 191.92c14.29-5 28.66-9.82 42.85-15.1 5-1.88 10.67-2.42 15.05-6 2.89.63 1.76 3.36 2.62 5a3 3 0 0 1-.57 1.45c-1.49 1.45-3.46 1.93-5.34 2.55-12.92 4.23-25.76 8.7-38.7 12.88l-16-.05a1.82 1.82 0 0 1 .09-.73Z" transform="translate(159 203)" style="fill:#1499ef"/><path d="M31.23 81.27c5.27 3.82 5.21 8.76-.57 11.18-3.65 1.52-4 4.86-5.83 7.41-3.95 7.16-14.27 9.64-20.6 5-6.51-6-10.55-13-9-22.22a1.76 1.76 0 0 1 1.16.29 10.05 10.05 0 0 1 .91.82c.75.7 1.57 1.31 2.33 2a2.92 2.92 0 0 0 3.27.71c.36-.21.73-.41 1.09-.63 1.12-.69 2.16-1.67 3.66-1.08 1.36 1.66-1.06 4.83 2.51 5.68-3.29-2.43-1.55-5.7-1.75-8.62a2.5 2.5 0 0 1 .68-1.23 3.69 3.69 0 0 1 3.43-.26 2 2 0 0 1 .88 1c.13 1.39-.12 2.89 1.08 4a7.11 7.11 0 0 0 2.29 1.9c2.3.65 3.4-1 4.56-2.44a20.24 20.24 0 0 1 2.52-3.09 3.6 3.6 0 0 1 1.27-.39c2.04.91 4.07-1.44 6.11-.03Z" transform="translate(159 203)" style="fill:#fab826"/><path d="m2.18 119-3.37-8.07a5.73 5.73 0 0 1 5-.65c4.05 1.25 6.93 4.09 9.67 7.11a3.33 3.33 0 0 1 0 1.37 7.85 7.85 0 0 1-2 2.73 11.32 11.32 0 0 1-3.25 2.41c-4.47 1.45-4.34-2.9-6.05-4.9Z" transform="translate(159 203)" style="fill:#f3f9fb"/><path d="M4.23 104.81c7.88 2.58 14.73.86 20.6-5v7.09c-2.61 3.21-6.41 3.92-10.12 4.85-4-.07-7.87-.47-10.56-4Z" transform="translate(159 203)" style="fill:#e74448"/><path d="M4.16 107.8c3.5 1.35 6.88 3.13 10.79 3 3.22-1 4.27.47 3.89 3.51-1.2 2.34-2.53 4.45-5.75 3.25l-9.28-7.27c.11-.83.19-1.66.35-2.49Z" transform="translate(159 203)" style="fill:#f9b528"/><path d="M-4.32 82.55h-.43c-.49-1.55.46-4.83-3.16-2.55-.06-3.25.08-6.53-.23-9.76-.38-4 1-5.82 5.15-5.16.19.21.37.42.56.62.8 4.41-.62 8.77-.23 13.17-.14 1.42-.13 2.9-1.66 3.68Z" transform="translate(159 203)" style="fill:#70e3f8"/><path d="M5.19-119.94c1.16 2.31 2.31 4.64 3.49 7 1.32 2.6 2.64 1.64 3.94 0a3.5 3.5 0 0 1 1.71 3.85c-.8 5.9-.22 11.92-1.61 17.76a2.68 2.68 0 0 1-1.38 1.21c-1.86.28-3.71.56-5.34-.77Z" transform="translate(159 203)" style="fill:#6ee1f7"/><path d="M6-91h5.09c2 .43 4-.58 6-.28.46 0 .92-.07 1.37-.09.91 0 1.84-.26 2.62.45 1.31 1.74 3.27.48 4.83 1q.55.25.36.51a.48.48 0 0 1-.36.24c-5.43 0-10.85.07-16.28 0C8.17-89 6.14-88.32 6-91Z" transform="translate(159 203)" style="fill:#66a6dd"/><path d="M25.94-89.06a4.7 4.7 0 0 0 0-.75L45-90h1c-6.64 2.23-13.4.58-20.06.94Z" transform="translate(159 203)" style="fill:#4298db"/><path d="M46.91-87.85c-1.41 1.52-3.25.65-4.9.9 1.38-1.7 3.23-.81 4.9-.9Z" transform="translate(159 203)" style="fill:#4398db"/><path class="cls-109" d="m21.11-90.86-2 .9c0-7.68-3.16-15.34-.12-23 2.19.6 3.38-1.08 4.85-2.14 0 7.1 0 14.2.11 21.29.05 2.09-.74 3.05-2.84 2.95Z" transform="translate(159 203)"/><path d="M18.06-142.06c-1 4.05 2.9 8.18-.19 12.2L14-131.11c-1.38-1.44-2.9-2.82-1.87-5.14a12.33 12.33 0 0 1 1-1.68c1.1-1.75.11-3.43-.2-5.13.2-3.57-2.38-7.17.08-10.71h3c2.91 2.9 1.94 6.82 2.67 10.3a2.32 2.32 0 0 1-.62 1.41Z" transform="translate(159 203)" style="fill:#f3b76e"/><path d="M13-135.93c-1.26 1.94 1.83 3 1 4.82a3.8 3.8 0 0 0-3 4.11 2.11 2.11 0 0 1-2-1c.81-4.37-.39-8.59-1-12.86v-3.09c-1.18-3.21-1-6.56-1-9.89h3c3.11 5.66 2.1 11.94 3 17.91Z" transform="translate(159 203)" style="fill:#f5be78"/><path d="M13-135.93c-3.16-5.59-2-11.91-3-17.85h3c-.19 4 1.61 7.86 1 11.91a5.63 5.63 0 0 1-.06 5Z" transform="translate(159 203)" style="fill:#f4ba74"/><path d="M18.05-142.81c-1.6-3.48-.94-7.39-2.05-11 2.81-.24 4.25.52 3.62 3.84-.37 1.95.2 4.08.35 6.12-.41.85-.97 1.37-1.92 1.04Z" transform="translate(159 203)" style="fill:#f1b26a"/><path d="m18.05-142.81 1.92-1a2.38 2.38 0 0 1 .05 3l-2-1.23a1.73 1.73 0 0 0 .03-.77Z" transform="translate(159 203)" style="fill:#606372"/><path d="M13.47-114.84c.21-1.69.41-3.38.62-5.07h2.53c-.24 1.64-.48 3.27-.73 4.91a1.59 1.59 0 0 1-2.42.16Z" transform="translate(159 203)" style="fill:#fbbb2e"/><path d="m13.47-114.84 2.42-.11 1.18.93a127.9 127.9 0 0 1 1.35 19 5.71 5.71 0 0 1-1.26 4.15c-1.8.4-3.6.81-5.32-.29-.61-7.34 1.82-14.57.78-21.92.28-.55.56-1.16.85-1.76Z" transform="translate(159 203)" style="fill:#e6434b"/><path d="M17.37-91.21c.19-7.6-1.32-15.19-.3-22.8A2 2 0 0 1 19-113c-.74 7.68 2.4 15.34.12 23H18c-.28-.36-1.19-.44-.63-1.21Z" transform="translate(159 203)" style="fill:#c7d6de"/><path class="cls-8" d="M47.85-72c.1 1.33.21 2.65.32 4-.83 3-2.74 4.13-5.85 4.12C19.13-64-4.06-64-27.25-64c-3.19 0-5.45-1.14-6.25-4.43.29-1.45-.56-3.19 1.12-4.28 5.87-1.45 11.83-.49 17.76-.67 5.78-.17 11.57 0 17.35 0H42.24c1.94.04 3.99-.17 5.61 1.38Z" transform="translate(159 203)"/><path d="M31.23 81.27c-2 .51-3.81 3-6.1.61-.46-.64-.15-1.23.1-1.84.45-1.19.89-2.38-.26-3.44-1.21-.55-2.33 0-3.47.26a12 12 0 0 1-4.05.2 9 9 0 0 1-1.37-.27 20.42 20.42 0 0 0-3.37-.72c-2.3-.42-4.34-1.6-6.56-2.29a39.56 39.56 0 0 1-5.39-3.19 8.18 8.18 0 0 1-3.23-5.26 1 1 0 0 0-.53-.24c-.67-2.32-1.55-4.61-.7-7.08 2.49.37 2.52 2.83 3.7 4.31a11.31 11.31 0 0 0 4.11 4 18.23 18.23 0 0 0 3.21 2 24.73 24.73 0 0 0 3 1 13.68 13.68 0 0 0 4.51.47 11.52 11.52 0 0 0 8-2.94c1.11-.91 1.84-1.92.19-3a19.33 19.33 0 0 0-3.47-1.57A26.38 26.38 0 0 1 16 60.72c-1.14-.62-2.29-1.21-3.43-1.81a5.79 5.79 0 0 1-3-3.41 1.63 1.63 0 0 1 .43-1.21c9.85 1.93 19.45 5.32 29.81 4.68-.38 2.26-.69 4.18-1 6.1-4.81 4.34-6.43 10.17-7.58 16.2Z" transform="translate(159 203)" style="fill:#254377"/><path d="M21.5-34H-7.43c-2 0-5.18.76-5.2-2.2 0-2.74 3.21-2.45 5.18-2.44 15.27.1 30.55-.54 45.82.55 4.26.31 8.6-.41 12.9-.61 1.95-.08 4.1.41 4.06 2.63 0 2-2.25 2.07-3.9 2.08-9.97-.01-19.95-.07-29.93-.01Z" transform="translate(159 203)" style="fill:#75e5f8"/><path class="cls-9" d="M-41.78-27.79c-4.35-6.56-3.77-14 1.44-18.42s13.42-4.35 18.28.15 5.13 11.88.94 18.2c-2.48-.95-4-3.27-6.46-4.34-1.49-.65-2-2.15-1.67-3.8a35.23 35.23 0 0 0 .78-3.89c.14-2.16-.23-4.29-2.83-4.37-2.92-.1-3.31 2.18-3.25 4.52a4 4 0 0 0 .26 1.46c1.36 3.25-.06 5.49-2.76 7.05-1.72.99-2.63 3.03-4.73 3.44Z" transform="translate(159 203)"/><path d="M21.45-43h-27c-1.33 0-2.67 0-4-.14-1.54-.12-3.33-.38-3.25-2.31.14-2.2 2.2-1.55 3.55-1.55 13.16 0 26.31 0 39.47-.06 6.14 0 12.28-.48 18.42-.63a26.41 26.41 0 0 1 4.91.57c1 .16 2.17.41 2.19 1.64 0 1.4-1.26 2-2.35 2.2a18.08 18.08 0 0 1-4 .26h-28Z" transform="translate(159 203)" style="fill:#72e4f8"/><path d="M21.7 41H-5.69c-1.49 0-3 0-4.48-.16s-2.74-.79-2.57-2.42c.16-1.45 1.56-1.5 2.74-1.51h8c15.75-.19 31.51.49 47.25-.64a42.18 42.18 0 0 1 7.4.63C54 37 56 36.67 55.63 39c-.3 1.91-2 1.87-3.56 1.88L36.14 41H21.7Z" transform="translate(159 203)" style="fill:#6fe3f8"/><path class="cls-9" d="M-40.14 46.52c-4.58-5.25-4.48-11.57.26-16.31A12.86 12.86 0 0 1-22 30c5.25 4.82 5.29 11 .11 17.07a2.91 2.91 0 0 1-1.09-.81c-1.52-3.6-4.6-6.12-6.48-9.47-.5-1.65 1.19-4.72-1.53-4.75s-1.08 3.06-1.57 4.71c-1.83 3.24-4.39 6-6.4 9.1a2.66 2.66 0 0 1-1.18.67Z" transform="translate(159 203)"/><path class="cls-46" d="M21.76 27.9c9.81 0 19.61 0 29.42.05 1.6 0 4.29-1 4.41 1.68.1 2.37-2.37 2.37-4.21 2.37H-8.44c-1.82 0-4.19.14-4.16-2.34s2.47-1.69 3.95-1.7c10.14-.09 20.27-.06 30.41-.06Z" transform="translate(159 203)"/><path d="M-41.78-27.79c.32-.56.5-1.35 1-1.65 4.87-2.91 6.59-6.72 5-12.52-.69-2.59 2-4.37 5-4 2.81.33 3.93 2.24 3.76 4.88a13.14 13.14 0 0 1-.88 3.8c-.93 2.41-.65 4.41 2.09 4.94s3.68 2.43 4.7 4.49c-6.33 7.72-14.07 7.75-20.67.06Z" transform="translate(159 203)" style="fill:#fbb827"/><path class="cls-46" d="M21.78-1.07c9.82 0 19.64-.05 29.45.05 1.62 0 4.31-.7 4.17 2.05-.12 2.53-2.67 2-4.4 2q-28.69.09-57.4.1c-1 0-2 0-3-.12-1.31-.13-3-.19-3-1.84C-12.49-.87-10.72-1-9.16-1h30.94ZM22-10h29.42c1.61 0 3.85-.26 4 1.9S53.26-6 51.64-6H-8.2c-1.64 0-3.88.26-3.9-2 0-2.82 2.64-1.95 4.2-2H22Z" transform="translate(159 203)"/><path class="cls-172" d="M6-29.81h16.47c1.78 0 3.6.4 3.68 2.49.09 2.49-2.18 2.12-3.67 2.13-10.64.07-21.29 0-31.94 0-1.74 0-3.8-.33-3.8-2.31s2-2.34 3.79-2.34ZM7.59 45.16h15.43c1.91 0 3.53.52 3.42 2.6-.1 1.93-2 1.21-3.19 1.36-9.9 1.2-19.86.58-29.79.71a17.41 17.41 0 0 1-3-.07c-1.54-.24-3.14-.85-3-2.68.17-1.57 1.86-1.8 3.14-1.83 4.48-.11 9-.06 13.44-.08Z" transform="translate(159 203)"/><path d="M7.5 11.84c-5.31 0-10.63.05-15.95 0-1.87 0-4.15-.42-3.93-2.72.18-1.96 2.44-1.12 3.81-1.2 9.28-.3 18.57.58 27.85-.73a3.72 3.72 0 0 1 1 0c2.37.23 6.16-.37 6.21 2.39.06 3.6-3.8 2.08-6 2.19-4.31.2-8.64.06-13 .06Z" transform="translate(159 203)" style="fill:#77e5f8"/><path d="M-40.14 46.52a3.44 3.44 0 0 1 .37-.68c4.36-1.24 4.51-6.23 7.63-8.57A3.73 3.73 0 0 1-30 37.2c3.67 1.9 3.37 7.28 7.59 8.71l.58 1.14c-6.17 5.64-12.63 5.45-18.31-.53Z" transform="translate(159 203)" style="fill:#03c3f8"/><path d="M-21.1 9.79A8 8 0 0 1-27.94 14c-7.07 1.14-7.68.52-7.19-7.38a4.36 4.36 0 0 1 .57-1.35c1-1.4 2.94.36 4-1.12.77-.94 1.06-2.38 2.61-2.51 1.87.33 3.26 1.5 4.71 2.59 1.71 1.45 2.13 3.43 2.14 5.56Z" transform="translate(159 203)" style="fill:#b2daf4"/><path d="M-21.1 9.79C-22.28 8.22-22.28 6-24 4.7c-1.94-5-3.12-9.88.65-14.58C-16.61-3.64-16 1.38-21.1 9.79Z" transform="translate(159 203)" style="fill:#0fb0df"/><path d="M-42-8.16a7.58 7.58 0 0 1 4.09-3.46c2 2.28 1.43 5.07 1.12 7.61s.21 4.95-.07 7.42A9.09 9.09 0 0 1-42 9.09l-1-1.15c-1.4-5.46-1.79-10.87 1-16.1Z" transform="translate(159 203)" style="fill:#3ec4ed"/><path d="M-23.31-9.88C-24.74-5.07-23.63-.15-24 4.7L-28 2c-.81-3.73.56-7.95-2.56-11.15a3.28 3.28 0 0 1 .66-3.68c2.04 1.27 4.9.83 6.59 2.95Z" transform="translate(159 203)" style="fill:#15b3e1"/><path d="M-29.95-12.82v3.52c-5.85 3.38-5.85 3.38-4.41 11.18a3.08 3.08 0 0 1-2.32 2.49A1.37 1.37 0 0 1-38 4v-15.58a11.27 11.27 0 0 1 8.05-1.24Z" transform="translate(159 203)" style="fill:#33bfe8"/><path d="M-38 4a3.69 3.69 0 0 0 .94 0c1.72-.76 2.57 0 2.51 1.67-.1 3.1.51 6.23-.38 9.3-2.71-1.55-6.07-2.29-7.07-5.88.56-2.34 2.73-3.39 4-5.09Z" transform="translate(159 203)" style="fill:#d6e1e7"/><path d="M-.95 63q-1.38-2.48-2.74-5c5 .49 8.32-5.4 13.67-3.72a4.77 4.77 0 0 1-.06.76C7 58.64 4.13 62.33-.95 63Z" transform="translate(159 203)" style="fill:#144f9a"/><path d="M-42-8.16c-1.25 5.32-.89 10.72-.9 16.1C-45.7 2.4-46.82-3-42-8.16Z" transform="translate(159 203)" style="fill:#49c9f0"/><path d="M-34.91 14.9c0-2.59-.07-5.18-.06-7.77 0-1.54-.09-3-2.07-3.2l2.31-2c1.94.55 1.54 1.73.79 3A18.92 18.92 0 0 1-34 7.88c-.83 4.89 1 7.05 6.05 6.13-2.11 1.87-4.62.69-6.96.89Z" transform="translate(159 203)" style="fill:#9dd6f1"/><path class="cls-109" d="M-32.94-72c-.19 1.2-.37 2.4-.56 3.59-.8-3.15-.42-6.33-.25-9.51.27.33.53.66.8 1a3.7 3.7 0 0 1 .84 3.63 5.8 5.8 0 0 1-.83 1.29Z" transform="translate(159 203)"/><path class="cls-4" d="M81.15-88.89c-.71-2.28-2.75-2.89-4.65-3.16-3.85-.55-4.49-2.22-2.9-5.62 2.51-5.38 4.75-10.9 7.05-16.38.41-1 .82-2.06 2-1.81 4.56 1 6-2.23 8.11-5.26 3.85-5.47 9.53-5 15.57.82 7-7.72 13.49-7 18.42 2.09.48.88.74 2.24 1.84 2 5-1.22 5.16 2.69 6.33 5.63a114.71 114.71 0 0 0 4.72 11.45c2.34 4.46 1 6.62-3.61 7.42-2.18-.81-2-2.71-2.18-5.59.06 3.21.46 5.38-.61 7.39-1 1.52-2.73 2-4.26 2.79-5.88 1.65-11.23 4.93-17.4 5.62-1.44-.3-1.77-1.88-2.91-2.53a3.16 3.16 0 0 0-2.4-.41c-1.48.53-1.3 2.61-2.85 3.07a81.73 81.73 0 0 1-20.27-7.52Z" transform="translate(159 203)"/><path class="cls-5" d="M126.85-88a7 7 0 0 1 4-1.94c.74.36.59 1 .43 1.58 1.2 5.44.42 10.9.25 16.36-.1 3-2.26 3.87-4.79 3.88q-20.22.06-40.43 0c-3.9 0-5.75-1.8-5.5-5.88.29-4.64.27-9.3.38-14 6.33 2.78 12.89 5 19.22 7.81a26.4 26.4 0 0 0 3.59 1.61c4.34 1.17 20.33-5.48 22.85-9.42Z" transform="translate(159 203)"/><path d="M126.85-88c2.49 3-.27 3.9-2.08 4.55a116.72 116.72 0 0 0-15.16 6.09 6.65 6.65 0 0 1-5.36.23c-7.07-2.77-14-5.77-21-8.79-.84-.36-1.41-1.34-2.1-2a1.1 1.1 0 0 1 0-.92c7.3.81 13.59 4.68 20.45 6.82a3.38 3.38 0 0 1 1.26.22 9.93 9.93 0 0 1 1.11.6c2 1.29 3.45-.89 5.25-.78 5.94-1.87 11.51-4.77 17.63-6.02Z" transform="translate(159 203)" style="fill:#d0141f"/><path d="M131.23-88.38c-.14-.53-.28-1.06-.43-1.58.75-3.48-.63-6.93-.77-11.34 3.59 3.11 2.25 6.93 4 9.56-1.03 1.02-2.65 1.59-2.8 3.36Z" transform="translate(159 203)" style="fill:#e68531"/><path class="cls-6" d="M32.12 114.61a82.09 82.09 0 0 0 2.49 8.58c1.39 3.43 1.48 5.93-2.85 6.86a8.83 8.83 0 0 0-2.18 1.19c3.79 4.82 3.79 4.83.51 10.43Q23.57 152.85 17 164c-3.14-.81-2.13-3.4-2-5.28a77.44 77.44 0 0 1 1.72-10.34 24.72 24.72 0 0 0 1-4.74c1.16-5.4 1.77-10.89 2.78-16.31a19.16 19.16 0 0 1 .43-2.26c2.33-4.59 4.59-9.23 8.15-13a2.73 2.73 0 0 1 3.04 2.54Z" transform="translate(159 203)"/><path d="m29.12 112-7.23 12.89c-4.23-.15-6.43-3.27-8.86-6.06 0-.43 0-.86.07-1.29 2-.29 3.4-1.71 4.92-2.86 1.88-2.25 3.56-4.78 7-4.84 1.71.03 3.31.33 4.1 2.16Z" transform="translate(159 203)" style="fill:#d5dfe5"/><path d="m25 109.86-7 4.84c.21-2.27-.24-4-3.07-3.9l9.91-3.8Z" transform="translate(159 203)" style="fill:#e2813d"/><path class="cls-128" d="M17.94 147.84c-.54 3.54-1.13 7.07-1.63 10.61-.27 1.9-1 3.89.69 5.55l-1.86 1c-2.29-5.92-4.77-11.79-5.26-18.22-1-6.32-.39-12.38 2.79-18.05 2.2-.82 3.21.54 4.06 2.2a57 57 0 0 1 1.46 10.64 40.15 40.15 0 0 0-.25 6.27Z" transform="translate(159 203)"/><path d="m30.8 186.31.15 7.51c-2.87.41-5.72.7-7.94-1.79-1.57-1.79-2.82-3.63-.75-5.89Z" transform="translate(159 203)" style="fill:#f1b329"/><path class="cls-118" d="M22.26 186.14c-1 2.12 1.21 3.84.75 5.89-.82 1.09-2 .89-3.08.75-1.38-2.91-1.84-6.1-2.79-9.15a10 10 0 0 1-.3-2.94c.28-1.2.16-2.71 2-2.71 1.16 2.73 1.23 5.88 3.42 8.16Z" transform="translate(159 203)"/><path d="m16.12 175.9-2.07-5.06a6.12 6.12 0 0 0-1.05-3.91c-.23-.26-.29-.49-.17-.7s.21-.3.31-.3l1.83-1 2.92 10c-.46.62-.72 1.52-1.77.97Z" transform="translate(159 203)" style="fill:#085ab9"/><path d="m16.12 175.9 1.75-.93c.34 1 .67 2 1 3-1.08.76-.84 1.92-.9 3-.81.29-1.28-.18-1.69-.78-.46-1.05-1-2.1-.27-3.26Z" transform="translate(159 203)" style="fill:#095cb9"/><path d="M-32.92-73.13v-3.79c21 .55 42-1.66 63-1 1.84 1.44 3.42 2.95 1.34 5.36-2.84.09-5.68 0-8.51 0h-51.05c-1.59.04-3.32.65-4.78-.57Z" transform="translate(159 203)" style="fill:#0b7cd2"/><path d="M32-73c-.63-1.63-1.25-3.27-1.88-4.9l17.79.07c0 1.6.05 3.21.08 4.81A51.35 51.35 0 0 1 32-73Z" transform="translate(159 203)" style="fill:#0553b5"/><path d="m16 176.93 1 3c-1.15 2.66-3.76 3.1-6.07 3.88q-13.44 4.51-26.9 9h-12c1.43-2.42 4.19-2.63 6.39-3.4C-9.09 185.05 3.48 181 16 176.93Z" transform="translate(159 203)" style="fill:#1295ee"/><path d="M-15.95 192.77c1.22-2.07 3.42-2.39 5.42-3.13 9.13-3.4 18.66-5.64 27.53-9.72l1 1.08c0 1 .05 1.92.07 2.88.22 3.2-2.47 3.54-4.47 4.35C9.16 190 4.46 191 0 192.77Z" transform="translate(159 203)" style="fill:#0f92ed"/><path d="M0 192.77c2.48-3.71 7-3 10.4-4.79 2.57-1.32 6-1.11 7.64-4.13 1 2.9 2.9 5.61 1.88 8.93Z" transform="translate(159 203)" style="fill:#0d8cea"/><path d="M35.48 188.12c1.49 1.75 1.15 3.42.09 5.36-1.91-1.95-1.01-3.66-.09-5.36Z" transform="translate(159 203)" style="fill:#eaf3fa"/><path d="M32-73h16a3 3 0 0 1-.1 1H23c-.31-.21-.42-.42-.31-.62s.21-.31.32-.31Z" transform="translate(159 203)" style="fill:#2a6db8"/><path d="M83.36 121c-2.91-2.87-3.93-6-1.3-9.21 2-2.43 4.79-2.28 7.09-.27 3.76 3.3 1.74 6.46-.68 9.26.61 1.66 2.19.87 3 1.7 1.19 1.18 2.57 2.24 2 4.2-.58 2.17-2.41 1.3-3.75 1.36a75.86 75.86 0 0 1-8 0c-1.32-.07-3.26.89-3.76-1.25-.42-1.82.69-3.18 2.18-4.13 1.04-.58 2.07-1.03 3.22-1.66Z" transform="translate(159 203)" style="fill:#f9b727"/><path d="M8-143.89c1.23 1 1.92 2.06 0 3.09-1.13-1.03-1.47-2.06 0-3.09Z" transform="translate(159 203)" style="fill:#4c5b77"/><path d="M-59.95-93c-1.61 1.16-1.64 3.12-2.43 4.69-.63 1.25-.71 3.63-3.26 2.39L-68.71-95c3.6-1 2.08-5.42 4.79-7 2.34 2.59 3.16 5.81 3.97 9Z" transform="translate(159 203)" style="fill:#0da0c6"/><path class="cls-4" d="M-70.8-81.84c0 12-9.11 20.87-21.2 20.87a20.63 20.63 0 0 1-21.08-21c.1-11.54 9.59-20.66 21.61-20.78A20.48 20.48 0 0 1-70.8-81.84Z" transform="translate(159 203)"/><path d="M-67.39 13.39c1.39.84 4.1-.32 4.25 2.18.09 1.54-1.67 2.29-3.26 2.14a3.74 3.74 0 0 1-3.41-3c-.32-1.78 1.34-1.29 2.42-1.32Z" transform="translate(159 203)" style="fill:#fdf3de"/><path class="cls-1" d="M-62.49 6.12c1.57 1.09 1.57 2.17 1 3.27a1.31 1.31 0 0 1-1.15.19c-.72-1.05-.58-2.17.15-3.46Z" transform="translate(159 203)"/><path d="m11.05 160.94 1 3c-7.9 3.79-16.36 5.95-24.67 8.56a2.37 2.37 0 0 1-2.3-.57l-1-2a170.64 170.64 0 0 1 26.97-8.99Z" transform="translate(159 203)" style="fill:#1ba4f2"/><path class="cls-147" d="M-14.92 171.93 6.25 165c1.88-.62 3.75-1.32 5.8-1.06l1.07 2c0 .33-.09.67-.14 1l-27.68 8.95c-.07-1.33-.14-2.64-.22-3.96Z" transform="translate(159 203)"/><path d="m13 128.92-3.12 17.83C8.51 146.3 8.42 145 8 143.94Q5.08 131.48 2.18 119c2.29.84 2.08 5.34 5.86 4 .62.53 1.31 1 1.92 1.55 1.27 1.27 3.62 1.81 3.04 4.37Z" transform="translate(159 203)" style="fill:#6ce0f7"/><path d="M10.68 99.38c-1.21-.15-2.59-.22-3.55-1.23S4.6 96.56 5.37 95c.61-1.24 2.05-.64 3.16-.56a34.18 34.18 0 0 1 3.92.35c1.46.25 3.74-1.94 4.23.48.44 2.2-2.16 3-3.95 3.74a9.76 9.76 0 0 1-2.05.37Z" transform="translate(159 203)" style="fill:#fdf8ee"/><path d="M15.91 88 14 86.12c-.55-1.33-2.16-2.4-1-4.15v-1.14a1.33 1.33 0 0 1-.13-1.29c1-1.45 2.14-2.48 4-2.06a2.85 2.85 0 0 1 1.47 1.41 2.81 2.81 0 0 1 0 1.32 4.16 4.16 0 0 0 .46 4.72c1.07 2.92-.8 3.15-2.89 3.07Z" transform="translate(159 203)" style="fill:#e8ae30"/><path d="M8.52 81.9c2.2 1 .43 2.6.51 3.91S8.72 88.5 10.57 89c.92.25 2.72-.79 2.59 1.23-.09 1.33-1.31 1.77-2.61 1.77a3.15 3.15 0 0 1-3.46-2.22c-.58-1.61.91-3.22-.16-4.78-.53-1-.07-1.72.43-2.49a2 2 0 0 1 1.16-.61Z" transform="translate(159 203)" style="fill:#ea5443"/><path d="M-.79 86-4 84.12c1.15-1.6.16-3.5.74-5.18A3.38 3.38 0 0 1-.92 77c1.57-.23 3.11-.31 4.11 1.28C.6 81 .09 83.39 4.33 85a1.84 1.84 0 0 1-.29 2 6 6 0 0 1-4.83-1Z" transform="translate(159 203)" style="fill:#f1b42c"/><path d="M21.91 75.81c1.17-1.39 2.62-1 4.07-.67a7 7 0 0 1 0 5.55l-.85 1.19L24 82c-.74.35-1.22-.07-1.67-.57a4.62 4.62 0 0 1-.88-2.43c.03-1.1-.18-2.21.46-3.19Z" transform="translate(159 203)" style="fill:#d7803d"/><path d="m4 86.94-.08-2.24c-.94-2 .9-3.34 1.24-5a2 2 0 0 1 2 .07c1 .9.25 2.25.79 3.27l-1 2Z" transform="translate(159 203)" style="fill:#d8b142"/><path d="M15.91 88c.92-.81 3.39-.36 2.3-2.81a2.43 2.43 0 0 1 2.8-1.6 2.6 2.6 0 0 1 1.46 1.45c-1.08 3.47-3.21 4.57-6.56 2.96Z" transform="translate(159 203)" style="fill:#ca5859"/><path class="cls-5" d="M22.47 85.07 21 83.92a2.29 2.29 0 0 1-.54-2.18c.55-1.13 1.34-1.57 2.51-.82L24 82a3.24 3.24 0 0 1-1.53 3.07Z" transform="translate(159 203)"/><path d="M-.79 86a7.56 7.56 0 0 1 4.84 1C2.09 88.47.33 88.93-.79 86Z" transform="translate(159 203)" style="fill:#95804c"/><path d="M13.09 80a1.48 1.48 0 0 0-.13.88L9 81a1.39 1.39 0 0 1 0-1.48c1.53-1.26 3.06-2.52 4.09.48Z" transform="translate(159 203)" style="fill:#475669"/><path d="m13 82 1 4.15C12.44 85 11.05 83.92 13 82Z" transform="translate(159 203)" style="fill:#8d7c4f"/><path d="M9 80.14V81c-.15.32-.31.64-.47 1l-.61 1c-1.37-.65-.74-2-1-3A1.7 1.7 0 0 1 8 79.46a1.39 1.39 0 0 1 1 .68Z" transform="translate(159 203)" style="fill:#384e6f"/><path class="cls-8" d="M-3 79.09c-.72 1.6.82 3.66-1 5-.09-.53-.19-1.05-.29-1.57.19-1.2.37-2.39.55-3.59.28-.24.54-.2.74.16Z" transform="translate(159 203)"/><path d="m13 128.92-3.92-4.16c-.37-1.8 1.56-2.5 1.91-4l2.07-2c3.83.73 5.3 4.92 8.86 6.06 0 .73-.07 1.47-.11 2.21-3.37-1-4.34 1.87-5.91 3.75-.9-.73-1.38-2.07-2.9-1.86Z" transform="translate(159 203)" style="fill:#1b84d3"/><path class="cls-2" d="M11 120.8c.19 1.72-1.16 2.7-1.91 4-1.08-.16-1-1-1-1.76Z" transform="translate(159 203)"/><path d="M-3 79.09a6.51 6.51 0 0 0-.77-.09 29.74 29.74 0 0 1 1.3-13.63l3.55 4.31c0 2.42-.81 4.71-1.2 7.07a7.18 7.18 0 0 1-.81 1.22Z" transform="translate(159 203)" style="fill:#0953b2"/><path class="cls-6" d="M17.37-91.21 18-90c-2.29-.35-4.83 1.12-6.87-1l.75-.17Z" transform="translate(159 203)"/><path d="m14-136.92.06-5c1.37 1.72 1.45 3.37-.06 5Z" transform="translate(159 203)" style="fill:#f8b840"/><path d="M-32.92-73.13 3-72.88c.33.2.43.39.31.56a.47.47 0 0 1-.37.25l-35.88.07c.01-.36.01-.75.02-1.13Z" transform="translate(159 203)" style="fill:#4d8cc5"/><path d="M3-72.07a7.36 7.36 0 0 0 0-.82h15c.33.2.45.41.34.62s-.22.27-.34.27Z" transform="translate(159 203)" style="fill:#4674a6"/><path d="M18-72v-1h5v.94Z" transform="translate(159 203)" style="fill:#4686c3"/><path d="m-.95 63 10.87-7.95A7.36 7.36 0 0 0 13 58c-.11 3.58-4.29 7.75-9 9-2.51-.31-3.76-2.14-4.95-4Z" transform="translate(159 203)" style="fill:#0e4692"/><path d="M-.82 77c-.53-2.76-.27-5.31 1.9-7.37L6 73c.91.79 2.28 1.05 2.73 2.37a4 4 0 0 1-.37 3.61c-1.59.76-2.81-.51-4.21-.78C2.65 77 .7 77.93-.82 77Z" transform="translate(159 203)" style="fill:#e9aa62"/><path d="M4 67c3-3 7.1-4.9 9-9l3 2a12.11 12.11 0 0 1-9 9 3.09 3.09 0 0 1-3-2Z" transform="translate(159 203)" style="fill:#0c418d"/><path d="M23 63c1.15 0 2.51-.22 3.16 1 .77 1.42-.73 2-1.47 2.77C22 69.37 19 71.2 15 71a9.82 9.82 0 0 1 8-8Z" transform="translate(159 203)" style="fill:#0a3681"/><path d="M7 69a47.75 47.75 0 0 0 9-9l4 1c-1.32 5.24-5.36 7.44-10 9-1.11 0-2.28.13-3-1Z" transform="translate(159 203)" style="fill:#0b3d89"/><path d="M10 70c3.31-3 7.51-5 10-9l3 2a37.69 37.69 0 0 0-8 8c-1.69-.25-3.59.62-5-1Z" transform="translate(159 203)" style="fill:#0a3985"/><path d="M8 79.06V75c1.62-1.5 2.85.76 4.34.45a8 8 0 0 0 3.76.35 2.19 2.19 0 0 1 .9.2 1.3 1.3 0 0 1-.06 2c-1.69-.14-2.52 1.39-3.83 2-1.45-1.74-2.76-.42-4.1.19a5.41 5.41 0 0 0-.87-.34c-.4-.09-.56-.23-.47-.42s.19-.37.33-.37Z" transform="translate(159 203)" style="fill:#f09f50"/><path class="cls-228" d="m16.92 78 .08-2 4.93-.19c.26 1 1.67 2 .16 3.14s-2.77.09-4.15 0Z" transform="translate(159 203)"/><path d="m13 76-5-1c-.66-.69-1.33-1.38-2-2.08 2.59 0 4.69 1.49 7 2.26.2.18.27.36.2.54s-.14.28-.2.28Z" transform="translate(159 203)" style="fill:#e27c32"/><path d="M26 80.69v-5.55c1 1.86 1.63 3.7 0 5.55Z" transform="translate(159 203)" style="fill:#d17838"/><path class="cls-228" d="M13 76v-.81c1.07-.07 2.22-.47 3.06.62-.93 1.41-1.96 1.46-3.06.19Z" transform="translate(159 203)"/><path d="m-29.94 37.71-2 .19A1.68 1.68 0 0 1-33 37a18.15 18.15 0 0 1-.93-2.78c-.35-2 .26-3.76 2.55-3.95 2.48-.21 3.57 1.35 3.45 3.71a17.48 17.48 0 0 1-.6 2.89c-.22.64-.83.72-1.41.84Z" transform="translate(159 203)" style="fill:#fbf3f4"/><path d="m-33 37 1 .94c-.76 1.58-1.64 3.11-2.24 4.76-1 2.69-2.6 4-5.54 3.18 1.69-3.44 3.56-6.7 6.78-8.88Z" transform="translate(159 203)" style="fill:#eaf2f6"/><path d="m-29.94 37.71 1.41-.88a19.17 19.17 0 0 1 6.1 9.08c-2.34.51-3.62-.5-4.58-2.64-.85-1.9-1.05-4.19-2.93-5.56Z" transform="translate(159 203)" style="fill:#e3f0f6"/><path d="M-33.94 5c-.13-1 .13-2.17-.79-3-3.75-7.48-2.27-11 4.8-11.3C-24.86-6.27-27-2-28 2l-2 3a15.23 15.23 0 0 1-3 0Z" transform="translate(159 203)" style="fill:#d6f1f9"/><path d="M-33 5c1-1.31 2-1.34 3 0-1 2-2 1.94-3 0Z" transform="translate(159 203)" style="fill:#f0f7fb"/><path d="M114.52-115.57c-1.71-1.05-5.12 1.42-5.27-1.63-.14-2.85 2.52-5 5.8-4.84 3 .14 6.51 1.68 6.17 4.53-.41 3.44-4.4.9-6.7 1.94Z" transform="translate(159 203)" style="fill:#71e2f3"/><path d="M92-115.93c2.7-6 7.23-7.29 10.78-3.76a2.83 2.83 0 0 1 1 2.64c-.29 1.29-1.47 1.1-2.42 1.11-2.9.03-5.87.01-9.36.01Z" transform="translate(159 203)" style="fill:#76e0eb"/><path d="M103.9-85.78c1.14-.18 2.28-.34 3.11.76 1.55 1.11 1.37 2.5.33 3.73-1.28 1.54-2.92.86-4.45.35h.06c-.64-1.77-1.17-3.57.95-4.84Z" transform="translate(159 203)" style="fill:#ea555c"/><path d="M102.89-80.94c2.24-.49 5.82.38 4.11-4.08 2.24-.12 2 1.65 2.22 3-1.75 2.47-3.55 4.65-6.33 1.08Z" transform="translate(159 203)" style="fill:#f7ded5"/><path d="M103.9-85.78c-.31 1.63-.63 3.26-1 4.89l-1.35-1.18c.45-1.5-.22-3.6 2.35-3.71Z" transform="translate(159 203)" style="fill:#fbf3df"/><path d="M15.87 130.87c-.09-2.21.1-4.37 2.3-5.54 1.86-1 2.38 1.24 3.61 1.79l-2.92 16.74c-1.9.55-1-1.39-1.7-1.91Z" transform="translate(159 203)" style="fill:#6bdff5"/><path d="m17.16 142 1.7 1.91a5 5 0 0 1-.92 4c-1.44-1.91-.68-3.98-.78-5.91Z" transform="translate(159 203)" style="fill:#53bee6"/><path d="M-98.8-83.33c.6-2.54-1.63-6.64 1.3-8.4 3.5-2.1 6.34 1.81 9.11 3.49 9.13 5.54 9 5.7.23 11.61-2.83 1.9-6 5.68-8.94 4s-1.62-6.34-1.7-9.77Z" transform="translate(159 203)" style="fill:#fdfcfb"/><path d="M20.88 82.17c0 .58.06 1.17.08 1.75l-2.75 1.3c-3.09-1.65-3.29-3.43-.25-5.37 1.98-.51 2.42.95 2.92 2.32Z" transform="translate(159 203)" style="fill:#aed2ed"/><path d="M20.88 82.17 18 79.85a2 2 0 0 0 0-.87c1.37-1.74 2.76-.55 4.15 0 .28.66.57 1.31.86 2a2.16 2.16 0 0 0-2.13 1.19Z" transform="translate(159 203)" style="fill:#b74e51"/><path d="M5.16 80.24c1 1.88-1.08 2.9-1.24 4.46-2.1.39-4.22.44-4.62-2.23s1.51-3.38 3.63-3.78a1.86 1.86 0 0 1 1.44-.2c.71.38 1.22.85.79 1.75Z" transform="translate(159 203)" style="fill:#7adfe6"/><path d="m4.25 78.84-1.32-.15c-1.09-1.25-2.57-.53-3.86-.76 0-.31.07-.62.11-.92l5.7.1c.6.89.12 1.33-.63 1.73Z" transform="translate(159 203)" style="fill:#55646f"/><path d="m4.25 78.84.63-1.73 3.09 2a6.47 6.47 0 0 0 .15.74L6.87 80l-1.71.26Z" transform="translate(159 203)" style="fill:#90835e"/></svg>