<svg xmlns="http://www.w3.org/2000/svg" id="Слой_1" data-name="Слой 1" viewBox="0 0 350 437"><defs><style>.cls-1{fill:#f3fcfe}.cls-2{fill:#00c3f9}.cls-3{fill:#3795e7}.cls-4{fill:#fcc12b}.cls-6{fill:#01c3f9}.cls-10{fill:#f89115}.cls-11{fill:#11238d}.cls-15{fill:#03c4f9}.cls-16{fill:#f3fcfd}.cls-19{fill:#02c4f9}.cls-38{fill:#fcc435}.cls-41{fill:#fbc537}.cls-45{fill:#2a3b99}.cls-47{fill:#fcc02e}.cls-55{fill:#e68b91}.cls-66{fill:#0f218b}.cls-87{fill:#fcbc28}.cls-88{fill:#fcbd29}.cls-106{fill:#86e2fc}</style></defs><path d="M.1 218.5Q.1 111.3 0 4.09C0 .67.67 0 4.09 0Q175 .18 345.91 0c3.42 0 4.09.67 4.09 4.09q-.17 214.41 0 428.82c0 3.42-.67 4.09-4.09 4.09Q175 436.82 4.09 437c-3.42 0-4.1-.67-4.09-4.09q.2-107.2.1-214.41Z" class="cls-1"/><path d="M172 268c-11.44-.08-21.54-4.12-30.92-10.33 1.41-2.91-.85-1.58-1.9-1.65-5.18-5.84-10.18-11.85-13.24-19.18a2.5 2.5 0 0 1-1-2.08c-2.63-12.84-3.43-25.59 1.36-38.18A35.62 35.62 0 0 1 130 189c.9-.47.42-1.58 1-2.19 9.86-14.31 23.69-21.41 40.86-22.41 1.21.68 1.07 1.87 1.12 3 .12-1.23-.13-2.54.82-3.59 11-1 20.53 2.79 29.05 9.15A43.4 43.4 0 0 1 215.37 187a3.89 3.89 0 0 1 .47 2.22c4.5 10.68 7.54 21.67 6.16 33.5a51.78 51.78 0 0 1-2.5 10.55c.2 1.23.81 2.54-.68 3.44-3.74 7-7.57 14-14 19-1.71.81-2.08-1-3.08-1.51 1.14 1.24 2.7 2.44 1.29 4.51-8.63 5.61-17.54 10.43-28.29 10a3.5 3.5 0 0 1-1.69-1.66c-.43.29-.66.72-1.05.95Z" class="cls-2"/><path d="M218.83 236.71c.13-1.17-.17-2.42.69-3.44 8.47 1.72 17 1.34 25.61 1.34 2.4 0 2.3-2.11 2.68-3.57 5.12-19.32 20.84-31.39 40.33-30.89A36.64 36.64 0 0 1 322.77 229c-.14 8.79-4 16.21-8.72 23.26-.89 1.32-1.87 3.18-3.76 2.62s-1.66-2.66-1.69-4.26c-.12-6.44 0-12.89-.07-19.33 0-2.93.17-5.88 0-8.81-.11-1.58.5-3.66-1.88-4.32-10.42-1.25-20.87-.44-31.3-.54-2.56 0-4.67.86-4.8 3.86-.41 10.11-.14 20.21.22 30.31a5 5 0 0 0 .89 2.29c1.42 2 3.57 1.44 5.48 1.46 8.1.07 16.2 0 24.31 0 2 0 4-.23 5.86.64 2.25 2.66-.21 4-1.76 5.1-12.23 8.41-25.65 12.14-40.51 9.77-2.39-.38-4.17-2-6.19-3.08a33.32 33.32 0 0 1-11.64-25.2c-.06-5.34-1.78-6.29-6.5-6.07-7.31.38-14.6.05-21.88.01Z" class="cls-3"/><path d="M271.19 122.7c5.89 1 11.81-1 17.7.19 1.09.23 2.35-.07 3.08 1.13 2.36 5.72 1.2 11.74 1.38 17.64a94.71 94.71 0 0 1-.12 12.34c-.39 3.92-2.32 5.54-5.51 4.16-6.5-2.82-13.45-4.67-19.34-8.8-2-1.52-1.41-4.93-4.31-5.78-5.83-1.4-6.95-.44-6.13 5.31.14 1 .4 2-.52 2.74-8.74 4.12-18.31 5.81-27.23 9.43-1.49.61-3.32.88-4.21-1.27-1.27-10.44-.8-20.92-.32-31.37.22-4.9 2.75-6.89 8-7 10.64-.16 21.29-.27 31.93.07a8.57 8.57 0 0 1 5.6 1.21Z" class="cls-4"/><path d="M13 65c.64-1.18-.43-2.86 1.11-3.77 2.46 11.13.89 22.41 1.31 33.62.1 2.65-.17 5.31.71 7.88.07 4.53 2.58 5.91 6.81 5.7 7.46-.37 14.93.21 22.42-.67 8.33-1 13.1 3.41 13.15 11.68.09 17 .22 33.93-.07 50.9-.09 2.1.3 4.32-1.44 6-.05 2.14-.11 4.27-.17 6.41a3 3 0 0 1-1.41 1.13c-4.19.9-8.46.11-12.68.59-5.77 0-11.55.17-17.32-.09-5.3.13-10.61 0-15.92 0-2.34 0-4.65.1-6.7 1.44-2.36.91-3.79-1.82-6-1.52-6 0-11.91-.14-17.86.1-3.08-.18-6.41.92-9-1.8-.1-2.3-.19-4.61-.29-6.91a3.81 3.81 0 0 1 0-4.54c.73-15.44.26-30.88.26-46.32 0-1.66-.1-3.32-.06-5 .17-8.45 2.27-10.54 10.77-10.49 9.29.06 18.59 0 27.87.45 3.66.16 4.94-.91 4.88-4.55-.22-13.35-.26-26.8-.37-40.24Z" style="fill:#254477" transform="translate(159 203)"/><path d="M54.22 173.65c0-6.66-.18-13.32.07-20 .14-3.79-.49-5-4.83-4.33-10.16 1.61-18.83-6.28-19.22-16.75a17 17 0 0 1 17.41-17.67c11.57.38 20.2 13.35 15 23.61-4.18 8.23-2 16.61-2.44 24.89-.58 10.28-.21 20.6-.11 30.94 0 2.56.06 4.43-3.51 4.4-3.82 0-2.26-2.64-2.29-4.16-.16-6.98-.07-13.96-.08-20.93Z" class="cls-6"/><path d="M62.21 216.45c9.08 1.43 14.71 6.85 17.66 15.32.38 1.08 1.06 2.69.59 3.33-2.81 3.9 1 8.94-2.55 12.77-2.14 2.29-4 4.9-6.53 6.74a21 21 0 0 1-25-.33 12.91 12.91 0 0 1-1.83-2.28c-3.94-3.69-6.24-7.75-3-13.08l-2.38-2.23c-.62-9.19 6.44-17.57 16.61-19.6a27.59 27.59 0 0 1 6.43-.64Z" class="cls-2"/><path d="M109-55c6.62 3 13.27 5.92 19.84 9 2.92 1.37 4.14.29 4.07-2.56-.27-9.57.78-19.17-.59-28.72A1.76 1.76 0 0 1 133-79c2.61 1.08 2.94 3.36 2.94 5.73q0 17.2-.14 34.39c-1.23 3.29-3.82 4.4-7.07 4.42-17.95.11-35.89.16-53.83 0a9.16 9.16 0 0 1-7.12-3.05c-.89-1.57-1.06-3.08.38-4.44A225.85 225.85 0 0 1 98.86-52l.68.06c4.72 3.8 6.53-1.31 9.46-3.06Z" style="fill:#fbad20" transform="translate(159 203)"/><path d="M-82.93-30.07c-1.92-2.7-.66-5.74-.8-8.6-.26-5.28-.23-10.58-.19-15.87 0-7.16 1.24-8.31 8.37-8.43.83 0 1.65-.07 2.48-.1a8 8 0 0 1 1.36-.79 4.27 4.27 0 0 1 3.72.55c0 6.22 2.51 11.57 5.79 16.65 1.94 3.72 4.53 1.32 6.92.71 5.61-.86 11.13-1.82 15.24-6.39 1.22-1.37 2.86-1.81 4 .38.31 5 .07 10 0 14.92 0 4-2 5.5-7.18 5.6-10.31.2-20.62.08-30.94.06a25.12 25.12 0 0 0-8.77 1.31Z" style="fill:#ee4b53" transform="translate(159 203)"/><path d="M150.67 28v23.18A40.28 40.28 0 0 0 162 31.05a12.49 12.49 0 0 1 1.77-5.05c5.79 22-6.64 46.92-31.21 50.35-12.66 1.77-23.79-1.91-32.75-11.35 16.38 5.23 31.37 1.57 45.5-7.27a8.46 8.46 0 0 0 3.69-3.9c-1-7.59-.36-15.21-.33-22.81.01-1.27.25-2.72 2-3.02Z" style="fill:#0450b2" transform="translate(159 203)"/><path d="M80.05 347.83c-2.24 3.87-6 5.71-10 6.74a41.65 41.65 0 0 1-20.66.35c-9.19-2.26-11.55-5.46-11.1-15.07.79-11.13-.07-22.28.45-33.4a1.22 1.22 0 0 1 1.37-.6c1.66 1.64 1 4.28 2.57 6a17 17 0 0 0 4.83 3.53c.62.32 1.24.64 1.87 1 5.74 1.13 11.41 1.68 17.26.31 5.33-1.25 9.24-3.52 10.13-9.38.23-1.47.71-3 2.41-3.48 1.76 1 .78 2.63 1 4a14.09 14.09 0 0 1 1.08 2c1.3 3.08.53 6.2.23 9.31-.29 1.71 1.94 2.28 1.81 3.92-.63 1.63-1.82 3.48 1.43 3.55 3.63.3 7.37-.71 10.88.92 1.13 2.5-1.07 2.57-2.39 3.06-2.8 1-5.79.84-8.74 1 3.47 1.44 7 1.05 10.48.18 1.69-.41 4.25-1.49 4.79.66.6 2.35-2.16 2.94-4 3.47-3.82 1.08-7.9 0-11.75 1.59a17.38 17.38 0 0 0 11.94.1 30.11 30.11 0 0 0 3.09-1.6c1.64-.78 3.73-3.4 5-1.41 1.35 2.17-1.24 4.07-3.17 5.39-3.76 2.58-8.16 2.55-12.43 3-1.21.13-2.61-.7-3.9.92A19.17 19.17 0 0 0 99 342.08c1-.54 1.87-1.37 2.94-1.86.76-.35 1.64-.74 2.25.05a2.09 2.09 0 0 1-.1 2.35c-1.74 3-4.58 4.18-7.77 4.84-5.41 1.11-10.85.09-16.27.37Z" class="cls-10"/><path d="M174.14 164.4c-.11 2.25-.22 4.51-.35 7.29-3.06-2.24-1.15-5.1-1.93-7.3q.08-18.93.13-37.86c0-1.6.46-3.24-2.26-3.38-19.38-1.06-33.32-16.15-35.57-34.76-.06-.5-.2-1-.3-1.47-1.35-1.67-1.07-3.33.05-5 1.57-10.85 5.84-20.15 14.48-27.39 18.48-15.5 47.59-8.9 57.32 13.11A77.81 77.81 0 0 1 209.6 80c.92 2.45.65 5.1 1.26 7.61-1.32 18.07-12.75 31.88-30.36 36.2-3.8.93-5.18 2.61-5.1 6.45.18 9.14.06 18.28.05 27.42 0 2.32.11 4.67-1.31 6.72Z" class="cls-11"/><path d="M157 386.09c2.68-.88 3.26 1.06 3.91 2.9 4.95.62 9.94.35 14.9.53 3.38.13 6.21-.61 8.38-3.31l17.81-.12a41.81 41.81 0 0 0 13-.09 3.1 3.1 0 0 1 .8-.18c2.29.1 4.58.31 6.87.28 5.88-.08 6.48.9 4 6.9-3.64 2.32-7.7 1.13-11.58 1.37-2.79.17-5.59-.11-8.38.22-27.1.12-54.2 0-81.3.06-2.51 0-5 0-7.17-1.62-2.36-6-1.73-7 4.31-7.06 2.12 0 4.25-.17 6.37-.25l9.22.45a108.52 108.52 0 0 0 18.86-.08Z" class="cls-2"/><path d="M235 290q7 9 13.93 17.92c2.11 2.7 3-.09 4.08-1.06 7.51-6.94 15.93-8.8 25.58-5.1 3.71 1.43 6.37 4 9 6.8 2.09.37 4.19-.71 6.27.06 13.27.75 21.17 13.9 16.72 24.66a8.88 8.88 0 0 0-.45 2.92c-.67 13-5.61 17.94-18.7 18.79-1.59 1.41-3.55 1.37-5.49 1.39h-30.39a40.58 40.58 0 0 1-7.92-.77c-6.87-1.39-11.33-5.31-13-12.14-1.67-6.64.38-12.57 5.45-16.56 4.66-3.67 5.11-8.66 6.61-13.46.67-2.16-.66-3.79-1.86-5.42-3.64-5-7.62-9.65-11.33-14.55-.78-1.29-1.75-2.51-1.82-4.12a2.09 2.09 0 0 1 2.1-1.65A2.25 2.25 0 0 1 235 290Z" class="cls-11"/><path d="M-78.95 144.83c3.61-1.91 7.49-.44 11.22-.89 4.82-.59 9.78-.86 12.25-6.18-5 5.1-11.39 5.36-17.91 5.21-2-.05-3.8-.2-3.52-2.88.3-2.91 2.44-2 4.17-1.92 6.7.45 13.14.16 17.4-6.4-5.26 4.79-11.51 5.8-18.24 5.22-2.08-.18-4.31-.14-4.22-3s2.56-1.94 4.19-2.06c4.68-.33 9.59.95 14.53-2.36-3-.83-4.83 1-6.91 1.14a45.52 45.52 0 0 1-8.42-.2c-1.41-.2-3.77-.36-3.39-2.78.45-2.9 2.4-1.14 3.86-1 3.82.41 7.57.3 11-1.87-2.6-2.47-7.14-2.59-8.32-6.8 2-2.15 4.9-1.32 7.35-2 4.8-1.34 5.49-2.25 4.63-7.15.15-.79.41-1.44 1.43-1 3.16.88 3.81 3.29 3.81 6.15 0 6.8 0 13.59.08 20.39 0 2-.23 3.75 1.82 5.61 2.67 2.41-.25 3.46-2.29 4.11a45.15 45.15 0 0 1-24.52.66Z" style="fill:#fbab21" transform="translate(159 203)"/><path d="M-40.73 190H48c4.55 1 9.15.17 13.71.46 1.78.11 3.62-.48 5.31.49-1.71 4-5.28 4-8.75 4-16.43 0-32.86-.11-49.29-.14h-40.81c-3.78-.07-7.38-.56-8.9-4.81Z" style="fill:#0c77d1" transform="translate(159 203)"/><path d="M-37-53c-5.25 5.16-11.21 8.65-18.92 8-2-3.63-4.32-4.28-7.2-1-1.11-3.46-4.24-5.75-5.14-9.42-.67-2.69-1-5.14.32-7.64-1.26-1.9-1.7-3.7.59-5.18 3.85 5.58 9.54 3.66 14.73 3.49 1.87-.07 2.09-1.83 2.2-3.36.18-2.46-.08-4.93-.07-7.4a2.28 2.28 0 0 1 .6-1.4l1.7-3.09.43 2.68c.23.45.47.9.74 1.33.75 2.38.32 4.85.49 7.28.13 2 0 4 2.72 4.44a6.47 6.47 0 0 1 1.9 1.27c1.72.11 3.58-.6 5.07.85.61 3.07 2.36 6.15-.16 9.15Z" style="fill:#f57174" transform="translate(159 203)"/><path d="M285.94 354.92h5.47c-5 15.8-15 23.89-32.18 24.4-14.39.42-28.83 1.07-43.24 0v-5.35c1.88-1.85 4.3-1.55 6.59-1.55 12.14-.05 24.28 0 36.42 0 10.54 0 18.54-4.51 23.73-13.77a8.56 8.56 0 0 1 3.21-3.73Z" class="cls-15"/><path d="M90 246.2c-2.87 12.72-16.31 23.44-29.83 23.8-2 1.14-4.06 1.73-6-.06-3.32-1.65-6.81-3-10.17-4.38-9.59-3.94-14.24-12.84-16.82-22.61-.75-2.84.64-2.35 2.14-1 5.32-.66 4.74 4.5 6.89 7 6.78 12.4 21 19 34.32 12a25.38 25.38 0 0 0 8.48-6.6 23.54 23.54 0 0 0 5.19-9.42c.59-2.42 2-3.85 4.56-3.31 3.08.6 1.62 2.79 1.24 4.58Z" class="cls-6"/><path d="m47 295 1.57-1c6.71-.51 13.41-2 20.16 0a16.87 16.87 0 0 1 5 1.93l1.31 1.22c4.34 3.05 4.61 5.5 1 9.07a12.51 12.51 0 0 1-6.56 3.38c-7.49 1.38-15 2.37-22.41-.68-3.38-1.4-7.08-2.8-7.1-7.31s3.92-5.3 7.03-6.61Z" class="cls-16"/><path d="M128.67 374.22v4.55a478.21 478.21 0 0 1-50.8-.29c-9.6-.63-16.4-6.73-21.62-14.51-.78-1.16-2.2-2.8-.4-3.82 1.3-.74 3.3-1.58 4.7.8a24.88 24.88 0 0 0 6.6 7.39A25.71 25.71 0 0 0 83.23 374c15.14-.07 30.29.12 45.44.22ZM133.91 82c0 1.66 0 3.32-.05 5-9.78 0-19.57-.1-29.36 0-8.86.11-15.6 4.64-21.71 10.61-3.13 3 1.48 3.57 1.37 5.94-3.73 1.05-7.62-.12-11.45.06-2.06.1-1.77-1.62-1.61-2.89.31-2.46.76-4.91 1.16-7.36a1.08 1.08 0 0 1 1-1.06c1.86 2.43 3.37 3.37 6.17.54 8-8.14 18.22-11.06 29.48-10.9 8.36.06 16.68-.01 25 .06Z" class="cls-15"/><path d="M68.13-38c3.06 1.92 6.41 2.13 9.94 2.11 16.4-.1 32.8-.13 49.2 0 3.35 0 6.18-.53 8.5-3 .87 3.83-.23 6.82-3.73 8.79-1.95 1.58-3.89 1.8-5.85 0-17-.27-34-.67-51 .22a4.22 4.22 0 0 1-2.42.47C67.13-32 66.33-33.48 68.13-38Z" style="fill:#f56f3b" transform="translate(159 203)"/><path d="m74.51 85-1.5 1c-2.12 2-4.7 3.23-7.11 4.77-7.42-.34-14.9-8.04-14.49-15.07.16-2.94 2.92-4.81 3.52-7.63.47-1 1-1.81 2.27-1.77.66 0 1.61.19 1.93-.15 4.24-4.65 9.14-.33 13.66-1a2.87 2.87 0 0 1 2.33 1.56C75.74 70.41 79 73.07 79 77c-1.52 2.62-.8 6.56-4.49 8Z" style="fill:#ee4c54" transform="translate(159 203)"/><path d="M133 55.32a12.44 12.44 0 0 1-12.36 12.89 13.63 13.63 0 0 1-13.77-12.9 12.78 12.78 0 0 1 12.17-13.23A13.58 13.58 0 0 1 133 55.32Z" class="cls-19"/><path d="M-77 21.84a41.31 41.31 0 0 0-12.83-11.66c-4.65-2-9.46-2.9-14.46-1.74-2.51.58-3.8-.37-4.39-2.69-1.47-1.6-1.45-2.53.9-3.37C-92-3.23-71.59 8.53-68.89 24.93c0 2.38 2.45 5.21-1.26 6.91l-1.66.1c-3.59-2.41-2.72-7.13-5.19-10.1Z" style="fill:#02c3f9" transform="translate(159 203)"/><path d="M-112 92c-2 2.43-7 2.46-5.78 7.32 1.12 4.55 5.33 5 8.75 6 7.54 2.23 15.07 1.43 22.35-1.37 5.45-2.1 6.3-5.38 2.75-9.87 4.42.55 5.44 2.23 4.07 6.68-.14.3-.3.59-.41.9-1.33 3.92-.84 8.81-5.39 11.06a32.41 32.41 0 0 1-17.22 3.15 60.31 60.31 0 0 1-8.06-1.72c.85-2.1 0-4.76 2.14-6.46a46.29 46.29 0 0 0 18.28-.05c.62-.4-.63-.71-.13-.28.18.15.08.29-.29.37-5.2 1.19-10.43.94-15.66.3-1.1-.13-2.22-.87-3.18.3-1 1.41-.61 3.52-2.24 4.65a8.14 8.14 0 0 1-5-3.29c-1.17-1.64-.16-4-1.72-5.48l-.21-1.23a5.11 5.11 0 0 1-1-5.93c1.18-4.05 4.07-5.37 7.95-5.05Z" style="fill:#fcc02b" transform="translate(159 203)"/><path d="M-37-53c.65-3-1.21-6.13.18-9.16 2.94 1.12 2.25 3.89 2.31 5.95.23 7.41-.63 14.82 0 22.25.56 6.39-4.21 5.92-8.35 6.14-1.12.9-2.24.38-3.36 0-10-.06-20.06 0-30.09-.23-2.31 0-5.08.76-6.63-2-.21-3.07 1.89-2.87 4-2.87 12.07 0 24.14-.16 36.2.09 4.41.1 6-1.64 5.88-5.76C-37-43.4-37-48.19-37-53Z" style="fill:#d6262f" transform="translate(159 203)"/><path d="M50.57-116.38a14.74 14.74 0 0 1 0-6.64l3.48.07c5.57.14 11 .82 11.91-7.44.49-4.27 4.57-7.1 8.89-8.6 1-.52 1.21.09 1.35.87a6.11 6.11 0 0 1-1.79 2.12c-5.12 4.15-7.08 9-3.5 15.17 2.7 5.53 7.26 8.24 12.64 7.5 4.32-.59 7-3.88 8.17-10a9.89 9.89 0 0 1 .51-1.92 2.78 2.78 0 0 1 1.77-1.38 3.44 3.44 0 0 1 3.5 1.61c1.13 5.56-.93 10-5 13.62a40.79 40.79 0 0 1-7.2 3.47 30.24 30.24 0 0 1-9 .17c-4-1.2-7.74-2.85-10.31-6.32-1.57-2.12-3.69-2.48-6.09-2.5-3.09-.02-6.21.22-9.33.2Z" style="fill:#04c3f8" transform="translate(159 203)"/><path d="m-85.7-110.76-1 1.06c-4.85 2.8-9.85 4.15-15 1-4.52-2.75-6.54-7-6.24-12.2s2.65-9.3 7.68-11.23 9.9-1.52 14 2.29 5 8.52 3.29 13.7a42.2 42.2 0 0 1-2.73 5.38Z" style="fill:#fcc22e" transform="translate(159 203)"/><path d="M147-79.2c-6.64-2.49-9.89-8.44-8.08-14.78 1.72-6 7.3-9.17 14-8-1.44 5.58-1.32 11.31-1.63 17-2.91 1.91.66 1.21.77 1.91.11 3.67-3.06 2.97-5.06 3.87Z" style="fill:#f78c3a" transform="translate(159 203)"/><path d="M-49.71 85.85c-1.66-2.59-1-6.13-4-8.36-1.14-.84-1-4 .52-5.43a9.5 9.5 0 0 0 2.47-4.5c.58-1.74 1.44-4.37 4.52-3.11.4.16 1.11.28 1.32.07 3.87-3.86 7.39-2.77 10.8.63.88 2.87 1 5.64-1.1 8.1-2.82.88-4.7-2.09-7.38-1.79-5.07 2.26-5.22 4.19-.65 8.41a11.07 11.07 0 0 1 1.15.78c1.87 1.45 1.34 2.63-.36 3.79s-3.94 1.45-6 1.76a1.23 1.23 0 0 1-1.29-.35Z" style="fill:#3b95e5" transform="translate(159 203)"/><path d="M-36.6 72.88c3.28-1.79.44-5.55 2.51-7.73l1.9-.54c.82.3 1.73.46 2.15 1.39-.11.82-.6 2.11-.26 2.38 4.61 3.71 1 8.17 1.23 12.25a4 4 0 0 1-.48 1.86c-1.49 3-11 6.42-14 5a7.3 7.3 0 0 0-4.34-.44 1.43 1.43 0 0 1-1.21-1.3c2.11-.81 4.22-1.62 6.33-2.45 2.29-.91-.14-1.67-.09-2.51 2.56-2.25 5.57-4.17 6.26-7.91Z" style="fill:#3466b7" transform="translate(159 203)"/><path d="M271.19 122.7h-5.32c-2.43-.75-3-3-3.87-4.93a59.74 59.74 0 0 0-15.09-20.28 2 2 0 0 1-.24-1.32c1.39-1.54 3.32-2.27 5-3.39a1.17 1.17 0 0 1 1.21.35c7.19 7.23 13.19 15.28 17.08 24.8a15.08 15.08 0 0 1 1.23 4.77Z" class="cls-15"/><path d="M147-79.2c1.43-1.53 4-1.52 4.94-3.72 1.26-3.24 4.45-5.43 4.83-8.67-1.57 2.2-1.3 6.46-5.85 6.67-1.44-.77-2.53-1.93-1.59-3.51 1.63-2.77 2.53-5 .2-8.2-1.32-1.83 2.72-3.15 3.4-5.33 6.78 2.58 10.19 8 8.77 14C160-81 154.85-77.93 147-79.2Z" style="fill:#f56d3a" transform="translate(159 203)"/><path d="M-127 32.74c-2-.64-3.92-.76-5.65 2.83.73-12 4.87-20.53 12.55-27.34 2.43-2.16 4.47-2.36 6 .92 1.41 1.36.52 2.57-.53 3.34-6.54 4.79-9.81 11.51-11.37 19.19-.1.46-.59.79-1 1.06Z" style="fill:#05c3f9" transform="translate(159 203)"/><path d="M134.84 105.59c-2.09.33-4.21 2.6-6.27-.06.67-5.67-.89-11.15-1.45-16.71-.25-2.48 0-3.9 3-4.32 3.31-.47 2.53 2 2.72 3.41.75 5.88 1.34 11.79 2 17.68Z" style="fill:#07c4f8" transform="translate(159 203)"/><path d="m-104.88 67 6 .06c-2.51 6.25-1.8 9.07 3.07 10.46l-6.64 8.41-6.55-8.39c7.33-1.54 3.71-6.77 4.12-10.54Z" style="fill:#0fc7f9" transform="translate(159 203)"/><path d="M126.19-30.07H132c0 5.3 0 10.6.11 15.89.06 2.41-.89 3.12-3.21 3.12s-2.66-1.23-2.65-3.13c.06-5.29-.02-10.58-.06-15.88Z" style="fill:#0ac6f9" transform="translate(159 203)"/><path d="M-79.89 52c-13.18 14.76-30.62 11.65-41.39-2.07-.91-1.14-2-2.33-1.59-4 2.27 2.52 4.37 5.22 6.84 7.53 9.7 9.1 25.7 8.22 35.17-2.41.86-.21 1.29-.05.97.95Z" style="fill:#1c59a3" transform="translate(159 203)"/><path d="M-70.15 31.84c2-2 1.09-4.56 1.26-6.91.15.07.43.14.43.22.35 7.2 5.18 7 10.51 6.74 8-.32 15.93-.11 23.89-.13.33.69.67 1.38 1 2.08-10.75 0-21.49-.11-32.23 0-2.05.01-3.4-.97-4.86-2Z" style="fill:#133297" transform="translate(159 203)"/><path d="m74-137 1.88-1c4.58-3.54 9-1.35 13.31.51 2.75 1.18 4.59 3.66 6.89 5.48 2.29 1.21 1.79 3.53 2.19 5.5.15.79.13 1.48-.91 1.58l-3.49-1.15a3 3 0 0 1-1.94-2c-1.81-5.73-6.58-6.85-11.65-7.49-1.65-.21-3.29.29-4.94.09A1.9 1.9 0 0 1 74-137Z" style="fill:#72e8f7" transform="translate(159 203)"/><path d="M-96.79 13.45a5.24 5.24 0 0 1-1.37.53c-12.1 1.2-19.51 7.56-21.66 19.7-2.88-.94-1.21-3.15-.9-4.48a20.92 20.92 0 0 1 23.93-15.75Z" style="fill:#0e58b6" transform="translate(159 203)"/><path d="M-123.6-22.64c2.52-1.94 5.27-3 5.68-7.89 1.55 4.14 2.67 6.62 6 7.36-3.43.85-4.52 3.55-5.94 7.27-1.14-3.69-1.28-7.16-5.74-6.74Z" style="fill:#fbc539" transform="translate(159 203)"/><path d="M250.06 198.67c-3.09.91-4.4 3-5.18 6.16-2.33-2.49-2.65-6.44-8.23-5.4 3.76-2.65 7.45-2.6 7-8.08 2.45 3.65 3.5 6.11 6.41 7.32Z" class="cls-38"/><path d="m-49.09 85.77 1.21 1.3c-4 6.44-9 12.31-12.34 19.19a1.64 1.64 0 0 1-2.41-.47q6.47-10 12.92-19.94a.79.79 0 0 0 .62-.08Z" style="fill:#35459e" transform="translate(159 203)"/><path d="M57.2 66.3 56 67.64c-.27.52-.78.7-1.16.34C50.61 64 46.49 60 44 54.63c-.39-2.55-3.51-3.34-4-6.46 3.21.35 3.62 3.77 5.9 4.58Z" style="fill:#203295" transform="translate(159 203)"/><path d="M305.14 285c2.78 3.22 2.23 7.28 7 6.74-4.23.68-4.45 3.93-6 6.94-1.37-3.14-1.83-6.44-6-6.46 2.96-1.22 5.4-2.4 5-7.22Z" class="cls-41"/><path d="M-127 32.74c1.75-8.42 4.89-16 12.11-21.38a2.24 2.24 0 0 0 .82-2.21c1.4.33 2.8 1 4.21 0a1.84 1.84 0 0 1 2 .85c-9.36 3.89-15.4 10.5-17 20.75-.17 1 .26 2.48-1.48 2.64-.12 0-.29-.11-.38-.22a1.67 1.67 0 0 1-.28-.43Z" style="fill:#1a61ba" transform="translate(159 203)"/><path d="M105.87-14.11c-2-.43-4-1.19-3.85-3.69.11-2.06 1-3.93 3.5-4a3.48 3.48 0 0 1 3.86 3.63 3.7 3.7 0 0 1-3.51 4.06Z" style="fill:#0ec7f9" transform="translate(159 203)"/><path d="M-30 66a2.14 2.14 0 0 1-2.15-1.39c4.91-3 8.58-7.37 12.37-11.59 1.95-.93 3-3.18 5.68-3.8-.3 2.66-3 3.48-3.78 5.45Z" style="fill:#344aa2" transform="translate(159 203)"/><path d="M143.6 130.74c1.85 2.92 2.63 5.26 6.51 5.26-3.09 1.92-4.81 3.38-5.9 6.21-1.65-2.63-3-4.81-7.32-5.58 4.32-.63 5.67-2.63 6.71-5.89Z" class="cls-41"/><path d="m232.05 173 2.13.19a220 220 0 0 1-18.34 16c-.35-.45-.7-.91-1.06-1.36.09-3 2.79-4 4.64-5.44 4.13-3.27 7.39-7.7 12.63-9.39Z" class="cls-45"/><path d="M-85.21 92.85c-7.61-1.67-15.24-2.94-23-1-.62.15-1.45-.57-2.17-.88 8-2.9 16-2.44 24 0a1.57 1.57 0 0 1 1.17 1.88Z" style="fill:#fad164" transform="translate(159 203)"/><path d="M112.79 175.19h3.36c4.51 4.46 9.72 8 14.87 11.66.22 1.11 2.18 1.61 1.53 2.7s-1.62-.55-2.55-.55Z" class="cls-45"/><path d="M39.1 300c-.38 2.09.67 3.95 1 5.93-1.74 1.64-.85 3.76-1 5.66-.56 9.4.91 18.86-.83 28.22 0-11.86-.08-23.71-.08-35.57.02-1.41-.14-2.95.91-4.24Z" class="cls-47"/><path d="M96.08-132c-2.3 1.17-2.67-1.27-3.72-2.16-4.88-4.13-10.16-6.07-16.48-3.83l-1-1c8.48-3.27 16.46-.66 21.2 6.99Z" style="fill:#24cdf9" transform="translate(159 203)"/><path d="M97.36-125a1.31 1.31 0 0 0 .9-1.58c2.13 6.5-.92 11.64-4.39 16.67a5.21 5.21 0 0 0-.79.13c-1.08-.42-1.72-1.09-1.31-2.35 3.76-3.43 4.94-8.01 5.59-12.87Z" style="fill:#647886" transform="translate(159 203)"/><path d="m-107.9 10-2-.85 1.19-3.41c1.36 1.51 2.65 2.42 5.05 1.75 4.92-1.37 9.59-.23 13.8 2.68-5.98-1.11-12-2.03-18.04-.17Z" style="fill:#175fb9" transform="translate(159 203)"/><path d="m-79.89 52-1-1a26.63 26.63 0 0 0 5.67-10.62c.4-1.57.71-2.54 2.76-2.61 5.11-.15 5.39.13 3.46 5.39-.2-1.5.79-3.59-1.68-4s-3 1.31-3.57 3.19c-1.11 3.65-2.54 7.16-5.64 9.65Z" style="fill:#187ecc" transform="translate(159 203)"/><path d="M74.51 85c2.49-2.11.27-6.89 4.49-8 2.35 4.36-.38 7.18-3 10Z" style="fill:#afc2df" transform="translate(159 203)"/><path d="M-.14 90c-.51 1.41-.95 3-2.86 2.86s-3.17-1.26-2.93-3.22a2.69 2.69 0 0 1 3.06-2.56A2.76 2.76 0 0 1-.14 90Z" style="fill:#18c9f9" transform="translate(159 203)"/><path d="m-62.63 105.79 2.42.47 2.32 1.65-1 1c-6.58-.9-13.24-.91-19.83-1.72v-2.47c5.32.48 10.78-.39 16.09 1.07Z" style="fill:#f8b94a" transform="translate(159 203)"/><path d="M109.09 126.16a3.22 3.22 0 0 0 0 .76c-3 2.65-6.59 1.32-9.93 1.54-2.55.17-5 .2-6.24 2.94-1.08 1.35-2 .86-2.64-.37a9.62 9.62 0 0 0-2.81-3.39c-.14-.19-.27-.39-.4-.59 2.4-1.71 4.63-1.93 7.78-1.24 4.55 1 9.47.31 14.24.35Z" class="cls-55"/><path d="M-42.61 135.83c-1.52-.56-3-1.26-2.81-3s1.13-3.11 3.22-2.93c1.86.15 2.61 1.29 2.36 3a3.2 3.2 0 0 1-2.77 2.93Z" style="fill:#12c7f9" transform="translate(159 203)"/><path d="M-47.76-75.7v-1.55c4.21-.24 5.18 2.66 5.51 5.92.29 2.76.26 5.55.36 8.33h-2.18c-1.53-1.78-1.19-4-1.27-6-.1-2.57-.23-5-2.42-6.7Z" style="fill:#e59499" transform="translate(159 203)"/><path d="M-117.44 35.91c.21.43.72 1.08.58 1.27-3.44 4.82.51 8.1 2.41 11.8-4-1.84-4.74-6-6.29-9.43-1.4-3.13 2.68-1.95 3.3-3.64Z" style="fill:#41638f" transform="translate(159 203)"/><path d="M-77 21.84c3.49 2.47 3.07 7 5.24 10.1-1 1-2.38 3.54-2.8 0s-2-6.65-2.44-10.1Z" style="fill:#395987" transform="translate(159 203)"/><path d="M-55.85 56a3.52 3.52 0 0 1-2.71-2.63 2.9 2.9 0 0 1 2.36-3.14c1.23-.13 2.44 1.27 2.69 2.46.35 1.68-1.49 2.18-2.34 3.31Z" style="fill:#22cbfa" transform="translate(159 203)"/><path d="M-122.84 46c-3-1.68-2.72-6.51-6.89-7l4.65-1.89c.75 2.96 1.49 5.89 2.24 8.89Z" style="fill:#1e51a9" transform="translate(159 203)"/><path d="M67 190.94c-6.33-.57-12.77 1.09-19-.95h19.71Z" style="fill:#34a2e3" transform="translate(159 203)"/><path d="M-62-82.61c2.76-1.94 5.59-1.5 9.55-.61-3.8 1.96-6.73 1.09-9.55.61Z" style="fill:#ecc6ca" transform="translate(159 203)"/><path d="M87.16 139.93h-1.23c.49-4.28-1-8.75 1.14-12.88L87 127a13 13 0 0 1 .16 12.93Z" class="cls-55"/><path d="m203 257.63 12 13c-.15 2.21.51 4.79-2.63 5.6-.13 0-.23.21-.31.34-1.76 2.66 2.1 12 5.32 12.24 3.43.22 4 5.15 7.76 4.31 2.93.24 5.38-3.4 8.57-1.07 4.57 5.68 9.08 11.41 13.75 17 1.36 1.62 1.69 2.92.65 4.87a14.44 14.44 0 0 0-1.75 5.64c-.23 3.44-1.59 5.44-4.54 7.44-5.77 3.76-7.9 11.66-5.49 18.11 2 5.22 5.62 8.38 11.32 9.1 11.77 1.49 23.56.61 35.34.61 1 0 2 .1 3 .15-5.38 13.71-13.75 19.19-30.09 19.3-13.27.09-26.55-.13-39.82-.21q-.11-25.38-.21-50.77c0-9-2.25-11.35-11.32-10.74-7.94.54-15.85.31-23.77.23-6.73-.06-6.73 0-7-6.78-.51-12.22-.14-24.44-.21-36.67 0-.56.37-.89.62-1.3 10.66-.48 19.81-5.03 28.81-10.4ZM232.05 173l-17.27 14.81c-6.78-8.75-14.1-16.71-25.08-20.29a65.69 65.69 0 0 0-15.56-3.12c0-12.65-.06-25.3-.16-37.95 0-2.07.31-3.06 2.8-3.57 20.09-4.11 30.5-15.75 32.79-36.26 2.57-3.23 6.06-1.07 9.09-1.45s5.91-.67 7.65 3.35c1.37 3.17 5.54 3.82 8.37 5.73 4 1.59 8.47.76 12.49 2.3 9.24 6.57 14.12 16.25 18.7 26.15-10.94.11-21.87.39-32.81.25-4.3 0-6.11 1.65-6.09 5.74q.09 16.17.16 32.35v4c-.79 4.13 1.64 6.29 4.92 7.96Z" class="cls-1"/><path d="M150.94 213.16c-2.63-8.25-.17-15.46 5.44-21.35s13.23-7.81 21.42-6.17a33.74 33.74 0 0 1 4.2 1.42c2.52 3.3 5.75 6 8 9.55 6 9.45 3.32 21-6.5 28-7.76 5.55-21 3.42-27.14-4.37-1.87-2.3-3.11-5.1-5.42-7.08Z" class="cls-4"/><path d="M-8.06 10.16c4-.41 4.25 3.4 5.74 5.47 6.24 8.64 17.58 10.23 25.13 5.43C33.17 14.5 37.73 2.36 27.1-9.35c-1.79-2-3.79-3.73-4.12-6.59 3.52 1.23 6.29 3.56 8.91 6.1 10.21 8.9 6.76 24.71-1.62 32.13-9.7 8.58-22.89 8.76-32.14-.29-2.45-3.73-5.97-6.93-6.19-11.84Z" style="fill:#fda01a" transform="translate(159 203)"/><path d="M-1.87 22c6.12 3.78 12.35 6.67 20 5.18 15.41-3 23.26-18.78 16.08-32.68-.75-1.46-1.52-2.91-2.28-4.36 9.83 3.91 12.79 20.47 4.44 31.66-9.74 13-26.18 12.5-37 2.82A3.2 3.2 0 0 1-1.87 22Z" style="fill:#0c77d0" transform="translate(159 203)"/><path d="M174.16 268q-.2 19-.41 38c-1.51-3-.66-6.21-.69-9.31-.1-10.8 0-21.61 0-32.42 1.8.81.48 2.53 1.1 3.73Z" class="cls-66"/><path d="M111.2 52.15c-1.6-1.16-1.4-2.88-1.4-4.53 0-9.77.12-19.55-.06-29.32-.07-3.61 1.26-5.19 4.85-5.18 10 .05 19.9 0 29.85 0a5 5 0 0 1 4.38 1.88c1.4 1.71 1.18 3.78 1.08 5.74-.47 8.81-.48 17.62-.51 26.44 0 5-.87 5.76-5.86 5.79-9.16.06-18.32 0-27.47 0a9.34 9.34 0 0 1-4.86-.82Z" style="fill:#f1fafc" transform="translate(159 203)"/><path d="M91.91 35.82c-.14-16.59 13.34-30.14 28.71-33.61 1.15-.27 2.65-.52 3 .83.55 2.06-1.42 1.8-2.56 2-13.12 2.29-27.72 17.54-26.23 33.16.06.66 0 1.33 0 2a1.67 1.67 0 0 1-1.57 2.07c-1.73.25-1.27-1.15-1.33-1.95-.11-1.5-.02-3-.02-4.5Z" style="fill:#ecf8fd" transform="translate(159 203)"/><path d="m111.2 52.15 29.88-.15c7.69 0 7.71 0 7.72-7.59V15.02c2.48.26 1.83 2.26 1.88 3.67.11 3.13 0 6.25 0 9.38-1.62 6.3-.35 12.72-.73 19.07-.14 2.27.35 4.63-.95 6.73-11.19.06-22.39.1-33.59.18-1.72-.05-3.32-.13-4.21-1.9Z" style="fill:#122a92" transform="translate(159 203)"/><path d="M109-76.71h16c1.11 0 2.68-.29 2.9 1.19.28 1.87-1.57 2.08-2.74 2.1-3.48 0-7-.3-10.43-.33-7-.07-14 .07-21-.09-1.54 0-4.47 1.2-4.39-1.42.07-2.16 3-1.4 4.68-1.44 4.98-.07 9.98-.01 14.98-.01Z" style="fill:#f4f5e3" transform="translate(159 203)"/><path d="M98.86-52c-2.15-2.36-3.32-5-1.06-7.82 2.5-3.17 5.38-2.1 8.2-.34 2.15 2 2.47 4.21.69 6.51-2.06 2.65-4.63 3.54-7.74 1.69Z" style="fill:#f3fbfa" transform="translate(159 203)"/><path d="M78-77c2.42.72 6.61-.89 6.61 1.67 0 3-4.22 1.78-6.6 2.05-2.16.26-6 .56-6-1.68.14-3.4 4.12-.79 5.99-2.04Z" style="fill:#f4f5e5" transform="translate(159 203)"/><path d="M73.3-61.73c-1 2.1 1 6.41-1.58 6.3-3-.14-1.56-4.33-1.54-6.71s-1.43-6.66 1.7-6.61c2.5.04.62 4.53 1.42 7.02Z" style="fill:#f4f7ed" transform="translate(159 203)"/><path d="M99-51.92c7.15.05 8.87-1.95 7-8.2 2.86.62 2.74 3 3 5.13-3.06 6.7-6 7.59-10 3.07Z" style="fill:#f7933c" transform="translate(159 203)"/><path d="M73.21-48.78c-.23 1.18.29 3-1.28 3.28-1.73.25-1.69-1.61-1.82-2.82s-.12-3 1.35-3.27c1.87-.29 1.54 1.59 1.75 2.81Z" style="fill:#f4f2db" transform="translate(159 203)"/><path d="M172 381.93c-10.65 0-21.3-.14-31.94.07-3.82.08-5.29-1-5.25-5 .15-18.29.11-36.6 0-54.9 0-2.84.87-3.72 3.68-3.65 6.31.18 12.64.09 19 0 15.39-.09 30.79-.1 46.18-.4 4.62-.1 6.87 1 6.79 6.18-.3 17.79-.31 35.59-.2 53.38 0 3.76-1.56 4.37-4.79 4.33-11.18-.1-22.33-.01-33.47-.01Z" class="cls-1"/><path d="M25.18 183.21c0 2 .25 4.26-2.7 4.39a125.91 125.91 0 0 1-19.42-.2c-.43-.05-.77-.92-1.16-1.41 0-2.32 1.11-3.16 3.4-3.1 6.63.19 13.25.23 19.88.32Z" style="fill:#003469" transform="translate(159 203)"/><path d="M-2 183.09a43.92 43.92 0 0 1-18.82 0Z" style="fill:#57b5da" transform="translate(159 203)"/><path d="M56 183a19.58 19.58 0 0 1-13 .14Z" style="fill:#57b7dc" transform="translate(159 203)"/><path d="M-115.73-78c2.45 1.14 5.2.75 8.19.13 3.47-.72 6.16 3.18 4.78 6.55-1.6 3.89-4.5 6.88-7.42 9.83-1 1-1.95 1.32-2.89.12-2.62-3.36-6.14-6.05-7.57-10.29-1.19-3.5.85-6.34 4.91-6.34Z" style="fill:#c8f2fd" transform="translate(159 203)"/><path d="M-100.69 30c.44 2.13 2.36 2.69 3.94 3.09a10.63 10.63 0 0 1 5.81 4.13c1.73 3.38.81 6-2.24 8-1.46 1-3.16 1.72-3.9 3.62-.91 2.33-2.74 1.9-4.54 1.17-.72-2.09-1.58-3.94-4.27-4.06-2.1-.1-2.27-1.74-2-3.27.47-2.19 2-.87 3.2-.78a16.85 16.85 0 0 0 1.94.35c1.72-.09 4.1.67 4.76-1.49.76-2.48-1.84-2.64-3.36-3.32-6.86-3.05-7.75-7.8-2.1-12.25a3.69 3.69 0 0 0 1.51-2.83A1.77 1.77 0 0 1-99 21.25c1.63 2.82 5.09 2.65 7.07 4.74 1.35 3 1.27 4.79-2.85 3.56-1.93-.55-4.05-1.19-5.91.45Z" style="fill:#f0fbfd" transform="translate(159 203)"/><path d="M-101.62 50.09c4.82-1.08 10.3-7.66 10.68-12.84 3 2.34 2.21 5 .29 7.37s-5.15 3.09-6.44 6.46c-.62 1.59-3.24.65-4.53-.99Z" style="fill:#20568a" transform="translate(159 203)"/><path d="M-100.69 30c1.12-3.48 3.67-2.19 5.65-1.41 3.05 1.19 3.29-.34 3.15-2.63a2.81 2.81 0 0 1 1.49 4.1c-1 1.83-2.55.42-3.92.27-2.11-.21-4.24-.2-6.37-.33Z" style="fill:#0569c2" transform="translate(159 203)"/><path d="M87.16 139.93 87 127c4.87-1.49 3.21 3.53 5 5.06a2.1 2.1 0 0 1 0 3c-2.11 1.28-.41 3.32-1 4.91Z" class="cls-1"/><path d="M-63.14-45.93c0-2.74 1.09-4.39 4.11-4.12 3.34.3 3.06 2.78 3.09 5.08-2.76 2.41-5.33 3.35-7.2-.96Z" style="fill:#f3f7f9" transform="translate(159 203)"/><path d="M-80.56-36.45c-2-6.68-1.62-11.78.09-16.87 1.83 5.19 1.85 10.37-.09 16.87Z" style="fill:#f3d9dd" transform="translate(159 203)"/><path d="M-71.28-57.86a6.29 6.29 0 0 1-1.18.76 7 7 0 0 1-5.23-.3c-.41-.22-.34-1.26.45-1.55 2.05-.77 4.07-1.17 5.96 1.09Z" style="fill:#f3eef0" transform="translate(159 203)"/><path d="M-78.77 107.19c6.79-1.47 13.45-1.54 19.83 1.72 3.12 4 2.68 5.86-1.87 7.55a34.43 34.43 0 0 1-10.12 1.72c-3.07 2-5.45.22-7.86-1.43-.05-3.19.79-6.37.02-9.56Z" style="fill:#f3fbfb" transform="translate(159 203)"/><path d="M50 337c6 .68 12.11 1.66 18.1-.22a37.73 37.73 0 0 0 5.93-2.44c1.19-.61 2.21-1.76 3.39-.22 1 1.3.35 2.44-.58 3.54-6.21 7.29-14.62 7.4-23.13 7-1.57-.08-3.11-.9-4.66-1.39-.36-2.27-.79-4.45.95-6.27Z" class="cls-87"/><path d="M50.16 345.92c8.67 1.62 17 .93 24.92-3.35 2.68-1.45 3.26.48 2.68 2.66-1.19 4.49-5.24 6.31-8.92 7-6.25 1.24-12.75 1.71-19-.52-1.32-1.98-1.47-3.94.32-5.79Z" class="cls-87"/><path d="M50.25 328.9c8.81-.23 17.87 1.54 25.89-4.18 1.91-1.37 2 1 1.7 2.14-1.07 4.14-4.37 6.06-8.07 7.25-6.87 2.22-13.8 2.79-20.69 0-.32-1.89-.69-3.81 1.17-5.21Z" class="cls-88"/><path d="M50 320c8.83 1.62 17.44 1.72 25.32-3.52a1.51 1.51 0 0 1 2.22.23c.67.95.13 1.9-.33 2.79-2.75 5.36-7.67 7.08-13.16 7.43-4.78.3-9.61.38-14.29-1.13-.84-2.01-1.53-3.97.24-5.8Z" class="cls-88"/><path d="M-78.79 116.75c2.51 1.07 5.2 1.18 7.86 1.43.2.44.45 1.27.59 1.26 4.23-.54 5.42 3 7.36 5.46l-13.13-.11a3.7 3.7 0 0 1 .15-4.73c-.56-1.43-3.4-.91-2.83-3.31Z" style="fill:#fbc032" transform="translate(159 203)"/><path d="M-112 139a5 5 0 0 1-3-1.49c-1.83-1.41-4.38-2.93-2.63-5.42 2-2.83 3.93.18 5.84 1 1.39 1.98 1.59 3.96-.21 5.91Z" style="fill:#fbbe31" transform="translate(159 203)"/><path d="M-111.95 130c-1.31-.66-2.59-1.41-3.94-2-2.44-1-2.29-3.49-1.72-4.94.82-2.13 2.38.08 3.59.37a18.62 18.62 0 0 1 3.1 1.32c.31 1.87.61 3.75-1.03 5.25Z" style="fill:#fbc238" transform="translate(159 203)"/><path d="m42.23 341.89 5.11 3.25c1.31 2 1.38 3.91-.24 5.77-2.39.06-3.3-2.32-5.17-3.13-.85-2.01-1.52-4.01.3-5.89Z" class="cls-47"/><path d="m-111.88 121.91-5.18-3.11c-.87-2-1.5-4 .25-5.88l5 3.12a4.45 4.45 0 0 1-.07 5.87Z" style="fill:#fcbf2c" transform="translate(159 203)"/><path d="M-112 139c.07-2 .13-3.94.2-5.91a3.59 3.59 0 0 1 2.8.91c-.35 2.07.86 4.38-1 6.23Z" style="fill:#f4f2dd" transform="translate(159 203)"/><path d="m-111.9 147.91.24-5.77c1 .05 2.08-.22 2.82.78l-.36 5.83Z" style="fill:#f5ebca" transform="translate(159 203)"/><path d="m-111.88 121.91.09-5.87a3.59 3.59 0 0 1 2.79.96q-.12 2.9-.23 5.8Z" style="fill:#f5efd5" transform="translate(159 203)"/><path d="M-111.95 130c.49-1.71-.62-3.74 1-5.23.8.23 1.72.25 2.17 1.15-.39 1.74.48 3.76-1.17 5.22Z" style="fill:#f4f4e3" transform="translate(159 203)"/><path d="M-112 113c.47-1.71-.7-3.76 1.12-5.18.64-.32 1.25-.51 1.66.34-.39 2.06 2 4.9-1.7 6Z" style="fill:#f4efd5" transform="translate(159 203)"/><path d="M-116.81 112.92q-.12 2.94-.25 5.88c-2.26-2.06-3.18-4.06.25-5.88Z" style="fill:#fac578" transform="translate(159 203)"/><path d="m-116.77 138.89-.3 5.89c-2.62-3.39-2.51-5.43.3-5.89Z" style="fill:#fbcd7c" transform="translate(159 203)"/><path d="M-118.72 104.2c4.45.61 1 3.7 1.72 5.48-2.24-1.3-1.65-3.5-1.72-5.48Z" style="fill:#f4dcba" transform="translate(159 203)"/><path d="m-76 120.06-.15 4.73c-1.82-.12-1.94-1.37-2-2.79s.76-2.08 2.15-1.94Z" style="fill:#fbd696" transform="translate(159 203)"/><path d="M207.21 84.74c.06 20.35-15.06 36-34.37 36.4-17 .35-36.78-12.35-36.47-36.67.28-21.61 15.93-35.94 35.41-36.31 19.79-.38 35.36 15.99 35.43 36.58Z" class="cls-3"/><path d="M286.16 310.26c.21.25.43.49.62.75 2.34 3.36 2 7.93 3.88 11 1.75 2.81 7.08 1.11 10.43 3.27A15.64 15.64 0 0 1 308 340.7c-.92 5.77-5.46 9.94-11.63 11.43-4.67 1.12-9.23.16-13.83.14-10.45 0-20.91-.14-31.36 0-7.91.11-13.85-6.63-13.6-12.79a55.08 55.08 0 0 1 20.9-5.7c13.9-1.16 24.1-7 26.54-22a2.11 2.11 0 0 1 1.14-1.52Z" class="cls-2"/><path d="M127.16 107.26c-1 14-9 22.42-23.55 24.55-8 1.17-16.29.64-23.25 5.86-.91.68-1.29-.65-1.82-1.18-.44-5.87 2.78-9.58 7.48-12.28 1.62-.93 3-1.52 3-3.89 0-9.93 5.34-16.6 14.24-20 9.36-3.5 17.51-.8 23.9 6.94Z" style="fill:#78ebf7" transform="translate(159 203)"/><path d="M150.29 128.07c-4.39-5.86-8.91-9.35-15.53-10.34-3.88-.58-2.81-5.43-3.45-8.27-.48-2.18 2.77-1.58 4.34-1.57 9.35.04 15.26 7.72 14.64 20.18Z" style="fill:#f47074" transform="translate(159 203)"/><path d="M74.7 89.06c-3-.84-5.38 3.43-8.57 1.07 1.54-2.64 4.06-3.6 6.89-4Z" style="fill:#bab6d0" transform="translate(159 203)"/><path d="M92 135.1v-3c-.59-4 1-5.54 5.16-5.13 3.92.38 7.91 0 11.88 0 1.81 3.61.75 7.44.87 11.17.06 2-1.37 1.94-2.73 1.94a96.36 96.36 0 0 0-10.48.09c-4.11.41-5.2-1.42-4.7-5.07ZM111.24 127.3c2.48-.58 3.75.46 3.76 3 0 3.23 0 6.46-.09 9.69-2.5.41-4.17.06-3.87-3.19s.15-6.35.2-9.5Z" class="cls-1"/><path d="M71.1 76.1a5.39 5.39 0 0 1-5.84 5.31A5 5 0 0 1 60.08 76c.15-3.39 2.32-5.56 5.77-5.47 3.24.06 4.97 2.18 5.25 5.57Z" style="fill:#f3f9fb" transform="translate(159 203)"/><path d="M127 52.57c-.81 4.17-3.54 7.25-6 10.5-2.63 1.36-4-.32-5.26-2.2A44.31 44.31 0 0 1 113 55v.06c-1.16-3-.7-4.49 3-4.63 3.12-.11 6.2.16 9.3.18 1.12.04 2.7.03 1.7 1.96Z" class="cls-6"/><path d="M127 52.57c-4-3.12-8.5-1.24-12.76-1.24-2 0-.78 2.47-1.2 3.77-2.62-4.78-2.55-4.4 2.33-5.3 3.55-.65 6.88.21 10.32.15 2.19-.04 2.83.77 1.31 2.62Z" class="cls-106"/><path d="M113 55c1.81 1.34 2.17 3.56 3.19 5.38a4.87 4.87 0 0 0 4.81 2.69c-2.56 2.82-4.17.43-5.53-1.26C114 59.9 112.5 57.78 113 55Z" class="cls-106"/><path d="m49.79 311.13-1.66-.34c2.39-2 4.7.07 7.06.13a91.36 91.36 0 0 0 14.7-.48 40.6 40.6 0 0 1-20.1.69Z" class="cls-10"/><path d="M92.84-124.88C93-118 89.43-113.13 83.62-112s-11.5-2.55-13.7-8.86c-.15-2.37-1.72-4.75.09-7.08 2.35-.2 1.94 1.75 2.19 3 1.33 6.62 3.18 9 7.51 9.59 4.7.59 7.21-1 10.25-6.65.82-1.09.85-3 2.88-2.88Z" style="fill:#e1f7fd" transform="translate(159 203)"/><path d="M70.86-127.94c-1.74 2.17-.47 4.74-.94 7.09-3.1-8.7-2.79-10 4-16.11.36.37.73.73 1.1 1.1 1.31 2.1-2.79 2.34-1.52 4.44a3 3 0 0 1-2.64 3.48Z" style="fill:#b5eefd" transform="translate(159 203)"/><path d="M88.17-106.45c-4.49 1-8.82 1.1-12.49-2.31l10.09-.24c1.24.25 2.6.38 2.4 2.2Z" style="fill:#3170bd" transform="translate(159 203)"/><path d="m88.17-106.85-2.4-2.2 6-3 1.31 2.35a6 6 0 0 1-4.91 2.85Z" style="fill:#24497c" transform="translate(159 203)"/><path d="M92.84-124.88c-.57 1-1.13 2-1.7 3-2.15-2.55-2.17-5.52-1.7-8.59 3.14-1.6 2.48 1.67 3.53 2.76l.9 1.64Z" style="fill:#b1dff4" transform="translate(159 203)"/><path d="M63.38 92.4a9.45 9.45 0 0 1-9.15-9.24c0-5.2 4.76-10 9.82-9.93s9.17 4.71 9 9.94a9.38 9.38 0 0 1-9.67 9.23Z" class="cls-16"/><path d="M150.92-84.92c3.81-2.45 5.83-5.74 4.65-10.59 3.45 2.71 1.86 7.84-3.63 12.59l-2.17-.51Z" style="fill:#f78a18" transform="translate(159 203)"/><path d="M-36.6 72.88c1.7 5.62-2 7-6.25 7.93v.09c-5.64-4.26-5.59-7 .21-10.85a6.5 6.5 0 0 1 6.04 2.83Z" style="fill:#f2fbfe" transform="translate(159 203)"/><path d="M-42.62 70.05c-4.84 4.5-4.87 6.09-.21 10.85-3.78-.3-5.07-3.09-4.94-6.1a4.71 4.71 0 0 1 5.15-4.75Z" style="fill:#3b60b5" transform="translate(159 203)"/><path d="M93-127.75c-1.41-.63-1.18-3.06-3.25-3-5.27-2.82-10.81-1.7-16.32-1.17-1-1.14-1-1.14 1.65-4 8.03-2.89 16.4.92 17.92 8.17Z" style="fill:#08c3f7" transform="translate(159 203)"/><path d="M228.83 315.39c1.76 2.15.61 5.94 5.56 5.31-2.78 1.52-5.51 1.68-4.84 5.53-2-2.14-2.44-5-5.74-4.85 3.12-.97 4.79-2.77 5.02-5.99Z" class="cls-38"/><path d="M53.83-51.94c0 5.22-4.76 10-9.75 10-4.79-.07-9.75-5.6-9.69-10.8A9.78 9.78 0 0 1 43.68-62a10 10 0 0 1 10.15 10.06Z" style="fill:#09c6f9" transform="translate(159 203)"/><path d="M64.61-84.72c-2.66.36-3.51-1.12-3.45-3.49.07-2.81 1.78-3.54 4.26-3.61s3.5 1.12 3.41 3.59c-.1 2.84-1.63 3.74-4.22 3.51Z" style="fill:#44d5f9" transform="translate(159 203)"/><path d="M49.08-82.74c-.28 1.47-.74 2.74-2.41 2.74s-3-1.12-2.49-2.82c.49-1.52 0-4.37 2.34-4.19 1.74.11 2.07 2.64 2.56 4.27Z" style="fill:#fcc537" transform="translate(159 203)"/><path d="M21.86-2.53c-.64 1.41-2.07 1.87-3.8 1.3-.91-.29-1.6-1.26-2.5-1.53-1.24-.38-2.82-.68-3.49.89s.48 2.47 1.81 3 2.85.87 4.26 1.37A7.07 7.07 0 0 1 22.19 13c-1.56 2.87-5.63 3.33-6.5 6.84 0 .09-.31.1-.46.15-1.53.52-9.54-6.14-9.2-7.71s1.82-1.92 3.08-1.76c1.09.14 2.06 1.06 3.16 1.37 1.61.45 3.56.82 4.39-1.07.92-2.11-.89-2.85-2.5-3.47a36.34 36.34 0 0 1-4.62-1.87 6.87 6.87 0 0 1-.61-11.9c1.19-.83 2.77-1.12 3.26-2.85.11-.4 1-.71 1.59-.8 1.36-.23 8.05 5.67 8.08 7.54Z" style="fill:#f3fcfc" transform="translate(159 203)"/><path d="M131.94 29c-5.22 1.58-10.58.61-15.87.87-1.93.1-2.71-.92-2.74-2.71v-1c-.53-8.77-.53-8.78 8.18-8.76 3.49 0 7-.22 10.44.58 2.15 3.64 2.37 7.31-.01 11.02Z" style="fill:#fcc22d" transform="translate(159 203)"/><path d="M131.94 29V18a50.15 50.15 0 0 1 6.92-.18c2 .22 5.06-1.62 5.74 1 .82 3.07.24 6.54.1 9.83-.05 1-1.19 1.06-2 1-3.58-.31-7.24.66-10.76-.65Z" style="fill:#fbad23" transform="translate(159 203)"/><ellipse cx="287.99" cy="243.16" rx="22.33" ry=".72" style="fill:#10228c"/><path d="M303.59 249.82c-10.46-.15-20.93.39-31.38-.45v-1.32h31.45Z" class="cls-66"/><ellipse cx="287.87" cy="237.46" class="cls-66" rx="22.36" ry=".68"/><path d="M29.17 139.44c3.67 5 4.71 4.89 7.46-.74.86-1.76 1.61-3.62 4.51-4.94v9.54c0 8.81-.34 17.63.14 26.42.26 4.9-1.79 6.1-5.91 5.79-2.14-.16-4.27-.46-6.41-.7-1.54-1.56-1.56-3.59-1.57-5.57-.08-7.93-.06-15.87 0-23.8 0-2.17.11-4.32 1.78-6Z" style="fill:#18b5aa" transform="translate(159 203)"/><path d="M29.17 139.44c-.82 11.78-.36 23.58-.21 35.37a37.93 37.93 0 0 1-10.85-.1c-2.89-7-2.44-14.11-.17-21.2 3.45-4.92 5.76-10.76 11.23-14.07Z" style="fill:#f36d3b" transform="translate(159 203)"/><path d="M17.94 153.51q.07 10.61.17 21.2c-3.36 1.66-6.75.53-10.13.1-2.85-7.76-1.9-15.57-.35-23.39 2.35-.75 3.66 1.16 5.08 2.27 1.99 1.56 3.53 1.08 5.23-.18Z" style="fill:#18b5ab" transform="translate(159 203)"/><path d="M7.63 151.42c1.11 7.78-.36 15.6.35 23.39a39 39 0 0 1-11.67-.19c-2.93-3.94-2.17-7.72.53-11.4 3.79-.68 4.65-4.39 6.86-6.7a59.52 59.52 0 0 0 3.93-5.1Z" style="fill:#ec4d55" transform="translate(159 203)"/><path d="M155.84 366.22c-.18 3.8-.35 7.6-.53 11.4a30.23 30.23 0 0 1-3.86.75c-2.43.16-6.14.67-6.85-1.12-1.17-3-1.61-6.78.41-9.95 3.7-5.8 3.75-5.77 10.83-1.08Z" class="cls-6"/><path d="M159 324h14.42c1.09 0 2.62-.2 2.79 1.37.18 1.72-1.31 1.57-2.43 1.58-9.78.05-19.56.05-29.33.05-1 0-2.56.19-2.47-1.62s1.54-1.41 2.6-1.42H159Z" class="cls-2"/><path d="m35.93 135.64-8.36-8.25c3.56-2 7.42-2.42 11.52-3.73-.21 4.34-1.76 7.81-3.16 11.98Z" style="fill:#ee545c" transform="translate(159 203)"/><path d="M154.63 329.85h9.9c1.14 0 2.5.15 2.39 1.78-.09 1.26-1.26 1.4-2.24 1.41h-19.82c-1.18 0-2.69-.27-2.69-1.61 0-2 1.84-1.46 3-1.49 3.13-.07 6.27 0 9.41 0Z" class="cls-19"/><path d="M-9.79 132.7c2.55 1.22 7.11-1.36 7.3 2 .15 2.72-4.56 1.6-7 1.78s-6.95 1.36-6.95-1.9c-.05-3.03 4.44-.53 6.65-1.88Z" style="fill:#0dc6f9" transform="translate(159 203)"/><path d="M42.9 126.73c2.79 2.24 5.64 1.32 8.9.4 2.33-.66 3.16 1.65 2.41 4.07-1 3.34-4.11 5.16-5.82 8-.08.14-.27.33-.37.31-4-.89-5.23-4.6-7.34-7.34a3.31 3.31 0 0 1 .6-4.88 6 6 0 0 1 1.62-.56Z" class="cls-6"/><path d="m-4-103-6-.53 22.36-40.18c1.79.17 1.4 2.21 2.62 2.79a8.94 8.94 0 0 1 3.33 3.63c4.61 9.22 9.72 18.2 13.51 27.81 2.2 5.57.68 7.83-5.32 8-8.65.21-17.29.1-25.94 0-1.66-.05-3.31-.24-4.56-1.52Z" style="fill:#f2fcfe" transform="translate(159 203)"/><path d="M-4-103c10.46-.08 20.93-.3 31.4-.18 4.4 0 5.26-1.19 3.3-5.16C25.35-119.19 20.22-130.1 15-141c4.89.78 6.83 4.68 8.55 8.51 4.37 9.69 9.67 18.89 14.66 28.25a42.3 42.3 0 0 1 1.79 4.09C40.91-98 40-97 37.79-97c-13 0-26 .07-38.94 0-4.67-.08-2.16-3.91-2.85-6Z" style="fill:#0551b3" transform="translate(159 203)"/><path d="M108 105c1.47 0 2.58-.09 3 1 .66 1.48-.58 2.09-1.57 2.58-2.8 1.38-5.7 2.54-7.4 5.45a1.85 1.85 0 0 1-2.62.58 1.63 1.63 0 0 1-.53-2.53c2.3-3.62 5.25-6.31 9.12-7.08Z" style="fill:#edfbfe" transform="translate(159 203)"/><path d="M95.89 115.39a1.78 1.78 0 0 1 1.39 1.8c0 1.22-.84 1.71-1.91 1.66A1.36 1.36 0 0 1 94 117.2a1.82 1.82 0 0 1 1.89-1.81Z" style="fill:#e4fafd" transform="translate(159 203)"/><path d="M73.4-131.88c6.38-3.32 11.62-2.94 16.32 1.17.83 2.88 1.85 5.72 1.42 8.79-2.5 6.39-6.29 8.89-12 7.91-5.08-.86-8.13-5.41-8.06-12a18.44 18.44 0 0 0-.21-2c.52-1.45 2.46-2.05 2.53-3.87Z" style="fill:#2746a1" transform="translate(159 203)"/><path d="M46.75-54.92c-4.28-1.24-3 2.15-4.35 2.63-1.13.39-1.51-1.06-1.38-2.06a2.48 2.48 0 0 1 3-2.44c.57.07 1.03.66 2.73 1.87Z" style="fill:#5de2f8" transform="translate(159 203)"/><path d="M63.08-88.19c.13-1.09.52-1.62 1.28-1.59a2.18 2.18 0 0 1 2.39 2.47 1.67 1.67 0 0 1-.82.94c-1.03-.57-2.01-1.26-2.85-1.82Z" style="fill:#6ee8f7" transform="translate(159 203)"/><path d="M74.94-128.72c.49-3.88 5.27-5.92 9.62-4.09 4 1.67 6.37 7.28 4.84 11.27-1.81 4.72-6.23 7-10.78 5.5a9 9 0 0 1-5.57-10.9c.3-1.1 1.2-.9 1.93-1.11.44.22.81.58 1.26.76 1 .41 2 3.38 3.12 0 .23-.69 1.48-.25 2.24.1.6.29-.24 0 .38.23.44.17.82.57 1.36.38a4.49 4.49 0 0 1-1.33-.34c-2.01-2.08-5.39 1.46-7.07-1.8Z" style="fill:#f0f9fc" transform="translate(159 203)"/><path d="M74.94-128.72c1.8 2.61 5.42-1.86 7 1.8L82-127c-4.39-.6-2.75 2.14-1.93 5.23L75-128a3 3 0 0 1-.06-.72Z" style="fill:#4050a4" transform="translate(159 203)"/><path d="M81.9-126.92c1.35-.71 2.71-2.13 4 .07.55.94.67 2.28-.26 2.55-2.1.62-2.84-1.25-3.66-2.72Z" style="fill:#1d2e92" transform="translate(159 203)"/></svg>