<?xml version="1.0" encoding="UTF-8"?>
<!DOCTYPE svg PUBLIC "-//W3C//DTD SVG 1.1//EN" "http://www.w3.org/Graphics/SVG/1.1/DTD/svg11.dtd">
<!-- Creator: CorelDRAW -->
<svg xmlns="http://www.w3.org/2000/svg" xml:space="preserve" width="70px" height="70px" version="1.1" style="shape-rendering:geometricPrecision; text-rendering:geometricPrecision; image-rendering:optimizeQuality; fill-rule:evenodd; clip-rule:evenodd"
viewBox="0 0 70 70"
 xmlns:xlink="http://www.w3.org/1999/xlink"
 xmlns:xodm="http://www.corel.com/coreldraw/odm/2003">
 <defs>
  <style type="text/css">
   <![CDATA[
    .str0 {stroke:#0D61A9;stroke-miterlimit:22.9256}
    .str1 {stroke:#0D61A9;stroke-miterlimit:22.9256}
    .str3 {stroke:#0D61A9;stroke-width:2;stroke-miterlimit:22.9256}
    .str2 {stroke:#0D61A9;stroke-width:3;stroke-miterlimit:22.9256}
    .fil3 {fill:none}
    .fil4 {fill:#2B2A29}
    .fil2 {fill:#199BE2}
    .fil1 {fill:#E8D47B}
    .fil0 {fill:white}
   ]]>
  </style>
 </defs>
 <g id="Слой_x0020_1">
  <metadata id="CorelCorpID_0Corel-Layer"/>
  <g id="_1501963852912">
   <rect class="fil0" x="20.12" y="17.23" width="45.25" height="32.1"/>
   <ellipse class="fil1 str0" cx="11.72" cy="9.85" rx="7.5" ry="8"/>
   <path class="fil2 str1" d="M19.22 25.54l21 0.18 0 -5.86 -31.66 0c-4.34,0 -4.34,0 -6.55,2.25 -0.44,0.44 -0.62,14.83 -0.62,16.65 0,1.54 0,3.09 0,4.63l4.83 5.33 0 20 9.37 0 3.63 -43.18z"/>
   <line class="fil3 str0" x1="21.07" y1="11.07" x2="68.82" y2= "11.07" />
   <line class="fil3 str0" x1="68.82" y1="11.07" x2="68.82" y2= "16.57" />
   <line class="fil3 str0" x1="68.82" y1="16.61" x2="19.51" y2= "16.55" />
   <line class="fil3 str2" x1="40.22" y1="8.71" x2="42.23" y2= "8.71" />
   <polyline class="fil3 str0" points="19.51,49.72 66.19,49.72 66.11,16.55 "/>
   <line class="fil3 str3" x1="35.19" y1="50.72" x2="26.3" y2= "62.93" />
   <line class="fil3 str3" x1="40.22" y1="50.72" x2="40.22" y2= "58.07" />
   <line class="fil3 str3" x1="41.61" y1="50.72" x2="41.67" y2= "58.07" />
   <line class="fil3 str3" x1="47.34" y1="50.72" x2="54.92" y2= "63.11" />
   <ellipse class="fil4" cx="55.53" cy="65.46" rx="2.84" ry="2.75"/>
   <ellipse class="fil4" cx="24.84" cy="65.46" rx="2.84" ry="2.75"/>
  </g>
 </g>
</svg>
