<?xml version="1.0" encoding="UTF-8"?>
<!DOCTYPE svg PUBLIC "-//W3C//DTD SVG 1.1//EN" "http://www.w3.org/Graphics/SVG/1.1/DTD/svg11.dtd">
<!-- Creator: CorelDRAW -->
<svg xmlns="http://www.w3.org/2000/svg" xml:space="preserve" width="70px" height="70px" version="1.1" style="shape-rendering:geometricPrecision; text-rendering:geometricPrecision; image-rendering:optimizeQuality; fill-rule:evenodd; clip-rule:evenodd"
viewBox="0 0 70 70"
 xmlns:xlink="http://www.w3.org/1999/xlink"
 xmlns:xodm="http://www.corel.com/coreldraw/odm/2003">
 <defs>
  <style type="text/css">
   <![CDATA[
    .str0 {stroke:#0D61A9;stroke-miterlimit:22.9256}
    .fil1 {fill:#199BE2}
    .fil2 {fill:#2CB4EB}
    .fil0 {fill:#E8D47B}
   ]]>
  </style>
 </defs>
 <g id="Слой_x0020_1">
  <metadata id="CorelCorpID_0Corel-Layer"/>
  <g id="_1501963864192">
   <ellipse class="fil0 str0" cx="13.55" cy="27.89" rx="8.4" ry="8.5"/>
   <ellipse class="fil0 str0" cx="34.55" cy="37.37" rx="8.4" ry="8.5"/>
   <ellipse class="fil0 str0" cx="55.55" cy="27.89" rx="8.4" ry="8.5"/>
   <ellipse class="fil0 str0" cx="25.35" cy="11.7" rx="7.61" ry="7.69"/>
   <ellipse class="fil0 str0" cx="44.35" cy="11.7" rx="7.61" ry="7.69"/>
   <polygon class="fil1 str0" points="1.09,55.32 26.05,55.04 26.1,53.54 26.15,51.3 24.83,47.97 23.21,45.54 21.87,44.19 20.21,42.97 18.32,42.02 14.86,41.17 11.95,41.2 9.97,41.61 7.94,42.4 5.85,43.69 4.11,45.3 2.85,46.96 1.9,48.8 1.1,51.62 0.96,53.5 "/>
   <polygon class="fil1 str0" points="43.09,55.32 68.05,55.04 68.1,53.54 68.15,51.3 66.83,47.97 65.21,45.54 63.87,44.19 62.21,42.97 60.32,42.02 56.86,41.17 53.95,41.2 51.97,41.61 49.94,42.4 47.85,43.69 46.11,45.3 44.85,46.96 43.9,48.8 43.1,51.62 42.96,53.5 "/>
   <polygon class="fil2 str0" points="22.59,64.32 47.55,64.04 47.6,62.54 47.65,60.3 46.33,56.97 44.71,54.54 43.37,53.19 41.71,51.97 39.82,51.02 36.36,50.17 33.45,50.2 31.47,50.61 29.44,51.4 27.35,52.69 25.61,54.3 24.35,55.96 23.4,57.8 22.6,60.62 22.46,62.5 "/>
  </g>
 </g>
</svg>
