<?xml version="1.0" encoding="UTF-8"?>
<!DOCTYPE svg PUBLIC "-//W3C//DTD SVG 1.1//EN" "http://www.w3.org/Graphics/SVG/1.1/DTD/svg11.dtd">
<!-- Creator: CorelDRAW -->
<svg xmlns="http://www.w3.org/2000/svg" xml:space="preserve" width="18mm" height="18mm" version="1.1" style="shape-rendering:geometricPrecision; text-rendering:geometricPrecision; image-rendering:optimizeQuality; fill-rule:evenodd; clip-rule:evenodd"
viewBox="0 0 180 180"
 xmlns:xlink="http://www.w3.org/1999/xlink"
 xmlns:xodm="http://www.corel.com/coreldraw/odm/2003">
 <defs>
  <style type="text/css">
   <![CDATA[
    .str3 {stroke:#2B2A29;stroke-width:50;stroke-miterlimit:22.9256}
    .str1 {stroke:#2B2A29;stroke-width:5;stroke-miterlimit:22.9256}
    .str4 {stroke:#2B2A29;stroke-width:3.5;stroke-miterlimit:22.9256}
    .str2 {stroke:#2B2A29;stroke-width:2.5;stroke-miterlimit:22.9256}
    .str5 {stroke:#332B24;stroke-width:2.5;stroke-miterlimit:22.9256}
    .str6 {stroke:#2B2A29;stroke-width:2;stroke-miterlimit:22.9256}
    .str0 {stroke:#2B2A29;stroke-miterlimit:22.9256}
    .fil4 {fill:none}
    .fil7 {fill:#00C3F9}
    .fil6 {fill:#52D6FA}
    .fil3 {fill:#B7B5B6}
    .fil5 {fill:white}
    .fil8 {fill:#FEFEFE;fill-rule:nonzero}
    .fil9 {fill:#2B2A29;fill-rule:nonzero}
    .fil0 {fill:black;fill-rule:nonzero}
    .fil1 {fill:#999799;fill-rule:nonzero}
    .fil2 {fill:#F4F3F4;fill-rule:nonzero}
   ]]>
  </style>
 </defs>
 <g id="Слой_x0020_1">
  <metadata id="CorelCorpID_0Corel-Layer"/>
  <g id="_2520595491648">
   <path class="fil0" d="M69.578 78.495c4.328,-1.333 8.754,-2.369 13.145,-3.469 0.586,1.488 1.345,3.785 2.478,4.921 0.953,0.953 1.397,1.003 2.664,1.025 1.952,-0.786 3.282,-3.016 4.52,-4.656 4.285,2.027 8.377,4.55 12.316,7.181 -0.661,1.353 -2.057,3.63 -2.071,5.093 -0.013,1.34 0.305,1.651 1.186,2.55 2.118,0.921 4.778,0.527 7.041,0.41l3.418 12.835c-1.703,0.729 -4.135,1.585 -5.399,2.977 -0.961,1.06 -0.929,1.563 -0.873,2.907 0.836,1.953 2.963,3.051 4.655,4.196 -2.139,4.119 -4.36,8.026 -6.989,11.853 -2.117,-0.697 -4.506,-1.725 -6.757,-1.55 -2.322,1.579 -0.63,5.491 -1.78,7.935l-0.054 0.113c-3.194,0.993 -6.528,2.208 -9.817,2.789 -0.98,0.176 -2.248,0.2 -3.081,-0.38 -1.605,-1.115 -1.672,-3.83 -3.225,-5.238 -0.376,-0.34 -1.014,-0.183 -1.512,-0.16 -2.137,0.96 -3.328,2.761 -4.709,4.575 -2.807,-0.742 -7.441,-2.711 -9.681,-4.524 -3.122,-2.526 -0.382,-4.982 -0.732,-8.115 -2.387,-3.92 -4.963,-1.118 -8.123,-3.04 -6.721,-15.326 1.675,-11.389 2.647,-17.652 -0.786,-2.039 -3.085,-3.21 -4.84,-4.372 2.273,-4.275 4.829,-8.375 7.668,-12.3 1.898,0.826 4.085,2.282 6.207,1.995 2.197,-1.732 1.151,-5.367 1.697,-7.899l0.001 0z"/>
   <path class="fil1" d="M75.61 81.045l2.201 -0.1c1.684,0.857 1.511,1.991 2.698,3.279 1.545,1.677 7.568,2.397 9.836,2.411 1.591,0.01 2.983,-1.901 4.044,-2.932 1.325,-0.164 1.474,0.051 2.559,0.818 0.313,1.9 -0.388,3.042 -1.064,4.819 3.849,4.873 5.619,6.674 10.918,10.023 -2.72,6.681 -3.26,5.999 -4.832,13.93 1.527,1.31 2.623,1.904 3.223,3.864 -2.101,2.664 -8.717,1.94 -12.112,5.78 -1.871,2.119 -2.125,3.477 -1.949,6.222 -0.205,0.166 -0.434,0.303 -0.678,0.406 -2.339,0.893 -4.178,-3.161 -6.406,-3.997 -1.557,-0.584 -7.525,-1.569 -8.921,-0.708 -1.119,0.693 -1.531,1.997 -2.932,2.586 -0.351,0.149 -1.123,-0.273 -1.496,-0.421 -1.21,-1.593 -0.753,-1.967 -0.498,-3.888 0.491,-3.694 -3.384,-6.943 -5.524,-9.737 -1.346,-0.003 -3.88,0.266 -5.006,-0.487l-0.077 -0.053c-0.174,-0.114 -0.341,-0.243 -0.498,-0.38 0.08,-1.935 3.45,-5.137 4.449,-7.083 1.893,-3.689 -0.291,-8.92 -1.455,-12.583 2.668,-2.277 7.95,0.107 11.513,-4.25 2.031,-2.486 2.311,-4.399 2.009,-7.519l-0.002 0z"/>
   <path class="fil0" d="M76.954 94.81c2.521,-0.886 4.947,-1.789 7.656,-1.551 3.322,0.294 6.491,1.773 8.632,4.359 0.247,0.302 0.481,0.614 0.701,0.937 0.219,0.324 0.421,0.658 0.607,1.001 0.184,0.345 0.352,0.698 0.504,1.057 0.151,0.36 0.282,0.727 0.395,1.101 0.114,0.374 0.208,0.753 0.285,1.135 0.076,0.385 0.133,0.77 0.171,1.158 0.039,0.389 0.057,0.779 0.056,1.171 -0.002,0.39 -0.022,0.779 -0.061,1.168 -0.466,4.639 -2.97,7.503 -6.443,10.336 -2.46,0.893 -4.733,1.517 -7.371,1.199 -0.416,-0.051 -0.827,-0.122 -1.235,-0.212 -0.408,-0.091 -0.811,-0.202 -1.21,-0.332 -0.397,-0.129 -0.786,-0.279 -1.17,-0.447 -0.381,-0.168 -0.755,-0.355 -1.119,-0.559 -0.366,-0.205 -0.721,-0.427 -1.063,-0.667 -0.343,-0.24 -0.674,-0.495 -0.992,-0.766 -0.318,-0.271 -0.622,-0.557 -0.911,-0.859 -0.29,-0.301 -0.566,-0.615 -0.825,-0.942 -0.25,-0.318 -0.484,-0.648 -0.701,-0.988 -0.218,-0.341 -0.418,-0.691 -0.6,-1.051 -0.183,-0.36 -0.348,-0.729 -0.494,-1.104 -0.147,-0.376 -0.276,-0.759 -0.387,-1.148 -0.109,-0.389 -0.199,-0.782 -0.269,-1.179 -0.073,-0.398 -0.125,-0.798 -0.156,-1.202 -0.033,-0.403 -0.045,-0.806 -0.036,-1.208 0.007,-0.405 0.034,-0.807 0.08,-1.209 0.523,-4.188 2.747,-6.695 5.956,-9.198z"/>
   <path class="fil2" d="M79.696 98.683c1.548,-0.426 2.998,-0.705 4.606,-0.504 2.055,0.253 4.07,1.437 5.327,3.078 1.16,1.51 1.679,3.278 1.402,5.18 -0.377,2.57 -1.77,4.132 -3.768,5.637 -1.232,0.399 -2.493,0.742 -3.795,0.813 -2.001,0.076 -3.957,-0.628 -5.449,-1.966 -1.327,-1.231 -1.992,-2.934 -2.063,-4.723 -0.13,-3.229 1.66,-5.281 3.741,-7.516l-0.001 0.001z"/>
  </g>
  <g id="_2520595477344">
   <path class="fil0" d="M36.897 19.884c4.525,-0.198 9.068,-0.085 13.596,-0.042 0.191,1.588 0.346,4.003 1.156,5.387 0.681,1.163 1.099,1.323 2.319,1.665 2.087,-0.269 3.937,-2.092 5.549,-3.367 3.635,3.043 6.958,6.516 10.106,10.056 -0.981,1.143 -2.906,2.994 -3.289,4.406 -0.351,1.293 -0.12,1.674 0.505,2.766 1.818,1.426 4.491,1.716 6.709,2.173l0.071 13.283c-1.832,0.276 -4.401,0.49 -5.975,1.519 -1.198,0.782 -1.293,1.277 -1.579,2.592 0.318,2.101 2.098,3.7 3.447,5.234 -3.109,3.447 -6.243,6.667 -9.753,9.707 -1.872,-1.208 -3.925,-2.805 -6.147,-3.204 -2.645,0.942 -1.995,5.155 -3.725,7.23l-0.08 0.096c-3.341,0.155 -6.874,0.49 -10.203,0.223 -0.992,-0.078 -2.226,-0.374 -2.885,-1.145 -1.272,-1.484 -0.653,-4.128 -1.8,-5.882 -0.278,-0.424 -0.935,-0.434 -1.423,-0.536 -2.31,0.389 -3.916,1.831 -5.711,3.238 -2.529,-1.426 -6.516,-4.499 -8.227,-6.819 -2.383,-3.232 0.887,-4.917 1.339,-8.037 -1.321,-4.396 -4.52,-2.334 -7.093,-4.99 -2.639,-16.526 4.492,-10.599 7.013,-16.414 -0.247,-2.172 -2.176,-3.885 -3.581,-5.452 3.278,-3.563 6.786,-6.886 10.522,-9.968 1.629,1.278 3.378,3.239 5.503,3.497 2.564,-1.123 2.468,-4.904 3.635,-7.216l0.001 0z"/>
   <path class="fil1" d="M42.091 23.872l2.155 0.459c1.413,1.254 0.96,2.308 1.783,3.854 1.073,2.012 6.719,4.228 8.911,4.814 1.537,0.41 3.366,-1.088 4.653,-1.818 1.323,0.176 1.413,0.422 2.269,1.437 -0.176,1.918 -1.143,2.846 -2.244,4.395 2.495,5.686 3.754,7.875 8.037,12.453 -4.318,5.779 -4.669,4.983 -8.19,12.261 1.147,1.653 2.058,2.504 2.144,4.552 -2.705,2.048 -8.924,-0.322 -13.178,2.538 -2.345,1.579 -2.934,2.829 -3.455,5.529 -0.241,0.109 -0.497,0.184 -0.759,0.222 -2.488,0.274 -3.245,-4.112 -5.191,-5.483 -1.359,-0.958 -6.885,-3.416 -8.454,-2.935 -1.257,0.387 -1.984,1.546 -3.489,1.762 -0.377,0.055 -1.018,-0.547 -1.342,-0.784 -0.769,-1.847 -0.232,-2.094 0.499,-3.889 1.407,-3.45 -1.523,-7.571 -2.889,-10.815 -1.302,-0.342 -3.822,-0.721 -4.721,-1.733l-0.061 -0.071c-0.14,-0.154 -0.269,-0.322 -0.386,-0.494 0.565,-1.852 4.634,-4.101 6.091,-5.731 2.762,-3.093 1.968,-8.706 1.766,-12.544 3.156,-1.53 7.665,2.109 12.212,-1.209 2.593,-1.893 3.346,-3.674 3.841,-6.769l-0.002 -0.001z"/>
   <path class="fil0" d="M39.919 37.531c2.664,-0.221 5.239,-0.483 7.801,0.431 3.14,1.123 5.834,3.353 7.252,6.395 0.164,0.355 0.312,0.716 0.443,1.084 0.13,0.368 0.242,0.742 0.335,1.121 0.091,0.381 0.165,0.764 0.221,1.15 0.055,0.387 0.089,0.775 0.105,1.166 0.015,0.39 0.011,0.781 -0.011,1.169 -0.024,0.392 -0.065,0.779 -0.126,1.164 -0.061,0.386 -0.142,0.768 -0.242,1.147 -0.101,0.377 -0.218,0.749 -0.353,1.115 -1.622,4.372 -4.767,6.512 -8.842,8.377 -2.605,0.244 -4.963,0.274 -7.435,-0.698 -0.39,-0.155 -0.77,-0.327 -1.141,-0.518 -0.373,-0.191 -0.735,-0.399 -1.088,-0.626 -0.351,-0.225 -0.691,-0.468 -1.019,-0.728 -0.327,-0.258 -0.641,-0.533 -0.942,-0.823 -0.303,-0.29 -0.59,-0.595 -0.861,-0.913 -0.271,-0.319 -0.527,-0.65 -0.766,-0.992 -0.239,-0.342 -0.462,-0.696 -0.665,-1.06 -0.205,-0.365 -0.392,-0.738 -0.561,-1.12 -0.162,-0.371 -0.305,-0.749 -0.429,-1.133 -0.125,-0.385 -0.23,-0.774 -0.315,-1.168 -0.087,-0.395 -0.154,-0.793 -0.2,-1.193 -0.048,-0.401 -0.076,-0.805 -0.085,-1.209 -0.008,-0.404 0.005,-0.807 0.036,-1.208 0.031,-0.404 0.081,-0.804 0.153,-1.203 0.07,-0.398 0.16,-0.791 0.27,-1.178 0.109,-0.39 0.237,-0.773 0.383,-1.15 1.561,-3.921 4.347,-5.786 8.082,-7.399z"/>
   <path class="fil2" d="M41.596 41.971c1.606,-0.022 3.079,0.074 4.584,0.674 1.925,0.763 3.576,2.418 4.379,4.322 0.741,1.754 0.798,3.596 0.05,5.366 -1.013,2.393 -2.755,3.552 -5.068,4.505 -1.293,0.075 -2.599,0.089 -3.877,-0.17 -1.956,-0.431 -3.671,-1.606 -4.777,-3.278 -0.974,-1.525 -1.188,-3.341 -0.805,-5.091 0.689,-3.156 2.937,-4.691 5.515,-6.328l-0.001 0z"/>
  </g>
  <g id="_2520595477152">
   <path class="fil3 str0" d="M25.102 145.67c-5.187,-0.076 -11.996,-3.693 -14.087,-4.193 -4.649,-1.113 -3.978,-5.924 -3.893,-9.755 0.049,-2.21 -0.02,-5.289 0,-7.424 11.012,-0.367 25.168,-0.049 36.254,-0.049 41.299,0.002 81.857,-1.056 123.15,-0.994 2.05,0.003 5.165,0.838 7.216,0.866 3.771,3.791 1.811,19.226 -7.216,20.228 -38.404,4.261 -77.762,0.14 -128.606,1.153 -3.674,0.073 -7.826,0.24 -12.818,0.168z"/>
   <path class="fil4 str1" d="M5.654 29.539c-0.014,-7.48 -0.739,-10.631 5.584,-16.067 5.173,-4.448 8.505,-3.353 14.994,-3.353 43.08,-0.002 86.183,0.101 129.26,-0.001 7.902,-0.018 10.137,-0.88 15.844,5.528 4.364,4.9 3.271,7.934 3.256,14.061 -0.086,35.33 -0.141,70.734 0.059,106.06 0.029,5.167 -4.521,9.557 -9.789,9.917 -3.775,0.258 -9.392,-0.025 -13.4,-0.025 -43.982,0 -87.964,-0.035 -131.946,0.017 -4.796,0.005 -5.176,-0.164 -9.247,-2.779 -2.49,-1.6 -4.499,-5.724 -4.598,-8.651 -0.247,-7.326 -0.012,-15.455 -0.008,-22.871 0.015,-27.279 0.041,-54.558 -0.009,-81.836z"/>
   <line class="fil4 str2" x1="127.475" y1="23.136" x2="153.505" y2= "23.136" />
   <line class="fil4 str2" x1="159.24" y1="23.136" x2="163.652" y2= "23.136" />
   <line class="fil4 str1" x1="174.591" y1="122.389" x2="5.655" y2= "122.389" />
   <line class="fil4 str3" x1="97.965" y1="135.632" x2="115.773" y2= "135.632" />
   <path class="fil4 str1" d="M52.42 156.445c-1.079,-0.008 -4.324,0.014 -5.094,0.782 -0.803,0.8 -1.099,4.254 -0.92,5.432 0.657,4.326 3.914,3.901 7.953,3.804 12.988,-0.31 26.64,-0.062 39.698,-0.062 12.281,0 24.564,-0.078 36.842,0.1 4.55,0.065 7.512,-0.535 6.991,-5.443 -0.526,-4.944 -4.551,-4.719 -8.969,-4.614 -14.292,0.342 -29.261,0.122 -43.617,0.117 -10.962,-0.005 -21.922,-0.035 -32.884,-0.116z"/>
   <path class="fil3 str1" d="M61.243 145.527c-3.915,-0.051 -6.627,0.984 -6.522,5.391 0.174,7.289 8.839,5.576 13.731,5.546 16.42,-0.099 33.305,-0.266 49.696,-0.003 4.351,0.07 12.192,1.238 11.845,-5.431 -0.36,-6.923 -8.954,-5.39 -13.656,-5.372 -18.054,0.068 -36.154,0.109 -54.205,-0.12l-0.889 -0.011z"/>
   <line class="fil4 str3" x1="122.204" y1="158.257" x2="127.118" y2= "153.131" />
   <line class="fil4 str4" x1="110.809" y1="149.927" x2="116.374" y2= "156.794" />
   <rect class="fil5 str1" x="90.53" y="33.769" width="71.183" height="138.673" rx="8.766" ry="10.27"/>
   <ellipse class="fil6 str5" cx="125.412" cy="102.776" rx="29.266" ry="28.859"/>
   <line class="fil4 str2" x1="90.53" y1="41.649" x2="161.712" y2= "41.649" />
   <line class="fil4 str2" x1="91.9" y1="160.186" x2="161.712" y2= "160.186" />
   <line class="fil4 str0" x1="114.349" y1="166.072" x2="140.549" y2= "166.072" />
   <line class="fil4 str0" x1="119.732" y1="37.77" x2="132.148" y2= "37.77" />
   <path class="fil7 str6" d="M92.873 41.649l66.535 0c-0.062,-4.345 -3.724,-7.88 -8.193,-7.88l-50.148 0c-4.469,0 -8.131,3.535 -8.194,7.88z"/>
   <line class="fil4 str0" x1="118.147" y1="37.709" x2="134.216" y2= "37.709" />
   <path class="fil7 str6" d="M159.406 160.186l-66.535 0.024c0.068,5.98 3.735,10.845 8.204,10.843l50.148 -0.017c4.469,-0.002 8.126,-4.869 8.183,-10.85z"/>
   <line class="fil4 str6" x1="112.482" y1="165.62" x2="138.506" y2= "165.62" />
   <polygon class="fil8" points="110.542,105.826 116.912,94.211 126.926,107.748 136.9,89.563 140.164,93.976 123.819,123.774 "/>
   <g>
    <path id="_1" class="fil9" d="M117.387 95.024l-6.37 11.615 -0.95 -1.626 6.37 -11.615 0.652 0.166 0.298 1.46zm-0.95 -1.626l0.225 -0.411 0.427 0.577 -0.652 -0.166zm10.312 14.997l-10.014 -13.537 0.354 -1.294 10.014 13.537 0.298 1.46 -0.652 -0.166zm0.652 0.166l-0.225 0.411 -0.427 -0.577 0.652 0.166zm9.974 -18.185l-9.974 18.185 -0.95 -1.626 9.974 -18.185 0.652 0.166 0.298 1.46zm-0.95 -1.626l0.225 -0.411 0.427 0.577 -0.652 -0.166zm3.562 5.873l-3.264 -4.413 0.354 -1.294 3.264 4.413 0.298 1.46 -0.652 -0.166zm0.354 -1.294l0.631 0.853 -0.333 0.607 -0.298 -1.46zm-16.997 29.632l16.345 -29.798 0.95 1.626 -16.345 29.798 -0.652 -0.166 -0.298 -1.46zm0.95 1.626l-0.225 0.411 -0.427 -0.577 0.652 0.166zm-13.575 -19.408l13.277 17.948 -0.354 1.294 -13.277 -17.948 -0.298 -1.46 0.652 0.166zm-0.354 1.294l-0.631 -0.853 0.333 -0.607 0.298 1.46z"/>
   </g>
  </g>
  <line class="fil4 str6" x1="13.227" y1="135.715" x2="43.423" y2= "135.715" />
  <line class="fil4 str6" x1="53.613" y1="135.713" x2="59.906" y2= "135.713" />
 </g>
</svg>
