<svg xmlns="http://www.w3.org/2000/svg" xml:space="preserve" width="18mm" height="18mm" style="shape-rendering:geometricPrecision;text-rendering:geometricPrecision;image-rendering:optimizeQuality;fill-rule:evenodd;clip-rule:evenodd" viewBox="0 0 180 180"><defs><style>.str1,.str2,.str3{stroke:#2b2a29;stroke-width:50;stroke-miterlimit:22.9256}.str1,.str3{stroke-width:5}.str3{stroke-width:2.5}.str5{stroke-width:2}.str0,.str5{stroke:#2b2a29;stroke-miterlimit:22.9256}.fil1{fill:none}.fil58{fill:#00c3f9}.fil0{fill:#b7b5b6}.fil5{fill:#00c3f9;fill-rule:nonzero}.fil4,.fil6,.fil8{fill:#02c4f9;fill-rule:nonzero}.fil4,.fil6{fill:#0772bc}.fil6{fill:#52d6fa}.fil2,.fil20,.fil30{fill:#ace5f9;fill-rule:nonzero}.fil20,.fil30{fill:#c5f1fd}.fil20{fill:#f3fcfe}</style></defs><g id="Слой_x0020_1"><path class="fil0 str0" d="M24.799 141.402c-5.187-.076-11.996-3.693-14.087-4.193-4.649-1.113-3.978-5.924-3.893-9.755.049-2.21-.02-5.289 0-7.424 11.012-.367 25.168-.049 36.254-.049 41.299.002 81.857-1.056 123.15-.994 2.05.003 5.165.838 7.216.866 3.771 3.791 1.811 19.226-7.216 20.228-38.404 4.261-77.762.14-128.606 1.153-3.674.073-7.826.24-12.818.168z"/><path class="fil1 str1" d="M5.351 25.271c-.014-7.48-.739-10.631 5.584-16.067 5.173-4.448 8.505-3.353 14.994-3.353 43.08-.002 86.183.101 129.26-.001 7.902-.018 10.137-.88 15.844 5.528 4.364 4.9 3.271 7.934 3.256 14.061-.086 35.33-.141 70.734.059 106.06.029 5.167-4.521 9.557-9.789 9.917-3.775.258-9.392-.025-13.4-.025-43.982 0-87.964-.035-131.946.017-4.796.005-5.176-.164-9.247-2.779-2.49-1.6-4.499-5.724-4.598-8.651-.247-7.326-.012-15.455-.008-22.871.015-27.279.041-54.558-.009-81.836zM174.288 118.121H5.352"/><path class="fil1 str2" d="M16.599 135.353h3.135"/><path class="fil1 str1" d="M52.117 152.177c-1.079-.008-4.324.014-5.094.782-.803.8-1.099 4.254-.92 5.432.657 4.326 3.914 3.901 7.953 3.804 12.988-.31 26.64-.062 39.698-.062 12.281 0 24.564-.078 36.842.1 4.55.065 7.512-.535 6.991-5.443-.526-4.944-4.551-4.719-8.969-4.614-14.292.342-29.261.122-43.617.117a4742.899 4742.899 0 0 1-32.884-.116z"/><path class="fil0 str1" d="M60.94 141.259c-3.915-.051-6.627.984-6.522 5.391.174 7.289 8.839 5.576 13.731 5.546 16.42-.099 33.305-.266 49.696-.003 4.351.07 12.192 1.238 11.845-5.431-.36-6.923-8.954-5.39-13.656-5.372-18.054.068-36.154.109-54.205-.12l-.889-.011z"/><path class="fil1 str2" d="m48.614 160.172 4.914-5.623"/><g id="_2520778612544"><path class="fil1 str3" d="M127.172 18.868h26.03M158.937 18.868h4.412"/><path class="fil2" d="M147.829 91.861c.786-.202 1.118-.897 1.618-1.422 1.3-1.374 2.442-2.928 4.215-3.79 2.12-1.024 4.397-.232 5.629 1.733 1.29 2.055 1.66 4.266 1.648 6.604 0 .732 0 1.466.014 2.2-.395.257-.829.088-1.246.097-1.335.035-2.147.722-2.38 2.044-.203 1.14.358 2.043 1.533 2.515.384.155.857.116 1.149.487-.942 2.385-1.924 4.738-4.041 6.41a4.937 4.937 0 0 1-1.945 1.013c-2.551.594-5.125.246-7.692.22-2.028-.197-4.041.256-6.066.112-.535-.037-1.112.086-1.515-.411.598-1.798.029-3.3-1.208-4.631-.318-.344-.664-.731-1.111-.827-1.604-.341-1.814-1.421-1.724-2.786.077-1.231 0-2.471.021-3.716 0-.448-.08-.945.403-1.254.565.181.426.678.449 1.066.045.806 0 1.625.017 2.429 0 1.161.014 1.161 1.097.824 1.213-.367 2.275-1.019 3.333-1.676 1.589-.99 3.148-2.018 4.444-3.386.311-.328.617-.725 1.177-.657.236.146.196.492.521.678.157-.929.826-1.085 1.608-1.045.629.032.707.504.78 1.098a5.27 5.27 0 0 0 .068-1.359c0-.494.016-.982-.195-1.465-.175-.381-.789-.536-.601-1.105zm-35.853 17.619c-2.532-2.817-4.618-5.889-5.694-9.556-.683-2.334-1.058-4.645.085-6.967 1.142-2.322 2.993-3.458 5.609-3.416.636 0 1.361.179 1.618-.697.707 1.296.471 2.555-.523 3.583-.994 1.029-.866 2.29-.457 3.716-.021-.766.038-1.324.763-1.516a2.058 2.058 0 0 1 .942.03c.471.144.679.49.841 1.133.052-.929.04-1.653.036-2.38a1.04 1.04 0 0 0-.382-.929c-.942-.697-.895-1.626-.619-2.613.49-.508.942-.109 1.382.079 2.44 1.05 4.456 2.717 6.359 4.491 1.413 1.319 2.845 2.631 4.154 4.06.235 1.414.104 2.835.094 4.252v.027c0 .546-.337 1.037-.85 1.241-2.268 1.082-3.177 2.891-2.906 5.325a.47.47 0 0 1-.08.216c-.391.464-.942.522-1.486.525h-7.487c-.549-.005-1.126.021-1.399-.604z"/><path d="M113.476 94.896c-.579 0-.532.404-.565.794-.026.286-.042.697-.431.697-.32 0-.414-.386-.407-.62.04-1.424-.566-3.077 1.304-3.909.335-.148.252-.443.252-.696 0-.769-.023-1.535-.035-2.302.012-1.351.021-2.703.042-4.054a.993.993 0 0 0-.376-.909 1.102 1.102 0 0 1-.389-1.428 1.176 1.176 0 0 1 1.303-.754.828.828 0 0 0 .642-.2c1.399-1.194 2.621-2.555 3.87-3.883.155-.165.124-.509.16-.773.322-2.392 1.931-3.872 4.385-3.981.977-.044 1.957.014 2.934-.021.327-.011.822.256.921-.381.094-.596-.236-.784-.751-.928-3.243-.929-5.728-2.917-7.656-5.597a12.638 12.638 0 0 1-1.898-3.948c-.154-.534-.373-.745-.942-.759-1.199-.026-1.861-.781-2.054-1.858a12.493 12.493 0 0 1-.052-3.806c.172-1.296 1.09-2 2.355-2.209.417-.07.69-.132.853-.597 2.1-5.987 6.318-9.354 12.698-10.062.08-.015.16-.039.235-.07a1.264 1.264 0 0 1 1.649.003c2.15.378 4.26.842 6.182 1.966a14.773 14.773 0 0 1 6.519 7.741c.235.636.433 1.028 1.264 1.017 1.164-.016 1.96.866 2.026 2.12.028.591.045 1.2.045 1.795 0 .596-.017 1.204-.044 1.795-.066 1.343-.758 2.035-2.119 2.128-.549.039-.796.167-.973.729-1.51 4.842-4.814 7.972-9.618 9.628-.146.051-.294.104-.445.146-.393.109-.744.232-.678.762.075.608.537.464.892.45a25.864 25.864 0 0 1 1.72-.059c.637 0 1.278.027 1.912.074 2.826.232 3.985 1.34 4.267 4.087.017.156-.052.37.031.465.817.88 1.691 1.709 2.48 2.612.789.904 1.573 1.823 2.995 1.51.707.202.638.752.584 1.291-1.497 2.881-.584 5.956-.734 8.959 1.672 1.161 1.048 2.865 1.097 4.412 0 .209-.146.432-.329.404-.38-.06-.471-.423-.422-.718.198-1.019-.407-.907-1.111-.928-.5-.014-.472.174-.472.494-.025.395.095 1.008-.494.973-.546-.03-.403-.636-.445-1.035a24.375 24.375 0 0 1-.04-.344c-.558-1.029-.29-1.96.442-2.757a2.49 2.49 0 0 0 .688-1.892 20.518 20.518 0 0 1-.039-1.216c0-.405.015-.813.039-1.216.323-3.565-1.149-6.309-3.916-8.511-.304.281-.144.643-.146.957-.019 2.201 0 4.412-.017 6.604-.023 2.118-1.071 3.621-3.045 4.38a2.654 2.654 0 0 0-1.688 1.744c-.5 1.393-1.47 2.434-2.68 3.27-.328 2.178-.109 4.363-.128 6.546 0 .511.441.518.728.602 2.134.629 3.047 2.241 3.554 4.199.184.717 0 1.288-.667 1.674-.433.441-1.001.381-1.537.381-4.363.014-8.726.014-13.089 0-.603 0-1.275.105-1.694-.522a1.16 1.16 0 0 1-.504-1.213c.384-1.925 1.159-3.625 3.173-4.366.64-.232.847-.515.824-1.149-.054-1.424-.05-2.847-.068-4.271-.097-2.28-2.136-3.702-2.64-5.806-.118-.497-.57-.569-.987-.696-2.412-.723-3.686-2.353-3.735-4.845-.043-2.12 0-4.243-.014-6.363a4.558 4.558 0 0 0-.055-1.161c-3.061 2.29-4.474 5.207-3.89 8.95.068.465.177.929-.165 1.327-.045.952-.386 1.939.815 2.584.575.309.596 3.351.17 3.867-.307.369-.455.132-.559-.149-.153-.406.083-.959-.471-1.214-.117-.381.219-.646.255-.98.077-.697-.071-1.254-.985-1.131a1.247 1.247 0 0 0-.471.348c-.384.701.424 1.163.365 1.802z" style="fill:#004ca3;fill-rule:nonzero"/><path class="fil4" d="M110.528 50.856c-1.884 1.314-3.938 2.183-6.314 2.046-4.102-.232-6.905-2.357-8.407-6.017-1.359-3.305-.912-6.542 1.34-9.366a9.288 9.288 0 0 1 7.297-3.524c1.974 0 3.897.626 5.485 1.78 4.105 2.933 5.181 8.618 2.45 12.773-.17.257-.295.541-.441.812a2.406 2.406 0 0 1-1.41 1.496zm40.598 27.826c-3.533-4.055-3.062-9.754 1.177-12.843 2.725-1.987 5.796-2.322 8.872-.903 3.012 1.393 4.665 3.869 4.995 7.157.035.312.053.627.053.94 0 4.691-3.858 8.495-8.615 8.495-.95 0-1.896-.156-2.795-.459a9.914 9.914 0 0 1-2.853-1.549 1.106 1.106 0 0 1-.834-.838zm-21.252-41.818c-2.762-.678-4.686-2.187-5.181-5.109-.471-2.561 1.149-5.343 3.634-6.296 2.567-.989 5.558-.102 7.065 2.091 2.459 3.581.782 7.993-3.455 9.108a3.562 3.562 0 0 0-.431.174c-.534.441-1.081.432-1.632.032z"/><path class="fil5" d="M98.83 71.75c2.12.346 2.648-.632 2.947-2.204.186-.992 1.038-1.858 1.592-2.787.318-.529.61-.371.831.063.706 1.393 1.846 2.594 1.924 4.282.04.857.841.432 1.293.597.308.114.796-.121.918.288.085.285-.275.518-.471.755-1.135 1.326-2.284 2.64-3.386 3.994-.471.569-.766.743-1.321.063-1.321-1.619-2.72-3.175-4.327-5.051z"/><path class="fil6" d="M99.73 100.453c-1.935-.012-3.5-1.559-3.509-3.467-.054-1.9 1.571-3.495 3.58-3.514h.012c1.924 0 3.485 1.539 3.485 3.437v.042c0 1.934-1.59 3.502-3.551 3.502h-.017z"/><path d="M122.428 109.359c.419.07.847.121 1.271.145l15.049-.001c1.667.432 3.356.197 5.037.13.872-.035 1.776-.316 2.553.339-.236.402-.617.383-1.015.383-11.304.014-22.608.031-33.912.052a2.433 2.433 0 0 1-.471-.019c-.367-.07-.942-.037-.878-.541.063-.567.645-.318.967-.272.323.046.657.232.942-.095.382.267.82.213 1.246.213l7.638.001c.553.002 1.102.014 1.573-.335z" style="fill:#09c5f9;fill-rule:nonzero"/><path class="fil6" d="M160.018 102.327c-1.215.016-2.249-.367-2.802-1.488-.553-1.122-.257-2.2.527-3.105.891-1.031 2.049-.918 3.22-.551 1.177.734 1.648 1.758 1.373 3.107-.259 1.22-1.069 1.889-2.318 2.037z"/><path class="fil8" d="m147.563 30.942.001.082c0 1.141-.936 2.067-2.093 2.071h-.03c-1.21 0-2.207-.938-2.263-2.129a2.083 2.083 0 0 1-.002-.079c0-1.184.974-2.144 2.174-2.144H145.392c1.199 0 2.172.959 2.172 2.141l-.001.058z"/><path style="fill:#aee6f9;fill-rule:nonzero" d="m129.874 36.864 1.649-.035v5.815h-1.649z"/><path d="m151.126 78.682.833.838c-.965.834-1.924 1.679-2.903 2.496a1.811 1.811 0 0 0-.492.878 2.146 2.146 0 0 0-.585-1.293l3.147-2.919z" style="fill:#0ac4f8;fill-rule:nonzero"/><path d="m110.528 50.856 1.413-1.486 1.794 3.049a16.755 16.755 0 0 1-3.207-1.564v.001z" style="fill:#0bc4f8;fill-rule:nonzero"/><path d="M107.238 59.051a.869.869 0 0 1-.836-.929c0-.478.285-.945.838-.928.554.016.982.285.98.928-.002.644-.426.834-.982.929z" style="fill:#0dc6f9;fill-rule:nonzero"/><path d="M164.443 58.023c-.04.494-.235.894-.819.896-.584.002-1.015-.204-1.015-.843 0-.52.308-.929.812-.961.504-.033.949.288 1.022.908z" style="fill:#5cd9fa;fill-rule:nonzero"/><path d="M112.447 82.123c-1.038-.989-1.691-1.974-2.635-2.661a.29.29 0 0 1-.054-.485c.07-.08.169-.13.275-.14.646.058 2.344 2.206 2.414 3.286z" style="fill:#12c7f9;fill-rule:nonzero"/><path d="M165.312 85.219c-.671-.067-1.055-.346-1.008-.882v-.005a.863.863 0 0 1 1.027-.843c.537.056.862.378.796.929a.853.853 0 0 1-.815.801z" style="fill:#0bc6f9;fill-rule:nonzero"/><path d="M153.424 56.662c0 .548-.311.903-.831.952-.582.056-.834-.349-.848-.873 0-.479.207-.839.737-.864.53-.026.912.195.942.785z" style="fill:#57d7fa;fill-rule:nonzero"/><path d="M98.364 85.953c-.047.434-.252.789-.763.794l-.045.001a.736.736 0 0 1-.739-.8v-.028a.728.728 0 0 1 .82-.717c.445.004.68.281.727.75z" style="fill:#11c7f9;fill-rule:nonzero"/><path d="M116.776 32.317c.407.112.807.232.725.743-.068.409-.306.746-.754.741-.447-.004-.687-.376-.706-.782-.01-.453.311-.665.735-.702z" style="fill:#0cc6f9;fill-rule:nonzero"/><path d="M98.298 58.9c.45.054.733.298.707.748-.026.451-.313.681-.775.674-.462-.007-.747-.279-.721-.718.026-.439.337-.666.789-.704z" style="fill:#5bd8fa;fill-rule:nonzero"/><path class="fil20" d="M135.26 96.482c1.178-1.379 2.461-2.685 2.805-4.556.078-.435.429-.353.707-.423 2.119-.52 3.49-1.958 3.586-4.134.123-2.81.028-5.627.028-8.673 1.47 1.073 2.925 2.187 3.408 3.53.499 1.393 1.736 2.617 1.324 4.437-.351 1.545-.071 3.226-.08 4.847 0 .146-.029.388-.116.425-1.474.65-1.26 1.974-1.333 3.184a29.593 29.593 0 0 1-6.432 4.878 15.334 15.334 0 0 1-3.909 1.52l.012-5.035zm-20.894-6.709c-.204-1.456-.143-2.922-.153-4.385 0-.629.036-1.237.606-1.665.089-.067.2-.178.204-.271.109-2.418 2.539-3.075 3.75-4.722 0 2.601.019 5.205 0 7.806-.021 2.696 1.036 4.458 3.297 4.907 1.064.211 1.486.624 1.648 1.607.126.848.55 1.629 1.199 2.201 1.071.887 1.13 1.928.942 3.11-1.329-.79-2.28-1.988-3.382-3.019-2.183-2.053-4.432-4.018-7.235-5.237-.289-.128-.586-.223-.876-.332z"/><path d="M113.476 94.896c-.527-.609-1.319-1.161-.471-2.069.365.213.412.014.379-.288.544-.395.98-.116 1.317.281a1.072 1.072 0 0 1 .078 1.393l-.448.648-.855.035z" style="fill:#01c0f6;fill-rule:nonzero"/><path class="fil5" d="M139.294 63.777c-6.751 0-13.489.012-20.215.035a1.083 1.083 0 0 1-1.145-.769c-2.312-5.757-.786-13.004 4.71-16.996 4.548-3.307 10.991-3.433 15.887-.028.11.102.208.217.292.341 1.599 2.199 2.216 4.74 2.621 7.353a1.401 1.401 0 0 1-.131.9c-.787.372-.782-.401-1.011-.733-.471-.711-.921-1.433-1.808-1.728-1.319-.43-2.318-.061-3.232 1.175a6.818 6.818 0 0 0-.913 1.997 6.345 6.345 0 0 0 .235 3.595c.167.676.676 1.161.97 1.779 1.145 1.626 2.485 1.807 4.049.539.256-.207.471-.655.852-.411.382.244.266.708.099 1.059-.318.687-.513 1.479-1.26 1.893v-.001zm1.87 11.412c.671.813.669 1.825.664 2.754-.014 3.161.193 6.326-.148 9.484-.217 1.984-1.616 3.465-3.681 3.484-5.049.056-10.101.044-15.15 0-1.79-.014-2.976-1.282-3.283-3.291 1.284-.095 2.541.33 3.827.184 3.799-.065 7.598-.012 11.396-.03.509 0 1.018.014 1.526-.014 2.011-.107 3.019-1.066 3.062-3.073.054-3.086.054-6.177-.024-9.266a.719.719 0 0 1 .203-.374c.558-.276 1.104-.313 1.608.142zm-20.239-7.928c-.89-.697-1.488-1.626-2.143-2.764h2.826c.808.212 1.632.088 2.447.091 4.46.014 8.921 0 13.381.018.391 0 .942-.255 1.149.253.168.423-.205.788-.471 1.122-4.441 5.506-12.809 5.29-16.894 1.479a1.734 1.734 0 0 0-.295-.199z"/><path class="fil2" d="M123.259 88.122c-1.26.044-2.52.095-3.693-.49-.035-3.358-.136-6.719-.087-10.074.033-2.71 1.529-4.027 4.312-4.013 4.624 0 9.246.01 13.866.03.942.16 1.762.464 1.885 1.579-.281.486-.74.488-1.23.465-4.623-.214-9.246-.051-13.871-.093a7.995 7.995 0 0 0-1.509.195c-.888-.2-1.265.125-1.208 1.047.045.718.028 1.435.205 2.141a4.993 4.993 0 0 1 .025 1.089c-.273 1.182-.207 2.381-.207 3.579 0 .618.179 1.14.726 1.496.631.924 1.479 1.79.786 3.049z"/><path d="M130.91 91.645c1.842 0 3.686.053 5.523-.021.9-.037.909.397.683.954-.685 1.693-1.722 3.14-3.467 3.888-3.25 1.393-6.087.666-8.287-1.742a2.24 2.24 0 0 1-.37-.448c-.384-.75-1.043-1.575-.628-2.357.343-.648 1.293-.233 1.964-.258 1.526-.051 3.056-.016 4.582-.016z" style="fill:#0582c9;fill-rule:nonzero"/><path class="fil4" d="M141.126 54.72c.064-2.601-.89-4.949-1.867-7.292a47.77 47.77 0 0 1-.433-1.061c5.254 4.041 6.791 10.868 4.328 16.795-.198.481-.45.641-.942.625-.977-.028-1.954-.01-2.918-.01.386-.929 1.088-1.744 1.204-2.923-2.355 2.09-4.407 1.96-5.21-.212.514-.032.841.353 1.251.548 1.031.49 2.119.386 2.887-.439.9-.966 1.58-2.078 1.649-3.448.143-.862-.431-1.735.051-2.583z"/><path d="M120.925 67.261c1.764 1.052 3.533 2.134 5.622 2.41 5.061.674 8.402-.504 11.678-4.303.101-.16.181-.334.236-.515-.389-.3-.789-.163-1.154-.163-4.821 0-9.64 0-14.458-.014-.417 0-.869.125-1.243-.186 6.611-.003 13.226-.008 19.845-.016.257 0 .596-.123.747.169.151.293-.191.465-.332.669-2.876 4.271-6.969 6.236-12.105 6.113a11.501 11.501 0 0 1-5.23-1.505c-1.305-.716-2.777-1.28-3.606-2.659z" style="fill:#0771bc;fill-rule:nonzero"/><path d="M134.349 97.014c.395 2.011.087 4.038.136 6.059a.49.49 0 0 1-.391.511c-1.648.404-2.59 1.59-3.377 3.102-.342-.57-.719-1.13-1.119-1.661-.336-.411-.718-.885-1.257-.99-1.733-.339-1.837-1.509-1.741-2.919.085-1.265 0-2.54 0-3.811 0-.264-.103-.768.471-.343.024.153.038-.037.022.113-.28 2.465 1.441 3.234 3.335 3.859.785.224 1.597.385 2.409.48.814.13 1.177-.232 1.177-1.015v-2.078c.016-.458-.04-.936.334-1.308l.001.001z" style="fill:#ace4f9;fill-rule:nonzero"/><path class="fil20" d="M134.349 97.014c0 1.265-.045 2.533-.012 3.799.021.864-.485 1.122-1.178 1.01-1.832-.292-3.662-.597-5.228-1.732-1.201-.873-1.446-1.589-.873-3.128 2.416 1.168 4.849.919 7.291.051z"/><path class="fil5" d="M124.265 105.144c.266-.58.824-.662 1.363-.771.499-.207.942-.025 1.281.295.959.887 1.331 2.034 1.357 3.302a.73.73 0 0 1-.532.795c-1.435 0-2.869 0-4.303.034-.794.024-.973-.353-.758-.991.339-1.001.558-2.09 1.603-2.673.236.232-.011.731.455.84l.03.003a.148.148 0 0 0 .147-.126c.061-.473-.45-.457-.643-.708zm11.711 3.63c-1.361 0-2.722.025-4.084.016-.313 0-.706.128-.821-.395-.328-1.479 1.667-3.908 3.275-3.962 1.637.449 2.692 3.259 1.63 4.341z"/><path d="M116.415 54.767a15.613 15.613 0 0 0-.013 5.274c.098.546-.12.676-.65.532-.655-.176-1.225-.492-1.3-1.161-.153-1.375-.278-2.763.122-4.127.125-.538.53-.971 1.064-1.136.594-.197.93-.088.777.618zm30.401 2.508v1.728c-.014.622-.28 1.161-.85 1.407s-1.142.269-1.02-.627c.212-1.679.311-3.349-.132-5.016-.146-.555.236-.783.761-.697a1.384 1.384 0 0 1 1.22 1.349c.045.611 0 1.226 0 1.842l.021.014z" style="fill:#00c2f8;fill-rule:nonzero"/><path d="M135.976 108.774c.513-1.305-.235-3.295-1.63-4.341 1.383-.548 2.965.268 3.818 1.963.942 1.858.591 2.436-1.486 2.415-.233-.002-.469-.023-.702-.037z" style="fill:#017ddc;fill-rule:nonzero"/><path d="M127.734 108.765c.68-1.698-.406-3.962-2.099-4.392 2.12-.627 4.885 1.802 4.487 3.911-.073.392-.26.529-.622.522l-1.766-.041z" style="fill:#017ddb;fill-rule:nonzero"/><path d="M130.581 73.039c-.667 0-1.333.016-1.997 0h-.026a.498.498 0 0 1-.502-.494v-.017c0-.39.32-.39.591-.39h3.641c.356 0 .782 0 .763.49-.016.394-.398.42-.706.425l-1.762-.001-.002-.013z" style="fill:#066cb8;fill-rule:nonzero"/><path d="M147.332 94.443c-.65-.03-.996-.276-.973-.855.024-.578.351-.984.921-.998.57-.014.942.341.942.95.021.673-.473.796-.89.903z" style="fill:#00bff6;fill-rule:nonzero"/><path class="fil6" d="M139.53 75.156a4.244 4.244 0 0 0-1.884-1.579c1.413.023 2.826.067 3.507 1.626l-1.623-.047z"/><path class="fil30" d="M113.389 92.529c.316.172.718.405.266.734-.341.251-.654.028-.647-.446l.381-.288z"/><path d="M110.777 41.13v6.145c0 1.027-.602 1.591-1.617 1.6-3.135.03-6.274.051-9.409 0-1.375-.021-1.794-.481-1.834-1.858-.052-1.776 0-3.555-.017-5.341 0-.697.269-.725.744-.381 1.319.959 2.659 1.895 3.931 2.912 1.576 1.259 2.287 1.24 3.89-.018 1.319-1.043 2.746-1.958 4.312-3.059z" style="fill:#f6c575;fill-rule:nonzero"/><path class="fil6" d="M104.306 38.525c1.526 0 3.061-.024 4.58 0 .693.016 1.449 0 1.764.836.316.836-.386 1.198-.874 1.577a86.414 86.414 0 0 1-3.864 2.814c-.968.669-1.884.871-2.944-.044-1.224-1.064-2.642-1.907-3.93-2.903-.49-.378-1.201-.762-.891-1.584.295-.787 1.039-.696 1.696-.713 1.488-.014 2.974 0 4.475 0l-.012.017z"/><path d="M157.663 77.435c-1.097 0-2.197.044-3.297-.012-1.227-.063-1.846-.697-1.884-1.914-.045-1.161-.021-2.322 0-3.483.012-.808.186-1.561 1.036-1.918.443-.188.354-.539.375-.873.101-1.705.405-1.984 2.143-1.984h3.297c1.342 0 1.82.465 1.844 1.807 0 .546.05.952.671 1.145.81.249.978.959.996 1.67.031 1.235.045 2.475-.018 3.715-.059 1.162-.676 1.761-1.863 1.83-1.105.061-2.205.019-3.3.017z" style="fill:#f1fbfe;fill-rule:nonzero"/><path d="M133.308 30.218c.023.977-1.91 3.198-2.826 3.226h-.007a.651.651 0 0 1-.417-.151c-.732-.685-1.561-1.278-2.082-2.16a1.672 1.672 0 0 1-.259-.892c0-.424.163-.833.455-1.145.471-.522 1.177-.785 1.884-.299.4.276.694.1 1.071-.042 1.145-.43 2.153.269 2.181 1.463z" style="fill:#f2fbfe;fill-rule:nonzero"/><path d="M141.126 54.72c.12.929.471 1.833.25 2.787-.812 1.054-1.201 1.198-1.983.727-.038-.697.108-1.37.045-2.06-.097-1.087-.721-2.046-1.554-2.204-.973-.186-1.618.335-2.108 1.106-.116.2-.29.362-.499.464a1.125 1.125 0 0 1-1.164-.355 4.146 4.146 0 0 1 .77-1.905c1.578-2.217 4.053-2.166 5.506.138.257.427.49.87.737 1.302z" style="fill:#cce4f1;fill-rule:nonzero"/><path d="M119.983 55.881c.066-1.892 1.413-3.824 2.92-4.159 2.026-.464 3.785.992 4.18 3.463-.313.348-.741.383-1.165.388-.396-.07-.516-.414-.707-.697-.975-1.361-2.503-1.199-3.262.334-.216.439-.19.99-.635 1.324-1.246.406-1.371.344-1.331-.653z" style="fill:#cfe8f6;fill-rule:nonzero"/><path d="M139.53 58.204c.871.425 1.177-.641 1.858-.697-.085 1.194-.643 2.197-1.382 3.086-1.34 1.626-2.791 1.603-4.711.045-.353-.465-.817-.874-.897-1.501.636-.45 1.31 0 1.96-.083 1.267.543 2.173-.305 3.172-.85z" style="fill:#8cb4d1;fill-rule:nonzero"/><path d="M119.983 55.881c.064 1.294.928.3 1.383.465.379.248.32.676.426 1.033.339 1.161 1.125 1.902 1.957 1.84.911-.07 1.721-1.085 1.811-2.239.04-.523-.127-1.087.289-1.542a2.137 2.137 0 0 1 1.235-.253c.483 1.354.134 2.643-.318 3.92-1.837 1.305-4.475 1.421-6.265.26-.551-1.115-.805-2.264-.518-3.484z" style="fill:#add0e9;fill-rule:nonzero"/><path d="M120.501 59.365c2.12.715 4.202.446 6.265-.251-.024.417-.19.814-.471 1.127-1.366 2.143-3.161 2.41-4.92.731l-.874-1.607z" style="fill:#8bb5d2;fill-rule:nonzero"/><path d="M136.525 59.365c-.737.13-1.43-.151-2.146-.218a4.996 4.996 0 0 1-.266-3.962l1.178.232c.061.049.148.1.153.165.13 1.312.499 2.596 1.081 3.783z" style="fill:#afd5ed;fill-rule:nonzero"/><path d="M124.747 47.115a3.098 3.098 0 0 1-.289.432c-.768.757-1.533 1.514-2.318 2.253-.197.185-.445.306-.734.09a.521.521 0 0 1-.16-.718c.584-1.084 1.516-1.839 2.555-2.468.466-.283.657.137.946.411z" style="fill:#eafafe;fill-rule:nonzero"/><path d="M127.519 45.951c-.282.674-.984.841-1.648.983-.346.072-.773-.151-.688-.583.165-.841.954-.929 1.623-1.075.379-.077.68.155.713.675z" style="fill:#e9fafe;fill-rule:nonzero"/><path d="M121.375 60.972c.746.248 1.342.815 2.225.806 1.242-.012 1.927-.822 2.704-1.545-.236 1.354-1.265 1.956-2.466 2.091-1.029.12-1.99-.286-2.463-1.352z" style="fill:#0b7cc3;fill-rule:nonzero"/><path d="M129.669 45.317c-.03.346-.193.579-.567.579-.375 0-.547-.233-.547-.586v-.023a.5.5 0 0 1 .502-.497.519.519 0 0 1 .613.508l-.001.019z" style="fill:#d9f6fe;fill-rule:nonzero"/><path class="fil6" d="M122.592 75.621a2.128 2.128 0 0 1 1.513-.465c4.378.019 8.755.031 13.133 0 .764 0 1.526.465 2.29.014a6.25 6.25 0 0 1 .235 2.051c0 2.585.024 5.17 0 7.752-.026 1.967-1.251 3.177-3.243 3.184-4.418.014-8.838-.012-13.256-.023.235-1.148-.554-2-.902-2.978-.191-.871-.038-1.739 0-2.61.037-.871.195-1.858-.707-2.501v-1.191a2.397 2.397 0 0 0 .617-1.812c-.03-.492-.117-1.019.321-1.421h-.001z"/><path d="M121.632 80.033c.416-.121.817-.121.89.404.221 1.575.28 3.152-.17 4.708-.81.304-.904-.411-.911-.797-.019-1.437-.245-2.893.191-4.315zm.96-4.412v2.385c0 .613-.324.899-.941.841-.457-.99-.283-2.042-.182-3.043.068-.836.612-.866 1.124-.183h-.001z" style="fill:#f2fcfe;fill-rule:nonzero"/><path d="M124.265 105.144c.497-.135.942-.137 1.095.476a.576.576 0 0 1-.504.769c-1.178.063-.648-.713-.58-1.254l-.011.009z" style="fill:#dcf7fe;fill-rule:nonzero"/><path d="M133.96 105.913c-.045.385-.428.499-.746.481-.318-.019-.471-.358-.434-.697.038-.339.217-.597.589-.574.429.03.556.358.591.79z" style="fill:#e1f8fe;fill-rule:nonzero"/><path class="fil30" d="M99.751 39.663h6.764c-.867.608-5.932.615-6.764 0z"/><path class="fil6" d="M157.663 76.55c-.979 0-1.957.011-2.936 0-.879-.012-1.399-.381-1.366-1.335.024-.442.039-.888.039-1.331 0-.443-.015-.889-.04-1.33-.099-1.221.548-1.73 1.648-1.732 1.99 0 3.982.07 5.972.144.589.021.924.401.926.994v3.483c0 .757-.396 1.129-1.178 1.124-1.024-.016-2.041-.016-3.066-.016l.001-.001z"/><path class="fil4" d="M157.428 69.917h-1.649c-.494 0-1.038.123-1.005-.696.026-.671.124-1.108.965-1.076 1.206.045 2.416.012 3.625 0 .734-.011.876.37.894 1.022.019.767-.412.781-.963.767-.624-.028-1.25-.017-1.867-.017z"/><path d="M136.525 59.365c-1.237-1.061-1.413-2.446-1.248-3.948 1.295-2.146 3.009-2.422 4.071-.655a3.452 3.452 0 0 1 .432 2.208c-.058.414-.143.828-.25 1.233-1.012 1.394-1.373 1.521-3.005 1.161v.001zm-10.68-3.929c.03.803.188 1.625-.109 2.403-.362.929-.942 1.723-2.084 1.751-.972.026-2.023-1.07-2.211-2.213-.045-.334-.045-.69-.08-1.031a3.002 3.002 0 0 1 .596-1.707c1.302-1.623 2.71-1.333 3.888.797z" style="fill:#014da4;fill-rule:nonzero"/><path class="fil20" d="M130.628 86.085c-1.929-.001-3.511-1.508-3.58-3.409-.03-1.971 1.606-3.734 3.519-3.783 1.834-.044 3.532 1.582 3.565 3.421.04 1.995-1.585 3.743-3.504 3.771zm26.988-12.786h-2.221c-.235 0-.494-.019-.534-.316-.04-.297.207-.388.447-.388 1.559 0 3.118.006 4.675.019.235 0 .499.046.485.357-.014.311-.28.328-.516.328h-2.336z"/><path d="M156.816 75.14a2.272 2.272 0 0 1-.328 0c-.553-.114-1.531.321-1.542-.481 0-.678.942-.32 1.483-.418a.781.781 0 0 1 .236 0c.619.082 1.712-.232 1.707.465-.002.882-1.095.195-1.556.434z" style="fill:#dff7fe;fill-rule:nonzero"/><path d="M139.028 55.359c-.085.683-.377 1.217-1.078 1.189-.658-.023-1.063-.495-1.041-1.161l-.001-.026a1.066 1.066 0 0 1 1.143-1.056c.647-.012.899.506.977 1.054z" style="fill:#e9f5fa;fill-rule:nonzero"/><path d="M124.891 55.322c-.118.697-.433 1.217-1.201 1.145-.768-.072-.942-.697-.909-1.35.038-.62.471-1.038 1.043-1.014.693.028 1.091.506 1.067 1.219z" style="fill:#e8f4fa;fill-rule:nonzero"/><path d="M129.403 84.234c-.388-.541.047-.861.134-1.24.128-.543.537-1.043.236-1.658-.087-.186-.207-.464.115-.574.259-.085.45.112.573.305.18.298.345.61.485.929.299.655.61 1.263 1.526 1.094.236-.044.535.025.511.318-.019.251-.306.314-.553.32-.429 0-.897.128-1.277 0-.737-.271-1.299-.123-1.749.507l-.001-.001z" style="fill:#59d8fa;fill-rule:nonzero"/><path class="fil1" style="stroke:#2b2a29;stroke-width:3.5;stroke-miterlimit:22.9256" d="m130.506 145.659 5.565 6.867"/></g><rect class="str1" x="16.94" y="23.615" width="71.183" height="152.117" rx="8.766" ry="11.265" style="fill:#fff"/><g id="_2520778627712"><ellipse cx="52.57" cy="93.405" rx="31.155" ry="30.722" style="fill:#52d6fa"/><path class="fil20" d="M70.745 76.375c1.827 1.377.329 2.883.227 4.382.687 1.073.131 2.082-.19 3.091-2.47 7.861-4.881 15.737-7.548 23.54-1.155 3.365-2.193 3.841-5.298 2.162-2.63-1.441-5.312-2.882-7.599-4.864-.453-.353-.731-1.225-1.169-1.16-.526.094.19.944-.249 1.384a8.45 8.45 0 0 1-3.398 2.492c-2.368 1.081-4.121.649-4.757-2.161-1.505-1.91-1.381-4.18-1.52-6.413-.073-1.247.49-2.616-.591-3.711-3.654-1.117-6.643-3.322-9.368-5.901-.241-1.298.731-1.694 1.637-1.968 12.446-3.626 24.893-7.229 37.339-10.808a3.723 3.723 0 0 1 1.096.001c.176 1.736-1.417 2.082-2.396 2.788a2142.982 2142.982 0 0 1-21.294 14.966c-1.351.951-3.025 1.679-3.091 3.689 0 .649-.248 1.484.556 1.787.804.303 1.461-.367 1.936-1.023 3.091-4.611 8.038-7.292 12.02-10.924 4.377-3.97 8.9-7.796 13.657-11.348v-.001z"/><path d="M40.765 105.241c1.322 2.579 3.076 2.342 5.115.829.942-.721 1.98-1.254 2.974-1.874a1.215 1.215 0 0 1 1.461-.605c2.971 1.816 5.948 3.631 8.929 5.447 1.527.944 2.28 1.023 2.923-1.131 2.784-9.093 5.846-18.108 8.768-27.15 1.754.245 1.286 1.441 1.009 2.449-2.843 10.203-5.744 20.378-8.572 30.581-.65 2.356-1.542 3.113-3.763 1.39-1.885-1.441-4.019-2.623-5.999-3.977-2.324-1.578-4.654-1.838-6.832.101-2.645 2.356-4.114 1.369-5.115-1.506-.453-1.478-1.747-2.796-.899-4.554h.001z" style="fill:#01c4f9;fill-rule:nonzero"/><path d="M41.627 97.992c-.271-2.032 1.147-2.882 2.579-3.877 8.411-5.858 16.77-11.788 25.144-17.689l1.396-.051c-4.896 5.801-11.275 10.002-16.763 15.132-2.732 2.573-6.649 3.999-8.037 7.926-1.688.202-2.857-1.059-4.319-1.441z" style="fill:#d6d4d5;fill-rule:nonzero"/><path class="fil8" d="M29.285 89.216c3.179 1.888 6.679 3.264 9.368 5.901v6.009c-3.222-.648-5.429-2.673-7.892-4.179-.635-.382-1.162-1.347-.438-1.794 3.697-2.284.935-3.25-.811-4.503-.49-.346-.921-.844-.227-1.434z"/><path d="M41.627 97.992c2.192-1.614 2.922.894 4.304 1.441-.972 1.146-2.434 2.09-3.698 1.744-1.264-.346-.467-2.075-.606-3.185z" style="fill:#b9b7ba;fill-rule:nonzero"/><path d="m50.3 103.591-1.461.605c-.482-.634-1.739-.187-1.856-1.261 0-.259.27-.764.482-.8a2.61 2.61 0 0 1 2.835 1.456z" style="fill:#c1ced4;fill-rule:nonzero"/></g><path class="fil1 str3" d="M16.94 32.259h71.182M18.31 162.288h69.812"/><path class="fil1 str0" d="M40.759 168.745h26.2M46.142 28.003h12.416"/><path class="fil58 str5" d="M19.283 32.259h66.535c-.062-4.766-3.724-8.644-8.193-8.644H27.477c-4.469 0-8.131 3.878-8.194 8.644z"/><path class="fil1 str0" d="M44.557 27.937h16.069"/><path class="fil58 str5" d="m85.816 162.288-66.535.026c.068 6.56 3.735 11.897 8.204 11.895l50.148-.019c4.469-.002 8.126-5.341 8.183-11.902z"/><path class="fil1 str5" d="M38.892 168.249h26.024"/></g></svg>