<svg xmlns="http://www.w3.org/2000/svg" id="Слой_1" data-name="Слой 1" viewBox="0 0 350 437"><defs><style>.cls-1{fill:#f3fcfe}.cls-2{fill:#ace5f9}.cls-4{fill:#52d6fa}.cls-5{fill:#0772bc}.cls-6{fill:#00c3f9}.cls-8{fill:#02c4f9}.cls-25{fill:#00c2f8}.cls-30{fill:#c5f1fd}.cls-46{fill:#f2fcfe}.cls-51{fill:#014da4}</style></defs><path d="M.1 218Q.1 111.05 0 4.09C0 .67.67 0 4.09 0Q175 .18 345.91 0c3.42 0 4.09.67 4.09 4.09q-.17 214.41 0 428.82c0 3.42-.67 4.09-4.09 4.09Q175 436.82 4.09 437c-3.42 0-4.1-.67-4.09-4.09Q.2 325.45.1 218Z" class="cls-1"/><path d="M248.24 322.93c3.34-.87 4.75-3.86 6.87-6.12 5.52-5.92 10.37-12.61 17.9-16.32 9-4.41 18.67-1 23.9 7.46 5.48 8.85 7.05 18.37 7 28.44 0 3.15 0 6.31.06 9.47-1.68 1.11-3.52.38-5.29.42-5.67.15-9.12 3.11-10.11 8.8-.86 4.91 1.52 8.8 6.51 10.83 1.63.67 3.64.5 4.88 2.1-4 10.27-8.17 20.4-17.16 27.6a20.78 20.78 0 0 1-8.26 4.36c-10.83 2.56-21.76 1.06-32.66.95-8.61-.85-17.16 1.1-25.76.48-2.27-.16-4.72.37-6.43-1.77 2.54-7.74.12-14.21-5.13-19.94-1.35-1.48-2.82-3.15-4.72-3.56-6.81-1.47-7.7-6.12-7.32-12 .33-5.3 0-10.64.09-16 0-1.93-.34-4.07 1.71-5.4 2.4.78 1.81 2.92 1.91 4.59.19 3.47 0 7 .07 10.46 0 5 .06 5 4.66 3.55 5.15-1.58 9.66-4.39 14.15-7.22 6.75-4.26 13.37-8.69 18.87-14.58 1.32-1.41 2.62-3.12 5-2.83 1 .63.83 2.12 2.21 2.92.67-4 3.51-4.67 6.83-4.5 2.67.14 3 2.17 3.31 4.73a22.66 22.66 0 0 0 .29-5.85c0-2.13.07-4.23-.83-6.31-.74-1.64-3.35-2.31-2.55-4.76ZM96 398.8c-10.75-12.13-19.61-25.36-24.18-41.15-2.9-10.05-4.49-20 .36-30S84.89 312.76 96 312.94c2.7 0 5.78.77 6.87-3 3 5.58 2 11-2.22 15.43s-3.68 9.86-1.94 16c-.09-3.3.16-5.7 3.24-6.53a8.69 8.69 0 0 1 4 .13c2 .62 2.88 2.11 3.57 4.88.22-4 .17-7.12.15-10.25a4.51 4.51 0 0 0-1.62-4c-4-3-3.8-7-2.63-11.25 2.08-2.19 4-.47 5.87.34 10.36 4.52 18.92 11.7 27 19.34 6 5.68 12.08 11.33 17.64 17.48 1 6.09.44 12.21.4 18.31a5.76 5.76 0 0 1-3.61 5.46c-9.63 4.66-13.49 12.45-12.34 22.93a2 2 0 0 1-.34.93c-1.66 2-4 2.25-6.31 2.26h-31.79c-2.33-.02-4.78.09-5.94-2.6Z" class="cls-2"/><path d="M-56.63 133c-2.46 0-2.26 1.74-2.4 3.42-.11 1.23-.18 3-1.83 3-1.36 0-1.76-1.66-1.73-2.67.17-6.13-2.4-13.25 5.54-16.83 1.42-.64 1.07-1.91 1.07-3 0-3.31-.1-6.61-.15-9.91.05-5.82.09-11.64.18-17.46a4.29 4.29 0 0 0-1.6-3.91 4.77 4.77 0 0 1-1.65-6.15 5 5 0 0 1 5.53-3.25 3.5 3.5 0 0 0 2.73-.86c5.94-5.14 11.13-11 16.43-16.72.66-.71.53-2.19.68-3.33 1.37-10.3 8.2-16.67 18.62-17.14 4.15-.19 8.31.06 12.46-.09 1.39-.05 3.49 1.1 3.91-1.64.4-2.57-1-3.38-3.19-4-13.77-4-24.32-12.56-32.51-24.1a54.62 54.62 0 0 1-8.06-17c-.65-2.3-1.58-3.21-4-3.27-5.09-.11-7.9-3.36-8.72-8a54.59 54.59 0 0 1-.22-16.39c.73-5.58 4.63-8.61 10-9.51 1.77-.3 2.93-.57 3.62-2.57C-33-74.16-15.09-88.66 12-91.71a5.24 5.24 0 0 0 1-.3 5.31 5.31 0 0 1 7 .01c9.13 1.63 18.09 3.63 26.25 8.47A63.42 63.42 0 0 1 73.93-50.2c1 2.74 1.84 4.43 5.37 4.38 4.94-.07 8.32 3.73 8.6 9.13a153.31 153.31 0 0 1 0 15.46c-.28 5.78-3.22 8.76-9 9.16-2.33.17-3.38.72-4.13 3.14-6.41 20.85-20.44 34.33-40.84 41.46-.62.22-1.25.45-1.89.63-1.67.47-3.16 1-2.88 3.28.32 2.62 2.28 2 3.79 1.94a104.56 104.56 0 0 1 15.43.06c12 1 16.92 5.77 18.12 17.6.07.67-.22 1.59.13 2 3.47 3.79 7.18 7.36 10.53 11.25s6.68 7.85 12.72 6.5c3 .87 2.71 3.24 2.48 5.56C86 93.76 89.88 107 89.24 119.93c7.1 5 4.45 12.34 4.66 19 0 .9-.62 1.86-1.4 1.74-1.61-.26-2-1.82-1.79-3.09.84-4.39-1.73-3.91-4.72-4-2.12-.06-2 .75-2 2.13-.11 1.7.4 4.34-2.1 4.19-2.32-.13-1.71-2.74-1.89-4.46-.06-.49-.12-1-.17-1.48-2.37-4.43-1.23-8.44 1.88-11.87a10.81 10.81 0 0 0 2.92-8.15 83.12 83.12 0 0 1 0-10.47C86 88.12 79.75 76.3 68 66.82c-1.29 1.21-.61 2.77-.62 4.12-.08 9.48 0 19-.07 28.44-.1 9.12-4.55 15.59-12.93 18.86a11.36 11.36 0 0 0-7.17 7.51c-2.12 6-6.24 10.48-11.38 14.08-1.39 9.38-.46 18.79-.54 28.19 0 2.2 1.87 2.23 3.09 2.59 9.06 2.71 12.94 9.65 15.09 18.08.78 3.09 0 5.55-2.83 7.21-1.84 1.9-4.25 1.64-6.53 1.64q-27.79.09-55.58 0c-2.56 0-5.41.45-7.19-2.25a5 5 0 0 1-2.14-5.22c1.63-8.29 4.92-15.61 13.47-18.8 2.72-1 3.6-2.22 3.5-4.95-.23-6.13-.21-12.26-.29-18.39-.41-9.82-9.07-15.94-11.21-25-.5-2.14-2.42-2.45-4.19-3-10.24-3.11-15.65-10.13-15.86-20.86-.18-9.13 0-18.27-.06-27.4a19.9 19.9 0 0 0-.23-5c-13 9.86-19 22.42-16.52 38.54.29 2 .75 4-.7 5.71-.19 4.1-1.64 8.35 3.46 11.13 2.44 1.33 2.53 14.43.72 16.65-1.3 1.59-1.93.57-2.37-.64-.65-1.75.35-4.13-2-5.23-.5-1.64.93-2.78 1.08-4.22.33-3-.3-5.4-4.18-4.87a5.29 5.29 0 0 0-2 1.5c-1.63 3.02 1.8 5.01 1.55 7.76Z" style="fill:#004ca3" transform="translate(159 203)"/><path d="M253.1 139.9c1-1.71-.41-2.75-1.13-4-15.84-27.53.28-61.64 35.86-62.65 15-.42 30.42 10.64 35.56 26 5.51 16.52 3.1 31.97-9.39 44.75-14 14.36-35.89 16.23-50.37 4.91a34.84 34.84 0 0 0-3.84-2.26c-3.37-1.11-4.7-4.25-6.69-6.75Z" class="cls-4"/><path d="M89.85 146.36c-8 5.66-16.72 9.4-26.81 8.81-17.42-1-29.32-10.15-35.7-25.91-5.77-14.23-3.87-28.17 5.69-40.33a39.23 39.23 0 0 1 54.28-7.51c17.43 12.63 22 37.11 10.4 55-.72 1.11-1.25 2.33-1.87 3.5a10.3 10.3 0 0 1-5.99 6.44ZM262.24 266.18c-15-17.46-13-42 5-55.3 11.57-8.56 24.61-10 37.67-3.89 12.79 6 19.81 16.66 21.21 30.82a36.58 36.58 0 0 1-48.22 38.65 41.88 41.88 0 0 1-12.12-6.67 4.72 4.72 0 0 1-3.54-3.61ZM172 86.11c-11.73-2.92-19.9-9.42-22-22-2-11.03 4.88-23.01 15.43-27.11 10.9-4.26 23.6-.44 30 9 10.44 15.42 3.32 34.42-14.67 39.22a16 16 0 0 0-1.83.75c-2.27 1.9-4.59 1.86-6.93.14Z" class="cls-5"/><path d="M40.18 236.33c9 1.49 11.24-2.72 12.51-9.49.79-4.27 4.41-8 6.76-12 1.35-2.28 2.59-1.6 3.53.27 3 6 7.84 11.17 8.17 18.44.17 3.69 3.57 1.86 5.49 2.57 1.31.49 3.38-.52 3.9 1.24.36 1.23-1.17 2.23-2 3.25-4.82 5.71-9.7 11.37-14.38 17.2-2 2.45-3.25 3.2-5.61.27-5.61-6.97-11.55-13.67-18.37-21.75Z" class="cls-6"/><path d="M44 359.93A15 15 0 0 1 29.1 345c-.23-8.18 6.67-15.05 15.2-15.13a14.8 14.8 0 0 1 14.85 14.86A15.08 15.08 0 0 1 44 359.93Z" class="cls-4"/><path d="M-18.62 195.28a49.6 49.6 0 0 0 5.4.62h63.9c7.08 1.86 14.25.85 21.39.56 3.7-.15 7.54-1.36 10.84 1.46-1 1.73-2.62 1.65-4.31 1.65q-72 .09-144 .22a10.14 10.14 0 0 1-2-.08c-1.56-.3-4-.16-3.73-2.33.27-2.44 2.74-1.37 4.11-1.17s2.79 1 4-.41c1.62 1.15 3.48.92 5.29.92h32.43c2.35.01 4.68.06 6.68-1.44Z" style="fill:#09c5f9" transform="translate(159 203)"/><path d="M300 368c-5.16.07-9.55-1.58-11.9-6.41s-1.09-9.47 2.24-13.37c3.78-4.44 8.7-3.95 13.67-2.37 5 3.16 7 7.57 5.83 13.38-1.1 5.25-4.54 8.13-9.84 8.77Z" class="cls-4"/><path d="M247.11 60.61a8.92 8.92 0 0 1-8.88 9.27 9.62 9.62 0 0 1-9.74-9.17 9.23 9.23 0 0 1 9.25-9.57 9.22 9.22 0 0 1 9.37 9.47Z" class="cls-8"/><path d="m13-116.89 7-.15V-92h-7Z" style="fill:#aee6f9" transform="translate(159 203)"/><path d="m103.24 63.18 3.54 3.61c-4.1 3.59-8.17 7.23-12.33 10.75a7.82 7.82 0 0 0-2.09 3.78 9.3 9.3 0 0 0-2.48-5.57Z" style="fill:#0ac4f8" transform="translate(159 203)"/><path d="M94.1-63.1c3.69.81 4.41 4.56 6.69 6.77-4.19 2.08-8 5-13.64 6.23Z" style="fill:#0f76be" transform="translate(159 203)"/><path d="m-69.15-56.64 6-6.4 7.62 13.13a69.88 69.88 0 0 1-13.62-6.73Z" style="fill:#0bc4f8" transform="translate(159 203)"/><path d="M-83.12-21.35a3.72 3.72 0 0 1-3.55-4c0-2.06 1.21-4.07 3.56-4s4.17 1.23 4.16 4-1.81 3.59-4.17 4Z" style="fill:#0dc6f9" transform="translate(159 203)"/><path d="M159.79-25.78c-.17 2.13-1 3.85-3.48 3.86S152-22.8 152-25.55c0-2.24 1.31-4 3.45-4.14s4.03 1.24 4.34 3.91Z" style="fill:#5cd9fa" transform="translate(159 203)"/><path d="M-61 78c-4.41-4.26-7.18-8.5-11.19-11.46a1.26 1.26 0 0 1-.23-2.09 1.76 1.76 0 0 1 1.17-.6c2.74.25 9.95 9.5 10.25 14.15Z" style="fill:#12c7f9" transform="translate(159 203)"/><path d="M163.48 91.33c-2.85-.29-4.48-1.49-4.28-3.8a3.69 3.69 0 0 1 4.36-3.65c2.28.24 3.66 1.63 3.38 4a3.65 3.65 0 0 1-3.46 3.45Z" style="fill:#0bc6f9" transform="translate(159 203)"/><path d="M113-31.64c0 2.36-1.32 3.89-3.53 4.1-2.47.24-3.54-1.5-3.6-3.76 0-2.06.88-3.61 3.13-3.72s3.87.84 4 3.38Z" style="fill:#57d7fa" transform="translate(159 203)"/><path d="M-120.8 94.49c-.2 1.87-1.07 3.4-3.24 3.42a3.15 3.15 0 0 1-3.33-3.44 3.11 3.11 0 0 1 3.48-3.21c1.89.02 2.89 1.21 3.09 3.23Z" style="fill:#11c7f9" transform="translate(159 203)"/><path d="M-42.62-136.47c1.73.48 3.43 1 3.08 3.2-.29 1.76-1.3 3.21-3.2 3.19s-2.92-1.62-3-3.37c-.04-1.95 1.32-2.86 3.12-3.02Z" style="fill:#0cc6f9" transform="translate(159 203)"/><path d="M-121.08-22c1.91.23 3.11 1.28 3 3.22s-1.33 2.93-3.29 2.9-3.17-1.2-3.06-3.09 1.43-2.87 3.35-3.03Z" style="fill:#5bd8fa" transform="translate(159 203)"/><path d="M194.87 342.83c5-5.94 10.45-11.56 11.91-19.62.33-1.87 1.82-1.52 3-1.82 9-2.24 14.82-8.43 15.23-17.8.52-12.1.12-24.23.12-37.35 6.24 4.62 12.42 9.42 14.47 15.2 2.12 6 7.37 11.27 5.62 19.11-1.49 6.65-.3 13.89-.34 20.87 0 .63-.12 1.67-.49 1.83-6.26 2.8-5.35 8.5-5.66 13.71a125.83 125.83 0 0 1-27.31 21 64.25 64.25 0 0 1-16.6 6.55ZM106.15 313.94c-.87-6.27-.61-12.58-.65-18.88 0-2.71.15-5.33 2.57-7.17.38-.29.85-.77.87-1.17.46-10.41 10.78-13.24 15.92-20.33 0 11.2.08 22.41 0 33.61-.09 11.61 4.4 19.2 14 21.13 4.52.91 6.31 2.69 7 6.92a15.79 15.79 0 0 0 5.09 9.48c4.55 3.82 4.8 8.3 4 13.39-5.64-3.4-9.68-8.56-14.36-13-9.27-8.84-18.82-17.3-30.72-22.55-1.23-.55-2.49-.96-3.72-1.43Z" class="cls-1"/><path d="M-56.63 133c-2.24-2.62-5.6-5-2-8.91 1.55.92 1.75.06 1.61-1.24 2.31-1.7 4.16-.5 5.59 1.21a4.66 4.66 0 0 1 .33 6l-1.9 2.79Z" style="fill:#01c0f6" transform="translate(159 203)"/><path d="M212 202q-43 0-85.84.15a4.6 4.6 0 0 1-4.86-3.31c-9.82-24.79-3.34-56 20-73.19 19.31-14.24 46.67-14.78 67.46-.12A8.6 8.6 0 0 1 210 127c6.79 9.47 9.41 20.41 11.13 31.66a6.08 6.08 0 0 1-.56 3.88c-3.34 1.6-3.32-1.73-4.29-3.16-2-3.06-3.91-6.17-7.68-7.44-5.6-1.85-9.84-.26-13.72 5.06a29.5 29.5 0 0 0-3.88 8.6 27.59 27.59 0 0 0 1 15.48c.71 2.91 2.87 5 4.12 7.66 4.86 7 10.55 7.78 17.19 2.32 1.09-.89 2-2.82 3.62-1.77s1.13 3.05.42 4.56c-1.35 2.96-2.18 6.37-5.35 8.15ZM219.94 251.14c2.85 3.5 2.84 7.86 2.82 11.86-.06 13.61.82 27.24-.63 40.84-.92 8.54-6.86 14.92-15.63 15-21.44.24-42.89.19-64.33 0-7.6-.06-12.64-5.52-13.94-14.17 5.45-.41 10.79 1.42 16.25.79 16.13-.28 32.26-.05 48.39-.13 2.16 0 4.32.06 6.48-.06 8.54-.46 12.82-4.59 13-13.23.23-13.29.23-26.6-.1-39.9a3.13 3.13 0 0 1 .86-1.61c2.37-1.19 4.69-1.35 6.83.61ZM134 217c-3.78-3-6.32-7-9.1-11.9h12c3.43.91 6.93.38 10.39.39 18.94.06 37.88 0 56.82.08 1.66 0 4-1.1 4.88 1.09.71 1.82-.87 3.39-2 4.83-18.86 23.71-54.39 22.78-71.74 6.37A7.37 7.37 0 0 0 134 217Z" class="cls-6"/><path d="M143.91 306.83c-5.35.19-10.7.41-15.68-2.11-.15-14.46-.58-28.93-.37-43.38.14-11.67 6.49-17.34 18.31-17.28q29.45 0 58.88.13c4 .69 7.48 2 8 6.8-1.19 2.09-3.14 2.1-5.22 2-19.63-.92-39.26-.22-58.9-.4a33.7 33.7 0 0 0-6.41.84c-3.77-.86-5.37.54-5.13 4.51.19 3.09.12 6.18.87 9.22a21 21 0 0 1 .11 4.69c-1.16 5.09-.88 10.25-.88 15.41 0 2.66.76 4.91 3.08 6.44 2.68 3.98 6.28 7.71 3.34 13.13Z" class="cls-2"/><path d="M17.4 119c7.82 0 15.65.23 23.45-.09 3.82-.16 3.86 1.71 2.9 4.11-2.91 7.29-7.31 13.52-14.72 16.74-13.8 6-25.85 2.87-35.19-7.5a9.49 9.49 0 0 1-1.57-1.93c-1.63-3.23-4.43-6.78-2.67-10.15 1.46-2.79 5.49-1 8.34-1.11 6.48-.22 12.98-.07 19.46-.07Z" style="fill:#0582c9" transform="translate(159 203)"/><path d="M219.78 163c.27-11.2-3.78-21.31-7.93-31.4-.63-1.52-1.23-3-1.84-4.57 22.31 17.4 28.84 46.8 18.38 72.32-.84 2.07-1.91 2.76-4 2.69-4.15-.12-8.3-.04-12.39-.04 1.64-4 4.62-7.51 5.11-12.59-10 9-18.71 8.44-22.12-.91 2.18-.14 3.57 1.52 5.31 2.36 4.38 2.11 9 1.66 12.26-1.89 3.82-4.16 6.71-8.95 7-14.85.61-3.71-1.83-7.47.22-11.12Z" class="cls-5"/><path d="M-25 14c7.49 4.53 15 9.19 23.87 10.38 21.49 2.9 35.68-2.17 49.59-18.53a9.24 9.24 0 0 0 1-2.22c-1.65-1.29-3.35-.7-4.9-.7-20.47 0-40.93 0-61.39-.06-1.77 0-3.69.54-5.28-.8Q20 2.05 62.16 2c1.09 0 2.53-.53 3.17.73s-.81 2-1.41 2.88C51.71 24 34.33 32.46 12.52 31.93a48.21 48.21 0 0 1-22.21-6.48C-15.23 22.37-21.48 19.94-25 14Z" style="fill:#0771bc" transform="translate(159 203)"/><path d="M32 142.12c1.68 8.66.37 17.39.58 26.09a2.1 2.1 0 0 1-1.66 2.2c-7 1.74-11 6.85-14.34 13.36a83.67 83.67 0 0 0-4.75-7.15c-1.43-1.77-3.05-3.81-5.34-4.26-7.36-1.46-7.8-6.5-7.39-12.57.36-5.45 0-10.94 0-16.41 0-1.14-.44-3.31 2-1.48.1.66.16-.16.09.49C0 153 7.31 156.31 15.35 159a64.62 64.62 0 0 0 10.23 2.07c3.46.56 5-1 5-4.37v-8.95c.07-1.97-.17-4.03 1.42-5.63Z" style="fill:#ace4f9" transform="translate(159 203)"/><path d="M191 345.12c0 5.45-.19 10.91-.05 16.36.09 3.72-2.06 4.83-5 4.35-7.78-1.26-15.55-2.57-22.2-7.46-5.1-3.76-6.14-6.84-3.71-13.47 10.26 5.03 20.59 3.96 30.96.22Z" class="cls-1"/><path d="M148.18 380.13c1.13-2.5 3.5-2.85 5.79-3.32 2.12-.89 4-.11 5.44 1.27 4.07 3.82 5.65 8.76 5.76 14.22a3.13 3.13 0 0 1-2.26 3.42c-6.09 0-12.18 0-18.27.15-3.37.1-4.13-1.52-3.22-4.27 1.44-4.31 2.37-9 6.81-11.51 1 1-.05 3.15 1.93 3.62a.63.63 0 0 0 .75-.53c.26-2.04-1.91-1.97-2.73-3.05ZM197.91 395.76c-5.78 0-11.56.11-17.34.07-1.33 0-3 .55-3.49-1.7-1.39-6.37 7.08-16.83 13.91-17.06 6.95 1.93 11.43 14.03 6.92 18.69Z" class="cls-6"/><path d="M114.85 163.2a67.89 67.89 0 0 0-.06 22.71c.42 2.35-.51 2.91-2.76 2.29-2.78-.76-5.2-2.12-5.52-5-.65-5.92-1.18-11.9.52-17.77a6.69 6.69 0 0 1 4.52-4.89c2.52-.85 3.95-.38 3.3 2.66ZM243.94 174v7.44c-.06 2.68-1.19 5-3.61 6.06s-4.85 1.16-4.33-2.7c.9-7.23 1.32-14.42-.56-21.6-.62-2.39 1-3.37 3.23-3a5.93 5.93 0 0 1 5.18 5.81c.19 2.63 0 5.28 0 7.93Z" class="cls-25"/><path d="M38.91 192.76c2.18-5.62-1-14.19-6.92-18.69 5.87-2.36 12.59 1.15 16.21 8.45 4 8 2.51 10.49-6.31 10.4-.99-.01-1.99-.1-2.98-.16Z" style="fill:#017ddc" transform="translate(159 203)"/><path d="M3.91 192.72c2.89-7.31-1.72-17.06-8.91-18.91 9-2.7 20.74 7.76 19.05 16.84-.31 1.69-1.1 2.28-2.64 2.25Z" style="fill:#017ddb" transform="translate(159 203)"/><path d="M16 38.88c-2.83 0-5.66.07-8.48 0a2.13 2.13 0 0 1-2.24-2.2C5.28 35 6.64 35 7.79 35h15.46c1.51 0 3.32 0 3.24 2.11-.07 1.7-1.69 1.81-3 1.83h-7.48Z" style="fill:#066cb8" transform="translate(159 203)"/><path d="M87.13 131.05c-2.76-.13-4.23-1.19-4.13-3.68s1.49-4.24 3.91-4.3 4 1.47 4 4.09c.09 2.9-2.01 3.43-3.78 3.89Z" style="fill:#00bff6" transform="translate(159 203)"/><path d="M213 251a18.06 18.06 0 0 0-8-6.8c6 .1 12 .29 14.89 7Z" class="cls-4"/><path d="M102 325.81c1.34.74 3.05 1.74 1.13 3.16-1.45 1.08-2.78.12-2.75-1.92Z" class="cls-30"/><path d="M310.85 92.07c2.5 1.91.45 4 .31 6.08.94 1.49.18 2.89-.26 4.29-3.38 10.91-6.68 21.84-10.33 32.67-1.58 4.67-3 5.33-7.25 3-3.6-2-7.27-4-10.4-6.75-.62-.49-1-1.7-1.6-1.61-.72.13.26 1.31-.34 1.92a11.56 11.56 0 0 1-4.65 3.46c-3.24 1.5-5.64.9-6.51-3-2.06-2.65-1.89-5.8-2.08-8.9-.1-1.73.67-3.63-.81-5.15-5-1.55-9.09-4.61-12.82-8.19-.33-1.8 1-2.35 2.24-2.73q25.55-7.55 51.1-15a5 5 0 0 1 1.5 0c.24 2.41-1.94 2.89-3.28 3.87q-14.5 10.47-29.14 20.77c-1.85 1.32-4.14 2.33-4.23 5.12 0 .9-.34 2.06.76 2.48s2-.51 2.65-1.42c4.23-6.4 11-10.12 16.45-15.16 5.99-5.51 12.18-10.82 18.69-15.75Z" class="cls-1"/><path d="M110.82-70.87c1.81 3.58 4.21 3.25 7 1.15 1.29-1 2.71-1.74 4.07-2.6a1.66 1.66 0 0 1 2-.84q6.1 3.78 12.22 7.56c2.09 1.31 3.12 1.42 4-1.57 3.81-12.62 8-25.13 12-37.68 2.4.34 1.76 2 1.38 3.4-3.89 14.16-7.86 28.28-11.73 42.44-.89 3.27-2.11 4.32-5.15 1.93-2.58-2-5.5-3.64-8.21-5.52-3.18-2.19-6.37-2.55-9.35.14-3.62 3.27-5.63 1.9-7-2.09-.62-2.05-2.39-3.88-1.23-6.32Z" style="fill:#01c4f9" transform="translate(159 203)"/><path d="M112-80.93c-.37-2.82 1.57-4 3.53-5.38 11.51-8.13 22.95-16.36 34.41-24.55l1.91-.07c-6.7 8.05-15.43 13.88-22.94 21-3.74 3.57-9.1 5.55-11 11-2.31.28-3.91-1.47-5.91-2Z" style="fill:#d6d4d5" transform="translate(159 203)"/><path d="M254.11 109.89c4.35 2.62 9.14 4.53 12.82 8.19v8.34c-4.41-.9-7.43-3.71-10.8-5.8-.87-.53-1.59-1.87-.6-2.49 5.06-3.17 1.28-4.51-1.11-6.25-.67-.48-1.26-1.17-.31-1.99Z" class="cls-8"/><path d="M-68.09-98.52v26.46c0 4.42-2.56 6.85-6.87 6.89-13.31.13-26.64.22-39.95 0-5.84-.09-7.62-2.07-7.79-8-.22-7.65 0-15.31-.07-23 0-3 1.14-3.12 3.16-1.64 5.6 4.13 11.29 8.16 16.69 12.54 6.69 5.42 9.71 5.34 16.52-.08 5.6-4.49 11.66-8.43 18.31-13.17Z" style="fill:#f6c575" transform="translate(159 203)"/><path d="M63.43 93.26c6.48 0 13-.1 19.45 0 2.94.07 6.15 0 7.49 3.6s-1.64 5.16-3.71 6.79c-5.34 4.2-10.84 8.22-16.41 12.12-4.11 2.88-8 3.75-12.5-.19-5.2-4.58-11.22-8.21-16.69-12.5-2.08-1.63-5.1-3.28-3.78-6.82 1.25-3.39 4.41-3 7.2-3.07 6.32-.06 12.63 0 19 0Z" class="cls-4"/><path d="M131 57.81c-4.66 0-9.33.19-14-.05-5.21-.27-7.84-3-8-8.24-.19-5-.09-10 0-15 .05-3.48.79-6.72 4.4-8.26 1.88-.81 1.5-2.32 1.59-3.76.43-7.34 1.72-8.54 9.1-8.54h14c5.7 0 7.73 2 7.83 7.78 0 2.35.21 4.1 2.85 4.93 3.44 1.07 4.15 4.13 4.23 7.19.13 5.32.19 10.66-.08 16-.25 5-2.87 7.58-7.91 7.88-4.69.26-9.36.08-14.01.07Z" style="fill:#f1fbfe" transform="translate(159 203)"/><path d="M27.58-145.51c.1 4.21-8.11 13.77-12 13.89a2.73 2.73 0 0 1-1.8-.65c-3.11-2.95-6.63-5.5-8.84-9.3a7.26 7.26 0 0 1 .83-8.77c2-2.25 5-3.38 8-1.29 1.7 1.19 2.95.43 4.55-.18 4.86-1.85 9.14 1.16 9.26 6.3Z" style="fill:#f2fbfe" transform="translate(159 203)"/><path d="M60.78-40c.51 4 2 7.89 1.06 12-3.45 4.54-5.1 5.16-8.42 3.13-.16-3 .46-5.9.19-8.87-.41-4.68-3.06-8.81-6.6-9.49-4.13-.8-6.87 1.44-8.95 4.76a5 5 0 0 1-2.12 2A4.74 4.74 0 0 1 31-38a17.94 17.94 0 0 1 3.27-8.2c6.7-9.55 17.21-9.33 23.38.59 1.09 1.84 2.08 3.75 3.13 5.61Z" style="fill:#cce4f1" transform="translate(159 203)"/><path d="M-29-35c.28-8.15 6-16.47 12.4-17.91C-8-54.91-.53-48.64 1.15-38-.18-36.5-2-36.35-3.8-36.33c-1.68-.3-2.19-1.78-3-3-4.14-5.86-10.63-5.16-13.85 1.44-.92 1.89-.81 4.26-2.7 5.7-5.29 1.75-5.82 1.48-5.65-2.81Z" style="fill:#cfe8f6" transform="translate(159 203)"/><path d="M54-25c3.7 1.83 5-2.76 7.89-3-.36 5.14-2.73 9.46-5.87 13.29-5.69 7-11.85 6.9-20 .19-1.5-2-3.47-3.76-3.81-6.46 2.7-1.94 5.56 0 8.32-.36C45.91-19 49.76-22.65 54-25Z" style="fill:#8cb4d1" transform="translate(159 203)"/><path d="M-29-35c.27 5.57 3.94 1.29 5.87 2 1.61 1.07 1.36 2.91 1.81 4.45 1.44 5 4.78 8.19 8.31 7.92 3.87-.3 7.31-4.67 7.69-9.64.17-2.25-.54-4.68 1.23-6.64A8.92 8.92 0 0 1 1.15-38c2.05 5.83.57 11.38-1.35 16.88C-8-15.5-19.2-15-26.8-20c-2.34-4.8-3.42-9.75-2.2-15Z" style="fill:#add0e9" transform="translate(159 203)"/><path d="M-26.8-20c9 3.08 17.84 1.92 26.6-1.08a8 8 0 0 1-2 4.85C-8-7-15.62-5.85-23.09-13.08Z" style="fill:#8bb5d2" transform="translate(159 203)"/><path d="M41.24-20c-3.13.56-6.07-.65-9.11-.94A21.71 21.71 0 0 1 31-38l5 1c.26.21.63.43.65.71A48.12 48.12 0 0 0 41.24-20Z" style="fill:#afd5ed" transform="translate(159 203)"/><path d="M-8.77-72.75A13.51 13.51 0 0 1-10-70.89c-3.26 3.26-6.51 6.52-9.84 9.7-.84.8-1.89 1.32-3.12.39a2.26 2.26 0 0 1-.68-3.09c2.48-4.67 6.44-7.92 10.85-10.63 1.98-1.22 2.79.59 4.02 1.77Z" style="fill:#eafafe" transform="translate(159 203)"/><path d="M3-77.76c-1.2 2.9-4.18 3.62-7 4.23-1.47.31-3.28-.65-2.92-2.51.7-3.62 4.05-4 6.89-4.63C1.58-81 2.86-80 3-77.76Z" style="fill:#e9fafe" transform="translate(159 203)"/><path d="M-23.09-13.08c3.17 1.07 5.7 3.51 9.45 3.47 5.27-.05 8.18-3.54 11.48-6.65-1 5.83-5.37 8.42-10.47 9-4.37.52-8.45-1.23-10.46-5.82Z" style="fill:#0b7cc3" transform="translate(159 203)"/><path d="M12.13-80.49C12-79 11.31-78 9.72-78S7.4-79 7.4-80.52a2.14 2.14 0 0 1 2.13-2.24 2.22 2.22 0 0 1 2.6 2.27Z" style="fill:#d9f6fe" transform="translate(159 203)"/><path d="M141.08 253a8.94 8.94 0 0 1 6.42-2c18.59.08 37.18.13 55.77 0 3.24 0 6.48 2 9.72.06a27.09 27.09 0 0 1 1 8.83c0 11.13.1 22.26 0 33.38-.11 8.47-5.31 13.68-13.77 13.71-18.76.06-37.53-.05-56.29-.1 1-4.94-2.35-8.61-3.83-12.82-.81-3.75-.16-7.49 0-11.24s.83-8-3-10.77v-5.13a10.4 10.4 0 0 0 2.62-7.8c-.13-2.12-.5-4.39 1.36-6.12Z" class="cls-4"/><path d="M137 272c1.77-.52 3.47-.52 3.78 1.74.94 6.78 1.19 13.57-.72 20.27-3.44 1.31-3.84-1.77-3.87-3.43-.08-6.19-1.04-12.46.81-18.58ZM141.08 253v10.27c0 2.64-1.38 3.87-4 3.62-1.94-4.26-1.2-8.79-.77-13.1.29-3.6 2.6-3.73 4.77-.79Z" class="cls-46"/><path d="M-10.82 177.13c2.11-.58 4-.59 4.65 2.05a2.49 2.49 0 0 1-2.14 3.31c-5 .27-2.75-3.07-2.46-5.4Z" style="fill:#dcf7fe" transform="translate(159 203)"/><path d="M30.35 180.44c-.19 1.66-1.82 2.15-3.17 2.07s-2-1.54-1.84-3 .92-2.57 2.5-2.47c1.82.13 2.36 1.54 2.51 3.4Z" style="fill:#e1f8fe" transform="translate(159 203)"/><path d="M112-80.93c3-2.24 4 1.24 5.89 2-1.33 1.59-3.33 2.9-5.06 2.42s-.64-2.88-.83-4.42Z" style="fill:#b9b7ba" transform="translate(159 203)"/><path d="m123.87-73.16-2 .84c-.66-.88-2.38-.26-2.54-1.75 0-.36.37-1.06.66-1.11a3.57 3.57 0 0 1 3.88 2.02Z" style="fill:#c1ced4" transform="translate(159 203)"/><path d="M44.09 98.16h28.72c-3.68 2.62-25.19 2.65-28.72 0Z" class="cls-30"/><path d="M290 257c-4.16 0-8.31.05-12.47 0-3.73-.05-5.94-1.64-5.8-5.75a99.56 99.56 0 0 0 0-11.46c-.42-5.26 2.33-7.45 7-7.46 8.45 0 16.91.3 25.36.62 2.5.09 3.92 1.73 3.93 4.28v15c0 3.26-1.68 4.86-5 4.84-4.35-.07-8.67-.07-13.02-.07Z" class="cls-4"/><path d="M289 228.44h-7c-2.1 0-4.41.53-4.27-3 .11-2.89.53-4.77 4.1-4.63 5.12.19 10.26.05 15.39 0 3.12-.05 3.72 1.59 3.8 4.4.08 3.3-1.75 3.36-4.09 3.3-2.65-.12-5.31-.07-7.93-.07Z" class="cls-5"/><path d="M200.24 183c-5.25-4.57-6-10.53-5.3-17 5.5-9.24 12.78-10.43 17.29-2.82a15.05 15.05 0 0 1 1.83 9.51A46.5 46.5 0 0 1 213 178c-4.3 6-5.83 6.55-12.76 5ZM154.89 166.08c.13 3.46.8 7-.46 10.35-1.54 4-4 7.42-8.85 7.54-4.13.11-8.59-4.61-9.39-9.53-.19-1.44-.19-2.97-.34-4.44a13.08 13.08 0 0 1 2.53-7.35c5.53-6.99 11.51-5.74 16.51 3.43Z" class="cls-51"/><path d="M175.2 298.06a15.22 15.22 0 0 1-15.2-14.68c-.13-8.49 6.82-16.08 14.94-16.29 7.79-.19 15 6.81 15.14 14.73.17 8.59-6.73 16.12-14.88 16.24ZM289.8 243h-9.43c-1 0-2.1-.08-2.27-1.36s.88-1.67 1.9-1.67q9.93 0 19.85.08c1 0 2.12.2 2.06 1.54s-1.19 1.41-2.19 1.41h-9.92Z" class="cls-1"/><path d="M127.4 47.93a8.41 8.41 0 0 1-1.39 0c-2.35-.49-6.5 1.38-6.55-2.07 0-2.92 4-1.38 6.3-1.8a3 3 0 0 1 1 0c2.63.35 7.27-1 7.25 2-.01 3.8-4.65.84-6.61 1.87Z" style="fill:#dff7fe" transform="translate(159 203)"/><path d="M51.87-37.25c-.36 2.94-1.6 5.24-4.58 5.12-2.79-.1-4.51-2.13-4.42-5a4.56 4.56 0 0 1 4.85-4.66c2.75-.05 3.82 2.18 4.15 4.54Z" style="fill:#e9f5fa" transform="translate(159 203)"/><path d="M-8.16-37.41c-.5 3-1.84 5.24-5.1 4.93s-4-3-3.86-5.81c.16-2.67 2-4.47 4.43-4.37 2.94.12 4.63 2.18 4.53 5.25Z" style="fill:#e8f4fa" transform="translate(159 203)"/><path d="M11 87.09c-1.65-2.33.2-3.71.57-5.34.54-2.34 2.28-4.49 1-7.14-.37-.8-.88-2 .49-2.47 1.1-.37 1.91.48 2.43 1.31a34.43 34.43 0 0 1 2.06 4c1.27 2.82 2.59 5.44 6.48 4.71 1-.19 2.27.11 2.17 1.37-.08 1.08-1.3 1.35-2.35 1.38-1.82 0-3.81.55-5.42 0-3.13-1.17-5.52-.53-7.43 2.18Z" style="fill:#59d8fa" transform="translate(159 203)"/></svg>