<?xml version="1.0" encoding="UTF-8"?>
<!DOCTYPE svg PUBLIC "-//W3C//DTD SVG 1.1//EN" "http://www.w3.org/Graphics/SVG/1.1/DTD/svg11.dtd">
<!-- Creator: CorelDRAW -->
<svg xmlns="http://www.w3.org/2000/svg" xml:space="preserve" width="70px" height="70px" version="1.1" style="shape-rendering:geometricPrecision; text-rendering:geometricPrecision; image-rendering:optimizeQuality; fill-rule:evenodd; clip-rule:evenodd"
viewBox="0 0 70 70"
 xmlns:xlink="http://www.w3.org/1999/xlink"
 xmlns:xodm="http://www.corel.com/coreldraw/odm/2003">
 <defs>
  <style type="text/css">
   <![CDATA[
    .str0 {stroke:#0D61A9;stroke-miterlimit:22.9256}
    .fil1 {fill:none}
    .fil2 {fill:#008DD2}
    .fil3 {fill:#0D61A9}
    .fil4 {fill:#B6DCFE}
    .fil0 {fill:#DFF0FE}
    .fil5 {fill:#E8D47B}
   ]]>
  </style>
 </defs>
 <g id="Слой_x0020_1">
  <metadata id="CorelCorpID_0Corel-Layer"/>
  <path class="fil0 str0" d="M4.08 15.24c-0.01,-0.65 -0.34,-2.93 0.39,-3.16 0.37,-0.12 2.81,-0.01 3.4,0 2.34,0.01 4.68,0 7.03,-0.01 15.57,0 31.16,0.07 46.74,0.01 0.4,-0.01 2.35,-0.14 2.52,0.13 0.17,0.25 0.07,3.49 0.07,4.14 0.01,13.5 -0.02,27 0.02,40.5 0,0.23 -0.01,0.36 -0.07,0.58 -1.22,0.16 -3.09,0.05 -4.37,0.04 -0.3,-0.01 -0.6,-0.01 -0.9,-0.01 -17.96,-0.01 -35.94,-0.12 -53.89,0.03 -0.17,0 -0.73,-0.01 -0.85,-0.15 -0.27,-0.31 -0.1,-4.03 -0.09,-4.68 0.03,-12.47 0.15,-24.95 0,-37.42z"/>
  <path class="fil1 str0" d="M4.07 34.77c0.31,0.38 2.93,3.73 2.99,3.73 0.7,0.05 1.65,0.02 2.36,0.03 14.71,0.06 29.43,-0.01 44.14,-0.03 1.56,0 3.11,0 4.66,0 0.21,0 1.45,0.02 1.55,-0.02 0.14,-0.05 4,-3.32 4.46,-3.71"/>
  <ellipse class="fil2 str0" cx="34.36" cy="32.54" rx="2.68" ry="2.23"/>
  <path class="fil1 str0" d="M22.59 12.07c1,-1.43 1.99,-2.86 2.97,-4.3 0.75,-1.11 1.1,-0.96 2.36,-0.94 3.48,0.03 6.99,0.01 10.47,0 1,0 1.99,0 2.98,-0.01 1.24,0 1.23,0.27 1.96,1.24 1,1.35 2.01,2.68 3.02,4.01"/>
  <path class="fil3 str0" d="M21.76 11.89c-0.23,-0.05 -0.23,-0.03 -0.24,-0.27 -0.02,-0.33 0.05,-0.34 0.35,-0.39 0.27,-0.03 2.35,-0.08 2.5,0.01 0.19,0.12 0.06,0.46 -0.14,0.57 -0.4,0.2 -1.98,0.15 -2.47,0.08z"/>
  <path class="fil3 str0" d="M44.54 12.01c-0.23,-0.05 -0.23,-0.03 -0.24,-0.27 -0.02,-0.33 0.05,-0.34 0.35,-0.39 0.27,-0.03 2.35,-0.08 2.49,0.01 0.2,0.12 0.07,0.47 -0.13,0.57 -0.4,0.2 -1.98,0.16 -2.47,0.08z"/>
  <ellipse class="fil4 str0" cx="57.55" cy="50.91" rx="11.04" ry="10.75"/>
  <polygon class="fil5 str0" points="48.48,57.56 51.11,60.02 43.02,68.83 40.28,68.83 39.56,68.22 39.56,65.65 "/>
 </g>
</svg>
