<svg xmlns="http://www.w3.org/2000/svg" id="Слой_1" data-name="Слой 1" viewBox="0 0 350 437"><defs><style>.cls-1{fill:#f3fcfe}.cls-2{fill:#00c3f9}.cls-3{fill:#01c3f9}.cls-4{fill:#5fcbf7}.cls-9{fill:#011a60}.cls-10{fill:#09c5f9}.cls-11{fill:#f09e7a}.cls-17{fill:#04a8b2}.cls-20{fill:#f9ca4e}.cls-30{fill:#03c4f9}.cls-31{fill:#0cc6f9}.cls-34{fill:#05a7b2}.cls-37{fill:#07c5f9}.cls-38{fill:#0fc7f9}.cls-39{fill:#05a8b2}.cls-42{fill:#03759a}.cls-48{fill:#0dc6f9}.cls-60{fill:#016893}.cls-61{fill:#093e78}.cls-67{fill:#03799c}.cls-72{fill:#e1f8fe}.cls-80{fill:#b2edfd}.cls-84{fill:#0a6b91}.cls-91{fill:#f2fcfe}.cls-93{fill:#e9f9fe}.cls-99{fill:#04c4f7}.cls-110{fill:#e7f8fe}</style></defs><path d="M.1 218.5Q.1 111.3 0 4.09C0 .67.67 0 4.09 0Q175 .18 345.91 0c3.42 0 4.09.67 4.09 4.09q-.17 214.41 0 428.82c0 3.42-.67 4.09-4.09 4.09Q175 436.82 4.09 437c-3.42 0-4.1-.67-4.09-4.09q.2-107.2.1-214.41Z" class="cls-1"/><path d="M117 341.82c-5.66-1.89-11.5-.75-17.24-.78-7.1 0-14-.12-19.12-6.11-.82-.94-2.28-1.32-3.45-2-.63-.6-1.7-.22-2.23-1-2.47-3.77-5-4.93-8.62-1-1.09 1.19-3.53 3.85-4.69 1.85-1.28-2.23-3.23-5.75.09-8.52 2.9-2.41 5.78-4.85 8.68-7.28a1 1 0 0 1 1.18.26c1.3 2.51 2.5 5.11 5 6.69a4.86 4.86 0 0 1 .76.74c1.18 0 .15-.73.31-1.07-.73-2.8-1.48-5.58-.26-8.42-4.7-7.66-4.41-16.18-4.25-24.69.07-4.58 1.3-7.78 6.8-7.14 1.73.2 3.48.06 2.93-2.54-1.5-1.73-1.27-3.83-1.26-5.88-.08-2.56-.11-5.11-.08-7.67-.1-12.6.61-25.11 4.25-37.3-2.92 9.95-4 20.16-4.39 30.48a4.91 4.91 0 0 1-1.32 3.65c-4.87.33-7.33-3-9.79-6.39-.75-1.26-1.79-2.47-1-4.09 5-10.51 8.48-21.89 17.32-30.19 3.54-3.33 7.47-5.91 12.47-6.39 6.93 2.52 14.06 1.32 21.13 1.18 7.92 5 16.64 9 21.69 17.6 2.51 4.24 5 8.53 7.65 12.67 1.46 2.25-.62 3.7-.77 5.56-1.15 4.14-4.48 6.63-7.19 9.6-1.6 1.54-3.22 3.13-3.88 5.36a7.79 7.79 0 0 0-.26 1.92c-.27 6.9.18 7.39 7.11 7.71a16.55 16.55 0 0 1 2.42.25c5.17 1.92 9.71 6 15.84 4.57 5.69-.51 10.36-4.41 16.08-4.84 5.13-.1 10.26-.61 15.37.26a13.59 13.59 0 0 0 3.41.63c20.51-.62 41 1.1 61.48 1a3.69 3.69 0 0 0 1.9-.46c.55-1.09 1.11-2.18 1.67-3.27 6.42 2.26 6.2 2.23 7-4.68.67-6 .88-12.13 1.49-18.18.33-.78.48-1.9 1.48-1.88.34 0 .65 1.29 1 2 2.19 7 1.63 14.11 1.68 21.22 0 5 0 5 4.75 3.19a4.34 4.34 0 0 1 2-.32l1.62 4.66a9.19 9.19 0 0 1-3.09 1.44c-3.72 1.25-5.65 3.63-5.33 7.72a16.54 16.54 0 0 1-.55 5.84c-.54 5.58 0 11.16-.3 16.74a20.51 20.51 0 0 1 0 2.6c.13 1.48-.06 3 0 4.43.31 7-.23 14.07 0 21.11-.07 1.6-.08 3.22-1.24 4.52a2.84 2.84 0 0 1-3.58-.28c-1.83-3.22-1-6.73-1.06-10.12-.18-6.07-.26-12.14-.14-18.2a24.71 24.71 0 0 0 .15-3.65c0-5.18-.39-10.38.21-15.55a25.23 25.23 0 0 0 1-8.25c0-2.55-.1-5.07-3.1-6s-2.9 2.51-4.52 3.56a4.62 4.62 0 0 1-3.17 1c-38-.18-76 0-114 0-2.51 0-5.84-1.32-7.27 2.41-.45 3.82.2 7.65 0 11.47-.46 7.41-4.62 11.67-12 11.89-7 .21-14 .22-20.94 0-1.15 0-2.31.13-3.47 0-3.45-.25-5.81.5-5.61 4.78.21 4.47.68 5.14 5.78 5.18a92.92 92.92 0 0 0 9.44-.07c12.57.19 25.14-.59 37.69.41a14.82 14.82 0 0 1 4.52 2 7.44 7.44 0 0 1 2.82 8.36c-.87 3.66-3.45 5.65-7.07 6.06-5.63.65-11.29.22-16.94.28-3.16 0-6.32.07-9.46.23a19.37 19.37 0 0 1-5.53-.87Z" class="cls-2"/><path d="M251.42 221.06c-2.63 13.45-5.24 26.94-7.92 40.34-.78 3.9-1.77 7.74-2.66 11.61a4.91 4.91 0 0 1-3.58 1.46c-17 0-34 .67-51-.31-3.27-1.53-5.45-4.37-8-6.74-.36-6.26 2.18-12 3.21-18q2-11.76 4.78-23.37c1.06-4.42 3.61-6.54 8.08-6.52 17.12.09 34.25.12 51.38 0 2.1-.04 3.86.85 5.71 1.53Z" class="cls-2"/><path d="M267.83 55.13c0 9.82 0 19.63.13 29.44 0 4.71-2.21 7.07-6.93 7.07h-63.34c-4.37 0-5.47-2.83-5.47-6.17 0-10.3.32-20.59.51-30.89 1.73-1.29 3.76-1.2 5.73-1.2 17.41 0 34.82-.13 52.22 0 3.9.13 7.8-.15 11.7 0 1.96.17 3.94.21 5.45 1.75Z" class="cls-3"/><path d="M284.46 391.75c7.32.09 14.63.33 21.94.21 3.1-.05 5.69.61 5.68 3.91 0 3.59-3.23 3-5.65 3H42.77c-2.25 0-4.59-.28-4.67-3.25-.1-3.24 2.41-3.56 4.82-3.71 5.31-.33 10.65.54 16-.34 2.13-1.68 4.69-1.44 7.09-1.29 6.3.4 12.75-1.31 18.91 1.23l9.18.33c1.62-1.46 3.63-1.58 5.64-1.58 14.48 0 29-.23 43.46.12 3.31.09 6.61-.2 9.92-.33 8.45.5 16.91.37 25.36.1 4.08.17 8.18.68 12.18-.67 8.59 1.56 17.24.87 25.87.55 14.16.35 28.31.53 42.46-.1 6.62.41 13.24.4 19.87.42 1.92.04 3.96-.07 5.6 1.4Z" class="cls-4"/><path d="M280.89 204.16c-7.49 0-15-.14-22.48.06-3.52.1-4.67-1.27-4.64-4.65q.17-17 0-34c0-3.37 1.17-4.68 4.69-4.64q22 .24 44 0c4.08 0 5.64 1.41 5.58 5.54q-.32 16.27-.04 32.53c.07 3.83-1.1 5.39-5.12 5.25-7.33-.25-14.66-.09-21.99-.09Z" class="cls-2"/><path d="M125.46 188.75c-8.5-.12-17 1.19-25.48-.81-2.65-.57-3.85-2.57-4.4-4.9-1.48-6.29-2.67-12.65-3.82-19-.37-2.08-.4-4.36 1.73-5.85 3.18-1.35 6.54-.85 9.82-.87q11.93-.1 23.85 0c2.28 0 4.69-.27 6.54 1.61-1.53 8.07-3.11 16.13-4.55 24.21a9.36 9.36 0 0 1-3.69 5.61Z" style="fill:#f5483b" transform="translate(159 203)"/><path d="M49.76 134c2-1.18 3.92-2.48 6-3.51 1.48-.74 2.38-1.54 2.35-3.36 0-1.3-.82-3.35 1.5-3.55s4.63-.55 6.88.32a.94.94 0 0 1 .44.79c-.93 7 5.43 6.44 9 8.78 2.65 1.47 4.56 3.5 4.88 6.67-.83 3.7 1 7.51-.49 11.21a1.26 1.26 0 0 0 .73 1.65c4.28 1.51 1.83 3.94 1 6.26-1.11 2.93-2.84 2-4.7 1-1.27-.69-2.26 0-3.08.91-2 2.15-4.84 2.79-7.42 3.89-2.51 2-5.06 1.89-7.63.11A21.36 21.36 0 0 1 51.4 161a2.78 2.78 0 0 0-4-.31c-3.14 2.25-4.12-.22-5.28-2.37s-2.17-3.91 1.28-4.76c2.17-.53 1.86-2.23 1.68-4-.31-3.1-.64-6.24.75-9.21C45 137 46.6 135 49.76 134Z" class="cls-3"/><path d="M-30.92-115.95a19.05 19.05 0 0 1-18.94 19.13 19.53 19.53 0 0 1-19.47-19.77c0-10.32 9.14-19.38 19.56-19.32 10.22.05 18.77 9.13 18.85 19.96Z" style="fill:#f99738" transform="translate(159 203)"/><path d="M-74.13 188.55a206.93 206.93 0 0 1-26 .06c-3.86-8.86-5.35-18.36-7.54-27.67 1.21-1.38 2.89-1.52 4.53-1.54 10.86-.14 21.73-.1 32.59 0a4.62 4.62 0 0 1 2.35.65q-2.95 14.24-5.93 28.5Z" style="fill:#f8b034" transform="translate(159 203)"/><path d="m92-148.09-58.25-.29c-.16-1-.41-2-.48-2.94-.71-10.71.13-11.62 10.81-11.6l47.84.12c3.21 6.01 3.24 11.26.08 14.71Z" style="fill:#f7ca4f" transform="translate(159 203)"/><path d="m134 178-2.3 1.84a5 5 0 0 1-.9 1.05c-2.16 1-2.95 2.93-3.47 5.05a27.07 27.07 0 0 1-1 3.3c-.77 1.94-1.15 4.53-3.66 4.72-2.31.18-1.22-3.13-3-3.91-1.46.61-1.38 2.1-1.88 3.25-.77 2.35-.72 4.95-2.21 7.08s-3.39 4.19-5.84 5.33c-2.74 1.36-5.84 2.57-8.46-.64a66.8 66.8 0 0 1-8.9-20.17c-1.22-4.61-1-9.18 2.76-12.86 4.44.6 7.66 4.34 12.36 4.56 3.33.15 6.39.48 9.68-.9 5.3-2.21 10.74-1 16 .7a1.33 1.33 0 0 1 .82 1.6Z" class="cls-9"/><path d="M125.19 125.26c2.82 0 5.65-.19 8.46 0 5.79.46 9.67 3.94 10.34 9 .77 5.86-1.83 11-7.36 12.57-7.42 2.1-15.19 1.83-22.64.29-5.7-1.18-8.26-5.81-8-11.61.27-5.32 3.46-9 9.26-10 3.23-.56 6.6-.37 9.9-.52Z" class="cls-4"/><path d="M181.83 240c-5.81-.88-11.64 0-17.45-.16-8.82-.2-11.23-2.55-11.22-11.39q.06-42.45.22-84.91c0-6.49-.11-13 0-19.46.16-7.12 2.38-9.22 9.35-9.22h65.44c9.13 0 11.55 2.23 11.59 11.39.1 20.82 0 41.63 0 62.45v25.48c0 1.49-.82 3.49 1.62 4.09-1.29 2.85-2.77 1.64-4.27.2-1.06-2.19-.91-4.55-.9-6.87.1-28-.28-55.94.2-83.9a11.09 11.09 0 0 0-.84-4.87c-1.11-3.14-3.54-4.16-6.64-4.17q-32.63-.12-65.25 0c-3.29 0-5.87 1.1-6.58 4.73-1.41 3.4-.53 6.92-.54 10.37l.08 89.24c0 1.83-.05 3.66.06 5.48.3 5.15 2.09 7.09 7.3 7.68 3.64.42 7.31.13 11 .22 2.31 0 4.68-.2 6.79 1.12a1.63 1.63 0 0 1 .04 2.5Z" class="cls-10"/><path d="M178.63 267.82c3.37.18 5.26 2.29 6.49 5.18.47 5.17-3.21 5.86-7 6.45-5 1.75-9.61 4.74-15 5.3-10.62-.32-15.12-8.99-21.12-15.53a4.91 4.91 0 0 1-.7-6.33l7.46-8.89c1.72 2.63 3.9 5.07 5.09 7.92 3.07 7.32 8.68 8.08 15.39 6.76 2.43-.47 4.89-.81 7.33-1.22.81-.64 1.43-.25 2.06.36ZM101.28 205.07c6.18 2.39 10-1.14 13.56-5.4 1.84-.45 3.53-1 2.07-3.44a3.1 3.1 0 0 1-.11-2.8c.07-2.61.83-5.85 3.4-5.73 2.87.13 1.36 3.75 2.12 6.18 3-2.62 3.2-6.16 4.07-9.43.62-2.3.86-5.17 4.53-4.37a44.59 44.59 0 0 1 .16 14.85c-.33 6-1 11.86-5.93 16.16-2.15-.25-4.06-1.19-6.15-1.84-.74 1.65 2 2.27 1.05 3.9 0 1.68.06 3.37.1 5.06-7.15 2.7-14.29 3.66-21.09-1.21 1.56-3.8.11-8.2 2.22-11.93Z" class="cls-11"/><path d="m104-63.16-7-.1c-1-1.16-.38-2.24.38-3.08A161.37 161.37 0 0 1 111-79.91a3.72 3.72 0 0 1 2.76-.86c2.82.49 4.32 2.81 6.18 4.57s3 1.75 5 .18c2.49-2 4.51-4.8 8-5.3C139-77.16 143.32-71 149.18-66.66a2.3 2.3 0 0 1 .76 2.7c-6.22 1.1-12.48.27-18.72.46-9.08.28-18.15-.38-27.22.34Z" style="fill:#f8b135" transform="translate(159 203)"/><path d="M-25-25c-6.45-1.59-12.38-2.86-19.36.12-4.9 2.1-11.55.17-16.58-3.48-1.05-.77-2-1.73-3-2.6.33-3.24.39-6.55 3.6-8.67 3.79-2.51 8-1.79 11.78 2.24 5.14-6 8.06-6.17 13.15-.2 1.46 1.71 2.44 1.38 4.18.85 3.18-1 6.13 0 7.68 3s2 6.32-1.45 8.74Z" style="fill:#0a3e78" transform="translate(159 203)"/><path d="m110.82 143.64 3.12.05c.53-.53.9-1.24 1.64-1.55a11.08 11.08 0 0 1 3.83-.55c3.94.12 8-.45 11.62 1.65 1.13.14 2.27.22 3.39.43 1.49.26 3.86-.89 4.25 1.26.49 2.66 1 5.59-.43 8.18-.61 1.12-2.1.6-3.21.74a8.19 8.19 0 0 1-4.67 1.57c-13.13 0-26.26.67-39.39-.37-2.47-.59-4.61-1.49-5.28-4.38-1.24-5.27.93-8.14 6.42-8.2h3.42c4-.06 7.92 0 11.88.06a5.59 5.59 0 0 1 3.41 1.11Z" style="fill:#f8c94e" transform="translate(159 203)"/><path d="M-108.94 155c-5 .26-3.63-3.44-3.85-6.2-.28-3.38 2-3.19 4.23-3.18h41.4c1.59 0 4.42-.89 4 2-.32 2.41 2.72 6.36-2.38 7.13-1.58.24-1.37 1.7-2.21 2.39-11.19-1.23-22.43-.33-33.64-.62-2.61-.03-5.32.37-7.55-1.52Z" style="fill:#f8af33" transform="translate(159 203)"/><path d="m118.91 142.85-3.89.27c-.69-1.26.12-2.22.69-3.18.67-1.14 1.43-2.23 2.14-3.35 9.34-14.79 9.34-14.79 6.83-32.46a7.08 7.08 0 0 1 .1-1.53 4.59 4.59 0 0 1 .43-1.42c.8-1.44 1.49-3.38 3.42-3.15 2.27.27 2.44 2.45 2.58 4.27.26 3.65 0 7.31.13 11.18 4.56-5.14 6.9-10.8 6.26-17.62a23 23 0 0 1 .4-7.93c1.09-1.23 2.1-2.58 3.78-3.1 2.62 2.65.73 6 1.75 9.49 4.09-6.39 8.4-12.32 12.47-18.42 1.5-.69 2.81-2.27 4.73-1-2.84 8.23-8.19 15-12.73 22.29a13.78 13.78 0 0 0-1.28 2.36c-1.67 3.38-4.34 6.16-5.83 9.64.31 2.22 1.75.76 2.65.75 2.9 0 5.95-1.25 8.54 1.1a9.17 9.17 0 0 1-2.06 4.81 15.56 15.56 0 0 1-6.36.36c-5.26-.61-8.9 1.37-11 6.21a12.77 12.77 0 0 1-1.58 2.49c-.41.59-.84 1.15-1.25 1.73-2.46 4.1-4.81 8.25-7.19 12.38a8.31 8.31 0 0 1-3.73 3.83Z" style="fill:#01c3f7" transform="translate(159 203)"/><path d="M297 290.93c3.07 9.53 1.06 17.69-7.53 29.64-1.32-6.44.31-12.69-1.22-19.25-2 1.36-3.13 2.68-3.39 4.72-3.66 3.31-6.11 8.21-11.73 9 .06-6.07-.88-12.18.65-18.19l.62.23c4.84.6 7.77-3.25 11.59-5l2.25 7.23c2.99-2.87 5.88-5.62 8.76-8.38Z" class="cls-17"/><path d="M19.15 76.46c2.56-1.89 6.44-2.36 7-6.45h55.69A6.27 6.27 0 0 1 78 76.23c-1 1.36-2.55 1.31-4 1.22-13-.79-26-.35-39-.45Z" style="fill:#011b60" transform="translate(159 203)"/><path d="M113.72-80A65.73 65.73 0 0 0 97-63.26c-.94 0-1.7-.31-1.68-1.33.25-10.7-.85-21.42.58-32.09 7.5 3.87 13.22 9.68 17.82 16.68Z" style="fill:#f9cb51" transform="translate(159 203)"/><path d="M308.94 139c-4.47-4.3-9-8.57-13.4-12.9-1.39-1.36-3-2.54-3.74-4.5 0-2 1.59-2.75 2.8-3.85 3.55-3.26 7.38-6.2 10.92-9.48 1.14-1.06 2.12-2.73 4.17-2 0 10.35.08 20.71.06 31.06 0 .67-.53 1.16-.81 1.67Z" class="cls-20"/><path d="m150.69-96.66-17.89 15.3c-3.13 2.66-5.88 6.58-9.48 7.64-4.23 1.25-5.74-5-9.6-6.31L95.89-96.68c-.76-2.33.76-2.46 2.39-2.46h50c1.56.01 3.11.14 2.41 2.48Z" style="fill:#13c7f7" transform="translate(159 203)"/><path d="m19.63 64.82-2.06-.32Q20.2 50.76 22.83 37c.08-.68.17-1.35.25-2-.64-4.37 1.3-8.39 1.71-12.63a9.66 9.66 0 0 1 .37-1.5c1-2.79 2.27-5.33 5.13-6.66a16.18 16.18 0 0 1 5.71-.58 20.66 20.66 0 0 1 3.42.2 11.7 11.7 0 0 1 1.77.31c10.21 1 20.43-.15 30.64.24 2.47.1 5-.18 7.28 1 1.15.27 2.31.69 3.42-.1 3.53.12 7.63-1.75 9.93 2.78-18.92 0-37.85.07-56.78-.16-4.54 0-6.52 1.61-7.39 6-2.75 13.66-5.77 27.28-8.66 40.92Z" style="fill:#0b437c" transform="translate(159 203)"/><path d="m118.91 142.85 10-16.9c3.58-.3 7.14-.75 10.7-1.26 1.76-.25 3.62-.26 5.07 1.17-3.5 6.63-8.56 12-13.67 17.38Z" style="fill:#04a7b2" transform="translate(159 203)"/><path d="M-108.94 155h36.45c1.9 0 4.18-.63 4.76 2.25-.15.94-.31 1.89-.47 2.83-1.78 1.19-3.8.92-5.77.92h-33.7a10.07 10.07 0 0 1-1.27-6Z" style="fill:#f4772f" transform="translate(159 203)"/><path d="M-14.94 188.89h-50c-.66-4 1.21-4.93 5-4.8 5.93.19 11.89-.22 17.83-.38 2-.66 4.19-.65 6.29-1a117.74 117.74 0 0 0 17.21.55c4.49-.26 5.19 1 3.67 5.63Z" style="fill:#097ddc" transform="translate(159 203)"/><path d="M92-148.09c1.89-4.91.18-9.81-.08-14.71 3.11 0 6.23-.11 9.34-.12 7 0 8.64 1.73 8.13 8.72-.15 2.11-.36 4.22-.54 6.33Z" style="fill:#5dcbf7" transform="translate(159 203)"/><path d="m-81.58 112.18 1.55 8.57c-1.26-.57-1.38.83-2.09 1.21-.23 0-.46-.06-.69-.1-1.64-2.55-3-5.28-4.79-7.74l-1-.14c-1.65-2.31-2.81-.15-3.8.62-2.32 1.82-4.41 3.93-6.65 6-4.52-8.13-4.5-8.18 6.84-20.81 1.54 6.05 6.73 8.61 10.63 12.39Z" style="fill:#04c4f9" transform="translate(159 203)"/><path d="m91 153.73 44 .13c-.19 1.75-.13 3.58-1.33 5.07l-41 .28c-2.4-1.21-2.99-3.07-1.67-5.48Z" style="fill:#cf3531" transform="translate(159 203)"/><path d="M135.34 80.93a23.79 23.79 0 0 1-.4 15 27.23 27.23 0 0 1-42.21 13.2c-.89-.67-3-1.13-1.81-2.81s2.3.29 3.21.91c8.55 5.86 17.5 6.94 26.65 1.8s13.42-13.31 13.12-23.85c-.04-1.18-.53-2.61 1.44-4.25Z" class="cls-10"/><path d="m-76.23 72 .12 5.84c-2.11-.28-4.23-.55-6.33-.86-11.33-1.64-14-6.6-9.14-17a1.4 1.4 0 0 1 2.17.26c3.23 5.22 8.33 8.32 13.18 11.76Z" style="fill:#f54a3d" transform="translate(159 203)"/><path d="M60.07 336c-3.62-.38-7.25-.71-10.86-1.15a8.93 8.93 0 0 1-5.77-2.52 7.32 7.32 0 0 1-1.55-7c.7-2.47 3.09-.2 4.73-.42 1.27-.16 2.62.44 3.92.4 6.59-.2 9.43 3.33 9.72 9.51a.83.83 0 0 1-.19 1.18Z" class="cls-30"/><path d="M121.31 64.18c-10.18-3.49-20-3.94-28.5 3.53-8.23 7.23-9.66 16.77-7.69 28-5.89-6.79-2.6-21.74 5.46-29.22 7.23-6.75 23.42-10.85 30.73-2.31Z" class="cls-31"/><path d="M43.56 313.33c3.25.56 6.33 1.17 9.44 1.59a3.18 3.18 0 0 1 3 2.64c2.13 6.93 1.83 7.38-5.23 6.26-1.63-.26-3.26-.57-4.88-.88-4.27-.82-6.31-4.57-5-8.65.67-1.82 1.82-.93 2.67-.96Z" class="cls-30"/><path d="M129.93 125c.29-.59.57-1.19.87-1.78 4.39-8.71 9.64-10.7 19.25-7.3-1.06 2.81-2.16 5.6-4.23 7.87-5.26.82-10.41 3.1-15.89 1.21Z" style="fill:#05a7b1" transform="translate(159 203)"/><path d="M112.2 50.9c1.68 4.18.92 8.56.52 12.74A90.56 90.56 0 0 0 112 75.5c.1 3.43-1.26 3.82-3.71 2-1.57-1.16-3.6-1.8-4.54-3.74 1.74-8.01 5.03-15.46 8.45-22.86Z" style="fill:#05a8b3" transform="translate(159 203)"/><path d="M299 312c1.12-3.87 4-6.7 6-10 3.48-2.07 7-3.55 10.94-1-.29 4.33-2.16 8.14-4 12-4.32-.5-8.79 1.05-12.94-1Z" class="cls-34"/><path d="M-76.23 72a19.2 19.2 0 0 1-12.38-9c-.71-1.16-1.23-2.78-3-3.07l2.88-5.25 9 6.3a4.44 4.44 0 0 1 3.69 2.94c-.08 2.7-.13 5.37-.19 8.08Z" style="fill:#ef7834" transform="translate(159 203)"/><path d="M123 75.1c-2 2.33-4.82 3.24-8.11 4.36V63.18c0-4.06-.17-8.11-.26-12.17A141.67 141.67 0 0 1 123 75.1Z" style="fill:#06a8b3" transform="translate(159 203)"/><path d="M41.65 272.86c3.53 3.77 6.29 6.84 9.19 9.78s-.64 4.73-1.39 6.91c-1 2.81-2.75.66-4 .1-6.02-2.74-6.7-5.4-3.8-16.79Z" class="cls-37"/><path d="M52 305.11c2-2.88 4.27-5.65 6.09-8.66 1.46-2.4 2.32-2.47 4.27-.36 3.19 3.45 3.25 6.22-.5 9.21-2.79 2.23-4.17 6-7.84 7.31-1.85-2.17-3.23-4.48-2.02-7.5Z" class="cls-38"/><path d="M315 278.9a1.42 1.42 0 0 1 .3 2.14 207.06 207.06 0 0 1-14.56 19.19v-12.4c4.35-3.67 8.88-7.01 14.26-8.93Z" class="cls-39"/><path d="m-107 102.11 2 7.5c-3.85.39-7.43-1.07-11.16-1.59-2.13-.3-2.62-1.73-2.65-3.53v-6.34c4.26.96 8.38 1.38 11.81 3.96Z" style="fill:#05c4f9" transform="translate(159 203)"/><path d="m146.91 96.94 13.86-22c.42 6.9-1.17 13.5-3 20.06-3.3 2.4-7.05 2.35-10.86 1.94Z" style="fill:#06a9b3" transform="translate(159 203)"/><path d="M273.78 296.82c0-2 .12-3.92.14-5.88 0-5.47 3.77-8.61 9.73-8.18 1 2.67 2.06 5.32 2.11 8.23-3.77 2.3-7 5.58-11.77 6Z" class="cls-17"/><path d="M122 387c-1.77 1.28-3.46 1-5.11-.25l.15-24.61a3.51 3.51 0 0 1 4.78 1.33c1.06 7.78 1.59 15.63.18 23.53Z" class="cls-4"/><path d="M121 362.91a6.49 6.49 0 0 1-4-.82c-1-6.75-.36-13.51 0-20.27a3.35 3.35 0 0 1 4.12-.18c3.7 7.11 2.78 14.2-.12 21.27Z" class="cls-42"/><path d="M35 77c10.87-1.93 21.79-1.08 32.7-.58 3.46.16 6.89.94 10.31-.16 8 1.62 16 .21 24 .8-.81 1.21-2.07.86-3.17.86H38.05c-1.05-.04-2.32.44-3.05-.92Z" style="fill:#d1f2fb" transform="translate(159 203)"/><path d="M-108.33 18.46c1.67.06 6.74 5.44 6.21 6.31-1.44 2.39-3.25 4.61-5.92 5.67-1 .41-6.21-5.32-5.71-6.22a20.28 20.28 0 0 1 5.42-5.76Z" style="fill:#f9cd57" transform="translate(159 203)"/><path d="M50.61 301.44c-10.86-2-11.33-2.56-10.11-11.51 6.29 1.07 9.61 4.81 10.11 11.51Z" class="cls-37"/><path d="M73.25 197c-.33 4-2.27 6.19-6 6.13s-5.76-2.62-5.68-6.13a5.66 5.66 0 0 1 6-5.91c3.87-.01 5.27 2.78 5.68 5.91Z" class="cls-38"/><path d="M137.11 25.45c-1.58 2.26-3.32 5.17-5.59 5.25s-5.16-2.87-5.28-5.11 2.83-5.11 5.09-5.3c2.52-.21 3.82 3.18 5.78 5.16Z" style="fill:#f55245" transform="translate(159 203)"/><path d="M-106.21 97.73C-109 92.65-110.3 87.9-105 83.9c6.08 4.24 6.07 4.48-1.21 13.83Z" style="fill:#08c5f9" transform="translate(159 203)"/><path d="M14.83-109.7c-2.14 2.13-3.38 5.53-5.77 5.33-2.16-.18-5.2-3.14-5-5.22s3.15-5 5.18-5.26c2.49-.31 3.11 3.71 5.59 5.15Z" style="fill:#f8b43d" transform="translate(159 203)"/><path d="M159.06 41.68c-.38 2.52-1.72 4.27-4.48 4.19a3.89 3.89 0 0 1-4-4.16c0-2.62 1.7-4.5 4.36-4.32a4.28 4.28 0 0 1 4.12 4.29Z" class="cls-10"/><path d="M294.29 76c-2.21-.3-3.9-1.29-4-3.69a3.63 3.63 0 0 1 3.46-4.08 3.54 3.54 0 0 1 4.23 3.25c.39 2.7-1.48 3.83-3.69 4.52Z" class="cls-48"/><path d="M50.06 89.78c-.74 1.92-1.5 4-3.77 4.11a3.86 3.86 0 0 1-4.14-4c0-2.34 1.77-3.56 3.87-3.73 2.39-.16 3.29 1.71 4.04 3.62Z" class="cls-31"/><path d="M-109.24-69a15.81 15.81 0 0 0-3.89 6.41c-6.31-3.23-6.25-3.24-2.61-7.55 2.99-3.57 4.43.21 6.5 1.14Z" style="fill:#1482dd" transform="translate(159 203)"/><path d="M263 139.84c1.56-1.39 3.47-.83 5.23-.83h40.69c-7.11 2.2-14.39.45-21.58.83-8.08.46-16.22.05-24.34 0Z" class="cls-20"/><path d="M115 94c3.89-2.07 7.07-5.53 11.77-6 .08.35.16.71.23 1.07-2.06 4.84-7.21 5-11.06 7.06-1.15.6-.78-1.31-.94-2.13Z" style="fill:#016e96" transform="translate(159 203)"/><path d="m-99.83-37.91 7.63-.09c-.22 2.28 1.61 5.57-3 5.59-3.88-.01-5.65-1.51-4.63-5.5Z" style="fill:#0d80dd" transform="translate(159 203)"/><path d="m-78.22-62.89-4.88-6.67c3.45-3.66 4.94-.74 6.78 1.86 1.97 2.8.73 4-1.9 4.81Z" style="fill:#0d7edc" transform="translate(159 203)"/><path d="M141.16 213.9c-.34 1.5-.93 3.21-3.28 3.12a3.16 3.16 0 0 1-3.16-3.18 3 3 0 0 1 3.28-3.39 3 3 0 0 1 3.16 3.45Z" class="cls-48"/><path d="M129.93 125c5.32-.14 10.53-1.69 15.89-1.21l-1.12 2.12a65.14 65.14 0 0 0-10.7 1c-1.65.23-3.64.73-5.07-.92Z" style="fill:#03779b" transform="translate(159 203)"/><path d="M140 109c4.31.56 8.8-1.2 13 1l-.83 1.15a37.33 37.33 0 0 0-11.15.71c-.83.21-2.14.61-2.54-.6s.7-1.73 1.52-2.26Z" style="fill:#03789d" transform="translate(159 203)"/><path d="M-38.91 10.15c-2.7-1.46-4.15-3.41-2.23-7 1.56 3.18 5.62 2.06 7.29 5a8.59 8.59 0 0 1-5.06 2Z" style="fill:#f34b3e" transform="translate(159 203)"/><path d="m146.91 96.94 10.85-2a2.74 2.74 0 0 1-.85 3c-3.73-.54-7.26 1-10.94 1a2 2 0 0 1 .94-2Z" style="fill:#067d9f" transform="translate(159 203)"/><path d="M-27.92-8.07q-.07-7.42-.16-14.85a.76.76 0 0 1 .82-.24c-.02 5.04 1.38 10.16-.66 15.09Z" style="fill:#b29a9f" transform="translate(159 203)"/><path d="M-84.06 128.94c.86.08 1.76.09 2.23 1-2 2.66-1.41 6.11-2.58 9.4-1.67-3.78 1-7.01.35-10.4Z" style="fill:#91c7ef" transform="translate(159 203)"/><path d="M-98.93 133c.06-.38.13-.77.19-1.15 1 2.56 2 5.1 1.55 8.76-1.09-2.93-1.94-5.12-1.74-7.61Z" style="fill:#98e6fc" transform="translate(159 203)"/><path d="M250 356.73c.44 1.86.38 3.88 1.69 5.48.47 8.1 3 15.85 4.12 23.83.33 2.26 2.33 3.14 3.17 4.9-1 1.23-2.45.83-3.73.83-11.32.08-22.64.1-33.95.16a10.82 10.82 0 0 1-5.36-.89c-4.18-2.5-8.32-5.06-13.06-6.47a4.73 4.73 0 0 1-3.5-3.14 3.93 3.93 0 0 1 .48-2.4c2.76-5.4 1.65-11.08 1.09-16.66-1.74-17.2-3.07-34.43-4.4-51.66-.5-3.43-1.19-6.71-4.55-8.71-2.43-1.5-5.5-2-7.26-4.54-2.14-3.39-5.44-4-9.11-4h-31.44c-2.16 0-4.34.17-6.44-.53a4 4 0 0 1-1.4-1.08c.07-2-.16-3.83 3-3.82q59.9.31 119.79.42a3.89 3.89 0 0 1 1 .27 3.17 3.17 0 0 1 .8 1.37c-.08 5-1.72 9.72-2.29 14.63a15.61 15.61 0 0 0-.31 2.25 5.72 5.72 0 0 1-1 2.83c-1 .78-1.83.29-2.68-.24a53.72 53.72 0 0 0-7.12-6.45c-.75-.5-1.48-1-2.22-1.53-2.4-1.59-4.74-3.28-7.27-4.68-3.21-1.62-6.29-3.58-10-3.9-2-.3-1.62.85-1.26 2 .9 2.93 2 5.76 3.19 8.6.44 1.31.86 2.63 1.18 4 .29 1.83 1.27 3.41 1.87 5.13a67.18 67.18 0 0 0 3.72 9.49c.95 1.74 1.89 3.49 2.8 5.26.39.76.76 1.54 1.17 2.3a27.09 27.09 0 0 0 4.07 5.73c3.18 4.06 8 6.62 10.55 11.23-1.15.06-2.3.15-3.45.17-6.41.07-6.08.06-6.06 6.2.02 3.52 2.7 2.57 4.17 3.62Z" class="cls-1"/><path d="M186.21 297.87c2.28 1 4.87 1.34 6.72 3.22 1.43 4.79-2.39 7.31-4.6 10.48-.91 1.32-2.49 2.07-3.7 3.16-6.33 5.1-14 7.38-21.45 10.09a34.43 34.43 0 0 1-6.18 3.43c-2.48-1.26-5.28-.35-7.83-1.18l-39.17-.19c-5.52-3.42-7.56-7.75-6-12.76 7 0 13.92 0 20.88-.08 7.8-.08 11-3.35 11.24-11.27.09-3.63.16-7.26.24-10.89a.76.76 0 0 1 .74.26c2.36 3.3 5.68 4.24 9.56 4.23h32.4c2.47.02 5-.13 7.15 1.5Z" class="cls-60"/><path d="M149.18 327.07c1.55-.37 3.09-.86 4.67-1.09s3.38-.74 3.42 1.88c1.62 2 1.32 4.38 1.09 6.65-1.31 12.81-2.15 25.65-3.43 38.49a13.43 13.43 0 0 0 .94 6.29 9.88 9.88 0 0 1 .3 4.29c-.85 2.54-1.23 5.32-3.17 7.42-2.82 1.77-5.93.62-8.89.91.54-3.51-.5-4.67-4.42-4.35A65.62 65.62 0 0 1 122 387c-1.66-8-.33-16-1-24a130.21 130.21 0 0 0 .11-21.27c5.95-1 12-.21 17.93-.45 2.49-.09 5-.16 7.47-.18 3.93 0 7.49-.83 8.35-5.38s-1.65-7.21-5.68-8.65Z" class="cls-1"/><path d="m284.9 306.92 2 16.13a7.08 7.08 0 0 1-1.36 4.66c-3.81 6.15-7.67 12.28-11.5 18.41-.14.6-.47.84-1.08.57 0-1.28.07-2.57.11-3.85 1.08-6.31 1.09-12.81 3.37-18.89 1.48-4-2.41-1.71-3.31-2.9v-4.16c5.35-1.6 8.12-6.31 11.77-9.97Z" class="cls-39"/><path d="M257.15 304.92c.71-5 1.29-10.08 2.91-14.92 4.53.8 6.77 4.64 9.84 7.38.07.23.13.46.2.68L270 315c-5.59-1.77-9-6.15-12.85-10.08Z" class="cls-34"/><path d="M256.71 309.69c.13-.89.27-1.78.4-2.67 5.36 2.28 9.35 6.17 12.7 10.81v28.81l-2.75.13c-1.71-2.09-1.42-4.66-1.39-7 0-5.64-1.24-11-2.82-16.33a9.15 9.15 0 0 1-.73-1.24 28.31 28.31 0 0 0-5.09-9c-.62-1.2-1.18-2.28-.32-3.51Z" class="cls-39"/><path d="M104 314.12c-.18 5.28 3.07 8.94 6 12.76-2.3.05-4.6.15-6.9.15-9.41 0-9.3 0-9.11-9.43.06-2.71.73-4 3.6-3.67 2.11.21 4.26.13 6.41.19Z" class="cls-61"/><path d="M-17.69 59.89c-1.11 3.83 2 5.83 3.86 8.14C-8.94 74-4 80 4.1 81.76c-6.3 1.31-11.2-1.79-16-5.09-5-2.4-8.23-6.44-10.15-11.58.47-2.54 2.77-3.57 4.36-5.2Z" style="fill:#e85b3b" transform="translate(159 203)"/><path d="M-76.06 63.94-79.75 61c1.66-5.25.78-10.76 1.7-16.12 1.26-7.3 2.48-14.55 6.26-21.12-4.06 13.13-4.02 26.67-4.27 40.18Z" style="fill:#04a9b6" transform="translate(159 203)"/><path d="M102.94 84.93c1-1.78.16-5.62 3.15-5s7 1.93 5.88 6.91c-.6 2.69.78 5.62-.88 8.22l-.17-.13c-.94-2.26-2.93-3.49-4.66-5-1.51-1.35-3.91-2.23-3.32-5Z" style="fill:#04a8b4" transform="translate(159 203)"/><path d="M114.11 118.05c1-.53 2-1.11 3-1.56 2-.85 3.23-.14 2.41 1.92-2.75 6.93-2.8 14.52-5.52 21.43Z" style="fill:#03769a" transform="translate(159 203)"/><path d="m-22.09 65.09 10.15 11.58a2.78 2.78 0 0 1-.49.08c-10.97.56-11.76-.4-9.66-11.66Z" style="fill:#def6fc" transform="translate(159 203)"/><path d="M284.9 306.92c-2.19 5.4-4.9 10.18-11.82 10v-1.88c4.58-2.12 6.88-7.22 11.73-9a2.36 2.36 0 0 1 .09.88Z" class="cls-67"/><path d="M110.81 114.83 98.11 104v-2.1c5.06 2.33 8.43 6.82 12.8 10Z" style="fill:#03789b" transform="translate(159 203)"/><path d="M261.94 287.93c1.13 2.14 3.1 3.34 5 4.69 1.74 1.25 3.42 2.74 3 5.31-3.85-1.94-6.5-5.39-9.86-7.93v-1.24Z" class="cls-67"/><path d="M-87.6 114.12c3.1 1.65 4.84 4.14 4.79 7.74-3.73-1.26-4.51-4.34-4.79-7.74Z" style="fill:#e2f7fd" transform="translate(159 203)"/><ellipse cx="84.54" cy="303.48" rx=".37" ry="10.57" style="fill:#35baf1"/><path d="M76.88 325c.22-1.23.54-2.29 2.09-1.21 0 .33.09.65.11 1 .06 1.5 1.2 3.89-1.2 3.92-1.8-.03-.46-2.51-1-3.71Z" class="cls-1"/><path d="M61.14 44.37c0 5.31-4.31 10.62-8.47 10.26-3.93-.33-5.53-3.14-5.54-6.92 0-4.92 4.34-10 8.59-9.81s5.58 2.93 5.42 6.47Z" style="fill:#f0fbfe" transform="translate(159 203)"/><path d="M231.52 75.3h28.89c1.14 0 2.92-1 3.18 1.12s-1.48 1.84-2.75 1.84h-59.78c-1.3 0-3 .16-2.66-1.9s2.06-1.28 3.24-1.28c10-.06 19.92 0 29.88 0Z" class="cls-72"/><path d="M238.47 71.22h-21c-1.14 0-3.1.73-3.08-1.34 0-1.38 1.66-1.35 2.82-1.35h43.45c1.12 0 2.67-.14 2.55 1.53s-1.76 1.16-2.79 1.17c-7.31.01-14.63-.01-21.95-.01Z" class="cls-1"/><path d="M59-118.24H42.61c-1.3 0-3.14.19-3.25-1.45-.14-2 1.85-1.32 3-1.44 10.91-1.13 21.82 0 32.73 0 1 0 2.65-.47 2.72 1.25.08 2-1.72 1.61-2.92 1.62-5.29.05-10.59.02-15.89.02Z" style="fill:#d5f5fe" transform="translate(159 203)"/><path d="M45-143c6.85.27 6.6.27 6.61 8 0 4-2.23 3.65-4.76 3.55-7.93-.32-7.93-.52-7.78-8.45.13-5.66 4.21-2.19 5.93-3.1Z" style="fill:#f24b3f" transform="translate(159 203)"/><path d="M226 62.07h8.43c.84 0 2.16-.48 2.29 1 .1 1.21-.81 1.75-1.91 1.75h-18.83a1.49 1.49 0 0 1-1.61-1.51c0-1.16.93-1.2 1.72-1.21H226ZM190.15 390.17c-3.41 3.29-7.18 1.9-10.93.85-4.66-3.52-11.07-4.25-14.8-9.26a3.33 3.33 0 0 1 .27-2.28c2.4-2.48 3.43-5.48 4.31-8.76 2.76-10 4.48-20.41 8.93-29.95 3.48.19 3.46 3.14 4 5.39 2 8.69 4.13 17.36 5.88 26.1.61 3 1.67 5.69 4.44 7.39a5.39 5.39 0 0 1 .85 3.94 14.73 14.73 0 0 1-2.95 6.58Z" class="cls-1"/><path d="M5.93 178.67c2.61 2.31 5.94 3.2 9 4.57a9.91 9.91 0 0 1 5.29 4.76A82.1 82.1 0 0 1-6 188a9.27 9.27 0 0 1 2.37-7.44c3.05-1.16 6.06-2.78 9.56-1.89Z" style="fill:#021b61" transform="translate(159 203)"/><path d="M31.15 187.17c0-2.27.24-4.48 1.94-6.23a10.31 10.31 0 0 1 8-2.27c2.28 1.64 5 2.2 7.57 3.14 3.34 1.19 6.7 2.57 8.28 6.19-7.94 1.83-16 .67-24 .61-.57.04-1.18-.92-1.79-1.44Z" style="fill:#021b60" transform="translate(159 203)"/><path d="M105.1-33.19c7.8.1 7.6.11 7.76 7.94s-5.47 3.76-8.41 4.12c-7.46.9-3.19-5.11-3.93-7.94-1.36-5.18 2.32-4.6 4.58-4.12Z" style="fill:#f6aa22" transform="translate(159 203)"/><path d="M129-27.3h-9.92c-1.26 0-2.79.36-2.84-1.74 0-1.89 1.15-2.11 2.6-2.11h21.33c1.26 0 2.3.22 2.39 1.82.11 2-1.29 2-2.64 2H129Z" style="fill:#d6f5fd" transform="translate(159 203)"/><path d="M288.44 182.9h-10.48c-1.59 0-2.58-.58-2.57-2.28s1.33-1.62 2.48-1.62q10.48 0 21 .12c1.32 0 2.85-.11 2.88 1.85s-1.44 1.92-2.79 1.93c-3.53.02-7.02.01-10.52 0Z" class="cls-72"/><path d="M260 189v-2c7.23-1.08 14.5-.41 21.74-.43 6.42 0 12.87-.6 19.28.37.8 1.8-.1 2.54-1.75 2.51-13.12-.23-26.22.66-39.27-.45Z" class="cls-1"/><path d="M110-5.95h-6.94c-1.33 0-2.81.1-2.63-1.94.12-1.41 1-2 2.33-2h15.36c1.68 0 2.48.82 2.4 2.41S119-6 117.92-6c-2.65.07-5.29.05-7.92.05Z" style="fill:#dff7fe" transform="translate(159 203)"/><path d="M260 189c12.07 0 24.14.05 36.21 0 1.79 0 4.19 1 4.81-2 1.2 1.61 1.11 3-1.15 3-13.1 0-26.2-.1-39.3-.2-.22-.06-.41-.54-.57-.8ZM301 187h-41c.5-1.22 1.59-1 2.54-1h35.87c.93 0 2-.16 2.59 1Z" class="cls-80"/><path d="M-95.9-63.55a7.41 7.41 0 0 1 6.9 7.62 7.82 7.82 0 0 1-7.59 7.57c-3.92 0-7.32-3.83-7.14-8a7.46 7.46 0 0 1 7.83-7.19Z" style="fill:#effbfe" transform="translate(159 203)"/><path d="M-58.09-116c-.1-4.67 3.46-8.76 7.65-8.8a8.59 8.59 0 0 1 8.6 8.55 8.42 8.42 0 0 1-8.09 8.42c-4.63.09-8.07-3.35-8.16-8.17Z" style="fill:#f3fbfc" transform="translate(159 203)"/><path d="M60.86-157.57a2.49 2.49 0 0 1 2.87 2.48 2 2 0 0 1-1.79 2.52 2.44 2.44 0 0 1-2.8-2.18 2.4 2.4 0 0 1 1.72-2.82Z" style="fill:#2a7888" transform="translate(159 203)"/><path d="M241 47.82a2.42 2.42 0 0 1-2.41 2.56c-1.4.06-1.87-1.08-2-2.31a2 2 0 0 1 2.27-2.45 2.09 2.09 0 0 1 2.14 2.2Z" class="cls-84"/><path d="M70.68-152.76c-1.22-.12-2.41-.5-2.32-1.93s.73-2.67 2.31-2.71 2.28 1.13 2.26 2.61-.93 1.98-2.25 2.03Z" style="fill:#156f8e" transform="translate(159 203)"/><path d="M201.54 50.19a1.84 1.84 0 0 1-2-2.18c.14-1.39.85-2.51 2.48-2.38a2 2 0 0 1 2 2.27 2.13 2.13 0 0 1-2.48 2.29Z" class="cls-84"/><path d="M54.32-154.65c-.12 1.34-1.16 1.87-2.35 2-1.48.15-2-.87-2.12-2.17-.1-1.72 1-2.44 2.49-2.38s1.87 1.2 1.98 2.55Z" style="fill:#0e6d90" transform="translate(159 203)"/><path d="M-42.2-9.57c.29.92.51 1.86.88 2.74.54 1.32 3.24 1.91 1.59 3.92-1.46 1.76-2.94-.29-4.43-.42 1.21-1.91 1.48-4.11 1.96-6.24Z" style="fill:#f24f41" transform="translate(159 203)"/><path d="M-23.59-66.65a1.76 1.76 0 0 1-2 1.7 1.84 1.84 0 0 1-2-1.78 2 2 0 0 1 2.27-2c1.18.03 1.5 1.08 1.73 2.08Z" style="fill:#e3f7fd" transform="translate(159 203)"/><path d="M-33.84-65c-1.1-.22-1.89-.79-1.75-2a1.86 1.86 0 0 1 2-1.78c1.25 0 1.68.88 1.64 2A1.68 1.68 0 0 1-33.84-65Z" style="fill:#def5fd" transform="translate(159 203)"/><path d="M-40.93-67a1.79 1.79 0 0 1-1.69 2 1.71 1.71 0 0 1-2-1.73 1.9 1.9 0 0 1 1.75-2c1.27-.27 1.8.56 1.94 1.73Z" style="fill:#e4f7fd" transform="translate(159 203)"/><path d="M198.17 218h-3.36a5.07 5.07 0 0 0-4.19-2.34 210.22 210.22 0 0 0-22.17.34c4.93.63 9.88.41 14.82.56 2.1.06 4.41-.37 6 1.67a11.5 11.5 0 0 0-4 5.74c-5.55-1.06-11.16-.31-17.2-.59 3.53.86 6.62.58 9.75.38 2.4-.15 5-.67 7 1.3a42 42 0 0 1-2.77 13c-5.81 0-11.63.09-17.44-.11-7.42-.25-9.77-3.25-9.73-9.48.26-33.79.12-67.47.12-101.25 0-1.44-.42-3 .84-4.24 2.23 2.91 5.3 3.58 8.79 3.54 21-.19 41.94-.14 62.91 0 4.1 0 7.54-.52 9.56-4.51 1.6 2.08.81 4.49.82 6.73q.12 44.84.13 89.67c-13.07.7-26.15 1-39.21-.22 2.43-2.63 6-.73 9.9-2.39-4.62-.62-7.93-.8-10.57 2.2Z" class="cls-4"/><path d="M237.12 122c.73 4.9-1.12 6.37-6.25 6.3-23.11-.27-46.23-.15-69.35.1-4.23 0-6.34-.89-5.66-5.4-.16-4.31 2.26-5.91 6.19-5.9q34.38.06 68.75.13c3.35-.02 5.85 1 6.32 4.77Z" class="cls-91"/><path d="M103.94 118.94c3.29 3.31 3.1 7.88 3.84 11.94s.24 8.58.29 12.89H96.34c-3.88-3.49-8.27-6.47-11.24-10.9 2.67-1.27 4.28 1.09 6.29 1.94 2.89 1.24 5.36 3.31 9.14 4.92-2.94-4.89-7.35-6.24-11.32-8.14-2.82-1.35-6-2.05-8.11-4.64L79.79 125c1.69-1.8 3.65-.84 5.53-.53s3.43 1.1 5.81 1.07c-4.15-4.22-9.42-4.35-14.2-5.66a31.85 31.85 0 0 1-3.93-10c2.71-1.94 5 .41 7.84.79-3-2.68-7.36-2.57-9.72-5.66-.38-1.37-.77-2.73-1.15-4.1 1.1-1.47 2.78-.19 4-.75-.36-2.29-4-3.53-1.85-6.47 4.1.29 4.77 4.65 7.42 6.46a6 6 0 0 1 .35-6.94l7 4.61c-.1 3.66-1.32 7.3-.34 11.06 1.83-3-.13-6.93 2.34-9.76 2.43 2.15 5.54 3.58 7.06 6.7 1.19 3.94.12 7.78-.54 11.64-.35 2-1.09 4-.27 6.41 1-5 .86-10 3.82-14A13.91 13.91 0 0 1 104 119c-1.87 4.11-2.65 8.47-3.37 13.92 2.48-5.08 1.08-9.92 3.31-13.98Z" style="fill:#50d4cd" transform="translate(159 203)"/><path d="M306 106.27c-7.58 6.72-14.62 13-21.71 19.19-1.17 1-2.25 2.56-4.16.82-7.02-6.43-14.13-12.79-22.13-20.01Z" class="cls-1"/><path d="M189.26 218.21c-7-.06-14-.07-20.94-.23-1.46 0-3.87.82-4-1.62-.08-2.18 2.09-2.15 3.78-2.16 7.64 0 15.28-.06 22.92-.12 2.68 0 4.78.43 3.76 3.92Z" class="cls-93"/><path d="M184.85 225h-18.21c-1 0-2.18-.14-2.2-1.43 0-.86.89-1.43 1.71-1.48a102.05 102.05 0 0 1 18.25.18c.35.05.58 1.07.87 1.63Z" class="cls-91"/><path d="M198.17 218c-.81-3.67 2-3.91 4.18-3.79 2.85.16 7.77-1.85 8 2.11.18 3.37-4.57 1-7 1.6a21.09 21.09 0 0 1-4.44.24 2.31 2.31 0 0 1-.74-.16Z" class="cls-93"/><path d="M99.55-152.52c-1.61-.37-1.91-1.77-2.17-3-.29-1.39.71-2.17 2-2.2a2.21 2.21 0 0 1 2.49 2.39c-.02 1.5-1.03 2.33-2.32 2.81Z" style="fill:#09c4f9" transform="translate(159 203)"/><path d="M-91.13-2c-2.16-.56-4-1.23-3.84-3.53.1-1.9.85-3.65 3.16-3.69A3.22 3.22 0 0 1-88.26-6c.05 2-1.34 3.25-2.87 4Z" style="fill:#ebfafe" transform="translate(159 203)"/><path d="M25 111c4-3.59 7.67-7.39 8.91-12.89 3.09 1.76 4.08 4.77 4.77 8-.26 14.26-1.17 28.49-1.13 42.76 0 2.82.16 5.68-.64 8.42-.54 1.85-.78 4.1-3.53 4.09-2.37-1.35-2.49-3.8-2.81-6.07-1.79-12.86-3.78-25.69-5.46-38.56A12.29 12.29 0 0 1 25 111Z" style="fill:#2595bd" transform="translate(159 203)"/><path d="M33 160.92c3.08-1.53 2.93-4.68 2.84-7.17-.47-12.73 1.2-25.39 1.09-38.09a23.33 23.33 0 0 1 1.73-9.6c1 13.76 2.78 27.45 3.49 41.26.41 8.06 1.87 16.09 2.09 24.21.07 2.72-.32 5-3.34 5.87-2 1.07-4.09 2.08-6-.23-1.59-5.3-3.68-10.55-1.9-16.25Z" style="fill:#1c8cb6" transform="translate(159 203)"/><path d="M186.21 297.87c-14 0-27.94.19-41.91 0-3.43-.05-8.32.56-7.22-5.73l40.63-.28c4.29-.04 7.29 1.71 8.5 6.01Z" class="cls-9"/><path d="M81.1 127c4.85 2.11 9.72 4.18 14.55 6.34 3.51 1.57 5.57 4.47 7.4 8.6-7-1.95-11.94-6.63-18-9A10.76 10.76 0 0 1 81.1 127Z" style="fill:#05b3ac" transform="translate(159 203)"/><path d="M235.93 322.89c5.64-1.55 13.14 1.66 16.75 7.41-4.94.16-9.18-2.68-13.89-2.29-1.47-1.41-2.07-3.32-2.86-5.12Z" class="cls-99"/><path d="M71.85 93.7c.35 3.5 4.16 5.2 4.85 8.79-2.62.2-4.38-2-6.73-1.55-1.3-3.18-2.67-6.33-3.86-9.55-.35-1-.66-2.66-.17-3.09 1-.87 2 .41 3 .91 1.45 1.21 3.31 2.12 2.91 4.49Z" style="fill:#07c5f7" transform="translate(159 203)"/><path d="M71.85 93.7C71.1 92.07 69 91.3 69 89.21c4.37-.62 7.39 2.41 10.93 4v8.26c-3.93-1.65-4.67-6.16-8.08-7.77Z" style="fill:#05c4f8" transform="translate(159 203)"/><path d="M258 312.88a49.72 49.72 0 0 1-4 15.3c-2.9-6.56.6-12.9 1-19.33l1.68.84c.48 1.06.92 2.12 1.32 3.19Z" class="cls-99"/><path d="M232.09 361.78c-.07 3.09-1.75 4.3-4.11 4.42a3.44 3.44 0 0 1-4-3.93c.11-2.31 1.23-4.31 3.87-4.18a4.3 4.3 0 0 1 4.24 3.69Z" class="cls-10"/><path d="M55.1 118.68c-.55 2-1.23 4.29-3.94 4.18a3.93 3.93 0 0 1-4-4.18 4 4 0 0 1 4.25-4c2.1.05 3.59 1.52 3.69 4Z" style="fill:#f8b43c" transform="translate(159 203)"/><path d="M89 99.15a36 36 0 0 1-1.4 12.69c-3.47-2.28-3.79-8.81-.6-14Z" style="fill:#05c4f6" transform="translate(159 203)"/><path d="M71.12 105c8.84 2.85 10 3.5 12.66 7.42-4.1.56-7.07-2.76-10.78-2.55a10.75 10.75 0 0 1-1.88-4.87Z" style="fill:#07c5f6" transform="translate(159 203)"/><path d="M35.92 177.15c1.62 1.13 3.39-.72 5 .25.05.42.09.85.14 1.27a12.39 12.39 0 0 1-8 2.27c0-1.16-.07-2.33-.1-3.49.85-1.67 1.88-1.26 2.96-.3Z" style="fill:#d27641" transform="translate(159 203)"/><path d="M155.5 380.24c-2.9-1.62-2.47-4.4-2.25-7 1.3-15.14 2.67-30.28 4-45.42.44-3.55 3.94-2.33 5.77-3.72 4.24-.78 8.22-3.63 12.82-1.62a2.25 2.25 0 0 1 .52 2.43 3.51 3.51 0 0 1-1.79 1.68c-6.56 2.14-8.36 7.14-8.83 13.45-.9 11.91-3.9 23.59-4.39 35.57a5.84 5.84 0 0 1-1.8 4.49 3.5 3.5 0 0 1-4.05.14Z" class="cls-61"/><path d="M16.9 120.13c-4.37-.64-8.54 1.08-12.86 1-.25-2.36 1.8-1.25 2.66-1.54A81.35 81.35 0 0 0 25 111c1.61 1.39.76 3.25.95 4.9-1.71 4.15-4.7 5.65-9.05 4.23Z" style="fill:#36a6c8" transform="translate(159 203)"/><path d="m-3.5 177.24 3.5-.56c2-.78 4.08-1.68 6 .33v1.66c-3.09 1.2-6.14 2.61-9.61 1.87Z" style="fill:#e1753a" transform="translate(159 203)"/><path d="M44.37-139.28c1.85.39 3.57-.39 3.59 1.78 0 1.19-.14 2.63-1.8 2-1.23-.45-3.38.53-3.58-1.64-.14-1.42.62-2.63 1.79-2.14Z" style="fill:#f3f5f7" transform="translate(159 203)"/><path d="m165 380-6-.33c2.1-4.67 1-9.77 1.83-14.67 1.92-10.55 2.78-21.29 4.36-31.9.88-6 6.57-6.26 10.76-8.24 2.62 5.24 4.25 10.61 2.19 16.47-2.82 11-5.67 22-8.41 33.08-.68 2.76-1.8 4.9-4.73 5.59Z" class="cls-60"/><path d="M178.14 341.34 176 324.88c0-.59 0-1.17-.05-1.75a14.22 14.22 0 0 0 9.05-4.25c2.44 7.52 2.42 15.45 3.91 23.14 1.4 7.23 2.13 14.59 3.16 21.9l2.88 16.23-2.93.3c-3 0-4.31-1.45-4.93-4.38-2.21-10.35-4.67-20.65-7-31-.38-1.39-.21-3.07-1.95-3.73Z" class="cls-42"/><path d="M109.3-27.67c-.85 2-2.76 2.3-4.6 3.37-1.27-1.87-1.19-4.38 0-5.24 1.44-1.09 3.23.63 4.6 1.87Z" style="fill:#f4f2e2" transform="translate(159 203)"/><path d="M180.78 142.84h-12.94c-1.76 0-3.67-.24-3.55-2.43.08-1.69 1.9-1.47 3.21-1.5 9.24-.23 18.48-.82 27.73 0 1.33.11 3 0 3.16 1.65.17 2.07-1.79 2.18-3.19 2.22-4.8.11-9.61 0-14.42 0Z" class="cls-110"/><path d="M24.23-35.93H8.77c-1.33 0-3.12 0-3.22-1.6-.13-2 1.85-2.15 3.29-2.16 10-.08 20-.07 29.92 0 1.77 0 3.81.6 3.67 2.51S40-36 38.69-36c-4.82.1-9.64 0-14.46 0Z" style="fill:#ebf9fe" transform="translate(159 203)"/><path d="M181.84 193.13h-13.9c-1.41 0-3.45.21-3.41-1.85 0-1.87 2-2 3.45-2 9.27-.07 18.54 0 27.81 0 1.43 0 2.8.43 2.85 2.08.06 2-1.65 1.7-2.9 1.71h-13.9Z" class="cls-110"/><path d="M19.34-6.9h10.94c1.41 0 2.8.27 2.64 2.13-.13 1.5-1.4 1.66-2.6 1.66-7.3 0-14.59.05-21.89 0C7.15-3.1 5.5-3.17 5.5-5S7-6.9 8.39-6.9Z" style="fill:#edfafe" transform="translate(159 203)"/><path d="M178.83 170.05h12.48c1.15 0 2.53.12 2.47 1.74-.05 1.37-1.32 1.18-2.27 1.31a108 108 0 0 1-24.84 0c-1.01-.1-2.17-.1-2.26-1.4-.12-1.7 1.3-1.65 2.44-1.7h12Z" class="cls-91"/><path d="M18.19-54.16H7.76c-1.16 0-2.45-.37-2.28-1.93a2 2 0 0 1 2.17-1.63q10.68-.11 21.35-.12c1.17 0 2.54.36 2.52 1.79 0 1.75-1.53 1.93-2.9 1.94H18.19Z" style="fill:#ddf5fd" transform="translate(159 203)"/><path d="M46.45-33.11a10.16 10.16 0 0 1 2 0c2 .37 5.56-1 5.58 1.41 0 3.09-3.67 2.38-6 2.49a46.56 46.56 0 0 1-6.47-.07c-1.41-.13-3.35-.26-3.21-2.3.12-1.8 1.88-1.51 3.16-1.54 1.62-.02 3.28.01 4.94.01Z" style="fill:#e5f7fd" transform="translate(159 203)"/><path d="M57.34-35.94h-7c-1 0-2.18-.37-2.11-1.59S49.41-39 50.47-39c4.14-.12 8.29.07 12.43-.48 1.19-.16 3.47.15 3.24 2.2-.17 1.58-2 1.45-3.31 1.46h-5.49Z" style="fill:#f1fbfe" transform="translate(159 203)"/><path d="M46-9.23a3.61 3.61 0 0 1-3.63-3.69 3.27 3.27 0 0 1 2.94-3.51c2.19-.27 3.38 1.28 3.57 3.23.23 2.12-1.34 3.2-2.88 3.97Z" style="fill:#e8f8fe" transform="translate(159 203)"/><path d="M204.51 135.93c2 .27 3.65 1 3.39 3.32-.22 1.89-1.3 3.63-3.39 3.53a3.45 3.45 0 0 1-3.38-3.54c-.05-2.24 1.29-3.19 3.38-3.31Z" class="cls-93"/><path d="M11.22-81.84A1.51 1.51 0 0 1 13-80.47c.15.78.18 1.79-.83 2a1.72 1.72 0 0 1-2.06-1.56 1.47 1.47 0 0 1 1.11-1.81Z" style="fill:#f49056" transform="translate(159 203)"/><path d="M6.39-80.19c-.25.75-.3 1.76-1.49 1.5-.84-.17-1.65-.61-1.57-1.61.08-.84.53-1.63 1.56-1.54a1.6 1.6 0 0 1 1.5 1.65Z" style="fill:#f48647" transform="translate(159 203)"/><path d="M103.94 118.94c.36 4.48-.57 8.87-1 13.29-.11 1.14.71 3.15-1.27 3.13-1.65 0-2.62-2.19-2.38-3.34 1-4.53.46-9.68 4.67-13.06Z" style="fill:#08c5f5" transform="translate(159 203)"/></svg>